<svg width="282" height="19" viewBox="0 0 282 19" fill="none" xmlns="http://www.w3.org/2000/svg">
<circle cx="7.10791" cy="9.59033" r="7.10791" fill="#6200EE"/>
<path d="M23.1022 15.5898H21.6249L25.8976 3.95348H27.3522L31.6249 15.5898H30.1476L26.6704 5.79439H26.5795L23.1022 15.5898ZM23.6476 11.0444H29.6022V12.2944H23.6476V11.0444ZM34.5965 10.3398V15.5898H33.2556V6.86257H34.551V8.22621H34.6647C34.8692 7.78303 35.1798 7.42697 35.5965 7.15803C36.0132 6.8853 36.551 6.74893 37.2101 6.74893C37.801 6.74893 38.3181 6.87015 38.7613 7.11257C39.2045 7.35121 39.5492 7.71484 39.7954 8.20348C40.0416 8.68833 40.1647 9.30196 40.1647 10.0444V15.5898H38.8238V10.1353C38.8238 9.44969 38.6457 8.9156 38.2897 8.53303C37.9336 8.14666 37.445 7.95348 36.8238 7.95348C36.3957 7.95348 36.0132 8.04628 35.676 8.23189C35.3427 8.4175 35.0795 8.68833 34.8863 9.04439C34.6931 9.40045 34.5965 9.83227 34.5965 10.3398ZM48.7968 8.81712L47.5922 9.15803C47.5165 8.95727 47.4047 8.76219 47.257 8.5728C47.1131 8.37962 46.9161 8.22053 46.6661 8.09553C46.4161 7.97053 46.096 7.90803 45.7059 7.90803C45.1718 7.90803 44.7267 8.03113 44.3707 8.27734C44.0184 8.51977 43.8422 8.82848 43.8422 9.20348C43.8422 9.53681 43.9635 9.80007 44.2059 9.99325C44.4483 10.1864 44.8271 10.3474 45.3422 10.4762L46.6377 10.7944C47.418 10.9838 47.9994 11.2736 48.382 11.6637C48.7646 12.0501 48.9559 12.5482 48.9559 13.158C48.9559 13.658 48.8119 14.105 48.5241 14.4989C48.24 14.8929 47.8422 15.2035 47.3309 15.4308C46.8195 15.658 46.2248 15.7717 45.5468 15.7717C44.6566 15.7717 43.9199 15.5785 43.3366 15.1921C42.7532 14.8058 42.3839 14.2414 42.2286 13.4989L43.5013 13.1808C43.6225 13.6504 43.8517 14.0027 44.1888 14.2376C44.5297 14.4724 44.9748 14.5898 45.5241 14.5898C46.1491 14.5898 46.6453 14.4573 47.0127 14.1921C47.3839 13.9232 47.5695 13.6012 47.5695 13.2262C47.5695 12.9232 47.4635 12.6694 47.2513 12.4648C47.0392 12.2565 46.7135 12.1012 46.2741 11.9989L44.8195 11.658C44.0203 11.4686 43.4331 11.1751 43.0581 10.7773C42.6869 10.3758 42.5013 9.87393 42.5013 9.27166C42.5013 8.77924 42.6396 8.34363 42.9161 7.96484C43.1964 7.58606 43.5771 7.28871 44.0582 7.0728C44.543 6.85689 45.0922 6.74893 45.7059 6.74893C46.5695 6.74893 47.2475 6.93833 47.74 7.31712C48.2362 7.6959 48.5885 8.1959 48.7968 8.81712ZM52.9516 15.5898L50.2925 6.86257H51.7016L53.588 13.5444H53.6789L55.5425 6.86257H56.9743L58.8153 13.5217H58.9062L60.7925 6.86257H62.2016L59.5425 15.5898H58.2243L56.3153 8.8853H56.1789L54.2698 15.5898H52.9516ZM67.3366 15.7717C66.4956 15.7717 65.7703 15.5861 65.1604 15.2148C64.5544 14.8398 64.0866 14.3171 63.757 13.6467C63.4313 12.9724 63.2684 12.1883 63.2684 11.2944C63.2684 10.4004 63.4313 9.61257 63.757 8.93075C64.0866 8.24515 64.5449 7.71106 65.132 7.32848C65.7229 6.94212 66.4123 6.74893 67.2002 6.74893C67.6547 6.74893 68.1036 6.82469 68.5468 6.97621C68.99 7.12772 69.3934 7.37393 69.757 7.71484C70.1207 8.05196 70.4104 8.49893 70.6263 9.05575C70.8422 9.61257 70.9502 10.2982 70.9502 11.1126V11.6808H64.2229V10.5217H69.5866C69.5866 10.0292 69.4881 9.58984 69.2911 9.20348C69.0979 8.81712 68.8214 8.51219 68.4616 8.28871C68.1055 8.06522 67.685 7.95348 67.2002 7.95348C66.6661 7.95348 66.204 8.08606 65.8138 8.35121C65.4275 8.61257 65.1301 8.95348 64.9218 9.37393C64.7135 9.79439 64.6093 10.2451 64.6093 10.7262V11.4989C64.6093 12.158 64.7229 12.7167 64.9502 13.1751C65.1813 13.6296 65.5013 13.9762 65.9104 14.2148C66.3195 14.4497 66.7949 14.5671 67.3366 14.5671C67.6888 14.5671 68.007 14.5179 68.2911 14.4194C68.579 14.3171 68.8271 14.1656 69.0354 13.9648C69.2438 13.7603 69.4047 13.5065 69.5184 13.2035L70.8138 13.5671C70.6775 14.0065 70.4483 14.3929 70.1263 14.7262C69.8044 15.0558 69.4066 15.3133 68.9331 15.4989C68.4597 15.6808 67.9275 15.7717 67.3366 15.7717ZM72.99 15.5898V6.86257H74.2854V8.18075H74.3763C74.5354 7.74893 74.8233 7.39856 75.24 7.12962C75.6566 6.86068 76.1263 6.72621 76.6491 6.72621C76.7475 6.72621 76.8706 6.7281 77.0184 6.73189C77.1661 6.73568 77.2778 6.74136 77.3536 6.74893V8.11257C77.3082 8.10121 77.204 8.08416 77.0411 8.06143C76.882 8.03492 76.7135 8.02166 76.5354 8.02166C76.1112 8.02166 75.7324 8.11068 75.3991 8.28871C75.0695 8.46295 74.8081 8.70537 74.615 9.01598C74.4256 9.3228 74.3309 9.67318 74.3309 10.0671V15.5898H72.99ZM87.5113 3.95348V15.5898H86.1022V5.43075H86.034L83.1931 7.31712V5.8853L86.1022 3.95348H87.5113Z" fill="#9291A5"/>
<path d="M102.267 15.7489C101.453 15.7489 100.733 15.6088 100.108 15.3285C99.4867 15.0482 98.9999 14.6618 98.6476 14.1694C98.2954 13.677 98.1211 13.1164 98.1249 12.4876C98.1211 11.9951 98.2215 11.5425 98.426 11.1296C98.6344 10.7129 98.9166 10.3664 99.2726 10.0898C99.6287 9.80954 100.026 9.63151 100.466 9.55575V9.48757C99.8863 9.34742 99.4223 9.03681 99.0738 8.55575C98.7253 8.07469 98.5529 7.52166 98.5567 6.89666C98.5529 6.30196 98.7101 5.77166 99.0283 5.30575C99.3503 4.83606 99.7916 4.46674 100.352 4.1978C100.913 3.92886 101.551 3.79439 102.267 3.79439C102.975 3.79439 103.608 3.93075 104.165 4.20348C104.725 4.47242 105.167 4.84174 105.489 5.31143C105.811 5.77734 105.973 6.30575 105.977 6.89666C105.973 7.52166 105.795 8.07469 105.443 8.55575C105.091 9.03681 104.632 9.34742 104.068 9.48757V9.55575C104.504 9.63151 104.896 9.80954 105.244 10.0898C105.597 10.3664 105.877 10.7129 106.085 11.1296C106.297 11.5425 106.405 11.9951 106.409 12.4876C106.405 13.1164 106.227 13.677 105.875 14.1694C105.523 14.6618 105.034 15.0482 104.409 15.3285C103.788 15.6088 103.074 15.7489 102.267 15.7489ZM102.267 14.3114C102.748 14.3114 103.165 14.2319 103.517 14.0728C103.869 13.9099 104.142 13.6845 104.335 13.3967C104.528 13.105 104.627 12.7641 104.631 12.3739C104.627 11.9686 104.521 11.6107 104.312 11.3001C104.108 10.9895 103.829 10.7451 103.477 10.5671C103.125 10.3891 102.722 10.3001 102.267 10.3001C101.809 10.3001 101.401 10.3891 101.045 10.5671C100.689 10.7451 100.409 10.9895 100.204 11.3001C99.9999 11.6107 99.8995 11.9686 99.9033 12.3739C99.8995 12.7641 99.9923 13.105 100.182 13.3967C100.375 13.6845 100.65 13.9099 101.006 14.0728C101.362 14.2319 101.782 14.3114 102.267 14.3114ZM102.267 8.89666C102.653 8.89666 102.996 8.81901 103.295 8.66371C103.595 8.5084 103.829 8.2925 104 8.01598C104.174 7.73946 104.263 7.4156 104.267 7.04439C104.263 6.68075 104.176 6.36257 104.006 6.08984C103.839 5.81712 103.606 5.60689 103.307 5.45916C103.007 5.30765 102.661 5.23189 102.267 5.23189C101.865 5.23189 101.513 5.30765 101.21 5.45916C100.911 5.60689 100.678 5.81712 100.511 6.08984C100.345 6.36257 100.263 6.68075 100.267 7.04439C100.263 7.4156 100.347 7.73946 100.517 8.01598C100.687 8.2925 100.922 8.5084 101.222 8.66371C101.525 8.81901 101.873 8.89666 102.267 8.89666ZM112.496 15.783C111.598 15.7792 110.831 15.5425 110.195 15.0728C109.558 14.6031 109.071 13.9194 108.734 13.0217C108.397 12.1239 108.229 11.0425 108.229 9.77734C108.229 8.51598 108.397 7.43833 108.734 6.54439C109.075 5.65045 109.564 4.96863 110.2 4.49893C110.84 4.02924 111.605 3.79439 112.496 3.79439C113.386 3.79439 114.149 4.03113 114.785 4.50462C115.422 4.97431 115.909 5.65613 116.246 6.55007C116.587 7.44022 116.757 8.51598 116.757 9.77734C116.757 11.0463 116.588 12.1296 116.251 13.0273C115.914 13.9213 115.427 14.605 114.791 15.0785C114.155 15.5482 113.39 15.783 112.496 15.783ZM112.496 14.266C113.284 14.266 113.899 13.8815 114.342 13.1126C114.789 12.3436 115.013 11.2319 115.013 9.77734C115.013 8.81143 114.91 7.99515 114.706 7.32848C114.505 6.65803 114.215 6.15045 113.837 5.80575C113.462 5.45727 113.015 5.28302 112.496 5.28302C111.712 5.28302 111.096 5.66939 110.649 6.44212C110.202 7.21484 109.977 8.32659 109.973 9.77734C109.973 10.747 110.073 11.5671 110.274 12.2376C110.479 12.9042 110.768 13.4099 111.143 13.7546C111.518 14.0955 111.969 14.266 112.496 14.266Z" fill="#1E1B39"/>
<circle cx="173.324" cy="9.59033" r="7.10791" fill="#00DDD0"/>
<path d="M189.318 15.5898H187.841L192.113 3.95348H193.568L197.841 15.5898H196.363L192.886 5.79439H192.795L189.318 15.5898ZM189.863 11.0444H195.818V12.2944H189.863V11.0444ZM200.812 10.3398V15.5898H199.471V6.86257H200.767V8.22621H200.881C201.085 7.78303 201.396 7.42697 201.812 7.15803C202.229 6.8853 202.767 6.74893 203.426 6.74893C204.017 6.74893 204.534 6.87015 204.977 7.11257C205.42 7.35121 205.765 7.71484 206.011 8.20348C206.257 8.68833 206.381 9.30196 206.381 10.0444V15.5898H205.04V10.1353C205.04 9.44969 204.862 8.9156 204.506 8.53303C204.149 8.14666 203.661 7.95348 203.04 7.95348C202.612 7.95348 202.229 8.04628 201.892 8.23189C201.559 8.4175 201.295 8.68833 201.102 9.04439C200.909 9.40045 200.812 9.83227 200.812 10.3398ZM215.013 8.81712L213.808 9.15803C213.732 8.95727 213.621 8.76219 213.473 8.5728C213.329 8.37962 213.132 8.22053 212.882 8.09553C212.632 7.97053 212.312 7.90803 211.922 7.90803C211.388 7.90803 210.943 8.03113 210.586 8.27734C210.234 8.51977 210.058 8.82848 210.058 9.20348C210.058 9.53681 210.179 9.80007 210.422 9.99325C210.664 10.1864 211.043 10.3474 211.558 10.4762L212.854 10.7944C213.634 10.9838 214.215 11.2736 214.598 11.6637C214.98 12.0501 215.172 12.5482 215.172 13.158C215.172 13.658 215.028 14.105 214.74 14.4989C214.456 14.8929 214.058 15.2035 213.547 15.4308C213.035 15.658 212.441 15.7717 211.763 15.7717C210.872 15.7717 210.136 15.5785 209.552 15.1921C208.969 14.8058 208.6 14.2414 208.444 13.4989L209.717 13.1808C209.838 13.6504 210.068 14.0027 210.405 14.2376C210.746 14.4724 211.191 14.5898 211.74 14.5898C212.365 14.5898 212.861 14.4573 213.229 14.1921C213.6 13.9232 213.785 13.6012 213.785 13.2262C213.785 12.9232 213.679 12.6694 213.467 12.4648C213.255 12.2565 212.929 12.1012 212.49 11.9989L211.035 11.658C210.236 11.4686 209.649 11.1751 209.274 10.7773C208.903 10.3758 208.717 9.87393 208.717 9.27166C208.717 8.77924 208.855 8.34363 209.132 7.96484C209.412 7.58606 209.793 7.28871 210.274 7.0728C210.759 6.85689 211.308 6.74893 211.922 6.74893C212.785 6.74893 213.463 6.93833 213.956 7.31712C214.452 7.6959 214.804 8.1959 215.013 8.81712ZM219.167 15.5898L216.508 6.86257H217.917L219.804 13.5444H219.895L221.758 6.86257H223.19L225.031 13.5217H225.122L227.008 6.86257H228.417L225.758 15.5898H224.44L222.531 8.8853H222.395L220.486 15.5898H219.167ZM233.552 15.7717C232.711 15.7717 231.986 15.5861 231.376 15.2148C230.77 14.8398 230.302 14.3171 229.973 13.6467C229.647 12.9724 229.484 12.1883 229.484 11.2944C229.484 10.4004 229.647 9.61257 229.973 8.93075C230.302 8.24515 230.761 7.71106 231.348 7.32848C231.939 6.94212 232.628 6.74893 233.416 6.74893C233.871 6.74893 234.319 6.82469 234.763 6.97621C235.206 7.12772 235.609 7.37393 235.973 7.71484C236.336 8.05196 236.626 8.49893 236.842 9.05575C237.058 9.61257 237.166 10.2982 237.166 11.1126V11.6808H230.439V10.5217H235.802C235.802 10.0292 235.704 9.58984 235.507 9.20348C235.314 8.81712 235.037 8.51219 234.677 8.28871C234.321 8.06522 233.901 7.95348 233.416 7.95348C232.882 7.95348 232.42 8.08606 232.03 8.35121C231.643 8.61257 231.346 8.95348 231.138 9.37393C230.929 9.79439 230.825 10.2451 230.825 10.7262V11.4989C230.825 12.158 230.939 12.7167 231.166 13.1751C231.397 13.6296 231.717 13.9762 232.126 14.2148C232.535 14.4497 233.011 14.5671 233.552 14.5671C233.905 14.5671 234.223 14.5179 234.507 14.4194C234.795 14.3171 235.043 14.1656 235.251 13.9648C235.46 13.7603 235.621 13.5065 235.734 13.2035L237.03 13.5671C236.893 14.0065 236.664 14.3929 236.342 14.7262C236.02 15.0558 235.622 15.3133 235.149 15.4989C234.675 15.6808 234.143 15.7717 233.552 15.7717ZM239.206 15.5898V6.86257H240.501V8.18075H240.592C240.751 7.74893 241.039 7.39856 241.456 7.12962C241.872 6.86068 242.342 6.72621 242.865 6.72621C242.963 6.72621 243.086 6.7281 243.234 6.73189C243.382 6.73568 243.494 6.74136 243.569 6.74893V8.11257C243.524 8.10121 243.42 8.08416 243.257 8.06143C243.098 8.03492 242.929 8.02166 242.751 8.02166C242.327 8.02166 241.948 8.11068 241.615 8.28871C241.285 8.46295 241.024 8.70537 240.831 9.01598C240.641 9.3228 240.547 9.67318 240.547 10.0671V15.5898H239.206ZM253.727 3.95348V15.5898H252.318V5.43075H252.25L249.409 7.31712V5.8853L252.318 3.95348H253.727Z" fill="#9291A5"/>
<path d="M268.966 3.95348V15.5898H267.204V5.71484H267.136L264.352 7.53303V5.85121L267.256 3.95348H268.966ZM276.165 15.783C275.267 15.7792 274.5 15.5425 273.863 15.0728C273.227 14.6031 272.74 13.9194 272.403 13.0217C272.066 12.1239 271.898 11.0425 271.898 9.77734C271.898 8.51598 272.066 7.43833 272.403 6.54439C272.744 5.65045 273.233 4.96863 273.869 4.49893C274.509 4.02924 275.274 3.79439 276.165 3.79439C277.055 3.79439 277.818 4.03113 278.454 4.50462C279.091 4.97431 279.577 5.65613 279.915 6.55007C280.256 7.44022 280.426 8.51598 280.426 9.77734C280.426 11.0463 280.257 12.1296 279.92 13.0273C279.583 13.9213 279.096 14.605 278.46 15.0785C277.824 15.5482 277.059 15.783 276.165 15.783ZM276.165 14.266C276.952 14.266 277.568 13.8815 278.011 13.1126C278.458 12.3436 278.682 11.2319 278.682 9.77734C278.682 8.81143 278.579 7.99515 278.375 7.32848C278.174 6.65803 277.884 6.15045 277.506 5.80575C277.131 5.45727 276.684 5.28302 276.165 5.28302C275.381 5.28302 274.765 5.66939 274.318 6.44212C273.871 7.21484 273.646 8.32659 273.642 9.77734C273.642 10.747 273.742 11.5671 273.943 12.2376C274.148 12.9042 274.437 13.4099 274.812 13.7546C275.187 14.0955 275.638 14.266 276.165 14.266Z" fill="#1E1B39"/>
</svg>
