<svg width="496" height="178" viewBox="0 0 496 178" fill="none" xmlns="http://www.w3.org/2000/svg">
<rect x="4.82801" y="1.37425" width="404.247" height="166.083" rx="11.6757" transform="rotate(1.43756 4.82801 1.37425)" fill="white"/>
<rect x="4.82801" y="1.37425" width="404.247" height="166.083" rx="11.6757" transform="rotate(1.43756 4.82801 1.37425)" stroke="#F2F4F7" stroke-width="0.753273"/>
<path d="M34.138 38.9099L34.1819 37.1613L37.4486 37.2433L37.2006 47.1247L35.2487 47.0757L35.4528 38.9429L34.138 38.9099ZM43.36 47.3742C43.0166 47.3656 42.7345 47.2545 42.5138 47.041C42.3024 46.8187 42.2007 46.5494 42.2086 46.2331C42.2165 45.9168 42.3316 45.6575 42.5536 45.4551C42.785 45.2439 43.0724 45.1426 43.4158 45.1512C43.7501 45.1596 44.023 45.275 44.2344 45.4973C44.4461 45.7106 44.5479 45.9753 44.54 46.2916C44.5321 46.6079 44.4169 46.8717 44.1946 47.0832C43.9725 47.2856 43.6943 47.3826 43.36 47.3742ZM62.1567 38.2838L59.2761 47.6787L57.0396 47.6225L55.433 40.8413L53.407 47.5314L51.1837 47.4891L48.8732 37.9505L50.9064 38.0015L52.3892 45.39L54.4984 38.0916L56.6129 38.1447L58.2459 45.4963L60.11 38.2325L62.1567 38.2838ZM67.5786 40.2645C68.1479 40.2788 68.6508 40.418 69.0872 40.6821C69.5239 40.9372 69.8581 41.3118 70.0898 41.8059C70.3308 42.2912 70.4428 42.8727 70.4258 43.5504L70.3152 47.9557L68.4176 47.9081L68.5217 43.7603C68.5367 43.1639 68.399 42.7039 68.1087 42.3801C67.8187 42.0473 67.4161 41.8744 66.9011 41.8615C66.377 41.8484 65.9572 42.0006 65.6418 42.3182C65.3357 42.627 65.1751 43.0796 65.1601 43.676L65.056 47.8237L63.1584 47.7761L63.4101 37.7456L65.3078 37.7933L65.221 41.2497C65.4732 40.9305 65.8048 40.6857 66.216 40.5151C66.6274 40.3356 67.0816 40.252 67.5786 40.2645ZM71.7268 44.207C71.7458 43.4479 71.9118 42.7784 72.2247 42.1986C72.5467 41.6189 72.9692 41.1774 73.4922 40.874C74.0243 40.5709 74.6111 40.4274 75.2527 40.4435C75.8129 40.4576 76.2981 40.5828 76.7081 40.8191C77.1271 41.0557 77.4589 41.3488 77.7033 41.6986L77.7301 40.6278L79.6413 40.6757L79.4529 48.185L77.5417 48.137L77.5692 47.0391C77.3164 47.3854 76.9702 47.6706 76.5305 47.8946C76.1001 48.1099 75.6048 48.2105 75.0446 48.1964C74.412 48.1806 73.8378 48.0034 73.3218 47.6649C72.8149 47.3267 72.4152 46.86 72.1227 46.265C71.8395 45.6611 71.7075 44.9751 71.7268 44.207ZM77.6359 44.3824C77.6475 43.9215 77.567 43.5262 77.3944 43.1963C77.2221 42.8575 76.9844 42.5983 76.6815 42.4189C76.3788 42.2305 76.0512 42.1318 75.6988 42.123C75.3464 42.1141 75.0189 42.1918 74.7164 42.356C74.4139 42.5202 74.1636 42.7671 73.9654 43.0967C73.7765 43.4175 73.6764 43.8038 73.6651 44.2556C73.6537 44.7074 73.7341 45.1073 73.9062 45.4552C74.0876 45.7943 74.3251 46.058 74.6188 46.2462C74.9215 46.4347 75.2445 46.5332 75.5879 46.5418C75.9403 46.5506 76.2723 46.4731 76.5839 46.3091C76.8956 46.1361 77.146 45.8892 77.3349 45.5684C77.524 45.2386 77.6243 44.8433 77.6359 44.3824ZM83.665 42.3365L83.5738 45.9691C83.5675 46.2221 83.6216 46.4089 83.7361 46.5293C83.8599 46.6409 84.0664 46.7003 84.3555 46.7076L85.2366 46.7297L85.1965 48.3291L84.0036 48.2992C82.4042 48.2591 81.624 47.4619 81.663 45.9076L81.7538 42.2885L80.8592 42.266L80.8983 40.7073L81.7929 40.7297L81.8395 38.8727L83.7507 38.9207L83.7041 40.7777L85.3849 40.8199L85.3458 42.3786L83.665 42.3365ZM90.9644 40.0647C90.6301 40.0563 90.3526 39.9454 90.1319 39.7319C89.9205 39.5095 89.8187 39.2402 89.8266 38.924C89.8346 38.6077 89.9496 38.3484 90.1717 38.146C90.403 37.9348 90.6859 37.8334 91.0202 37.8417C91.3546 37.8501 91.6275 37.9655 91.8389 38.1878C92.0596 38.4013 92.166 38.6662 92.158 38.9825C92.1501 39.2988 92.0305 39.5625 91.7991 39.7737C91.577 39.9761 91.2988 40.0731 90.9644 40.0647ZM91.8773 40.9828L91.6888 48.4921L89.7912 48.4444L89.9796 40.9352L91.8773 40.9828ZM96.4342 48.7332C95.8198 48.7178 95.2712 48.5955 94.7887 48.3664C94.3064 48.1283 93.9255 47.8158 93.6458 47.429C93.3752 47.0424 93.2321 46.6184 93.2166 46.1568L95.1278 46.2048C95.1567 46.4949 95.2907 46.7379 95.53 46.9338C95.7782 47.1299 96.0876 47.2326 96.4581 47.2419C96.8195 47.2509 97.1015 47.1857 97.3039 47.0461C97.5154 46.9067 97.624 46.7241 97.6296 46.4982C97.6357 46.2542 97.5138 46.0703 97.2637 45.9465C97.0229 45.8138 96.6332 45.6684 96.0947 45.5102C95.5378 45.3606 95.0805 45.209 94.7226 45.0553C94.3738 44.9019 94.0721 44.6728 93.8176 44.368C93.572 44.0635 93.4556 43.6582 93.4683 43.1521C93.4787 42.7365 93.6057 42.3599 93.8493 42.0224C94.1019 41.6851 94.4521 41.4227 94.8999 41.235C95.3567 41.0475 95.8878 40.9614 96.4933 40.9766C97.3879 40.999 98.0961 41.2428 98.6179 41.708C99.1399 42.1642 99.4185 42.7725 99.4537 43.5329L97.6374 43.4873C97.6177 43.1885 97.4971 42.9503 97.2755 42.773C97.0632 42.5868 96.7718 42.4891 96.4013 42.4798C96.0579 42.4711 95.7897 42.5277 95.5968 42.6495C95.4129 42.7714 95.3181 42.9454 95.3124 43.1713C95.3061 43.4243 95.4277 43.6218 95.6773 43.7637C95.9272 43.8965 96.317 44.0374 96.8467 44.1863C97.3855 44.3355 97.8293 44.4868 98.1781 44.6402C98.5269 44.7936 98.8239 45.0271 99.0692 45.3407C99.3238 45.6455 99.4494 46.0465 99.446 46.5437C99.4351 46.9775 99.3033 47.363 99.0507 47.7003C98.8072 48.0378 98.457 48.3002 98.0002 48.4877C97.5526 48.6663 97.0306 48.7482 96.4342 48.7332ZM111.552 41.4765L106.625 52.4205L104.606 52.3698L106.326 48.6695L103.501 41.2745L105.629 41.3279L107.435 46.6222L109.533 41.4259L111.552 41.4765ZM115.718 49.2172C114.995 49.199 114.348 49.0246 113.778 48.6938C113.208 48.3539 112.763 47.8861 112.443 47.2904C112.133 46.6949 111.987 46.013 112.006 45.2449C112.026 44.4768 112.21 43.8033 112.559 43.2243C112.917 42.6456 113.394 42.2054 113.989 41.9039C114.585 41.5933 115.244 41.4471 115.967 41.4653C116.69 41.4834 117.341 41.6625 117.92 42.0025C118.499 42.3336 118.949 42.7969 119.269 43.3927C119.597 43.9887 119.752 44.6707 119.733 45.4388C119.713 46.2069 119.52 46.8802 119.153 47.4588C118.795 48.0375 118.314 48.4821 117.709 48.7924C117.114 49.0939 116.45 49.2355 115.718 49.2172ZM115.76 47.5635C116.103 47.5721 116.426 47.4988 116.728 47.3437C117.04 47.1797 117.29 46.9328 117.479 46.603C117.668 46.2732 117.769 45.8688 117.781 45.3898C117.799 44.676 117.623 44.1245 117.253 43.7354C116.892 43.3376 116.44 43.1318 115.898 43.1182C115.356 43.1046 114.895 43.2875 114.515 43.6667C114.144 44.0372 113.949 44.5794 113.931 45.2932C113.913 46.0071 114.076 46.5628 114.418 46.9602C114.77 47.3488 115.217 47.5499 115.76 47.5635ZM128.308 41.897L128.119 49.4063L126.208 49.3583L126.232 48.4095C125.98 48.7287 125.653 48.9782 125.25 49.158C124.857 49.329 124.43 49.4087 123.969 49.3971C123.382 49.3824 122.865 49.2473 122.42 48.992C121.974 48.7276 121.627 48.3527 121.377 47.8672C121.136 47.3729 121.024 46.7914 121.041 46.1227L121.151 41.7174L123.049 41.765L122.945 45.8992C122.93 46.4956 123.068 46.9602 123.358 47.293C123.648 47.6168 124.051 47.7851 124.566 47.798C125.09 47.8112 125.505 47.6634 125.811 47.3546C126.117 47.0368 126.278 46.5796 126.293 45.9832L126.397 41.8491L128.308 41.897ZM132.049 43.1573C132.303 42.7659 132.627 42.462 133.021 42.2459C133.424 42.0299 133.879 41.9283 134.385 41.941L134.335 43.9336L133.833 43.921C133.237 43.906 132.782 44.0347 132.467 44.3072C132.162 44.5798 132.001 45.064 131.983 45.7598L131.889 49.5009L129.992 49.4533L130.18 41.944L132.078 41.9916L132.049 43.1573ZM144.191 44.954C144.722 45.0668 145.153 45.3444 145.486 45.7867C145.818 46.2291 145.978 46.7304 145.964 47.2907C145.951 47.7967 145.813 48.2408 145.55 48.6231C145.297 48.9965 144.932 49.2857 144.457 49.4908C143.982 49.6959 143.423 49.7904 142.782 49.7743L138.702 49.6719L138.939 40.2107L142.843 40.3087C143.485 40.3248 144.033 40.4425 144.489 40.6619C144.953 40.8816 145.299 41.1796 145.524 41.556C145.759 41.9326 145.87 42.3559 145.859 42.8257C145.845 43.377 145.684 43.8341 145.377 44.1971C145.078 44.5603 144.683 44.8126 144.191 44.954ZM140.739 44.1621L142.474 44.2056C142.926 44.217 143.276 44.1263 143.525 43.9336C143.774 43.7319 143.904 43.4413 143.913 43.0618C143.923 42.6822 143.808 42.3855 143.569 42.1715C143.331 41.9576 142.985 41.8449 142.533 41.8336L140.798 41.79L140.739 44.1621ZM142.549 48.2222C143.01 48.2338 143.37 48.1343 143.628 47.9238C143.896 47.7135 144.035 47.4095 144.045 47.0119C144.055 46.6053 143.927 46.2856 143.662 46.0529C143.397 45.8112 143.034 45.6845 142.573 45.6729L140.702 45.626L140.638 48.1743L142.549 48.2222ZM148.585 41.5107C148.251 41.5023 147.973 41.3914 147.752 41.1779C147.541 40.9556 147.439 40.6863 147.447 40.37C147.455 40.0537 147.57 39.7944 147.792 39.592C148.024 39.3808 148.306 39.2794 148.641 39.2878C148.975 39.2961 149.248 39.4115 149.459 39.6338C149.68 39.8473 149.786 40.1122 149.779 40.4285C149.771 40.7448 149.651 41.0085 149.42 41.2197C149.198 41.4221 148.919 41.5191 148.585 41.5107ZM149.498 42.4288L149.309 49.9381L147.412 49.8905L147.6 42.3812L149.498 42.4288ZM153.241 43.6892C153.495 43.2977 153.819 42.9939 154.213 42.7777C154.617 42.5618 155.071 42.4602 155.577 42.4729L155.527 44.4654L155.026 44.4528C154.429 44.4378 153.974 44.5666 153.66 44.839C153.355 45.1116 153.193 45.5959 153.176 46.2917L153.082 50.0327L151.184 49.9851L151.373 42.4758L153.27 42.5235L153.241 43.6892ZM159.023 44.2276L158.932 47.8603C158.926 48.1133 158.98 48.3 159.094 48.4204C159.218 48.532 159.424 48.5915 159.714 48.5987L160.595 48.6208L160.555 50.2203L159.362 50.1903C157.762 50.1502 156.982 49.353 157.021 47.7987L157.112 44.1796L156.217 44.1572L156.256 42.5984L157.151 42.6209L157.198 40.7639L159.109 40.8118L159.062 42.6688L160.743 42.711L160.704 44.2698L159.023 44.2276ZM166.34 42.7429C166.909 42.7572 167.412 42.8964 167.848 43.1606C168.285 43.4157 168.619 43.7903 168.851 44.2844C169.092 44.7696 169.204 45.3511 169.187 46.0289L169.076 50.4341L167.179 50.3865L167.283 46.2388C167.298 45.6424 167.16 45.1823 166.87 44.8585C166.58 44.5257 166.177 44.3529 165.662 44.34C165.138 44.3268 164.718 44.479 164.403 44.7966C164.097 45.1054 163.936 45.558 163.921 46.1544L163.817 50.3022L161.919 50.2545L162.171 40.2241L164.069 40.2717L163.982 43.7281C164.234 43.409 164.566 43.1641 164.977 42.9936C165.388 42.814 165.843 42.7305 166.34 42.7429ZM170.488 46.6854C170.507 45.9264 170.673 45.2569 170.986 44.677C171.308 44.0973 171.735 43.656 172.267 43.3528C172.799 43.0497 173.386 42.9062 174.027 42.9223C174.515 42.9346 174.978 43.0547 175.415 43.2827C175.853 43.5016 176.198 43.7906 176.451 44.1496L176.541 40.5847L178.466 40.633L178.214 50.6634L176.289 50.6151L176.317 49.5037C176.073 49.8683 175.735 50.1582 175.305 50.3734C174.875 50.5887 174.379 50.6893 173.819 50.6752C173.187 50.6594 172.612 50.4822 172.096 50.1437C171.58 49.8053 171.176 49.3385 170.884 48.7434C170.6 48.1395 170.468 47.4535 170.488 46.6854ZM176.397 46.8608C176.408 46.4 176.328 46.0046 176.155 45.6748C175.983 45.3359 175.745 45.0768 175.443 44.8974C175.14 44.7089 174.812 44.6103 174.46 44.6014C174.107 44.5926 173.78 44.6703 173.477 44.8345C173.175 44.9987 172.925 45.2456 172.726 45.5752C172.538 45.8959 172.437 46.2822 172.426 46.7341C172.415 47.1859 172.495 47.5858 172.667 47.9337C172.849 48.2728 173.086 48.5365 173.38 48.7247C173.683 48.9131 174.006 49.0116 174.349 49.0203C174.701 49.0291 175.033 48.9515 175.345 48.7875C175.657 48.6145 175.907 48.3676 176.096 48.0469C176.285 47.717 176.385 47.3217 176.397 46.8608ZM179.674 46.916C179.693 46.1569 179.859 45.4874 180.172 44.9075C180.494 44.3279 180.917 43.8864 181.44 43.583C181.972 43.2799 182.559 43.1364 183.2 43.1525C183.76 43.1666 184.246 43.2918 184.656 43.5281C185.075 43.7647 185.406 44.0578 185.651 44.4076L185.678 43.3367L187.589 43.3847L187.4 50.894L185.489 50.846L185.517 49.7481C185.264 50.0944 184.918 50.3796 184.478 50.6036C184.048 50.8189 183.552 50.9195 182.992 50.9054C182.359 50.8896 181.785 50.7124 181.269 50.3739C180.762 50.0357 180.363 49.569 180.07 48.9739C179.787 48.3701 179.655 47.6841 179.674 46.916ZM185.583 47.0914C185.595 46.6305 185.514 46.2352 185.342 45.9053C185.17 45.5664 184.932 45.3073 184.629 45.1279C184.326 44.9395 183.999 44.8408 183.646 44.832C183.294 44.8231 182.966 44.9008 182.664 45.065C182.361 45.2292 182.111 45.4761 181.913 45.8057C181.724 46.1265 181.624 46.5128 181.613 46.9646C181.601 47.4164 181.682 47.8163 181.854 48.1642C182.035 48.5033 182.273 48.767 182.566 48.9552C182.869 49.1436 183.192 49.2422 183.535 49.2508C183.888 49.2596 184.22 49.1821 184.531 49.0181C184.843 48.8451 185.093 48.5982 185.282 48.2774C185.471 47.9476 185.572 47.5522 185.583 47.0914ZM191.612 45.0454L191.521 48.6781C191.515 48.9311 191.569 49.1178 191.684 49.2383C191.807 49.3499 192.014 49.4093 192.303 49.4166L193.184 49.4387L193.144 51.0381L191.951 51.0082C190.352 50.968 189.571 50.1708 189.61 48.6166L189.701 44.9975L188.807 44.975L188.846 43.4163L189.74 43.4387L189.787 41.5817L191.698 41.6297L191.652 43.4867L193.332 43.5288L193.293 45.0876L191.612 45.0454ZM201.588 47.3303C201.581 47.6014 201.557 47.8449 201.515 48.0609L196.026 47.9231C196.057 48.4664 196.236 48.8959 196.563 49.2115C196.89 49.5271 197.297 49.6911 197.785 49.7033C198.49 49.721 198.999 49.4309 199.312 48.8329L201.359 48.8843C201.124 49.6018 200.693 50.1877 200.067 50.6422C199.441 51.0876 198.681 51.2991 197.786 51.2767C197.063 51.2585 196.416 51.0841 195.846 50.7533C195.285 50.4137 194.849 49.9461 194.538 49.3506C194.237 48.7553 194.096 48.0736 194.115 47.3055C194.135 46.5284 194.31 45.8501 194.641 45.2706C194.972 44.6912 195.426 44.2505 196.003 43.9485C196.58 43.6465 197.24 43.5048 197.981 43.5234C198.694 43.5413 199.328 43.7109 199.88 44.0322C200.442 44.3538 200.869 44.803 201.162 45.38C201.464 45.9482 201.606 46.5983 201.588 47.3303ZM199.636 46.7388C199.639 46.2506 199.473 45.8576 199.137 45.5598C198.801 45.253 198.384 45.0933 197.887 45.0808C197.417 45.0691 197.016 45.2037 196.684 45.4847C196.36 45.7569 196.156 46.1451 196.071 46.6493L199.636 46.7388ZM208.993 41.6432C209.933 41.6668 210.681 41.9433 211.237 42.4727C211.803 42.9932 212.075 43.7008 212.052 44.5954C212.03 45.481 211.728 46.1516 211.147 46.6072C210.566 47.0537 209.806 47.2652 208.866 47.2417L208.786 48.284L207.119 48.2422L207.109 45.9362L207.719 45.9515C208.505 45.9712 209.113 45.8825 209.543 45.6853C209.973 45.4881 210.195 45.1139 210.208 44.5627C210.218 44.1651 210.109 43.8459 209.88 43.605C209.66 43.3644 209.351 43.2391 208.953 43.2291C208.538 43.2187 208.21 43.3235 207.969 43.5435C207.737 43.7638 207.617 44.0727 207.607 44.4703L205.817 44.4254C205.822 43.8739 205.952 43.3844 206.207 42.9568C206.462 42.5291 206.827 42.1992 207.303 41.967C207.788 41.7351 208.352 41.6271 208.993 41.6432ZM207.864 51.5025C207.521 51.4939 207.239 51.3828 207.018 51.1693C206.807 50.947 206.705 50.6777 206.713 50.3614C206.721 50.0451 206.836 49.7858 207.058 49.5834C207.289 49.3722 207.577 49.2709 207.92 49.2795C208.254 49.2879 208.527 49.4033 208.739 49.6256C208.95 49.8389 209.052 50.1036 209.044 50.4199C209.036 50.7362 208.921 51 208.699 51.2115C208.477 51.4139 208.198 51.5109 207.864 51.5025Z" fill="#11002A"/>
<path d="M34.4972 75.7442L34.4356 78.2006L37.1134 78.2678L37.0935 79.0585L34.4157 78.9913L34.3522 81.5215L37.3463 81.5966L37.3265 82.3873L33.373 82.2881L33.5577 74.9294L37.5111 75.0286L37.4913 75.8193L34.4972 75.7442ZM41.7406 76.6116C42.4434 76.6293 43.0074 76.8579 43.4323 77.2976C43.8575 77.7302 44.0601 78.3472 44.04 79.1484L43.9545 82.5536L43.0057 82.5298L43.0877 79.2616C43.1021 78.6853 42.9691 78.2424 42.6885 77.933C42.4081 77.6165 42.0184 77.452 41.5194 77.4395C41.0134 77.4268 40.6053 77.5748 40.2951 77.8835C39.992 78.1923 39.8328 78.649 39.8177 79.2534L39.7375 82.4478L38.7781 82.4237L38.9231 76.6464L39.8825 76.6705L39.8618 77.4928C40.059 77.2024 40.3213 76.9804 40.6486 76.8269C40.983 76.6735 41.347 76.6018 41.7406 76.6116ZM46.817 77.6357L46.7315 81.0409C46.7245 81.3221 46.7792 81.5239 46.8957 81.6464C47.0123 81.7618 47.2183 81.8232 47.5134 81.8307L48.2198 81.8484L48.1994 82.6602L47.3349 82.6385C46.8008 82.6251 46.4033 82.492 46.1423 82.2393C45.8814 81.9866 45.758 81.5791 45.7722 81.0169L45.8576 77.6116L45.1091 77.5929L45.1289 76.8022L45.8775 76.8209L45.914 75.3661L46.8733 75.3902L46.8368 76.845L48.3444 76.8829L48.3246 77.6735L46.817 77.6357ZM54.7111 79.7116C54.7065 79.8943 54.6911 80.0873 54.6649 80.2906L50.0473 80.1747C50.0682 80.7449 50.2503 81.1961 50.5936 81.5282C50.9441 81.8535 51.3723 82.0224 51.8784 82.0351C52.293 82.0455 52.6398 81.9593 52.9187 81.7764C53.2048 81.5867 53.4081 81.3316 53.5286 81.0111L54.5618 81.037C54.3933 81.5884 54.0726 82.0339 53.5999 82.3737C53.1274 82.7065 52.5468 82.8642 51.858 82.8469C51.3098 82.8332 50.8209 82.6978 50.3913 82.4409C49.9688 82.1841 49.6401 81.8278 49.4054 81.3718C49.1709 80.9088 49.0611 80.3785 49.0761 79.7811C49.0911 79.1837 49.2237 78.6631 49.474 78.2193C49.7242 77.7755 50.0667 77.4395 50.5015 77.2113C50.9434 76.9762 51.4455 76.8657 52.0078 76.8798C52.556 76.8936 53.0379 77.0253 53.4536 77.2748C53.8693 77.5244 54.1843 77.8628 54.3987 78.2901C54.6202 78.7106 54.7243 79.1844 54.7111 79.7116ZM53.7251 79.4864C53.7343 79.1209 53.6613 78.8061 53.5062 78.542C53.3513 78.2709 53.1349 78.065 52.8571 77.9244C52.5865 77.777 52.2826 77.699 51.9452 77.6906C51.4603 77.6784 51.0417 77.8226 50.6896 78.1232C50.3444 78.424 50.1404 78.8479 50.0774 79.3949L53.7251 79.4864ZM56.9802 78.0385C57.1572 77.7124 57.4026 77.4618 57.7164 77.2868C58.0373 77.112 58.4226 77.0303 58.8724 77.0416L58.8476 78.0326L58.5945 78.0262C57.5192 77.9992 56.9669 78.5691 56.9376 79.7358L56.8588 82.8775L55.8994 82.8534L56.0444 77.0761L57.0038 77.1002L56.9802 78.0385ZM67.764 77.3702L64.0717 85.7802L63.0807 85.7553L64.2891 83.0006L62.1026 77.2281L63.1674 77.2548L64.8633 81.9812L66.773 77.3453L67.764 77.3702ZM71.1006 83.3298C70.5595 83.3162 70.0706 83.1809 69.6339 82.9238C69.2044 82.6669 68.8687 82.3103 68.627 81.8541C68.3924 81.3911 68.2827 80.8609 68.2977 80.2635C68.3125 79.6731 68.452 79.1562 68.7164 78.7127C68.9879 78.2624 69.348 77.9233 69.7968 77.6955C70.2458 77.4606 70.7443 77.3501 71.2926 77.3638C71.8408 77.3776 72.3332 77.513 72.7698 77.7701C73.2066 78.0202 73.5458 78.3733 73.7876 78.8295C74.0363 79.2858 74.1532 79.8127 74.1382 80.4101C74.1232 81.0075 73.9765 81.5313 73.6979 81.9814C73.4266 82.4247 73.0629 82.7637 72.6069 82.9984C72.1509 83.2331 71.6488 83.3436 71.1006 83.3298ZM71.1218 82.4864C71.4662 82.4951 71.7915 82.4223 72.0978 82.2683C72.4041 82.1142 72.6526 81.8778 72.8435 81.5591C73.0414 81.2406 73.1461 80.8493 73.1578 80.3855C73.1694 79.9216 73.0879 79.5257 72.9133 79.1978C72.7387 78.8699 72.5057 78.625 72.2144 78.463C71.9233 78.2939 71.6055 78.205 71.2611 78.1964C70.9097 78.1876 70.5844 78.2603 70.2851 78.4145C69.9931 78.5619 69.7551 78.7951 69.5713 79.114C69.3875 79.4329 69.2898 79.8242 69.2781 80.2881C69.2663 80.759 69.3407 81.1582 69.5012 81.4858C69.6688 81.8135 69.8947 82.0618 70.1788 82.2307C70.4631 82.3925 70.7774 82.4778 71.1218 82.4864ZM80.5955 77.6922L80.4505 83.4695L79.4912 83.4454L79.5126 82.5915C79.3224 82.8821 79.0601 83.1076 78.7255 83.268C78.3982 83.4215 78.0377 83.4934 77.6441 83.4835C77.1943 83.4722 76.7924 83.3707 76.4386 83.1789C76.0849 82.9802 75.8073 82.6919 75.6058 82.3141C75.4113 81.9365 75.3208 81.4806 75.3342 80.9465L75.4191 77.5623L76.368 77.5861L76.2862 80.8438C76.2719 81.4131 76.405 81.8559 76.6854 82.1724C76.966 82.4819 77.3558 82.6429 77.8548 82.6554C78.3678 82.6683 78.7759 82.5203 79.0791 82.2114C79.3822 81.9025 79.5413 81.4459 79.5565 80.8414L79.6361 77.6681L80.5955 77.6922ZM83.1512 78.6952C83.3281 78.3691 83.5735 78.1186 83.8874 77.9436C84.2082 77.7688 84.5936 77.6871 85.0434 77.6983L85.0185 78.6893L84.7655 78.683C83.6902 78.656 83.1378 79.2259 83.1086 80.3926L83.0297 83.5342L82.0704 83.5102L82.2153 77.7329L83.1747 77.7569L83.1512 78.6952ZM92.5882 79.987C92.8542 80.0358 93.0939 80.1509 93.3074 80.332C93.5279 80.5134 93.6981 80.7357 93.8181 80.9989C93.9451 81.2623 94.0049 81.5416 93.9975 81.8368C93.9882 82.2093 93.8848 82.5443 93.6875 82.8417C93.4903 83.1322 93.2068 83.3606 92.8369 83.5272C92.4742 83.6869 92.0469 83.7605 91.5549 83.7482L88.8139 83.6794L88.9983 76.3313L91.6339 76.3974C92.1329 76.4099 92.556 76.5049 92.9032 76.6824C93.2505 76.8529 93.5085 77.0809 93.6772 77.3665C93.8459 77.652 93.9258 77.9705 93.917 78.3219C93.906 78.7577 93.7775 79.1166 93.5313 79.3988C93.2923 79.6741 92.9779 79.8702 92.5882 79.987ZM89.878 79.5286L91.491 79.5691C91.9408 79.5804 92.2914 79.4837 92.5426 79.279C92.7939 79.0744 92.9242 78.7858 92.9336 78.4133C92.9429 78.0408 92.8273 77.746 92.5866 77.529C92.3459 77.3119 91.9936 77.1976 91.5297 77.186L89.9378 77.146L89.878 79.5286ZM91.4904 82.9554C91.9683 82.9674 92.3437 82.8643 92.6164 82.6461C92.8891 82.4279 93.0305 82.1184 93.0405 81.7178C93.0508 81.3102 92.9182 80.9869 92.6429 80.7479C92.3678 80.5019 91.9948 80.3729 91.5239 80.3611L89.8582 80.3193L89.7931 82.9128L91.4904 82.9554ZM95.9434 77.1385C95.7607 77.1339 95.6076 77.0668 95.4843 76.9371C95.361 76.8074 95.3016 76.6512 95.3062 76.4685C95.3108 76.2857 95.3779 76.1327 95.5076 76.0094C95.6373 75.886 95.7935 75.8266 95.9762 75.8312C96.1519 75.8356 96.2979 75.9026 96.4142 76.0321C96.5376 76.1618 96.5969 76.318 96.5924 76.5007C96.5878 76.6835 96.5206 76.8365 96.391 76.9598C96.2683 77.0834 96.1191 77.1429 95.9434 77.1385ZM96.3837 78.0884L96.2387 83.8657L95.2794 83.8416L95.4244 78.0644L96.3837 78.0884ZM98.9546 79.0918C99.1316 78.7657 99.377 78.5152 99.6908 78.3402C100.012 78.1654 100.397 78.0836 100.847 78.0949L100.822 79.0859L100.569 79.0796C99.4936 79.0526 98.9413 79.6225 98.912 80.7892L98.8332 83.9308L97.8738 83.9068L98.0188 78.1295L98.9782 78.1535L98.9546 79.0918ZM103.102 79.0482L103.017 82.4534C103.01 82.7346 103.064 82.9364 103.181 83.0589C103.297 83.1743 103.503 83.2357 103.798 83.2432L104.505 83.2609L104.484 84.0727L103.62 84.051C103.086 84.0376 102.688 83.9045 102.427 83.6518C102.166 83.3991 102.043 82.9916 102.057 82.4294L102.143 79.0241L101.394 79.0054L101.414 78.2147L102.163 78.2334L102.199 76.7786L103.158 76.8027L103.122 78.2575L104.629 78.2954L104.61 79.086L103.102 79.0482ZM108.662 78.2911C109.098 78.302 109.489 78.4068 109.836 78.6053C110.183 78.7969 110.45 79.0814 110.637 79.4588C110.832 79.8365 110.922 80.2923 110.909 80.8265L110.823 84.2317L109.874 84.2079L109.956 80.9397C109.971 80.3634 109.838 79.9205 109.557 79.6111C109.277 79.2946 108.887 79.1301 108.388 79.1176C107.882 79.1049 107.474 79.2529 107.164 79.5616C106.861 79.8704 106.702 80.3271 106.686 80.9315L106.606 84.1259L105.647 84.1018L105.843 76.3004L106.802 76.3244L106.731 79.1709C106.928 78.8805 107.194 78.6586 107.528 78.5052C107.869 78.352 108.247 78.2807 108.662 78.2911ZM112.105 81.3523C112.12 80.7619 112.252 80.2484 112.502 79.8116C112.753 79.3678 113.088 79.0281 113.509 78.7925C113.937 78.5571 114.411 78.4459 114.931 78.4589C115.381 78.4702 115.796 78.5861 116.178 78.8067C116.559 79.0202 116.847 79.2982 117.043 79.6407L117.119 76.5834L118.089 76.6077L117.894 84.4092L116.924 84.3848L116.951 83.2989C116.752 83.6386 116.464 83.9162 116.086 84.1317C115.708 84.3402 115.27 84.4383 114.771 84.4257C114.258 84.4129 113.793 84.2746 113.378 84.011C112.97 83.7476 112.652 83.3845 112.424 82.9216C112.197 82.4588 112.09 81.9357 112.105 81.3523ZM116.996 81.4856C117.007 81.0499 116.929 80.6681 116.761 80.3404C116.594 80.0127 116.361 79.7607 116.063 79.5845C115.772 79.4013 115.448 79.3053 115.089 79.2963C114.731 79.2873 114.402 79.3634 114.102 79.5247C113.803 79.686 113.561 79.9261 113.378 80.245C113.194 80.5638 113.096 80.9412 113.085 81.3769C113.074 81.8197 113.152 82.2085 113.32 82.5432C113.487 82.8709 113.717 83.1263 114.007 83.3095C114.298 83.4856 114.623 83.5781 114.982 83.5871C115.34 83.5961 115.669 83.5199 115.968 83.3587C116.275 83.1905 116.52 82.947 116.704 82.6281C116.888 82.3022 116.985 81.9214 116.996 81.4856ZM119.229 81.5311C119.244 80.9407 119.377 80.4272 119.627 79.9904C119.877 79.5465 120.213 79.2068 120.633 78.9713C121.061 78.7358 121.532 78.6246 122.045 78.6375C122.551 78.6502 122.987 78.7701 123.354 78.9973C123.721 79.2246 123.992 79.5056 124.167 79.8406L124.193 78.7863L125.163 78.8107L125.018 84.5879L124.048 84.5636L124.075 83.4883C123.877 83.8209 123.585 84.0949 123.2 84.3102C122.822 84.5188 122.383 84.6168 121.884 84.6043C121.371 84.5914 120.911 84.4532 120.502 84.1898C120.094 83.9264 119.776 83.5632 119.549 83.1004C119.321 82.6376 119.215 82.1145 119.229 81.5311ZM124.121 81.6644C124.132 81.2287 124.053 80.8469 123.886 80.5192C123.718 80.1915 123.485 79.9395 123.187 79.7632C122.897 79.5801 122.572 79.4841 122.214 79.4751C121.855 79.4661 121.526 79.5422 121.227 79.7035C120.927 79.8648 120.686 80.1048 120.502 80.4237C120.318 80.7426 120.221 81.12 120.21 81.5557C120.199 81.9985 120.277 82.3873 120.444 82.722C120.612 83.0497 120.841 83.3051 121.132 83.4883C121.423 83.6643 121.748 83.7569 122.106 83.7659C122.464 83.7749 122.793 83.6987 123.093 83.5375C123.399 83.3693 123.645 83.1258 123.828 82.8069C124.012 82.481 124.11 82.1002 124.121 81.6644ZM131.76 78.9762L128.068 87.3862L127.077 87.3613L128.285 84.6067L126.099 78.8341L127.164 78.8609L128.86 83.5872L130.769 78.9513L131.76 78.9762Z" fill="#363E49"/>
<rect x="361.053" y="28.3996" width="29.3777" height="29.3777" rx="5.64955" transform="rotate(1.43756 361.053 28.3996)" fill="white"/>
<rect x="361.053" y="28.3996" width="29.3777" height="29.3777" rx="5.64955" transform="rotate(1.43756 361.053 28.3996)" stroke="#F2F4F7" stroke-width="0.753273"/>
<path d="M370.045 45.3909C368.9 45.3622 367.997 44.4127 368.026 43.2681C368.055 42.1235 369.004 41.2205 370.149 41.2492C371.294 41.278 372.197 42.2274 372.168 43.3721C372.139 44.5167 371.19 45.4197 370.045 45.3909ZM370.121 42.3788C369.601 42.3657 369.169 42.7769 369.156 43.2965C369.143 43.8161 369.554 44.2483 370.073 44.2614C370.593 44.2744 371.025 43.8633 371.038 43.3437C371.051 42.8241 370.64 42.3918 370.121 42.3788Z" fill="#11002A"/>
<path d="M380.587 45.6546C379.442 45.6259 378.539 44.6764 378.568 43.5318C378.597 42.3872 379.546 41.4842 380.691 41.5129C381.836 41.5416 382.739 42.4911 382.71 43.6357C382.681 44.7803 381.732 45.6833 380.587 45.6546ZM380.663 42.6425C380.143 42.6294 379.711 43.0405 379.698 43.5601C379.685 44.0797 380.096 44.512 380.615 44.5251C381.135 44.5381 381.567 44.127 381.58 43.6074C381.593 43.0878 381.182 42.6555 380.663 42.6425Z" fill="#11002A"/>
<path d="M375.316 45.5237C374.171 45.495 373.268 44.5455 373.297 43.4009C373.325 42.2563 374.275 41.3533 375.419 41.382C376.564 41.4108 377.467 42.3603 377.438 43.5049C377.41 44.6495 376.46 45.5525 375.316 45.5237ZM375.391 42.5116C374.872 42.4986 374.439 42.9097 374.426 43.4293C374.413 43.9489 374.824 44.3812 375.344 44.3942C375.863 44.4072 376.296 43.9961 376.309 43.4765C376.322 42.9569 375.911 42.5246 375.391 42.5116Z" fill="#11002A"/>
<rect x="20.1747" y="110.447" width="64.0282" height="39.3515" rx="5.64955" transform="rotate(1.43756 20.1747 110.447)" fill="white"/>
<rect x="20.1747" y="110.447" width="64.0282" height="39.3515" rx="5.64955" transform="rotate(1.43756 20.1747 110.447)" stroke="#F2F4F7" stroke-width="0.753273"/>
<path d="M47.3705 127.46C48.1718 127.48 48.8603 127.649 49.436 127.966C50.019 128.276 50.4582 128.712 50.7535 129.275C51.0558 129.838 51.1975 130.496 51.1787 131.248C51.1598 132 50.9853 132.65 50.6551 133.197C50.3321 133.737 49.8717 134.148 49.2739 134.428C48.6833 134.702 47.9874 134.828 47.1861 134.808L44.8984 134.751L45.0828 127.403L47.3705 127.46ZM47.206 134.018C48.1548 134.042 48.885 133.81 49.3965 133.324C49.9082 132.83 50.1755 132.13 50.1982 131.223C50.2212 130.31 49.986 129.59 49.4929 129.064C49.0067 128.539 48.2928 128.264 47.351 128.24L46.0226 128.207L45.8776 133.984L47.206 134.018ZM54.8244 127.647C55.6257 127.667 56.3142 127.836 56.8899 128.153C57.4729 128.463 57.912 128.899 58.2074 129.462C58.5097 130.025 58.6514 130.683 58.6326 131.435C58.6137 132.187 58.4391 132.837 58.1089 133.384C57.7859 133.925 57.3255 134.335 56.7277 134.615C56.1372 134.889 55.4413 135.016 54.64 134.995L52.3523 134.938L52.5367 127.59L54.8244 127.647ZM54.6599 134.205C55.6087 134.229 56.3389 133.997 56.8504 133.511C57.3621 133.017 57.6294 132.317 57.6521 131.41C57.675 130.497 57.4399 129.777 56.9468 129.251C56.4606 128.726 55.7467 128.451 54.8049 128.427L53.4765 128.394L53.3315 134.171L54.6599 134.205Z" fill="#8094AE"/>
<rect x="90.9598" y="112.224" width="64.0282" height="39.3515" rx="5.64955" transform="rotate(1.43756 90.9598 112.224)" fill="white"/>
<rect x="90.9598" y="112.224" width="64.0282" height="39.3515" rx="5.64955" transform="rotate(1.43756 90.9598 112.224)" stroke="#F2F4F7" stroke-width="0.753273"/>
<path d="M121.321 129.369L121.138 136.665L120.179 136.641L120.315 131.201L117.754 136.58L117.079 136.563L114.781 131.051L114.644 136.502L113.685 136.478L113.868 129.182L114.901 129.208L117.448 135.306L120.299 129.344L121.321 129.369ZM130.402 129.597L130.219 136.892L129.259 136.868L129.396 131.428L126.835 136.808L126.16 136.791L123.861 131.279L123.724 136.729L122.765 136.705L122.948 129.41L123.981 129.436L126.529 135.534L129.379 129.571L130.402 129.597Z" fill="#8094AE"/>
<rect x="161.746" y="113.999" width="64.0282" height="39.3515" rx="5.64955" transform="rotate(1.43756 161.746 113.999)" fill="white"/>
<rect x="161.746" y="113.999" width="64.0282" height="39.3515" rx="5.64955" transform="rotate(1.43756 161.746 113.999)" stroke="#F2F4F7" stroke-width="0.753273"/>
<path d="M186.801 130.958L184.293 135.473L184.223 138.246L183.264 138.222L183.333 135.449L181.045 130.813L182.109 130.84L183.829 134.607L185.736 130.931L186.801 130.958ZM192.957 131.112L190.449 135.628L190.38 138.4L189.421 138.376L189.49 135.604L187.201 130.968L188.266 130.995L189.986 134.762L191.893 131.086L192.957 131.112ZM199.114 131.267L196.606 135.782L196.537 138.555L195.577 138.531L195.647 135.758L193.358 131.122L194.423 131.149L196.143 134.916L198.049 131.24L199.114 131.267ZM205.271 131.421L202.763 135.937L202.693 138.709L201.734 138.685L201.803 135.913L199.515 131.277L200.579 131.304L202.299 135.071L204.206 131.395L205.271 131.421Z" fill="#8094AE"/>
</svg>
