<svg width="48" height="48" viewBox="0 0 48 48" fill="none" xmlns="http://www.w3.org/2000/svg">
<rect width="48" height="48" rx="8" fill="#C63996"/>
<path d="M20.9082 19.241C20.5582 19.241 20.2832 18.9577 20.2832 18.616V16.291C20.2832 15.9493 20.5582 15.666 20.9082 15.666C21.2582 15.666 21.5332 15.9493 21.5332 16.291V18.6077C21.5332 18.9577 21.2582 19.241 20.9082 19.241Z" fill="white"/>
<path d="M27.0918 19.241C26.7418 19.241 26.4668 18.9577 26.4668 18.616V16.291C26.4668 15.941 26.7501 15.666 27.0918 15.666C27.4418 15.666 27.7168 15.9493 27.7168 16.291V18.6077C27.7168 18.9577 27.4418 19.241 27.0918 19.241Z" fill="white"/>
<path d="M31.9162 27.1837C31.9162 27.3087 31.8745 27.4337 31.7662 27.5421C30.5579 28.7587 28.4079 30.9254 27.1745 32.1671C27.0662 32.2837 26.9245 32.3337 26.7829 32.3337C26.5079 32.3337 26.2412 32.1171 26.2412 31.8004V28.8837C26.2412 27.6671 27.2745 26.6587 28.5412 26.6587C29.3329 26.6504 30.4329 26.6504 31.3745 26.6504C31.6995 26.6504 31.9162 26.9087 31.9162 27.1837Z" fill="white"/>
<path d="M31.9162 27.1837C31.9162 27.3087 31.8745 27.4337 31.7662 27.5421C30.5579 28.7587 28.4079 30.9254 27.1745 32.1671C27.0662 32.2837 26.9245 32.3337 26.7829 32.3337C26.5079 32.3337 26.2412 32.1171 26.2412 31.8004V28.8837C26.2412 27.6671 27.2745 26.6587 28.5412 26.6587C29.3329 26.6504 30.4329 26.6504 31.3745 26.6504C31.6995 26.6504 31.9162 26.9087 31.9162 27.1837Z" fill="white"/>
<path d="M30.308 17.7493C29.758 17.341 28.9663 17.7327 28.9663 18.4243V18.5077C28.9663 19.4827 28.2663 20.3827 27.2913 20.4827C26.1663 20.5993 25.2163 19.716 25.2163 18.616V17.7493C25.2163 17.291 24.8413 16.916 24.383 16.916H23.6163C23.158 16.916 22.783 17.291 22.783 17.7493V18.5077C22.783 19.241 22.3913 19.9243 21.783 20.2577C21.7497 20.2827 21.7163 20.2993 21.683 20.316C21.6747 20.316 21.6747 20.3243 21.6663 20.3243C21.608 20.3493 21.5497 20.3743 21.483 20.3993C21.4663 20.4077 21.4497 20.4077 21.433 20.416C21.333 20.4493 21.2247 20.4743 21.108 20.4827H21.0997C20.9747 20.4993 20.8413 20.4993 20.7163 20.4827H20.708C20.5913 20.4743 20.483 20.4493 20.383 20.416C20.2997 20.391 20.2163 20.3577 20.133 20.316C19.483 20.0243 19.033 19.3743 19.033 18.616V18.4243C19.033 17.7827 18.3497 17.3993 17.808 17.6743C17.7997 17.6827 17.7913 17.6827 17.783 17.691H17.7747C17.7163 17.7327 17.6663 17.7743 17.608 17.816C17.5163 17.891 17.4247 17.966 17.3413 18.0493C17.283 18.1077 17.2247 18.166 17.1747 18.2243C17.108 18.291 17.0497 18.3577 16.9913 18.4327C16.9497 18.4827 16.8997 18.5327 16.8663 18.591C16.8247 18.641 16.7913 18.6993 16.758 18.7493C16.7497 18.7577 16.7413 18.766 16.733 18.7827C16.658 18.891 16.5913 19.016 16.533 19.1327C16.5163 19.1493 16.508 19.1577 16.508 19.1743C16.458 19.2743 16.408 19.3743 16.3747 19.4827C16.3497 19.5243 16.3413 19.5577 16.3247 19.5993C16.308 19.6327 16.2997 19.6743 16.283 19.7077C16.258 19.791 16.233 19.8827 16.208 19.9743C16.1747 20.091 16.1497 20.216 16.133 20.341C16.1163 20.4327 16.108 20.5243 16.0997 20.6243C16.0913 20.741 16.083 20.8577 16.083 20.9743V28.2743C16.083 30.516 17.8997 32.3327 20.1413 32.3327H24.158C24.6163 32.3327 24.9913 31.9577 24.9913 31.4993V28.8827C24.9913 26.966 26.583 25.4077 28.5413 25.4077C28.983 25.3993 30.058 25.3993 31.083 25.3993C31.5413 25.3993 31.9163 25.0243 31.9163 24.566V20.9743C31.9163 19.6493 31.283 18.491 30.308 17.7493ZM23.2747 27.2577C23.1997 27.5077 22.9663 27.6827 22.6913 27.6827H19.658C19.6163 27.6827 19.583 27.6827 19.5497 27.666C19.2497 27.6243 19.033 27.366 19.033 27.0577C19.033 26.7077 19.308 26.4243 19.658 26.4243H22.6913C23.033 26.4243 23.3163 26.7077 23.3163 27.0577C23.3163 27.1243 23.308 27.1993 23.2747 27.2577ZM25.5913 24.166C25.5163 24.416 25.283 24.591 25.008 24.591H19.658C19.6163 24.591 19.583 24.591 19.5497 24.5743C19.2497 24.5327 19.033 24.2743 19.033 23.966C19.033 23.616 19.308 23.3327 19.658 23.3327H25.008C25.358 23.3327 25.633 23.616 25.633 23.966C25.633 24.0327 25.6247 24.1077 25.5913 24.166Z" fill="white"/>
</svg>
