<svg width="214" height="143" viewBox="0 0 214 143" fill="none" xmlns="http://www.w3.org/2000/svg">
<rect x="14" y="0.697266" width="200.405" height="119.493" rx="8.16824" transform="rotate(6.55235 14 0.697266)" fill="white"/>
<rect x="24.9986" y="14.5503" width="35.2255" height="35.2255" rx="17.6128" transform="rotate(6.55235 24.9986 14.5503)" fill="#EFE6FD" fill-opacity="0.6" stroke="url(#paint0_linear_1_17084)" stroke-width="0.510515"/>
<path d="M47.2706 26.7624L45.3565 43.4268C45.2645 44.2274 44.5416 44.8014 43.741 44.7094L32.1484 43.3779C31.3478 43.2859 30.7738 42.563 30.8658 41.7624L32.7798 25.098C32.8718 24.2974 33.5947 23.7234 34.3954 23.8154L45.988 25.1469C46.7886 25.2389 47.3625 25.9618 47.2706 26.7624Z" fill="#290064"/>
<path d="M46.4221 27.7631L44.5912 43.703C44.5683 43.9022 44.3866 44.0465 44.1873 44.0236L33.3193 42.7753C33.12 42.7524 32.9757 42.5707 32.9986 42.3714L33.0402 42.0091L43.546 43.2159C43.7453 43.2387 43.927 43.0944 43.9499 42.8952L45.7391 27.3177L46.1014 27.3593C46.3007 27.3822 46.445 27.5639 46.4221 27.7631Z" fill="#00325A"/>
<path d="M45.78 26.9585L43.9491 42.8983C43.9262 43.0975 43.7445 43.2418 43.5452 43.2189L32.6772 41.9706C32.4779 41.9477 32.3336 41.766 32.3565 41.5667L34.1874 25.6269C34.2103 25.4277 34.392 25.2834 34.5913 25.3063L45.4593 26.5546C45.6586 26.5775 45.8029 26.7592 45.78 26.9585Z" fill="#F0F0F0"/>
<path d="M36.5691 24.0615L37.2936 24.1447L37.1272 25.5938L36.4026 25.5106L36.5691 24.0615Z" fill="#00325A"/>
<path d="M44.5393 24.9795L45.2638 25.0627L45.0974 26.5118L44.3729 26.4286L44.5393 24.9795Z" fill="#00325A"/>
<path d="M45.0975 26.5123L44.8479 28.6859C44.8021 29.0844 44.4386 29.373 44.0401 29.3273L36.7947 28.495C36.3962 28.4493 36.1076 28.0858 36.1534 27.6873L36.4031 25.5137L37.1276 25.5969L37.0028 26.6837C36.9799 26.8829 37.1242 27.0647 37.3234 27.0876L43.8443 27.8366C44.0435 27.8595 44.2253 27.7152 44.2482 27.5159L44.373 26.4291L45.0975 26.5123Z" fill="#D2D2D2"/>
<path d="M46.2833 35.3642L45.9304 38.4362L44.3149 39.7189L44.6678 36.6468L46.2833 35.3642Z" fill="#00325A"/>
<path d="M44.6663 36.6503L44.3135 39.7223L41.7161 41.7878C40.302 42.0842 41.453 41.842 40.0348 42.1416C39.7414 42.2033 39.5045 41.9008 39.6312 41.629C40.4061 39.9636 39.7079 41.4727 40.3565 40.0753L44.6663 36.6503Z" fill="#D2D2D2"/>
<path d="M47.8669 36.2419C42.6004 40.4189 43.9832 39.3221 41.801 41.0546L40.4414 39.3422C43.6389 36.8035 42.2935 37.8723 46.5041 34.5255L47.8669 36.2419Z" fill="#00DDD0"/>
<path d="M41.8002 41.0589L40.1188 41.4127C39.8254 41.4744 39.5882 41.1755 39.7148 40.9038C40.2812 39.6919 40.121 40.0361 40.4406 39.3464L41.8002 41.0589Z" fill="#F2C8A0"/>
<path d="M41.002 41.2301L40.1199 41.4159C39.8258 41.4779 39.5876 41.1774 39.7143 40.9049L40.0952 40.088L41.002 41.2301Z" fill="#00143C"/>
<path d="M49.1253 34.3124L48.6719 33.7413C48.4215 33.4259 47.9628 33.3732 47.6474 33.6236L47.076 34.077L48.4365 35.7906L49.0076 35.3372C49.3231 35.0864 49.3758 34.6278 49.1253 34.3124Z" fill="#6200EE"/>
<path d="M40.8896 39.9141L46.9534 35.0998L47.4068 35.6708L41.3431 40.4851L40.8896 39.9141Z" fill="#00325A"/>
<path d="M47.0742 34.0771L48.4347 35.7907L47.8635 36.2441L46.503 34.5306L47.0742 34.0771Z" fill="#F2C8A0"/>
<path d="M44.2606 24.2124C44.0607 24.1894 43.8797 24.3331 43.8568 24.5331L43.6071 26.7067C43.5841 26.9067 43.4032 27.0503 43.2032 27.0273L36.6824 26.2784C36.4824 26.2554 36.3388 26.0744 36.3617 25.8745L36.6114 23.7009C36.6344 23.5009 36.4907 23.32 36.2907 23.297C36.0908 23.274 35.9098 23.4177 35.8869 23.6176L35.5124 26.8781C35.4664 27.2784 35.7534 27.6398 36.1537 27.6858L43.399 28.518C43.7994 28.564 44.1608 28.277 44.2068 27.8767L44.5813 24.6163C44.6043 24.4163 44.4606 24.2354 44.2606 24.2124Z" fill="#00DDD0"/>
<path d="M36.7113 29.2143L35.9867 29.1311C35.5864 29.0851 35.225 29.3721 35.179 29.7724L35.0958 30.4969C35.0498 30.8972 35.3368 31.2587 35.7371 31.3047L36.4616 31.3879C36.8619 31.4339 37.2234 31.1469 37.2694 30.7466L37.3526 30.0221C37.3986 29.6217 37.1116 29.2603 36.7113 29.2143ZM36.9071 30.705C36.8841 30.905 36.7032 31.0486 36.5032 31.0256L35.7787 30.9424C35.5787 30.9194 35.4351 30.7385 35.458 30.5385L35.5413 29.814C35.5642 29.614 35.7452 29.4704 35.9451 29.4933L36.6697 29.5766C36.8696 29.5995 37.0133 29.7805 36.9903 29.9804L36.9071 30.705Z" fill="#6200EE"/>
<path d="M36.4008 30.7803L35.9198 30.1745C35.8573 30.0957 35.8705 29.9809 35.9492 29.9184C36.028 29.8558 36.1428 29.869 36.2053 29.9478L36.5732 30.4107L38.0457 29.2415C38.1245 29.179 38.2393 29.1922 38.3018 29.271C38.3644 29.3497 38.3512 29.4646 38.2724 29.5271L36.6569 30.8097C36.5782 30.8722 36.4637 30.8591 36.4008 30.7803Z" fill="#00143C"/>
<path d="M42.3835 30.9725L38.7609 30.5564C38.6609 30.5449 38.589 30.4545 38.6005 30.3545C38.612 30.2545 38.7025 30.1827 38.8025 30.1941L42.4252 30.6103C42.5251 30.6217 42.597 30.7122 42.5855 30.8122C42.574 30.9122 42.4835 30.984 42.3835 30.9725Z" fill="#6200EE"/>
<path d="M43.0246 31.7804L38.6774 31.281C38.5774 31.2695 38.5056 31.1791 38.517 31.0791C38.5285 30.9791 38.619 30.9073 38.719 30.9188L43.0662 31.4181C43.1662 31.4296 43.238 31.52 43.2265 31.62C43.215 31.72 43.1246 31.7918 43.0246 31.7804Z" fill="#6200EE"/>
<path d="M36.296 32.8373L35.5715 32.7541C35.1712 32.7081 34.8097 32.9951 34.7637 33.3954L34.6805 34.12C34.6345 34.5203 34.9215 34.8818 35.3218 34.9277L36.0463 35.011C36.4466 35.0569 36.8081 34.7699 36.8541 34.3696L36.9373 33.6451C36.9833 33.2448 36.6963 32.8833 36.296 32.8373ZM36.4918 34.328C36.4689 34.528 36.2879 34.6717 36.0879 34.6487L35.3634 34.5655C35.1634 34.5425 35.0198 34.3616 35.0427 34.1616L35.126 33.437C35.1489 33.2371 35.3299 33.0934 35.5299 33.1164L36.2544 33.1996C36.4544 33.2226 36.598 33.4035 36.575 33.6035L36.4918 34.328Z" fill="#6200EE"/>
<path d="M35.9855 34.4063L35.5045 33.8005C35.442 33.7217 35.4552 33.6069 35.5339 33.5443C35.6127 33.4818 35.7275 33.495 35.7901 33.5737L36.1579 34.0366L37.6304 32.8675C37.7092 32.805 37.824 32.8182 37.8866 32.8969C37.9491 32.9757 37.9359 33.0905 37.8571 33.1531L36.2416 34.4357C36.1629 34.4982 36.0484 34.4851 35.9855 34.4063Z" fill="#00143C"/>
<path d="M41.9673 34.5931L38.3446 34.177C38.2446 34.1655 38.1728 34.0751 38.1843 33.9751C38.1958 33.8751 38.2862 33.8033 38.3862 33.8148L42.0089 34.2309C42.1089 34.2423 42.1807 34.3328 42.1692 34.4328C42.1577 34.5328 42.0673 34.6046 41.9673 34.5931Z" fill="#6200EE"/>
<path d="M42.6086 35.4014L38.2613 34.9021C38.1614 34.8906 38.0895 34.8002 38.101 34.7002C38.1125 34.6002 38.203 34.5284 38.303 34.5398L42.6502 35.0392C42.7502 35.0507 42.822 35.1411 42.8105 35.2411C42.799 35.3411 42.7086 35.4129 42.6086 35.4014Z" fill="#6200EE"/>
<path d="M35.8797 36.4658L35.1552 36.3825C34.7549 36.3366 34.3934 36.6235 34.3474 37.0239L34.2642 37.7484C34.2182 38.1487 34.5052 38.5102 34.9055 38.5561L35.6301 38.6394C36.0304 38.6853 36.3919 38.3984 36.4378 37.9981L36.5211 37.2735C36.567 36.8732 36.28 36.5117 35.8797 36.4658ZM36.0756 37.9564C36.0526 38.1564 35.8717 38.3001 35.6717 38.2771L34.9471 38.1939C34.7472 38.1709 34.6035 37.99 34.6265 37.79L34.7097 37.0655C34.7327 36.8655 34.9136 36.7218 35.1136 36.7448L35.8381 36.828C36.0381 36.851 36.1818 37.0319 36.1588 37.2319L36.0756 37.9564Z" fill="#6200EE"/>
<path d="M35.5705 38.0249L35.0895 37.4191C35.0269 37.3403 35.0401 37.2255 35.1189 37.163C35.1977 37.1005 35.3125 37.1136 35.375 37.1924L35.7429 37.6553L37.2154 36.4862C37.2942 36.4236 37.409 36.4368 37.4715 36.5156C37.5341 36.5943 37.5209 36.7092 37.4421 36.7717L35.8266 38.0543C35.7478 38.1169 35.6334 38.1037 35.5705 38.0249Z" fill="#00143C"/>
<path d="M40.6446 38.1107L37.9276 37.7986C37.8276 37.7871 37.7558 37.6966 37.7673 37.5967C37.7788 37.4967 37.8692 37.4248 37.9692 37.4363L40.6862 37.7484C40.7862 37.7599 40.858 37.8504 40.8466 37.9504C40.8351 38.0503 40.7446 38.1222 40.6446 38.1107Z" fill="#6200EE"/>
<path d="M39.8376 38.757L37.8451 38.5281C37.7451 38.5166 37.6733 38.4261 37.6848 38.3262C37.6962 38.2262 37.7867 38.1543 37.8867 38.1658L39.8792 38.3947C39.9792 38.4062 40.051 38.4966 40.0395 38.5966C40.028 38.6966 39.9376 38.7684 39.8376 38.757Z" fill="#6200EE"/>
<path d="M19.4025 67.822L19.9711 62.8715L21.5792 63.0562L21.0093 68.0182C20.8826 69.1208 21.4139 69.7637 22.4362 69.8811C23.4699 69.9999 24.1331 69.4942 24.2598 68.3915L24.8297 63.4296L26.4493 63.6156L25.8806 68.5661C25.6379 70.6795 24.003 71.5391 22.2456 71.3372C20.4883 71.1354 19.1598 69.9354 19.4025 67.822ZM32.2295 70.5638C32.1042 71.6549 31.0558 72.3724 29.5052 72.1943C27.9087 72.011 26.9014 70.9526 26.9683 69.7616L28.5879 69.9477C28.5899 70.4367 28.9956 70.8557 29.6388 70.9296C30.2706 71.0021 30.6481 70.7545 30.6904 70.387C30.821 69.2499 27.1427 69.5606 27.4106 67.2289C27.5319 66.1722 28.5714 65.4304 30.145 65.6111C31.6841 65.7879 32.5182 66.7333 32.4649 68.0073L30.9258 67.8305C30.9366 67.3313 30.5843 66.9534 29.9526 66.8808C29.3553 66.8122 29.0175 67.0178 28.9753 67.3853C28.842 68.5454 32.4514 68.2268 32.2295 70.5638ZM36.6657 67.6984C35.8962 67.6101 35.2307 68.034 35.0041 68.8925L38.0249 69.2394C38.0982 68.3983 37.4927 67.7934 36.6657 67.6984ZM39.3251 71.1926C38.8459 72.3246 37.6824 73.1336 36.1088 72.9528C34.2595 72.7404 33.0634 71.2996 33.293 69.3011C33.5239 67.291 34.9797 66.1665 36.8634 66.3828C38.7012 66.5939 39.8553 67.995 39.6376 69.8902C39.6139 70.0969 39.5786 70.3023 39.5204 70.5051L34.8686 69.9708C34.8408 70.9219 35.4233 71.5241 36.2274 71.6165C36.9165 71.6957 37.3351 71.3946 37.5907 70.9934L39.3251 71.1926ZM43.1215 70.4067C43.3498 68.4196 44.7827 67.2924 46.4022 67.4785C47.4244 67.5959 48.0697 68.1588 48.388 68.7307L48.4922 67.8233L50.1118 68.0093L49.3809 74.3725L47.7614 74.1865L47.8682 73.2562C47.4259 73.7639 46.6468 74.1632 45.6361 74.0471C44.028 73.8624 42.8933 72.3938 43.1215 70.4067ZM48.1268 71.0049C48.2653 69.7989 47.5378 69.0403 46.6534 68.9387C45.792 68.8398 44.9026 69.3893 44.764 70.5954C44.6255 71.8014 45.3619 72.5842 46.2233 72.6832C47.1077 72.7848 47.9883 72.2109 48.1268 71.0049ZM54.0351 68.0992L54.1842 66.8012L60.065 67.4767L59.916 68.7746L57.7796 68.5293L57.0078 75.2486L55.3997 75.0639L56.1715 68.3446L54.0351 68.0992ZM63.6422 70.797C62.8726 70.7086 62.2071 71.1326 61.9805 71.991L65.0013 72.338C65.0747 71.4969 64.4692 70.892 63.6422 70.797ZM66.3015 74.2911C65.8223 75.4231 64.6588 76.2321 63.0852 76.0514C61.2359 75.839 60.0398 74.3982 60.2694 72.3996C60.5003 70.3896 61.9561 69.265 63.8398 69.4814C65.6776 69.6925 66.8317 71.0935 66.614 72.9887C66.5903 73.1955 66.555 73.4009 66.4968 73.6037L61.845 73.0694C61.8172 74.0204 62.3997 74.6227 63.2038 74.715C63.8929 74.7942 64.3115 74.4932 64.5671 74.0919L66.3015 74.2911ZM76.3081 77.4654L76.7118 73.9507C76.8279 72.9399 76.3258 72.3469 75.4758 72.2493C74.6144 72.1504 73.9909 72.6141 73.8748 73.6249L73.4711 77.1396L71.863 76.9549L72.2667 73.4401C72.3828 72.4294 71.8807 71.8364 71.0308 71.7388C70.1578 71.6385 69.5343 72.1022 69.4182 73.113L69.0145 76.6277L67.4065 76.443L68.1374 70.0797L69.7454 70.2644L69.657 71.034C70.1197 70.5518 70.8356 70.2966 71.6282 70.3876C72.616 70.501 73.3827 71.0197 73.7281 71.8624C74.2247 71.1862 75.1199 70.7887 76.0503 70.8955C77.5779 71.071 78.5468 72.1598 78.3449 73.9172L77.9162 77.6501L76.3081 77.4654ZM81.6755 72.5657C82.1165 72.0694 82.907 71.6715 83.8948 71.7849C85.5259 71.9723 86.6544 73.3936 86.4261 75.3807C86.1979 77.3678 84.7712 78.5423 83.1402 78.3549C82.1409 78.2401 81.4855 77.6644 81.1544 77.1027L80.7018 81.0424L79.0938 80.8577L80.173 71.4622L81.781 71.6469L81.6755 72.5657ZM84.7836 75.1921C84.9222 73.986 84.1805 73.2491 83.3076 73.1489C82.4461 73.0499 81.5541 73.6225 81.4156 74.8285C81.2771 76.0345 82.016 76.7944 82.8775 76.8933C83.7504 76.9936 84.6451 76.3981 84.7836 75.1921ZM87.2266 78.7195L88.2028 70.2199L89.8109 70.4046L88.8346 78.9042L87.2266 78.7195ZM90.3779 75.8346C90.6062 73.8476 92.0391 72.7204 93.6586 72.9064C94.6808 73.0238 95.3261 73.5867 95.6444 74.1586L95.7486 73.2512L97.3682 73.4372L96.6373 79.8005L95.0178 79.6144L95.1246 78.6841C94.6823 79.1919 93.9032 79.5912 92.8925 79.4751C91.2844 79.2904 90.1497 77.8217 90.3779 75.8346ZM95.3832 76.4328C95.5217 75.2268 94.7942 74.4683 93.9098 74.3667C93.0484 74.2677 92.159 74.8173 92.0204 76.0233C91.8819 77.2293 92.6183 78.0122 93.4797 78.1111C94.3641 78.2127 95.2447 77.6389 95.3832 76.4328ZM98.6874 78.0343L99.0397 74.9675L98.2816 74.8805L98.4333 73.5596L99.1914 73.6466L99.3721 72.0731L100.992 72.2591L100.811 73.8327L102.235 73.9962L102.083 75.3171L100.659 75.1535L100.306 78.2318C100.257 78.6568 100.408 78.8603 100.913 78.9184L101.66 79.0041L101.504 80.3595L100.494 80.2434C99.276 80.1036 98.5199 79.493 98.6874 78.0343ZM105.986 75.6606C105.216 75.5722 104.551 75.9962 104.324 76.8546L107.345 77.2016C107.418 76.3605 106.813 75.7556 105.986 75.6606ZM108.645 79.1547C108.166 80.2867 107.002 81.0957 105.429 80.915C103.579 80.7026 102.383 79.2618 102.613 77.2632C102.844 75.2532 104.3 74.1286 106.183 74.345C108.021 74.5561 109.175 75.9571 108.957 77.8523C108.934 78.0591 108.898 78.2645 108.84 78.4673L104.188 77.933C104.161 78.8841 104.743 79.4863 105.547 79.5787C106.236 79.6578 106.655 79.3568 106.911 78.9555L108.645 79.1547Z" fill="#11002A"/>
<path d="M21.2519 90.3511L21.6093 87.24L18.1143 86.8386L17.7569 89.9497L16.861 89.8468L17.6492 82.9847L18.5451 83.0876L18.1991 86.1002L21.6941 86.5017L22.0401 83.489L22.936 83.5919L22.1479 90.454L21.2519 90.3511ZM23.6454 87.8729C23.8388 86.1894 25.0756 85.2342 26.5229 85.4004C27.5271 85.5158 28.1574 86.1069 28.408 86.7043L28.5211 85.7197L29.4269 85.8238L28.8072 91.2189L27.9014 91.1149L28.0168 90.1107C27.6252 90.6542 26.8674 91.0859 25.873 90.9717C24.4356 90.8066 23.4531 89.5466 23.6454 87.8729ZM28.2124 88.4075C28.356 87.1571 27.5953 86.3116 26.6108 86.1986C25.6262 86.0855 24.7069 86.7081 24.561 87.9781C24.4151 89.2481 25.166 90.0925 26.1505 90.2055C27.135 90.3186 28.0665 89.6775 28.2124 88.4075ZM30.3009 85.9242L31.2658 86.035L32.4246 90.7965L34.623 86.4206L35.5779 86.5303L32.8415 91.6823L31.798 91.5624L30.3009 85.9242ZM38.6766 87.5645C37.8003 87.4639 37.0051 87.961 36.7856 89.0032L40.1921 89.3944C40.3229 88.3421 39.602 87.6708 38.6766 87.5645ZM40.8452 90.9158C40.4565 91.8687 39.5019 92.5371 38.163 92.3833C36.6271 92.2069 35.6193 90.9939 35.8161 89.2808C36.0117 87.5776 37.2278 86.63 38.803 86.811C40.3684 86.9908 41.2656 88.211 41.096 89.6878C41.0734 89.8847 41.0455 90.0411 41.0043 90.2259L36.6921 89.7306C36.6355 90.8313 37.3344 91.5201 38.25 91.6252C39.0573 91.718 39.6168 91.3633 39.8804 90.805L40.8452 90.9158ZM44.7371 93.0486L45.272 88.3919L44.573 88.3116L44.6578 87.5732L45.3568 87.6535L45.4009 87.2695C45.5388 86.0684 46.1918 85.5948 47.5701 85.7531L47.4841 86.5013C46.6768 86.4086 46.3771 86.6734 46.2968 87.3724L46.2527 87.7564L47.3849 87.8865L47.3001 88.6248L46.1679 88.4948L45.633 93.1516L44.7371 93.0486ZM53.2142 88.556L52.5945 93.9512L51.6986 93.8483L51.7902 93.0508C51.3812 93.5724 50.6854 93.8117 49.9667 93.7291C48.7262 93.5866 47.8397 92.7068 48.0173 91.1611L48.3802 88.0008L49.2663 88.1026L48.9169 91.1447C48.7914 92.2375 49.3275 92.8677 50.2332 92.9717C51.1587 93.078 51.8445 92.5782 51.9779 91.4165L52.3183 88.4531L53.2142 88.556ZM54.1072 94.1249L54.944 86.8395L55.8399 86.9424L55.0031 94.2278L54.1072 94.1249ZM56.53 94.4032L57.3669 87.1178L58.2628 87.2207L57.426 94.5061L56.53 94.4032ZM61.5539 92.2371C61.7484 90.5437 62.9656 89.5863 64.5014 89.7627C65.8403 89.9165 66.6374 90.7063 66.783 91.8702L65.8182 91.7593C65.7058 91.0881 65.2118 90.6124 64.4143 90.5208C63.4298 90.4077 62.621 91.023 62.4694 92.3423C62.3157 93.6812 62.9639 94.4639 63.9484 94.577C64.7459 94.6686 65.3216 94.3457 65.5966 93.689L66.5614 93.7998C66.1625 94.8413 65.2003 95.4888 63.8614 95.3351C62.3255 95.1586 61.3571 93.9502 61.5539 92.2371ZM72.9882 93.5505C72.7915 95.2635 71.4364 96.2051 69.9006 96.0287C68.3746 95.8535 67.3372 94.637 67.534 92.924C67.7296 91.2208 69.054 90.2856 70.58 90.4609C72.1159 90.6373 73.1839 91.8473 72.9882 93.5505ZM68.4496 93.0292C68.2924 94.3976 69.0558 95.1337 69.991 95.2411C70.9263 95.3485 71.9154 94.8138 72.0726 93.4453C72.2287 92.0867 71.4063 91.3438 70.4808 91.2375C69.5357 91.129 68.6057 91.6705 68.4496 93.0292ZM77.8031 96.8466L78.1537 93.7947C78.2803 92.692 77.7442 92.0618 76.8385 91.9578C75.9229 91.8526 75.2272 92.3513 75.0938 93.513L74.7511 96.4961L73.8552 96.3932L74.4749 90.998L75.3708 91.1009L75.2826 91.8689C75.7015 91.3484 76.3863 91.1178 77.1149 91.2015C78.3652 91.3451 79.232 92.2227 79.0544 93.7684L78.6892 96.9484L77.8031 96.8466ZM80.5192 95.6624L80.8844 92.4824L80.1854 92.4021L80.2702 91.6637L80.9692 91.744L81.1253 90.3854L82.0212 90.4883L81.8651 91.8469L83.273 92.0086L83.1882 92.747L81.7803 92.5853L81.4151 95.7653C81.354 96.2969 81.5294 96.5066 82.0808 96.5699L82.7404 96.6457L82.6533 97.4037L81.846 97.311C80.891 97.2013 80.3948 96.7453 80.5192 95.6624ZM84.9717 94.6975L84.6347 97.6313L83.7388 97.5284L84.3585 92.1333L85.2544 92.2362L85.1538 93.1124C85.528 92.5469 86.1518 92.2395 87.0083 92.3379L86.902 93.2633L86.6657 93.2362C85.8092 93.1378 85.1153 93.4471 84.9717 94.6975ZM92.842 95.8309C92.6452 97.5439 91.2902 98.4856 89.7543 98.3092C88.2283 98.1339 87.191 96.9175 87.3878 95.2044C87.5834 93.5012 88.9078 92.566 90.4338 92.7413C91.9696 92.9177 93.0376 94.1277 92.842 95.8309ZM88.3034 95.3096C88.1462 96.6781 88.9095 97.4141 89.8448 97.5215C90.7801 97.629 91.7692 97.0942 91.9264 95.7257C92.0824 94.3671 91.26 93.6243 90.3346 93.518C89.3894 93.4094 88.4594 93.951 88.3034 95.3096ZM93.709 98.6736L94.5458 91.3882L95.4417 91.4911L94.6049 98.7765L93.709 98.6736ZM99.8099 99.3744L98.7363 93.7847L99.6519 93.8899L100.372 98.5612L102.231 94.1862L103.147 94.2913L103.935 98.9804L105.677 94.582L106.563 94.6837L104.26 99.8855L103.335 99.7792L102.527 95.3473L100.735 99.4807L99.8099 99.3744ZM106.833 100.181L107.669 92.8956L108.565 92.9985L108.259 95.6665C108.679 95.1362 109.383 94.9079 110.141 94.995C111.343 95.133 112.209 96.0106 112.032 97.5563L111.667 100.736L110.781 100.634L111.131 97.5825C111.258 96.4798 110.722 95.8497 109.816 95.7456C108.9 95.6405 108.205 96.1391 108.071 97.3008L107.729 100.284L106.833 100.181ZM115.967 96.4422C115.091 96.3415 114.295 96.8387 114.076 97.8808L117.482 98.2721C117.613 97.2198 116.892 96.5484 115.967 96.4422ZM118.135 99.7935C117.747 100.746 116.792 101.415 115.453 101.261C113.917 101.085 112.91 99.8715 113.106 98.1585C113.302 96.4553 114.518 95.5077 116.093 95.6886C117.659 95.8684 118.556 97.0887 118.386 98.5654C118.364 98.7623 118.336 98.9187 118.294 99.1035L113.982 98.6082C113.926 99.709 114.625 100.398 115.54 100.503C116.348 100.596 116.907 100.241 117.171 99.6827L118.135 99.7935ZM123.183 102.059L123.534 99.0071C123.66 97.9044 123.124 97.2742 122.218 97.1702C121.303 97.065 120.607 97.5637 120.474 98.7254L120.131 101.708L119.235 101.606L119.855 96.2104L120.751 96.3133L120.663 97.0813C121.081 96.5608 121.766 96.3302 122.495 96.4139C123.745 96.5575 124.612 97.4351 124.434 98.9808L124.069 102.161L123.183 102.059ZM128.134 99.8845C128.328 98.1912 129.545 97.2337 131.081 97.4101C132.42 97.5639 133.217 98.3537 133.363 99.5176L132.398 99.4068C132.286 98.7355 131.792 98.2598 130.994 98.1682C130.01 98.0551 129.201 98.6704 129.049 99.9897C128.895 101.329 129.544 102.111 130.528 102.224C131.326 102.316 131.901 101.993 132.176 101.336L133.141 101.447C132.742 102.489 131.78 103.136 130.441 102.982C128.905 102.806 127.937 101.598 128.134 99.8845ZM135.37 100.486L135.033 103.42L134.138 103.317L134.757 97.9221L135.653 98.025L135.552 98.9013C135.927 98.3358 136.55 98.0284 137.407 98.1268L137.301 99.0522L137.064 99.0251C136.208 98.9267 135.514 99.236 135.37 100.486ZM140.647 99.2769C139.771 99.1763 138.975 99.6735 138.756 100.716L142.162 101.107C142.293 100.055 141.572 99.3832 140.647 99.2769ZM142.816 102.628C142.427 103.581 141.472 104.25 140.133 104.096C138.598 103.919 137.59 102.706 137.786 100.993C137.982 99.2901 139.198 98.3425 140.773 98.5234C142.339 98.7032 143.236 99.9235 143.066 101.4C143.044 101.597 143.016 101.754 142.975 101.938L138.662 101.443C138.606 102.544 139.305 103.233 140.22 103.338C141.028 103.43 141.587 103.076 141.851 102.517L142.816 102.628ZM143.893 101.685C144.086 100.001 145.323 99.046 146.77 99.2122C147.774 99.3275 148.405 99.9186 148.655 100.516L148.768 99.5315L149.674 99.6355L149.055 105.031L148.149 104.927L148.264 103.922C147.873 104.466 147.115 104.898 146.12 104.783C144.683 104.618 143.701 103.358 143.893 101.685ZM148.46 102.219C148.603 100.969 147.843 100.123 146.858 100.01C145.874 99.8972 144.954 100.52 144.808 101.79C144.662 103.06 145.413 103.904 146.398 104.017C147.382 104.13 148.314 103.489 148.46 102.219ZM150.935 103.75L151.3 100.57L150.601 100.49L150.686 99.7518L151.385 99.832L151.541 98.4734L152.437 98.5763L152.281 99.9349L153.689 100.097L153.604 100.835L152.196 100.673L151.831 103.853C151.77 104.385 151.945 104.595 152.497 104.658L153.156 104.734L153.069 105.492L152.262 105.399C151.307 105.289 150.811 104.833 150.935 103.75ZM154.155 105.616L154.774 100.221L155.67 100.324L155.051 105.719L154.155 105.616ZM155.338 99.3983C154.993 99.3587 154.758 99.0623 154.797 98.7178C154.837 98.3732 155.133 98.1379 155.478 98.1775C155.803 98.2148 156.038 98.5111 155.999 98.8557C155.959 99.2003 155.663 99.4356 155.338 99.3983ZM160.525 106.348L160.876 103.296C161.003 102.194 160.467 101.563 159.561 101.459C158.645 101.354 157.95 101.853 157.816 103.015L157.473 105.998L156.578 105.895L157.197 100.5L158.093 100.603L158.005 101.37C158.424 100.85 159.109 100.619 159.837 100.703C161.088 100.847 161.954 101.724 161.777 103.27L161.412 106.45L160.525 106.348ZM162.852 103.862C163.046 102.179 164.283 101.224 165.73 101.39C166.714 101.503 167.367 102.077 167.615 102.694L167.728 101.709L168.634 101.813L168.001 107.327C167.83 108.813 166.714 109.752 165.129 109.57C163.712 109.407 162.78 108.572 162.735 107.4L163.621 107.502C163.744 108.174 164.333 108.691 165.219 108.793C166.174 108.902 166.963 108.374 167.095 107.223L167.225 106.09C166.833 106.634 166.074 107.075 165.09 106.962C163.643 106.796 162.66 105.536 162.852 103.862ZM167.419 104.397C167.563 103.147 166.802 102.301 165.818 102.188C164.833 102.075 163.914 102.698 163.768 103.968C163.622 105.238 164.373 106.082 165.357 106.195C166.342 106.308 167.273 105.667 167.419 104.397ZM17.3147 103.96L19.4905 99.7811L20.416 99.8874L16.2556 107.449L15.3302 107.343L16.692 104.866L15.1291 99.2801L16.1235 99.3944L17.3147 103.96ZM26.1273 103.267C25.9306 104.98 24.5755 105.921 23.0397 105.745C21.5137 105.57 20.4763 104.353 20.6731 102.64C20.8687 100.937 22.1931 100.002 23.7191 100.177C25.2549 100.353 26.3229 101.563 26.1273 103.267ZM21.5887 102.745C21.4315 104.114 22.1948 104.85 23.1301 104.957C24.0654 105.065 25.0545 104.53 25.2117 103.161C25.3678 101.803 24.5454 101.06 23.6199 100.954C22.6748 100.845 21.7448 101.387 21.5887 102.745ZM32.3987 101.264L31.779 106.659L30.8831 106.556L30.9747 105.759C30.5657 106.28 29.8699 106.519 29.1512 106.437C27.9107 106.294 27.0242 105.414 27.2018 103.869L27.5648 100.709L28.4508 100.81L28.1014 103.852C27.9759 104.945 28.512 105.575 29.4177 105.679C30.3432 105.786 31.029 105.286 31.1624 104.124L31.5028 101.161L32.3987 101.264ZM34.5246 104.002L34.1876 106.936L33.2917 106.833L33.9114 101.437L34.8073 101.54L34.7067 102.417C35.0809 101.851 35.7047 101.544 36.5612 101.642L36.4549 102.568L36.2186 102.54C35.3621 102.442 34.6682 102.751 34.5246 104.002ZM43.6366 106.535C43.5349 107.421 42.6802 108.001 41.4889 107.864C40.2288 107.719 39.4219 106.928 39.4759 105.937L40.4013 106.043C40.3906 106.571 40.8081 107.018 41.5662 107.105C42.275 107.186 42.7095 106.877 42.7604 106.434C42.8984 105.233 39.6283 105.565 39.859 103.557C39.954 102.73 40.8097 102.14 42.0109 102.278C43.2021 102.415 43.9162 103.145 43.8543 104.205L42.9584 104.103C42.9812 103.557 42.6129 103.115 41.8942 103.033C41.2346 102.957 40.8046 103.227 40.7549 103.66C40.6079 104.94 43.8189 104.6 43.6366 106.535ZM50.1373 103.301L49.5176 108.696L48.6217 108.593L48.7133 107.796C48.3043 108.318 47.6085 108.557 46.8898 108.474C45.6493 108.332 44.7628 107.452 44.9403 105.906L45.3033 102.746L46.1894 102.848L45.84 105.89C45.7145 106.983 46.2506 107.613 47.1563 107.717C48.0817 107.823 48.7676 107.323 48.901 106.162L49.2414 103.198L50.1373 103.301ZM52.2632 106.039L51.9262 108.973L51.0303 108.87L51.65 103.475L52.5459 103.578L52.4453 104.454C52.8194 103.889 53.4433 103.581 54.2998 103.68L54.1935 104.605L53.9572 104.578C53.1007 104.48 52.4068 104.789 52.2632 106.039ZM54.6828 103.823L55.6476 103.934L56.8064 108.696L59.0048 104.32L59.9598 104.429L57.2234 109.581L56.1798 109.462L54.6828 103.823ZM63.0584 105.464C62.1822 105.363 61.3869 105.86 61.1675 106.902L64.5739 107.294C64.7047 106.241 63.9838 105.57 63.0584 105.464ZM65.2271 108.815C64.8383 109.768 63.8837 110.436 62.5448 110.282C61.009 110.106 60.0012 108.893 60.1979 107.18C60.3936 105.477 61.6096 104.529 63.1848 104.71C64.7502 104.89 65.6475 106.11 65.4778 107.587C65.4552 107.784 65.4273 107.94 65.3861 108.125L61.0739 107.63C61.0173 108.73 61.7163 109.419 62.6319 109.524C63.4392 109.617 63.9986 109.262 64.2622 108.704L65.2271 108.815ZM68.4922 109.838L70.668 105.659L71.5934 105.766L67.4331 113.328L66.5076 113.221L67.8695 110.744L66.3066 105.158L67.3009 105.273L68.4922 109.838Z" fill="#11002A"/>
<defs>
<linearGradient id="paint0_linear_1_17084" x1="-0.241065" y1="-9.47137" x2="59.4892" y2="50.0036" gradientUnits="userSpaceOnUse">
<stop stop-color="#6100DD"/>
<stop offset="1" stop-color="#6100DD" stop-opacity="0"/>
</linearGradient>
</defs>
</svg>
