<svg width="198" height="145" viewBox="0 0 198 145" fill="none" xmlns="http://www.w3.org/2000/svg">
<rect x="0.0961914" y="25.9336" width="182.237" height="119.493" rx="8.16824" transform="rotate(-8.10464 0.0961914 25.9336)" fill="white"/>
<rect x="14.2423" y="36.5531" width="35.2255" height="35.2255" rx="17.6128" transform="rotate(-8.10464 14.2423 36.5531)" fill="#EFE6FD" fill-opacity="0.6" stroke="url(#paint0_linear_1_17149)" stroke-width="0.510515"/>
<g clip-path="url(#clip0_1_17149)">
<path d="M30.3876 54.9987L43.1611 53.1797C43.0876 52.6636 42.9851 52.1584 42.8101 51.6853C41.8579 49.1113 39.9038 47.0546 37.2637 46.2179C36.3387 45.9253 35.3705 45.7924 34.4008 45.8251L32.5633 46.0867C28.9148 47.0141 26.3215 50.2275 26.1301 53.935L30.3876 54.9987Z" fill="#D2DCFD"/>
<path d="M23.9609 46.3348C24.3342 45.8373 25.0415 45.7366 25.5389 46.1101C26.0373 46.4834 26.1381 47.191 25.7636 47.6886C25.3905 48.1872 24.6832 48.2879 24.1857 47.9133C23.6883 47.5398 23.5876 46.8323 23.9609 46.3348ZM42.7317 43.6618C42.2333 43.2884 41.5271 43.389 41.1526 43.8866C40.7793 44.3841 40.8801 45.0917 41.3774 45.4652C41.8761 45.8396 42.5822 45.7391 42.9565 45.2403C43.3299 44.7428 43.2291 44.0353 42.7317 43.6618Z" fill="#6200EE"/>
<path d="M32.8167 45.0793L33.8754 44.9285C34.0902 44.8979 34.2897 45.0477 34.3203 45.2627L34.5171 46.6442C34.5475 46.858 34.3978 47.0575 34.1829 47.0881L33.1242 47.2389C32.9105 47.2693 32.7099 47.1197 32.6795 46.9059L32.4827 45.5244C32.4522 45.3094 32.603 45.1097 32.8167 45.0793Z" fill="#007A72"/>
<path d="M31.3394 52.9961L37.5068 52.1178L37.7671 53.946L31.5997 54.8243L31.3394 52.9961Z" fill="white"/>
<path d="M33.3948 52.7051L35.4506 52.4123L35.7109 54.2405L33.6551 54.5333L33.3948 52.7051Z" fill="#D2DCFD"/>
<path d="M31.244 50.9025C31.7689 50.8278 32.1344 50.3394 32.0597 49.8155C31.9851 49.2915 31.4979 48.9246 30.973 48.9993C30.4493 49.0739 30.0826 49.5624 30.1572 50.0864C30.2319 50.6103 30.7203 50.9771 31.244 50.9025ZM37.06 50.0743C37.5837 49.9997 37.9504 49.5112 37.8758 48.9872C37.8011 48.4633 37.3128 48.0965 36.789 48.1711C36.2652 48.2457 35.8986 48.7342 35.9733 49.2582C36.0479 49.7821 36.5363 50.1489 37.06 50.0743Z" fill="#6200EE"/>
<path opacity="0.45" d="M29.1791 51.69L26.4332 52.081C26.264 52.6856 26.1623 53.3071 26.1301 53.9341L30.3874 54.9977L32.0064 54.7672L31.8542 53.6989C31.6708 52.411 30.4666 51.5066 29.1791 51.69Z" fill="#93B2F4"/>
<path d="M27.8349 49.2441L25.7636 47.6886M25.7636 47.6886C26.1381 47.191 26.0373 46.4834 25.5389 46.1101C25.0415 45.7366 24.3342 45.8373 23.9609 46.3348C23.5876 46.8323 23.6883 47.5398 24.1857 47.9133C24.6832 48.2879 25.3905 48.1872 25.7636 47.6886ZM39.8239 47.5368L41.3775 45.4652M41.3775 45.4652C40.8801 45.0917 40.7793 44.3841 41.1526 43.8866C41.5271 43.389 42.2333 43.2884 42.7317 43.6618C43.2291 44.0353 43.3299 44.7428 42.9565 45.2403C42.5822 45.7391 41.8761 45.8396 41.3775 45.4652ZM37.767 53.9475L37.5066 52.1193L31.3392 52.9975L31.5996 54.8258M31.2438 50.9003C31.7687 50.8255 32.1341 50.3372 32.0595 49.8132C31.9849 49.2893 31.4976 48.9223 30.9728 48.9971C30.449 49.0717 30.0824 49.5602 30.157 50.0841C30.2316 50.6081 30.7201 50.9749 31.2438 50.9003ZM37.0598 50.0721C37.5835 49.9975 37.9501 49.509 37.8755 48.985C37.8009 48.461 37.3125 48.0943 36.7888 48.1689C36.265 48.2434 35.8984 48.732 35.973 49.2559C36.0476 49.7799 36.5361 50.1467 37.0598 50.0721Z" stroke="#290064" stroke-width="0.800808" stroke-miterlimit="10" stroke-linecap="round" stroke-linejoin="round"/>
<path d="M32.5633 46.0867C28.9148 47.0141 26.3215 50.2275 26.1301 53.935M30.3875 54.9987L43.161 53.1797C43.0875 52.6636 42.9851 52.1585 42.8101 51.6853C41.8579 49.1113 39.9038 47.0546 37.2637 46.2179C36.3386 45.9253 35.3705 45.7924 34.4008 45.8251" stroke="#290064" stroke-width="0.800808" stroke-miterlimit="10" stroke-linecap="round" stroke-linejoin="round"/>
<path d="M38.2486 56.1923L34.5118 56.7244L33.4951 58.3964L31.5801 56.1424L30.3705 58.8413L28.9275 57.5196L27.4256 57.7335" stroke="#007A72" stroke-width="0.800808" stroke-miterlimit="10" stroke-linecap="round" stroke-linejoin="round"/>
</g>
<path d="M25.2991 83.9427C27.0847 83.6885 28.6328 84.3906 29.376 85.9197L27.5332 86.1821C27.0708 85.5589 26.3564 85.2987 25.5094 85.4193C24.0786 85.623 23.2279 86.7835 23.4544 88.3745C23.6859 89.9999 24.8366 90.8637 26.3246 90.6518C27.5607 90.4757 28.2495 89.6536 28.3285 88.4862L25.5814 88.8774L25.407 87.6527L29.7336 87.0366L29.9325 88.433C29.8434 90.104 28.6017 91.799 26.4727 92.1021C24.1492 92.433 22.1469 91.0015 21.8062 88.6092C21.4655 86.217 22.987 84.272 25.2991 83.9427ZM33.5455 85.7931C32.7786 85.9023 32.2421 86.4808 32.2401 87.3687L35.2504 86.94C35.1085 86.1077 34.3696 85.6757 33.5455 85.7931ZM37.0024 88.5006C36.8253 89.717 35.9043 90.7941 34.3362 91.0174C32.4934 91.2798 30.9716 90.1885 30.688 88.1969C30.4028 86.1939 31.5267 84.7375 33.4039 84.4702C35.2352 84.2094 36.7063 85.2729 36.9752 87.1615C37.0046 87.3675 37.0225 87.5752 37.0175 87.7861L32.3818 88.4462C32.5956 89.3734 33.3116 89.8086 34.1128 89.6945C34.7996 89.5967 35.1284 89.1996 35.2741 88.7467L37.0024 88.5006ZM43.057 89.6704L42.5583 86.1679C42.4132 85.1492 41.7741 84.6797 40.9271 84.8003C40.0572 84.9242 39.5746 85.5534 39.7196 86.5721L40.2184 90.0746L38.6159 90.3028L37.713 83.9617L39.3154 83.7335L39.4279 84.5233C39.7633 83.9266 40.4012 83.4855 41.2138 83.3697C42.6904 83.1595 43.8803 83.971 44.1297 85.7222L44.6595 89.4422L43.057 89.6704ZM48.1773 83.7094C47.4104 83.8186 46.8738 84.3972 46.8718 85.285L49.8821 84.8564C49.7402 84.0241 49.0014 83.5921 48.1773 83.7094ZM51.6342 86.417C51.457 87.6334 50.536 88.7105 48.9679 88.9338C47.1251 89.1962 45.6034 88.1049 45.3198 86.1133C45.0345 84.1103 46.1584 82.6539 48.0356 82.3866C49.867 82.1258 51.338 83.1893 51.607 85.0779C51.6363 85.2839 51.6542 85.4916 51.6492 85.7025L47.0136 86.3626C47.2273 87.2898 47.9433 87.725 48.7445 87.6109C49.4313 87.5131 49.7601 87.1159 49.9058 86.6631L51.6342 86.417ZM54.4003 84.8319L54.8501 87.991L53.2477 88.2192L52.3447 81.8781L53.9471 81.6499L54.0873 82.6343C54.395 81.9248 54.9986 81.4067 55.8799 81.2812L56.1195 82.9638L55.696 83.0241C54.746 83.1594 54.2258 83.6072 54.4003 84.8319ZM57.0085 84.4255C56.7265 82.4453 57.8275 80.9922 59.4414 80.7624C60.4601 80.6173 61.2268 80.9986 61.6795 81.4714L61.5507 80.5671L63.1646 80.3373L64.0676 86.6784L62.4537 86.9082L62.3217 85.9811C62.0222 86.5843 61.3695 87.1677 60.3623 87.3112C58.7598 87.5394 57.2904 86.4056 57.0085 84.4255ZM62.0022 83.7377C61.8311 82.5358 60.9353 81.9861 60.0539 82.1116C59.1955 82.2338 58.4741 82.9905 58.6452 84.1924C58.8164 85.3942 59.7269 85.9652 60.5853 85.843C61.4667 85.7175 62.1733 84.9395 62.0022 83.7377ZM65.6041 84.451L65.1689 81.3949L64.4135 81.5024L64.226 80.1861L64.9815 80.0786L64.7582 78.5105L66.3721 78.2806L66.5954 79.8487L68.0147 79.6466L68.2021 80.9629L66.7828 81.165L67.2196 84.2326C67.28 84.6561 67.4777 84.8148 67.9814 84.7431L68.7253 84.6371L68.9177 85.9877L67.9104 86.1312C66.6971 86.304 65.8111 85.9046 65.6041 84.451ZM72.0642 80.3078C71.2973 80.4171 70.7607 80.9956 70.7587 81.8835L73.769 81.4548C73.6271 80.6225 72.8883 80.1905 72.0642 80.3078ZM75.5211 83.0154C75.344 84.2318 74.423 85.3089 72.8549 85.5322C71.012 85.7946 69.4903 84.7033 69.2067 82.7117C68.9214 80.7087 70.0454 79.2523 71.9225 78.985C73.7539 78.7242 75.225 79.7877 75.4939 81.6763C75.5232 81.8823 75.5411 82.09 75.5361 82.3009L70.9005 82.961C71.1143 83.8882 71.8302 84.3234 72.6314 84.2093C73.3182 84.1115 73.647 83.7144 73.7927 83.2615L75.5211 83.0154ZM80.6935 78.7871C80.9995 78.1479 81.6799 77.5955 82.6414 77.4586C84.2667 77.2272 85.7182 78.3168 86.0002 80.2969C86.2821 82.2771 85.1991 83.7743 83.5737 84.0058C82.5779 84.1476 81.8031 83.7908 81.3357 83.2968L81.4644 84.201L79.862 84.4292L78.6558 75.9592L80.2583 75.731L80.6935 78.7871ZM84.3634 80.53C84.1922 79.3282 83.2883 78.8029 82.4184 78.9268C81.5599 79.049 80.8418 79.8286 81.0129 81.0305C81.1841 82.2323 82.0913 82.7805 82.9497 82.6582C83.8196 82.5343 84.5345 81.7318 84.3634 80.53ZM90.0484 81.0284L91.0773 76.3624L92.7828 76.1196L90.1868 86.0186L88.4814 86.2615L89.405 82.9068L85.9838 77.0878L87.7809 76.8319L90.0484 81.0284ZM102.702 81.1767L101.959 79.7293L98.7771 80.1825L98.4674 81.7798L96.7848 82.0194L98.5184 73.6094L100.384 73.3438L104.396 80.9354L102.702 81.1767ZM101.342 78.5093L99.7096 75.3317L99.0295 78.8386L101.342 78.5093ZM105.47 80.7825L104.333 72.7932L105.935 72.565L107.073 80.5543L105.47 80.7825Z" fill="#11002A"/>
<path d="M29.7976 110.835L29.3561 107.735L25.8733 108.231L26.3148 111.331L25.422 111.458L24.4482 104.62L25.341 104.493L25.7685 107.495L29.2514 106.999L28.8238 103.997L29.7166 103.87L30.6904 110.708L29.7976 110.835ZM31.4861 107.832C31.2472 106.154 32.2022 104.917 33.6444 104.712C34.6451 104.569 35.4045 104.982 35.7981 105.496L35.6584 104.515L36.561 104.387L37.3266 109.763L36.424 109.892L36.2815 108.891C36.0401 109.516 35.4162 110.125 34.4253 110.266C32.9929 110.47 31.7236 109.5 31.4861 107.832ZM36.0398 107.194C35.8623 105.948 34.9124 105.322 33.9313 105.462C32.9502 105.602 32.2183 106.437 32.3985 107.702C32.5787 108.968 33.5189 109.595 34.4999 109.455C35.481 109.315 36.22 108.459 36.0398 107.194ZM37.432 104.263L38.3934 104.126L40.7194 108.439L41.739 103.649L42.6906 103.514L41.3469 109.191L40.3069 109.339L37.432 104.263ZM45.9501 103.73C45.0769 103.855 44.4334 104.537 44.4847 105.601L47.8793 105.117C47.7396 104.066 46.8723 103.599 45.9501 103.73ZM48.8962 106.424C48.7612 107.444 48.0068 108.332 46.6725 108.522C45.142 108.74 43.8601 107.822 43.617 106.115C43.3753 104.417 44.312 103.193 45.8818 102.969C47.4417 102.747 48.6185 103.701 48.8281 105.172C48.856 105.369 48.8686 105.527 48.8755 105.716L44.5783 106.328C44.8021 107.407 45.6525 107.897 46.565 107.767C47.3694 107.652 47.8209 107.168 47.9347 106.561L48.8962 106.424ZM53.2011 107.502L52.5402 102.862L51.8437 102.961L51.7389 102.225L52.4355 102.126L52.381 101.743C52.2105 100.547 52.7223 99.9231 54.0959 99.7275L54.202 100.473C53.3975 100.588 53.1746 100.92 53.2738 101.616L53.3282 101.999L54.4565 101.838L54.5613 102.574L53.433 102.735L54.0939 107.375L53.2011 107.502ZM60.2656 101.011L61.0312 106.387L60.1384 106.515L60.0252 105.72C59.7615 106.328 59.1488 106.736 58.4326 106.838C57.1965 107.014 56.1162 106.387 55.8969 104.846L55.4484 101.697L56.3314 101.571L56.7631 104.603C56.9182 105.692 57.5963 106.166 58.4989 106.037C59.4211 105.906 59.9582 105.249 59.7933 104.091L59.3728 101.138L60.2656 101.011ZM62.5386 106.173L61.5047 98.9127L62.3975 98.7856L63.4314 106.046L62.5386 106.173ZM64.953 105.829L63.9191 98.5689L64.8119 98.4418L65.8458 105.702L64.953 105.829ZM69.2652 102.462C69.0249 100.775 69.9603 99.5404 71.4908 99.3225C72.825 99.1325 73.796 99.6949 74.2314 100.784L73.2699 100.921C72.9913 100.3 72.393 99.9647 71.5983 100.078C70.6172 100.218 69.9904 101.018 70.1776 102.332C70.3677 103.667 71.1929 104.26 72.1739 104.12C72.9686 104.007 73.4439 103.549 73.5437 102.844L74.5052 102.707C74.3828 103.815 73.6158 104.685 72.2815 104.875C70.751 105.093 69.5083 104.169 69.2652 102.462ZM80.6598 100.84C80.9029 102.547 79.8302 103.8 78.2997 104.018C76.7791 104.235 75.4677 103.321 75.2246 101.614C74.9829 99.9163 76.0275 98.6764 77.5482 98.4599C79.0787 98.2419 80.4181 99.1423 80.6598 100.84ZM76.137 101.484C76.3312 102.847 77.2559 103.366 78.188 103.234C79.12 103.101 79.9416 102.333 79.7474 100.969C79.5546 99.6156 78.571 99.105 77.6488 99.2363C76.7069 99.3705 75.9442 100.13 76.137 101.484ZM86.1521 102.81L85.719 99.7688C85.5625 98.6699 84.8844 98.1959 83.9818 98.3245C83.0694 98.4544 82.5225 99.1129 82.6874 100.271L83.1107 103.243L82.2179 103.37L81.4523 97.994L82.3451 97.8669L82.454 98.6321C82.7276 98.0226 83.3318 97.6263 84.0578 97.5229C85.3038 97.3454 86.3644 97.9752 86.5838 99.5155L87.035 102.684L86.1521 102.81ZM88.4801 100.977L88.0288 97.8082L87.3322 97.9074L87.2275 97.1716L87.924 97.0724L87.7312 95.7185L88.624 95.5914L88.8168 96.9453L90.2198 96.7455L90.3246 97.4813L88.9216 97.6811L89.3729 100.85C89.4483 101.38 89.6711 101.538 90.2205 101.46L90.8778 101.366L90.9854 102.122L90.1809 102.236C89.2292 102.372 88.6338 102.056 88.4801 100.977ZM92.5436 98.917L92.9599 101.841L92.0671 101.968L91.3015 96.5914L92.1943 96.4643L92.3186 97.3375C92.5376 96.6957 93.0633 96.2405 93.9169 96.1189L94.0482 97.0411L93.8127 97.0747C92.9592 97.1962 92.3661 97.671 92.5436 98.917ZM100.445 98.0221C100.688 99.7292 99.6149 100.983 98.0844 101.201C96.5637 101.418 95.2524 100.503 95.0093 98.7961C94.7676 97.0988 95.8122 95.859 97.3329 95.6425C98.8634 95.4245 100.203 96.3248 100.445 98.0221ZM95.9217 98.6662C96.1159 100.03 97.0406 100.549 97.9727 100.416C98.9047 100.283 99.7263 99.5158 99.5321 98.1521C99.3393 96.7982 98.3557 96.2876 97.4335 96.4189C96.4916 96.553 95.7289 97.3123 95.9217 98.6662ZM102.003 100.553L100.969 93.2929L101.862 93.1658L102.895 100.426L102.003 100.553ZM108.082 99.6872L105.629 94.5511L106.542 94.4212L108.421 98.7582L109.112 94.0551L110.025 93.9252L111.973 98.2622L112.546 93.5662L113.429 93.4404L112.517 99.0557L111.595 99.187L109.692 95.1037L109.005 99.5559L108.082 99.6872ZM115.081 98.6906L114.047 91.4305L114.94 91.3034L115.318 93.9622C115.59 93.3428 116.214 92.9437 116.97 92.8361C118.166 92.6657 119.227 93.2954 119.446 94.8357L119.898 98.0046L119.015 98.1304L118.582 95.089C118.425 93.9902 117.747 93.5162 116.844 93.6447C115.932 93.7746 115.385 94.4331 115.55 95.5908L115.973 98.5635L115.081 98.6906ZM122.971 92.7622C122.098 92.8865 121.455 93.5688 121.506 94.6325L124.901 94.1491C124.761 93.0979 123.894 92.6309 122.971 92.7622ZM125.918 95.4557C125.783 96.4759 125.028 97.3641 123.694 97.5541C122.163 97.7721 120.881 96.8536 120.638 95.1465C120.397 93.4492 121.333 92.2247 122.903 92.0012C124.463 91.779 125.64 92.7325 125.849 94.2042C125.877 94.4004 125.89 94.5588 125.897 94.748L121.6 95.3599C121.823 96.4391 122.674 96.9286 123.586 96.7987C124.391 96.6841 124.842 96.1994 124.956 95.5926L125.918 95.4557ZM131.374 96.3703L130.941 93.329C130.785 92.2301 130.107 91.7561 129.204 91.8847C128.292 92.0146 127.745 92.6731 127.91 93.8307L128.333 96.8034L127.44 96.9306L126.674 91.5542L127.567 91.4271L127.676 92.1923C127.95 91.5828 128.554 91.1865 129.28 91.0831C130.526 90.9056 131.587 91.5354 131.806 93.0757L132.257 96.2446L131.374 96.3703ZM135.613 93.014C135.373 91.3265 136.308 90.0922 137.839 89.8742C139.173 89.6842 140.144 90.2467 140.58 91.3358L139.618 91.4727C139.339 90.8517 138.741 90.5165 137.946 90.6297C136.965 90.7694 136.339 91.5694 136.526 92.884C136.716 94.2183 137.541 94.8115 138.522 94.6718C139.317 94.5586 139.792 94.1005 139.892 93.3957L140.853 93.2587C140.731 94.3672 139.964 95.2372 138.63 95.4272C137.099 95.6452 135.856 94.721 135.613 93.014ZM142.767 91.765L143.183 94.6887L142.291 94.8158L141.525 89.4394L142.418 89.3123L142.542 90.1855C142.761 89.5437 143.287 89.0885 144.14 88.9669L144.272 89.8891L144.036 89.9227C143.183 90.0442 142.59 90.519 142.767 91.765ZM147.566 89.2599C146.693 89.3842 146.049 90.0664 146.1 91.1302L149.495 90.6468C149.355 89.5956 148.488 89.1285 147.566 89.2599ZM150.512 91.9534C150.377 92.9736 149.622 93.8618 148.288 94.0518C146.758 94.2698 145.476 93.3512 145.233 91.6441C144.991 89.9468 145.928 88.7224 147.497 88.4988C149.057 88.2767 150.234 89.2302 150.444 90.7019C150.472 90.8981 150.484 91.0564 150.491 91.2456L146.194 91.8576C146.418 92.9368 147.268 93.4263 148.181 93.2964C148.985 93.1818 149.437 92.6971 149.55 92.0903L150.512 91.9534ZM151.315 90.7679C151.076 89.0903 152.031 87.8532 153.473 87.6478C154.474 87.5053 155.234 87.9177 155.627 88.4322L155.487 87.4511L156.39 87.3226L157.156 92.699L156.253 92.8275L156.111 91.8268C155.869 92.4517 155.245 93.0611 154.254 93.2022C152.822 93.4062 151.553 92.4358 151.315 90.7679ZM155.869 90.1295C155.691 88.8835 154.741 88.258 153.76 88.3977C152.779 88.5375 152.047 89.3724 152.228 90.638C152.408 91.9036 153.348 92.5305 154.329 92.3908C155.31 92.2511 156.049 91.3951 155.869 90.1295ZM158.651 90.9845L158.2 87.8156L157.503 87.9148L157.398 87.179L158.095 87.0798L157.902 85.7259L158.795 85.5988L158.988 86.9527L160.391 86.7529L160.496 87.4887L159.093 87.6885L159.544 90.8574C159.619 91.3872 159.842 91.5457 160.391 91.4674L161.049 91.3738L161.156 92.1292L160.352 92.2438C159.4 92.3793 158.805 92.0637 158.651 90.9845ZM162.238 91.9752L161.472 86.5988L162.365 86.4717L163.131 91.8481L162.238 91.9752ZM161.809 85.66C161.466 85.7089 161.163 85.4817 161.114 85.1383C161.065 84.795 161.293 84.4923 161.636 84.4434C161.96 84.3973 162.262 84.6245 162.311 84.9679C162.36 85.3113 162.133 85.6139 161.809 85.66ZM168.587 91.0711L168.154 88.0298C167.997 86.9309 167.319 86.4569 166.416 86.5855C165.504 86.7154 164.957 87.3739 165.122 88.5315L165.545 91.5042L164.652 91.6314L163.887 86.255L164.78 86.1279L164.889 86.8931C165.162 86.2836 165.766 85.8873 166.492 85.7839C167.738 85.6064 168.799 86.2362 169.018 87.7765L169.47 90.9454L168.587 91.0711ZM170.209 88.0774C169.97 86.3998 170.925 85.1627 172.367 84.9573C173.348 84.8176 174.124 85.2075 174.521 85.7417L174.381 84.7606L175.284 84.6321L176.066 90.1262C176.277 91.6076 175.436 92.7985 173.856 93.0234C172.443 93.2246 171.331 92.6523 170.991 91.5296L171.874 91.4038C172.162 92.0234 172.863 92.3741 173.746 92.2484C174.697 92.1128 175.327 91.4026 175.163 90.2547L175.003 89.1264C174.761 89.7514 174.139 90.3706 173.158 90.5103C171.716 90.7157 170.446 89.7453 170.209 88.0774ZM174.762 87.439C174.585 86.193 173.635 85.5675 172.654 85.7072C171.673 85.8469 170.941 86.6819 171.121 87.9475C171.301 89.2131 172.242 89.84 173.223 89.7003C174.204 89.5605 174.943 88.7046 174.762 87.439ZM29.432 124.998L30.4796 120.404L31.4018 120.273L29.2903 128.641L28.3681 128.773L29.0588 126.032L26.1334 121.023L27.1243 120.882L29.432 124.998ZM37.7824 122.097C38.0255 123.804 36.9528 125.058 35.4223 125.276C33.9016 125.492 32.5902 124.578 32.3471 122.871C32.1054 121.173 33.1501 119.934 34.6708 119.717C36.2013 119.499 37.5407 120.4 37.7824 122.097ZM33.2595 122.741C33.4537 124.105 34.3785 124.624 35.3105 124.491C36.2425 124.358 37.0641 123.59 36.8699 122.227C36.6771 120.873 35.6935 120.362 34.7713 120.494C33.8295 120.628 33.0667 121.387 33.2595 122.741ZM43.3429 118.572L44.1085 123.949L43.2157 124.076L43.1026 123.281C42.8388 123.889 42.2262 124.297 41.51 124.399C40.2738 124.575 39.1936 123.948 38.9742 122.408L38.5258 119.258L39.4087 119.132L39.8404 122.164C39.9955 123.253 40.6736 123.727 41.5762 123.599C42.4985 123.467 43.0355 122.81 42.8706 121.652L42.4501 118.699L43.3429 118.572ZM46.0924 120.683L46.5087 123.607L45.616 123.734L44.8503 118.358L45.7431 118.23L45.8675 119.104C46.0864 118.462 46.6121 118.007 47.4657 117.885L47.597 118.807L47.3616 118.841C46.508 118.962 45.915 119.437 46.0924 120.683ZM55.5488 120.828C55.6746 121.711 54.9945 122.489 53.8074 122.658C52.5516 122.836 51.5708 122.275 51.3722 121.303L52.2944 121.171C52.4175 121.684 52.9345 122.011 53.69 121.904C54.3964 121.803 54.7385 121.394 54.6756 120.952C54.5052 119.755 51.4257 120.905 51.1406 118.903C51.0233 118.079 51.7019 117.292 52.8989 117.121C54.086 116.952 54.9617 117.478 55.17 118.52L54.2772 118.647C54.1612 118.113 53.6932 117.779 52.977 117.881C52.3197 117.975 51.972 118.344 52.0334 118.776C52.2151 120.052 55.2357 118.911 55.5488 120.828ZM61.0198 116.055L61.7854 121.431L60.8926 121.559L60.7794 120.764C60.5157 121.372 59.9031 121.78 59.1869 121.881C57.9507 122.058 56.8704 121.431 56.6511 119.89L56.2026 116.741L57.0856 116.615L57.5173 119.647C57.6724 120.736 58.3505 121.21 59.2531 121.081C60.1753 120.95 60.7124 120.293 60.5475 119.135L60.127 116.182L61.0198 116.055ZM63.7693 118.166L64.1856 121.09L63.2928 121.217L62.5272 115.84L63.42 115.713L63.5443 116.586C63.7633 115.945 64.289 115.489 65.1426 115.368L65.2739 116.29L65.0384 116.324C64.1849 116.445 63.5918 116.92 63.7693 118.166ZM65.5494 115.41L66.5109 115.273L68.8368 119.586L69.8564 114.797L70.8081 114.661L69.4643 120.338L68.4244 120.486L65.5494 115.41ZM74.0676 114.878C73.1944 115.002 72.5508 115.684 72.6022 116.748L75.9968 116.265C75.8571 115.213 74.9898 114.746 74.0676 114.878ZM77.0136 117.571C76.8787 118.591 76.1243 119.48 74.79 119.67C73.2595 119.888 71.9775 118.969 71.7344 117.262C71.4927 115.565 72.4295 114.34 73.9992 114.117C75.5592 113.894 76.736 114.848 76.9455 116.32C76.9735 116.516 76.986 116.674 76.9929 116.863L72.6958 117.475C72.9195 118.555 73.77 119.044 74.6824 118.914C75.4869 118.8 75.9384 118.315 76.0522 117.708L77.0136 117.571ZM80.4315 117.735L81.479 113.142L82.4013 113.01L80.2897 121.379L79.3675 121.51L80.0583 118.769L77.1328 113.76L78.1237 113.619L80.4315 117.735Z" fill="#11002A"/>
<defs>
<linearGradient id="paint0_linear_1_17149" x1="-11.0616" y1="12.5975" x2="48.6686" y2="72.0725" gradientUnits="userSpaceOnUse">
<stop stop-color="#6100DD"/>
<stop offset="1" stop-color="#6100DD" stop-opacity="0"/>
</linearGradient>
<clipPath id="clip0_1_17149">
<rect width="20.4206" height="20.4206" fill="white" transform="translate(22.6143 42.8379) rotate(-8.10464)"/>
</clipPath>
</defs>
</svg>
