<svg width="210" height="245" viewBox="0 0 210 245" fill="none" xmlns="http://www.w3.org/2000/svg">
<rect x="-148.917" y="45.5496" width="333.869" height="200.57" rx="13.364" transform="rotate(-7.65078 -148.917 45.5496)" fill="white"/>
<rect x="-148.917" y="45.5496" width="333.869" height="200.57" rx="13.364" transform="rotate(-7.65078 -148.917 45.5496)" stroke="#D8DEE6" stroke-width="0.862196"/>
<path d="M-107.453 156.565C-108.395 156.691 -109.268 156.644 -110.073 156.424C-110.864 156.202 -111.52 155.817 -112.04 155.27C-112.561 154.722 -112.883 154.037 -113.006 153.213L-110.104 152.823C-109.99 153.372 -109.738 153.785 -109.346 154.061C-108.942 154.335 -108.43 154.43 -107.81 154.347C-107.178 154.262 -106.701 154.047 -106.38 153.702C-106.06 153.343 -105.934 152.919 -105.999 152.429C-106.053 152.029 -106.22 151.716 -106.5 151.491C-106.779 151.266 -107.116 151.108 -107.509 151.016C-107.891 150.91 -108.417 150.81 -109.086 150.716C-109.998 150.576 -110.748 150.42 -111.336 150.25C-111.912 150.064 -112.434 149.747 -112.902 149.298C-113.358 148.834 -113.644 148.176 -113.758 147.324C-113.865 146.524 -113.759 145.801 -113.439 145.154C-113.119 144.507 -112.618 143.98 -111.937 143.573C-111.258 143.153 -110.454 142.881 -109.525 142.756C-108.132 142.569 -106.957 142.759 -106.001 143.327C-105.033 143.88 -104.423 144.757 -104.17 145.958L-107.15 146.358C-107.238 145.897 -107.489 145.543 -107.903 145.297C-108.306 145.036 -108.811 144.946 -109.417 145.027C-109.946 145.098 -110.353 145.291 -110.64 145.605C-110.913 145.918 -111.015 146.332 -110.945 146.848C-110.897 147.209 -110.74 147.497 -110.475 147.711C-110.199 147.91 -109.876 148.064 -109.507 148.172C-109.126 148.265 -108.601 148.365 -107.93 148.472C-107.018 148.612 -106.267 148.774 -105.678 148.958C-105.088 149.141 -104.559 149.464 -104.09 149.926C-103.62 150.389 -103.329 151.039 -103.217 151.878C-103.12 152.6 -103.217 153.296 -103.508 153.966C-103.799 154.635 -104.28 155.206 -104.952 155.677C-105.626 156.135 -106.46 156.431 -107.453 156.565ZM-98.3296 146.552L-97.6329 151.738C-97.5844 152.1 -97.465 152.353 -97.2747 152.498C-97.0733 152.629 -96.7662 152.666 -96.3533 152.611L-95.0954 152.442L-94.7887 154.725L-96.4917 154.954C-98.7752 155.261 -100.066 154.305 -100.364 152.086L-101.058 146.919L-102.335 147.09L-102.634 144.865L-101.357 144.693L-101.713 142.042L-98.9847 141.675L-98.6285 144.327L-96.2289 144.004L-95.9299 146.23L-98.3296 146.552ZM-94.262 149.158C-94.4076 148.074 -94.3238 147.084 -94.0107 146.189C-93.6847 145.291 -93.1843 144.567 -92.5096 144.017C-91.822 143.465 -91.0202 143.127 -90.1042 143.004C-89.3043 142.897 -88.5859 142.964 -87.9491 143.207C-87.2995 143.448 -86.7611 143.79 -86.334 144.231L-86.5393 142.703L-83.8107 142.336L-82.3705 153.057L-85.0992 153.424L-85.3097 151.856C-85.5905 152.406 -86.018 152.89 -86.5922 153.309C-87.1552 153.713 -87.8367 153.969 -88.6366 154.076C-89.5397 154.198 -90.3965 154.076 -91.2072 153.712C-92.005 153.347 -92.6795 152.774 -93.2308 151.994C-93.771 151.2 -94.1147 150.255 -94.262 149.158ZM-85.8192 148.063C-85.9076 147.405 -86.112 146.861 -86.4325 146.432C-86.7546 145.989 -87.1515 145.674 -87.623 145.488C-88.0964 145.289 -88.5846 145.223 -89.0877 145.291C-89.5909 145.359 -90.0389 145.543 -90.4317 145.846C-90.8245 146.148 -91.1243 146.556 -91.3311 147.07C-91.5268 147.569 -91.5813 148.141 -91.4946 148.786C-91.408 149.431 -91.2027 149.982 -90.8788 150.437C-90.5438 150.878 -90.146 151.199 -89.6856 151.4C-89.2123 151.599 -88.7305 151.666 -88.2403 151.6C-87.7371 151.532 -87.2827 151.346 -86.877 151.042C-86.473 150.725 -86.1732 150.317 -85.9775 149.818C-85.7836 149.306 -85.7309 148.721 -85.8192 148.063ZM-78.2317 143.281C-77.9596 142.667 -77.5679 142.161 -77.0564 141.764C-76.5321 141.365 -75.9087 141.117 -75.1862 141.02L-74.8041 143.865L-75.5201 143.961C-76.3716 144.075 -76.9898 144.362 -77.3747 144.821C-77.7467 145.278 -77.866 146.003 -77.7326 146.997L-77.0151 152.338L-79.7244 152.702L-81.1646 141.981L-78.4553 141.617L-78.2317 143.281ZM-69.8872 142.731L-69.1905 147.918C-69.142 148.279 -69.0226 148.532 -68.8324 148.677C-68.6309 148.808 -68.3238 148.846 -67.911 148.79L-66.6531 148.621L-66.3463 150.905L-68.0493 151.133C-70.3329 151.44 -71.6237 150.484 -71.9218 148.265L-72.6159 143.098L-73.8931 143.27L-74.1921 141.044L-72.9148 140.872L-73.271 138.221L-70.5423 137.855L-70.1862 140.506L-67.7865 140.184L-67.4875 142.409L-69.8872 142.731ZM-56.0122 140.868L-57.8893 141.12L-56.7481 149.615L-59.4961 149.984L-60.6373 141.489L-61.8565 141.653L-62.1555 139.427L-60.9363 139.263L-61.0091 138.722C-61.1858 137.406 -60.9417 136.388 -60.2766 135.668C-59.6115 134.948 -58.5216 134.506 -57.0069 134.342L-56.7002 136.626C-57.3599 136.701 -57.8032 136.872 -58.03 137.139C-58.2568 137.406 -58.3295 137.843 -58.2481 138.449L-58.1883 138.894L-56.3111 138.642L-56.0122 140.868ZM-51.6225 139.707C-51.3504 139.092 -50.9587 138.586 -50.4472 138.189C-49.9229 137.791 -49.2995 137.543 -48.577 137.446L-48.1949 140.29L-48.9109 140.387C-49.7624 140.501 -50.3806 140.788 -50.7655 141.246C-51.1375 141.704 -51.2568 142.429 -51.1234 143.422L-50.4059 148.763L-53.1152 149.127L-54.5554 138.406L-51.8461 138.042L-51.6225 139.707ZM-40.5072 147.611C-41.5393 147.75 -42.4985 147.649 -43.3849 147.308C-44.2729 146.954 -45.012 146.39 -45.602 145.616C-46.1791 144.84 -46.5413 143.903 -46.6886 142.807C-46.8359 141.71 -46.7272 140.71 -46.3625 139.808C-45.9849 138.903 -45.4071 138.169 -44.6292 137.605C-43.853 137.028 -42.9488 136.67 -41.9167 136.531C-40.8846 136.393 -39.918 136.499 -39.0171 136.851C-38.1178 137.19 -37.3732 137.746 -36.7832 138.521C-36.1803 139.294 -35.8052 140.228 -35.6579 141.325C-35.5106 142.422 -35.6322 143.423 -36.0227 144.329C-36.4003 145.234 -36.9836 145.975 -37.7727 146.554C-38.5507 147.118 -39.4621 147.471 -40.5072 147.611ZM-40.8243 145.25C-40.3341 145.184 -39.8916 145.007 -39.4971 144.717C-39.0914 144.413 -38.7916 144.005 -38.5977 143.493C-38.4038 142.981 -38.3527 142.383 -38.4446 141.699C-38.5815 140.68 -38.9573 139.936 -39.5719 139.467C-40.1754 138.983 -40.8642 138.793 -41.6383 138.897C-42.4124 139.001 -43.0266 139.366 -43.4811 139.992C-43.9243 140.603 -44.0775 141.418 -43.9406 142.438C-43.8037 143.457 -43.4464 144.21 -42.8687 144.697C-42.2799 145.17 -41.5984 145.354 -40.8243 145.25ZM-21.0971 133.754C-19.7812 133.577 -18.6686 133.842 -17.7596 134.547C-16.8393 135.238 -16.2822 136.306 -16.0881 137.751L-15.2432 144.04L-17.9525 144.404L-18.748 138.482C-18.8606 137.644 -19.1593 137.034 -19.644 136.652C-20.1304 136.258 -20.7412 136.11 -21.4766 136.209C-22.212 136.307 -22.7687 136.612 -23.1467 137.123C-23.5135 137.618 -23.6406 138.286 -23.528 139.124L-22.7325 145.046L-25.4418 145.41L-26.2373 139.488C-26.3499 138.65 -26.6486 138.04 -27.1332 137.658C-27.6196 137.264 -28.2305 137.116 -28.9659 137.215C-29.7142 137.315 -30.2773 137.621 -30.6553 138.131C-31.0221 138.627 -31.1492 139.294 -31.0366 140.133L-30.2411 146.055L-32.9504 146.419L-34.3906 135.697L-31.6813 135.334L-31.5071 136.63C-31.2194 136.132 -30.822 135.717 -30.3148 135.386C-29.7947 135.054 -29.2057 134.843 -28.5477 134.755C-27.7091 134.642 -26.9365 134.722 -26.23 134.995C-25.5253 135.255 -24.9481 135.69 -24.4985 136.299C-24.2333 135.633 -23.7969 135.069 -23.1892 134.607C-22.5685 134.142 -21.8712 133.858 -21.0971 133.754ZM-3.93492 142.698C-4.81222 142.816 -5.62 142.767 -6.35827 142.551C-7.09828 142.322 -7.7111 141.964 -8.19673 141.478C-8.66946 140.99 -8.96937 140.419 -9.09646 139.767L-6.36781 139.4C-6.26075 139.806 -6.01485 140.121 -5.63012 140.345C-5.23248 140.567 -4.76919 140.643 -4.24023 140.572C-3.72417 140.503 -3.33809 140.346 -3.08199 140.101C-2.81298 139.855 -2.70014 139.571 -2.74347 139.248C-2.79026 138.9 -3.00554 138.666 -3.38931 138.547C-3.76192 138.413 -4.34912 138.295 -5.15094 138.192C-5.97682 138.106 -6.66166 137.995 -7.20545 137.858C-7.73633 137.719 -8.21744 137.462 -8.64877 137.086C-9.0672 136.709 -9.32494 136.159 -9.422 135.437C-9.50172 134.843 -9.40679 134.279 -9.1372 133.743C-8.85472 133.206 -8.41646 132.753 -7.82242 132.385C-7.21547 132.014 -6.4798 131.771 -5.61541 131.655C-4.33816 131.483 -3.27562 131.669 -2.42779 132.212C-1.58168 132.742 -1.04714 133.543 -0.824152 134.617L-3.41734 134.965C-3.51324 134.544 -3.73891 134.233 -4.09438 134.031C-4.43867 133.815 -4.8753 133.742 -5.40426 133.813C-5.89451 133.879 -6.26298 134.021 -6.50964 134.238C-6.74341 134.453 -6.83863 134.722 -6.7953 135.044C-6.74678 135.406 -6.5289 135.659 -6.14166 135.804C-5.75616 135.936 -5.16981 136.047 -4.38263 136.139C-3.58255 136.228 -2.91707 136.342 -2.38618 136.481C-1.8553 136.62 -1.37978 136.885 -0.959611 137.275C-0.528279 137.65 -0.258503 138.192 -0.150283 138.9C-0.0670964 139.519 -0.166744 140.097 -0.449226 140.634C-0.718808 141.169 -1.15707 141.622 -1.76401 141.993C-2.35979 142.349 -3.08343 142.584 -3.93492 142.698ZM1.06767 136.392C0.918624 135.282 1.01442 134.284 1.35505 133.398C1.69396 132.499 2.23302 131.769 2.97225 131.21C3.70975 130.639 4.59456 130.283 5.62667 130.145C6.95552 129.966 8.0972 130.154 9.05172 130.709C10.0174 131.249 10.7292 132.099 11.1871 133.259L8.26493 133.652C8.04772 133.208 7.73472 132.882 7.32591 132.675C6.92828 132.452 6.45853 132.377 5.91667 132.45C5.14259 132.554 4.5679 132.92 4.1926 133.549C3.81557 134.164 3.69638 134.988 3.83502 136.02C3.97194 137.039 4.30429 137.802 4.8321 138.309C5.35817 138.803 6.00825 138.998 6.78234 138.894C7.87896 138.747 8.52913 138.161 8.73286 137.135L11.655 136.743C11.5143 137.944 11.0512 138.945 10.2657 139.746C9.48028 140.548 8.42958 141.037 7.11364 141.214C6.08152 141.353 5.13519 141.25 4.27465 140.906C3.41237 140.549 2.7 139.988 2.13753 139.223C1.57333 138.445 1.21671 137.501 1.06767 136.392ZM15.6187 130.674C15.8907 130.06 16.2825 129.554 16.7939 129.157C17.3183 128.758 17.9417 128.51 18.6642 128.413L19.0463 131.258L18.3303 131.354C17.4788 131.468 16.8606 131.755 16.4756 132.214C16.1036 132.671 15.9843 133.396 16.1178 134.39L16.8353 139.731L14.126 140.095L12.6858 129.374L15.3951 129.01L15.6187 130.674ZM20.528 133.738C20.3824 132.654 20.4662 131.665 20.7793 130.769C21.1053 129.871 21.6057 129.147 22.2804 128.597C22.968 128.045 23.7698 127.707 24.6858 127.584C25.4857 127.477 26.2041 127.545 26.8408 127.787C27.4905 128.029 28.0289 128.37 28.456 128.812L28.2507 127.283L30.9793 126.916L32.4195 137.637L29.6908 138.004L29.4803 136.436C29.1995 136.986 28.772 137.471 28.1978 137.889C27.6348 138.293 26.9533 138.549 26.1534 138.656C25.2503 138.778 24.3935 138.656 23.5828 138.293C22.785 137.927 22.1105 137.354 21.5592 136.575C21.019 135.78 20.6753 134.835 20.528 133.738ZM28.9708 132.643C28.8824 131.985 28.678 131.442 28.3575 131.012C28.0354 130.569 27.6385 130.255 27.167 130.068C26.6936 129.869 26.2054 129.804 25.7023 129.871C25.1991 129.939 24.7511 130.124 24.3583 130.426C23.9655 130.728 23.6657 131.136 23.4589 131.65C23.2632 132.149 23.2087 132.721 23.2954 133.366C23.382 134.011 23.5873 134.562 23.9112 135.017C24.2462 135.458 24.644 135.779 25.1044 135.98C25.5777 136.179 26.0595 136.246 26.5497 136.18C27.0529 136.112 27.5073 135.927 27.913 135.622C28.317 135.306 28.6168 134.897 28.8125 134.398C29.0064 133.886 29.0591 133.301 28.9708 132.643ZM37.0788 128.363L37.7755 133.549C37.824 133.91 37.9434 134.163 38.1336 134.309C38.335 134.439 38.6422 134.477 39.055 134.421L40.3129 134.252L40.6197 136.536L38.9167 136.765C36.6331 137.071 35.3423 136.115 35.0442 133.896L34.3501 128.729L33.0729 128.901L32.7739 126.675L34.0512 126.504L33.695 123.852L36.4237 123.486L36.7798 126.137L39.1795 125.815L39.4784 128.04L37.0788 128.363ZM41.1516 131.007C41.0025 129.898 41.0983 128.9 41.439 128.013C41.7779 127.114 42.3169 126.385 43.0562 125.826C43.7936 125.254 44.6785 124.899 45.7106 124.76C47.0394 124.582 48.1811 124.77 49.1356 125.325C50.1013 125.865 50.8131 126.715 51.271 127.875L48.3488 128.267C48.1316 127.824 47.8186 127.498 47.4098 127.29C47.0122 127.068 46.5424 126.993 46.0006 127.066C45.2265 127.17 44.6518 127.536 44.2765 128.164C43.8995 128.78 43.7803 129.603 43.9189 130.635C44.0558 131.655 44.3882 132.418 44.916 132.925C45.4421 133.419 46.0921 133.614 46.8662 133.51C47.9629 133.363 48.613 132.776 48.8168 131.751L51.7389 131.358C51.5982 132.559 51.1351 133.56 50.3496 134.362C49.5642 135.164 48.5135 135.653 47.1975 135.83C46.1654 135.968 45.2191 135.865 44.3585 135.521C43.4963 135.164 42.7839 134.603 42.2214 133.838C41.6572 133.06 41.3006 132.117 41.1516 131.007ZM58.7868 123.023C59.5995 122.914 60.3463 122.998 61.027 123.274C61.706 123.537 62.2664 123.994 62.7083 124.644C63.1614 125.279 63.4529 126.081 63.5829 127.048L64.4278 133.338L61.7185 133.702L60.923 127.78C60.8086 126.928 60.5082 126.305 60.0218 125.911C59.5337 125.504 58.9219 125.35 58.1866 125.448C57.4383 125.549 56.876 125.861 56.4997 126.384C56.1347 126.893 56.0093 127.573 56.1237 128.425L56.9192 134.346L54.2099 134.71L52.2862 120.39L54.9955 120.026L55.6584 124.961C55.9443 124.449 56.3602 124.026 56.9061 123.69C57.4503 123.341 58.0772 123.119 58.7868 123.023Z" fill="#11002A"/>
<path d="M-100.459 176.91L-98.9061 188.472L-100.416 188.674L-101.12 183.433L-107.008 184.224L-106.304 189.465L-107.814 189.668L-109.367 178.107L-107.857 177.904L-107.175 182.98L-101.287 182.189L-101.969 177.113L-100.459 176.91ZM-97.5077 183.623C-97.6324 182.694 -97.5536 181.856 -97.2712 181.109C-96.9903 180.351 -96.5496 179.734 -95.9492 179.259C-95.3377 178.783 -94.6283 178.491 -93.821 178.383C-93.0248 178.276 -92.3107 178.354 -91.6785 178.618C-91.0464 178.882 -90.5516 179.255 -90.1943 179.736L-90.4171 178.077L-88.8911 177.872L-87.67 186.962L-89.196 187.167L-89.4233 185.475C-89.6506 186.046 -90.039 186.549 -90.5887 186.983C-91.1287 187.404 -91.7913 187.668 -92.5764 187.773C-93.3837 187.882 -94.1403 187.781 -94.8462 187.47C-95.5521 187.16 -96.1414 186.67 -96.6139 186.002C-97.0865 185.334 -97.3844 184.541 -97.5077 183.623ZM-89.8088 182.606C-89.9009 181.92 -90.1194 181.341 -90.4641 180.87C-90.8089 180.398 -91.2369 180.062 -91.7481 179.86C-92.2497 179.646 -92.7824 179.577 -93.3464 179.653C-93.9104 179.729 -94.4068 179.93 -94.8356 180.258C-95.2644 180.586 -95.5829 181.023 -95.791 181.569C-95.9991 182.114 -96.0571 182.73 -95.965 183.416C-95.8714 184.112 -95.6515 184.702 -95.3052 185.185C-94.9604 185.656 -94.5372 185.999 -94.0357 186.213C-93.5356 186.416 -93.0035 186.48 -92.4395 186.404C-91.8756 186.328 -91.3792 186.126 -90.9504 185.799C-90.512 185.458 -90.1887 185.015 -89.9806 184.469C-89.774 183.913 -89.7167 183.291 -89.8088 182.606ZM-81.9224 184.772L-80.1365 176.696L-78.5275 176.48L-80.8727 186.049L-82.631 186.285L-87.4184 177.674L-85.7928 177.456L-81.9224 184.772ZM-68.1846 179.363C-68.146 179.651 -68.1217 179.957 -68.1118 180.282L-75.3771 181.258C-75.2015 182.146 -74.8031 182.808 -74.1818 183.242C-73.551 183.664 -72.8375 183.822 -72.0413 183.715C-71.3889 183.627 -70.8671 183.405 -70.4759 183.048C-70.0751 182.679 -69.8205 182.229 -69.7119 181.696L-68.0863 181.478C-68.2122 182.384 -68.603 183.163 -69.2586 183.814C-69.9156 184.453 -70.786 184.846 -71.8697 184.992C-72.7323 185.108 -73.5324 185.018 -74.27 184.723C-74.9965 184.427 -75.6009 183.951 -76.083 183.295C-76.5666 182.628 -76.8715 181.825 -76.9978 180.885C-77.124 179.945 -77.0467 179.096 -76.7658 178.337C-76.4849 177.579 -76.0324 176.967 -75.4083 176.5C-74.7747 176.021 -74.0156 175.722 -73.1309 175.603C-72.2683 175.487 -71.4801 175.573 -70.7661 175.86C-70.052 176.147 -69.4735 176.598 -69.0306 177.214C-68.578 177.817 -68.296 178.534 -68.1846 179.363ZM-69.7861 179.257C-69.8634 178.682 -70.0567 178.207 -70.366 177.832C-70.6768 177.446 -71.0674 177.178 -71.538 177.027C-71.999 176.864 -72.4949 176.818 -73.0257 176.889C-73.7887 176.992 -74.4085 177.323 -74.885 177.882C-75.3504 178.44 -75.5639 179.155 -75.5254 180.028L-69.7861 179.257ZM-58.4675 175.052L-60.375 175.308L-59.3211 183.154L-60.8306 183.357L-61.8845 175.511L-63.0622 175.669L-63.2293 174.425L-62.0516 174.267L-62.1385 173.62C-62.2752 172.603 -62.1148 171.827 -61.6575 171.293C-61.1906 170.746 -60.3765 170.394 -59.2154 170.238L-59.0461 171.499C-59.7096 171.588 -60.1617 171.784 -60.4025 172.087C-60.6338 172.377 -60.7093 172.82 -60.629 173.417L-60.5421 174.064L-58.6346 173.808L-58.4675 175.052ZM-48.8131 172.489L-47.592 181.579L-49.1015 181.781L-49.282 180.438C-49.5071 180.941 -49.8617 181.36 -50.3458 181.695C-50.8203 182.018 -51.3672 182.221 -51.9865 182.304C-52.6942 182.399 -53.3494 182.341 -53.952 182.129C-54.556 181.906 -55.0633 181.524 -55.4738 180.982C-55.8732 180.439 -56.1294 179.748 -56.2423 178.907L-56.9576 173.583L-55.4647 173.382L-54.7762 178.508C-54.6558 179.403 -54.3363 180.064 -53.8175 180.49C-53.3003 180.904 -52.6491 181.059 -51.8639 180.953C-51.0567 180.845 -50.4542 180.511 -50.0566 179.951C-49.659 179.391 -49.5241 178.635 -49.6518 177.684L-50.3225 172.691L-48.8131 172.489ZM-45.1828 168.759L-43.5339 181.033L-45.0433 181.236L-46.6922 168.961L-45.1828 168.759ZM-41.1007 168.21L-39.4518 180.485L-40.9612 180.688L-42.6101 168.413L-41.1007 168.21ZM-33.6336 175.06C-33.7599 174.12 -33.6818 173.276 -33.3994 172.529C-33.1185 171.771 -32.6723 171.153 -32.0608 170.677C-31.4382 170.2 -30.6957 169.903 -29.8331 169.787C-28.7162 169.637 -27.762 169.785 -26.9704 170.23C-26.1678 170.674 -25.5857 171.361 -25.2242 172.292L-26.8498 172.51C-27.0789 171.978 -27.4417 171.582 -27.9382 171.322C-28.4236 171.061 -28.998 170.975 -29.6615 171.064C-30.5241 171.18 -31.1807 171.572 -31.6312 172.241C-32.0833 172.898 -32.2366 173.769 -32.091 174.852C-31.9439 175.947 -31.5649 176.758 -30.9539 177.283C-30.3428 177.809 -29.6061 178.014 -28.7435 177.898C-28.08 177.809 -27.5479 177.58 -27.1471 177.211C-26.7464 176.842 -26.5017 176.359 -26.4131 175.762L-24.7875 175.543C-24.906 176.505 -25.2923 177.317 -25.9464 177.979C-26.602 178.63 -27.4772 179.029 -28.5719 179.176C-29.4345 179.291 -30.229 179.201 -30.9556 178.905C-31.6711 178.607 -32.2644 178.129 -32.7354 177.472C-33.2065 176.815 -33.5059 176.011 -33.6336 175.06ZM-18.3968 177.809C-19.2483 177.923 -20.0483 177.834 -20.797 177.54C-21.5346 177.245 -22.15 176.771 -22.6432 176.116C-23.1268 175.45 -23.4317 174.646 -23.558 173.706C-23.6828 172.777 -23.5936 171.932 -23.2906 171.171C-22.978 170.397 -22.4986 169.776 -21.8524 169.306C-21.2078 168.825 -20.4541 168.527 -19.5916 168.411C-18.729 168.295 -17.9234 168.384 -17.1748 168.678C-16.4276 168.96 -15.8074 169.428 -15.3142 170.083C-14.81 170.735 -14.4947 171.532 -14.3685 172.472C-14.2422 173.412 -14.3409 174.269 -14.6646 175.045C-14.9787 175.807 -15.4636 176.43 -16.1193 176.912C-16.7751 177.394 -17.5342 177.693 -18.3968 177.809ZM-18.575 176.482C-18.0332 176.409 -17.5416 176.213 -17.1002 175.895C-16.6589 175.577 -16.3286 175.144 -16.1094 174.597C-15.8792 174.048 -15.8131 173.409 -15.9111 172.679C-16.0092 171.949 -16.2361 171.349 -16.592 170.879C-16.9478 170.409 -17.3743 170.084 -17.8714 169.903C-18.37 169.711 -18.8903 169.651 -19.4321 169.724C-19.9851 169.798 -20.4767 169.994 -20.907 170.31C-21.3277 170.615 -21.6421 171.04 -21.8502 171.585C-22.0583 172.131 -22.1134 172.769 -22.0153 173.499C-21.9158 174.24 -21.6992 174.847 -21.3655 175.32C-21.0207 175.791 -20.6045 176.124 -20.1169 176.317C-19.6309 176.5 -19.1169 176.555 -18.575 176.482ZM-8.58551 166.916C-7.47967 166.767 -6.53864 166.984 -5.76241 167.567C-4.98766 168.138 -4.51561 169.054 -4.34627 170.315L-3.62655 175.673L-5.11943 175.873L-5.81018 170.731C-5.93199 169.824 -6.25153 169.164 -6.7688 168.749C-7.28755 168.323 -7.9395 168.163 -8.72465 168.269C-9.52085 168.376 -10.1233 168.71 -10.5319 169.271C-10.9295 169.831 -11.0645 170.587 -10.9367 171.538L-10.2616 176.564L-11.771 176.767L-12.9921 167.677L-11.4826 167.474L-11.3088 168.768C-11.0727 168.263 -10.7173 167.85 -10.2428 167.527C-9.7572 167.203 -9.20478 166.999 -8.58551 166.916ZM-0.373567 167.248L0.346147 172.606C0.405566 173.048 0.541898 173.351 0.755144 173.514C0.966904 173.665 1.30501 173.71 1.76946 173.648L2.88083 173.498L3.0524 174.775L1.69222 174.958C0.851784 175.071 0.195461 174.962 -0.276749 174.632C-0.748959 174.301 -1.04448 173.693 -1.16332 172.809L-1.88303 167.451L-3.06075 167.609L-3.22787 166.365L-2.05015 166.207L-2.35764 163.918L-0.848177 163.715L-0.540683 166.004L1.83134 165.686L1.99845 166.93L-0.373567 167.248ZM5.36803 166.713C5.56361 166.158 5.88537 165.704 6.33332 165.351C6.79232 164.997 7.37569 164.772 8.08343 164.677L8.29288 166.236L7.89478 166.289C6.20285 166.517 5.48018 167.548 5.72677 169.384L6.39078 174.327L4.88131 174.53L3.66025 165.44L5.16972 165.237L5.36803 166.713ZM15.0537 173.315C14.2022 173.43 13.4021 173.34 12.6535 173.047C11.9159 172.752 11.3005 172.277 10.8073 171.623C10.3237 170.956 10.0188 170.153 9.89251 169.213C9.76773 168.284 9.85685 167.439 10.1599 166.678C10.4725 165.904 10.9519 165.282 11.598 164.813C12.2427 164.332 12.9964 164.034 13.8589 163.918C14.7215 163.802 15.5271 163.891 16.2757 164.184C17.0229 164.467 17.6431 164.935 18.1363 165.589C18.6405 166.242 18.9557 167.038 19.082 167.978C19.2083 168.918 19.1096 169.776 18.7859 170.551C18.4718 171.314 17.9869 171.936 17.3312 172.418C16.6754 172.9 15.9163 173.199 15.0537 173.315ZM14.8755 171.988C15.4173 171.916 15.9089 171.72 16.3503 171.402C16.7916 171.084 17.1219 170.651 17.3411 170.104C17.5713 169.555 17.6374 168.915 17.5394 168.186C17.4413 167.456 17.2144 166.856 16.8585 166.386C16.5027 165.916 16.0762 165.59 15.5791 165.409C15.0804 165.217 14.5602 165.158 14.0183 165.23C13.4654 165.305 12.9738 165.5 12.5435 165.817C12.1228 166.121 11.8084 166.546 11.6003 167.092C11.3922 167.638 11.3371 168.276 11.4352 169.006C11.5347 169.746 11.7513 170.353 12.085 170.826C12.4298 171.298 12.846 171.63 13.3336 171.824C13.8196 172.006 14.3336 172.061 14.8755 171.988ZM21.54 159.796L23.1889 172.071L21.6794 172.273L20.0306 159.999L21.54 159.796ZM41.0717 160.414L39.4562 169.885L37.897 170.095L34.7382 163.173L33.5179 170.683L31.9587 170.892L27.8846 162.186L29.4272 161.979L32.5422 169.328L33.7731 161.395L35.3158 161.188L38.5491 168.538L39.5788 160.615L41.0717 160.414ZM47.0593 159.441C47.7449 159.349 48.3842 159.415 48.9772 159.639C49.5688 159.853 50.0587 160.232 50.4471 160.776C50.8465 161.319 51.1027 162.011 51.2156 162.851L51.9353 168.209L50.4424 168.41L49.7517 163.267C49.6298 162.361 49.3103 161.7 48.793 161.285C48.2743 160.86 47.6223 160.7 46.8372 160.805C46.041 160.912 45.4386 161.246 45.0299 161.808C44.6323 162.368 44.4974 163.123 44.6251 164.074L45.3003 169.1L43.7908 169.303L42.1419 157.028L43.6514 156.826L44.253 161.304C44.4892 160.8 44.8501 160.385 45.3356 160.061C45.8323 159.735 46.4068 159.529 47.0593 159.441ZM62.0374 161.87C62.0761 162.158 62.1003 162.464 62.1102 162.789L54.8449 163.765C55.0205 164.654 55.4189 165.315 56.0402 165.749C56.671 166.171 57.3845 166.329 58.1807 166.222C58.8332 166.134 59.355 165.912 59.7461 165.556C60.1469 165.186 60.4016 164.736 60.5102 164.203L62.1357 163.985C62.0098 164.891 61.6191 165.67 60.9635 166.321C60.3064 166.961 59.436 167.353 58.3523 167.499C57.4897 167.615 56.6897 167.525 55.9521 167.23C55.2255 166.934 54.6212 166.458 54.1391 165.802C53.6555 165.135 53.3505 164.332 53.2243 163.392C53.098 162.452 53.1753 161.603 53.4562 160.845C53.7371 160.086 54.1896 159.474 54.8137 159.007C55.4473 158.528 56.2065 158.229 57.0911 158.11C57.9537 157.995 58.742 158.08 59.456 158.367C60.17 158.654 60.7485 159.105 61.1915 159.721C61.644 160.325 61.926 161.041 62.0374 161.87ZM60.4359 161.765C60.3586 161.19 60.1654 160.715 59.8561 160.34C59.5453 159.954 59.1546 159.685 58.684 159.534C58.223 159.371 57.7272 159.325 57.1963 159.397C56.4333 159.499 55.8136 159.83 55.3371 160.389C54.8716 160.947 54.6581 161.663 54.6966 162.536L60.4359 161.765ZM67.8728 156.645C68.9786 156.497 69.9196 156.714 70.6959 157.296C71.4706 157.868 71.9426 158.784 72.112 160.044L72.8317 165.402L71.3388 165.603L70.6481 160.46C70.5263 159.554 70.2067 158.893 69.6895 158.478C69.1707 158.053 68.5188 157.893 67.7336 157.998C66.9374 158.105 66.335 158.439 65.9263 159.001C65.5287 159.561 65.3938 160.316 65.5215 161.267L66.1967 166.293L64.6872 166.496L63.4662 157.406L64.9756 157.203L65.1494 158.497C65.3856 157.993 65.741 157.579 66.2155 157.256C66.7011 156.932 67.2535 156.728 67.8728 156.645ZM78.543 159.991C78.4167 159.051 78.4948 158.207 78.7772 157.46C79.0581 156.702 79.5043 156.085 80.1158 155.609C80.7384 155.131 81.4809 154.834 82.3435 154.718C83.4604 154.568 84.4146 154.716 85.2062 155.161C86.0088 155.605 86.5909 156.292 86.9523 157.223L85.3268 157.442C85.0977 156.909 84.7349 156.514 84.2384 156.254C83.753 155.992 83.1786 155.906 82.515 155.996C81.6525 156.111 80.9959 156.504 80.5453 157.172C80.0933 157.829 79.94 158.7 80.0856 159.784C80.2327 160.878 80.6117 161.689 81.2227 162.215C81.8337 162.74 82.5705 162.945 83.4331 162.83C84.0966 162.74 84.6287 162.511 85.0294 162.142C85.4302 161.773 85.6749 161.29 85.7635 160.693L87.3891 160.474C87.2706 161.436 86.8843 162.248 86.2302 162.91C85.5746 163.561 84.6994 163.96 83.6046 164.107C82.7421 164.223 81.9475 164.132 81.221 163.836C80.5055 163.538 79.9122 163.061 79.4412 162.403C78.9701 161.746 78.6707 160.942 78.543 159.991ZM90.2821 155.307C90.4776 154.751 90.7994 154.297 91.2474 153.944C91.7064 153.59 92.2897 153.365 92.9975 153.27L93.2069 154.829L92.8088 154.883C91.1169 155.11 90.3942 156.142 90.6408 157.977L91.3048 162.92L89.7953 163.123L88.5743 154.033L90.0837 153.831L90.2821 155.307ZM103.62 156.285C103.658 156.572 103.683 156.878 103.693 157.204L96.4272 158.18C96.6028 159.068 97.0012 159.729 97.6225 160.164C98.2533 160.585 98.9668 160.743 99.763 160.636C100.415 160.548 100.937 160.326 101.328 159.97C101.729 159.601 101.984 159.15 102.092 158.617L103.718 158.399C103.592 159.305 103.201 160.084 102.546 160.735C101.889 161.375 101.018 161.768 99.9346 161.913C99.072 162.029 98.2719 161.94 97.5343 161.645C96.8078 161.348 96.2035 160.872 95.7213 160.216C95.2377 159.55 94.9328 158.746 94.8065 157.806C94.6803 156.866 94.7576 156.017 95.0385 155.259C95.3194 154.501 95.7719 153.888 96.396 153.422C97.0296 152.942 97.7887 152.644 98.6734 152.525C99.536 152.409 100.324 152.494 101.038 152.781C101.752 153.068 102.331 153.519 102.774 154.135C103.226 154.739 103.508 155.455 103.62 156.285ZM102.018 156.179C101.941 155.604 101.748 155.129 101.438 154.754C101.128 154.368 100.737 154.099 100.266 153.949C99.8053 153.785 99.3094 153.74 98.7786 153.811C98.0156 153.913 97.3958 154.244 96.9193 154.804C96.4539 155.361 96.2404 156.077 96.2789 156.95L102.018 156.179ZM105.091 156.408C104.966 155.479 105.045 154.641 105.327 153.894C105.608 153.135 106.049 152.519 106.649 152.044C107.261 151.568 107.97 151.276 108.777 151.167C109.573 151.06 110.288 151.139 110.92 151.403C111.552 151.667 112.047 152.04 112.404 152.521L112.181 150.862L113.707 150.657L114.928 159.747L113.402 159.952L113.175 158.26C112.948 158.831 112.559 159.334 112.01 159.768C111.469 160.189 110.807 160.453 110.022 160.558C109.214 160.667 108.458 160.566 107.752 160.255C107.046 159.945 106.457 159.455 105.984 158.787C105.512 158.119 105.214 157.326 105.091 156.408ZM112.789 155.391C112.697 154.705 112.479 154.126 112.134 153.655C111.789 153.183 111.361 152.847 110.85 152.645C110.349 152.431 109.816 152.362 109.252 152.438C108.688 152.513 108.191 152.715 107.763 153.043C107.334 153.371 107.015 153.808 106.807 154.353C106.599 154.899 106.541 155.515 106.633 156.201C106.727 156.897 106.947 157.487 107.293 157.97C107.638 158.441 108.061 158.784 108.563 158.998C109.063 159.201 109.595 159.265 110.159 159.189C110.723 159.113 111.219 158.911 111.648 158.584C112.086 158.243 112.409 157.8 112.618 157.254C112.824 156.697 112.881 156.076 112.789 155.391ZM118.266 151.311L118.986 156.669C119.045 157.111 119.182 157.414 119.395 157.577C119.607 157.728 119.945 157.773 120.409 157.711L121.521 157.561L121.692 158.839L120.332 159.021C119.492 159.134 118.835 159.025 118.363 158.695C117.891 158.364 117.595 157.756 117.477 156.872L116.757 151.514L115.579 151.672L115.412 150.428L116.59 150.27L116.282 147.981L117.792 147.778L118.099 150.067L120.471 149.749L120.638 150.993L118.266 151.311ZM122.881 147.922C122.594 147.96 122.337 147.894 122.111 147.721C121.886 147.549 121.753 147.319 121.715 147.032C121.676 146.744 121.743 146.487 121.915 146.262C122.088 146.036 122.318 145.904 122.605 145.865C122.882 145.828 123.127 145.896 123.342 146.07C123.568 146.242 123.7 146.472 123.739 146.76C123.777 147.047 123.71 147.304 123.538 147.53C123.377 147.754 123.158 147.885 122.881 147.922ZM123.81 149.3L125.031 158.39L123.521 158.593L122.3 149.503L123.81 149.3ZM130.789 148.194C131.895 148.045 132.836 148.262 133.612 148.845C134.387 149.416 134.859 150.332 135.028 151.593L135.748 156.95L134.255 157.151L133.564 152.009C133.442 151.102 133.123 150.441 132.606 150.027C132.087 149.601 131.435 149.441 130.65 149.546C129.854 149.653 129.251 149.988 128.842 150.549C128.445 151.109 128.31 151.865 128.438 152.816L129.113 157.842L127.603 158.044L126.382 148.955L127.892 148.752L128.066 150.046C128.302 149.541 128.657 149.127 129.132 148.805C129.617 148.481 130.17 148.277 130.789 148.194ZM140.721 146.876C141.506 146.771 142.215 146.85 142.847 147.114C143.49 147.377 143.991 147.749 144.348 148.23L144.125 146.571L145.651 146.366L146.899 155.655C147.01 156.485 146.932 157.244 146.665 157.933C146.398 158.633 145.958 159.21 145.343 159.664C144.74 160.116 144.002 160.401 143.128 160.519C141.934 160.679 140.9 160.531 140.028 160.074C139.157 159.617 138.583 158.911 138.309 157.957L139.802 157.757C140.042 158.287 140.444 158.684 141.008 158.946C141.574 159.219 142.222 159.306 142.952 159.208C143.781 159.097 144.421 158.746 144.871 158.157C145.332 157.566 145.499 156.8 145.373 155.86L145.117 153.953C144.889 154.523 144.506 155.025 143.968 155.458C143.429 155.89 142.767 156.159 141.982 156.265C141.175 156.373 140.413 156.273 139.696 155.964C138.99 155.654 138.401 155.164 137.928 154.496C137.456 153.828 137.158 153.035 137.035 152.117C136.91 151.188 136.989 150.35 137.271 149.603C137.552 148.844 137.993 148.228 138.593 147.753C139.205 147.277 139.914 146.985 140.721 146.876ZM144.733 151.1C144.641 150.414 144.423 149.835 144.078 149.364C143.733 148.892 143.305 148.556 142.794 148.354C142.293 148.14 141.76 148.071 141.196 148.147C140.632 148.222 140.135 148.424 139.707 148.752C139.278 149.08 138.959 149.517 138.751 150.062C138.543 150.608 138.485 151.224 138.577 151.91C138.671 152.606 138.891 153.196 139.237 153.679C139.582 154.15 140.005 154.493 140.507 154.707C141.007 154.91 141.539 154.974 142.103 154.898C142.667 154.822 143.163 154.62 143.592 154.292C144.03 153.952 144.353 153.509 144.562 152.963C144.768 152.406 144.825 151.785 144.733 151.1ZM-97.877 204.304L-101.555 218.409L-103.114 218.618L-101.911 213.999L-106.785 205.5L-105.109 205.275L-101.267 212.257L-99.4362 204.513L-97.877 204.304ZM-91.1541 212.807C-92.0056 212.921 -92.8057 212.832 -93.5543 212.538C-94.2919 212.243 -94.9073 211.769 -95.4005 211.114C-95.8841 210.448 -96.189 209.644 -96.3153 208.704C-96.4401 207.775 -96.351 206.93 -96.0479 206.169C-95.7353 205.395 -95.2559 204.774 -94.6098 204.304C-93.9651 203.823 -93.2115 203.525 -92.3489 203.409C-91.4864 203.293 -90.6807 203.382 -89.9321 203.676C-89.1849 203.958 -88.5647 204.426 -88.0715 205.081C-87.5673 205.734 -87.2521 206.53 -87.1258 207.47C-86.9995 208.41 -87.0982 209.267 -87.4219 210.043C-87.736 210.805 -88.2209 211.428 -88.8766 211.91C-89.5324 212.392 -90.2915 212.691 -91.1541 212.807ZM-91.3323 211.48C-90.7905 211.407 -90.2989 211.212 -89.8575 210.893C-89.4162 210.575 -89.0859 210.142 -88.8667 209.595C-88.6365 209.046 -88.5704 208.407 -88.6684 207.677C-88.7665 206.947 -88.9934 206.347 -89.3493 205.877C-89.7051 205.407 -90.1316 205.082 -90.6288 204.901C-91.1274 204.709 -91.6476 204.649 -92.1895 204.722C-92.7424 204.796 -93.234 204.992 -93.6643 205.309C-94.085 205.613 -94.3994 206.038 -94.6075 206.584C-94.8157 207.129 -94.8707 207.767 -94.7727 208.497C-94.6731 209.238 -94.4565 209.845 -94.1228 210.318C-93.778 210.79 -93.3618 211.122 -92.8742 211.315C-92.3882 211.498 -91.8742 211.553 -91.3323 211.48ZM-77.6879 201.592L-76.4668 210.682L-77.9763 210.885L-78.1568 209.541C-78.3819 210.044 -78.7365 210.463 -79.2206 210.799C-79.6951 211.121 -80.242 211.324 -80.8613 211.407C-81.569 211.502 -82.2242 211.444 -82.8268 211.232C-83.4309 211.009 -83.9381 210.627 -84.3486 210.086C-84.7481 209.543 -85.0042 208.851 -85.1171 208.011L-85.8324 202.686L-84.3395 202.485L-83.651 207.611C-83.5306 208.507 -83.2111 209.167 -82.6923 209.593C-82.1751 210.008 -81.5239 210.162 -80.7387 210.057C-79.9315 209.948 -79.329 209.614 -78.9314 209.054C-78.5338 208.494 -78.3989 207.739 -78.5266 206.788L-79.1973 201.795L-77.6879 201.592ZM-73.4314 202.523C-73.2359 201.968 -72.9141 201.514 -72.4661 201.161C-72.0071 200.806 -71.4238 200.582 -70.716 200.487L-70.5066 202.046L-70.9047 202.099C-72.5966 202.327 -73.3193 203.358 -73.0727 205.194L-72.4087 210.137L-73.9182 210.34L-75.1392 201.25L-73.6298 201.047L-73.4314 202.523ZM-60.0699 208.631C-60.7666 208.725 -61.407 208.693 -61.9911 208.535C-62.5767 208.366 -63.0581 208.093 -63.4352 207.716C-63.8138 207.327 -64.0569 206.859 -64.1643 206.311L-62.6051 206.101C-62.5 206.549 -62.2401 206.891 -61.8255 207.128C-61.3998 207.363 -60.8773 207.439 -60.2581 207.356C-59.683 207.279 -59.2467 207.091 -58.9491 206.792C-58.6516 206.493 -58.5288 206.15 -58.5808 205.763C-58.6342 205.365 -58.8505 205.096 -59.2297 204.955C-59.6103 204.804 -60.1836 204.684 -60.9498 204.595C-61.6481 204.509 -62.2248 204.406 -62.6799 204.287C-63.1253 204.156 -63.5267 203.934 -63.8838 203.622C-64.2314 203.297 -64.4446 202.841 -64.5233 202.255C-64.5857 201.791 -64.5047 201.346 -64.2802 200.922C-64.0557 200.498 -63.704 200.141 -63.225 199.852C-62.7475 199.551 -62.1826 199.357 -61.5301 199.269C-60.5238 199.134 -59.6769 199.279 -58.9893 199.705C-58.3017 200.13 -57.8763 200.783 -57.7133 201.661L-59.2227 201.864C-59.3198 201.393 -59.5646 201.037 -59.957 200.797C-60.3385 200.556 -60.8222 200.475 -61.4083 200.553C-61.9502 200.626 -62.3659 200.8 -62.6554 201.076C-62.9449 201.351 -63.0644 201.676 -63.0139 202.052C-62.9737 202.351 -62.8463 202.587 -62.6316 202.761C-62.4073 202.922 -62.1432 203.044 -61.8394 203.127C-61.5259 203.198 -61.0997 203.27 -60.5606 203.344C-59.8844 203.433 -59.3298 203.539 -58.8969 203.661C-58.4655 203.772 -58.083 203.979 -57.7494 204.284C-57.4048 204.586 -57.1898 205.013 -57.1045 205.565C-57.0376 206.062 -57.1157 206.529 -57.3387 206.964C-57.5616 207.399 -57.9119 207.767 -58.3894 208.068C-58.8573 208.356 -59.4175 208.544 -60.0699 208.631ZM-47.8011 197.577L-46.5801 206.667L-48.0895 206.87L-48.27 205.526C-48.4951 206.029 -48.8497 206.449 -49.3338 206.784C-49.8084 207.106 -50.3552 207.309 -50.9745 207.393C-51.6823 207.488 -52.3374 207.429 -52.94 207.218C-53.5441 206.995 -54.0514 206.613 -54.4619 206.071C-54.8613 205.528 -55.1175 204.836 -55.2303 203.996L-55.9456 198.671L-54.4527 198.471L-53.7642 203.596C-53.6439 204.492 -53.3243 205.153 -52.8056 205.578C-52.2883 205.993 -51.6371 206.148 -50.852 206.042C-50.0447 205.934 -49.4423 205.599 -49.0447 205.039C-48.6471 204.479 -48.5121 203.724 -48.6399 202.773L-49.3106 197.78L-47.8011 197.577ZM-43.5447 198.508C-43.3491 197.953 -43.0273 197.499 -42.5794 197.146C-42.1204 196.792 -41.537 196.567 -40.8293 196.472L-40.6198 198.031L-41.0179 198.085C-42.7099 198.312 -43.4325 199.343 -43.1859 201.179L-42.5219 206.122L-44.0314 206.325L-45.2525 197.235L-43.743 197.032L-43.5447 198.508ZM-34.6468 203.646L-32.8608 195.57L-31.2518 195.354L-33.5971 204.923L-35.3553 205.159L-40.1427 196.548L-38.5171 196.33L-34.6468 203.646ZM-20.9089 198.237C-20.8703 198.525 -20.846 198.831 -20.8361 199.156L-28.1015 200.132C-27.9259 201.02 -27.5274 201.682 -26.9062 202.116C-26.2754 202.538 -25.5618 202.695 -24.7656 202.589C-24.1132 202.501 -23.5914 202.279 -23.2002 201.922C-22.7995 201.553 -22.5448 201.103 -22.4362 200.57L-20.8106 200.352C-20.9366 201.258 -21.3273 202.037 -21.9829 202.688C-22.6399 203.327 -23.5103 203.72 -24.5941 203.866C-25.4566 203.982 -26.2567 203.892 -26.9943 203.597C-27.7209 203.301 -28.3252 202.825 -28.8073 202.169C-29.2909 201.502 -29.5958 200.699 -29.7221 199.759C-29.8484 198.819 -29.771 197.97 -29.4901 197.211C-29.2092 196.453 -28.7567 195.841 -28.1327 195.374C-27.4991 194.895 -26.7399 194.596 -25.8552 194.477C-24.9927 194.361 -24.2044 194.447 -23.4904 194.734C-22.7764 195.021 -22.1979 195.472 -21.7549 196.088C-21.3023 196.691 -21.0203 197.408 -20.9089 198.237ZM-22.5105 198.131C-22.5877 197.556 -22.781 197.081 -23.0903 196.706C-23.4011 196.32 -23.7918 196.052 -24.2623 195.901C-24.7233 195.738 -25.2192 195.692 -25.75 195.763C-26.513 195.866 -27.1328 196.197 -27.6093 196.756C-28.0747 197.314 -28.2882 198.029 -28.2498 198.902L-22.5105 198.131ZM-11.6509 192.721L-15.3288 206.826L-16.8881 207.035L-15.6848 202.416L-20.5584 193.918L-18.883 193.693L-15.0407 200.674L-13.2101 192.931L-11.6509 192.721Z" fill="#11002A"/>
</svg>
