<svg width="372" height="399" viewBox="0 0 372 399" fill="none" xmlns="http://www.w3.org/2000/svg">
<g filter="url(#filter0_b_1_10363)">
<g clip-path="url(#clip0_1_10363)">
<rect width="372" height="399" rx="16" fill="#919191" fill-opacity="0.1"/>
<path d="M56 300L54.9688 297.25H47.5156L46.5 300H40.0625L48.8906 277.594H53.7031L62.5938 300H56ZM49.4688 292.062H53.0938L51.2969 287.234L49.4688 292.062ZM63.875 277.594H69.9531V300H63.875V277.594ZM86.7344 300.312C84.1823 300.312 82.0833 299.562 80.4375 298.062C78.8021 296.562 77.9844 294.646 77.9844 292.312H84.0156C84.0156 293.01 84.2604 293.568 84.75 293.984C85.25 294.391 85.9115 294.594 86.7344 294.594C87.4844 294.594 88.0729 294.464 88.5 294.203C88.9375 293.932 89.1562 293.562 89.1562 293.094C89.1562 292.823 89.0312 292.589 88.7812 292.391C88.5312 292.193 88.1927 292.026 87.7656 291.891C87.3385 291.745 86.849 291.609 86.2969 291.484C85.7552 291.349 85.1771 291.198 84.5625 291.031C83.9583 290.865 83.349 290.677 82.7344 290.469C82.1302 290.25 81.5521 289.964 81 289.609C80.4583 289.255 79.974 288.849 79.5469 288.391C79.1198 287.922 78.7812 287.339 78.5312 286.641C78.2812 285.932 78.1562 285.146 78.1562 284.281C78.1562 282.26 78.9062 280.589 80.4062 279.266C81.9167 277.943 83.8125 277.281 86.0938 277.281C87.25 277.281 88.3021 277.427 89.25 277.719C90.1979 278.01 90.9896 278.411 91.625 278.922C92.2708 279.422 92.8073 280.016 93.2344 280.703C93.6719 281.391 93.9844 282.115 94.1719 282.875C94.3698 283.635 94.4688 284.438 94.4688 285.281H88.1719C88.1927 284.615 87.9948 284.073 87.5781 283.656C87.1719 283.229 86.599 283.016 85.8594 283.016C84.6719 283.016 84.0781 283.427 84.0781 284.25C84.0781 284.521 84.2031 284.755 84.4531 284.953C84.7135 285.141 85.0573 285.302 85.4844 285.438C85.9115 285.573 86.401 285.703 86.9531 285.828C87.5052 285.953 88.0885 286.099 88.7031 286.266C89.3177 286.422 89.9323 286.609 90.5469 286.828C91.1615 287.047 91.7448 287.333 92.2969 287.688C92.849 288.042 93.3385 288.453 93.7656 288.922C94.1927 289.391 94.5312 289.984 94.7812 290.703C95.0417 291.411 95.1719 292.208 95.1719 293.094C95.1719 293.99 94.9844 294.865 94.6094 295.719C94.2344 296.573 93.7031 297.344 93.0156 298.031C92.3281 298.719 91.4375 299.271 90.3438 299.688C89.2604 300.104 88.0573 300.312 86.7344 300.312ZM107.266 284.188H113.016V300H107.266V298.438C106.87 299.021 106.349 299.479 105.703 299.812C105.057 300.146 104.37 300.312 103.641 300.312C101.63 300.312 100.062 299.672 98.9375 298.391C97.8125 297.109 97.25 295.323 97.25 293.031V284.188H103V292.031C103 292.865 103.188 293.495 103.562 293.922C103.948 294.349 104.49 294.562 105.188 294.562C105.573 294.562 105.953 294.453 106.328 294.234C106.714 294.005 107.026 293.708 107.266 293.344V284.188ZM124.75 283.875C125.615 283.875 126.245 283.979 126.641 284.188V289.562C125.807 289.333 125.016 289.219 124.266 289.219C123.776 289.219 123.219 289.396 122.594 289.75C121.969 290.104 121.51 290.589 121.219 291.203V300H115.469V284.188H121.219V285.766C121.542 285.214 122.052 284.76 122.75 284.406C123.458 284.052 124.125 283.875 124.75 283.875ZM145.109 284.188L138.672 300H133.812L127.375 284.188H133.625L136.234 292.031L138.797 284.188H145.109ZM160.797 291.609C160.797 292.109 160.755 292.807 160.672 293.703H149.922C150.13 294.297 150.49 294.76 151 295.094C151.51 295.417 152.12 295.578 152.828 295.578C154.005 295.578 154.703 295.219 154.922 294.5H160.547C160.307 296.271 159.5 297.682 158.125 298.734C156.76 299.786 155.052 300.312 153 300.312C151.458 300.312 150.042 299.948 148.75 299.219C147.458 298.49 146.438 297.49 145.688 296.219C144.948 294.948 144.578 293.552 144.578 292.031C144.578 290.521 144.943 289.141 145.672 287.891C146.401 286.641 147.401 285.661 148.672 284.953C149.953 284.234 151.365 283.875 152.906 283.875C155.062 283.875 156.917 284.625 158.469 286.125C160.021 287.625 160.797 289.453 160.797 291.609ZM150.109 290.078H154.781C154.719 289.609 154.479 289.234 154.062 288.953C153.646 288.661 153.161 288.516 152.609 288.516C151.38 288.516 150.547 289.036 150.109 290.078ZM171.609 284.188H177.812L169.25 304.797H163.031L166.078 298.141L160.281 284.188H166.453L169.047 291.391L171.609 284.188ZM184.375 300.312C182.167 300.312 180.375 299.792 179 298.75C177.625 297.698 176.859 296.25 176.703 294.406H181.891C181.922 294.771 182.141 295.083 182.547 295.344C182.964 295.594 183.448 295.719 184 295.719C185.021 295.719 185.531 295.484 185.531 295.016C185.531 294.766 185.375 294.573 185.062 294.438C184.75 294.292 184.339 294.188 183.828 294.125C183.328 294.052 182.776 293.979 182.172 293.906C181.568 293.833 180.958 293.698 180.344 293.5C179.74 293.302 179.182 293.047 178.672 292.734C178.172 292.411 177.766 291.943 177.453 291.328C177.141 290.703 176.984 289.958 176.984 289.094C176.984 287.646 177.573 286.422 178.75 285.422C179.938 284.411 181.526 283.906 183.516 283.906C184.755 283.906 185.891 284.109 186.922 284.516C187.953 284.922 188.818 285.552 189.516 286.406C190.214 287.26 190.625 288.281 190.75 289.469H185.25C185.229 289.177 185.052 288.927 184.719 288.719C184.396 288.5 184.016 288.391 183.578 288.391C182.682 288.391 182.234 288.625 182.234 289.094C182.234 289.312 182.354 289.479 182.594 289.594C182.844 289.698 183.172 289.766 183.578 289.797C183.984 289.818 184.443 289.854 184.953 289.906C185.474 289.958 186 290.016 186.531 290.078C187.073 290.141 187.599 290.286 188.109 290.516C188.63 290.734 189.094 291.016 189.5 291.359C189.906 291.703 190.229 292.193 190.469 292.828C190.719 293.453 190.844 294.193 190.844 295.047C190.844 296.516 190.219 297.76 188.969 298.781C187.719 299.802 186.188 300.312 184.375 300.312ZM51.5156 339.719V334.844H63.1719V342.969C62.1927 344.604 60.7188 345.901 58.75 346.859C56.7812 347.807 54.5938 348.281 52.1875 348.281C50.0938 348.281 48.1719 347.766 46.4219 346.734C44.6719 345.693 43.2969 344.286 42.2969 342.516C41.2969 340.734 40.7969 338.797 40.7969 336.703C40.7969 335.13 41.0885 333.641 41.6719 332.234C42.2656 330.828 43.0625 329.615 44.0625 328.594C45.0625 327.573 46.2656 326.766 47.6719 326.172C49.0781 325.578 50.5625 325.281 52.125 325.281C53.5417 325.281 54.9115 325.51 56.2344 325.969C57.5677 326.427 58.7188 327.036 59.6875 327.797C60.6562 328.547 61.4531 329.422 62.0781 330.422C62.7031 331.422 63.0677 332.448 63.1719 333.5H56.2812C56.0208 332.771 55.5052 332.208 54.7344 331.812C53.974 331.406 53.1042 331.203 52.125 331.203C50.6458 331.203 49.4271 331.719 48.4688 332.75C47.5208 333.781 47.0469 335.099 47.0469 336.703C47.0469 338.359 47.5781 339.724 48.6406 340.797C49.7031 341.87 51.0365 342.406 52.6406 342.406C53.6615 342.406 54.526 342.266 55.2344 341.984C55.9427 341.693 56.5625 341.234 57.0938 340.609V339.719H51.5156ZM81.1094 339.609C81.1094 340.109 81.0677 340.807 80.9844 341.703H70.2344C70.4427 342.297 70.8021 342.76 71.3125 343.094C71.8229 343.417 72.4323 343.578 73.1406 343.578C74.3177 343.578 75.0156 343.219 75.2344 342.5H80.8594C80.6198 344.271 79.8125 345.682 78.4375 346.734C77.0729 347.786 75.3646 348.312 73.3125 348.312C71.7708 348.312 70.3542 347.948 69.0625 347.219C67.7708 346.49 66.75 345.49 66 344.219C65.2604 342.948 64.8906 341.552 64.8906 340.031C64.8906 338.521 65.2552 337.141 65.9844 335.891C66.7135 334.641 67.7135 333.661 68.9844 332.953C70.2656 332.234 71.6771 331.875 73.2188 331.875C75.375 331.875 77.2292 332.625 78.7812 334.125C80.3333 335.625 81.1094 337.453 81.1094 339.609ZM70.4219 338.078H75.0938C75.0312 337.609 74.7917 337.234 74.375 336.953C73.9583 336.661 73.474 336.516 72.9219 336.516C71.6927 336.516 70.8594 337.036 70.4219 338.078ZM92.4062 331.875C94.4167 331.875 95.9844 332.521 97.1094 333.812C98.2344 335.094 98.7969 336.88 98.7969 339.172V348H93.0469V340.156C93.0469 339.312 92.8594 338.682 92.4844 338.266C92.1094 337.839 91.5729 337.625 90.875 337.625C90.4896 337.625 90.1042 337.74 89.7188 337.969C89.3333 338.188 89.0208 338.479 88.7812 338.844V348H83.0312V332.188H88.7812V333.766C89.1771 333.172 89.6979 332.708 90.3438 332.375C91 332.042 91.6875 331.875 92.4062 331.875ZM116.953 339.609C116.953 340.109 116.911 340.807 116.828 341.703H106.078C106.286 342.297 106.646 342.76 107.156 343.094C107.667 343.417 108.276 343.578 108.984 343.578C110.161 343.578 110.859 343.219 111.078 342.5H116.703C116.464 344.271 115.656 345.682 114.281 346.734C112.917 347.786 111.208 348.312 109.156 348.312C107.615 348.312 106.198 347.948 104.906 347.219C103.615 346.49 102.594 345.49 101.844 344.219C101.104 342.948 100.734 341.552 100.734 340.031C100.734 338.521 101.099 337.141 101.828 335.891C102.557 334.641 103.557 333.661 104.828 332.953C106.109 332.234 107.521 331.875 109.062 331.875C111.219 331.875 113.073 332.625 114.625 334.125C116.177 335.625 116.953 337.453 116.953 339.609ZM106.266 338.078H110.938C110.875 337.609 110.635 337.234 110.219 336.953C109.802 336.661 109.318 336.516 108.766 336.516C107.536 336.516 106.703 337.036 106.266 338.078ZM128.156 331.875C129.021 331.875 129.651 331.979 130.047 332.188V337.562C129.214 337.333 128.422 337.219 127.672 337.219C127.182 337.219 126.625 337.396 126 337.75C125.375 338.104 124.917 338.589 124.625 339.203V348H118.875V332.188H124.625V333.766C124.948 333.214 125.458 332.76 126.156 332.406C126.865 332.052 127.531 331.875 128.156 331.875ZM141.531 332.188H147.297V348H141.531V346.469C141.198 347.031 140.651 347.479 139.891 347.812C139.13 348.146 138.292 348.312 137.375 348.312C135.417 348.312 133.745 347.51 132.359 345.906C130.984 344.292 130.297 342.354 130.297 340.094C130.297 337.833 130.984 335.901 132.359 334.297C133.745 332.682 135.417 331.875 137.375 331.875C138.271 331.875 139.099 332.047 139.859 332.391C140.62 332.724 141.177 333.172 141.531 333.734V332.188ZM138.688 342.844C139.312 342.844 139.87 342.708 140.359 342.438C140.849 342.167 141.24 341.812 141.531 341.375V338.844C141.24 338.396 140.849 338.036 140.359 337.766C139.87 337.484 139.312 337.344 138.688 337.344C137.917 337.344 137.266 337.609 136.734 338.141C136.203 338.661 135.938 339.312 135.938 340.094C135.938 340.875 136.203 341.531 136.734 342.062C137.266 342.583 137.917 342.844 138.688 342.844ZM160.891 337.703H157.297V340.828C157.297 341.453 157.526 341.943 157.984 342.297C158.443 342.641 159.016 342.812 159.703 342.812C160.172 342.812 160.568 342.771 160.891 342.688V348C160.193 348.188 159.339 348.281 158.328 348.281C156.307 348.281 154.672 347.62 153.422 346.297C152.172 344.964 151.547 343.172 151.547 340.922V337.703H148.719V332.188H151.547V328.188H157.297V332.188H160.891V337.703ZM165.812 324.094C166.74 324.094 167.531 324.427 168.188 325.094C168.844 325.75 169.172 326.536 169.172 327.453C169.172 328.37 168.844 329.161 168.188 329.828C167.531 330.484 166.74 330.812 165.812 330.812C164.896 330.812 164.104 330.484 163.438 329.828C162.781 329.161 162.453 328.37 162.453 327.453C162.453 326.536 162.781 325.75 163.438 325.094C164.104 324.427 164.896 324.094 165.812 324.094ZM162.938 332.188H168.688V348H162.938V332.188ZM180.5 331.875C182.51 331.875 184.078 332.521 185.203 333.812C186.328 335.094 186.891 336.88 186.891 339.172V348H181.141V340.156C181.141 339.312 180.953 338.682 180.578 338.266C180.203 337.839 179.667 337.625 178.969 337.625C178.583 337.625 178.198 337.74 177.812 337.969C177.427 338.188 177.115 338.479 176.875 338.844V348H171.125V332.188H176.875V333.766C177.271 333.172 177.792 332.708 178.438 332.375C179.094 332.042 179.781 331.875 180.5 331.875ZM200.062 332.156H205.828V347.203C205.828 348.672 205.448 349.958 204.688 351.062C203.938 352.167 202.932 352.995 201.672 353.547C200.422 354.099 199.021 354.375 197.469 354.375C197.052 354.375 196.63 354.354 196.203 354.312C195.776 354.281 195.281 354.208 194.719 354.094C194.167 353.979 193.641 353.828 193.141 353.641C192.641 353.464 192.135 353.214 191.625 352.891C191.125 352.578 190.688 352.214 190.312 351.797C189.938 351.38 189.62 350.865 189.359 350.25C189.099 349.635 188.943 348.958 188.891 348.219H194.656C194.74 348.667 195.026 348.995 195.516 349.203C196.005 349.422 196.594 349.531 197.281 349.531C197.979 349.531 198.615 349.339 199.188 348.953C199.771 348.568 200.062 348.068 200.062 347.453V345.891C199.729 346.432 199.182 346.87 198.422 347.203C197.661 347.526 196.823 347.688 195.906 347.688C194.615 347.688 193.422 347.333 192.328 346.625C191.245 345.906 190.391 344.943 189.766 343.734C189.141 342.516 188.828 341.198 188.828 339.781C188.828 338.354 189.141 337.036 189.766 335.828C190.391 334.609 191.245 333.646 192.328 332.938C193.422 332.229 194.615 331.875 195.906 331.875C196.812 331.875 197.641 332.036 198.391 332.359C199.151 332.672 199.708 333.094 200.062 333.625V332.156ZM197.219 342.406C197.844 342.406 198.401 342.276 198.891 342.016C199.38 341.745 199.771 341.391 200.062 340.953V338.562C199.427 337.604 198.479 337.125 197.219 337.125C196.448 337.125 195.797 337.38 195.266 337.891C194.734 338.401 194.469 339.031 194.469 339.781C194.469 340.531 194.734 341.156 195.266 341.656C195.797 342.156 196.448 342.406 197.219 342.406Z" fill="white"/>
<path d="M258.242 150.556L246.196 138.57C244.098 136.482 240.565 135.023 237.604 135.023H212.086V144.34H237.602C238.108 144.349 239.262 144.825 239.625 145.174L251.181 156.674C252.828 153.968 255.298 151.814 258.242 150.556Z" fill="#004777"/>
<path d="M253.323 105.465C253.323 103.841 253.582 102.276 254.059 100.807H212.086V110.123H254.058C253.582 108.654 253.323 107.089 253.323 105.465Z" fill="#004777"/>
<path d="M261.286 64.9453C261.286 63.3212 261.545 61.756 262.022 60.2871H212.086V69.6035H262.021C261.545 68.134 261.286 66.5695 261.286 64.9453Z" fill="#004777"/>
<path d="M225.75 21.7227C225.75 20.0979 226.01 18.5333 226.486 17.0645H212.086V26.3809H226.486C226.01 24.9114 225.75 23.3474 225.75 21.7227Z" fill="#004777"/>
<path d="M309.383 21.3563L272.258 -15.5864C270.159 -17.6745 266.626 -19.1328 263.665 -19.1328H212.086V-9.81641H263.663C264.168 -9.80771 265.323 -9.33133 265.686 -8.98228L302.787 27.9362C304.244 25.1183 306.556 22.8109 309.383 21.3563Z" fill="#004777"/>
<path d="M144.368 -99.4631C142.487 -99.7756 140.559 -99.9457 138.59 -99.9457C119.307 -99.9457 103.676 -84.3911 103.676 -65.2036C103.676 -63.5142 103.803 -61.8553 104.037 -60.2305C100.685 -61.2951 97.1143 -61.8758 93.407 -61.8758C74.1245 -61.8758 58.4934 -46.3211 58.4934 -27.1337C58.4934 -21.4327 59.8822 -16.0577 62.3281 -11.3113C45.9995 -3.33398 34.7559 13.3685 34.7559 32.6901C34.7559 52.0862 46.0852 68.8483 62.5169 76.7871C59.9511 81.6229 58.4928 87.1296 58.4928 92.9778C58.4928 112.165 74.1239 127.719 93.4064 127.719C97.0988 127.719 100.655 127.144 103.994 126.088C103.791 127.609 103.675 129.157 103.675 130.733C103.675 149.921 119.307 165.476 138.589 165.476C140.575 165.476 142.52 165.302 144.415 164.984C148.859 177.812 161.089 187.031 175.489 187.031C193.643 187.031 208.36 172.388 208.36 154.323V-88.9443C208.36 -107.009 193.643 -121.652 175.489 -121.652C161.036 -121.652 148.771 -112.365 144.368 -99.4631Z" fill="#6200EE"/>
<g opacity="0.1">
<path d="M44.0719 43.8691C44.0719 26.2332 53.9697 10.4419 69.9014 2.65833C70.6523 2.29188 71.223 1.63849 71.4864 0.84597C71.7491 0.0534592 71.6814 -0.811722 71.2988 -1.55393C68.9834 -6.04755 67.8095 -10.8927 67.8095 -15.954C67.8095 -33.3987 82.0785 -47.5906 99.6176 -47.5906C102.913 -47.5906 106.174 -47.0857 109.308 -46.0907C109.616 -45.9932 109.933 -45.9454 110.248 -45.9454C110.974 -45.9454 111.687 -46.1994 112.256 -46.682C113.072 -47.3726 113.474 -48.4353 113.322 -49.493C113.103 -51.0116 112.992 -52.5358 112.992 -54.0233C112.992 -71.468 127.262 -85.6606 144.801 -85.6606C146.536 -85.6606 148.309 -85.5121 150.07 -85.2196C150.241 -85.191 150.412 -85.1774 150.58 -85.1774C151.889 -85.1774 153.083 -86.0072 153.518 -87.2804C157.617 -99.2948 168.943 -107.367 181.7 -107.367C193.187 -107.367 203.169 -100.858 208.129 -91.3566C206.737 -108.145 192.612 -121.342 175.38 -121.342C160.927 -121.342 148.661 -112.055 144.259 -99.1526C142.378 -99.465 140.45 -99.6352 138.481 -99.6352C119.198 -99.6352 103.567 -84.0805 103.567 -64.8931C103.567 -63.2037 103.694 -61.5448 103.928 -59.92C100.576 -60.9845 97.0053 -61.5652 93.298 -61.5652C74.0155 -61.5652 58.3844 -46.0106 58.3844 -26.8231C58.3844 -21.1221 59.7732 -15.7472 62.2191 -11.0008C45.8905 -3.02406 34.6475 13.679 34.6475 33C34.6475 48.4683 41.8577 62.2554 53.1107 71.2345C47.3296 63.4988 44.0719 53.9961 44.0719 43.8691Z" fill="#00003F"/>
</g>
<path d="M101.246 49.273C103.82 49.273 105.905 47.188 105.905 44.6148C105.905 42.0416 103.82 39.9566 101.246 39.9566H87.8854C79.3609 39.9566 72.4258 33.0656 72.4258 24.5957C72.4258 22.0225 70.3408 19.9375 67.7676 19.9375C65.1944 19.9375 63.1094 22.0225 63.1094 24.5957C63.1094 38.2026 74.2238 49.273 87.8854 49.273H101.246Z" fill="#4600A9"/>
<path d="M81.3867 98.1736C81.3867 100.747 83.4717 102.832 86.0449 102.832C88.6181 102.832 90.7031 100.747 90.7031 98.1736C90.7031 90.2192 97.2165 83.748 105.224 83.748H145.018C147.592 83.748 149.677 81.663 149.677 79.0898C149.677 76.5167 147.592 74.4316 145.018 74.4316H105.224C92.0801 74.4316 81.3867 85.0815 81.3867 98.1736Z" fill="#4600A9"/>
<path d="M163.652 83.748H182.974C185.547 83.748 187.632 81.663 187.632 79.0898C187.632 76.5167 185.547 74.4316 182.974 74.4316H163.652C161.079 74.4316 158.994 76.5167 158.994 79.0898C158.994 81.663 161.079 83.748 163.652 83.748Z" fill="#4600A9"/>
<path d="M121.264 12.7343C118.69 12.7343 116.605 14.8193 116.605 17.3925C116.605 19.9657 118.69 22.0507 121.264 22.0507C139.799 22.0507 154.879 7.03517 154.879 -11.4219C154.879 -13.9944 152.793 -16.0801 150.22 -16.0801C147.647 -16.0801 145.562 -13.9944 145.562 -11.4219C145.562 1.8981 134.662 12.7343 121.264 12.7343Z" fill="#4600A9"/>
<path d="M125.968 95.1738C123.395 95.1738 121.31 97.2588 121.31 99.832C121.31 102.405 123.395 104.49 125.968 104.49C133.66 104.49 139.918 110.707 139.918 118.347C139.918 125.989 133.66 132.207 125.968 132.207C123.395 132.207 121.31 134.292 121.31 136.865C121.31 139.438 123.395 141.523 125.968 141.523C138.797 141.523 149.235 131.127 149.235 118.347C149.235 105.57 138.797 95.1738 125.968 95.1738Z" fill="#4600A9"/>
<path d="M173.641 17.0563C171.067 17.0563 168.982 19.1414 168.982 21.7145C168.982 24.2877 171.067 26.3727 173.641 26.3727C184.958 26.3727 194.164 17.2004 194.164 5.92697C194.164 -5.34588 184.958 -14.5176 173.641 -14.5176C171.067 -14.5176 168.982 -12.4326 168.982 -9.85938C168.982 -7.28618 171.067 -5.20117 173.641 -5.20117C179.82 -5.20117 184.848 -0.209436 184.848 5.92697C184.848 12.064 179.82 17.0563 173.641 17.0563Z" fill="#4600A9"/>
<path d="M91.582 12.7686C107.335 12.7686 120.152 0.00512314 120.152 -15.6837C120.152 -31.3719 107.335 -44.1348 91.582 -44.1348C89.0088 -44.1348 86.9238 -42.0498 86.9238 -39.4766C86.9238 -36.9034 89.0088 -34.8184 91.582 -34.8184C102.199 -34.8184 110.836 -26.2348 110.836 -15.6837C110.836 -5.13256 102.199 3.45219 91.582 3.45219C89.0088 3.45219 86.9238 5.5372 86.9238 8.1104C86.9238 10.683 89.0095 12.7686 91.582 12.7686Z" fill="#4600A9"/>
<path d="M175.38 -126C160.587 -126 147.317 -117.378 141.261 -104.194C140.33 -104.26 139.402 -104.294 138.481 -104.294C116.973 -104.294 99.4182 -87.1233 98.9195 -65.826C97.0624 -66.0905 95.1842 -66.2241 93.298 -66.2241C71.4777 -66.2241 53.7262 -48.549 53.7262 -26.8238C53.7262 -22.055 54.5628 -17.4409 56.2174 -13.0516C39.9299 -3.3874 29.9893 13.8765 29.9893 33C29.9893 51.8955 40.2081 69.5396 56.369 79.1348C54.6318 83.6334 53.7268 88.4506 53.7268 93.2877C53.7268 115.013 71.4783 132.687 93.2986 132.687C95.1886 132.687 97.0692 132.554 98.9282 132.289C99.5903 153.441 117.079 170.444 138.481 170.444C139.424 170.444 140.375 170.408 141.329 170.339C147.417 183.436 160.661 192 175.38 192C196.073 192 212.909 175.238 212.909 154.634V-88.6338C212.909 -109.238 196.074 -126 175.38 -126ZM203.592 -88.1164H194.633C192.06 -88.1164 189.975 -86.0314 189.975 -83.4582C189.975 -80.885 192.06 -78.8 194.633 -78.8H203.592V-47.777H165.917C157.392 -47.777 150.457 -54.6674 150.457 -63.1366C150.457 -65.7098 148.372 -67.7948 145.799 -67.7948C143.226 -67.7948 141.141 -65.7098 141.141 -63.1366C141.141 -49.5303 152.255 -38.4606 165.917 -38.4606H203.592V39.9563H128.031C125.458 39.9563 123.373 42.0413 123.373 44.6145C123.373 47.1877 125.458 49.2727 128.031 49.2727H203.592V113.23H189.198C176.054 113.23 165.362 123.88 165.362 136.972C165.362 139.545 167.447 141.63 170.02 141.63C172.593 141.63 174.678 139.545 174.678 136.972C174.678 129.018 181.191 122.547 189.198 122.547H203.592V154.634C203.592 155.365 203.555 156.088 203.5 156.806H194.633C192.06 156.806 189.975 158.891 189.975 161.464C189.975 164.037 192.06 166.122 194.633 166.122H201.107C196.685 175.875 186.82 182.684 175.38 182.684C165.105 182.684 155.792 177.14 150.849 168.477C156.475 166.639 161.653 163.55 166.016 159.342C167.867 157.555 167.92 154.606 166.134 152.756C164.347 150.903 161.398 150.851 159.548 152.637C155.156 156.873 149.681 159.63 143.766 160.663V160.681C143.689 160.69 140.142 161.128 138.481 161.128C121.797 161.128 108.225 147.632 108.225 131.043C108.225 130.619 108.25 130.179 108.271 129.743C112.031 128.212 115.563 126.118 118.713 123.488C120.688 121.84 120.952 118.902 119.303 116.927C117.654 114.952 114.716 114.688 112.742 116.337C108.956 119.498 104.453 121.666 99.6673 122.692V122.694C97.5798 123.141 95.4476 123.371 93.2973 123.371C76.6148 123.371 63.042 109.875 63.042 93.2877C63.042 88.3457 64.2134 83.6328 66.5226 79.2796C66.5779 79.1752 66.694 78.9603 66.694 78.9603C69.4337 73.9301 73.6068 69.6861 78.8501 66.8465C81.1127 65.6211 81.9531 62.7945 80.7276 60.5325C79.5028 58.2692 76.675 57.4276 74.4136 58.6549C68.8492 61.6691 64.2109 65.8962 60.7415 70.8991C47.4227 62.8864 39.3057 48.7186 39.3057 33C39.3057 19.3086 45.4849 6.77121 55.8994 -1.52971C56.8118 -2.23216 57.7379 -2.90792 58.6763 -3.55013C65.8512 -8.46049 74.5366 -11.3374 83.8853 -11.3374C86.4585 -11.3374 88.5435 -13.4224 88.5435 -15.9956C88.5435 -18.5688 86.4585 -20.6538 83.8853 -20.6538C77.1178 -20.6538 70.6398 -19.4023 64.6674 -17.1247C63.5966 -20.2302 63.0439 -23.4754 63.0439 -26.8231C63.0439 -43.4119 76.616 -56.907 93.2992 -56.907C96.4351 -56.907 99.5375 -56.4269 102.52 -55.4798C104.048 -54.9947 105.719 -55.3295 106.942 -56.3667C108.165 -57.4039 108.768 -58.9964 108.54 -60.5839C108.332 -62.0298 108.226 -63.4795 108.226 -64.8931C108.226 -81.4812 121.799 -94.977 138.482 -94.977C140.12 -94.977 141.795 -94.8366 143.461 -94.5627C157.782 -92.1939 168.737 -79.795 168.737 -64.8931C168.737 -62.3199 170.822 -60.2349 173.395 -60.2349C175.969 -60.2349 178.054 -62.3199 178.054 -64.8931C178.054 -82.347 166.591 -97.1769 150.77 -102.336C155.688 -111.082 165.036 -116.684 175.38 -116.684C190.936 -116.684 203.592 -104.1 203.592 -88.6338V-88.1164Z" fill="#4600A9"/>
<path d="M326.133 106.521C317.377 106.521 310.254 99.4224 310.254 90.6973C310.254 81.9721 317.377 74.873 326.133 74.873C334.888 74.873 342.011 81.9715 342.011 90.6973C342.011 99.423 334.888 106.521 326.133 106.521Z" fill="#00DDD0"/>
<path d="M241.008 37.5463C232.252 37.5463 225.129 30.4478 225.129 21.7227C225.129 12.9969 232.252 5.89844 241.008 5.89844C249.764 5.89844 256.887 12.9969 256.887 21.7227C256.887 30.4484 249.764 37.5463 241.008 37.5463Z" fill="#00DDD0"/>
<path d="M268.581 121.287C259.825 121.287 252.702 114.189 252.702 105.463C252.702 96.7372 259.825 89.6387 268.581 89.6387C277.337 89.6387 284.46 96.7372 284.46 105.463C284.46 114.189 277.337 121.287 268.581 121.287Z" fill="#33C7CA"/>
<path d="M316.359 50.6927C307.603 50.6927 300.48 43.5943 300.48 34.8685C300.48 26.1434 307.604 19.0449 316.359 19.0449C325.116 19.0449 332.238 26.1434 332.238 34.8685C332.238 43.5949 325.115 50.6927 316.359 50.6927Z" fill="#33C7CA"/>
<path d="M305.863 155.145C297.107 155.145 289.984 148.046 289.984 139.32C289.984 130.595 297.108 123.496 305.863 123.496C314.619 123.496 321.742 130.595 321.742 139.32C321.742 148.046 314.619 155.145 305.863 155.145Z" fill="#FFC107"/>
<path d="M276.544 80.7676C267.788 80.7676 260.665 73.6691 260.665 64.9434C260.665 56.2176 267.788 49.1191 276.544 49.1191C285.3 49.1191 292.423 56.2176 292.423 64.9434C292.423 73.6691 285.3 80.7676 276.544 80.7676Z" fill="#FFC107"/>
<path d="M264.237 180.357C255.481 180.357 248.358 173.259 248.358 164.533C248.358 155.807 255.482 148.709 264.237 148.709C272.993 148.709 280.116 155.807 280.116 164.533C280.116 173.259 272.993 180.357 264.237 180.357Z" fill="#00DDD0"/>
</g>
</g>
<defs>
<filter id="filter0_b_1_10363" x="-28" y="-28" width="428" height="455" filterUnits="userSpaceOnUse" color-interpolation-filters="sRGB">
<feFlood flood-opacity="0" result="BackgroundImageFix"/>
<feGaussianBlur in="BackgroundImageFix" stdDeviation="14"/>
<feComposite in2="SourceAlpha" operator="in" result="effect1_backgroundBlur_1_10363"/>
<feBlend mode="normal" in="SourceGraphic" in2="effect1_backgroundBlur_1_10363" result="shape"/>
</filter>
<clipPath id="clip0_1_10363">
<rect width="372" height="399" rx="16" fill="white"/>
</clipPath>
</defs>
</svg>
