<svg width="372" height="399" viewBox="0 0 372 399" fill="none" xmlns="http://www.w3.org/2000/svg">
<g filter="url(#filter0_b_1_10346)">
<g clip-path="url(#clip0_1_10346)">
<rect width="372" height="399" rx="16" fill="#919191" fill-opacity="0.1"/>
<path d="M52.3125 300.312C50.6771 300.312 49.1458 300.021 47.7188 299.438C46.2917 298.854 45.0729 298.057 44.0625 297.047C43.0521 296.036 42.2552 294.823 41.6719 293.406C41.0885 291.979 40.7969 290.453 40.7969 288.828C40.7969 287.193 41.0885 285.661 41.6719 284.234C42.2552 282.807 43.0521 281.583 44.0625 280.562C45.0729 279.542 46.2917 278.74 47.7188 278.156C49.1458 277.573 50.6771 277.281 52.3125 277.281C54.1146 277.281 55.8229 277.651 57.4375 278.391C59.0625 279.13 60.401 280.161 61.4531 281.484C62.5052 282.797 63.1094 284.245 63.2656 285.828H56.5156C56.2865 285.068 55.7812 284.443 55 283.953C54.2188 283.453 53.3229 283.203 52.3125 283.203C50.7917 283.203 49.5312 283.74 48.5312 284.812C47.5417 285.875 47.0469 287.214 47.0469 288.828C47.0469 290.432 47.5417 291.766 48.5312 292.828C49.5312 293.88 50.7917 294.406 52.3125 294.406C53.3125 294.406 54.2031 294.13 54.9844 293.578C55.776 293.016 56.2865 292.318 56.5156 291.484H63.3281C62.9427 294.078 61.724 296.198 59.6719 297.844C57.6198 299.49 55.1667 300.312 52.3125 300.312ZM75.0469 284.188H80.7969V300H75.0469V298.438C74.651 299.021 74.1302 299.479 73.4844 299.812C72.8385 300.146 72.151 300.312 71.4219 300.312C69.4115 300.312 67.8438 299.672 66.7188 298.391C65.5938 297.109 65.0312 295.323 65.0312 293.031V284.188H70.7812V292.031C70.7812 292.865 70.9688 293.495 71.3438 293.922C71.7292 294.349 72.2708 294.562 72.9688 294.562C73.3542 294.562 73.7344 294.453 74.1094 294.234C74.4948 294.005 74.8073 293.708 75.0469 293.344V284.188ZM90.25 300.312C88.0417 300.312 86.25 299.792 84.875 298.75C83.5 297.698 82.7344 296.25 82.5781 294.406H87.7656C87.7969 294.771 88.0156 295.083 88.4219 295.344C88.8385 295.594 89.3229 295.719 89.875 295.719C90.8958 295.719 91.4062 295.484 91.4062 295.016C91.4062 294.766 91.25 294.573 90.9375 294.438C90.625 294.292 90.2135 294.188 89.7031 294.125C89.2031 294.052 88.651 293.979 88.0469 293.906C87.4427 293.833 86.8333 293.698 86.2188 293.5C85.6146 293.302 85.0573 293.047 84.5469 292.734C84.0469 292.411 83.6406 291.943 83.3281 291.328C83.0156 290.703 82.8594 289.958 82.8594 289.094C82.8594 287.646 83.4479 286.422 84.625 285.422C85.8125 284.411 87.401 283.906 89.3906 283.906C90.6302 283.906 91.7656 284.109 92.7969 284.516C93.8281 284.922 94.6927 285.552 95.3906 286.406C96.0885 287.26 96.5 288.281 96.625 289.469H91.125C91.1042 289.177 90.9271 288.927 90.5938 288.719C90.2708 288.5 89.8906 288.391 89.4531 288.391C88.5573 288.391 88.1094 288.625 88.1094 289.094C88.1094 289.312 88.2292 289.479 88.4688 289.594C88.7188 289.698 89.0469 289.766 89.4531 289.797C89.8594 289.818 90.3177 289.854 90.8281 289.906C91.349 289.958 91.875 290.016 92.4062 290.078C92.9479 290.141 93.474 290.286 93.9844 290.516C94.5052 290.734 94.9688 291.016 95.375 291.359C95.7812 291.703 96.1042 292.193 96.3438 292.828C96.5938 293.453 96.7188 294.193 96.7188 295.047C96.7188 296.516 96.0938 297.76 94.8438 298.781C93.5938 299.802 92.0625 300.312 90.25 300.312ZM109.797 289.703H106.203V292.828C106.203 293.453 106.432 293.943 106.891 294.297C107.349 294.641 107.922 294.812 108.609 294.812C109.078 294.812 109.474 294.771 109.797 294.688V300C109.099 300.188 108.245 300.281 107.234 300.281C105.214 300.281 103.578 299.62 102.328 298.297C101.078 296.964 100.453 295.172 100.453 292.922V289.703H97.625V284.188H100.453V280.188H106.203V284.188H109.797V289.703ZM119.109 300.312C116.755 300.312 114.786 299.536 113.203 297.984C111.62 296.422 110.828 294.469 110.828 292.125C110.828 290.573 111.188 289.167 111.906 287.906C112.635 286.646 113.63 285.661 114.891 284.953C116.151 284.234 117.557 283.875 119.109 283.875C121.453 283.875 123.422 284.661 125.016 286.234C126.609 287.807 127.406 289.771 127.406 292.125C127.406 293.667 127.042 295.068 126.312 296.328C125.583 297.578 124.583 298.557 123.312 299.266C122.052 299.964 120.651 300.312 119.109 300.312ZM119.109 294.781C119.87 294.781 120.521 294.531 121.062 294.031C121.604 293.521 121.875 292.885 121.875 292.125C121.875 291.354 121.604 290.708 121.062 290.188C120.521 289.667 119.87 289.406 119.109 289.406C118.339 289.406 117.688 289.667 117.156 290.188C116.625 290.708 116.359 291.354 116.359 292.125C116.359 292.885 116.625 293.521 117.156 294.031C117.688 294.531 118.339 294.781 119.109 294.781ZM147.516 283.875C149.38 283.875 150.922 284.443 152.141 285.578C153.37 286.714 153.984 288.193 153.984 290.016V300H148.188V291.234C148.188 290.609 148.026 290.12 147.703 289.766C147.38 289.401 146.943 289.219 146.391 289.219C146.026 289.219 145.656 289.328 145.281 289.547C144.917 289.755 144.661 290.031 144.516 290.375V300H138.75V291.234C138.75 290.63 138.583 290.146 138.25 289.781C137.917 289.406 137.516 289.219 137.047 289.219C136.589 289.219 136.182 289.328 135.828 289.547C135.474 289.766 135.219 290.062 135.062 290.438V300H129.312V284.188H135.062V285.703C135.458 285.172 136.01 284.734 136.719 284.391C137.438 284.047 138.266 283.875 139.203 283.875C140.099 283.875 140.859 284.016 141.484 284.297C142.12 284.568 142.661 285.021 143.109 285.656C143.609 285.156 144.25 284.734 145.031 284.391C145.823 284.047 146.651 283.875 147.516 283.875ZM159.281 276.094C160.208 276.094 161 276.427 161.656 277.094C162.312 277.75 162.641 278.536 162.641 279.453C162.641 280.37 162.312 281.161 161.656 281.828C161 282.484 160.208 282.812 159.281 282.812C158.365 282.812 157.573 282.484 156.906 281.828C156.25 281.161 155.922 280.37 155.922 279.453C155.922 278.536 156.25 277.75 156.906 277.094C157.573 276.427 158.365 276.094 159.281 276.094ZM156.406 284.188H162.156V300H156.406V284.188ZM178.484 284.188V288.25L172.406 294.469H178.609V300H163.922V295.969L170.062 289.703H164.469V284.188H178.484ZM191.469 284.188H197.234V300H191.469V298.469C191.135 299.031 190.589 299.479 189.828 299.812C189.068 300.146 188.229 300.312 187.312 300.312C185.354 300.312 183.682 299.51 182.297 297.906C180.922 296.292 180.234 294.354 180.234 292.094C180.234 289.833 180.922 287.901 182.297 286.297C183.682 284.682 185.354 283.875 187.312 283.875C188.208 283.875 189.036 284.047 189.797 284.391C190.557 284.724 191.115 285.172 191.469 285.734V284.188ZM188.625 294.844C189.25 294.844 189.807 294.708 190.297 294.438C190.786 294.167 191.177 293.812 191.469 293.375V290.844C191.177 290.396 190.786 290.036 190.297 289.766C189.807 289.484 189.25 289.344 188.625 289.344C187.854 289.344 187.203 289.609 186.672 290.141C186.141 290.661 185.875 291.312 185.875 292.094C185.875 292.875 186.141 293.531 186.672 294.062C187.203 294.583 187.854 294.844 188.625 294.844ZM210.828 289.703H207.234V292.828C207.234 293.453 207.464 293.943 207.922 294.297C208.38 294.641 208.953 294.812 209.641 294.812C210.109 294.812 210.505 294.771 210.828 294.688V300C210.13 300.188 209.276 300.281 208.266 300.281C206.245 300.281 204.609 299.62 203.359 298.297C202.109 296.964 201.484 295.172 201.484 292.922V289.703H198.656V284.188H201.484V280.188H207.234V284.188H210.828V289.703ZM215.75 276.094C216.677 276.094 217.469 276.427 218.125 277.094C218.781 277.75 219.109 278.536 219.109 279.453C219.109 280.37 218.781 281.161 218.125 281.828C217.469 282.484 216.677 282.812 215.75 282.812C214.833 282.812 214.042 282.484 213.375 281.828C212.719 281.161 212.391 280.37 212.391 279.453C212.391 278.536 212.719 277.75 213.375 277.094C214.042 276.427 214.833 276.094 215.75 276.094ZM212.875 284.188H218.625V300H212.875V284.188ZM228.828 300.312C226.474 300.312 224.505 299.536 222.922 297.984C221.339 296.422 220.547 294.469 220.547 292.125C220.547 290.573 220.906 289.167 221.625 287.906C222.354 286.646 223.349 285.661 224.609 284.953C225.87 284.234 227.276 283.875 228.828 283.875C231.172 283.875 233.141 284.661 234.734 286.234C236.328 287.807 237.125 289.771 237.125 292.125C237.125 293.667 236.76 295.068 236.031 296.328C235.302 297.578 234.302 298.557 233.031 299.266C231.771 299.964 230.37 300.312 228.828 300.312ZM228.828 294.781C229.589 294.781 230.24 294.531 230.781 294.031C231.323 293.521 231.594 292.885 231.594 292.125C231.594 291.354 231.323 290.708 230.781 290.188C230.24 289.667 229.589 289.406 228.828 289.406C228.057 289.406 227.406 289.667 226.875 290.188C226.344 290.708 226.078 291.354 226.078 292.125C226.078 292.885 226.344 293.521 226.875 294.031C227.406 294.531 228.057 294.781 228.828 294.781ZM248.406 283.875C250.417 283.875 251.984 284.521 253.109 285.812C254.234 287.094 254.797 288.88 254.797 291.172V300H249.047V292.156C249.047 291.312 248.859 290.682 248.484 290.266C248.109 289.839 247.573 289.625 246.875 289.625C246.49 289.625 246.104 289.74 245.719 289.969C245.333 290.188 245.021 290.479 244.781 290.844V300H239.031V284.188H244.781V285.766C245.177 285.172 245.698 284.708 246.344 284.375C247 284.042 247.688 283.875 248.406 283.875ZM64.5156 348H56.6094L55.2656 346.531C53.5052 347.719 51.6042 348.312 49.5625 348.312C47.2812 348.312 45.401 347.682 43.9219 346.422C42.4427 345.151 41.7031 343.531 41.7031 341.562C41.7031 340.115 42.0417 338.948 42.7188 338.062C43.4062 337.167 44.3542 336.427 45.5625 335.844C44.7292 334.604 44.3125 333.25 44.3125 331.781C44.3125 329.979 44.9583 328.448 46.25 327.188C47.5417 325.917 49.1146 325.281 50.9688 325.281C52.8125 325.281 54.3802 325.917 55.6719 327.188C56.974 328.448 57.625 329.979 57.625 331.781C57.625 333.094 57.3281 334.167 56.7344 335C56.151 335.823 55.3385 336.51 54.2969 337.062L55.8125 338.656L57.3125 336.922H64.4531L59.4219 342.531L64.5156 348ZM49.5312 331.641C49.5312 331.901 49.6458 332.177 49.875 332.469C50.1042 332.76 50.4688 333.146 50.9688 333.625C51.9375 333.083 52.4219 332.422 52.4219 331.641C52.4219 331.245 52.2812 330.911 52 330.641C51.7292 330.37 51.3854 330.234 50.9688 330.234C50.5521 330.234 50.2083 330.37 49.9375 330.641C49.6667 330.911 49.5312 331.245 49.5312 331.641ZM49.7656 343.078C50.401 343.078 51.0417 342.938 51.6875 342.656L48.6719 339.391C47.8177 339.932 47.3906 340.583 47.3906 341.344C47.3906 341.844 47.6198 342.26 48.0781 342.594C48.5469 342.917 49.1094 343.078 49.7656 343.078ZM91.0312 325.594V331.422H84.9531V348H78.875V331.422H72.7969V325.594H91.0312ZM102.125 331.875C104.135 331.875 105.703 332.521 106.828 333.812C107.953 335.094 108.516 336.88 108.516 339.172V348H102.766V340.156C102.766 339.312 102.578 338.682 102.203 338.266C101.828 337.839 101.292 337.625 100.594 337.625C100.219 337.625 99.8385 337.734 99.4531 337.953C99.0781 338.172 98.7708 338.458 98.5312 338.812V348H92.7812V325.594H98.5312V333.703C98.9271 333.141 99.4427 332.698 100.078 332.375C100.724 332.042 101.406 331.875 102.125 331.875ZM126.672 339.609C126.672 340.109 126.63 340.807 126.547 341.703H115.797C116.005 342.297 116.365 342.76 116.875 343.094C117.385 343.417 117.995 343.578 118.703 343.578C119.88 343.578 120.578 343.219 120.797 342.5H126.422C126.182 344.271 125.375 345.682 124 346.734C122.635 347.786 120.927 348.312 118.875 348.312C117.333 348.312 115.917 347.948 114.625 347.219C113.333 346.49 112.312 345.49 111.562 344.219C110.823 342.948 110.453 341.552 110.453 340.031C110.453 338.521 110.818 337.141 111.547 335.891C112.276 334.641 113.276 333.661 114.547 332.953C115.828 332.234 117.24 331.875 118.781 331.875C120.938 331.875 122.792 332.625 124.344 334.125C125.896 335.625 126.672 337.453 126.672 339.609ZM115.984 338.078H120.656C120.594 337.609 120.354 337.234 119.938 336.953C119.521 336.661 119.036 336.516 118.484 336.516C117.255 336.516 116.422 337.036 115.984 338.078ZM146.797 331.875C148.661 331.875 150.203 332.443 151.422 333.578C152.651 334.714 153.266 336.193 153.266 338.016V348H147.469V339.234C147.469 338.609 147.307 338.12 146.984 337.766C146.661 337.401 146.224 337.219 145.672 337.219C145.307 337.219 144.938 337.328 144.562 337.547C144.198 337.755 143.943 338.031 143.797 338.375V348H138.031V339.234C138.031 338.63 137.865 338.146 137.531 337.781C137.198 337.406 136.797 337.219 136.328 337.219C135.87 337.219 135.464 337.328 135.109 337.547C134.755 337.766 134.5 338.062 134.344 338.438V348H128.594V332.188H134.344V333.703C134.74 333.172 135.292 332.734 136 332.391C136.719 332.047 137.547 331.875 138.484 331.875C139.38 331.875 140.141 332.016 140.766 332.297C141.401 332.568 141.943 333.021 142.391 333.656C142.891 333.156 143.531 332.734 144.312 332.391C145.104 332.047 145.932 331.875 146.797 331.875ZM158.562 324.094C159.49 324.094 160.281 324.427 160.938 325.094C161.594 325.75 161.922 326.536 161.922 327.453C161.922 328.37 161.594 329.161 160.938 329.828C160.281 330.484 159.49 330.812 158.562 330.812C157.646 330.812 156.854 330.484 156.188 329.828C155.531 329.161 155.203 328.37 155.203 327.453C155.203 326.536 155.531 325.75 156.188 325.094C156.854 324.427 157.646 324.094 158.562 324.094ZM155.688 332.188H161.438V348H155.688V332.188ZM173.25 331.875C175.26 331.875 176.828 332.521 177.953 333.812C179.078 335.094 179.641 336.88 179.641 339.172V348H173.891V340.156C173.891 339.312 173.703 338.682 173.328 338.266C172.953 337.839 172.417 337.625 171.719 337.625C171.333 337.625 170.948 337.74 170.562 337.969C170.177 338.188 169.865 338.479 169.625 338.844V348H163.875V332.188H169.625V333.766C170.021 333.172 170.542 332.708 171.188 332.375C171.844 332.042 172.531 331.875 173.25 331.875ZM192.812 332.156H198.578V347.203C198.578 348.672 198.198 349.958 197.438 351.062C196.688 352.167 195.682 352.995 194.422 353.547C193.172 354.099 191.771 354.375 190.219 354.375C189.802 354.375 189.38 354.354 188.953 354.312C188.526 354.281 188.031 354.208 187.469 354.094C186.917 353.979 186.391 353.828 185.891 353.641C185.391 353.464 184.885 353.214 184.375 352.891C183.875 352.578 183.438 352.214 183.062 351.797C182.688 351.38 182.37 350.865 182.109 350.25C181.849 349.635 181.693 348.958 181.641 348.219H187.406C187.49 348.667 187.776 348.995 188.266 349.203C188.755 349.422 189.344 349.531 190.031 349.531C190.729 349.531 191.365 349.339 191.938 348.953C192.521 348.568 192.812 348.068 192.812 347.453V345.891C192.479 346.432 191.932 346.87 191.172 347.203C190.411 347.526 189.573 347.688 188.656 347.688C187.365 347.688 186.172 347.333 185.078 346.625C183.995 345.906 183.141 344.943 182.516 343.734C181.891 342.516 181.578 341.198 181.578 339.781C181.578 338.354 181.891 337.036 182.516 335.828C183.141 334.609 183.995 333.646 185.078 332.938C186.172 332.229 187.365 331.875 188.656 331.875C189.562 331.875 190.391 332.036 191.141 332.359C191.901 332.672 192.458 333.094 192.812 333.625V332.156ZM189.969 342.406C190.594 342.406 191.151 342.276 191.641 342.016C192.13 341.745 192.521 341.391 192.812 340.953V338.562C192.177 337.604 191.229 337.125 189.969 337.125C189.198 337.125 188.547 337.38 188.016 337.891C187.484 338.401 187.219 339.031 187.219 339.781C187.219 340.531 187.484 341.156 188.016 341.656C188.547 342.156 189.198 342.406 189.969 342.406Z" fill="white"/>
<g clip-path="url(#clip1_1_10346)">
<path d="M-5.38184 71.5898L124.828 -61.2692L105.786 -83.9366C97.9939 -83.386 90.1416 -82.0964 82.3157 -79.9994C16.2655 -62.3013 -22.9577 5.536 -5.38184 71.5898Z" fill="#077CCC"/>
<path d="M-4.84489 71.6725C-4.85313 71.6418 -4.86098 71.6104 -4.87001 71.5743L-4.89903 71.4609C-4.89908 71.4607 -4.89914 71.4605 -4.89919 71.4603C-18.8058 18.9843 22.989 -37.9217 88.8605 -55.5728C100.911 -58.8016 112.924 -60.4846 124.599 -60.7654L191.63 19.0263L168.322 150.783C161.394 154.137 154.056 156.897 146.346 158.963C80.4915 176.608 12.8008 137.527 -4.84489 71.6725Z" fill="#6200EE" stroke="#333333"/>
<path d="M109.412 -84.1316L185.167 20.7616L340.82 -20.9455C353.513 -46.8895 357.249 -77.3593 349.186 -107.45C335.013 -160.346 269.92 -188.866 203.799 -171.149C154.646 -157.979 118.77 -122.964 109.412 -84.1316Z" fill="#FF5178"/>
<path d="M109.74 -43.2909C117.803 -13.2014 136.273 11.3174 160.237 27.4399L217.22 -29.5344C193.422 -64.8706 152.558 -85.9068 109.412 -84.1315C106.181 -70.7256 106.103 -56.8658 109.74 -43.2909Z" fill="#FFC107"/>
<path d="M391.31 49.7597C383.244 19.6814 364.778 -4.82824 340.821 -20.9459L318.921 -15.0779L391.31 49.7597Z" fill="#FFB24A"/>
<path d="M186.529 21.948L170.329 150.748C198.808 192.616 251.617 213.982 303.286 200.137C368.607 182.634 407.371 115.493 389.868 50.1725L186.529 21.948ZM186.529 21.948L318.931 -13.5288C354.012 -4.56848 381.335 18.3666 389.868 50.1721L186.529 21.948Z" fill="#00DDD0" stroke="black" stroke-width="3"/>
<path d="M160.237 27.4393C147.544 53.3833 143.809 83.8539 151.871 113.943L184.627 20.904L160.237 27.4393Z" fill="#360083"/>
<path d="M151.871 113.942C155.521 127.565 161.309 140.043 168.77 151.121C208.858 131.608 235.051 91.9813 238.074 48.2899L171.006 33.9183C152.391 57.6349 144.486 86.3773 151.871 113.942Z" fill="#360083"/>
<path d="M217.219 -29.5347C221.681 -22.909 225.54 -15.7784 228.705 -8.20541L334.732 -9.95315C336.942 -13.513 338.977 -17.1808 340.819 -20.9455C312.122 -40.2517 275.544 -47.5138 239.513 -37.8591C231.687 -35.7622 224.243 -32.9531 217.219 -29.5347Z" fill="#FF7169"/>
<path d="M228.706 -8.20572C230.834 -3.11694 232.651 2.16948 234.118 7.644C237.768 21.2668 238.995 34.9667 238.073 48.2903C245.865 47.7397 253.717 46.4503 261.543 44.3531C293.208 35.8687 318.701 15.8577 334.732 -9.95325C309.018 -20.2751 277.594 -22.4003 245.93 -13.9159C239.986 -12.3222 234.239 -10.4052 228.706 -8.20572Z" fill="#FFC107"/>
<path d="M160.238 27.4384C163.716 29.7785 167.311 31.9411 171.006 33.9178L228.706 -8.20659C225.54 -15.7794 221.682 -22.9102 217.22 -29.5359C191.91 -17.2158 172.136 3.11966 160.238 27.4384Z" fill="#FFC107"/>
<path d="M238.074 48.2896C238.996 34.9661 237.769 21.2662 234.118 7.64336C232.652 2.16885 230.834 -3.11757 228.706 -8.20636C204.767 1.31184 184.902 16.2132 171.006 33.918C191.173 44.7099 214.342 49.9682 238.074 48.2896Z" fill="#FFC107"/>
</g>
</g>
</g>
<defs>
<filter id="filter0_b_1_10346" x="-28" y="-28" width="428" height="455" filterUnits="userSpaceOnUse" color-interpolation-filters="sRGB">
<feFlood flood-opacity="0" result="BackgroundImageFix"/>
<feGaussianBlur in="BackgroundImageFix" stdDeviation="14"/>
<feComposite in2="SourceAlpha" operator="in" result="effect1_backgroundBlur_1_10346"/>
<feBlend mode="normal" in="SourceGraphic" in2="effect1_backgroundBlur_1_10346" result="shape"/>
</filter>
<clipPath id="clip0_1_10346">
<rect width="372" height="399" rx="16" fill="white"/>
</clipPath>
<clipPath id="clip1_1_10346">
<rect width="410.674" height="410.674" fill="white" transform="translate(37.2666 272.971) rotate(-105)"/>
</clipPath>
</defs>
</svg>
