<svg width="372" height="399" viewBox="0 0 372 399" fill="none" xmlns="http://www.w3.org/2000/svg">
<g filter="url(#filter0_b_1_10406)">
<g clip-path="url(#clip0_1_10406)">
<rect width="372" height="399" rx="16" fill="#919191" fill-opacity="0.1"/>
<path d="M49.7344 300.312C47.1823 300.312 45.0833 299.562 43.4375 298.062C41.8021 296.562 40.9844 294.646 40.9844 292.312H47.0156C47.0156 293.01 47.2604 293.568 47.75 293.984C48.25 294.391 48.9115 294.594 49.7344 294.594C50.4844 294.594 51.0729 294.464 51.5 294.203C51.9375 293.932 52.1562 293.562 52.1562 293.094C52.1562 292.823 52.0312 292.589 51.7812 292.391C51.5312 292.193 51.1927 292.026 50.7656 291.891C50.3385 291.745 49.849 291.609 49.2969 291.484C48.7552 291.349 48.1771 291.198 47.5625 291.031C46.9583 290.865 46.349 290.677 45.7344 290.469C45.1302 290.25 44.5521 289.964 44 289.609C43.4583 289.255 42.974 288.849 42.5469 288.391C42.1198 287.922 41.7812 287.339 41.5312 286.641C41.2812 285.932 41.1562 285.146 41.1562 284.281C41.1562 282.26 41.9062 280.589 43.4062 279.266C44.9167 277.943 46.8125 277.281 49.0938 277.281C50.25 277.281 51.3021 277.427 52.25 277.719C53.1979 278.01 53.9896 278.411 54.625 278.922C55.2708 279.422 55.8073 280.016 56.2344 280.703C56.6719 281.391 56.9844 282.115 57.1719 282.875C57.3698 283.635 57.4688 284.438 57.4688 285.281H51.1719C51.1927 284.615 50.9948 284.073 50.5781 283.656C50.1719 283.229 49.599 283.016 48.8594 283.016C47.6719 283.016 47.0781 283.427 47.0781 284.25C47.0781 284.521 47.2031 284.755 47.4531 284.953C47.7135 285.141 48.0573 285.302 48.4844 285.438C48.9115 285.573 49.401 285.703 49.9531 285.828C50.5052 285.953 51.0885 286.099 51.7031 286.266C52.3177 286.422 52.9323 286.609 53.5469 286.828C54.1615 287.047 54.7448 287.333 55.2969 287.688C55.849 288.042 56.3385 288.453 56.7656 288.922C57.1927 289.391 57.5312 289.984 57.7812 290.703C58.0417 291.411 58.1719 292.208 58.1719 293.094C58.1719 293.99 57.9844 294.865 57.6094 295.719C57.2344 296.573 56.7031 297.344 56.0156 298.031C55.3281 298.719 54.4375 299.271 53.3438 299.688C52.2604 300.104 51.0573 300.312 49.7344 300.312ZM70.2656 284.188H76.0156V300H70.2656V298.438C69.8698 299.021 69.349 299.479 68.7031 299.812C68.0573 300.146 67.3698 300.312 66.6406 300.312C64.6302 300.312 63.0625 299.672 61.9375 298.391C60.8125 297.109 60.25 295.323 60.25 293.031V284.188H66V292.031C66 292.865 66.1875 293.495 66.5625 293.922C66.9479 294.349 67.4896 294.562 68.1875 294.562C68.5729 294.562 68.9531 294.453 69.3281 294.234C69.7135 294.005 70.026 293.708 70.2656 293.344V284.188ZM88.3906 283.875C90.349 283.875 92.0156 284.682 93.3906 286.297C94.7656 287.901 95.4531 289.833 95.4531 292.094C95.4531 294.354 94.7656 296.292 93.3906 297.906C92.0156 299.51 90.349 300.312 88.3906 300.312C87.4844 300.312 86.651 300.146 85.8906 299.812C85.1302 299.479 84.5729 299.031 84.2188 298.469V304.797H78.4688V284.188H84.2188V285.734C84.5521 285.172 85.099 284.724 85.8594 284.391C86.6302 284.047 87.474 283.875 88.3906 283.875ZM87.0781 294.844C87.849 294.844 88.5 294.583 89.0312 294.062C89.5625 293.531 89.8281 292.875 89.8281 292.094C89.8281 291.312 89.5625 290.661 89.0312 290.141C88.5 289.609 87.849 289.344 87.0781 289.344C86.4531 289.344 85.8906 289.479 85.3906 289.75C84.901 290.021 84.5104 290.375 84.2188 290.812V293.344C84.5104 293.792 84.901 294.156 85.3906 294.438C85.8802 294.708 86.4427 294.844 87.0781 294.844ZM107.297 283.875C109.255 283.875 110.922 284.682 112.297 286.297C113.672 287.901 114.359 289.833 114.359 292.094C114.359 294.354 113.672 296.292 112.297 297.906C110.922 299.51 109.255 300.312 107.297 300.312C106.391 300.312 105.557 300.146 104.797 299.812C104.036 299.479 103.479 299.031 103.125 298.469V304.797H97.375V284.188H103.125V285.734C103.458 285.172 104.005 284.724 104.766 284.391C105.536 284.047 106.38 283.875 107.297 283.875ZM105.984 294.844C106.755 294.844 107.406 294.583 107.938 294.062C108.469 293.531 108.734 292.875 108.734 292.094C108.734 291.312 108.469 290.661 107.938 290.141C107.406 289.609 106.755 289.344 105.984 289.344C105.359 289.344 104.797 289.479 104.297 289.75C103.807 290.021 103.417 290.375 103.125 290.812V293.344C103.417 293.792 103.807 294.156 104.297 294.438C104.786 294.708 105.349 294.844 105.984 294.844ZM124.047 300.312C121.693 300.312 119.724 299.536 118.141 297.984C116.557 296.422 115.766 294.469 115.766 292.125C115.766 290.573 116.125 289.167 116.844 287.906C117.573 286.646 118.568 285.661 119.828 284.953C121.089 284.234 122.495 283.875 124.047 283.875C126.391 283.875 128.359 284.661 129.953 286.234C131.547 287.807 132.344 289.771 132.344 292.125C132.344 293.667 131.979 295.068 131.25 296.328C130.521 297.578 129.521 298.557 128.25 299.266C126.99 299.964 125.589 300.312 124.047 300.312ZM124.047 294.781C124.807 294.781 125.458 294.531 126 294.031C126.542 293.521 126.812 292.885 126.812 292.125C126.812 291.354 126.542 290.708 126 290.188C125.458 289.667 124.807 289.406 124.047 289.406C123.276 289.406 122.625 289.667 122.094 290.188C121.562 290.708 121.297 291.354 121.297 292.125C121.297 292.885 121.562 293.521 122.094 294.031C122.625 294.531 123.276 294.781 124.047 294.781ZM143.531 283.875C144.396 283.875 145.026 283.979 145.422 284.188V289.562C144.589 289.333 143.797 289.219 143.047 289.219C142.557 289.219 142 289.396 141.375 289.75C140.75 290.104 140.292 290.589 140 291.203V300H134.25V284.188H140V285.766C140.323 285.214 140.833 284.76 141.531 284.406C142.24 284.052 142.906 283.875 143.531 283.875ZM158.766 289.703H155.172V292.828C155.172 293.453 155.401 293.943 155.859 294.297C156.318 294.641 156.891 294.812 157.578 294.812C158.047 294.812 158.443 294.771 158.766 294.688V300C158.068 300.188 157.214 300.281 156.203 300.281C154.182 300.281 152.547 299.62 151.297 298.297C150.047 296.964 149.422 295.172 149.422 292.922V289.703H146.594V284.188H149.422V280.188H155.172V284.188H158.766V289.703ZM163.688 276.094C164.615 276.094 165.406 276.427 166.062 277.094C166.719 277.75 167.047 278.536 167.047 279.453C167.047 280.37 166.719 281.161 166.062 281.828C165.406 282.484 164.615 282.812 163.688 282.812C162.771 282.812 161.979 282.484 161.312 281.828C160.656 281.161 160.328 280.37 160.328 279.453C160.328 278.536 160.656 277.75 161.312 277.094C161.979 276.427 162.771 276.094 163.688 276.094ZM160.812 284.188H166.562V300H160.812V284.188ZM178.375 283.875C180.385 283.875 181.953 284.521 183.078 285.812C184.203 287.094 184.766 288.88 184.766 291.172V300H179.016V292.156C179.016 291.312 178.828 290.682 178.453 290.266C178.078 289.839 177.542 289.625 176.844 289.625C176.458 289.625 176.073 289.74 175.688 289.969C175.302 290.188 174.99 290.479 174.75 290.844V300H169V284.188H174.75V285.766C175.146 285.172 175.667 284.708 176.312 284.375C176.969 284.042 177.656 283.875 178.375 283.875ZM197.938 284.156H203.703V299.203C203.703 300.672 203.323 301.958 202.562 303.062C201.812 304.167 200.807 304.995 199.547 305.547C198.297 306.099 196.896 306.375 195.344 306.375C194.927 306.375 194.505 306.354 194.078 306.312C193.651 306.281 193.156 306.208 192.594 306.094C192.042 305.979 191.516 305.828 191.016 305.641C190.516 305.464 190.01 305.214 189.5 304.891C189 304.578 188.562 304.214 188.188 303.797C187.812 303.38 187.495 302.865 187.234 302.25C186.974 301.635 186.818 300.958 186.766 300.219H192.531C192.615 300.667 192.901 300.995 193.391 301.203C193.88 301.422 194.469 301.531 195.156 301.531C195.854 301.531 196.49 301.339 197.062 300.953C197.646 300.568 197.938 300.068 197.938 299.453V297.891C197.604 298.432 197.057 298.87 196.297 299.203C195.536 299.526 194.698 299.688 193.781 299.688C192.49 299.688 191.297 299.333 190.203 298.625C189.12 297.906 188.266 296.943 187.641 295.734C187.016 294.516 186.703 293.198 186.703 291.781C186.703 290.354 187.016 289.036 187.641 287.828C188.266 286.609 189.12 285.646 190.203 284.938C191.297 284.229 192.49 283.875 193.781 283.875C194.688 283.875 195.516 284.036 196.266 284.359C197.026 284.672 197.583 285.094 197.938 285.625V284.156ZM195.094 294.406C195.719 294.406 196.276 294.276 196.766 294.016C197.255 293.745 197.646 293.391 197.938 292.953V290.562C197.302 289.604 196.354 289.125 195.094 289.125C194.323 289.125 193.672 289.38 193.141 289.891C192.609 290.401 192.344 291.031 192.344 291.781C192.344 292.531 192.609 293.156 193.141 293.656C193.672 294.156 194.323 294.406 195.094 294.406ZM41.2188 348V325.594H48.6406L54.2031 339.078L60.2188 325.594H66.4375V348H60.3594V337.344L55.9062 348H51.5469L47.2969 337.344V348H41.2188ZM78.8906 332.188H84.6406V348H78.8906V346.438C78.4948 347.021 77.974 347.479 77.3281 347.812C76.6823 348.146 75.9948 348.312 75.2656 348.312C73.2552 348.312 71.6875 347.672 70.5625 346.391C69.4375 345.109 68.875 343.323 68.875 341.031V332.188H74.625V340.031C74.625 340.865 74.8125 341.495 75.1875 341.922C75.5729 342.349 76.1146 342.562 76.8125 342.562C77.1979 342.562 77.5781 342.453 77.9531 342.234C78.3385 342.005 78.651 341.708 78.8906 341.344V332.188ZM92.8438 325.594V348H87.0938V325.594H92.8438ZM106.453 337.703H102.859V340.828C102.859 341.453 103.089 341.943 103.547 342.297C104.005 342.641 104.578 342.812 105.266 342.812C105.734 342.812 106.13 342.771 106.453 342.688V348C105.755 348.188 104.901 348.281 103.891 348.281C101.87 348.281 100.234 347.62 98.9844 346.297C97.7344 344.964 97.1094 343.172 97.1094 340.922V337.703H94.2812V332.188H97.1094V328.188H102.859V332.188H106.453V337.703ZM111.375 324.094C112.302 324.094 113.094 324.427 113.75 325.094C114.406 325.75 114.734 326.536 114.734 327.453C114.734 328.37 114.406 329.161 113.75 329.828C113.094 330.484 112.302 330.812 111.375 330.812C110.458 330.812 109.667 330.484 109 329.828C108.344 329.161 108.016 328.37 108.016 327.453C108.016 326.536 108.344 325.75 109 325.094C109.667 324.427 110.458 324.094 111.375 324.094ZM108.5 332.188H114.25V348H108.5V332.188ZM122.531 325.594H128.609V342.172H138.234V348H122.531V325.594ZM150.781 332.188H156.547V348H150.781V346.469C150.448 347.031 149.901 347.479 149.141 347.812C148.38 348.146 147.542 348.312 146.625 348.312C144.667 348.312 142.995 347.51 141.609 345.906C140.234 344.292 139.547 342.354 139.547 340.094C139.547 337.833 140.234 335.901 141.609 334.297C142.995 332.682 144.667 331.875 146.625 331.875C147.521 331.875 148.349 332.047 149.109 332.391C149.87 332.724 150.427 333.172 150.781 333.734V332.188ZM147.938 342.844C148.562 342.844 149.12 342.708 149.609 342.438C150.099 342.167 150.49 341.812 150.781 341.375V338.844C150.49 338.396 150.099 338.036 149.609 337.766C149.12 337.484 148.562 337.344 147.938 337.344C147.167 337.344 146.516 337.609 145.984 338.141C145.453 338.661 145.188 339.312 145.188 340.094C145.188 340.875 145.453 341.531 145.984 342.062C146.516 342.583 147.167 342.844 147.938 342.844ZM168.344 331.875C170.354 331.875 171.922 332.521 173.047 333.812C174.172 335.094 174.734 336.88 174.734 339.172V348H168.984V340.156C168.984 339.312 168.797 338.682 168.422 338.266C168.047 337.839 167.51 337.625 166.812 337.625C166.427 337.625 166.042 337.74 165.656 337.969C165.271 338.188 164.958 338.479 164.719 338.844V348H158.969V332.188H164.719V333.766C165.115 333.172 165.635 332.708 166.281 332.375C166.938 332.042 167.625 331.875 168.344 331.875ZM187.906 332.156H193.672V347.203C193.672 348.672 193.292 349.958 192.531 351.062C191.781 352.167 190.776 352.995 189.516 353.547C188.266 354.099 186.865 354.375 185.312 354.375C184.896 354.375 184.474 354.354 184.047 354.312C183.62 354.281 183.125 354.208 182.562 354.094C182.01 353.979 181.484 353.828 180.984 353.641C180.484 353.464 179.979 353.214 179.469 352.891C178.969 352.578 178.531 352.214 178.156 351.797C177.781 351.38 177.464 350.865 177.203 350.25C176.943 349.635 176.786 348.958 176.734 348.219H182.5C182.583 348.667 182.87 348.995 183.359 349.203C183.849 349.422 184.438 349.531 185.125 349.531C185.823 349.531 186.458 349.339 187.031 348.953C187.615 348.568 187.906 348.068 187.906 347.453V345.891C187.573 346.432 187.026 346.87 186.266 347.203C185.505 347.526 184.667 347.688 183.75 347.688C182.458 347.688 181.266 347.333 180.172 346.625C179.089 345.906 178.234 344.943 177.609 343.734C176.984 342.516 176.672 341.198 176.672 339.781C176.672 338.354 176.984 337.036 177.609 335.828C178.234 334.609 179.089 333.646 180.172 332.938C181.266 332.229 182.458 331.875 183.75 331.875C184.656 331.875 185.484 332.036 186.234 332.359C186.995 332.672 187.552 333.094 187.906 333.625V332.156ZM185.062 342.406C185.688 342.406 186.245 342.276 186.734 342.016C187.224 341.745 187.615 341.391 187.906 340.953V338.562C187.271 337.604 186.323 337.125 185.062 337.125C184.292 337.125 183.641 337.38 183.109 337.891C182.578 338.401 182.312 339.031 182.312 339.781C182.312 340.531 182.578 341.156 183.109 341.656C183.641 342.156 184.292 342.406 185.062 342.406ZM206.109 332.188H211.859V348H206.109V346.438C205.714 347.021 205.193 347.479 204.547 347.812C203.901 348.146 203.214 348.312 202.484 348.312C200.474 348.312 198.906 347.672 197.781 346.391C196.656 345.109 196.094 343.323 196.094 341.031V332.188H201.844V340.031C201.844 340.865 202.031 341.495 202.406 341.922C202.792 342.349 203.333 342.562 204.031 342.562C204.417 342.562 204.797 342.453 205.172 342.234C205.557 342.005 205.87 341.708 206.109 341.344V332.188ZM225.031 332.188H230.797V348H225.031V346.469C224.698 347.031 224.151 347.479 223.391 347.812C222.63 348.146 221.792 348.312 220.875 348.312C218.917 348.312 217.245 347.51 215.859 345.906C214.484 344.292 213.797 342.354 213.797 340.094C213.797 337.833 214.484 335.901 215.859 334.297C217.245 332.682 218.917 331.875 220.875 331.875C221.771 331.875 222.599 332.047 223.359 332.391C224.12 332.724 224.677 333.172 225.031 333.734V332.188ZM222.188 342.844C222.812 342.844 223.37 342.708 223.859 342.438C224.349 342.167 224.74 341.812 225.031 341.375V338.844C224.74 338.396 224.349 338.036 223.859 337.766C223.37 337.484 222.812 337.344 222.188 337.344C221.417 337.344 220.766 337.609 220.234 338.141C219.703 338.661 219.438 339.312 219.438 340.094C219.438 340.875 219.703 341.531 220.234 342.062C220.766 342.583 221.417 342.844 222.188 342.844ZM243.938 332.156H249.703V347.203C249.703 348.672 249.323 349.958 248.562 351.062C247.812 352.167 246.807 352.995 245.547 353.547C244.297 354.099 242.896 354.375 241.344 354.375C240.927 354.375 240.505 354.354 240.078 354.312C239.651 354.281 239.156 354.208 238.594 354.094C238.042 353.979 237.516 353.828 237.016 353.641C236.516 353.464 236.01 353.214 235.5 352.891C235 352.578 234.562 352.214 234.188 351.797C233.812 351.38 233.495 350.865 233.234 350.25C232.974 349.635 232.818 348.958 232.766 348.219H238.531C238.615 348.667 238.901 348.995 239.391 349.203C239.88 349.422 240.469 349.531 241.156 349.531C241.854 349.531 242.49 349.339 243.062 348.953C243.646 348.568 243.938 348.068 243.938 347.453V345.891C243.604 346.432 243.057 346.87 242.297 347.203C241.536 347.526 240.698 347.688 239.781 347.688C238.49 347.688 237.297 347.333 236.203 346.625C235.12 345.906 234.266 344.943 233.641 343.734C233.016 342.516 232.703 341.198 232.703 339.781C232.703 338.354 233.016 337.036 233.641 335.828C234.266 334.609 235.12 333.646 236.203 332.938C237.297 332.229 238.49 331.875 239.781 331.875C240.688 331.875 241.516 332.036 242.266 332.359C243.026 332.672 243.583 333.094 243.938 333.625V332.156ZM241.094 342.406C241.719 342.406 242.276 342.276 242.766 342.016C243.255 341.745 243.646 341.391 243.938 340.953V338.562C243.302 337.604 242.354 337.125 241.094 337.125C240.323 337.125 239.672 337.38 239.141 337.891C238.609 338.401 238.344 339.031 238.344 339.781C238.344 340.531 238.609 341.156 239.141 341.656C239.672 342.156 240.323 342.406 241.094 342.406ZM267.828 339.609C267.828 340.109 267.786 340.807 267.703 341.703H256.953C257.161 342.297 257.521 342.76 258.031 343.094C258.542 343.417 259.151 343.578 259.859 343.578C261.036 343.578 261.734 343.219 261.953 342.5H267.578C267.339 344.271 266.531 345.682 265.156 346.734C263.792 347.786 262.083 348.312 260.031 348.312C258.49 348.312 257.073 347.948 255.781 347.219C254.49 346.49 253.469 345.49 252.719 344.219C251.979 342.948 251.609 341.552 251.609 340.031C251.609 338.521 251.974 337.141 252.703 335.891C253.432 334.641 254.432 333.661 255.703 332.953C256.984 332.234 258.396 331.875 259.938 331.875C262.094 331.875 263.948 332.625 265.5 334.125C267.052 335.625 267.828 337.453 267.828 339.609ZM257.141 338.078H261.812C261.75 337.609 261.51 337.234 261.094 336.953C260.677 336.661 260.193 336.516 259.641 336.516C258.411 336.516 257.578 337.036 257.141 338.078ZM276.094 348.312C273.885 348.312 272.094 347.792 270.719 346.75C269.344 345.698 268.578 344.25 268.422 342.406H273.609C273.641 342.771 273.859 343.083 274.266 343.344C274.682 343.594 275.167 343.719 275.719 343.719C276.74 343.719 277.25 343.484 277.25 343.016C277.25 342.766 277.094 342.573 276.781 342.438C276.469 342.292 276.057 342.188 275.547 342.125C275.047 342.052 274.495 341.979 273.891 341.906C273.286 341.833 272.677 341.698 272.062 341.5C271.458 341.302 270.901 341.047 270.391 340.734C269.891 340.411 269.484 339.943 269.172 339.328C268.859 338.703 268.703 337.958 268.703 337.094C268.703 335.646 269.292 334.422 270.469 333.422C271.656 332.411 273.245 331.906 275.234 331.906C276.474 331.906 277.609 332.109 278.641 332.516C279.672 332.922 280.536 333.552 281.234 334.406C281.932 335.26 282.344 336.281 282.469 337.469H276.969C276.948 337.177 276.771 336.927 276.438 336.719C276.115 336.5 275.734 336.391 275.297 336.391C274.401 336.391 273.953 336.625 273.953 337.094C273.953 337.312 274.073 337.479 274.312 337.594C274.562 337.698 274.891 337.766 275.297 337.797C275.703 337.818 276.161 337.854 276.672 337.906C277.193 337.958 277.719 338.016 278.25 338.078C278.792 338.141 279.318 338.286 279.828 338.516C280.349 338.734 280.812 339.016 281.219 339.359C281.625 339.703 281.948 340.193 282.188 340.828C282.438 341.453 282.562 342.193 282.562 343.047C282.562 344.516 281.938 345.76 280.688 346.781C279.438 347.802 277.906 348.312 276.094 348.312Z" fill="white"/>
<g clip-path="url(#clip1_1_10406)">
<path d="M245.15 131.506L235.603 112.412L226.056 131.506H245.15Z" fill="#00DDD0"/>
<path d="M282.442 57.2055H272.73V36.656C272.73 34.7172 271.909 32.8695 270.47 31.5697C269.032 30.2699 267.109 29.6405 265.182 29.8357C264.091 29.9463 239.64 32.7113 227.467 57.2055H217.506V72.2368C217.506 91.1327 202.133 106.505 183.237 106.505H168.206V171.442C168.206 182.778 177.428 192 188.764 192H282.442C293.778 192 303 182.778 303 171.442V77.7636C303 66.4279 293.778 57.2055 282.442 57.2055ZM201.952 149.056L229.471 94.018C230.632 91.6953 233.006 90.2283 235.603 90.2283C238.199 90.2283 240.573 91.6953 241.735 94.018L269.254 149.056C270.947 152.443 269.574 156.56 266.188 158.254C262.802 159.947 258.684 158.575 256.99 155.188L252.005 145.218H219.201L214.216 155.188C213.015 157.59 210.593 158.979 208.079 158.979C207.049 158.979 206.003 158.746 205.019 158.254C201.631 156.56 200.259 152.443 201.952 149.056Z" fill="#00DDD0"/>
<path d="M142.893 15.7422H129.901C130.75 22.5341 132.924 28.2447 136.398 32.8461C139.871 28.2447 142.045 22.5341 142.893 15.7422Z" fill="#6200EE"/>
<path d="M183.237 92.7945C194.573 92.7945 203.795 83.5721 203.795 72.2368V-21.4418C203.795 -32.7776 194.572 -42 183.237 -42H89.5582C78.2224 -42 69 -32.7776 69 -21.4418V72.2368C69 83.5725 78.2224 92.7945 89.5577 92.7945H99.2706V113.344C99.2706 115.283 100.091 117.131 101.53 118.43C102.796 119.574 104.435 120.199 106.126 120.199C106.355 120.199 106.587 120.188 106.818 120.164C107.909 120.054 132.36 117.289 144.533 92.7945H183.237ZM140.051 53.4615C138.852 52.8216 137.627 52.0991 136.397 51.2952C135.168 52.0991 133.943 52.8221 132.744 53.4615C121.047 59.7 109.37 59.7717 108.879 59.7717C105.093 59.7717 102.023 56.7023 102.023 52.9162C102.023 49.1302 105.093 46.0608 108.879 46.0608C108.939 46.0603 117.397 45.9374 125.814 41.613C120.998 35.4467 117.203 27.0798 116.107 15.7413H108.878C105.092 15.7413 102.023 12.6719 102.023 8.88586C102.023 5.09981 105.092 2.03039 108.878 2.03039H129.542V-2.12174C129.542 -5.90779 132.611 -8.97721 136.397 -8.97721C140.184 -8.97721 143.253 -5.90779 143.253 -2.12174V2.03039H163.916C167.702 2.03039 170.772 5.09981 170.772 8.88586C170.772 12.6719 167.702 15.7413 163.916 15.7413H156.689C155.592 27.0798 151.797 35.4467 146.982 41.613C155.398 45.9374 163.857 46.0599 163.945 46.0608C167.731 46.0608 170.786 49.1302 170.786 52.9162C170.786 56.7023 167.702 59.7717 163.916 59.7717C163.425 59.7717 151.748 59.7004 140.051 53.4615Z" fill="#6200EE"/>
<path d="M236.122 -2.77798C237.46 -1.43933 239.215 -0.769787 240.969 -0.769787C242.723 -0.769787 244.478 -1.43888 245.816 -2.77798C248.494 -5.45527 248.494 -9.79569 245.816 -12.473L243.848 -14.441C269.081 -12.946 289.152 8.05184 289.152 33.6529C289.152 37.4389 292.221 40.5084 296.007 40.5084C299.793 40.5084 302.863 37.4389 302.863 33.6529C302.863 0.439068 276.564 -26.7442 243.696 -28.177L245.816 -30.2972C248.494 -32.9745 248.494 -37.3149 245.816 -39.9922C243.14 -42.669 238.799 -42.6695 236.121 -39.9922L222.362 -26.2324C219.685 -23.5551 219.685 -19.2146 222.362 -16.5374L236.122 -2.77798Z" fill="#6200EE"/>
<path d="M135.741 152.642C133.064 149.965 128.723 149.965 126.046 152.642C123.369 155.319 123.369 159.66 126.046 162.337L128.014 164.305C102.782 162.81 82.7109 141.812 82.7109 116.211C82.7109 112.425 79.6415 109.355 75.8555 109.355C72.0694 109.355 69 112.425 69 116.211C69 149.425 95.2989 176.608 128.166 178.041L126.046 180.161C123.369 182.838 123.369 187.179 126.046 189.856C127.385 191.195 129.139 191.864 130.893 191.864C132.648 191.864 134.403 191.195 135.741 189.856L149.5 176.096C152.177 173.419 152.177 169.078 149.5 166.401L135.741 152.642Z" fill="#00DDD0"/>
</g>
</g>
</g>
<defs>
<filter id="filter0_b_1_10406" x="-28" y="-28" width="428" height="455" filterUnits="userSpaceOnUse" color-interpolation-filters="sRGB">
<feFlood flood-opacity="0" result="BackgroundImageFix"/>
<feGaussianBlur in="BackgroundImageFix" stdDeviation="14"/>
<feComposite in2="SourceAlpha" operator="in" result="effect1_backgroundBlur_1_10406"/>
<feBlend mode="normal" in="SourceGraphic" in2="effect1_backgroundBlur_1_10406" result="shape"/>
</filter>
<clipPath id="clip0_1_10406">
<rect width="372" height="399" rx="16" fill="white"/>
</clipPath>
<clipPath id="clip1_1_10406">
<rect width="234" height="234" fill="white" transform="translate(69 -42)"/>
</clipPath>
</defs>
</svg>
