<svg width="372" height="399" viewBox="0 0 372 399" fill="none" xmlns="http://www.w3.org/2000/svg">
<g filter="url(#filter0_b_1_10400)">
<g clip-path="url(#clip0_1_10400)">
<rect width="372" height="399" rx="16" fill="#919191" fill-opacity="0.1"/>
<path d="M60.3125 300H52.9531L48.5469 292.062H47.2969V300H41.2188V277.594H50.1406C51.401 277.594 52.5938 277.917 53.7188 278.562C54.8438 279.208 55.75 280.094 56.4375 281.219C57.125 282.333 57.4688 283.536 57.4688 284.828C57.4688 286.13 57.2292 287.292 56.75 288.312C56.2708 289.323 55.5833 290.146 54.6875 290.781L60.3125 300ZM47.2969 283.453V286.844H49.5C49.9896 286.844 50.4167 286.677 50.7812 286.344C51.1458 286.01 51.3281 285.615 51.3281 285.156C51.3281 284.698 51.1458 284.302 50.7812 283.969C50.4167 283.625 49.9896 283.453 49.5 283.453H47.2969ZM75.3281 291.609C75.3281 292.109 75.2865 292.807 75.2031 293.703H64.4531C64.6615 294.297 65.0208 294.76 65.5312 295.094C66.0417 295.417 66.651 295.578 67.3594 295.578C68.5365 295.578 69.2344 295.219 69.4531 294.5H75.0781C74.8385 296.271 74.0312 297.682 72.6562 298.734C71.2917 299.786 69.5833 300.312 67.5312 300.312C65.9896 300.312 64.5729 299.948 63.2812 299.219C61.9896 298.49 60.9688 297.49 60.2188 296.219C59.4792 294.948 59.1094 293.552 59.1094 292.031C59.1094 290.521 59.474 289.141 60.2031 287.891C60.9323 286.641 61.9323 285.661 63.2031 284.953C64.4844 284.234 65.8958 283.875 67.4375 283.875C69.5938 283.875 71.4479 284.625 73 286.125C74.5521 287.625 75.3281 289.453 75.3281 291.609ZM64.6406 290.078H69.3125C69.25 289.609 69.0104 289.234 68.5938 288.953C68.1771 288.661 67.6927 288.516 67.1406 288.516C65.9115 288.516 65.0781 289.036 64.6406 290.078ZM83.5938 300.312C81.3854 300.312 79.5938 299.792 78.2188 298.75C76.8438 297.698 76.0781 296.25 75.9219 294.406H81.1094C81.1406 294.771 81.3594 295.083 81.7656 295.344C82.1823 295.594 82.6667 295.719 83.2188 295.719C84.2396 295.719 84.75 295.484 84.75 295.016C84.75 294.766 84.5938 294.573 84.2812 294.438C83.9688 294.292 83.5573 294.188 83.0469 294.125C82.5469 294.052 81.9948 293.979 81.3906 293.906C80.7865 293.833 80.1771 293.698 79.5625 293.5C78.9583 293.302 78.401 293.047 77.8906 292.734C77.3906 292.411 76.9844 291.943 76.6719 291.328C76.3594 290.703 76.2031 289.958 76.2031 289.094C76.2031 287.646 76.7917 286.422 77.9688 285.422C79.1562 284.411 80.7448 283.906 82.7344 283.906C83.974 283.906 85.1094 284.109 86.1406 284.516C87.1719 284.922 88.0365 285.552 88.7344 286.406C89.4323 287.26 89.8438 288.281 89.9688 289.469H84.4688C84.4479 289.177 84.2708 288.927 83.9375 288.719C83.6146 288.5 83.2344 288.391 82.7969 288.391C81.901 288.391 81.4531 288.625 81.4531 289.094C81.4531 289.312 81.5729 289.479 81.8125 289.594C82.0625 289.698 82.3906 289.766 82.7969 289.797C83.2031 289.818 83.6615 289.854 84.1719 289.906C84.6927 289.958 85.2188 290.016 85.75 290.078C86.2917 290.141 86.8177 290.286 87.3281 290.516C87.849 290.734 88.3125 291.016 88.7188 291.359C89.125 291.703 89.4479 292.193 89.6875 292.828C89.9375 293.453 90.0625 294.193 90.0625 295.047C90.0625 296.516 89.4375 297.76 88.1875 298.781C86.9375 299.802 85.4062 300.312 83.5938 300.312ZM102.141 283.875C104.099 283.875 105.766 284.682 107.141 286.297C108.516 287.901 109.203 289.833 109.203 292.094C109.203 294.354 108.516 296.292 107.141 297.906C105.766 299.51 104.099 300.312 102.141 300.312C101.234 300.312 100.401 300.146 99.6406 299.812C98.8802 299.479 98.3229 299.031 97.9688 298.469V304.797H92.2188V284.188H97.9688V285.734C98.3021 285.172 98.849 284.724 99.6094 284.391C100.38 284.047 101.224 283.875 102.141 283.875ZM100.828 294.844C101.599 294.844 102.25 294.583 102.781 294.062C103.312 293.531 103.578 292.875 103.578 292.094C103.578 291.312 103.312 290.661 102.781 290.141C102.25 289.609 101.599 289.344 100.828 289.344C100.203 289.344 99.6406 289.479 99.1406 289.75C98.651 290.021 98.2604 290.375 97.9688 290.812V293.344C98.2604 293.792 98.651 294.156 99.1406 294.438C99.6302 294.708 100.193 294.844 100.828 294.844ZM118.891 300.312C116.536 300.312 114.568 299.536 112.984 297.984C111.401 296.422 110.609 294.469 110.609 292.125C110.609 290.573 110.969 289.167 111.688 287.906C112.417 286.646 113.411 285.661 114.672 284.953C115.932 284.234 117.339 283.875 118.891 283.875C121.234 283.875 123.203 284.661 124.797 286.234C126.391 287.807 127.188 289.771 127.188 292.125C127.188 293.667 126.823 295.068 126.094 296.328C125.365 297.578 124.365 298.557 123.094 299.266C121.833 299.964 120.432 300.312 118.891 300.312ZM118.891 294.781C119.651 294.781 120.302 294.531 120.844 294.031C121.385 293.521 121.656 292.885 121.656 292.125C121.656 291.354 121.385 290.708 120.844 290.188C120.302 289.667 119.651 289.406 118.891 289.406C118.12 289.406 117.469 289.667 116.938 290.188C116.406 290.708 116.141 291.354 116.141 292.125C116.141 292.885 116.406 293.521 116.938 294.031C117.469 294.531 118.12 294.781 118.891 294.781ZM138.469 283.875C140.479 283.875 142.047 284.521 143.172 285.812C144.297 287.094 144.859 288.88 144.859 291.172V300H139.109V292.156C139.109 291.312 138.922 290.682 138.547 290.266C138.172 289.839 137.635 289.625 136.938 289.625C136.552 289.625 136.167 289.74 135.781 289.969C135.396 290.188 135.083 290.479 134.844 290.844V300H129.094V284.188H134.844V285.766C135.24 285.172 135.76 284.708 136.406 284.375C137.062 284.042 137.75 283.875 138.469 283.875ZM154.312 300.312C152.104 300.312 150.312 299.792 148.938 298.75C147.562 297.698 146.797 296.25 146.641 294.406H151.828C151.859 294.771 152.078 295.083 152.484 295.344C152.901 295.594 153.385 295.719 153.938 295.719C154.958 295.719 155.469 295.484 155.469 295.016C155.469 294.766 155.312 294.573 155 294.438C154.688 294.292 154.276 294.188 153.766 294.125C153.266 294.052 152.714 293.979 152.109 293.906C151.505 293.833 150.896 293.698 150.281 293.5C149.677 293.302 149.12 293.047 148.609 292.734C148.109 292.411 147.703 291.943 147.391 291.328C147.078 290.703 146.922 289.958 146.922 289.094C146.922 287.646 147.51 286.422 148.688 285.422C149.875 284.411 151.464 283.906 153.453 283.906C154.693 283.906 155.828 284.109 156.859 284.516C157.891 284.922 158.755 285.552 159.453 286.406C160.151 287.26 160.562 288.281 160.688 289.469H155.188C155.167 289.177 154.99 288.927 154.656 288.719C154.333 288.5 153.953 288.391 153.516 288.391C152.62 288.391 152.172 288.625 152.172 289.094C152.172 289.312 152.292 289.479 152.531 289.594C152.781 289.698 153.109 289.766 153.516 289.797C153.922 289.818 154.38 289.854 154.891 289.906C155.411 289.958 155.938 290.016 156.469 290.078C157.01 290.141 157.536 290.286 158.047 290.516C158.568 290.734 159.031 291.016 159.438 291.359C159.844 291.703 160.167 292.193 160.406 292.828C160.656 293.453 160.781 294.193 160.781 295.047C160.781 296.516 160.156 297.76 158.906 298.781C157.656 299.802 156.125 300.312 154.312 300.312ZM178.359 291.609C178.359 292.109 178.318 292.807 178.234 293.703H167.484C167.693 294.297 168.052 294.76 168.562 295.094C169.073 295.417 169.682 295.578 170.391 295.578C171.568 295.578 172.266 295.219 172.484 294.5H178.109C177.87 296.271 177.062 297.682 175.688 298.734C174.323 299.786 172.615 300.312 170.562 300.312C169.021 300.312 167.604 299.948 166.312 299.219C165.021 298.49 164 297.49 163.25 296.219C162.51 294.948 162.141 293.552 162.141 292.031C162.141 290.521 162.505 289.141 163.234 287.891C163.964 286.641 164.964 285.661 166.234 284.953C167.516 284.234 168.927 283.875 170.469 283.875C172.625 283.875 174.479 284.625 176.031 286.125C177.583 287.625 178.359 289.453 178.359 291.609ZM167.672 290.078H172.344C172.281 289.609 172.042 289.234 171.625 288.953C171.208 288.661 170.724 288.516 170.172 288.516C168.943 288.516 168.109 289.036 167.672 290.078ZM186.625 300.312C184.417 300.312 182.625 299.792 181.25 298.75C179.875 297.698 179.109 296.25 178.953 294.406H184.141C184.172 294.771 184.391 295.083 184.797 295.344C185.214 295.594 185.698 295.719 186.25 295.719C187.271 295.719 187.781 295.484 187.781 295.016C187.781 294.766 187.625 294.573 187.312 294.438C187 294.292 186.589 294.188 186.078 294.125C185.578 294.052 185.026 293.979 184.422 293.906C183.818 293.833 183.208 293.698 182.594 293.5C181.99 293.302 181.432 293.047 180.922 292.734C180.422 292.411 180.016 291.943 179.703 291.328C179.391 290.703 179.234 289.958 179.234 289.094C179.234 287.646 179.823 286.422 181 285.422C182.188 284.411 183.776 283.906 185.766 283.906C187.005 283.906 188.141 284.109 189.172 284.516C190.203 284.922 191.068 285.552 191.766 286.406C192.464 287.26 192.875 288.281 193 289.469H187.5C187.479 289.177 187.302 288.927 186.969 288.719C186.646 288.5 186.266 288.391 185.828 288.391C184.932 288.391 184.484 288.625 184.484 289.094C184.484 289.312 184.604 289.479 184.844 289.594C185.094 289.698 185.422 289.766 185.828 289.797C186.234 289.818 186.693 289.854 187.203 289.906C187.724 289.958 188.25 290.016 188.781 290.078C189.323 290.141 189.849 290.286 190.359 290.516C190.88 290.734 191.344 291.016 191.75 291.359C192.156 291.703 192.479 292.193 192.719 292.828C192.969 293.453 193.094 294.193 193.094 295.047C193.094 296.516 192.469 297.76 191.219 298.781C189.969 299.802 188.438 300.312 186.625 300.312ZM56 348L54.9688 345.25H47.5156L46.5 348H40.0625L48.8906 325.594H53.7031L62.5938 348H56ZM49.4688 340.062H53.0938L51.2969 335.234L49.4688 340.062ZM73.25 331.875C75.2604 331.875 76.8281 332.521 77.9531 333.812C79.0781 335.094 79.6406 336.88 79.6406 339.172V348H73.8906V340.156C73.8906 339.312 73.7031 338.682 73.3281 338.266C72.9531 337.839 72.4167 337.625 71.7188 337.625C71.3333 337.625 70.9479 337.74 70.5625 337.969C70.1771 338.188 69.8646 338.479 69.625 338.844V348H63.875V332.188H69.625V333.766C70.0208 333.172 70.5417 332.708 71.1875 332.375C71.8438 332.042 72.5312 331.875 73.25 331.875ZM92.8125 332.188H98.5781V348H92.8125V346.469C92.4792 347.031 91.9323 347.479 91.1719 347.812C90.4115 348.146 89.5729 348.312 88.6562 348.312C86.6979 348.312 85.026 347.51 83.6406 345.906C82.2656 344.292 81.5781 342.354 81.5781 340.094C81.5781 337.833 82.2656 335.901 83.6406 334.297C85.026 332.682 86.6979 331.875 88.6562 331.875C89.5521 331.875 90.3802 332.047 91.1406 332.391C91.901 332.724 92.4583 333.172 92.8125 333.734V332.188ZM89.9688 342.844C90.5938 342.844 91.151 342.708 91.6406 342.438C92.1302 342.167 92.5208 341.812 92.8125 341.375V338.844C92.5208 338.396 92.1302 338.036 91.6406 337.766C91.151 337.484 90.5938 337.344 89.9688 337.344C89.1979 337.344 88.5469 337.609 88.0156 338.141C87.4844 338.661 87.2188 339.312 87.2188 340.094C87.2188 340.875 87.4844 341.531 88.0156 342.062C88.5469 342.583 89.1979 342.844 89.9688 342.844ZM106.75 325.594V348H101V325.594H106.75ZM119.391 332.188H125.594L117.031 352.797H110.812L113.859 346.141L108.062 332.188H114.234L116.828 339.391L119.391 332.188ZM140.484 332.188V336.25L134.406 342.469H140.609V348H125.922V343.969L132.062 337.703H126.469V332.188H140.484ZM145.656 324.094C146.583 324.094 147.375 324.427 148.031 325.094C148.688 325.75 149.016 326.536 149.016 327.453C149.016 328.37 148.688 329.161 148.031 329.828C147.375 330.484 146.583 330.812 145.656 330.812C144.74 330.812 143.948 330.484 143.281 329.828C142.625 329.161 142.297 328.37 142.297 327.453C142.297 326.536 142.625 325.75 143.281 325.094C143.948 324.427 144.74 324.094 145.656 324.094ZM142.781 332.188H148.531V348H142.781V332.188ZM160.344 331.875C162.354 331.875 163.922 332.521 165.047 333.812C166.172 335.094 166.734 336.88 166.734 339.172V348H160.984V340.156C160.984 339.312 160.797 338.682 160.422 338.266C160.047 337.839 159.51 337.625 158.812 337.625C158.427 337.625 158.042 337.74 157.656 337.969C157.271 338.188 156.958 338.479 156.719 338.844V348H150.969V332.188H156.719V333.766C157.115 333.172 157.635 332.708 158.281 332.375C158.938 332.042 159.625 331.875 160.344 331.875ZM179.906 332.156H185.672V347.203C185.672 348.672 185.292 349.958 184.531 351.062C183.781 352.167 182.776 352.995 181.516 353.547C180.266 354.099 178.865 354.375 177.312 354.375C176.896 354.375 176.474 354.354 176.047 354.312C175.62 354.281 175.125 354.208 174.562 354.094C174.01 353.979 173.484 353.828 172.984 353.641C172.484 353.464 171.979 353.214 171.469 352.891C170.969 352.578 170.531 352.214 170.156 351.797C169.781 351.38 169.464 350.865 169.203 350.25C168.943 349.635 168.786 348.958 168.734 348.219H174.5C174.583 348.667 174.87 348.995 175.359 349.203C175.849 349.422 176.438 349.531 177.125 349.531C177.823 349.531 178.458 349.339 179.031 348.953C179.615 348.568 179.906 348.068 179.906 347.453V345.891C179.573 346.432 179.026 346.87 178.266 347.203C177.505 347.526 176.667 347.688 175.75 347.688C174.458 347.688 173.266 347.333 172.172 346.625C171.089 345.906 170.234 344.943 169.609 343.734C168.984 342.516 168.672 341.198 168.672 339.781C168.672 338.354 168.984 337.036 169.609 335.828C170.234 334.609 171.089 333.646 172.172 332.938C173.266 332.229 174.458 331.875 175.75 331.875C176.656 331.875 177.484 332.036 178.234 332.359C178.995 332.672 179.552 333.094 179.906 333.625V332.156ZM177.062 342.406C177.688 342.406 178.245 342.276 178.734 342.016C179.224 341.745 179.615 341.391 179.906 340.953V338.562C179.271 337.604 178.323 337.125 177.062 337.125C176.292 337.125 175.641 337.38 175.109 337.891C174.578 338.401 174.312 339.031 174.312 339.781C174.312 340.531 174.578 341.156 175.109 341.656C175.641 342.156 176.292 342.406 177.062 342.406Z" fill="white"/>
<g clip-path="url(#clip1_1_10400)">
<path d="M192.723 -107C189.286 -107 186.5 -104.214 186.5 -100.777V36.118C186.5 39.5546 189.286 42.3408 192.723 42.3408H329.618C333.055 42.3408 335.841 39.5546 335.841 36.118C335.751 -42.887 271.727 -106.911 192.723 -107Z" fill="#FFC107"/>
<path d="M259.864 156.747L174.055 46.4353V-88.332C174.055 -91.7686 171.269 -94.5547 167.833 -94.5547C95.7762 -94.5547 37.1602 -30.3507 37.1602 48.5628C37.2494 127.568 101.273 191.592 180.278 191.681C208.963 193.91 237.327 184.418 258.893 165.372C261.499 163.234 261.929 159.411 259.864 156.747Z" fill="#6200EE"/>
<path d="M329.617 54.7852H205.167C201.731 54.7857 198.945 57.5725 198.946 61.009C198.946 62.4307 199.433 63.8091 200.327 64.9152L281.219 165.06C282.304 166.406 283.9 167.24 285.625 167.363H286.061C287.635 167.364 289.152 166.768 290.305 165.695C319.292 138.587 335.773 100.695 335.841 61.0073C335.84 57.5713 333.054 54.7852 329.617 54.7852Z" fill="#00DDD0"/>
</g>
</g>
</g>
<defs>
<filter id="filter0_b_1_10400" x="-28" y="-28" width="428" height="455" filterUnits="userSpaceOnUse" color-interpolation-filters="sRGB">
<feFlood flood-opacity="0" result="BackgroundImageFix"/>
<feGaussianBlur in="BackgroundImageFix" stdDeviation="14"/>
<feComposite in2="SourceAlpha" operator="in" result="effect1_backgroundBlur_1_10400"/>
<feBlend mode="normal" in="SourceGraphic" in2="effect1_backgroundBlur_1_10400" result="shape"/>
</filter>
<clipPath id="clip0_1_10400">
<rect width="372" height="399" rx="16" fill="white"/>
</clipPath>
<clipPath id="clip1_1_10400">
<rect width="299" height="299" fill="white" transform="translate(37 -107)"/>
</clipPath>
</defs>
</svg>
