<svg width="40" height="41" viewBox="0 0 40 41" fill="none" xmlns="http://www.w3.org/2000/svg">
<rect y="0.5" width="40" height="40" rx="8" fill="#00C9BD"/>
<path d="M20.742 15.4004H14.2587C12.8337 15.4004 11.667 16.5671 11.667 17.9921V27.4587C11.667 28.6671 12.5337 29.1837 13.592 28.5921L16.867 26.7671C17.217 26.5754 17.7837 26.5754 18.1253 26.7671L21.4003 28.5921C22.467 29.1754 23.3337 28.6671 23.3337 27.4587V17.9921C23.3337 16.5671 22.167 15.4004 20.742 15.4004Z" fill="white"/>
<path d="M28.3329 14.7587V24.2253C28.3329 25.4337 27.4662 25.942 26.4079 25.3587L24.7995 24.4587C24.6662 24.3837 24.5829 24.242 24.5829 24.092V17.992C24.5829 15.8753 22.8579 14.1503 20.7412 14.1503H17.3495C17.0412 14.1503 16.8245 13.8253 16.9662 13.5587C17.3995 12.7337 18.2662 12.167 19.2579 12.167H25.7412C27.1662 12.167 28.3329 13.3337 28.3329 14.7587Z" fill="white"/>
</svg>
