<svg width="376" height="167" viewBox="0 0 376 167" fill="none" xmlns="http://www.w3.org/2000/svg">
<rect y="12.2266" width="456" height="154.226" rx="9.80645" transform="rotate(-1.47355 0 12.2266)" fill="white"/>
<path d="M25.6226 39.4728L25.586 38.0501L28.2439 37.9818L28.4508 46.0216L26.8626 46.0625L26.6924 39.4453L25.6226 39.4728ZM30.8383 46.0375C30.5589 46.0446 30.3251 45.9661 30.1369 45.8017C29.956 45.6298 29.8621 45.4151 29.8555 45.1578C29.8489 44.9005 29.9316 44.685 30.1038 44.5113C30.283 44.3301 30.5124 44.236 30.7918 44.2288C31.0638 44.2218 31.2903 44.3042 31.4713 44.4761C31.6521 44.6407 31.7458 44.8517 31.7524 45.109C31.7591 45.3663 31.6764 45.5855 31.5045 45.7665C31.3324 45.9401 31.1103 46.0305 30.8383 46.0375ZM34.3954 39.4127L34.4451 41.3427L37.0368 41.276L37.0683 42.5002L34.4766 42.5669L34.529 44.6072L37.4516 44.532L37.484 45.7893L33.0174 45.9042L32.8191 38.1952L37.2857 38.0803L37.318 39.3375L34.3954 39.4127ZM42.1134 39.468C42.8413 39.4493 43.4355 39.6657 43.8959 40.1174C44.3561 40.5617 44.5968 41.1956 44.618 42.0191L44.7102 45.6034L43.1662 45.6431L43.0794 42.2683C43.0669 41.7831 42.936 41.4149 42.6868 41.1638C42.4373 40.9054 42.1031 40.7815 41.684 40.7923C41.2576 40.8033 40.9227 40.9443 40.6796 41.2154C40.4436 41.479 40.3318 41.8534 40.3443 42.3387L40.4311 45.7134L38.8871 45.7532L38.7299 39.6433L40.2739 39.6036L40.2935 40.3646C40.4926 40.0946 40.7483 39.882 41.0606 39.7268C41.3802 39.5641 41.7311 39.4778 42.1134 39.468ZM47.8516 40.6778L47.9276 43.6335C47.9329 43.8393 47.9846 43.9888 48.0826 44.0819C48.1878 44.1675 48.3581 44.2073 48.5933 44.2012L49.3102 44.1828L49.3437 45.4842L48.3732 45.5091C47.0718 45.5426 46.4048 44.927 46.3723 43.6624L46.2966 40.7178L45.5687 40.7365L45.536 39.4682L46.2639 39.4495L46.2251 37.9386L47.7801 37.8986L47.819 39.4095L49.1865 39.3743L49.2191 40.6426L47.8516 40.6778ZM56.052 42.1222C56.0576 42.3428 56.048 42.5417 56.0232 42.7189L51.5566 42.8338C51.6047 43.274 51.768 43.6156 52.0464 43.8586C52.3249 44.1016 52.6627 44.218 53.0597 44.2077C53.6332 44.193 54.0349 43.9362 54.2649 43.4373L55.9302 43.3945C55.7689 43.9872 55.4431 44.4812 54.953 44.8764C54.4627 45.2642 53.8536 45.4675 53.1257 45.4862C52.5375 45.5013 52.0048 45.3863 51.5276 45.1411C51.0576 44.8883 50.6841 44.5264 50.4071 44.0553C50.1375 43.584 49.9947 43.0359 49.9786 42.4109C49.9623 41.7786 50.0767 41.2202 50.3218 40.7356C50.5668 40.2511 50.9176 39.8742 51.3742 39.605C51.8308 39.3357 52.3605 39.1934 52.9634 39.1778C53.5442 39.1629 54.0658 39.2746 54.5281 39.5128C54.9977 39.7509 55.3635 40.0983 55.6254 40.5551C55.8944 41.0043 56.0366 41.5267 56.052 42.1222ZM54.4415 41.7222C54.4239 41.3254 54.2724 41.0129 53.9869 40.7848C53.7013 40.5494 53.3563 40.4369 52.9519 40.4473C52.5696 40.4571 52.2491 40.5831 51.9905 40.8252C51.739 41.0597 51.5892 41.3836 51.5409 41.7968L54.4415 41.7222ZM58.6722 40.0794C58.8624 39.7508 59.1132 39.4905 59.4246 39.2986C59.7434 39.1064 60.1086 39.0051 60.5204 38.9945L60.5621 40.6157L60.154 40.6262C59.6687 40.6387 59.3041 40.7621 59.0599 40.9964C58.8232 41.2306 58.7121 41.6308 58.7266 42.1969L58.8049 45.2408L57.2609 45.2805L57.1038 39.1707L58.6478 39.1309L58.6722 40.0794ZM70.1174 46.3072L68.9124 44.9366C68.591 45.0258 68.2611 45.0748 67.9229 45.0835C67.2024 45.102 66.5363 44.9499 65.9247 44.6272C65.3131 44.3045 64.8232 43.85 64.455 43.2635C64.0866 42.6697 63.8926 41.9941 63.8731 41.2368C63.8538 40.4869 64.013 39.8096 64.3506 39.205C64.688 38.593 65.1538 38.1101 65.748 37.7564C66.3422 37.4027 66.9995 37.2166 67.7201 37.198C68.448 37.1793 69.114 37.3314 69.7183 37.6543C70.3299 37.977 70.8162 38.4353 71.1773 39.0294C71.5455 39.6158 71.7393 40.284 71.7586 41.034C71.7762 41.7177 71.6452 42.3465 71.3657 42.9202C71.0933 43.4863 70.7117 43.9523 70.2208 44.3181L72.0364 46.2578L70.1174 46.3072ZM65.4612 41.196C65.4745 41.7106 65.5854 42.1603 65.7939 42.5448C66.0024 42.9294 66.2859 43.2238 66.6443 43.4279C67.0099 43.6245 67.4243 43.7168 67.8875 43.7049C68.3507 43.693 68.7561 43.5796 69.1037 43.3646C69.4511 43.1423 69.7191 42.8338 69.9076 42.439C70.0961 42.0442 70.1837 41.5895 70.1705 41.0748C70.1572 40.5602 70.0464 40.1142 69.8381 39.737C69.6295 39.3524 69.3462 39.0617 68.9879 38.865C68.6297 38.6682 68.219 38.5757 67.7558 38.5876C67.2926 38.5996 66.8835 38.7131 66.5286 38.9282C66.1809 39.1432 65.9129 39.448 65.7244 39.8428C65.5357 40.2302 65.448 40.6813 65.4612 41.196ZM78.6392 38.6167L78.7964 44.7265L77.2413 44.7665L77.2215 43.9945C77.0298 44.2643 76.7741 44.4806 76.4546 44.6433C76.1422 44.7985 75.7986 44.8809 75.4236 44.8906C74.9457 44.9028 74.5204 44.8145 74.1476 44.6254C73.7747 44.429 73.4766 44.1387 73.2534 43.7545C73.0373 43.3628 72.9223 42.8949 72.9083 42.3508L72.8161 38.7665L74.3601 38.7268L74.4466 42.0905C74.4591 42.5757 74.5901 42.9476 74.8395 43.206C75.0887 43.4571 75.4229 43.5773 75.842 43.5665C76.2684 43.5555 76.5997 43.4183 76.8357 43.1547C77.0715 42.8838 77.1832 42.5057 77.1707 42.0204L77.0842 38.6567L78.6392 38.6167ZM85.9175 41.354C85.9232 41.5745 85.9136 41.7734 85.8887 41.9507L81.4221 42.0656C81.4702 42.5058 81.6335 42.8473 81.912 43.0903C82.1905 43.3333 82.5282 43.4497 82.9253 43.4395C83.4987 43.4247 83.9005 43.1679 84.1304 42.6691L85.7957 42.6262C85.6344 43.219 85.3087 43.7129 84.8186 44.1081C84.3282 44.496 83.7191 44.6992 82.9912 44.718C82.4031 44.7331 81.8704 44.618 81.3932 44.3728C80.9232 44.12 80.5497 43.7581 80.2727 43.287C80.0031 42.8157 79.8602 42.2676 79.8442 41.6426C79.8279 41.0103 79.9423 40.4519 80.1873 39.9674C80.4324 39.4829 80.7832 39.106 81.2398 38.8367C81.6963 38.5675 82.2261 38.4251 82.829 38.4096C83.4098 38.3946 83.9314 38.5063 84.3937 38.7446C84.8633 38.9826 85.2291 39.33 85.4909 39.7868C85.76 40.236 85.9022 40.7584 85.9175 41.354ZM84.307 40.954C84.2895 40.5571 84.138 40.2447 83.8525 40.0166C83.5669 39.7811 83.2219 39.6686 82.8175 39.679C82.4352 39.6888 82.1147 39.8148 81.856 40.0569C81.6046 40.2914 81.4547 40.6153 81.4065 41.0286L84.307 40.954ZM89.4671 44.5514C88.9671 44.5642 88.5164 44.4875 88.1148 44.3213C87.7131 44.1477 87.3906 43.9095 87.1473 43.6068C86.9115 43.3038 86.7777 42.9652 86.746 42.5908L88.301 42.5508C88.3365 42.7853 88.4555 42.9772 88.6579 43.1265C88.8678 43.2756 89.1234 43.3463 89.4249 43.3385C89.719 43.3309 89.9454 43.2663 90.1041 43.1445C90.2702 43.0225 90.3509 42.8696 90.3461 42.6858C90.341 42.4872 90.2343 42.3428 90.026 42.2526C89.8248 42.1547 89.5022 42.0527 89.058 41.9464C88.5993 41.8478 88.2214 41.7435 87.9243 41.6334C87.6345 41.5232 87.3799 41.3495 87.1604 41.1123C86.9483 40.875 86.837 40.5505 86.8264 40.1387C86.8177 39.8005 86.9053 39.4892 87.0893 39.2049C87.2806 38.9204 87.5543 38.6927 87.9104 38.5217C88.2739 38.3505 88.7019 38.2585 89.1945 38.2458C89.9224 38.2271 90.508 38.396 90.9513 38.7524C91.3943 39.1016 91.6458 39.5843 91.7058 40.2008L90.228 40.2388C90.1997 39.9968 90.0919 39.8083 89.9045 39.6733C89.7242 39.5308 89.4834 39.4634 89.1819 39.4712C88.9025 39.4783 88.687 39.5354 88.5352 39.6423C88.3908 39.749 88.321 39.8943 88.3257 40.0781C88.331 40.2839 88.438 40.4394 88.6467 40.5444C88.8552 40.642 89.1778 40.7404 89.6144 40.8395C90.0584 40.9385 90.4253 41.0431 90.715 41.1533C91.0048 41.2636 91.2558 41.4411 91.4681 41.6857C91.6876 41.9229 91.8062 42.2436 91.824 42.6477C91.833 43.0007 91.7419 43.3194 91.5506 43.6039C91.3666 43.8882 91.0929 44.1159 90.7294 44.2871C90.3731 44.4508 89.9524 44.5389 89.4671 44.5514ZM94.8093 39.4699L94.8854 42.4255C94.8907 42.6314 94.9423 42.7809 95.0404 42.874C95.1456 42.9596 95.3158 42.9994 95.5511 42.9933L96.268 42.9749L96.3014 44.2762L95.3309 44.3012C94.0295 44.3347 93.3626 43.7191 93.3301 42.4545L93.2543 39.5099L92.5264 39.5286L92.4938 38.2603L93.2217 38.2416L93.1828 36.7307L94.7379 36.6906L94.7767 38.2016L96.1443 38.1664L96.1769 39.4347L94.8093 39.4699ZM98.0191 37.3898C97.7471 37.3968 97.517 37.3181 97.3288 37.1537C97.1478 36.9818 97.054 36.7672 97.0474 36.5098C97.0408 36.2525 97.1235 36.037 97.2956 35.8634C97.4749 35.6822 97.7005 35.5881 97.9726 35.5811C98.2446 35.5741 98.4711 35.6566 98.6521 35.8285C98.8403 35.9929 98.9377 36.2037 98.9443 36.461C98.9509 36.7184 98.8646 36.9376 98.6853 37.1188C98.5132 37.2925 98.2911 37.3828 98.0191 37.3898ZM98.7988 38.0981L98.956 44.208L97.412 44.2477L97.2548 38.1378L98.7988 38.0981ZM103.197 44.1982C102.609 44.2133 102.076 44.0983 101.599 43.853C101.122 43.6005 100.741 43.2387 100.456 42.7678C100.179 42.2967 100.033 41.7487 100.017 41.1237C100.001 40.4988 100.123 39.9438 100.382 39.4589C100.649 38.9738 101.019 38.5965 101.49 38.3268C101.961 38.0499 102.491 37.9038 103.079 37.8887C103.667 37.8736 104.204 37.9922 104.688 38.2446C105.173 38.4896 105.557 38.8476 105.842 39.3185C106.133 39.7892 106.287 40.3371 106.303 40.962C106.319 41.587 106.19 42.1421 105.916 42.6274C105.649 43.1125 105.276 43.4936 104.797 43.7708C104.326 44.0404 103.793 44.1829 103.197 44.1982ZM103.162 42.8527C103.442 42.8455 103.701 42.7726 103.94 42.634C104.187 42.4879 104.38 42.2769 104.52 42.0011C104.66 41.7253 104.725 41.3925 104.715 41.0029C104.7 40.422 104.534 39.9812 104.218 39.6803C103.908 39.3719 103.533 39.2234 103.091 39.2347C102.65 39.2461 102.283 39.4137 101.99 39.7376C101.704 40.054 101.568 40.5026 101.583 41.0834C101.598 41.6643 101.753 42.1091 102.048 42.4179C102.35 42.7191 102.721 42.864 103.162 42.8527ZM110.741 37.7026C111.469 37.6839 112.063 37.9004 112.523 38.352C112.983 38.7963 113.224 39.4302 113.245 40.2537L113.337 43.838L111.793 43.8777L111.707 40.503C111.694 40.0177 111.563 39.6495 111.314 39.3984C111.065 39.14 110.73 39.0162 110.311 39.0269C109.885 39.0379 109.55 39.179 109.307 39.4501C109.071 39.7137 108.959 40.0881 108.972 40.5733L109.058 43.9481L107.514 43.9878L107.357 37.878L108.901 37.8382L108.921 38.5992C109.12 38.3292 109.376 38.1166 109.688 37.9615C110.007 37.7987 110.358 37.7125 110.741 37.7026ZM122.474 35.8999L122.506 37.1461L120.455 37.1989L120.621 43.6506L119.077 43.6904L118.911 37.2386L116.86 37.2914L116.828 36.0452L122.474 35.8999ZM124.406 36.711C124.134 36.718 123.904 36.6393 123.716 36.475C123.535 36.303 123.441 36.0884 123.434 35.8311C123.428 35.5737 123.51 35.3582 123.682 35.1846C123.862 35.0034 124.087 34.9093 124.359 34.9023C124.631 34.8953 124.858 34.9778 125.039 35.1497C125.227 35.3141 125.324 35.5249 125.331 35.7823C125.338 36.0396 125.251 36.2589 125.072 36.4401C124.9 36.6137 124.678 36.704 124.406 36.711ZM125.186 37.4193L125.343 43.5292L123.799 43.5689L123.642 37.4591L125.186 37.4193ZM128.541 38.6021L128.617 41.5578C128.623 41.7637 128.674 41.9132 128.772 42.0063C128.878 42.0919 129.048 42.1316 129.283 42.1256L130 42.1071L130.033 43.4085L129.063 43.4335C127.762 43.467 127.095 42.8514 127.062 41.5868L126.986 38.6421L126.258 38.6609L126.226 37.3926L126.954 37.3739L126.915 35.8629L128.47 35.8229L128.509 37.3338L129.876 37.2987L129.909 38.567L128.541 38.6021ZM132.478 35.1791L132.688 43.3402L131.144 43.38L130.934 35.2188L132.478 35.1791ZM139.811 39.9676C139.817 40.1882 139.807 40.3871 139.782 40.5643L135.316 40.6792C135.364 41.1194 135.527 41.461 135.806 41.704C136.084 41.947 136.422 42.0633 136.819 42.0531C137.392 42.0384 137.794 41.7816 138.024 41.2827L139.689 41.2399C139.528 41.8326 139.202 42.3266 138.712 42.7218C138.222 43.1096 137.613 43.3129 136.885 43.3316C136.297 43.3467 135.764 43.2317 135.287 42.9864C134.817 42.7337 134.443 42.3717 134.166 41.9006C133.897 41.4294 133.754 40.8812 133.738 40.2563C133.722 39.624 133.836 39.0656 134.081 38.581C134.326 38.0965 134.677 37.7196 135.133 37.4504C135.59 37.1811 136.12 37.0387 136.723 37.0232C137.304 37.0083 137.825 37.1199 138.287 37.3582C138.757 37.5963 139.123 37.9437 139.385 38.4005C139.654 38.8497 139.796 39.3721 139.811 39.9676ZM138.201 39.5676C138.183 39.1708 138.032 38.8583 137.746 38.6302C137.461 38.3948 137.116 38.2823 136.711 38.2927C136.329 38.3025 136.008 38.4285 135.75 38.6705C135.498 38.9051 135.348 39.229 135.3 39.6422L138.201 39.5676Z" fill="#8094AE"/>
<path d="M28.4501 66.7581C29.102 66.7413 29.6685 66.8498 30.1494 67.0835C30.636 67.3113 31.0108 67.6479 31.2741 68.0932C31.543 68.5383 31.6854 69.0668 31.7011 69.6787C31.7169 70.2906 31.6019 70.8257 31.3562 71.2841C31.116 71.7366 30.7589 72.0891 30.2847 72.3417C29.8161 72.5883 29.2558 72.7201 28.6039 72.7368L26.7425 72.7847L26.5887 66.806L28.4501 66.7581ZM28.5874 72.0935C29.3594 72.0736 29.9431 71.8555 30.3387 71.439C30.7341 71.0168 30.9224 70.4369 30.9034 69.6992C30.8843 68.9558 30.6635 68.3807 30.241 67.9738C29.8242 67.5668 29.2327 67.3732 28.4664 67.3929L27.3856 67.4207L27.5065 72.1213L28.5874 72.0935ZM37.0311 69.9879C37.0349 70.1366 37.0304 70.2941 37.0175 70.4604L33.2604 70.557C33.3009 71.0195 33.4675 71.3786 33.7602 71.6343C34.0585 71.8841 34.4135 72.0037 34.8252 71.9931C35.1626 71.9844 35.4408 71.9 35.6599 71.7399C35.8845 71.5739 36.0392 71.3582 36.1239 71.0928L36.9646 71.0712C36.8504 71.5262 36.6082 71.9015 36.2382 72.1971C35.868 72.487 35.4026 72.6392 34.8422 72.6536C34.3962 72.6651 33.9933 72.5753 33.6336 72.3843C33.2796 72.1931 32.9979 71.9171 32.7883 71.5563C32.5786 71.1897 32.4675 70.7634 32.455 70.2773C32.4425 69.7912 32.5287 69.3627 32.7137 68.9917C32.8988 68.6207 33.1632 68.3335 33.507 68.1301C33.8564 67.9209 34.2598 67.8103 34.7173 67.7986C35.1634 67.7871 35.5605 67.8742 35.9086 68.0598C36.2567 68.2454 36.5267 68.5074 36.7185 68.8458C36.9159 69.1783 37.0201 69.559 37.0311 69.9879ZM36.2206 69.8457C36.213 69.5483 36.1406 69.2955 36.0037 69.0873C35.8666 68.8734 35.6822 68.7151 35.4507 68.6123C35.2247 68.5037 34.9745 68.4529 34.7 68.46C34.3054 68.4701 33.9713 68.6046 33.6975 68.8634C33.4295 69.1221 33.2812 69.475 33.2527 69.922L36.2206 69.8457ZM39.7926 72.5263C39.4324 72.5355 39.1077 72.4838 38.8187 72.3711C38.5295 72.2526 38.2992 72.0869 38.1278 71.8738C37.9562 71.6551 37.8582 71.403 37.8337 71.1175L38.64 71.0967C38.6689 71.3306 38.7825 71.5194 38.9807 71.6631C39.1847 71.8066 39.4468 71.8742 39.7671 71.866C40.0644 71.8584 40.2972 71.7866 40.4654 71.6506C40.6335 71.5147 40.715 71.3466 40.7099 71.1465C40.7046 70.9406 40.6092 70.7914 40.4237 70.6989C40.2381 70.6007 39.9524 70.5079 39.5668 70.4205C39.2156 70.338 38.9273 70.2539 38.7019 70.1681C38.4821 70.0765 38.2898 69.9412 38.125 69.7624C37.9657 69.5776 37.8822 69.3337 37.8744 69.0306C37.8682 68.7905 37.9341 68.5685 38.0719 68.3646C38.2097 68.1608 38.4087 67.9983 38.6688 67.8772C38.9287 67.7503 39.2274 67.6826 39.5648 67.6739C40.0852 67.6605 40.5089 67.7812 40.8359 68.036C41.1629 68.2908 41.3437 68.6467 41.3784 69.1036L40.5978 69.1237C40.5743 68.8782 40.4691 68.6835 40.2823 68.5395C40.1012 68.3954 39.8591 68.3272 39.5561 68.335C39.2758 68.3422 39.0544 68.408 38.8916 68.5324C38.7289 68.6567 38.65 68.8161 38.655 69.0106C38.659 69.165 38.7109 69.2924 38.8108 69.3928C38.9162 69.4874 39.0441 69.5642 39.1944 69.6233C39.3502 69.6765 39.5635 69.7368 39.8342 69.8042C40.1739 69.8871 40.4508 69.9715 40.6647 70.0575C40.8785 70.1379 41.062 70.2648 41.2153 70.4382C41.3742 70.6115 41.4602 70.8411 41.4733 71.1268C41.4799 71.3842 41.4144 71.6176 41.2767 71.8272C41.1391 72.0367 40.9403 72.2049 40.6803 72.3318C40.4259 72.4528 40.13 72.5176 39.7926 72.5263ZM42.2558 70.0252C42.2433 69.5391 42.3296 69.1135 42.5148 68.7482C42.6998 68.3772 42.9613 68.0872 43.2992 67.8782C43.6429 67.6691 44.0378 67.5588 44.4838 67.5473C45.0614 67.5325 45.5397 67.6604 45.9186 67.931C46.3032 68.2015 46.562 68.584 46.6948 69.0784L45.8542 69.1C45.7668 68.8162 45.6037 68.5943 45.365 68.4345C45.132 68.2746 44.8439 68.199 44.5008 68.2078C44.0548 68.2193 43.6985 68.383 43.4319 68.6988C43.1652 69.009 43.0391 69.4443 43.0535 70.0047C43.0681 70.5708 43.2166 71.0048 43.499 71.3065C43.7815 71.6082 44.1457 71.7534 44.5917 71.7419C44.9348 71.7331 45.2187 71.6457 45.4433 71.4796C45.668 71.3136 45.8193 71.0809 45.8975 70.7813L46.7381 70.7597C46.6246 71.2433 46.383 71.6357 46.013 71.9371C45.643 72.2327 45.1749 72.3878 44.6087 72.4024C44.1627 72.4139 43.7627 72.324 43.4087 72.1328C43.0604 71.9415 42.7844 71.6654 42.5805 71.3044C42.3767 70.9434 42.2684 70.517 42.2558 70.0252ZM48.4978 68.2853C48.6281 68.013 48.8172 67.7992 49.0649 67.6441C49.3185 67.4888 49.6282 67.4064 49.9942 67.397L50.0149 68.2033L49.8091 68.2086C48.9341 68.2311 48.5089 68.717 48.5333 69.6663L48.599 72.2225L47.8185 72.2426L47.6975 67.5419L48.4781 67.5218L48.4978 68.2853ZM51.281 66.6858C51.1323 66.6896 51.0052 66.6414 50.8996 66.5411C50.794 66.4408 50.7393 66.3164 50.7355 66.1677C50.7317 66.019 50.7799 65.8919 50.8802 65.7863C50.9805 65.6807 51.1049 65.626 51.2536 65.6222C51.3966 65.6185 51.518 65.6669 51.6179 65.7673C51.7234 65.8676 51.7781 65.9921 51.782 66.1408C51.7858 66.2894 51.7376 66.4166 51.6373 66.5221C51.5427 66.6276 51.4239 66.6821 51.281 66.6858ZM51.678 67.4395L51.799 72.1402L51.0184 72.1603L50.8975 67.4596L51.678 67.4395ZM53.8113 68.2516C53.9588 67.9788 54.1818 67.7499 54.4803 67.5649C54.7844 67.3739 55.1394 67.2732 55.5455 67.2628C55.9629 67.2521 56.3429 67.3424 56.6855 67.5339C57.0337 67.7252 57.3098 68.0014 57.5136 68.3624C57.7173 68.7176 57.8253 69.1354 57.8377 69.6158C57.8499 70.0904 57.7636 70.5161 57.5787 70.8928C57.3938 71.2695 57.1325 71.5652 56.7947 71.7799C56.4626 71.9945 56.0878 72.1071 55.6703 72.1178C55.2701 72.1281 54.9132 72.0486 54.5999 71.8793C54.2921 71.7041 54.0547 71.4842 53.8876 71.2195L53.9673 74.3161L53.1867 74.3362L53.0084 67.4053L53.789 67.3852L53.8113 68.2516ZM57.04 69.6363C57.0308 69.2818 56.9514 68.9748 56.8017 68.7154C56.652 68.456 56.4524 68.2609 56.2029 68.13C55.9592 67.9989 55.6916 67.9371 55.3999 67.9446C55.114 67.952 54.8499 68.0303 54.6077 68.1796C54.371 68.323 54.1818 68.531 54.0401 68.8036C53.9039 69.0704 53.8403 69.3781 53.8492 69.727C53.8584 70.0815 53.9379 70.3913 54.0877 70.6564C54.2432 70.9157 54.4428 71.1137 54.6867 71.2505C54.9361 71.3814 55.2038 71.4432 55.4897 71.4358C55.7814 71.4283 56.0455 71.3528 56.2822 71.2094C56.5244 71.0601 56.7136 70.8521 56.8498 70.5854C56.9858 70.3129 57.0492 69.9966 57.04 69.6363ZM59.7738 67.875L59.8451 70.6457C59.851 70.8744 59.9038 71.0361 60.0035 71.1309C60.1031 71.2199 60.2729 71.2613 60.5131 71.2551L61.0878 71.2403L61.1048 71.9008L60.4014 71.9189C59.9668 71.9301 59.6383 71.8384 59.4158 71.6438C59.1934 71.4493 59.0763 71.1232 59.0645 70.6658L58.9932 67.8951L58.3842 67.9108L58.3677 67.2674L58.9767 67.2518L58.9462 66.068L59.7268 66.048L59.7573 67.2317L60.9839 67.2001L61.0004 67.8435L59.7738 67.875ZM62.3132 66.402C62.1645 66.4058 62.0374 66.3576 61.9318 66.2573C61.8262 66.157 61.7715 66.0326 61.7677 65.8839C61.7639 65.7352 61.8121 65.6081 61.9124 65.5025C62.0127 65.3969 62.1371 65.3422 62.2858 65.3384C62.4288 65.3347 62.5502 65.3831 62.6501 65.4835C62.7556 65.5838 62.8104 65.7083 62.8142 65.857C62.818 66.0056 62.7698 66.1328 62.6695 66.2384C62.5749 66.3438 62.4562 66.3983 62.3132 66.402ZM62.7102 67.1557L62.8312 71.8564L62.0506 71.8765L61.9297 67.1758L62.7102 67.1557ZM66.2136 71.8466C65.7733 71.8579 65.3704 71.7682 65.005 71.5773C64.6453 71.3863 64.3578 71.1104 64.1425 70.7497C63.9328 70.3832 63.8217 69.9568 63.8092 69.4708C63.7969 68.9904 63.8889 68.5646 64.0854 68.1933C64.2874 67.8162 64.566 67.5257 64.9213 67.322C65.2764 67.1126 65.677 67.0022 66.123 66.9907C66.5691 66.9792 66.9748 67.0689 67.3402 67.2598C67.7055 67.445 67.9958 67.7179 68.2111 68.0786C68.4321 68.4391 68.5488 68.8624 68.5613 69.3485C68.5738 69.8346 68.4762 70.2663 68.2685 70.6436C68.0663 71.015 67.7848 71.3055 67.4239 71.5151C67.0631 71.7246 66.6597 71.8351 66.2136 71.8466ZM66.196 71.1604C66.4762 71.1532 66.7375 71.0807 66.98 70.9428C67.2226 70.805 67.4148 70.6026 67.5567 70.3357C67.7043 70.0687 67.7733 69.7465 67.7636 69.369C67.7539 68.9916 67.6713 68.6733 67.5158 68.4141C67.3604 68.1548 67.161 67.9654 66.9175 67.8458C66.674 67.7204 66.4121 67.6614 66.1319 67.6686C65.846 67.6759 65.5846 67.7485 65.3478 67.8862C65.1166 68.018 64.9329 68.2173 64.7967 68.484C64.6605 68.7507 64.5972 69.0728 64.6069 69.4502C64.6168 69.8334 64.6937 70.1547 64.8377 70.4142C64.9875 70.6736 65.1813 70.866 65.4191 70.9915C65.6568 71.1113 65.9158 71.1676 66.196 71.1604ZM71.8155 66.8357C72.3873 66.821 72.855 66.9835 73.2185 67.3232C73.5819 67.6572 73.772 68.1501 73.7887 68.802L73.86 71.5727L73.088 71.5925L73.0196 68.9334C73.0075 68.4645 72.8811 68.1101 72.6403 67.8702C72.3994 67.6246 72.0759 67.5071 71.6699 67.5175C71.2582 67.5281 70.9327 67.6652 70.6934 67.9289C70.4598 68.1924 70.3494 68.5701 70.362 69.0619L70.4289 71.6609L69.6483 71.681L69.5274 66.9804L70.308 66.9603L70.3252 67.6294C70.4734 67.3852 70.6774 67.194 70.937 67.0557C71.2024 66.9173 71.4952 66.8439 71.8155 66.8357ZM79.4702 73.0249C78.9074 72.5015 78.4609 71.8291 78.1308 71.0079C77.8064 70.1865 77.6318 69.2954 77.6071 68.3347C77.5818 67.3511 77.7183 66.4292 78.0166 65.5689C78.3205 64.7027 78.7656 63.9846 79.3517 63.4144L80.1666 63.3935L80.1686 63.4707C79.5436 64.0876 79.079 64.8234 78.7748 65.6781C78.4762 66.527 78.3386 67.4061 78.362 68.3153C78.3848 69.2017 78.5581 70.0441 78.8819 70.8426C79.2114 71.641 79.6785 72.3357 80.2831 72.9267L80.2851 73.0039L79.4702 73.0249ZM83.3692 71.4053C82.9289 71.4166 82.526 71.3269 82.1606 71.136C81.8009 70.945 81.5134 70.6691 81.2981 70.3084C81.0884 69.9418 80.9773 69.5155 80.9648 69.0295C80.9525 68.5491 81.0445 68.1233 81.241 67.752C81.443 67.3748 81.7216 67.0844 82.0769 66.8807C82.432 66.6713 82.8326 66.5609 83.2787 66.5494C83.7247 66.5379 84.1304 66.6276 84.4958 66.8185C84.8611 67.0037 85.1514 67.2766 85.3667 67.6373C85.5877 67.9978 85.7044 68.4211 85.7169 68.9072C85.7294 69.3933 85.6318 69.825 85.4241 70.2023C85.2219 70.5737 84.9404 70.8642 84.5796 71.0738C84.2187 71.2833 83.8153 71.3938 83.3692 71.4053ZM83.3516 70.7191C83.6318 70.7119 83.8932 70.6393 84.1357 70.5015C84.3782 70.3636 84.5704 70.1613 84.7123 69.8944C84.8599 69.6274 84.9289 69.3052 84.9192 68.9277C84.9095 68.5503 84.8269 68.232 84.6715 67.9728C84.516 67.7135 84.3166 67.5241 84.0732 67.4045C83.8296 67.2791 83.5677 67.22 83.2875 67.2273C83.0016 67.2346 82.7402 67.3071 82.5034 67.4448C82.2722 67.5767 82.0885 67.776 81.9523 68.0427C81.8161 68.3094 81.7529 68.6315 81.7626 69.0089C81.7724 69.3921 81.8494 69.7134 81.9934 69.9729C82.1431 70.2323 82.3369 70.4247 82.5747 70.5502C82.8124 70.67 83.0714 70.7263 83.3516 70.7191ZM87.4859 67.3853C87.6334 67.1126 87.8564 66.8837 88.1549 66.6986C88.459 66.5077 88.814 66.407 89.2201 66.3966C89.6375 66.3858 90.0175 66.4762 90.3601 66.6677C90.7083 66.859 90.9844 67.1351 91.1882 67.4961C91.3919 67.8514 91.4999 68.2692 91.5123 68.7495C91.5245 69.2242 91.4382 69.6499 91.2533 70.0266C91.0684 70.4033 90.8071 70.699 90.4693 70.9137C90.1372 71.1282 89.7624 71.2409 89.3449 71.2516C88.9447 71.2619 88.5878 71.1824 88.2745 71.013C87.9667 70.8378 87.7293 70.6179 87.5622 70.3533L87.6419 73.4499L86.8613 73.4699L86.683 66.5391L87.4636 66.519L87.4859 67.3853ZM90.7146 68.7701C90.7054 68.4155 90.626 68.1086 90.4763 67.8492C90.3266 67.5898 90.127 67.3947 89.8775 67.2637C89.6338 67.1327 89.3662 67.0709 89.0745 67.0784C88.7886 67.0857 88.5245 67.1641 88.2823 67.3134C88.0456 67.4568 87.8564 67.6648 87.7147 67.9374C87.5785 68.2041 87.5149 68.5119 87.5238 68.8607C87.533 69.2153 87.6125 69.5251 87.7623 69.7902C87.9178 70.0494 88.1174 70.2474 88.3613 70.3842C88.6107 70.5151 88.8784 70.5769 89.1643 70.5696C89.456 70.5621 89.7201 70.4866 89.9568 70.3432C90.199 70.1939 90.3882 69.9859 90.5244 69.7191C90.6604 69.4467 90.7238 69.1303 90.7146 68.7701ZM93.4484 67.0088L93.5197 69.7794C93.5256 70.0082 93.5784 70.1699 93.6781 70.2646C93.7777 70.3536 93.9475 70.395 94.1877 70.3888L94.7624 70.3741L94.7794 71.0345L94.076 71.0526C93.6414 71.0638 93.3129 70.9721 93.0904 70.7776C92.868 70.583 92.7509 70.257 92.7391 69.7995L92.6678 67.0289L92.0588 67.0445L92.0423 66.4012L92.6513 66.3855L92.6208 65.2018L93.4014 65.1817L93.4319 66.3655L94.6585 66.3339L94.6751 66.9772L93.4484 67.0088ZM95.9878 65.5358C95.8391 65.5396 95.712 65.4914 95.6064 65.3911C95.5008 65.2908 95.4461 65.1663 95.4423 65.0176C95.4385 64.869 95.4867 64.7418 95.587 64.6362C95.6873 64.5307 95.8117 64.476 95.9604 64.4721C96.1034 64.4685 96.2248 64.5168 96.3247 64.6173C96.4302 64.7176 96.485 64.842 96.4888 64.9907C96.4926 65.1394 96.4444 65.2665 96.3441 65.3721C96.2495 65.4775 96.1308 65.5321 95.9878 65.5358ZM96.3849 66.2895L96.5058 70.9901L95.7252 71.0102L95.6043 66.3096L96.3849 66.2895ZM99.8882 70.9804C99.4479 70.9917 99.045 70.9019 98.6796 70.711C98.3199 70.52 98.0324 70.2442 97.8171 69.8835C97.6074 69.5169 97.4963 69.0906 97.4838 68.6045C97.4715 68.1242 97.5635 67.6983 97.76 67.3271C97.962 66.9499 98.2406 66.6595 98.5959 66.4558C98.951 66.2464 99.3516 66.1359 99.7976 66.1245C100.244 66.113 100.649 66.2027 101.015 66.3936C101.38 66.5787 101.67 66.8517 101.886 67.2123C102.107 67.5729 102.223 67.9962 102.236 68.4823C102.248 68.9684 102.151 69.4 101.943 69.7773C101.741 70.1488 101.459 70.4393 101.099 70.6488C100.738 70.8584 100.334 70.9689 99.8882 70.9804ZM99.8706 70.2942C100.151 70.2869 100.412 70.2144 100.655 70.0766C100.897 69.9387 101.089 69.7363 101.231 69.4695C101.379 69.2024 101.448 68.8802 101.438 68.5028C101.428 68.1254 101.346 67.807 101.19 67.5478C101.035 67.2886 100.836 67.0992 100.592 66.9795C100.349 66.8542 100.087 66.7951 99.8065 66.8023C99.5206 66.8097 99.2592 66.8822 99.0224 67.0199C98.7912 67.1518 98.6075 67.351 98.4713 67.6178C98.3351 67.8845 98.2718 68.2066 98.2815 68.584C98.2914 68.9671 98.3683 69.2885 98.5123 69.548C98.6621 69.8074 98.8559 69.9998 99.0937 70.1253C99.3314 70.2451 99.5904 70.3014 99.8706 70.2942ZM105.49 65.9694C106.062 65.9547 106.53 66.1172 106.893 66.4569C107.257 66.7909 107.447 67.2839 107.463 67.9358L107.535 70.7064L106.763 70.7263L106.694 68.0672C106.682 67.5983 106.556 67.2439 106.315 67.004C106.074 66.7584 105.751 66.6408 105.345 66.6513C104.933 66.6619 104.607 66.799 104.368 67.0627C104.134 67.3262 104.024 67.7038 104.037 68.1956L104.103 70.7947L103.323 70.8148L103.202 66.1141L103.983 66.0941L104 66.7631C104.148 66.519 104.352 66.3278 104.612 66.1895C104.877 66.051 105.17 65.9777 105.49 65.9694ZM108.457 68.3137C108.445 67.8333 108.531 67.4105 108.716 67.0452C108.901 66.6742 109.16 66.3843 109.492 66.1755C109.83 65.9665 110.208 65.8567 110.625 65.8459C111.037 65.8353 111.397 65.9148 111.704 66.0843C112.012 66.2537 112.244 66.4709 112.399 66.7359L112.377 65.8781L113.166 65.8578L113.287 70.5585L112.498 70.5788L112.476 69.7038C112.328 69.9823 112.103 70.217 111.798 70.4079C111.5 70.593 111.148 70.6907 110.742 70.7012C110.324 70.7119 109.944 70.6187 109.601 70.4215C109.259 70.2243 108.985 69.9424 108.781 69.5757C108.577 69.209 108.469 68.7883 108.457 68.3137ZM112.437 68.2199C112.428 67.8653 112.349 67.5583 112.199 67.299C112.049 67.0396 111.85 66.8444 111.6 66.7135C111.357 66.5767 111.089 66.5121 110.797 66.5196C110.506 66.5271 110.241 66.6026 110.005 66.746C109.768 66.8894 109.582 67.0945 109.446 67.3612C109.309 67.628 109.246 67.9386 109.255 68.2931C109.264 68.6534 109.344 68.9661 109.494 69.2312C109.643 69.4906 109.84 69.6886 110.084 69.8254C110.328 69.9565 110.595 70.0183 110.887 70.0108C111.179 70.0033 111.443 69.9278 111.679 69.7844C111.922 69.6351 112.111 69.4271 112.247 69.1604C112.383 68.8879 112.447 68.5744 112.437 68.2199ZM115.224 64.1569L115.387 70.5044L114.606 70.5245L114.443 64.1769L115.224 64.1569ZM116.51 72.0721L116.508 71.9949C117.081 71.3736 117.509 70.6559 117.791 69.8417C118.079 69.0275 118.212 68.1772 118.189 67.2908C118.166 66.3816 117.98 65.5108 117.633 64.6786C117.291 63.8405 116.792 63.1294 116.136 62.5455L116.134 62.4683L116.949 62.4473C117.563 62.9865 118.042 63.6809 118.384 64.5305C118.732 65.3742 118.919 66.2878 118.944 67.2714C118.969 68.2321 118.837 69.131 118.55 69.9682C118.268 70.8051 117.86 71.4995 117.325 72.0511L116.51 72.0721Z" fill="#8094AE"/>
<path d="M29.7195 112.75C29.3192 112.76 28.9572 112.701 28.6334 112.572C28.3095 112.437 28.0528 112.243 27.8632 111.991C27.6735 111.738 27.5743 111.44 27.5655 111.097L28.612 111.07C28.6415 111.327 28.747 111.536 28.9285 111.697C29.1158 111.858 29.3724 111.935 29.6984 111.926C30.0358 111.918 30.2967 111.831 30.4813 111.666C30.6658 111.495 30.7547 111.281 30.7481 111.024C30.7429 110.824 30.6787 110.662 30.5554 110.539C30.4378 110.417 30.2894 110.323 30.1104 110.259C29.9371 110.195 29.695 110.127 29.3841 110.055C28.9926 109.962 28.6726 109.867 28.424 109.77C28.1811 109.668 27.9709 109.507 27.7936 109.289C27.6164 109.07 27.5229 108.775 27.5134 108.403C27.5045 108.06 27.5826 107.758 27.7475 107.496C27.9125 107.234 28.1476 107.031 28.4528 106.885C28.7581 106.74 29.1138 106.662 29.5198 106.652C30.0973 106.637 30.5729 106.771 30.9464 107.053C31.3254 107.329 31.5414 107.719 31.5944 108.221L30.5136 108.249C30.4909 108.032 30.3831 107.849 30.1905 107.699C29.9978 107.55 29.747 107.479 29.4382 107.487C29.158 107.494 28.9311 107.571 28.7575 107.719C28.5839 107.866 28.5006 108.074 28.5075 108.343C28.5122 108.526 28.5704 108.676 28.6822 108.794C28.7995 108.905 28.9448 108.993 29.1181 109.057C29.2915 109.121 29.5278 109.19 29.8272 109.262C30.2246 109.361 30.5477 109.461 30.7963 109.563C31.0508 109.666 31.2667 109.829 31.4441 110.053C31.6271 110.272 31.7235 110.57 31.7332 110.947C31.741 111.25 31.6654 111.538 31.5065 111.811C31.3533 112.084 31.1216 112.307 30.8113 112.481C30.5066 112.649 30.1427 112.739 29.7195 112.75ZM32.5437 110.248C32.5312 109.762 32.6174 109.333 32.8024 108.962C32.993 108.586 33.2602 108.293 33.6038 108.083C33.9475 107.874 34.3452 107.764 34.797 107.752C35.3689 107.738 35.8442 107.863 36.2229 108.128C36.6073 108.387 36.8717 108.766 37.0162 109.266L35.9611 109.293C35.8693 109.061 35.7273 108.881 35.5352 108.755C35.3431 108.628 35.1041 108.568 34.8182 108.576C34.4179 108.586 34.1013 108.737 33.8685 109.029C33.6413 109.316 33.5342 109.713 33.5473 110.222C33.5604 110.731 33.6878 111.126 33.9296 111.405C34.1772 111.685 34.5011 111.82 34.9014 111.81C35.4675 111.795 35.8357 111.537 36.0059 111.034L37.0609 111.007C36.9361 111.491 36.6886 111.881 36.3185 112.177C35.9483 112.466 35.483 112.619 34.9226 112.633C34.4708 112.645 34.0679 112.555 33.7139 112.364C33.3598 112.167 33.078 111.888 32.8684 111.527C32.6644 111.16 32.5562 110.734 32.5437 110.248ZM37.6866 110.099C37.6743 109.624 37.7608 109.201 37.9458 108.83C38.1365 108.459 38.398 108.169 38.7302 107.96C39.0681 107.745 39.4428 107.633 39.8546 107.622C40.2263 107.613 40.5513 107.679 40.8296 107.82C41.1135 107.956 41.3411 108.13 41.5126 108.343L41.4949 107.657L42.4814 107.632L42.6029 112.358L41.6165 112.384L41.5984 111.68C41.4383 111.908 41.2172 112.099 40.9351 112.255C40.653 112.411 40.3289 112.494 39.963 112.503C39.5569 112.514 39.1826 112.42 38.8399 112.223C38.4971 112.02 38.2208 111.736 38.0111 111.369C37.8069 110.997 37.6988 110.573 37.6866 110.099ZM41.5556 110.016C41.5472 109.69 41.4713 109.409 41.3279 109.172C41.1902 108.935 41.0111 108.757 40.7905 108.637C40.57 108.517 40.3339 108.46 40.0823 108.466C39.8307 108.473 39.5978 108.542 39.3838 108.673C39.1695 108.799 38.9969 108.983 38.8658 109.227C38.7403 109.465 38.6818 109.747 38.6902 110.073C38.6985 110.399 38.7717 110.683 38.9095 110.925C39.0531 111.168 39.2352 111.352 39.4559 111.478C39.6822 111.598 39.9182 111.655 40.1641 111.648C40.4158 111.642 40.6486 111.573 40.8627 111.442C41.0767 111.31 41.2464 111.123 41.3718 110.879C41.5027 110.63 41.564 110.342 41.5556 110.016ZM44.7019 105.952L44.8652 112.3L43.8873 112.325L43.724 105.978L44.7019 105.952ZM50.4171 109.677C50.4216 109.854 50.4143 110.014 50.3951 110.158L46.7839 110.251C46.8222 110.627 46.9701 110.927 47.2276 111.149C47.4851 111.371 47.7968 111.478 48.1628 111.468C48.6889 111.455 49.055 111.225 49.2609 110.779L50.316 110.752C50.1842 111.19 49.9332 111.555 49.563 111.844C49.1984 112.129 48.7387 112.278 48.184 112.292C47.7322 112.304 47.3236 112.214 46.9582 112.023C46.5984 111.826 46.3108 111.548 46.0955 111.187C45.8858 110.82 45.7747 110.394 45.7622 109.908C45.7497 109.422 45.836 108.993 46.021 108.622C46.2116 108.245 46.4816 107.952 46.831 107.743C47.1861 107.534 47.5952 107.423 48.0584 107.411C48.5045 107.4 48.9044 107.487 49.2583 107.672C49.6121 107.858 49.8908 108.125 50.0943 108.475C50.2977 108.818 50.4053 109.219 50.4171 109.677ZM49.3884 109.394C49.3734 109.034 49.2373 108.748 48.9801 108.538C48.7229 108.327 48.4084 108.226 48.0367 108.236C47.6993 108.244 47.4133 108.361 47.1788 108.584C46.944 108.802 46.8085 109.094 46.7721 109.461L49.3884 109.394Z" fill="#363E49"/>
<path d="M46.0947 149.246C45.5535 149.26 44.8546 149.104 43.9735 148.616L40.8737 146.887C40.5524 146.711 39.9397 146.727 39.6381 146.919L36.6211 148.805C34.8412 149.924 33.7681 149.522 33.2793 149.187C32.8006 148.852 32.0425 147.983 32.4699 145.928L33.1143 142.774C33.1876 142.445 33.0097 141.888 32.7584 141.649L30.1607 139.182C28.8619 137.948 28.9362 136.863 29.0961 136.328C29.256 135.792 29.7833 134.839 31.5321 134.497L34.7757 133.872C35.0807 133.813 35.5114 133.475 35.6371 133.196L37.3518 129.545C38.1265 127.88 39.1924 127.607 39.754 127.593C40.3157 127.578 41.3942 127.796 42.2534 129.419L44.1432 132.967C44.2932 133.239 44.7407 133.555 45.0484 133.598L48.3198 134.055C50.0941 134.306 50.6697 135.231 50.8467 135.758C51.0238 136.285 51.1537 137.365 49.9303 138.663L47.4632 141.271C47.2244 141.522 47.0854 142.078 47.1656 142.413L47.9712 145.529C48.4935 147.559 47.7913 148.466 47.3305 148.826C47.08 149.016 46.6767 149.231 46.0947 149.246ZM40.2077 145.228C40.7081 145.215 41.2116 145.325 41.6159 145.55L44.7157 147.279C45.6178 147.787 46.1794 147.772 46.3899 147.614C46.6004 147.455 46.7397 146.91 46.4893 145.915L45.6836 142.798C45.4678 141.956 45.7562 140.855 46.3529 140.216L48.8202 137.619C49.3077 137.105 49.5198 136.61 49.409 136.275C49.288 135.941 48.8112 135.677 48.1139 135.583L44.8424 135.126C44.0527 135.013 43.1787 134.402 42.8029 133.696L40.9131 130.148C40.5696 129.503 40.1511 129.125 39.7937 129.135C39.4363 129.144 39.0378 129.542 38.7381 130.204L37.0231 133.845C36.684 134.569 35.8425 135.224 35.0597 135.377L31.8263 136.002C31.1348 136.132 30.6721 136.42 30.5685 136.76C30.4648 137.1 30.7125 137.594 31.2255 138.071L33.8232 140.539C34.4516 141.136 34.7966 142.23 34.6243 143.083L33.98 146.237C33.7711 147.254 33.9481 147.78 34.1665 147.928C34.3849 148.076 34.9361 148.051 35.8213 147.507L38.8281 145.621C39.2101 145.376 39.7073 145.241 40.2077 145.228Z" fill="#8094AE"/>
<path d="M80.4062 148.363C79.865 148.377 79.1661 148.221 78.285 147.733L75.1852 146.004C74.8639 145.828 74.2512 145.844 73.9496 146.036L70.9326 147.922C69.1527 149.041 68.0797 148.639 67.5908 148.304C67.1121 147.969 66.354 147.1 66.7814 145.045L67.4258 141.891C67.4991 141.563 67.3213 141.005 67.0699 140.766L64.4722 138.299C63.1734 137.065 63.2477 135.98 63.4076 135.445C63.5676 134.909 64.0948 133.956 65.8436 133.614L69.0872 132.989C69.3923 132.93 69.823 132.592 69.9486 132.313L71.6634 128.662C72.438 126.997 73.5039 126.724 74.0656 126.71C74.6272 126.695 75.7057 126.913 76.565 128.536L78.4547 132.084C78.6047 132.356 79.0522 132.672 79.3599 132.715L82.6314 133.172C84.4056 133.423 84.9812 134.348 85.1582 134.875C85.3353 135.402 85.4652 136.482 84.2418 137.78L81.7747 140.388C81.5359 140.64 81.3969 141.195 81.4771 141.53L82.2828 144.646C82.805 146.677 82.1029 147.584 81.642 147.943C81.3915 148.133 80.9883 148.348 80.4062 148.363ZM74.5192 144.345C75.0196 144.332 75.5231 144.442 75.9274 144.667L79.0272 146.396C79.9293 146.904 80.4909 146.889 80.7014 146.731C80.9119 146.572 81.0512 146.027 80.8008 145.032L79.9951 141.916C79.7793 141.073 80.0677 139.972 80.6644 139.334L83.1318 136.736C83.6193 136.223 83.8313 135.727 83.7205 135.392C83.5995 135.058 83.1227 134.795 82.4254 134.7L79.154 134.243C78.3643 134.13 77.4902 133.519 77.1144 132.814L75.2247 129.265C74.8811 128.62 74.4626 128.243 74.1052 128.252C73.7478 128.261 73.3493 128.66 73.0496 129.321L71.3346 132.962C70.9956 133.686 70.1541 134.341 69.3712 134.494L66.1378 135.119C65.4463 135.249 64.9836 135.537 64.88 135.877C64.7763 136.217 65.0241 136.711 65.537 137.188L68.1347 139.656C68.7631 140.253 69.1081 141.348 68.9359 142.2L68.2915 145.354C68.0826 146.371 68.2597 146.897 68.478 147.045C68.6964 147.193 69.2476 147.168 70.1328 146.625L73.1396 144.739C73.5216 144.494 74.0188 144.358 74.5192 144.345Z" fill="#8094AE"/>
<path d="M114.717 147.48C114.176 147.494 113.477 147.338 112.596 146.85L109.496 145.121C109.174 144.946 108.562 144.961 108.26 145.153L105.243 147.039C103.463 148.158 102.39 147.756 101.901 147.422C101.423 147.086 100.665 146.217 101.092 144.162L101.736 141.009C101.81 140.68 101.632 140.122 101.38 139.884L98.7828 137.416C97.484 136.183 97.5582 135.097 97.7182 134.562C97.8781 134.027 98.4054 133.073 100.154 132.732L103.398 132.107C103.703 132.048 104.134 131.71 104.259 131.43L105.974 127.779C106.749 126.114 107.814 125.841 108.376 125.827C108.938 125.813 110.016 126.03 110.876 127.653L112.765 131.201C112.915 131.473 113.363 131.789 113.67 131.832L116.942 132.289C118.716 132.54 119.292 133.465 119.469 133.992C119.646 134.519 119.776 135.599 118.552 136.897L116.085 139.505C115.846 139.757 115.707 140.312 115.788 140.647L116.593 143.764C117.116 145.794 116.413 146.701 115.953 147.06C115.702 147.251 115.299 147.465 114.717 147.48ZM108.83 143.463C109.33 143.45 109.834 143.559 110.238 143.784L113.338 145.513C114.24 146.021 114.801 146.007 115.012 145.848C115.222 145.689 115.362 145.144 115.111 144.149L114.306 141.033C114.09 140.19 114.378 139.089 114.975 138.451L117.442 135.853C117.93 135.34 118.142 134.844 118.031 134.51C117.91 134.175 117.433 133.912 116.736 133.817L113.465 133.36C112.675 133.247 111.801 132.636 111.425 131.931L109.535 128.382C109.192 127.737 108.773 127.36 108.416 127.369C108.058 127.378 107.66 127.777 107.36 128.438L105.645 132.079C105.306 132.803 104.465 133.459 103.682 133.612L100.448 134.236C99.7568 134.367 99.2942 134.654 99.1905 134.994C99.0869 135.334 99.3346 135.828 99.8476 136.306L102.445 138.773C103.074 139.37 103.419 140.465 103.246 141.317L102.602 144.471C102.393 145.488 102.57 146.015 102.789 146.162C103.007 146.31 103.558 146.286 104.443 145.742L107.45 143.856C107.832 143.611 108.329 143.475 108.83 143.463Z" fill="#8094AE"/>
<path d="M149.029 146.597C148.488 146.611 147.789 146.456 146.908 145.967L143.808 144.238C143.487 144.063 142.874 144.079 142.573 144.27L139.556 146.156C137.776 147.275 136.703 146.874 136.214 146.539C135.735 146.204 134.977 145.334 135.404 143.279L136.049 140.126C136.122 139.797 135.944 139.24 135.693 139.001L133.095 136.533C131.796 135.3 131.871 134.215 132.031 133.679C132.191 133.144 132.718 132.19 134.467 131.849L137.71 131.224C138.015 131.165 138.446 130.827 138.572 130.548L140.286 126.896C141.061 125.231 142.127 124.959 142.689 124.944C143.25 124.93 144.329 125.147 145.188 126.77L147.078 130.319C147.228 130.591 147.675 130.906 147.983 130.949L151.254 131.407C153.029 131.657 153.604 132.583 153.781 133.109C153.958 133.636 154.088 134.716 152.865 136.015L150.398 138.622C150.159 138.874 150.02 139.429 150.1 139.764L150.906 142.881C151.428 144.911 150.726 145.818 150.265 146.177C150.015 146.368 149.611 146.582 149.029 146.597ZM143.142 142.58C143.643 142.567 144.146 142.677 144.55 142.901L147.65 144.63C148.552 145.138 149.114 145.124 149.324 144.965C149.535 144.806 149.674 144.261 149.424 143.266L148.618 140.15C148.402 139.307 148.691 138.207 149.287 137.568L151.755 134.97C152.242 134.457 152.454 133.961 152.344 133.627C152.223 133.293 151.746 133.029 151.048 132.935L147.777 132.477C146.987 132.365 146.113 131.754 145.737 131.048L143.848 127.5C143.504 126.854 143.086 126.477 142.728 126.486C142.371 126.495 141.972 126.894 141.673 127.556L139.958 131.197C139.619 131.921 138.777 132.576 137.994 132.729L134.761 133.354C134.069 133.484 133.607 133.771 133.503 134.111C133.399 134.451 133.647 134.946 134.16 135.423L136.758 137.89C137.386 138.487 137.731 139.582 137.559 140.434L136.915 143.588C136.706 144.605 136.883 145.132 137.101 145.28C137.319 145.427 137.871 145.403 138.756 144.859L141.763 142.973C142.145 142.728 142.642 142.593 143.142 142.58Z" fill="#8094AE"/>
<path d="M183.341 145.715C182.8 145.729 182.101 145.573 181.22 145.085L178.12 143.356C177.798 143.18 177.186 143.196 176.884 143.387L173.867 145.274C172.087 146.392 171.014 145.991 170.525 145.656C170.047 145.321 169.289 144.451 169.716 142.397L170.36 139.243C170.434 138.914 170.256 138.357 170.004 138.118L167.407 135.651C166.108 134.417 166.182 133.332 166.342 132.796C166.502 132.261 167.029 131.307 168.778 130.966L172.022 130.341C172.327 130.282 172.758 129.944 172.883 129.665L174.598 126.014C175.373 124.348 176.438 124.076 177 124.061C177.562 124.047 178.64 124.264 179.5 125.887L181.389 129.436C181.539 129.708 181.987 130.023 182.294 130.066L185.566 130.524C187.34 130.775 187.916 131.7 188.093 132.227C188.27 132.753 188.4 133.833 187.176 135.132L184.709 137.74C184.47 137.991 184.331 138.546 184.412 138.882L185.217 141.998C185.74 144.028 185.037 144.935 184.577 145.295C184.326 145.485 183.923 145.7 183.341 145.715ZM177.454 141.697C177.954 141.684 178.458 141.794 178.862 142.018L181.962 143.747C182.864 144.255 183.425 144.241 183.636 144.082C183.846 143.924 183.986 143.378 183.735 142.383L182.93 139.267C182.714 138.425 183.002 137.324 183.599 136.685L186.066 134.087C186.554 133.574 186.766 133.078 186.655 132.744C186.534 132.41 186.057 132.146 185.36 132.052L182.089 131.594C181.299 131.482 180.425 130.871 180.049 130.165L178.159 126.617C177.816 125.972 177.397 125.594 177.04 125.603C176.682 125.613 176.284 126.011 175.984 126.673L174.269 130.314C173.93 131.038 173.089 131.693 172.306 131.846L169.072 132.471C168.381 132.601 167.918 132.889 167.815 133.229C167.711 133.568 167.959 134.063 168.472 134.54L171.069 137.007C171.698 137.604 172.043 138.699 171.87 139.552L171.226 142.705C171.017 143.722 171.194 144.249 171.413 144.397C171.631 144.544 172.182 144.52 173.067 143.976L176.074 142.09C176.456 141.845 176.953 141.71 177.454 141.697Z" fill="#8094AE"/>
<path d="M209.367 142.928C204.522 143.053 200.483 139.216 200.359 134.372C200.234 129.527 204.07 125.489 208.915 125.364C213.759 125.239 217.798 129.076 217.923 133.92C218.047 138.764 214.211 142.803 209.367 142.928ZM208.946 126.589C204.78 126.697 201.477 130.174 201.584 134.34C201.691 138.507 205.169 141.81 209.335 141.703C213.502 141.595 216.805 138.118 216.697 133.952C216.59 129.785 213.113 126.482 208.946 126.589Z" fill="#6200EE"/>
<path d="M212.424 134.674L205.888 134.842C205.553 134.851 205.269 134.58 205.26 134.246C205.251 133.911 205.522 133.626 205.857 133.617L212.392 133.449C212.727 133.44 213.012 133.711 213.021 134.046C213.029 134.381 212.759 134.666 212.424 134.674Z" fill="#6200EE"/>
<path d="M209.24 138.026C208.905 138.035 208.62 137.764 208.612 137.429L208.443 130.894C208.435 130.559 208.705 130.274 209.04 130.265C209.375 130.257 209.66 130.527 209.669 130.862L209.837 137.398C209.846 137.733 209.575 138.018 209.24 138.026Z" fill="#6200EE"/>
</svg>
