<svg width="404" height="259" viewBox="0 0 404 259" fill="none" xmlns="http://www.w3.org/2000/svg">
<rect x="-28.4785" y="0.230469" width="432" height="247.806" rx="9.29032" transform="rotate(1.40206 -28.4785 0.230469)" fill="white"/>
<path d="M-5.54225 27.7547L-5.50926 26.4068L-2.99117 26.4685L-3.1776 34.0854L-4.68218 34.0486L-4.52874 27.7795L-5.54225 27.7547ZM-0.919333 34.2139C-1.18403 34.2074 -1.40149 34.1219 -1.57171 33.9575C-1.73479 33.7862 -1.81335 33.5787 -1.80738 33.3349C-1.80141 33.0911 -1.71288 32.8911 -1.54179 32.735C-1.36355 32.5721 -1.14209 32.4938 -0.877393 32.5003C-0.619664 32.5066 -0.409257 32.5954 -0.246173 32.7667C-0.0829189 32.931 -0.00427515 33.135 -0.0102422 33.3788C-0.0162093 33.6226 -0.104827 33.8261 -0.276094 33.9892C-0.447191 34.1453 -0.661604 34.2202 -0.919333 34.2139ZM2.7612 28.1148L2.71645 29.9432L5.17184 30.0033L5.14345 31.1631L2.68806 31.103L2.64075 33.036L5.4096 33.1038L5.38044 34.2949L1.14881 34.1913L1.32756 26.8878L5.5592 26.9914L5.53005 28.1825L2.7612 28.1148ZM10.0612 28.5339C10.7508 28.5508 11.3027 28.7838 11.7168 29.2331C12.1312 29.6753 12.3288 30.2865 12.3097 31.0667L12.2266 34.4624L10.7638 34.4266L10.842 31.2294C10.8533 30.7697 10.747 30.4151 10.5231 30.1657C10.2993 29.9093 9.98895 29.7762 9.59191 29.7665C9.1879 29.7566 8.86441 29.8742 8.62144 30.1191C8.3856 30.3573 8.26206 30.7063 8.25081 31.166L8.17256 34.3632L6.70977 34.3274L6.85144 28.539L8.31423 28.5748L8.29659 29.2957C8.49776 29.0497 8.74982 28.8607 9.05275 28.7287C9.36282 28.59 9.69896 28.525 10.0612 28.5339ZM15.433 29.9513L15.3644 32.7515C15.3597 32.9465 15.4014 33.0904 15.4898 33.1832C15.5853 33.2692 15.7444 33.3149 15.9673 33.3203L16.6465 33.337L16.6163 34.5699L15.6969 34.5474C14.4639 34.5172 13.8621 33.9031 13.8915 32.705L13.9597 29.9152L13.2701 29.8984L13.2995 28.6968L13.9891 28.7137L14.0242 27.2822L15.4974 27.3183L15.4624 28.7497L16.758 28.7814L16.7286 29.983L15.433 29.9513ZM23.1233 31.7077C23.1182 31.9167 23.0997 32.1044 23.0677 32.2709L18.8361 32.1674C18.8607 32.5861 18.9989 32.9171 19.2509 33.1602C19.5028 33.4034 19.8168 33.5296 20.193 33.5388C20.7363 33.5521 21.1286 33.3282 21.3699 32.8671L22.9476 32.9057C22.7668 33.4589 22.4351 33.9108 21.9526 34.2614C21.4702 34.6051 20.8843 34.7684 20.1947 34.7516C19.6374 34.7379 19.1389 34.6037 18.699 34.349C18.2663 34.0875 17.9301 33.7273 17.6905 33.2684C17.4577 32.8097 17.3486 32.2843 17.3631 31.6922C17.3778 31.0932 17.5126 30.5702 17.7674 30.1234C18.0223 29.6766 18.3722 29.3367 18.817 29.1036C19.2618 28.8706 19.7698 28.761 20.3409 28.775C20.8912 28.7885 21.3794 28.9189 21.8055 29.1663C22.2385 29.4139 22.5681 29.76 22.7942 30.2046C23.0274 30.6425 23.1371 31.1435 23.1233 31.7077ZM21.6185 31.2527C21.6207 30.8764 21.4922 30.5735 21.233 30.3442C20.9739 30.1078 20.6529 29.985 20.2697 29.9756C19.9075 29.9667 19.5983 30.0707 19.3421 30.2874C19.093 30.4974 18.9358 30.7967 18.8706 31.1854L21.6185 31.2527ZM25.6996 29.8994C25.8952 29.5975 26.1448 29.3631 26.4486 29.1963C26.7594 29.0297 27.1098 28.9512 27.4999 28.9607L27.4623 30.4966L27.0757 30.4872C26.6159 30.4759 26.265 30.5754 26.0229 30.7855C25.7877 30.9958 25.6636 31.3691 25.6505 31.9055L25.5799 34.7893L24.1171 34.7535L24.2588 28.965L25.7216 29.0008L25.6996 29.8994ZM36.2328 36.3359L35.1578 34.9819C34.8494 35.051 34.535 35.0816 34.2146 35.0738C33.532 35.0571 32.909 34.8815 32.3456 34.5471C31.7823 34.2127 31.3403 33.7593 31.0198 33.1869C30.6994 32.6076 30.548 31.9591 30.5656 31.2417C30.583 30.5312 30.7658 29.8979 31.1139 29.3419C31.4622 28.7789 31.9259 28.3442 32.505 28.0377C33.084 27.7313 33.7148 27.5864 34.3974 27.6031C35.087 27.62 35.71 27.7956 36.2664 28.1298C36.8297 28.4642 37.2681 28.921 37.5815 29.5002C37.9021 30.0726 38.0536 30.714 38.0363 31.4245C38.0204 32.0723 37.8666 32.661 37.5748 33.1905C37.2902 33.7133 36.907 34.136 36.4251 34.4588L38.0509 36.3804L36.2328 36.3359ZM32.0702 31.2785C32.0582 31.7661 32.1418 32.1968 32.3208 32.5706C32.4999 32.9444 32.7541 33.2363 33.0835 33.4465C33.42 33.6499 33.8077 33.757 34.2466 33.7677C34.6854 33.7785 35.0744 33.6904 35.4135 33.5036C35.7528 33.3097 36.021 33.0305 36.2181 32.666C36.4152 32.3014 36.5197 31.8753 36.5317 31.3877C36.5436 30.9001 36.46 30.4729 36.2808 30.1061C36.1017 29.7323 35.8474 29.4438 35.5178 29.2406C35.1883 29.0374 34.8041 28.9304 34.3652 28.9196C33.9264 28.9089 33.5339 28.9969 33.1878 29.1836C32.8487 29.3704 32.5806 29.6461 32.3835 30.0107C32.1865 30.3683 32.0821 30.7909 32.0702 31.2785ZM44.6614 29.4644L44.5197 35.2528L43.0465 35.2168L43.0644 34.4854C42.8702 34.7315 42.618 34.924 42.308 35.0628C42.005 35.1948 41.676 35.2564 41.3207 35.2477C40.8679 35.2366 40.4697 35.1328 40.126 34.9362C39.7825 34.7326 39.5143 34.4438 39.3213 34.0697C39.1355 33.6888 39.0489 33.2406 39.0615 32.7251L39.1446 29.3293L40.6074 29.3652L40.5294 32.5519C40.5181 33.0117 40.6244 33.3697 40.8481 33.6261C41.072 33.8755 41.3825 34.0051 41.7795 34.0148C42.1835 34.0247 42.5035 33.9106 42.7393 33.6724C42.9753 33.4273 43.0989 33.0748 43.1102 32.6151L43.1882 29.4283L44.6614 29.4644ZM51.4179 32.4002C51.4128 32.6092 51.3942 32.797 51.3623 32.9634L47.1306 32.8599C47.1552 33.2787 47.2935 33.6096 47.5454 33.8528C47.7974 34.0959 48.1114 34.2221 48.4876 34.2313C49.0309 34.2446 49.4232 34.0207 49.6645 33.5596L51.2422 33.5982C51.0614 34.1514 50.7297 34.6033 50.2472 34.9539C49.7648 35.2976 49.1788 35.461 48.4892 35.4441C47.932 35.4304 47.4334 35.2963 46.9936 35.0416C46.5609 34.7801 46.2247 34.4199 45.985 33.9609C45.7523 33.5022 45.6432 32.9768 45.6577 32.3847C45.6724 31.7857 45.8071 31.2628 46.062 30.816C46.3169 30.3692 46.6667 30.0292 47.1115 29.7962C47.5563 29.5631 48.0643 29.4536 48.6355 29.4675C49.1858 29.481 49.674 29.6115 50.1001 29.8589C50.5331 30.1064 50.8627 30.4525 51.0888 30.8972C51.322 31.335 51.4317 31.836 51.4179 32.4002ZM49.9131 31.9452C49.9153 31.5689 49.7868 31.2661 49.5276 31.0367C49.2685 30.8003 48.9474 30.6775 48.5643 30.6681C48.2021 30.6592 47.8929 30.7632 47.6367 30.9799C47.3876 31.1899 47.2304 31.4893 47.1651 31.878L49.9131 31.9452ZM54.6245 35.5942C54.1508 35.5827 53.7279 35.4887 53.3559 35.3123C52.984 35.1289 52.6902 34.8883 52.4744 34.5902C52.2657 34.2924 52.1552 33.9656 52.143 33.6098L53.6162 33.6459C53.6386 33.8695 53.7421 34.0567 53.9266 34.2076C54.118 34.3586 54.3565 34.4377 54.6421 34.4447C54.9208 34.4515 55.1381 34.401 55.294 34.2933C55.457 34.1858 55.5406 34.045 55.5448 33.8708C55.5494 33.6828 55.4553 33.5411 55.2625 33.4457C55.0768 33.3436 54.7764 33.2317 54.3612 33.11C53.9319 32.995 53.5792 32.8783 53.3033 32.76C53.0344 32.6419 52.8018 32.4655 52.6054 32.2307C52.416 31.996 52.326 31.6837 52.3356 31.2936C52.3434 30.9732 52.4411 30.6828 52.6287 30.4226C52.8233 30.1625 53.0931 29.96 53.4382 29.8151C53.7902 29.6704 54.1996 29.6037 54.6663 29.6152C55.3559 29.632 55.9019 29.8196 56.3043 30.178C56.7069 30.5294 56.922 30.9981 56.9495 31.5843L55.5494 31.55C55.5341 31.3196 55.441 31.1361 55.2701 30.9995C55.1063 30.8561 54.8817 30.7809 54.5961 30.7739C54.3314 30.7674 54.1247 30.8112 53.976 30.9051C53.8343 30.9992 53.7614 31.1333 53.7571 31.3075C53.7523 31.5025 53.8462 31.6547 54.0386 31.7639C54.2313 31.8662 54.5318 31.9746 54.9403 32.0892C55.3556 32.2039 55.6978 32.3203 55.9667 32.4384C56.2357 32.5565 56.4647 32.7364 56.654 32.978C56.8504 33.2128 56.9473 33.5218 56.9449 33.9051C56.9368 34.2394 56.8354 34.5367 56.6408 34.7968C56.4532 35.057 56.1834 35.2595 55.8314 35.4042C55.4865 35.5422 55.0842 35.6055 54.6245 35.5942ZM59.9207 31.0401L59.8521 33.8403C59.8473 34.0354 59.8891 34.1793 59.9775 34.2721C60.0729 34.358 60.2321 34.4037 60.455 34.4092L61.1342 34.4258L61.104 35.6587L60.1845 35.6362C58.9516 35.6061 58.3498 34.9919 58.3791 33.7938L58.4474 31.0041L57.7578 30.9872L57.7872 29.7856L58.4768 29.8025L58.5119 28.3711L59.9851 28.4071L59.9501 29.8386L61.2457 29.8703L61.2163 31.0719L59.9207 31.0401ZM63.0565 29.2246C62.7988 29.2183 62.5848 29.1329 62.4146 28.9684C62.2515 28.7972 62.1729 28.5896 62.1789 28.3458C62.1849 28.102 62.2734 27.9021 62.4445 27.7459C62.6227 27.583 62.8407 27.5047 63.0985 27.511C63.3562 27.5173 63.5666 27.6061 63.7297 27.7774C63.8999 27.9419 63.982 28.146 63.9761 28.3898C63.9701 28.6336 63.878 28.837 63.6998 28.9999C63.5287 29.156 63.3142 29.2309 63.0565 29.2246ZM63.7606 29.9318L63.6189 35.7203L62.1561 35.6845L62.2978 29.896L63.7606 29.9318ZM67.6322 35.9126C67.0749 35.899 66.5764 35.7648 66.1365 35.5101C65.6969 35.2484 65.3537 34.888 65.1071 34.429C64.8674 33.9701 64.7548 33.4446 64.7693 32.8525C64.7838 32.2604 64.9254 31.7411 65.1942 31.2947C65.47 30.8484 65.8373 30.5089 66.296 30.2762C66.7549 30.0365 67.263 29.9235 67.8202 29.9371C68.3775 29.9507 68.8794 30.0885 69.3261 30.3503C69.7729 30.6052 70.1196 30.9622 70.3662 31.4213C70.6199 31.8805 70.7394 32.4062 70.7249 32.9983C70.7104 33.5903 70.5618 34.1094 70.2791 34.5556C70.0033 35.0018 69.6325 35.3447 69.1666 35.5843C68.7079 35.817 68.1964 35.9264 67.6322 35.9126ZM67.6634 34.6379C67.9281 34.6444 68.1769 34.5877 68.4098 34.468C68.6499 34.3414 68.8427 34.151 68.9884 33.8967C69.134 33.6424 69.2113 33.3306 69.2203 32.9614C69.2338 32.4111 69.0978 31.9861 68.8124 31.6864C68.5342 31.3799 68.1861 31.2215 67.7681 31.2113C67.3502 31.2011 66.9948 31.3422 66.7019 31.6348C66.4161 31.9205 66.2664 32.3385 66.253 32.8888C66.2395 33.4391 66.3649 33.8673 66.6293 34.1735C66.9007 34.4729 67.2454 34.6277 67.6634 34.6379ZM75.0785 30.1252C75.7681 30.1421 76.32 30.3751 76.7341 30.8244C77.1485 31.2667 77.3461 31.8779 77.327 32.658L77.2439 36.0538L75.7811 36.018L75.8594 32.8207C75.8706 32.361 75.7643 32.0064 75.5404 31.757C75.3167 31.5006 75.0063 31.3676 74.6092 31.3578C74.2052 31.3479 73.8817 31.4655 73.6388 31.7105C73.4029 31.9486 73.2794 32.2976 73.2681 32.7573L73.1899 35.9545L71.7271 35.9187L71.8688 30.1303L73.3316 30.1661L73.3139 30.887C73.5151 30.641 73.7671 30.4521 74.0701 30.3201C74.3801 30.1813 74.7163 30.1163 75.0785 30.1252ZM86.2661 28.9772L86.2372 30.1579L84.2938 30.1103L84.1442 36.2227L82.6814 36.1869L82.831 30.0745L80.8876 30.0269L80.9165 28.8463L86.2661 28.9772ZM88.0553 29.8364C87.7976 29.8301 87.5836 29.7447 87.4134 29.5803C87.2503 29.409 87.1718 29.2015 87.1777 28.9577C87.1837 28.7139 87.2722 28.5139 87.4433 28.3578C87.6216 28.1949 87.8395 28.1166 88.0973 28.1229C88.355 28.1292 88.5654 28.218 88.7285 28.3893C88.8987 28.5537 88.9808 28.7579 88.9749 29.0017C88.9689 29.2455 88.8768 29.4488 88.6986 29.6117C88.5275 29.7678 88.3131 29.8428 88.0553 29.8364ZM88.7594 30.5437L88.6177 36.3322L87.1549 36.2964L87.2966 30.5079L88.7594 30.5437ZM91.8783 31.8223L91.8098 34.6225C91.805 34.8176 91.8468 34.9615 91.9351 35.0542C92.0306 35.1402 92.1898 35.1859 92.4127 35.1914L93.0919 35.208L93.0617 36.4409L92.1422 36.4184C90.9093 36.3882 90.3075 35.7741 90.3368 34.576L90.4051 31.7863L89.7155 31.7694L89.7449 30.5678L90.4345 30.5847L90.4695 29.1532L91.9428 29.1893L91.9077 30.6207L93.2034 30.6525L93.1739 31.854L91.8783 31.8223ZM95.7658 28.7706L95.5766 36.5025L94.1138 36.4667L94.303 28.7348L95.7658 28.7706ZM102.477 33.6499C102.472 33.8589 102.453 34.0466 102.421 34.2131L98.1895 34.1096C98.2141 34.5284 98.3523 34.8593 98.6042 35.1025C98.8562 35.3456 99.1702 35.4718 99.5464 35.481C100.09 35.4943 100.482 35.2704 100.723 34.8093L102.301 34.8479C102.12 35.4011 101.789 35.853 101.306 36.2036C100.824 36.5473 100.238 36.7106 99.548 36.6938C98.9908 36.6801 98.4923 36.546 98.0524 36.2912C97.6197 36.0297 97.2835 35.6695 97.0438 35.2106C96.8111 34.7519 96.702 34.2265 96.7165 33.6344C96.7312 33.0354 96.8659 32.5124 97.1208 32.0656C97.3757 31.6188 97.7255 31.2789 98.1703 31.0459C98.6151 30.8128 99.1231 30.7033 99.6943 30.7172C100.245 30.7307 100.733 30.8611 101.159 31.1085C101.592 31.3561 101.921 31.7022 102.148 32.1469C102.381 32.5847 102.491 33.0857 102.477 33.6499ZM100.972 33.1949C100.974 32.8186 100.846 32.5158 100.586 32.2864C100.327 32.05 100.006 31.9272 99.6231 31.9178C99.2609 31.9089 98.9517 32.0129 98.6955 32.2296C98.4464 32.4396 98.2892 32.7389 98.2239 33.1277L100.972 33.1949Z" fill="#8094AE"/>
<rect x="366.184" y="24.1196" width="22.6452" height="22.6452" rx="4.35484" transform="rotate(1.40206 366.184 24.1196)" fill="white"/>
<rect x="366.184" y="24.1196" width="22.6452" height="22.6452" rx="4.35484" transform="rotate(1.40206 366.184 24.1196)" stroke="#F2F4F7" stroke-width="0.580645"/>
<path d="M373.125 37.2141C372.242 37.1925 371.546 36.461 371.567 35.5787C371.589 34.6964 372.32 33.9999 373.203 34.0215C374.085 34.0431 374.782 34.7745 374.76 35.6569C374.738 36.5392 374.007 37.2357 373.125 37.2141ZM373.181 34.8922C372.781 34.8824 372.448 35.1995 372.438 35.6C372.428 36.0006 372.745 36.3336 373.146 36.3434C373.546 36.3532 373.879 36.0361 373.889 35.6355C373.899 35.235 373.582 34.902 373.181 34.8922Z" fill="#11002A"/>
<path d="M381.251 37.4114C380.368 37.3898 379.672 36.6583 379.693 35.776C379.715 34.8937 380.446 34.1972 381.329 34.2188C382.211 34.2404 382.908 34.9718 382.886 35.8541C382.864 36.7364 382.133 37.4329 381.251 37.4114ZM381.307 35.0895C380.907 35.0797 380.574 35.3968 380.564 35.7973C380.554 36.1978 380.871 36.5308 381.272 36.5406C381.672 36.5504 382.005 36.2333 382.015 35.8328C382.025 35.4323 381.708 35.0993 381.307 35.0895Z" fill="#11002A"/>
<path d="M377.187 37.3117C376.305 37.2901 375.608 36.5587 375.63 35.6764C375.651 34.7941 376.383 34.0976 377.265 34.1191C378.148 34.1407 378.844 34.8722 378.822 35.7545C378.801 36.6368 378.069 37.3333 377.187 37.3117ZM377.244 34.9899C376.843 34.9801 376.51 35.2972 376.501 35.6977C376.491 36.0982 376.808 36.4312 377.208 36.441C377.609 36.4508 377.942 36.1337 377.952 35.7332C377.962 35.3327 377.644 34.9997 377.244 34.9899Z" fill="#11002A"/>
<path d="M-4.17869 54.3349C-3.56106 54.35 -3.03027 54.4796 -2.5863 54.7235C-2.13678 54.9622 -1.79807 55.2985 -1.57016 55.7323C-1.33684 56.1663 -1.22727 56.6731 -1.24146 57.2528C-1.25565 57.8325 -1.38988 58.3334 -1.64415 58.7554C-1.89288 59.1722 -2.24757 59.4887 -2.70823 59.7051C-3.16333 59.9163 -3.6997 60.0143 -4.31732 59.9991L-6.08079 59.956L-5.94216 54.2917L-4.17869 54.3349ZM-4.3024 59.3896C-3.57101 59.4075 -3.00828 59.2289 -2.6142 58.8536C-2.22 58.473 -2.01434 57.9332 -1.99723 57.2343C-1.98 56.53 -2.16157 55.9753 -2.54197 55.5703C-2.91695 55.1654 -3.46743 54.954 -4.1934 54.9363L-5.21736 54.9112L-5.32635 59.3646L-4.3024 59.3896ZM3.78694 57.7987C3.78349 57.9396 3.77172 58.0884 3.75162 58.2451L0.192173 58.158C0.208521 58.5975 0.349088 58.9451 0.613875 59.201C0.884212 59.4515 1.21442 59.5816 1.6045 59.5911C1.92414 59.599 2.1914 59.5323 2.40627 59.3912C2.6267 59.2448 2.7833 59.0481 2.87608 58.801L3.67249 58.8205C3.54282 59.2456 3.29589 59.5892 2.93169 59.8513C2.56762 60.108 2.12012 60.2299 1.58918 60.2169C1.1666 60.2065 0.789677 60.1025 0.458418 59.9046C0.132578 59.7069 -0.12091 59.4324 -0.302044 59.081C-0.483046 58.7242 -0.567911 58.3155 -0.55664 57.855C-0.545369 57.3945 -0.443388 56.9932 -0.250699 56.6509C-0.0580094 56.3087 0.20583 56.0495 0.540821 55.8734C0.881361 55.692 1.26834 55.6066 1.70176 55.6172C2.12434 55.6276 2.49591 55.7288 2.81647 55.921C3.13702 56.1131 3.38001 56.3739 3.54542 56.7032C3.71638 57.0272 3.79689 57.3924 3.78694 57.7987ZM3.02682 57.6256C3.03372 57.3439 2.97731 57.1013 2.85761 56.8978C2.73804 56.6888 2.57116 56.5303 2.35697 56.422C2.14833 56.3085 1.91399 56.2486 1.65394 56.2422C1.28011 56.233 0.95755 56.3444 0.686247 56.5763C0.420361 56.8083 0.263285 57.1351 0.215018 57.5568L3.02682 57.6256ZM6.27918 60.3317C5.93786 60.3233 5.63315 60.2589 5.36505 60.1385C5.09708 60.0127 4.88706 59.845 4.73498 59.6352C4.58304 59.4201 4.50226 59.1769 4.49264 58.9056L5.25654 58.9243C5.27277 59.147 5.37126 59.331 5.55202 59.4763C5.73819 59.6218 5.98298 59.6983 6.28637 59.7057C6.56809 59.7126 6.79174 59.6558 6.95733 59.5351C7.12291 59.4145 7.20802 59.2594 7.21266 59.0698C7.21743 58.8747 7.13426 58.729 6.96315 58.6327C6.79217 58.5309 6.52631 58.4295 6.16558 58.3286C5.83722 58.2338 5.56845 58.1405 5.35928 58.0486C5.15566 57.9515 4.98013 57.8144 4.83267 57.6373C4.69077 57.4549 4.62333 57.2202 4.63036 56.933C4.63593 56.7055 4.70876 56.4986 4.84884 56.3123C4.98893 56.1259 5.1849 55.9817 5.43677 55.8794C5.68877 55.7717 5.97459 55.7218 6.29424 55.7296C6.78725 55.7417 7.18241 55.8761 7.4797 56.1327C7.77699 56.3893 7.93117 56.7346 7.94223 57.1686L7.20271 57.1505C7.19216 56.9171 7.10193 56.7279 6.93201 56.5828C6.76751 56.4378 6.54168 56.3618 6.25454 56.3548C5.98908 56.3483 5.77639 56.4 5.61649 56.5099C5.45659 56.6199 5.37439 56.7669 5.36988 56.9511C5.3663 57.0974 5.40937 57.2204 5.49908 57.3202C5.59435 57.4147 5.71168 57.4935 5.85108 57.5565C5.99604 57.6143 6.19497 57.6815 6.44788 57.7581C6.7654 57.8526 7.02333 57.9457 7.22167 58.0373C7.42013 58.1235 7.58774 58.2522 7.72449 58.4236C7.86666 58.5952 7.93714 58.8164 7.93593 59.0875C7.92996 59.3313 7.85687 59.549 7.71665 59.7407C7.57643 59.9325 7.38033 60.0822 7.12832 60.1898C6.88187 60.2922 6.59883 60.3395 6.27918 60.3317ZM8.72863 58.0823C8.73991 57.6218 8.84182 57.2231 9.03438 56.8863C9.22707 56.5441 9.48826 56.2821 9.81797 56.1005C10.1531 55.919 10.5319 55.8334 10.9545 55.8437C11.5017 55.8571 11.9481 56.0008 12.2938 56.2749C12.6449 56.5491 12.8715 56.9233 12.9738 57.3974L12.1774 57.378C12.1081 57.1052 11.9644 56.8876 11.7461 56.725C11.5332 56.5626 11.2643 56.4774 10.9392 56.4694C10.5166 56.4591 10.1717 56.597 9.90452 56.8832C9.63744 57.164 9.4974 57.5699 9.48441 58.1008C9.47128 58.6371 9.59116 59.0548 9.84405 59.3537C10.0969 59.6526 10.4347 59.8073 10.8573 59.8176C11.1823 59.8256 11.4551 59.7563 11.6755 59.61C11.8959 59.4636 12.0502 59.2505 12.1384 58.9708L12.9348 58.9903C12.8044 59.4424 12.5571 59.8023 12.1928 60.0698C11.8286 60.332 11.3783 60.4565 10.8419 60.4434C10.4194 60.433 10.0452 60.329 9.71931 60.1313C9.39889 59.9337 9.15082 59.6593 8.9751 59.308C8.79939 58.9568 8.71723 58.5482 8.72863 58.0823ZM14.7173 56.7327C14.8536 56.4812 15.0426 56.288 15.2845 56.153C15.5317 56.0181 15.8287 55.9549 16.1754 55.9634L16.1567 56.7273L15.9617 56.7225C15.1328 56.7022 14.7073 57.1417 14.6853 58.0411L14.626 60.4628L13.8865 60.4447L13.9955 55.9913L14.735 56.0094L14.7173 56.7327ZM17.4268 55.3516C17.2859 55.3481 17.1679 55.2965 17.0728 55.1966C16.9776 55.0967 16.9318 54.9763 16.9353 54.8354C16.9387 54.6946 16.9904 54.5766 17.0903 54.4814C17.1902 54.3863 17.3106 54.3404 17.4514 54.3439C17.5869 54.3472 17.6995 54.3988 17.7892 54.4985C17.8843 54.5984 17.9301 54.7188 17.9267 54.8597C17.9232 55.0005 17.8716 55.1185 17.7717 55.2137C17.6772 55.3089 17.5622 55.3549 17.4268 55.3516ZM17.7666 56.0836L17.6576 60.537L16.9181 60.5189L17.0271 56.0655L17.7666 56.0836ZM19.7465 56.9533C19.899 56.7023 20.1208 56.4963 20.4121 56.3354C20.7089 56.1692 21.0496 56.0908 21.4343 56.1002C21.8298 56.1099 22.185 56.2134 22.5 56.4109C22.8205 56.6085 23.0685 56.8829 23.2442 57.2341C23.4201 57.5799 23.5024 57.9804 23.4913 58.4355C23.4803 58.8852 23.3784 59.2838 23.1856 59.6315C22.9927 59.9791 22.7314 60.2465 22.4016 60.4335C22.0772 60.6208 21.7172 60.7095 21.3217 60.6999C20.9425 60.6906 20.6086 60.5984 20.3202 60.4233C20.0373 60.2429 19.8231 60.0235 19.6776 59.7652L19.6058 62.6989L18.8663 62.6808L19.027 56.1145L19.7665 56.1326L19.7465 56.9533ZM22.7355 58.417C22.7438 58.0811 22.6832 57.7869 22.5539 57.5343C22.4245 57.2818 22.2449 57.0877 22.0152 56.952C21.7908 56.8164 21.5405 56.7452 21.2642 56.7384C20.9933 56.7318 20.7397 56.7933 20.5034 56.9231C20.2727 57.0475 20.0838 57.2354 19.9367 57.4865C19.7951 57.7324 19.7203 58.0206 19.7122 58.3511C19.704 58.687 19.7645 58.9839 19.8937 59.2419C20.0285 59.4946 20.208 59.6914 20.4322 59.8324C20.662 59.9681 20.9123 60.0393 21.1832 60.0459C21.4595 60.0527 21.713 59.9939 21.9438 59.8694C22.18 59.7397 22.3689 59.5518 22.5105 59.3059C22.6522 59.0546 22.7272 58.7583 22.7355 58.417ZM25.406 56.8804L25.3417 59.5053C25.3364 59.722 25.3787 59.8776 25.4685 59.9719C25.5585 60.0609 25.7173 60.1081 25.9448 60.1137L26.4893 60.127L26.474 60.7528L25.8076 60.7365C25.3959 60.7264 25.0894 60.624 24.8881 60.4294C24.6869 60.2347 24.5916 59.9207 24.6022 59.4872L24.6664 56.8623L24.0895 56.8482L24.1044 56.2387L24.6814 56.2529L24.7088 55.1314L25.4483 55.1495L25.4209 56.271L26.583 56.2994L26.5681 56.9089L25.406 56.8804ZM27.8787 55.6074C27.7378 55.604 27.6198 55.5523 27.5247 55.4524C27.4295 55.3525 27.3837 55.2321 27.3871 55.0912C27.3906 54.9504 27.4423 54.8324 27.5422 54.7372C27.6421 54.6421 27.7625 54.5963 27.9033 54.5997C28.0388 54.603 28.1513 54.6546 28.2411 54.7543C28.3362 54.8542 28.382 54.9746 28.3786 55.1155C28.3751 55.2564 28.3235 55.3744 28.2236 55.4695C28.1291 55.5647 28.0141 55.6107 27.8787 55.6074ZM28.2185 56.3394L28.1095 60.7928L27.37 60.7747L27.479 56.3213L28.2185 56.3394ZM31.3104 60.9443C30.8932 60.9341 30.5163 60.83 30.1796 60.6321C29.8484 60.4342 29.5895 60.1595 29.4029 59.808C29.2219 59.4512 29.137 59.0426 29.1483 58.5821C29.1594 58.127 29.2668 57.7285 29.4703 57.3865C29.6794 57.0393 29.9568 56.7777 30.3026 56.6019C30.6486 56.4206 31.0329 56.3351 31.4555 56.3455C31.878 56.3558 32.2577 56.46 32.5944 56.6579C32.9312 56.8505 33.1928 57.1225 33.3794 57.474C33.5714 57.8257 33.6617 58.2318 33.6504 58.6923C33.6392 59.1528 33.5263 59.5566 33.3118 59.9037C33.1029 60.2455 32.8227 60.507 32.4713 60.6881C32.1199 60.8693 31.733 60.9547 31.3104 60.9443ZM31.3263 60.2942C31.5918 60.3007 31.8425 60.2445 32.0785 60.1256C32.3145 60.0067 32.506 59.8243 32.653 59.5786C32.8053 59.3329 32.8859 59.0313 32.8947 58.6738C32.9034 58.3162 32.8404 58.0111 32.7057 57.7584C32.5709 57.5058 32.3912 57.317 32.1666 57.1923C31.9421 57.0621 31.6971 56.9938 31.4316 56.9873C31.1607 56.9806 30.91 57.0368 30.6794 57.1559C30.4544 57.2696 30.2711 57.4495 30.1295 57.6954C29.988 57.9413 29.9128 58.243 29.9041 58.6006C29.8952 58.9636 29.9527 59.2713 30.0766 59.5237C30.206 59.7762 30.3802 59.9675 30.5993 60.0975C30.8185 60.2221 31.0608 60.2877 31.3263 60.2942ZM36.8489 56.4693C37.3906 56.4826 37.8254 56.6586 38.1532 56.9973C38.4812 57.3306 38.6376 57.806 38.6225 58.4236L38.5582 61.0485L37.8268 61.0306L37.8885 58.5114C37.8994 58.0671 37.7966 57.7258 37.5802 57.4874C37.3639 57.2436 37.0634 57.117 36.6787 57.1076C36.2887 57.098 35.9742 57.2123 35.7352 57.4504C35.5017 57.6886 35.3793 58.0407 35.3679 58.5066L35.3076 60.969L34.5681 60.9509L34.6771 56.4975L35.4166 56.5156L35.4011 57.1495C35.5529 56.9255 35.755 56.7543 36.0072 56.6358C36.2649 56.5174 36.5455 56.4619 36.8489 56.4693ZM43.7974 62.6892C43.2898 62.1672 42.8993 61.5099 42.626 60.7171C42.3581 59.9245 42.2353 59.0731 42.2575 58.163C42.2803 57.2311 42.4533 56.3653 42.7765 55.5655C43.1052 54.7604 43.5604 54.102 44.1421 53.5904L44.9141 53.6093L44.9123 53.6825C44.2916 54.2365 43.8171 54.9106 43.4886 55.7049C43.1657 56.4938 42.9938 57.319 42.9727 58.1805C42.9521 59.0202 43.0761 59.8256 43.3445 60.5965C43.6184 61.3675 44.0273 62.047 44.5713 62.635L44.5695 62.7081L43.7974 62.6892ZM47.5636 61.3421C47.1464 61.3319 46.7695 61.2278 46.4328 61.0299C46.1016 60.832 45.8427 60.5573 45.6561 60.2058C45.4751 59.849 45.3902 59.4404 45.4015 58.9799C45.4126 58.5248 45.52 58.1263 45.7235 57.7843C45.9326 57.4371 46.21 57.1755 46.5558 56.9997C46.9018 56.8184 47.2861 56.7329 47.7087 56.7433C48.1312 56.7536 48.5109 56.8578 48.8476 57.0557C49.1844 57.2483 49.446 57.5203 49.6326 57.8718C49.8246 58.2235 49.9149 58.6296 49.9036 59.0901C49.8924 59.5506 49.7795 59.9544 49.565 60.3015C49.3561 60.6433 49.0759 60.9048 48.7245 61.0859C48.3731 61.2671 47.9862 61.3525 47.5636 61.3421ZM47.5795 60.692C47.845 60.6985 48.0957 60.6423 48.3317 60.5234C48.5677 60.4045 48.7592 60.2221 48.9062 59.9764C49.0585 59.7307 49.1391 59.4291 49.1479 59.0716C49.1566 58.714 49.0936 58.4089 48.9589 58.1562C48.8241 57.9036 48.6444 57.7148 48.4198 57.5901C48.1953 57.4599 47.9503 57.3916 47.6848 57.3851C47.4139 57.3784 47.1632 57.4346 46.9326 57.5537C46.7076 57.6674 46.5243 57.8473 46.3827 58.0932C46.2412 58.3391 46.166 58.6408 46.1573 58.9984C46.1484 59.3614 46.2059 59.6691 46.3298 59.9215C46.4592 60.174 46.6334 60.3653 46.8525 60.4953C47.0717 60.6199 47.314 60.6855 47.5795 60.692ZM51.6497 57.7342C51.8022 57.4831 52.0241 57.2772 52.3153 57.1162C52.6121 56.95 52.9529 56.8716 53.3375 56.881C53.733 56.8907 54.0883 56.9943 54.4033 57.1917C54.7237 57.3893 54.9718 57.6637 55.1475 58.015C55.3233 58.3608 55.4057 58.7612 55.3946 59.2163C55.3836 59.666 55.2816 60.0647 55.0888 60.4123C54.896 60.7599 54.6347 61.0273 54.3048 61.2144C53.9804 61.4016 53.6205 61.4904 53.225 61.4807C52.8457 61.4714 52.5119 61.3792 52.2234 61.2041C51.9405 61.0237 51.7263 60.8043 51.5809 60.546L51.5091 63.4797L50.7696 63.4616L50.9303 56.8953L51.6698 56.9134L51.6497 57.7342ZM54.6388 59.1978C54.647 58.8619 54.5864 58.5677 54.4571 58.3152C54.3278 58.0627 54.1482 57.8685 53.9184 57.7328C53.6941 57.5972 53.4437 57.526 53.1674 57.5193C52.8965 57.5126 52.6429 57.5742 52.4067 57.7039C52.1759 57.8284 51.987 58.0162 51.8399 58.2674C51.6984 58.5133 51.6236 58.8015 51.6155 59.132C51.6073 59.4679 51.6678 59.7648 51.797 60.0227C51.9317 60.2754 52.1112 60.4722 52.3355 60.6133C52.5652 60.749 52.8156 60.8202 53.0865 60.8268C53.3628 60.8336 53.6163 60.7747 53.847 60.6503C54.0833 60.5205 54.2722 60.3327 54.4137 60.0868C54.5554 59.8355 54.6304 59.5392 54.6388 59.1978ZM57.3092 57.6613L57.245 60.2862C57.2397 60.5029 57.2819 60.6584 57.3718 60.7528C57.4618 60.8417 57.6205 60.889 57.8481 60.8945L58.3925 60.9079L58.3772 61.5336L57.7109 61.5173C57.2991 61.5072 56.9926 61.4049 56.7914 61.2102C56.5901 61.0155 56.4948 60.7015 56.5054 60.2681L56.5697 57.6432L55.9927 57.6291L56.0076 57.0196L56.5846 57.0337L56.6121 55.9122L57.3516 55.9303L57.3241 57.0518L58.4862 57.0802L58.4713 57.6897L57.3092 57.6613ZM59.7819 56.3883C59.641 56.3848 59.523 56.3331 59.4279 56.2332C59.3328 56.1333 59.2869 56.0129 59.2904 55.8721C59.2938 55.7312 59.3455 55.6132 59.4454 55.5181C59.5453 55.423 59.6657 55.3771 59.8066 55.3806C59.942 55.3839 60.0546 55.4354 60.1443 55.5352C60.2394 55.6351 60.2853 55.7555 60.2818 55.8963C60.2784 56.0372 60.2267 56.1552 60.1268 56.2503C60.0323 56.3456 59.9173 56.3916 59.7819 56.3883ZM60.1218 57.1203L60.0128 61.5736L59.2733 61.5555L59.3823 57.1022L60.1218 57.1203ZM63.2136 61.7252C62.7965 61.715 62.4195 61.6109 62.0829 61.4129C61.7516 61.2151 61.4927 60.9404 61.3061 60.5889C61.1251 60.2321 61.0403 59.8234 61.0516 59.3629C61.0627 58.9078 61.17 58.5093 61.3735 58.1673C61.5826 57.8201 61.8601 57.5585 62.2059 57.3827C62.5519 57.2014 62.9361 57.116 63.3587 57.1263C63.7813 57.1367 64.1609 57.2408 64.4976 57.4388C64.8344 57.6313 65.0961 57.9034 65.2826 58.2549C65.4746 58.6065 65.565 59.0126 65.5537 59.4731C65.5424 59.9336 65.4295 60.3374 65.215 60.6845C65.0061 61.0264 64.7259 61.2879 64.3746 61.469C64.0232 61.6501 63.6362 61.7355 63.2136 61.7252ZM63.2295 61.075C63.495 61.0815 63.7457 61.0253 63.9818 60.9064C64.2178 60.7875 64.4093 60.6052 64.5562 60.3594C64.7086 60.1138 64.7892 59.8122 64.7979 59.4546C64.8067 59.097 64.7437 58.7919 64.6089 58.5393C64.4741 58.2866 64.2944 58.0979 64.0698 57.9731C63.8453 57.843 63.6003 57.7746 63.3349 57.7681C63.064 57.7615 62.8132 57.8177 62.5826 57.9367C62.3576 58.0505 62.1743 58.2303 62.0328 58.4762C61.8912 58.7221 61.8161 59.0238 61.8073 59.3814C61.7984 59.7444 61.856 60.0521 61.9799 60.3045C62.1092 60.557 62.2834 60.7483 62.5025 60.8784C62.7217 61.003 62.9641 61.0685 63.2295 61.075ZM68.7521 57.2502C69.2939 57.2634 69.7287 57.4394 70.0565 57.7781C70.3844 58.1114 70.5408 58.5869 70.5257 59.2045L70.4615 61.8294L69.7301 61.8115L69.7917 59.2922C69.8026 58.848 69.6998 58.5067 69.4834 58.2683C69.2671 58.0244 68.9667 57.8978 68.582 57.8884C68.1919 57.8789 67.8774 57.9931 67.6385 58.2312C67.405 58.4695 67.2825 58.8215 67.2711 59.2875L67.2108 61.7498L66.4713 61.7317L66.5803 57.2783L67.3198 57.2964L67.3043 57.9303C67.4562 57.7064 67.6582 57.5351 67.9105 57.4166C68.1682 57.2982 68.4487 57.2428 68.7521 57.2502ZM71.4481 59.6092C71.4592 59.1542 71.5611 58.7582 71.7536 58.4214C71.9463 58.0792 72.2048 57.8172 72.5291 57.6354C72.8588 57.4537 73.2214 57.3677 73.6169 57.3774C74.007 57.3869 74.3435 57.4792 74.6266 57.6542C74.9096 57.8292 75.1184 58.0457 75.253 58.3038L75.2729 57.4911L76.0206 57.5094L75.9116 61.9628L75.1639 61.9445L75.1842 61.1156C75.0316 61.372 74.8069 61.5834 74.5101 61.7496C74.2188 61.9105 73.8809 61.9863 73.4962 61.9768C73.1007 61.9672 72.7455 61.8609 72.4306 61.658C72.1158 61.4552 71.8705 61.1754 71.695 60.8187C71.5194 60.4621 71.4371 60.0589 71.4481 59.6092ZM75.2186 59.7097C75.2269 59.3738 75.1663 59.0796 75.0369 58.827C74.9076 58.5745 74.728 58.3804 74.4983 58.2446C74.274 58.1036 74.0238 58.0297 73.7475 58.023C73.4712 58.0162 73.2176 58.0751 72.9869 58.1995C72.7562 58.324 72.5701 58.5091 72.4285 58.755C72.287 59.0009 72.2121 59.2918 72.2039 59.6277C72.1955 59.9691 72.2559 60.2687 72.3851 60.5266C72.5145 60.7792 72.6913 60.9759 72.9155 61.117C73.1399 61.2526 73.3902 61.3237 73.6665 61.3305C73.9428 61.3373 74.1963 61.2784 74.4271 61.154C74.6633 61.0242 74.8522 60.8364 74.9938 60.5905C75.1355 60.3392 75.2104 60.0456 75.2186 59.7097ZM78.048 55.9978L77.9008 62.0115L77.1613 61.9934L77.3085 55.9797L78.048 55.9978ZM78.8885 63.5481L78.8903 63.475C79.4624 62.9143 79.9014 62.2556 80.2072 61.4987C80.5185 60.742 80.6844 59.9437 80.7049 59.104C80.726 58.2426 80.5919 57.4099 80.3026 56.6059C80.0188 55.7967 79.5805 55.1002 78.9876 54.5165L78.9894 54.4433L79.7614 54.4622C80.3174 55.0017 80.7372 55.6814 81.0207 56.5015C81.3097 57.3163 81.4429 58.1896 81.4201 59.1215C81.3978 60.0317 81.2307 60.876 80.919 61.6544C80.6126 62.4329 80.1931 63.0705 79.6606 63.567L78.8885 63.5481Z" fill="#8094AE"/>
<path d="M-12.7243 90.2306L-15.0891 90.1728L-15.5237 91.3168L-16.4908 91.2931L-14.3288 85.6865L-13.2561 85.7128L-11.371 91.4184L-12.3462 91.3946L-12.7243 90.2306ZM-12.9659 89.4685L-13.8199 86.8211L-14.8106 89.4234L-12.9659 89.4685ZM-8.12062 86.9444C-7.76846 86.953 -7.45602 87.0338 -7.1833 87.1869C-6.90516 87.34 -6.69104 87.5621 -6.54096 87.8531C-6.39087 88.1441 -6.3208 88.4927 -6.33075 88.8991L-6.39539 91.5402L-7.31369 91.5177L-7.25243 89.0148C-7.24262 88.6138 -7.33536 88.3053 -7.53064 88.0891C-7.72579 87.8675 -7.99674 87.7524 -8.34347 87.7439C-8.69021 87.7354 -8.96916 87.837 -9.18034 88.0487C-9.38597 88.2551 -9.49369 88.5587 -9.5035 88.9597L-9.56476 91.4626L-10.4912 91.44L-10.3816 86.9622L-9.45517 86.9849L-9.4677 87.4969C-9.31149 87.3164 -9.11565 87.1775 -8.88017 87.0803C-8.63927 86.9832 -8.38608 86.9379 -8.12062 86.9444ZM-3.59014 91.6821C-3.94229 91.6734 -4.2577 91.6034 -4.53637 91.4719C-4.8095 91.3351 -5.02467 91.1564 -5.1819 90.9357C-5.33899 90.7096 -5.41965 90.4609 -5.42385 90.1898L-4.46491 90.2133C-4.4533 90.4033 -4.36782 90.5653 -4.20847 90.6993C-4.04357 90.828 -3.83651 90.8954 -3.5873 90.9015C-3.32724 90.9079 -3.1256 90.864 -2.98235 90.77C-2.83355 90.6706 -2.75723 90.5424 -2.75338 90.3852C-2.74927 90.2173 -2.82749 90.0907 -2.98803 90.0055C-3.14316 89.9203 -3.39289 89.8248 -3.73724 89.7188C-4.07089 89.6185 -4.34229 89.5224 -4.55146 89.4305C-4.76063 89.3387 -4.94159 89.2014 -5.09433 89.0188C-5.24165 88.8363 -5.31173 88.5988 -5.30457 88.3062C-5.29873 88.0678 -5.223 87.8528 -5.07736 87.6612C-4.93159 87.4642 -4.72729 87.312 -4.46446 87.2046C-4.1962 87.0973 -3.89142 87.0479 -3.5501 87.0562C-3.04083 87.0687 -2.63498 87.2087 -2.33253 87.4763C-2.02454 87.7387 -1.86514 88.0922 -1.85434 88.537L-2.78077 88.5143C-2.79212 88.3135 -2.86947 88.1517 -3.01284 88.0289C-3.1562 87.9061 -3.35249 87.8417 -3.6017 87.8356C-3.8455 87.8296 -4.03354 87.8711 -4.16582 87.96C-4.2981 88.0489 -4.3661 88.1693 -4.36981 88.3209C-4.37273 88.4401 -4.33184 88.5414 -4.24714 88.6248C-4.16245 88.7082 -4.05839 88.7758 -3.93498 88.8276C-3.81143 88.874 -3.62862 88.9354 -3.38655 89.0118C-3.0636 89.1064 -2.80032 89.2023 -2.5967 89.2995C-2.38753 89.3913 -2.20922 89.5258 -2.06177 89.7029C-1.91432 89.8799 -1.84139 90.1121 -1.843 90.3994C-1.84924 90.654 -1.92524 90.8798 -2.071 91.0769C-2.21677 91.2739 -2.42107 91.4261 -2.68391 91.5335C-2.94133 91.641 -3.2434 91.6905 -3.59014 91.6821ZM5.25068 87.3448L3.75143 91.7886L2.77624 91.7647L1.95514 88.4351L0.972135 91.7205L-0.00305649 91.6967L-1.29124 87.1847L-0.348551 87.2078L0.497894 90.8307L1.53682 87.2539L2.50389 87.2776L3.32635 90.8837L4.3405 87.3225L5.25068 87.3448ZM9.99484 89.5914C9.99073 89.7593 9.97619 89.9108 9.9512 90.0457L6.5299 89.9619C6.54824 90.3202 6.67394 90.6106 6.90702 90.8331C7.1401 91.0556 7.43 91.1712 7.77674 91.1797C8.27517 91.1919 8.63243 90.9919 8.84851 90.5798L9.84808 90.6042C9.70256 91.0127 9.44777 91.3452 9.0837 91.602C8.72518 91.8534 8.28316 91.9727 7.75764 91.9598C7.32964 91.9493 6.9473 91.8451 6.61063 91.6471C6.2795 91.4439 6.02066 91.1665 5.83411 90.815C5.65311 90.4582 5.56824 90.0495 5.57952 89.589C5.59079 89.1285 5.69277 88.7272 5.88546 88.3849C6.0837 88.0374 6.35309 87.773 6.69363 87.5916C7.03958 87.4103 7.43198 87.325 7.87082 87.3358C8.2934 87.3461 8.66768 87.4474 8.99365 87.6397C9.31963 87.832 9.5706 88.0984 9.74659 88.4388C9.9227 88.7738 10.0055 89.158 9.99484 89.5914ZM9.03494 89.2752C9.03788 88.9337 8.92267 88.6571 8.68933 88.4454C8.45599 88.2337 8.16324 88.1235 7.81109 88.1149C7.49144 88.1071 7.21533 88.2033 6.98275 88.4037C6.7503 88.5985 6.60816 88.8688 6.55633 89.2145L9.03494 89.2752ZM11.8692 88.1573C12.0102 87.9331 12.1933 87.7614 12.4185 87.6422C12.6492 87.5178 12.919 87.4593 13.2278 87.4669L13.2043 88.4258L12.9686 88.4201C12.6056 88.4112 12.3271 88.4965 12.133 88.6761C11.9442 88.8558 11.8443 89.1732 11.8332 89.6282L11.7755 91.985L10.8491 91.9623L10.9587 87.4845L11.8851 87.5072L11.8692 88.1573ZM15.9595 87.0052L15.9802 86.16L17.6705 86.2014L17.5255 92.1257L16.591 92.1028L16.7153 87.0237L15.9595 87.0052Z" fill="#363E49"/>
<rect width="404.129" height="32.5161" transform="translate(-16.9785 99.9297) rotate(1.40206)" fill="white"/>
<rect x="-16.6954" y="100.227" width="403.548" height="31.9355" rx="4.35484" transform="rotate(1.40206 -16.6954 100.227)" stroke="#D8DEE6" stroke-width="0.580645"/>
<path d="M-0.266616 113.435L-2.04682 119.059L-2.87574 119.039L-4.08066 114.447L-5.55752 118.973L-6.3785 118.961L-7.82435 113.25L-7.03607 113.269L-5.91838 118.102L-4.43556 113.333L-3.60665 113.353L-2.42355 118.171L-1.06302 113.415L-0.266616 113.435ZM1.23486 115.407C1.37112 115.155 1.56016 114.962 1.80199 114.827C2.04923 114.692 2.34623 114.629 2.69296 114.637L2.67426 115.401L2.47922 115.397C1.65031 115.376 1.22485 115.816 1.20284 116.715L1.14356 119.137L0.404044 119.119L0.513042 114.665L1.25256 114.683L1.23486 115.407ZM3.9443 114.026C3.80344 114.022 3.68544 113.971 3.59031 113.871C3.49518 113.771 3.44933 113.65 3.45278 113.509C3.45623 113.369 3.5079 113.251 3.60781 113.156C3.70772 113.06 3.8281 113.015 3.96896 113.018C4.1044 113.021 4.21698 113.073 4.3067 113.173C4.40183 113.273 4.44767 113.393 4.44423 113.534C4.44078 113.675 4.3891 113.793 4.2892 113.888C4.19471 113.983 4.07974 114.029 3.9443 114.026ZM4.28417 114.758L4.17517 119.211L3.43565 119.193L3.54465 114.74L4.28417 114.758ZM6.43168 115.42L6.36744 118.045C6.36214 118.262 6.40441 118.417 6.49425 118.512C6.58423 118.601 6.743 118.648 6.97054 118.653L7.51502 118.667L7.49971 119.292L6.83333 119.276C6.42158 119.266 6.11509 119.164 5.91386 118.969C5.71262 118.774 5.61731 118.46 5.62792 118.027L5.69216 115.402L5.11518 115.388L5.13009 114.778L5.70708 114.793L5.73453 113.671L6.47405 113.689L6.4466 114.811L7.60871 114.839L7.59379 115.449L6.43168 115.42ZM12.5177 117.016C12.5143 117.157 12.5025 117.306 12.4824 117.463L8.92294 117.376C8.93928 117.815 9.07985 118.163 9.34464 118.419C9.61497 118.669 9.94518 118.799 10.3353 118.809C10.6549 118.817 10.9222 118.75 11.137 118.609C11.3575 118.463 11.5141 118.266 11.6068 118.019L12.4033 118.038C12.2736 118.463 12.0267 118.807 11.6625 119.069C11.2984 119.326 10.8509 119.448 10.3199 119.435C9.89736 119.424 9.52044 119.32 9.18918 119.122C8.86334 118.925 8.60985 118.65 8.42872 118.299C8.24772 117.942 8.16285 117.533 8.17412 117.073C8.18539 116.612 8.28737 116.211 8.48006 115.869C8.67275 115.526 8.93659 115.267 9.27158 115.091C9.61212 114.91 9.9991 114.824 10.4325 114.835C10.8551 114.845 11.2267 114.947 11.5472 115.139C11.8678 115.331 12.1108 115.592 12.2762 115.921C12.4471 116.245 12.5277 116.61 12.5177 117.016ZM11.7576 116.843C11.7645 116.562 11.7081 116.319 11.5884 116.116C11.4688 115.907 11.3019 115.748 11.0877 115.64C10.8791 115.526 10.6448 115.466 10.3847 115.46C10.0109 115.451 9.68831 115.562 9.41701 115.794C9.15112 116.026 8.99405 116.353 8.94578 116.775L11.7576 116.843ZM16.5979 115.669L16.5336 118.294C16.5283 118.511 16.5706 118.666 16.6604 118.76C16.7504 118.849 16.9092 118.897 17.1367 118.902L17.6812 118.916L17.6659 119.541L16.9995 119.525C16.5878 119.515 16.2813 119.413 16.08 119.218C15.8788 119.023 15.7835 118.709 15.7941 118.276L15.8583 115.651L15.2814 115.637L15.2963 115.027L15.8733 115.041L15.9007 113.92L16.6402 113.938L16.6128 115.059L17.7749 115.088L17.76 115.697L16.5979 115.669ZM20.8833 115.083C21.2192 115.091 21.5208 115.171 21.7881 115.324C22.0556 115.472 22.2616 115.691 22.4063 115.982C22.5564 116.273 22.6264 116.624 22.6163 117.036L22.5521 119.661L21.8207 119.643L21.8823 117.124C21.8932 116.679 21.7904 116.338 21.574 116.1C21.3577 115.856 21.0572 115.729 20.6726 115.72C20.2825 115.71 19.968 115.825 19.7291 116.063C19.4956 116.301 19.3731 116.653 19.3617 117.119L19.3014 119.581L18.5619 119.563L18.7091 113.55L19.4486 113.568L19.3949 115.762C19.5468 115.538 19.7515 115.367 20.0092 115.248C20.2723 115.13 20.5637 115.075 20.8833 115.083ZM27.8821 117.393C27.8786 117.533 27.8668 117.682 27.8467 117.839L24.2873 117.752C24.3036 118.191 24.4442 118.539 24.709 118.795C24.9793 119.045 25.3095 119.175 25.6996 119.185C26.0193 119.193 26.2865 119.126 26.5014 118.985C26.7218 118.839 26.8784 118.642 26.9712 118.395L27.7676 118.414C27.6379 118.839 27.391 119.183 27.0268 119.445C26.6627 119.702 26.2152 119.824 25.6843 119.811C25.2617 119.8 24.8848 119.696 24.5535 119.498C24.2277 119.301 23.9742 119.026 23.7931 118.675C23.6121 118.318 23.5272 117.909 23.5385 117.449C23.5497 116.988 23.6517 116.587 23.8444 116.245C24.0371 115.903 24.3009 115.643 24.6359 115.467C24.9765 115.286 25.3635 115.2 25.7969 115.211C26.2195 115.221 26.591 115.323 26.9116 115.515C27.2321 115.707 27.4751 115.968 27.6405 116.297C27.8115 116.621 27.892 116.986 27.8821 117.393ZM27.1219 117.219C27.1288 116.938 27.0724 116.695 26.9527 116.492C26.8332 116.283 26.6663 116.124 26.4521 116.016C26.2434 115.902 26.0091 115.842 25.7491 115.836C25.3752 115.827 25.0527 115.938 24.7814 116.17C24.5155 116.402 24.3584 116.729 24.3101 117.151L27.1219 117.219ZM34.3451 118.689L31.8746 118.629L31.3887 119.877L30.6085 119.858L32.7943 114.276L33.6476 114.297L35.5495 119.979L34.7693 119.96L34.3451 118.689ZM34.1485 118.083L33.1946 115.197L32.1006 118.032L34.1485 118.083ZM38.7228 115.519C39.2646 115.533 39.6994 115.709 40.0272 116.047C40.3551 116.381 40.5115 116.856 40.4964 117.474L40.4322 120.098L39.7008 120.081L39.7624 117.561C39.7733 117.117 39.6705 116.776 39.4541 116.537C39.2378 116.294 38.9374 116.167 38.5527 116.158C38.1626 116.148 37.8481 116.262 37.6092 116.5C37.3757 116.739 37.2532 117.091 37.2418 117.557L37.1815 120.019L36.442 120.001L36.551 115.547L37.2905 115.566L37.275 116.199C37.4269 115.975 37.6289 115.804 37.8812 115.686C38.1389 115.567 38.4194 115.512 38.7228 115.519ZM43.215 120.24C42.8736 120.231 42.5689 120.167 42.3008 120.047C42.0329 119.921 41.8228 119.753 41.6708 119.543C41.5188 119.328 41.438 119.085 41.4284 118.814L42.1923 118.832C42.2085 119.055 42.307 119.239 42.4878 119.384C42.674 119.53 42.9188 119.606 43.2221 119.614C43.5039 119.621 43.7275 119.564 43.8931 119.443C44.0587 119.323 44.1438 119.167 44.1484 118.978C44.1532 118.783 44.07 118.637 43.8989 118.541C43.7279 118.439 43.4621 118.338 43.1014 118.237C42.773 118.142 42.5042 118.049 42.2951 117.957C42.0914 117.86 41.9159 117.722 41.7684 117.545C41.6265 117.363 41.5591 117.128 41.5661 116.841C41.5717 116.614 41.6445 116.407 41.7846 116.22C41.9247 116.034 42.1207 115.89 42.3725 115.788C42.6245 115.68 42.9104 115.63 43.23 115.638C43.723 115.65 44.1182 115.784 44.4155 116.041C44.7128 116.297 44.8669 116.643 44.878 117.077L44.1385 117.059C44.1279 116.825 44.0377 116.636 43.8678 116.491C43.7033 116.346 43.4775 116.27 43.1903 116.263C42.9249 116.256 42.7122 116.308 42.5523 116.418C42.3924 116.528 42.3102 116.675 42.3057 116.859C42.3021 117.006 42.3451 117.129 42.4349 117.228C42.5301 117.323 42.6475 117.402 42.7869 117.465C42.9318 117.522 43.1307 117.59 43.3837 117.666C43.7012 117.761 43.9591 117.854 44.1574 117.945C44.3559 118.032 44.5235 118.16 44.6603 118.332C44.8024 118.503 44.8729 118.725 44.8717 118.996C44.8657 119.239 44.7926 119.457 44.6524 119.649C44.5122 119.841 44.3161 119.99 44.0641 120.098C43.8177 120.2 43.5346 120.248 43.215 120.24ZM51.9274 115.924L50.4288 120.343L49.6649 120.324L48.6787 116.763L47.5195 120.272L46.7556 120.253L45.4668 115.766L46.2226 115.784L47.155 119.547L48.3517 115.836L49.1075 115.855L50.0966 119.628L51.196 115.906L51.9274 115.924ZM56.6743 118.097C56.6709 118.238 56.6591 118.387 56.639 118.544L53.0796 118.456C53.0959 118.896 53.2365 119.244 53.5013 119.499C53.7716 119.75 54.1018 119.88 54.4919 119.89C54.8115 119.897 55.0788 119.831 55.2937 119.69C55.5141 119.543 55.6707 119.347 55.7635 119.1L56.5599 119.119C56.4302 119.544 56.1833 119.888 55.8191 120.15C55.455 120.407 55.0075 120.528 54.4766 120.515C54.054 120.505 53.6771 120.401 53.3458 120.203C53.02 120.005 52.7665 119.731 52.5854 119.38C52.4044 119.023 52.3195 118.614 52.3308 118.154C52.342 117.693 52.444 117.292 52.6367 116.949C52.8294 116.607 53.0932 116.348 53.4282 116.172C53.7688 115.991 54.1557 115.905 54.5892 115.916C55.0117 115.926 55.3833 116.027 55.7039 116.22C56.0244 116.412 56.2674 116.672 56.4328 117.002C56.6038 117.326 56.6843 117.691 56.6743 118.097ZM55.9142 117.924C55.9211 117.642 55.8647 117.4 55.745 117.196C55.6254 116.987 55.4586 116.829 55.2444 116.721C55.0357 116.607 54.8014 116.547 54.5413 116.541C54.1675 116.532 53.845 116.643 53.5736 116.875C53.3078 117.107 53.1507 117.434 53.1024 117.855L55.9142 117.924ZM58.4226 116.806C58.5589 116.555 58.7479 116.362 58.9898 116.227C59.237 116.092 59.534 116.029 59.8807 116.037L59.862 116.801L59.667 116.796C58.8381 116.776 58.4126 117.216 58.3906 118.115L58.3313 120.537L57.5918 120.518L57.7008 116.065L58.4403 116.083L58.4226 116.806Z" fill="#AAB7C9"/>
<path d="M369.317 121.582C369.305 122.063 368.906 122.443 368.425 122.431C367.944 122.419 367.564 122.02 367.575 121.539C367.587 121.058 367.986 120.678 368.467 120.69C368.948 120.702 369.328 121.101 369.317 121.582Z" stroke="#8094AE" stroke-width="0.580645"/>
<path d="M369.218 125.644C369.206 126.125 368.807 126.505 368.326 126.494C367.845 126.482 367.465 126.083 367.477 125.602C367.488 125.121 367.888 124.74 368.369 124.752C368.85 124.764 369.23 125.163 369.218 125.644Z" stroke="#8094AE" stroke-width="0.580645"/>
<path d="M369.117 129.709C369.106 130.19 368.706 130.57 368.225 130.558C367.745 130.546 367.364 130.147 367.376 129.666C367.388 129.185 367.787 128.805 368.268 128.817C368.749 128.828 369.129 129.228 369.117 129.709Z" stroke="#8094AE" stroke-width="0.580645"/>
<path d="M373.38 121.681C373.368 122.162 372.969 122.543 372.488 122.531C372.007 122.519 371.627 122.12 371.639 121.639C371.651 121.158 372.05 120.778 372.531 120.789C373.012 120.801 373.392 121.2 373.38 121.681Z" stroke="#8094AE" stroke-width="0.580645"/>
<path d="M373.281 125.746C373.269 126.227 372.869 126.607 372.389 126.595C371.908 126.583 371.527 126.184 371.539 125.703C371.551 125.222 371.95 124.842 372.431 124.854C372.912 124.866 373.292 125.265 373.281 125.746Z" stroke="#8094AE" stroke-width="0.580645"/>
<path d="M373.181 129.808C373.169 130.289 372.77 130.669 372.289 130.658C371.808 130.646 371.428 130.247 371.44 129.766C371.451 129.285 371.851 128.905 372.332 128.916C372.812 128.928 373.193 129.327 373.181 129.808Z" stroke="#8094AE" stroke-width="0.580645"/>
<path d="M-14.2927 154.309L-16.6575 154.251L-17.0921 155.395L-18.0591 155.371L-15.8972 149.765L-14.8245 149.791L-12.9394 155.497L-13.9146 155.473L-14.2927 154.309ZM-14.5342 153.547L-15.3883 150.899L-16.379 153.501L-14.5342 153.547ZM-9.68897 151.022C-9.33682 151.031 -9.02438 151.112 -8.75166 151.265C-8.47352 151.418 -8.2594 151.64 -8.10932 151.931C-7.95923 152.222 -7.88916 152.571 -7.8991 152.977L-7.96375 155.618L-8.88205 155.596L-8.82079 153.093C-8.81098 152.692 -8.90372 152.383 -9.099 152.167C-9.29415 151.946 -9.5651 151.831 -9.91183 151.822C-10.2586 151.814 -10.5375 151.915 -10.7487 152.127C-10.9543 152.333 -11.062 152.637 -11.0719 153.038L-11.1331 155.541L-12.0596 155.518L-11.95 151.04L-11.0235 151.063L-11.0361 151.575C-10.8799 151.395 -10.684 151.256 -10.4485 151.158C-10.2076 151.061 -9.95444 151.016 -9.68897 151.022ZM-5.1585 155.76C-5.51065 155.752 -5.82606 155.682 -6.10473 155.55C-6.37786 155.413 -6.59303 155.234 -6.75026 155.014C-6.90735 154.788 -6.988 154.539 -6.99221 154.268L-6.03327 154.291C-6.02166 154.481 -5.93618 154.643 -5.77683 154.777C-5.61193 154.906 -5.40487 154.974 -5.15566 154.98C-4.8956 154.986 -4.69395 154.942 -4.55071 154.848C-4.40191 154.749 -4.32559 154.62 -4.32174 154.463C-4.31763 154.295 -4.39585 154.169 -4.55639 154.084C-4.71151 153.998 -4.96125 153.903 -5.3056 153.797C-5.63924 153.697 -5.91065 153.6 -6.11982 153.509C-6.32899 153.417 -6.50995 153.28 -6.66268 153.097C-6.81001 152.914 -6.88009 152.677 -6.87293 152.384C-6.86709 152.146 -6.79136 151.931 -6.64572 151.739C-6.49995 151.542 -6.29565 151.39 -6.03282 151.283C-5.76456 151.175 -5.45978 151.126 -5.11846 151.134C-4.60919 151.147 -4.20334 151.287 -3.90089 151.554C-3.5929 151.817 -3.4335 152.17 -3.4227 152.615L-4.34913 152.592C-4.36048 152.392 -4.43783 152.23 -4.5812 152.107C-4.72456 151.984 -4.92085 151.92 -5.17006 151.914C-5.41386 151.908 -5.6019 151.949 -5.73418 152.038C-5.86646 152.127 -5.93445 152.247 -5.93817 152.399C-5.94108 152.518 -5.9002 152.62 -5.8155 152.703C-5.73081 152.786 -5.62675 152.854 -5.50334 152.906C-5.37979 152.952 -5.19698 153.014 -4.95491 153.09C-4.63196 153.185 -4.36868 153.28 -4.16506 153.378C-3.95589 153.469 -3.77758 153.604 -3.63013 153.781C-3.48267 153.958 -3.40975 154.19 -3.41136 154.478C-3.4176 154.732 -3.49359 154.958 -3.63936 155.155C-3.78513 155.352 -3.98943 155.504 -4.25227 155.612C-4.50969 155.719 -4.81176 155.769 -5.1585 155.76ZM3.68232 151.423L2.18307 155.867L1.20788 155.843L0.386782 152.513L-0.596224 155.799L-1.57142 155.775L-2.8596 151.263L-1.91691 151.286L-1.07047 154.909L-0.0315394 151.332L0.935526 151.356L1.75799 154.962L2.77214 151.401L3.68232 151.423ZM8.42649 153.67C8.42237 153.837 8.40783 153.989 8.38284 154.124L4.96154 154.04C4.97988 154.398 5.10559 154.689 5.33866 154.911C5.57174 155.134 5.86164 155.249 6.20838 155.258C6.70681 155.27 7.06407 155.07 7.28015 154.658L8.27972 154.682C8.1342 155.091 7.87941 155.423 7.51534 155.68C7.15682 155.932 6.7148 156.051 6.18928 156.038C5.76128 156.027 5.37894 155.923 5.04227 155.725C4.71114 155.522 4.4523 155.245 4.26575 154.893C4.08475 154.536 3.99988 154.128 4.01116 153.667C4.02243 153.207 4.12441 152.805 4.3171 152.463C4.51534 152.116 4.78473 151.851 5.12527 151.67C5.47123 151.488 5.86362 151.403 6.30246 151.414C6.72504 151.424 7.09932 151.526 7.42529 151.718C7.75127 151.91 8.00224 152.176 8.17823 152.517C8.35434 152.852 8.43709 153.236 8.42649 153.67ZM7.46658 153.353C7.46952 153.012 7.35431 152.735 7.12097 152.524C6.88763 152.312 6.59488 152.202 6.24273 152.193C5.92309 152.185 5.64697 152.281 5.41439 152.482C5.18194 152.677 5.0398 152.947 4.98797 153.293L7.46658 153.353ZM10.3008 152.235C10.4418 152.011 10.6249 151.84 10.8501 151.72C11.0808 151.596 11.3506 151.537 11.6594 151.545L11.6359 152.504L11.4003 152.498C11.0373 152.489 10.7587 152.575 10.5646 152.754C10.3759 152.934 10.276 153.251 10.2648 153.706L10.2071 156.063L9.28071 156.04L9.3903 151.563L10.3167 151.585L10.3008 152.235ZM14.9315 154.918C15.4626 154.481 15.8807 154.123 16.1857 153.843C16.4962 153.558 16.7556 153.261 16.9637 152.951C17.1719 152.642 17.2798 152.33 17.2875 152.016C17.2955 151.691 17.2231 151.435 17.0705 151.246C16.9233 151.059 16.6845 150.961 16.354 150.952C16.0344 150.945 15.7826 151.041 15.5988 151.243C15.4205 151.439 15.3218 151.708 15.3026 152.049L14.4087 152.027C14.4401 151.41 14.6358 150.943 14.9959 150.627C15.3616 150.305 15.818 150.151 16.3652 150.164C16.9557 150.178 17.4122 150.352 17.7348 150.685C18.0627 151.019 18.2201 151.456 18.2068 151.998C18.1973 152.388 18.0878 152.762 17.8785 153.12C17.6747 153.473 17.4311 153.79 17.1478 154.07C16.87 154.345 16.5152 154.664 16.0835 155.028L15.7099 155.344L18.286 155.407L18.2671 156.179L14.3176 156.082L14.3341 155.408L14.9315 154.918Z" fill="#363E49"/>
<rect width="404.129" height="32.5161" transform="translate(-18.5469 164.008) rotate(1.40206)" fill="white"/>
<rect x="-18.2637" y="164.305" width="403.548" height="31.9355" rx="4.35484" transform="rotate(1.40206 -18.2637 164.305)" stroke="#D8DEE6" stroke-width="0.580645"/>
<path d="M-1.83498 177.513L-3.61518 183.137L-4.4441 183.117L-5.64902 178.525L-7.12587 183.051L-7.94686 183.039L-9.39271 177.328L-8.60443 177.347L-7.48674 182.18L-6.00392 177.411L-5.17501 177.431L-3.99191 182.249L-2.63138 177.493L-1.83498 177.513ZM-0.333499 179.485C-0.197241 179.233 -0.00819812 179.04 0.23363 178.905C0.480875 178.77 0.777866 178.707 1.1246 178.716L1.1059 179.479L0.910865 179.475C0.0819523 179.454 -0.34351 179.894 -0.365522 180.793L-0.424795 183.215L-1.16432 183.197L-1.05532 178.744L-0.315797 178.762L-0.333499 179.485ZM2.37594 178.104C2.23508 178.1 2.11708 178.049 2.02195 177.949C1.92682 177.849 1.88097 177.728 1.88442 177.588C1.88787 177.447 1.93955 177.329 2.03945 177.234C2.13936 177.139 2.25974 177.093 2.4006 177.096C2.53605 177.099 2.64862 177.151 2.73834 177.251C2.83347 177.351 2.87931 177.471 2.87587 177.612C2.87242 177.753 2.82074 177.871 2.72084 177.966C2.62635 178.061 2.51138 178.107 2.37594 178.104ZM2.71581 178.836L2.60681 183.289L1.86729 183.271L1.97629 178.818L2.71581 178.836ZM4.86333 179.498L4.79908 182.123C4.79378 182.34 4.83605 182.495 4.92589 182.59C5.01587 182.679 5.17464 182.726 5.40218 182.731L5.94666 182.745L5.93135 183.371L5.26497 183.354C4.85322 183.344 4.54673 183.242 4.3455 183.047C4.14426 182.852 4.04895 182.538 4.05956 182.105L4.1238 179.48L3.54682 179.466L3.56173 178.857L4.13872 178.871L4.16617 177.749L4.90569 177.767L4.87824 178.889L6.04035 178.917L6.02543 179.527L4.86333 179.498ZM10.9493 181.095C10.9459 181.235 10.9341 181.384 10.914 181.541L7.35458 181.454C7.37092 181.893 7.51149 182.241 7.77628 182.497C8.04662 182.747 8.37682 182.877 8.7669 182.887C9.08655 182.895 9.3538 182.828 9.56868 182.687C9.7891 182.541 9.9457 182.344 10.0385 182.097L10.8349 182.116C10.7052 182.541 10.4583 182.885 10.0941 183.147C9.73002 183.404 9.28252 183.526 8.75158 183.513C8.329 183.502 7.95208 183.398 7.62082 183.201C7.29498 183.003 7.04149 182.728 6.86036 182.377C6.67936 182.02 6.59449 181.611 6.60576 181.151C6.61703 180.69 6.71901 180.289 6.9117 179.947C7.10439 179.605 7.36823 179.345 7.70322 179.169C8.04376 178.988 8.43074 178.903 8.86416 178.913C9.28675 178.923 9.65831 179.025 9.97887 179.217C10.2994 179.409 10.5424 179.67 10.7078 179.999C10.8788 180.323 10.9593 180.688 10.9493 181.095ZM10.1892 180.922C10.1961 180.64 10.1397 180.397 10.02 180.194C9.90045 179.985 9.73357 179.826 9.51938 179.718C9.31074 179.604 9.07639 179.544 8.81634 179.538C8.44252 179.529 8.11995 179.64 7.84865 179.872C7.58276 180.104 7.42569 180.431 7.37742 180.853L10.1892 180.922ZM15.0295 179.747L14.9653 182.372C14.96 182.589 15.0022 182.744 15.0921 182.839C15.1821 182.927 15.3408 182.975 15.5684 182.98L16.1128 182.994L16.0975 183.619L15.4312 183.603C15.0194 183.593 14.7129 183.491 14.5117 183.296C14.3104 183.101 14.2151 182.787 14.2257 182.354L14.29 179.729L13.713 179.715L13.7279 179.105L14.3049 179.119L14.3324 177.998L15.0719 178.016L15.0444 179.138L16.2065 179.166L16.1916 179.776L15.0295 179.747ZM19.315 179.161C19.6509 179.169 19.9525 179.25 20.2198 179.402C20.4872 179.55 20.6933 179.769 20.8379 180.06C20.988 180.351 21.058 180.702 21.048 181.114L20.9837 183.739L20.2523 183.721L20.314 181.202C20.3249 180.758 20.2221 180.416 20.0057 180.178C19.7894 179.934 19.4889 179.807 19.1042 179.798C18.7141 179.788 18.3996 179.903 18.1607 180.141C17.9272 180.379 17.8047 180.731 17.7933 181.197L17.7331 183.659L16.9936 183.641L17.1407 177.628L17.8803 177.646L17.8266 179.84C17.9784 179.616 18.1832 179.445 18.4409 179.326C18.704 179.208 18.9953 179.153 19.315 179.161ZM26.3137 181.471C26.3102 181.612 26.2985 181.76 26.2784 181.917L22.7189 181.83C22.7353 182.269 22.8758 182.617 23.1406 182.873C23.411 183.123 23.7412 183.254 24.1313 183.263C24.4509 183.271 24.7182 183.204 24.933 183.063C25.1534 182.917 25.3101 182.72 25.4028 182.473L26.1992 182.492C26.0696 182.918 25.8226 183.261 25.4584 183.523C25.0944 183.78 24.6469 183.902 24.1159 183.889C23.6934 183.878 23.3164 183.774 22.9852 183.577C22.6593 183.379 22.4058 183.104 22.2247 182.753C22.0437 182.396 21.9588 181.987 21.9701 181.527C21.9814 181.066 22.0834 180.665 22.2761 180.323C22.4687 179.981 22.7326 179.721 23.0676 179.545C23.4081 179.364 23.7951 179.279 24.2285 179.289C24.6511 179.3 25.0227 179.401 25.3432 179.593C25.6638 179.785 25.9068 180.046 26.0722 180.375C26.2431 180.699 26.3236 181.064 26.3137 181.471ZM25.5536 181.298C25.5605 181.016 25.5041 180.773 25.3844 180.57C25.2648 180.361 25.0979 180.202 24.8837 180.094C24.6751 179.98 24.4407 179.92 24.1807 179.914C23.8069 179.905 23.4843 180.016 23.213 180.248C22.9471 180.48 22.79 180.807 22.7418 181.229L25.5536 181.298ZM32.7767 182.767L30.3062 182.707L29.8203 183.955L29.0402 183.936L31.2259 178.355L32.0792 178.375L33.9811 184.057L33.201 184.038L32.7767 182.767ZM32.5801 182.161L31.6262 179.275L30.5322 182.111L32.5801 182.161ZM37.1545 179.597C37.6962 179.611 38.131 179.787 38.4588 180.125C38.7868 180.459 38.9432 180.934 38.9281 181.552L38.8638 184.177L38.1324 184.159L38.1941 181.639C38.205 181.195 38.1022 180.854 37.8858 180.615C37.6695 180.372 37.369 180.245 36.9843 180.236C36.5943 180.226 36.2798 180.34 36.0408 180.578C35.8073 180.817 35.6849 181.169 35.6734 181.635L35.6132 184.097L34.8737 184.079L34.9827 179.626L35.7222 179.644L35.7067 180.278C35.8585 180.054 36.0606 179.882 36.3128 179.764C36.5705 179.645 36.8511 179.59 37.1545 179.597ZM41.6466 184.318C41.3053 184.31 41.0006 184.245 40.7325 184.125C40.4645 183.999 40.2545 183.831 40.1024 183.621C39.9505 183.406 39.8697 183.163 39.8601 182.892L40.624 182.911C40.6402 183.133 40.7387 183.317 40.9194 183.463C41.1056 183.608 41.3504 183.685 41.6538 183.692C41.9355 183.699 42.1592 183.642 42.3247 183.521C42.4903 183.401 42.5754 183.246 42.5801 183.056C42.5848 182.861 42.5017 182.715 42.3306 182.619C42.1596 182.517 41.8937 182.416 41.533 182.315C41.2046 182.22 40.9359 182.127 40.7267 182.035C40.5231 181.938 40.3475 181.801 40.2001 181.624C40.0582 181.441 39.9907 181.206 39.9978 180.919C40.0033 180.692 40.0762 180.485 40.2163 180.298C40.3563 180.112 40.5523 179.968 40.8042 179.866C41.0562 179.758 41.342 179.708 41.6617 179.716C42.1547 179.728 42.5498 179.862 42.8471 180.119C43.1444 180.376 43.2986 180.721 43.3097 181.155L42.5701 181.137C42.5596 180.903 42.4693 180.714 42.2994 180.569C42.1349 180.424 41.9091 180.348 41.622 180.341C41.3565 180.335 41.1438 180.386 40.9839 180.496C40.824 180.606 40.7418 180.753 40.7373 180.937C40.7337 181.084 40.7768 181.207 40.8665 181.306C40.9618 181.401 41.0791 181.48 41.2185 181.543C41.3635 181.6 41.5624 181.668 41.8153 181.744C42.1328 181.839 42.3907 181.932 42.5891 182.023C42.7876 182.11 42.9552 182.238 43.0919 182.41C43.2341 182.581 43.3046 182.803 43.3033 183.074C43.2974 183.317 43.2243 183.535 43.0841 183.727C42.9438 183.919 42.7477 184.068 42.4957 184.176C42.2493 184.278 41.9662 184.326 41.6466 184.318ZM50.3591 180.002L48.8604 184.421L48.0965 184.403L47.1103 180.841L45.9511 184.35L45.1872 184.331L43.8984 179.844L44.6542 179.862L45.5867 183.626L46.7834 179.914L47.5391 179.933L48.5283 183.706L49.6277 179.984L50.3591 180.002ZM55.106 182.175C55.1025 182.316 55.0908 182.465 55.0707 182.622L51.5112 182.535C51.5276 182.974 51.6681 183.322 51.9329 183.578C52.2033 183.828 52.5335 183.958 52.9235 183.968C53.2432 183.976 53.5104 183.909 53.7253 183.768C53.9457 183.621 54.1023 183.425 54.1951 183.178L54.9915 183.197C54.8619 183.622 54.6149 183.966 54.2507 184.228C53.8867 184.485 53.4392 184.607 52.9082 184.594C52.4856 184.583 52.1087 184.479 51.7775 184.281C51.4516 184.084 51.1981 183.809 51.017 183.458C50.836 183.101 50.7511 182.692 50.7624 182.232C50.7737 181.771 50.8757 181.37 51.0683 181.028C51.261 180.685 51.5249 180.426 51.8599 180.25C52.2004 180.069 52.5874 179.983 53.0208 179.994C53.4434 180.004 53.815 180.105 54.1355 180.298C54.4561 180.49 54.699 180.751 54.8645 181.08C55.0354 181.404 55.1159 181.769 55.106 182.175ZM54.3459 182.002C54.3528 181.721 54.2964 181.478 54.1767 181.274C54.0571 181.065 53.8902 180.907 53.676 180.799C53.4674 180.685 53.233 180.625 52.973 180.619C52.5992 180.61 52.2766 180.721 52.0053 180.953C51.7394 181.185 51.5823 181.512 51.5341 181.933L54.3459 182.002ZM56.8543 180.885C56.9905 180.633 57.1796 180.44 57.4214 180.305C57.6686 180.17 57.9656 180.107 58.3124 180.115L58.2937 180.879L58.0986 180.874C57.2697 180.854 56.8443 181.294 56.8222 182.193L56.763 184.615L56.0235 184.597L56.1325 180.143L56.872 180.161L56.8543 180.885Z" fill="#AAB7C9"/>
<path d="M367.748 185.66C367.737 186.141 367.337 186.521 366.856 186.509C366.375 186.498 365.995 186.098 366.007 185.617C366.019 185.136 366.418 184.756 366.899 184.768C367.38 184.78 367.76 185.179 367.748 185.66Z" stroke="#8094AE" stroke-width="0.580645"/>
<path d="M367.65 189.722C367.638 190.203 367.239 190.584 366.758 190.572C366.277 190.56 365.897 190.161 365.908 189.68C365.92 189.199 366.319 188.819 366.8 188.83C367.281 188.842 367.661 189.241 367.65 189.722Z" stroke="#8094AE" stroke-width="0.580645"/>
<path d="M367.549 193.787C367.537 194.268 367.138 194.648 366.657 194.636C366.176 194.624 365.796 194.225 365.808 193.744C365.819 193.263 366.219 192.883 366.7 192.895C367.181 192.907 367.561 193.306 367.549 193.787Z" stroke="#8094AE" stroke-width="0.580645"/>
<path d="M371.812 185.759C371.8 186.24 371.401 186.621 370.92 186.609C370.439 186.597 370.059 186.198 370.07 185.717C370.082 185.236 370.482 184.856 370.962 184.867C371.443 184.879 371.824 185.279 371.812 185.759Z" stroke="#8094AE" stroke-width="0.580645"/>
<path d="M371.712 189.824C371.7 190.305 371.301 190.685 370.82 190.673C370.339 190.662 369.959 190.262 369.971 189.781C369.983 189.3 370.382 188.92 370.863 188.932C371.344 188.944 371.724 189.343 371.712 189.824Z" stroke="#8094AE" stroke-width="0.580645"/>
<path d="M371.613 193.886C371.601 194.367 371.201 194.748 370.721 194.736C370.24 194.724 369.859 194.325 369.871 193.844C369.883 193.363 370.282 192.983 370.763 192.994C371.244 193.006 371.624 193.406 371.613 193.886Z" stroke="#8094AE" stroke-width="0.580645"/>
<rect x="-19.542" y="210.592" width="101.903" height="23.6452" rx="4.5" transform="rotate(1.40206 -19.542 210.592)" stroke="#6200EE" stroke-width="0.290323"/>
<path d="M4.33694 224.013L2.30993 223.963L1.93744 224.944L1.10852 224.924L2.96163 220.118L3.8811 220.14L5.49689 225.031L4.66101 225.011L4.33694 224.013ZM4.12989 223.36L3.39784 221.09L2.54869 223.321L4.12989 223.36ZM6.03373 223.107C6.04316 222.721 6.13046 222.382 6.29562 222.088C6.46543 221.795 6.68931 221.571 6.96727 221.415C7.24999 221.254 7.56085 221.178 7.89984 221.187C8.15061 221.193 8.39536 221.255 8.63411 221.372C8.87762 221.485 9.06913 221.634 9.20866 221.818L9.25401 219.965L10.0551 219.985L9.9289 225.14L9.12785 225.12L9.142 224.542C9.00742 224.724 8.82257 224.873 8.58742 224.988C8.35692 225.103 8.09307 225.157 7.79587 225.15C7.46152 225.142 7.15708 225.051 6.88254 224.877C6.61276 224.698 6.4003 224.456 6.24516 224.15C6.09477 223.84 6.0243 223.492 6.03373 223.107ZM9.1749 223.197C9.18138 222.933 9.13128 222.701 9.0246 222.504C8.92257 222.306 8.78457 222.154 8.61061 222.047C8.43665 221.941 8.2475 221.885 8.04318 221.88C7.83885 221.875 7.6472 221.922 7.46824 222.02C7.28939 222.113 7.14185 222.255 7.02563 222.448C6.91416 222.636 6.85519 222.862 6.84871 223.127C6.84223 223.391 6.88995 223.625 6.99187 223.827C7.09844 224.029 7.23864 224.186 7.41249 224.297C7.5911 224.404 7.78024 224.46 7.97992 224.465C8.18425 224.47 8.3759 224.423 8.55486 224.325C8.73382 224.227 8.87909 224.082 8.99068 223.89C9.10701 223.693 9.16842 223.462 9.1749 223.197ZM10.7546 223.222C10.764 222.837 10.8513 222.497 11.0165 222.204C11.1863 221.911 11.4102 221.686 11.6881 221.53C11.9709 221.37 12.2817 221.294 12.6207 221.302C12.8715 221.308 13.1162 221.37 13.355 221.488C13.5985 221.6 13.79 221.749 13.9295 221.934L13.9749 220.081L14.7759 220.1L14.6498 225.255L13.8487 225.235L13.8629 224.657C13.7283 224.84 13.5434 224.989 13.3083 225.104C13.0778 225.219 12.8139 225.273 12.5167 225.266C12.1824 225.257 11.8779 225.166 11.6034 224.992C11.3336 224.814 11.1212 224.572 10.966 224.266C10.8156 223.955 10.7452 223.608 10.7546 223.222ZM13.8958 223.313C13.9022 223.048 13.8521 222.817 13.7455 222.619C13.6434 222.422 13.5054 222.27 13.3315 222.163C13.1575 222.057 12.9684 222.001 12.764 221.996C12.5597 221.991 12.3681 222.037 12.1891 222.135C12.0103 222.228 11.8627 222.371 11.7465 222.563C11.635 222.751 11.5761 222.977 11.5696 223.242C11.5631 223.507 11.6108 223.74 11.7127 223.943C11.8193 224.145 11.9595 224.302 12.1334 224.413C12.312 224.519 12.5011 224.575 12.7008 224.58C12.9051 224.585 13.0968 224.539 13.2757 224.441C13.4547 224.343 13.6 224.198 13.7115 224.005C13.8279 223.808 13.8893 223.578 13.8958 223.313ZM17.2849 223.382C17.2943 222.997 17.3816 222.657 17.5468 222.364C17.7166 222.071 17.9405 221.846 18.2184 221.69C18.5012 221.53 18.8097 221.454 19.144 221.462C19.4459 221.469 19.7068 221.536 19.9267 221.662C20.1514 221.784 20.329 221.935 20.4593 222.114L20.473 221.557L21.274 221.577L21.1801 225.415L20.379 225.395L20.393 224.824C20.2539 225.002 20.0668 225.148 19.8316 225.263C19.5965 225.378 19.3303 225.432 19.0331 225.425C18.7034 225.417 18.4036 225.326 18.1337 225.152C17.8639 224.974 17.6515 224.731 17.4963 224.426C17.3459 224.115 17.2755 223.767 17.2849 223.382ZM20.4261 223.473C20.4325 223.208 20.3824 222.977 20.2758 222.779C20.1737 222.581 20.0357 222.429 19.8618 222.323C19.6878 222.216 19.4987 222.161 19.2943 222.156C19.09 222.151 18.8984 222.197 18.7194 222.295C18.5406 222.388 18.393 222.531 18.2768 222.723C18.1653 222.911 18.1064 223.137 18.0999 223.402C18.0934 223.667 18.1411 223.9 18.243 224.102C18.3496 224.305 18.4898 224.462 18.6637 224.573C18.8423 224.679 19.0314 224.735 19.2311 224.74C19.4354 224.745 19.6271 224.698 19.806 224.601C19.985 224.503 20.1303 224.358 20.2418 224.165C20.3582 223.968 20.4196 223.737 20.4261 223.473ZM24.255 221.587C24.5568 221.594 24.8246 221.664 25.0584 221.795C25.2968 221.926 25.4803 222.117 25.609 222.366C25.7376 222.615 25.7977 222.914 25.7892 223.262L25.7338 225.526L24.9466 225.507L24.9991 223.362C25.0076 223.018 24.9281 222.754 24.7607 222.568C24.5934 222.378 24.3612 222.28 24.064 222.272C23.7668 222.265 23.5277 222.352 23.3466 222.534C23.1704 222.711 23.0781 222.971 23.0697 223.314L23.0171 225.46L22.2231 225.44L22.317 221.602L23.1111 221.622L23.1003 222.061C23.2342 221.906 23.4021 221.787 23.6039 221.704C23.8104 221.62 24.0274 221.581 24.255 221.587ZM28.4099 225.655C28.0477 225.646 27.7223 225.556 27.4337 225.387C27.1453 225.212 26.9211 224.975 26.7612 224.673C26.6014 224.367 26.5263 224.017 26.536 223.622C26.5455 223.232 26.6399 222.888 26.8191 222.591C26.9983 222.293 27.2385 222.067 27.5397 221.911C27.8409 221.756 28.1749 221.683 28.5418 221.692C28.9086 221.701 29.2386 221.79 29.5319 221.96C29.8251 222.13 30.0539 222.368 30.2184 222.674C30.3828 222.98 30.4602 223.328 30.4507 223.718C30.4411 224.108 30.3444 224.452 30.1606 224.75C29.9767 225.047 29.7295 225.276 29.4189 225.435C29.1131 225.59 28.7768 225.664 28.4099 225.655ZM28.4268 224.965C28.6311 224.97 28.8227 224.926 29.0016 224.833C29.1851 224.74 29.3349 224.597 29.4511 224.405C29.5674 224.212 29.6289 223.977 29.6357 223.698C29.6425 223.42 29.5949 223.184 29.4927 222.991C29.3907 222.793 29.2526 222.643 29.0785 222.541C28.9045 222.44 28.7153 222.386 28.5109 222.381C28.3066 222.376 28.115 222.42 27.9362 222.514C27.762 222.607 27.6214 222.75 27.5145 222.942C27.4076 223.13 27.3508 223.363 27.344 223.642C27.3339 224.055 27.4305 224.378 27.6339 224.611C27.8421 224.839 28.1064 224.957 28.4268 224.965ZM32.1931 222.492L32.1411 224.617C32.1376 224.761 32.1676 224.866 32.231 224.933C32.2992 224.995 32.4145 225.028 32.5771 225.032L33.0647 225.044L33.0485 225.705L32.4215 225.69C32.064 225.681 31.792 225.591 31.6057 225.419C31.4194 225.247 31.3309 224.973 31.3401 224.597L31.3921 222.473L30.9393 222.462L30.9552 221.814L31.4079 221.825L31.4313 220.871L32.2324 220.89L32.209 221.844L33.1424 221.867L33.1265 222.515L32.1931 222.492ZM35.861 221.871C36.1536 221.878 36.4121 221.947 36.6366 222.078C36.8657 222.209 37.0423 222.4 37.1663 222.649C37.2949 222.898 37.355 223.197 37.3464 223.545L37.291 225.809L36.5039 225.79L36.5564 223.645C36.5648 223.301 36.4853 223.036 36.318 222.851C36.1507 222.661 35.9184 222.563 35.6212 222.555C35.324 222.548 35.0849 222.635 34.9039 222.816C34.7277 222.993 34.6353 223.254 34.6269 223.597L34.5744 225.743L33.7803 225.723L33.9065 220.569L34.7006 220.588L34.6574 222.35C34.7961 222.191 34.9687 222.07 35.1751 221.987C35.3863 221.904 35.6149 221.865 35.861 221.871ZM41.8709 223.907C41.8673 224.051 41.8549 224.181 41.8335 224.296L38.9009 224.225C38.9166 224.532 39.0244 224.781 39.2242 224.971C39.4239 225.162 39.6724 225.261 39.9696 225.268C40.3969 225.279 40.7031 225.107 40.8883 224.754L41.7451 224.775C41.6203 225.125 41.4019 225.41 41.0899 225.63C40.7826 225.846 40.4037 225.948 39.9533 225.937C39.5864 225.928 39.2587 225.839 38.9701 225.669C38.6863 225.495 38.4644 225.257 38.3045 224.956C38.1494 224.65 38.0766 224.3 38.0863 223.905C38.096 223.51 38.1834 223.166 38.3485 222.873C38.5184 222.575 38.7494 222.348 39.0412 222.193C39.3378 222.038 39.6741 221.964 40.0503 221.974C40.4125 221.982 40.7333 222.069 41.0127 222.234C41.2921 222.399 41.5072 222.627 41.6581 222.919C41.809 223.206 41.88 223.536 41.8709 223.907ZM41.0481 223.636C41.0506 223.343 40.9519 223.106 40.7519 222.925C40.5518 222.743 40.3009 222.649 39.9991 222.641C39.7251 222.635 39.4884 222.717 39.2891 222.889C39.0898 223.056 38.968 223.288 38.9236 223.584L41.0481 223.636ZM43.4774 222.678C43.5983 222.486 43.7552 222.338 43.9482 222.236C44.146 222.13 44.3772 222.08 44.6419 222.086L44.6218 222.908L44.4198 222.903C44.1087 222.895 43.8699 222.969 43.7035 223.122C43.5418 223.276 43.4561 223.549 43.4466 223.939L43.3971 225.959L42.6031 225.939L42.697 222.101L43.4911 222.121L43.4774 222.678ZM46.8685 224.106C46.878 223.721 46.9653 223.381 47.1304 223.088C47.3002 222.795 47.5241 222.57 47.8021 222.414C48.0848 222.254 48.3933 222.178 48.7277 222.186C49.0295 222.193 49.2904 222.26 49.5104 222.386C49.7351 222.508 49.9126 222.659 50.0429 222.839L50.0566 222.281L50.8576 222.301L50.7637 226.139L49.9626 226.119L49.9766 225.548C49.8375 225.726 49.6504 225.872 49.4153 225.987C49.1801 226.103 48.9139 226.156 48.6167 226.149C48.287 226.141 47.9872 226.05 47.7173 225.876C47.4476 225.698 47.2351 225.456 47.08 225.15C46.9296 224.839 46.8591 224.491 46.8685 224.106ZM50.0097 224.197C50.0162 223.932 49.9661 223.701 49.8594 223.503C49.7574 223.305 49.6194 223.153 49.4454 223.047C49.2714 222.94 49.0823 222.885 48.878 222.88C48.6737 222.875 48.482 222.921 48.303 223.019C48.1242 223.112 47.9767 223.255 47.8604 223.447C47.749 223.635 47.69 223.861 47.6835 224.126C47.677 224.391 47.7248 224.624 47.8267 224.826C47.9332 225.029 48.0734 225.186 48.2473 225.297C48.4259 225.403 48.615 225.459 48.8147 225.464C49.0191 225.469 49.2107 225.423 49.3897 225.325C49.5686 225.227 49.7139 225.082 49.8255 224.889C49.9418 224.692 50.0032 224.462 50.0097 224.197ZM53.8386 222.311C54.1405 222.318 54.4083 222.388 54.642 222.519C54.8804 222.65 55.064 222.841 55.1926 223.09C55.3213 223.339 55.3813 223.638 55.3728 223.987L55.3174 226.25L54.5303 226.231L54.5828 224.086C54.5912 223.742 54.5117 223.478 54.3443 223.292C54.177 223.102 53.9448 223.004 53.6476 222.996C53.3504 222.989 53.1113 223.076 52.9303 223.258C52.754 223.435 52.6617 223.695 52.6533 224.038L52.6008 226.184L51.8067 226.164L51.9006 222.326L52.6947 222.346L52.684 222.785C52.8179 222.63 52.9857 222.511 53.1876 222.428C53.3941 222.344 53.6111 222.306 53.8386 222.311ZM57.7219 226.372C57.42 226.365 57.1497 226.305 56.9108 226.192C56.6767 226.075 56.4923 225.921 56.3575 225.732C56.2229 225.538 56.1537 225.325 56.1501 225.093L56.9721 225.113C56.982 225.276 57.0553 225.415 57.1919 225.53C57.3332 225.64 57.5107 225.698 57.7243 225.703C57.9472 225.708 58.1201 225.671 58.2428 225.59C58.3704 225.505 58.4358 225.395 58.4391 225.26C58.4426 225.116 58.3756 225.008 58.238 224.935C58.105 224.862 57.891 224.78 57.5958 224.689C57.3098 224.603 57.0772 224.521 56.8979 224.442C56.7186 224.363 56.5635 224.246 56.4326 224.089C56.3063 223.933 56.2462 223.729 56.2524 223.478C56.2574 223.274 56.3223 223.09 56.4471 222.926C56.5721 222.757 56.7472 222.626 56.9725 222.534C57.2024 222.442 57.4636 222.4 57.7562 222.407C58.1927 222.418 58.5406 222.538 58.7998 222.767C59.0638 222.992 59.2005 223.295 59.2097 223.676L58.4156 223.657C58.4059 223.485 58.3396 223.346 58.2167 223.241C58.0938 223.135 57.9256 223.08 57.712 223.075C57.503 223.07 57.3418 223.105 57.2284 223.182C57.1151 223.258 57.0568 223.361 57.0536 223.491C57.0511 223.593 57.0861 223.68 57.1587 223.751C57.2313 223.823 57.3205 223.881 57.4263 223.925C57.5322 223.965 57.6889 224.018 57.8964 224.083C58.1732 224.164 58.3989 224.246 58.5734 224.33C58.7527 224.408 58.9055 224.524 59.0319 224.676C59.1583 224.827 59.2208 225.026 59.2194 225.273C59.2141 225.491 59.1489 225.684 59.024 225.853C58.8991 226.022 58.7239 226.153 58.4987 226.245C58.278 226.337 58.0191 226.379 57.7219 226.372ZM65.2997 222.654L64.0147 226.463L63.1788 226.443L62.475 223.589L61.6324 226.405L60.7965 226.385L59.6924 222.517L60.5004 222.537L61.2259 225.642L62.1164 222.576L62.9453 222.597L63.6503 225.688L64.5196 222.635L65.2997 222.654ZM69.3662 224.58C69.3626 224.724 69.3502 224.854 69.3287 224.969L66.3962 224.898C66.4119 225.205 66.5197 225.454 66.7194 225.644C66.9192 225.835 67.1677 225.934 67.4649 225.941C67.8921 225.952 68.1984 225.78 68.3836 225.427L69.2404 225.448C69.1156 225.798 68.8972 226.083 68.5852 226.303C68.2779 226.519 67.899 226.621 67.4486 226.61C67.0817 226.601 66.754 226.512 66.4654 226.342C66.1816 226.168 65.9597 225.93 65.7998 225.629C65.6447 225.323 65.5719 224.973 65.5816 224.578C65.5912 224.183 65.6787 223.839 65.8438 223.546C66.0137 223.248 66.2446 223.021 66.5365 222.866C66.8331 222.71 67.1694 222.637 67.5456 222.647C67.9078 222.655 68.2286 222.742 68.508 222.907C68.7874 223.072 69.0025 223.3 69.1534 223.592C69.3043 223.879 69.3752 224.208 69.3662 224.58ZM68.5434 224.309C68.5459 224.016 68.4472 223.779 68.2471 223.598C68.0471 223.416 67.7962 223.322 67.4944 223.314C67.2204 223.308 66.9837 223.39 66.7844 223.562C66.5851 223.729 66.4633 223.961 66.4189 224.257L68.5434 224.309ZM70.9727 223.351C71.0936 223.159 71.2505 223.011 71.4435 222.909C71.6413 222.803 71.8725 222.752 72.1372 222.759L72.1171 223.581L71.9151 223.576C71.604 223.568 71.3652 223.642 71.1988 223.795C71.0371 223.949 70.9514 224.221 70.9419 224.612L70.8924 226.632L70.0983 226.612L70.1923 222.774L70.9864 222.794L70.9727 223.351Z" fill="#6200EE"/>
</svg>
