<svg width="465" height="159" viewBox="0 0 465 159" fill="none" xmlns="http://www.w3.org/2000/svg">
<rect x="-21.75" y="0.484375" width="431.214" height="147.968" rx="10.8387" transform="rotate(1.40206 -21.75 0.484375)" fill="white"/>
<path d="M5.02448 31.9298L5.06297 30.3573L8.00073 30.4292L7.78323 39.3157L6.02789 39.2727L6.2069 31.9588L5.02448 31.9298ZM10.4179 39.4655C10.1091 39.458 9.85537 39.3583 9.65678 39.1664C9.46651 38.9666 9.37486 38.7244 9.38182 38.44C9.38878 38.1556 9.49207 37.9223 9.69168 37.7402C9.89962 37.5501 10.158 37.4588 10.4668 37.4664C10.7675 37.4738 11.013 37.5773 11.2032 37.7772C11.3937 37.9688 11.4854 38.2069 11.4785 38.4913C11.4715 38.7758 11.3681 39.0131 11.1683 39.2034C10.9687 39.3855 10.7186 39.4729 10.4179 39.4655ZM14.7118 32.3499L14.6596 34.4831L17.5242 34.5532L17.4911 35.9063L14.6265 35.8362L14.5713 38.0913L17.8016 38.1704L17.7676 39.5601L12.8307 39.4392L13.0393 30.9185L17.9762 31.0393L17.9422 32.429L14.7118 32.3499ZM23.2285 32.8389C24.033 32.8586 24.6769 33.1305 25.1601 33.6546C25.6434 34.1706 25.874 34.8836 25.8517 35.7938L25.7548 39.7555L24.0482 39.7138L24.1395 35.9837C24.1526 35.4473 24.0286 35.0336 23.7673 34.7426C23.5063 34.4435 23.1442 34.2883 22.681 34.2769C22.2096 34.2654 21.8322 34.4025 21.5488 34.6883C21.2736 34.9662 21.1295 35.3733 21.1164 35.9097L21.0251 39.6398L19.3185 39.598L19.4838 32.8448L21.1904 32.8866L21.1698 33.7277C21.4045 33.4407 21.6986 33.2202 22.052 33.0662C22.4137 32.9043 22.8059 32.8285 23.2285 32.8389ZM29.4956 34.4925L29.4156 37.7594C29.41 37.987 29.4588 38.1549 29.5618 38.2631C29.6732 38.3634 29.8589 38.4167 30.119 38.4231L30.9113 38.4425L30.8761 39.8809L29.8034 39.8546C28.365 39.8194 27.6629 39.1029 27.6971 37.7052L27.7768 34.4505L26.9723 34.4308L27.0066 33.0289L27.8111 33.0486L27.852 31.3786L29.5708 31.4207L29.5299 33.0907L31.0414 33.1277L31.0071 34.5295L29.4956 34.4925ZM38.4676 36.5417C38.4617 36.7855 38.44 37.0045 38.4028 37.1988L33.4658 37.0779C33.4945 37.5665 33.6559 37.9526 33.9498 38.2363C34.2437 38.52 34.6101 38.6672 35.0489 38.6779C35.6828 38.6934 36.1405 38.4322 36.422 37.8943L38.2627 37.9394C38.0517 38.5847 37.6648 39.1119 37.1018 39.521C36.539 39.9219 35.8554 40.1125 35.0509 40.0928C34.4007 40.0769 33.8191 39.9204 33.306 39.6232C32.8012 39.3181 32.4089 38.8979 32.1293 38.3625C31.8578 37.8273 31.7305 37.2143 31.7474 36.5236C31.7645 35.8247 31.9217 35.2146 32.2191 34.6934C32.5165 34.1721 32.9246 33.7755 33.4436 33.5036C33.9625 33.2317 34.5551 33.1039 35.2215 33.1202C35.8635 33.1359 36.4331 33.2881 36.9302 33.5767C37.4354 33.8656 37.8199 34.2694 38.0836 34.7881C38.3557 35.2989 38.4837 35.8834 38.4676 36.5417ZM36.712 36.0108C36.7146 35.5718 36.5647 35.2185 36.2623 34.9509C35.96 34.6751 35.5854 34.5318 35.1385 34.5209C34.7159 34.5105 34.3551 34.6318 34.0562 34.8847C33.7656 35.1296 33.5822 35.4789 33.5061 35.9324L36.712 36.0108ZM41.4733 34.432C41.7014 34.0798 41.9927 33.8064 42.3472 33.6117C42.7097 33.4173 43.1185 33.3257 43.5736 33.3368L43.5297 35.1288L43.0787 35.1177C42.5424 35.1046 42.1329 35.2206 41.8505 35.4658C41.5761 35.7111 41.4313 36.1467 41.416 36.7724L41.3336 40.1368L39.6271 40.0951L39.7923 33.3419L41.4989 33.3836L41.4733 34.432ZM53.7621 41.9413L52.5078 40.3615C52.1481 40.4422 51.7813 40.4779 51.4075 40.4688C50.611 40.4493 49.8842 40.2445 49.227 39.8543C48.5698 39.4642 48.0542 38.9352 47.6802 38.2674C47.3064 37.5915 47.1298 36.835 47.1503 35.998C47.1706 35.1691 47.3838 34.4303 47.79 33.7816C48.1964 33.1247 48.7373 32.6175 49.4129 32.26C50.0884 31.9025 50.8244 31.7335 51.6208 31.753C52.4253 31.7727 53.1521 31.9775 53.8012 32.3674C54.4585 32.7576 54.9699 33.2905 55.3355 33.9662C55.7095 34.634 55.8863 35.3824 55.8661 36.2113C55.8476 36.9671 55.6681 37.6539 55.3277 38.2717C54.9957 38.8815 54.5486 39.3747 53.9864 39.7513L55.8831 41.9932L53.7621 41.9413ZM48.9056 36.0409C48.8917 36.6098 48.9892 37.1123 49.1981 37.5484C49.4069 37.9844 49.7035 38.3251 50.0878 38.5703C50.4805 38.8076 50.9328 38.9325 51.4447 38.945C51.9567 38.9576 52.4105 38.8548 52.8062 38.6368C53.202 38.4107 53.5149 38.085 53.7449 37.6596C53.9748 37.2343 54.0968 36.7372 54.1107 36.1683C54.1246 35.5995 54.0271 35.1011 53.818 34.6731C53.6091 34.237 53.3124 33.9005 52.9279 33.6634C52.5434 33.4263 52.0952 33.3015 51.5832 33.2889C51.0712 33.2764 50.6133 33.379 50.2096 33.5968C49.8139 33.8148 49.5011 34.1365 49.2712 34.5618C49.0414 34.9791 48.9195 35.4721 48.9056 36.0409ZM63.5954 33.9245L63.4301 40.6777L61.7113 40.6356L61.7322 39.7823C61.5056 40.0695 61.2115 40.294 60.8497 40.4559C60.4963 40.6099 60.1124 40.6818 59.6979 40.6717C59.1697 40.6588 58.7051 40.5376 58.3041 40.3083C57.9034 40.0708 57.5904 39.7338 57.3653 39.2973C57.1485 38.8529 57.0475 38.33 57.0622 37.7286L57.1591 33.7669L58.8657 33.8087L58.7747 37.5266C58.7616 38.063 58.8855 38.4807 59.1466 38.7798C59.4078 39.0708 59.77 39.222 60.2332 39.2333C60.7046 39.2449 61.0778 39.1117 61.3529 38.8338C61.6283 38.5478 61.7725 38.1367 61.7856 37.6003L61.8766 33.8824L63.5954 33.9245ZM71.478 37.3496C71.472 37.5934 71.4504 37.8125 71.4131 38.0067L66.4762 37.8859C66.5049 38.3745 66.6662 38.7606 66.9601 39.0443C67.254 39.3279 67.6204 39.4751 68.0593 39.4859C68.6931 39.5014 69.1508 39.2402 69.4323 38.7023L71.273 38.7473C71.062 39.3927 70.6751 39.9199 70.1121 40.3289C69.5494 40.7299 68.8657 40.9205 68.0612 40.9008C67.4111 40.8849 66.8295 40.7283 66.3163 40.4312C65.8115 40.1261 65.4193 39.7058 65.1396 39.1705C64.8681 38.6353 64.7408 38.0223 64.7577 37.3315C64.7749 36.6326 64.9321 36.0226 65.2294 35.5013C65.5268 34.98 65.935 34.5834 66.4539 34.3115C66.9728 34.0396 67.5655 33.9119 68.2319 33.9282C68.8739 33.9439 69.4434 34.096 69.9405 34.3847C70.4457 34.6735 70.8302 35.0773 71.094 35.596C71.3661 36.1069 71.4941 36.6914 71.478 37.3496ZM69.7224 36.8188C69.725 36.3798 69.5751 36.0264 69.2726 35.7588C68.9704 35.4831 68.5958 35.3397 68.1488 35.3288C67.7262 35.3185 67.3655 35.4397 67.0665 35.6926C66.7759 35.9376 66.5926 36.2868 66.5164 36.7403L69.7224 36.8188ZM75.219 41.076C74.6664 41.0624 74.173 40.9528 73.739 40.747C73.3051 40.5331 72.9623 40.2523 72.7106 39.9046C72.4671 39.5572 72.3381 39.1759 72.3239 38.7608L74.0427 38.8029C74.0688 39.0637 74.1895 39.2822 74.4048 39.4582C74.6281 39.6344 74.9064 39.7266 75.2396 39.7348C75.5647 39.7427 75.8182 39.6839 76.0001 39.5582C76.1902 39.4328 76.2878 39.2685 76.2927 39.0653C76.2981 38.8459 76.1883 38.6806 75.9634 38.5694C75.7467 38.4502 75.3962 38.3197 74.9118 38.1777C74.4109 38.0435 73.9996 37.9074 73.6777 37.7694C73.3639 37.6316 73.0925 37.4258 72.8634 37.1518C72.6424 36.8781 72.5375 36.5136 72.5486 36.0586C72.5578 35.6847 72.6718 35.346 72.8906 35.0424C73.1176 34.7389 73.4324 34.5027 73.8349 34.3336C74.2457 34.1648 74.7232 34.087 75.2677 34.1004C76.0723 34.1201 76.7093 34.3389 77.1788 34.757C77.6485 35.1669 77.8994 35.7138 77.9315 36.3977L76.298 36.3577C76.2802 36.0889 76.1716 35.8748 75.9722 35.7154C75.7812 35.5481 75.519 35.4604 75.1859 35.4523C74.877 35.4447 74.6359 35.4957 74.4625 35.6053C74.2972 35.7151 74.212 35.8716 74.207 36.0747C74.2015 36.3023 74.311 36.4798 74.5355 36.6073C74.7603 36.7266 75.1109 36.8531 75.5874 36.9867C76.072 37.1206 76.4712 37.2564 76.7849 37.3942C77.0987 37.5319 77.366 37.7418 77.5868 38.0236C77.8159 38.2976 77.929 38.6581 77.9262 39.1053C77.9166 39.4954 77.7984 39.8421 77.5714 40.1456C77.3526 40.4492 77.0378 40.6855 76.6271 40.8543C76.2247 41.0152 75.7553 41.0891 75.219 41.076ZM81.3979 35.7629L81.3179 39.0298C81.3123 39.2573 81.3611 39.4252 81.4641 39.5334C81.5755 39.6337 81.7613 39.6871 82.0213 39.6934L82.8136 39.7128L82.7784 41.1512L81.7057 41.125C80.2673 41.0898 79.5652 40.3733 79.5994 38.9755L79.6791 35.7208L78.8746 35.7011L78.9089 34.2993L79.7134 34.319L79.7543 32.6489L81.4731 32.691L81.4322 34.361L82.9437 34.398L82.9094 35.7999L81.3979 35.7629ZM85.0564 33.6447C84.7557 33.6373 84.506 33.5377 84.3075 33.3458C84.1172 33.146 84.0255 32.9039 84.0325 32.6195C84.0395 32.335 84.1427 32.1018 84.3424 31.9196C84.5503 31.7296 84.8046 31.6382 85.1053 31.6456C85.406 31.6529 85.6515 31.7565 85.8417 31.9563C86.0403 32.1482 86.1361 32.3864 86.1292 32.6708C86.1222 32.9552 86.0147 33.1925 85.8068 33.3825C85.6072 33.5647 85.357 33.6521 85.0564 33.6447ZM85.8778 34.4698L85.7125 41.223L84.0059 41.1813L84.1712 34.4281L85.8778 34.4698ZM90.3946 41.4474C89.7445 41.4315 89.1629 41.275 88.6497 40.9778C88.1368 40.6725 87.7364 40.2521 87.4487 39.7165C87.1691 39.1811 87.0377 38.568 87.0546 37.8773C87.0715 37.1865 87.2368 36.5807 87.5504 36.0598C87.8721 35.5391 88.3006 35.1431 88.8358 34.8716C89.3712 34.5919 89.9639 34.4601 90.614 34.476C91.2642 34.4919 91.8498 34.6526 92.3708 34.9581C92.8921 35.2554 93.2966 35.6719 93.5844 36.2075C93.8803 36.7433 94.0197 37.3566 94.0028 38.0473C93.9859 38.7381 93.8125 39.3437 93.4827 39.8642C93.1609 40.3848 92.7283 40.7849 92.1848 41.0643C91.6496 41.3358 91.0529 41.4635 90.3946 41.4474ZM90.431 39.9602C90.7398 39.9678 91.0301 39.9017 91.3019 39.762C91.582 39.6144 91.807 39.3922 91.9768 39.0955C92.1467 38.7988 92.237 38.4351 92.2475 38.0044C92.2632 37.3624 92.1046 36.8665 91.7716 36.5168C91.447 36.1592 91.0409 35.9745 90.5533 35.9625C90.0657 35.9506 89.651 36.1153 89.3093 36.4566C88.9758 36.7899 88.8013 37.2776 88.7856 37.9196C88.7699 38.5616 88.9162 39.0612 89.2246 39.4184C89.5413 39.7677 89.9434 39.9483 90.431 39.9602ZM99.082 34.6954C99.8865 34.7151 100.53 34.987 101.014 35.5111C101.497 36.0271 101.728 36.7402 101.705 37.6504L101.608 41.6121L99.9017 41.5703L99.993 37.8402C100.006 37.3039 99.8821 36.8902 99.6209 36.5992C99.3599 36.3001 98.9977 36.1448 98.5345 36.1335C98.0632 36.122 97.6858 36.2591 97.4023 36.5449C97.1272 36.8228 96.983 37.2299 96.9699 37.7662L96.8786 41.4963L95.172 41.4546L95.3373 34.7014L97.0439 34.7431L97.0233 35.5842C97.258 35.2972 97.5521 35.0768 97.9055 34.9228C98.2673 34.7609 98.6594 34.6851 99.082 34.6954ZM112.134 33.3561L112.101 34.7335L109.833 34.678L109.659 41.8091L107.952 41.7674L108.127 34.6363L105.859 34.5808L105.893 33.2033L112.134 33.3561ZM114.222 34.3585C113.921 34.3512 113.671 34.2516 113.473 34.0597C113.282 33.8599 113.191 33.6177 113.198 33.3333C113.205 33.0489 113.308 32.8156 113.508 32.6335C113.716 32.4434 113.97 32.352 114.271 32.3594C114.571 32.3668 114.817 32.4703 115.007 32.6702C115.206 32.862 115.301 33.1002 115.294 33.3846C115.287 33.6691 115.18 33.9063 114.972 34.0964C114.772 34.2785 114.522 34.3659 114.222 34.3585ZM115.043 35.1837L114.878 41.9369L113.171 41.8951L113.336 35.1419L115.043 35.1837ZM118.682 36.6754L118.602 39.9423C118.596 40.1698 118.645 40.3377 118.748 40.446C118.859 40.5463 119.045 40.5996 119.305 40.606L120.098 40.6254L120.062 42.0638L118.99 42.0375C117.551 42.0023 116.849 41.2858 116.883 39.888L116.963 36.6333L116.158 36.6136L116.193 35.2118L116.997 35.2315L117.038 33.5615L118.757 33.6035L118.716 35.2736L120.228 35.3106L120.193 36.7124L118.682 36.6754ZM123.217 33.115L122.996 42.1356L121.29 42.0938L121.511 33.0733L123.217 33.115ZM131.047 38.8076C131.041 39.0514 131.019 39.2704 130.982 39.4647L126.045 39.3438C126.073 39.8324 126.235 40.2186 126.529 40.5022C126.823 40.7859 127.189 40.9331 127.628 40.9438C128.262 40.9593 128.719 40.6981 129.001 40.1602L130.842 40.2053C130.631 40.8506 130.244 41.3778 129.681 41.7869C129.118 42.1878 128.434 42.3784 127.63 42.3588C126.98 42.3428 126.398 42.1863 125.885 41.8891C125.38 41.5841 124.988 41.1638 124.708 40.6284C124.437 40.0932 124.309 39.4803 124.326 38.7895C124.343 38.0906 124.501 37.4805 124.798 36.9593C125.095 36.438 125.504 36.0414 126.022 35.7695C126.541 35.4976 127.134 35.3698 127.8 35.3861C128.442 35.4018 129.012 35.554 129.509 35.8427C130.014 36.1315 130.399 36.5353 130.663 37.054C130.935 37.5648 131.063 38.1494 131.047 38.8076ZM129.291 38.2768C129.294 37.8377 129.144 37.4844 128.841 37.2168C128.539 36.9411 128.164 36.7977 127.717 36.7868C127.295 36.7764 126.934 36.8977 126.635 37.1506C126.345 37.3956 126.161 37.7448 126.085 38.1983L129.291 38.2768Z" fill="#8094AE"/>
<path d="M6.61562 62.9413C7.33617 62.959 7.95544 63.1101 8.4734 63.3947C8.99784 63.6732 9.39301 64.0655 9.65889 64.5716C9.9311 65.0779 10.0589 65.6692 10.0424 66.3455C10.0258 67.0219 9.86922 67.6062 9.57257 68.0986C9.28239 68.5848 8.86859 68.9541 8.33115 69.2066C7.80019 69.4529 7.17443 69.5672 6.45388 69.5496L4.39649 69.4992L4.55823 62.891L6.61562 62.9413ZM6.47128 68.8385C7.32457 68.8594 7.98109 68.651 8.44085 68.2132C8.90075 67.7691 9.14069 67.1393 9.16064 66.324C9.18075 65.5023 8.96891 64.8552 8.52512 64.3826C8.08764 63.9102 7.44542 63.6637 6.59844 63.6429L5.40383 63.6137L5.27667 68.8093L6.47128 68.8385ZM15.9088 66.9824C15.9048 67.1468 15.8911 67.3204 15.8676 67.5032L11.715 67.4016C11.734 67.9143 11.898 68.3199 12.2069 68.6184C12.5223 68.9107 12.9076 69.0625 13.3627 69.0736C13.7356 69.0827 14.0474 69.005 14.2981 68.8404C14.5552 68.6696 14.7379 68.44 14.8462 68.1518L15.7753 68.1745C15.624 68.6704 15.336 69.0713 14.9111 69.3771C14.4863 69.6766 13.9642 69.8188 13.3448 69.8036C12.8518 69.7916 12.412 69.6701 12.0256 69.4393C11.6454 69.2087 11.3497 68.8884 11.1384 68.4784C10.9272 68.0622 10.8282 67.5854 10.8413 67.0481C10.8545 66.5109 10.9735 66.0426 11.1983 65.6434C11.4231 65.2441 11.7309 64.9417 12.1217 64.7363C12.519 64.5246 12.9705 64.425 13.4761 64.4374C13.9691 64.4494 14.4026 64.5676 14.7766 64.7918C15.1506 65.0159 15.4341 65.3201 15.6271 65.7043C15.8265 66.0823 15.9205 66.5084 15.9088 66.9824ZM15.022 66.7805C15.0301 66.4518 14.9643 66.1688 14.8246 65.9313C14.6851 65.6876 14.4904 65.5026 14.2406 65.3763C13.9971 65.2439 13.7237 65.1739 13.4203 65.1665C12.9842 65.1558 12.6079 65.2857 12.2914 65.5563C11.9812 65.827 11.7979 66.2083 11.7416 66.7002L15.022 66.7805ZM18.8165 69.9376C18.4183 69.9278 18.0628 69.8527 17.75 69.7122C17.4373 69.5655 17.1923 69.3697 17.0149 69.125C16.8376 68.8741 16.7434 68.5903 16.7322 68.2738L17.6234 68.2956C17.6423 68.5554 17.7572 68.7701 17.9681 68.9397C18.1853 69.1094 18.4709 69.1986 18.8248 69.2073C19.1535 69.2153 19.4144 69.149 19.6076 69.0083C19.8008 68.8675 19.9001 68.6865 19.9055 68.4653C19.9111 68.2378 19.8141 68.0678 19.6144 67.9554C19.4149 67.8367 19.1048 67.7184 18.6839 67.6006C18.3008 67.49 17.9873 67.3812 17.7432 67.274C17.5057 67.1607 17.3009 67.0007 17.1289 66.7941C16.9633 66.5813 16.8846 66.3075 16.8928 65.9725C16.8993 65.707 16.9843 65.4656 17.1477 65.2482C17.3112 65.0309 17.5398 64.8625 17.8336 64.7433C18.1276 64.6176 18.4611 64.5594 18.834 64.5685C19.4092 64.5826 19.8702 64.7393 20.2171 65.0388C20.5639 65.3382 20.7438 65.741 20.7567 66.2473L19.8939 66.2262C19.8816 65.9539 19.7763 65.7331 19.5781 65.5639C19.3862 65.3947 19.1227 65.3061 18.7877 65.2979C18.478 65.2903 18.2299 65.3506 18.0433 65.4789C17.8568 65.6071 17.7609 65.7787 17.7556 65.9936C17.7514 66.1642 17.8017 66.3078 17.9063 66.4242C18.0175 66.5344 18.1544 66.6263 18.317 66.6999C18.4861 66.7672 18.7182 66.8457 19.0133 66.9351C19.3837 67.0454 19.6846 67.1539 19.916 67.2608C20.1476 67.3613 20.3431 67.5115 20.5027 67.7115C20.6685 67.9116 20.7507 68.1698 20.7493 68.486C20.7424 68.7704 20.6571 69.0245 20.4935 69.2481C20.3299 69.4718 20.1011 69.6465 19.8071 69.7721C19.5196 69.8915 19.1894 69.9467 18.8165 69.9376ZM21.6742 67.3133C21.6873 66.776 21.8062 66.3109 22.0309 65.918C22.2557 65.5187 22.5604 65.2131 22.945 65.0012C23.336 64.7894 23.778 64.6895 24.271 64.7016C24.9094 64.7172 25.4302 64.8849 25.8335 65.2047C26.2431 65.5246 26.5075 65.9611 26.6268 66.5143L25.6977 66.4915C25.6169 66.1733 25.4492 65.9194 25.1945 65.7298C24.9462 65.5403 24.6324 65.4409 24.2532 65.4316C23.7601 65.4196 23.3578 65.5805 23.046 65.9144C22.7344 66.2419 22.5711 66.7154 22.5559 67.3349C22.5406 67.9606 22.6804 68.4479 22.9755 68.7966C23.2705 69.1453 23.6645 69.3257 24.1576 69.3378C24.5368 69.3471 24.855 69.2663 25.1122 69.0955C25.3693 68.9248 25.5493 68.6762 25.6522 68.3498L26.5813 68.3726C26.4293 68.9001 26.1407 69.3199 25.7157 69.6321C25.2908 69.9379 24.7654 70.0832 24.1397 70.0679C23.6467 70.0558 23.2101 69.9344 22.8299 69.7038C22.4561 69.4733 22.1667 69.1531 21.9617 68.7433C21.7567 68.3335 21.6609 67.8569 21.6742 67.3133ZM28.661 65.7387C28.8199 65.4454 29.0405 65.2199 29.3226 65.0624C29.6111 64.905 29.9576 64.8313 30.3621 64.8412L30.3403 65.7324L30.1127 65.7268C29.1457 65.7032 28.6493 66.2159 28.6236 67.2652L28.5545 70.0905L27.6917 70.0694L27.8188 64.8738L28.6816 64.8949L28.661 65.7387ZM31.822 64.1275C31.6576 64.1234 31.52 64.0632 31.409 63.9466C31.298 63.83 31.2445 63.6896 31.2485 63.5253C31.2526 63.3609 31.3129 63.2233 31.4294 63.1123C31.546 63.0013 31.6864 62.9478 31.8508 62.9518C32.0088 62.9557 32.1401 63.0158 32.2448 63.1322C32.3558 63.2488 32.4093 63.3892 32.4052 63.5536C32.4012 63.7179 32.3409 63.8556 32.2244 63.9666C32.1141 64.0777 31.98 64.1313 31.822 64.1275ZM32.2185 64.9815L32.0913 70.1771L31.2286 70.156L31.3557 64.9604L32.2185 64.9815ZM34.5283 65.9962C34.7062 65.7033 34.9651 65.463 35.3049 65.2752C35.6511 65.0813 36.0486 64.9899 36.4974 65.0008C36.9588 65.0121 37.3733 65.133 37.7408 65.3633C38.1146 65.5938 38.404 65.914 38.609 66.3237C38.8142 66.7272 38.9103 67.1944 38.8973 67.7253C38.8844 68.25 38.7655 68.7151 38.5406 69.1206C38.3156 69.5262 38.0107 69.8382 37.6259 70.0564C37.2474 70.2748 36.8275 70.3784 36.3661 70.3671C35.9236 70.3563 35.5341 70.2487 35.1976 70.0444C34.8676 69.834 34.6177 69.578 34.448 69.2766L34.3642 72.6993L33.5014 72.6782L33.6889 65.0175L34.5517 65.0386L34.5283 65.9962ZM38.0155 67.7038C38.0251 67.3119 37.9545 66.9686 37.8036 66.674C37.6527 66.3794 37.4432 66.1529 37.1751 65.9946C36.9134 65.8364 36.6213 65.7533 36.2989 65.7454C35.9829 65.7377 35.6871 65.8095 35.4114 65.9609C35.1422 66.1061 34.9218 66.3252 34.7502 66.6182C34.5851 66.9051 34.4978 67.2414 34.4884 67.6269C34.4788 68.0188 34.5493 68.3652 34.7001 68.6661C34.8573 68.9609 35.0667 69.1906 35.3283 69.3551C35.5964 69.5134 35.8885 69.5965 36.2045 69.6042C36.5269 69.6121 36.8226 69.5434 37.0918 69.3982C37.3675 69.2469 37.5879 69.0278 37.753 68.7409C37.9183 68.4477 38.0058 68.102 38.0155 67.7038ZM41.131 65.9111L41.0561 68.9735C41.0499 69.2263 41.0992 69.4078 41.204 69.5179C41.309 69.6216 41.4942 69.6768 41.7597 69.6833L42.3949 69.6988L42.3771 70.4288L41.5996 70.4098C41.1192 70.3981 40.7617 70.2786 40.5269 70.0515C40.2921 69.8244 40.1809 69.458 40.1933 68.9524L40.2683 65.89L39.5951 65.8735L39.6125 65.1625L40.2857 65.1789L40.3177 63.8706L41.1805 63.8917L41.1484 65.2001L42.5042 65.2332L42.4868 65.9443L41.131 65.9111ZM44.0158 64.4259C43.8515 64.4219 43.7138 64.3616 43.6029 64.245C43.4919 64.1285 43.4384 63.988 43.4424 63.8237C43.4464 63.6594 43.5067 63.5217 43.6233 63.4107C43.7398 63.2997 43.8803 63.2462 44.0446 63.2503C44.2026 63.2541 44.334 63.3143 44.4386 63.4307C44.5496 63.5472 44.6031 63.6877 44.5991 63.852C44.5951 64.0164 44.5348 64.154 44.4182 64.265C44.308 64.3761 44.1739 64.4298 44.0158 64.4259ZM44.4124 65.2799L44.2852 70.4755L43.4224 70.4544L43.5496 65.2588L44.4124 65.2799ZM48.0195 70.6523C47.5328 70.6404 47.0931 70.519 46.7003 70.288C46.3138 70.0572 46.0118 69.7367 45.7941 69.3266C45.583 68.9104 45.484 68.4336 45.4971 67.8964C45.5101 67.3654 45.6353 66.9005 45.8728 66.5015C46.1167 66.0964 46.4404 65.7913 46.8438 65.5861C47.2475 65.3746 47.6958 65.2749 48.1888 65.287C48.6818 65.2991 49.1247 65.4206 49.5175 65.6515C49.9104 65.8762 50.2157 66.1936 50.4334 66.6037C50.6573 67.0139 50.7627 67.4877 50.7496 68.0249C50.7364 68.5622 50.6047 69.0333 50.3545 69.4383C50.1107 69.8371 49.7839 70.1421 49.3739 70.3534C48.964 70.5648 48.5125 70.6644 48.0195 70.6523ZM48.0381 69.8938C48.3478 69.9014 48.6403 69.8358 48.9157 69.6971C49.191 69.5584 49.4144 69.3457 49.5859 69.0589C49.7637 68.7724 49.8576 68.4205 49.8679 68.0033C49.8781 67.5862 49.8046 67.2302 49.6473 66.9354C49.4901 66.6407 49.2805 66.4205 49.0184 66.2749C48.7565 66.1231 48.4707 66.0433 48.161 66.0358C47.8449 66.028 47.5524 66.0936 47.2834 66.2325C47.0208 66.3652 46.807 66.575 46.6419 66.8619C46.4767 67.1487 46.389 67.5008 46.3788 67.9179C46.3685 68.3414 46.4356 68.7004 46.5802 68.9949C46.7311 69.2895 46.9343 69.5127 47.1899 69.6644C47.4456 69.8098 47.7284 69.8863 48.0381 69.8938ZM54.4811 65.4315C55.1132 65.447 55.6204 65.6523 56.0029 66.0474C56.3855 66.4363 56.5679 66.991 56.5503 67.7115L56.4754 70.7739L55.6221 70.753L55.694 67.8139C55.7067 67.2956 55.5868 66.8974 55.3343 66.6193C55.0819 66.3348 54.7314 66.1871 54.2826 66.1761C53.8275 66.165 53.4606 66.2983 53.1819 66.5761C52.9094 66.854 52.7666 67.2647 52.7533 67.8083L52.6829 70.6811L51.8202 70.66L51.9473 65.4644L52.8101 65.4855L52.792 66.225C52.9692 65.9637 53.2049 65.7639 53.4992 65.6257C53.7998 65.4876 54.1271 65.4228 54.4811 65.4315ZM62.5878 72.688C61.9955 72.079 61.5399 71.3121 61.2211 70.3873C60.9085 69.4626 60.7652 68.4693 60.7912 67.4074C60.8178 66.3202 61.0196 65.3101 61.3966 64.377C61.7801 63.4377 62.3112 62.6696 62.9899 62.0728L63.8906 62.0948L63.8885 62.1801C63.1643 62.8265 62.6106 63.613 62.2275 64.5396C61.8508 65.4601 61.6501 66.4228 61.6255 67.4278C61.6015 68.4075 61.7462 69.3471 62.0593 70.2465C62.3788 71.1461 62.8559 71.9388 63.4905 72.6247L63.4885 72.7101L62.5878 72.688ZM66.9816 71.1164C66.4949 71.1045 66.0551 70.9831 65.6624 70.7521C65.2759 70.5213 64.9738 70.2008 64.7562 69.7907C64.545 69.3745 64.446 68.8977 64.4592 68.3605C64.4722 67.8295 64.5974 67.3646 64.8348 66.9656C65.0787 66.5605 65.4024 66.2554 65.8059 66.0502C66.2095 65.8387 66.6578 65.739 67.1508 65.7511C67.6439 65.7632 68.0868 65.8847 68.4796 66.1156C68.8725 66.3403 69.1778 66.6577 69.3954 67.0678C69.6194 67.478 69.7248 67.9518 69.7117 68.489C69.6985 69.0263 69.5668 69.4974 69.3166 69.9024C69.0728 70.3012 68.746 70.6062 68.336 70.8175C67.9261 71.0289 67.4746 71.1285 66.9816 71.1164ZM67.0001 70.3579C67.3099 70.3655 67.6024 70.3 67.8777 70.1612C68.1531 70.0225 68.3765 69.8098 68.5479 69.523C68.7257 69.2365 68.8197 68.8846 68.8299 68.4674C68.8401 68.0503 68.7666 67.6943 68.6094 67.3995C68.4522 67.1048 68.2425 66.8846 67.9805 66.739C67.7186 66.5872 67.4327 66.5074 67.123 66.4999C66.807 66.4921 66.5145 66.5577 66.2454 66.6966C65.9829 66.8293 65.769 67.0391 65.6039 67.326C65.4388 67.6129 65.3511 67.9649 65.3409 68.382C65.3305 68.8055 65.3976 69.1645 65.5422 69.459C65.6931 69.7536 65.8964 69.9768 66.152 70.1285C66.4077 70.2739 66.6904 70.3504 67.0001 70.3579ZM71.7487 66.9072C71.9267 66.6143 72.1855 66.374 72.5253 66.1862C72.8716 65.9923 73.2691 65.9008 73.7179 65.9118C74.1793 65.9231 74.5937 66.0439 74.9612 66.2743C75.3351 66.5048 75.6245 66.8249 75.8295 67.2347C76.0346 67.6382 76.1307 68.1054 76.1177 68.6363C76.1049 69.1609 75.986 69.626 75.761 70.0316C75.5361 70.4372 75.2312 70.7491 74.8464 70.9674C74.4679 71.1858 74.0479 71.2894 73.5865 71.2781C73.1441 71.2673 72.7546 71.1597 72.4181 70.9554C72.088 70.7449 71.8382 70.489 71.6684 70.1876L71.5847 73.6103L70.7219 73.5891L70.9094 65.9285L71.7722 65.9496L71.7487 66.9072ZM75.236 68.6147C75.2456 68.2229 75.1749 67.8796 75.024 67.585C74.8731 67.2904 74.6636 67.0639 74.3956 66.9055C74.1338 66.7473 73.8418 66.6643 73.5194 66.6564C73.2034 66.6487 72.9075 66.7205 72.6319 66.8719C72.3627 67.0171 72.1423 67.2362 71.9707 67.5292C71.8055 67.8161 71.7183 68.1523 71.7088 68.5379C71.6992 68.9298 71.7698 69.2762 71.9206 69.5771C72.0778 69.8719 72.2872 70.1016 72.5488 70.2661C72.8169 70.4244 73.1089 70.5075 73.425 70.5152C73.7473 70.5231 74.0431 70.4544 74.3123 70.3092C74.5879 70.1579 74.8083 69.9387 74.9734 69.6519C75.1387 69.3587 75.2263 69.0129 75.236 68.6147ZM78.3515 66.8221L78.2765 69.8845C78.2703 70.1373 78.3197 70.3188 78.4245 70.4289C78.5295 70.5326 78.7147 70.5877 78.9802 70.5942L79.6154 70.6098L79.5975 71.3398L78.8201 71.3208C78.3397 71.309 77.9821 71.1896 77.7474 70.9625C77.5126 70.7354 77.4014 70.369 77.4138 69.8634L77.4887 66.801L76.8156 66.7845L76.833 66.0734L77.5061 66.0899L77.5381 64.7815L78.4009 64.8027L78.3689 66.111L79.7247 66.1442L79.7073 66.8553L78.3515 66.8221ZM81.2363 65.3369C81.072 65.3329 80.9343 65.2726 80.8233 65.156C80.7123 65.0395 80.6588 64.899 80.6629 64.7347C80.6669 64.5704 80.7272 64.4327 80.8437 64.3217C80.9603 64.2107 81.1007 64.1572 81.2651 64.1613C81.4231 64.1651 81.5544 64.2253 81.6591 64.3417C81.7701 64.4582 81.8236 64.5987 81.8196 64.763C81.8155 64.9273 81.7552 65.065 81.6387 65.176C81.5284 65.2871 81.3943 65.3408 81.2363 65.3369ZM81.6328 66.1909L81.5056 71.3865L80.6429 71.3654L80.77 66.1698L81.6328 66.1909ZM85.24 71.5633C84.7533 71.5514 84.3135 71.43 83.9208 71.199C83.5343 70.9682 83.2322 70.6477 83.0146 70.2376C82.8034 69.8214 82.7044 69.3446 82.7176 68.8073C82.7306 68.2764 82.8558 67.8115 83.0932 67.4125C83.3371 67.0074 83.6608 66.7022 84.0643 66.4971C84.4679 66.2856 84.9162 66.1859 85.4092 66.198C85.9023 66.21 86.3452 66.3316 86.7379 66.5625C87.1309 66.7872 87.4362 67.1045 87.6538 67.5146C87.8778 67.9249 87.9832 68.3986 87.9701 68.9359C87.9569 69.4732 87.8252 69.9443 87.575 70.3492C87.3312 70.748 87.0043 71.0531 86.5944 71.2644C86.1845 71.4757 85.733 71.5754 85.24 71.5633ZM85.2585 70.8048C85.5683 70.8124 85.8608 70.7468 86.1361 70.6081C86.4115 70.4694 86.6349 70.2567 86.8063 69.9699C86.9841 69.6834 87.0781 69.3315 87.0883 68.9143C87.0985 68.4972 87.025 68.1412 86.8678 67.8464C86.7106 67.5516 86.5009 67.3315 86.2389 67.1859C85.977 67.034 85.6911 66.9543 85.3814 66.9467C85.0654 66.939 84.7729 67.0046 84.5038 67.1435C84.2413 67.2762 84.0274 67.486 83.8623 67.7729C83.6972 68.0597 83.6095 68.4118 83.5993 68.8289C83.5889 69.2524 83.656 69.6114 83.8006 69.9059C83.9515 70.2005 84.1548 70.4236 84.4104 70.5754C84.6661 70.7208 84.9488 70.7972 85.2585 70.8048ZM91.7015 66.3425C92.3336 66.358 92.8409 66.5633 93.2233 66.9584C93.6059 67.3473 93.7884 67.902 93.7708 68.6225L93.6958 71.6849L92.8425 71.664L92.9145 68.7249C92.9271 68.2066 92.8072 67.8084 92.5547 67.5302C92.3024 67.2458 91.9518 67.0981 91.5031 67.0871C91.048 67.0759 90.6811 67.2093 90.4023 67.487C90.1299 67.765 89.987 68.1757 89.9737 68.7193L89.9034 71.5921L89.0406 71.571L89.1678 66.3753L90.0306 66.3965L90.0125 67.136C90.1896 66.8747 90.4254 66.6749 90.7197 66.5367C91.0203 66.3986 91.3476 66.3338 91.7015 66.3425ZM94.8468 69.0947C94.8598 68.5638 94.9787 68.1019 95.2033 67.7089C95.4281 67.3096 95.7297 67.004 96.108 66.7919C96.4927 66.5799 96.9157 66.4796 97.3771 66.4909C97.8322 66.502 98.2249 66.6097 98.5551 66.8138C98.8853 67.018 99.1289 67.2706 99.286 67.5717L99.3092 66.6236L100.181 66.6449L100.054 71.8405L99.182 71.8192L99.2057 70.8521C99.0276 71.1513 98.7654 71.3979 98.4191 71.5918C98.0794 71.7795 97.6851 71.8679 97.2363 71.8569C96.7749 71.8456 96.3605 71.7216 95.9932 71.485C95.6258 71.2483 95.3397 70.9219 95.1349 70.5058C94.93 70.0897 94.834 69.6193 94.8468 69.0947ZM99.2458 69.2119C99.2554 68.82 99.1848 68.4767 99.0339 68.1821C98.883 67.8875 98.6735 67.661 98.4054 67.5027C98.1438 67.3382 97.8518 67.252 97.5295 67.2441C97.2071 67.2362 96.9113 67.3048 96.6421 67.45C96.373 67.5952 96.1558 67.8113 95.9907 68.0982C95.8255 68.385 95.7382 68.7244 95.7286 69.1163C95.7188 69.5145 95.7893 69.8641 95.9401 70.165C96.091 70.4596 96.2972 70.6892 96.5588 70.8537C96.8206 71.0119 97.1127 71.095 97.435 71.1029C97.7574 71.1107 98.0531 71.0421 98.3223 70.8969C98.598 70.7455 98.8184 70.5264 98.9835 70.2395C99.1488 69.9463 99.2362 69.6038 99.2458 69.2119ZM102.547 64.8814L102.375 71.8973L101.512 71.8762L101.684 64.8602L102.547 64.8814ZM103.527 73.69L103.529 73.6047C104.197 72.9507 104.709 72.1821 105.066 71.2991C105.429 70.4162 105.623 69.485 105.646 68.5053C105.671 67.5003 105.515 66.5288 105.177 65.5908C104.846 64.6467 104.335 63.8341 103.643 63.1531L103.645 63.0678L104.546 63.0899C105.194 63.7192 105.684 64.5123 106.015 65.469C106.352 66.4196 106.507 67.4385 106.481 68.5257C106.455 69.5875 106.26 70.5726 105.896 71.4807C105.539 72.389 105.049 73.1328 104.428 73.7121L103.527 73.69Z" fill="#8094AE"/>
<rect x="-7.49194" y="96.2336" width="398.021" height="36" rx="2.37097" transform="rotate(1.40206 -7.49194 96.2336)" fill="white"/>
<rect x="-7.49194" y="96.2336" width="398.021" height="36" rx="2.37097" transform="rotate(1.40206 -7.49194 96.2336)" stroke="#F2F4F7" stroke-width="0.677419"/>
<path d="M7.46251 110.494L7.44534 111.196L5.64394 111.152L5.49937 117.059L4.6366 117.037L4.78117 111.131L2.97029 111.086L2.98746 110.385L7.46251 110.494ZM12.965 112.043L9.64923 119.608L8.75801 119.586L9.84322 117.108L7.87369 111.918L8.83127 111.941L10.359 116.191L12.0738 112.021L12.965 112.043ZM14.6716 113.043C14.8496 112.75 15.1084 112.509 15.4482 112.322C15.7945 112.128 16.192 112.036 16.6408 112.047C17.1022 112.059 17.5166 112.179 17.8841 112.41C18.258 112.64 18.5474 112.96 18.7524 113.37C18.9575 113.774 19.0536 114.241 19.0406 114.772C19.0278 115.296 18.9089 115.761 18.6839 116.167C18.459 116.573 18.1541 116.885 17.7693 117.103C17.3908 117.321 16.9708 117.425 16.5094 117.413C16.067 117.403 15.6775 117.295 15.341 117.091C15.0109 116.88 14.761 116.624 14.5913 116.323L14.5076 119.746L13.6448 119.725L13.8323 112.064L14.6951 112.085L14.6716 113.043ZM18.1589 114.75C18.1685 114.358 18.0978 114.015 17.9469 113.72C17.796 113.426 17.5865 113.199 17.3185 113.041C17.0567 112.883 16.7647 112.8 16.4423 112.792C16.1263 112.784 15.8304 112.856 15.5548 113.007C15.2856 113.152 15.0652 113.372 14.8936 113.665C14.7284 113.952 14.6412 114.288 14.6317 114.673C14.6221 115.065 14.6927 115.412 14.8435 115.713C15.0007 116.007 15.2101 116.237 15.4717 116.401C15.7398 116.56 16.0318 116.643 16.3479 116.651C16.6702 116.658 16.966 116.59 17.2352 116.445C17.5108 116.293 17.7312 116.074 17.8963 115.787C18.0616 115.494 18.1491 115.148 18.1589 114.75ZM24.9212 114.735C24.9172 114.9 24.9034 115.073 24.88 115.256L20.7273 115.155C20.7464 115.667 20.9104 116.073 21.2193 116.371C21.5347 116.664 21.9199 116.815 22.375 116.827C22.7479 116.836 23.0597 116.758 23.3104 116.593C23.5676 116.423 23.7503 116.193 23.8585 115.905L24.7877 115.927C24.6364 116.423 24.3483 116.824 23.9234 117.13C23.4987 117.43 22.9766 117.572 22.3571 117.557C21.8641 117.545 21.4244 117.423 21.0379 117.192C20.6578 116.962 20.362 116.641 20.1507 116.231C19.9396 115.815 19.8405 115.338 19.8537 114.801C19.8668 114.264 19.9858 113.796 20.2106 113.396C20.4354 112.997 20.7432 112.695 21.1341 112.489C21.5314 112.278 21.9828 112.178 22.4885 112.19C22.9815 112.202 23.415 112.321 23.789 112.545C24.163 112.769 24.4464 113.073 24.6394 113.457C24.8389 113.835 24.9328 114.261 24.9212 114.735ZM24.0344 114.533C24.0424 114.205 23.9766 113.922 23.837 113.684C23.6975 113.441 23.5028 113.256 23.2529 113.129C23.0095 112.997 22.7361 112.927 22.4327 112.919C21.9966 112.909 21.6202 113.039 21.3037 113.309C20.9935 113.58 20.8103 113.961 20.754 114.453L24.0344 114.533ZM33.1215 112.536L29.8057 120.101L28.9145 120.079L29.9997 117.601L28.0301 112.411L28.9877 112.435L30.5154 116.684L32.2302 112.514L33.1215 112.536ZM36.1255 117.894C35.6388 117.882 35.199 117.76 34.8062 117.529C34.4198 117.298 34.1177 116.978 33.9001 116.568C33.6889 116.152 33.5899 115.675 33.603 115.138C33.616 114.607 33.7413 114.142 33.9787 113.743C34.2226 113.338 34.5463 113.033 34.9498 112.827C35.3534 112.616 35.8017 112.516 36.2947 112.528C36.7877 112.54 37.2306 112.662 37.6234 112.893C38.0164 113.117 38.3217 113.435 38.5393 113.845C38.7633 114.255 38.8687 114.729 38.8555 115.266C38.8424 115.803 38.7107 116.275 38.4604 116.68C38.2167 117.078 37.8898 117.383 37.4799 117.595C37.0699 117.806 36.6185 117.906 36.1255 117.894ZM36.144 117.135C36.4537 117.143 36.7463 117.077 37.0216 116.938C37.297 116.8 37.5204 116.587 37.6918 116.3C37.8696 116.014 37.9636 115.662 37.9738 115.245C37.984 114.827 37.9105 114.471 37.7533 114.177C37.5961 113.882 37.3864 113.662 37.1243 113.516C36.8624 113.364 36.5766 113.285 36.2669 113.277C35.9509 113.269 35.6583 113.335 35.3893 113.474C35.1268 113.606 34.9129 113.816 34.7478 114.103C34.5827 114.39 34.495 114.742 34.4848 115.159C34.4744 115.583 34.5415 115.942 34.6861 116.236C34.837 116.531 35.0402 116.754 35.2958 116.906C35.5516 117.051 35.8343 117.128 36.144 117.135ZM44.6611 112.818L44.5339 118.014L43.6711 117.993L43.6899 117.225C43.5191 117.486 43.2833 117.689 42.9825 117.834C42.6882 117.972 42.364 118.037 42.0101 118.028C41.6056 118.018 41.2441 117.927 40.9258 117.755C40.6076 117.576 40.3578 117.317 40.1764 116.978C40.0013 116.638 39.9196 116.228 39.9314 115.748L40.0059 112.704L40.8592 112.725L40.7875 115.655C40.7749 116.167 40.8948 116.565 41.1472 116.85C41.3997 117.128 41.7503 117.272 42.1991 117.283C42.6605 117.295 43.0274 117.161 43.2998 116.883C43.5723 116.605 43.7151 116.195 43.7284 115.651L43.7983 112.797L44.6611 112.818ZM46.9599 113.719C47.1189 113.426 47.3394 113.2 47.6216 113.043C47.91 112.885 48.2565 112.812 48.661 112.821L48.6392 113.713L48.4117 113.707C47.4446 113.683 46.9482 114.196 46.9226 115.245L46.8534 118.071L45.9906 118.05L46.1178 112.854L46.9806 112.875L46.9599 113.719ZM55.9973 116.824L53.1151 116.754L52.5482 118.21L51.638 118.188L54.188 111.676L55.1835 111.7L57.4025 118.329L56.4923 118.307L55.9973 116.824ZM55.768 116.117L54.6551 112.75L53.3788 116.058L55.768 116.117ZM61.1047 113.126C61.7367 113.141 62.244 113.347 62.6264 113.742C63.009 114.131 63.1915 114.685 63.1739 115.406L63.0989 118.468L62.2456 118.448L62.3176 115.508C62.3303 114.99 62.2104 114.592 61.9579 114.314C61.7055 114.029 61.355 113.882 60.9062 113.871C60.4511 113.859 60.0842 113.993 59.8054 114.271C59.533 114.548 59.3901 114.959 59.3768 115.503L59.3065 118.376L58.4437 118.354L58.5709 113.159L59.4337 113.18L59.4156 113.919C59.5927 113.658 59.8285 113.458 60.1228 113.32C60.4234 113.182 60.7507 113.117 61.1047 113.126ZM66.3455 118.633C65.9473 118.623 65.5918 118.548 65.279 118.408C64.9664 118.261 64.7214 118.065 64.5439 117.821C64.3667 117.57 64.2724 117.286 64.2612 116.969L65.1524 116.991C65.1714 117.251 65.2863 117.466 65.4971 117.635C65.7144 117.805 65.9999 117.894 66.3539 117.903C66.6826 117.911 66.9435 117.845 67.1367 117.704C67.3299 117.563 67.4291 117.382 67.4346 117.161C67.4401 116.933 67.3431 116.763 67.1435 116.651C66.944 116.532 66.6338 116.414 66.213 116.296C65.8299 116.186 65.5163 116.077 65.2723 115.97C65.0347 115.856 64.8299 115.696 64.6579 115.49C64.4924 115.277 64.4137 115.003 64.4219 114.668C64.4284 114.403 64.5133 114.161 64.6768 113.944C64.8402 113.727 65.0688 113.558 65.3627 113.439C65.6567 113.313 65.9902 113.255 66.3631 113.264C66.9383 113.278 67.3993 113.435 67.7461 113.734C68.093 114.034 68.2728 114.437 68.2857 114.943L67.423 114.922C67.4106 114.65 67.3054 114.429 67.1071 114.26C66.9152 114.09 66.6518 114.002 66.3168 113.994C66.007 113.986 65.7589 114.046 65.5724 114.175C65.3858 114.303 65.2899 114.474 65.2847 114.689C65.2805 114.86 65.3307 115.003 65.4354 115.12C65.5465 115.23 65.6834 115.322 65.8461 115.396C66.0152 115.463 66.2473 115.541 66.5423 115.631C66.9128 115.741 67.2137 115.85 67.4451 115.956C67.6766 116.057 67.8722 116.207 68.0317 116.407C68.1976 116.607 68.2798 116.865 68.2784 117.182C68.2714 117.466 68.1861 117.72 68.0226 117.944C67.859 118.167 67.6302 118.342 67.3362 118.468C67.0486 118.587 66.7184 118.642 66.3455 118.633ZM76.5101 113.598L74.7616 118.754L73.8704 118.732L72.7199 114.577L71.3674 118.671L70.4762 118.649L68.9726 113.413L69.8544 113.435L70.9422 117.826L72.3384 113.496L73.2201 113.517L74.3741 117.919L75.6568 113.577L76.5101 113.598ZM82.0481 116.134C82.0441 116.298 82.0304 116.472 82.0069 116.654L77.8542 116.553C77.8733 117.065 78.0373 117.471 78.3462 117.77C78.6616 118.062 79.0468 118.214 79.5019 118.225C79.8749 118.234 80.1867 118.156 80.4373 117.992C80.6945 117.821 80.8772 117.591 80.9855 117.303L81.9146 117.326C81.7633 117.822 81.4752 118.222 81.0503 118.528C80.6256 118.828 80.1035 118.97 79.4841 118.955C78.9911 118.943 78.5513 118.821 78.1648 118.59C77.7847 118.36 77.489 118.04 77.2776 117.63C77.0665 117.213 76.9675 116.737 76.9806 116.199C76.9938 115.662 77.1127 115.194 77.3375 114.795C77.5623 114.395 77.8702 114.093 78.261 113.887C78.6583 113.676 79.1098 113.576 79.6154 113.589C80.1084 113.601 80.5419 113.719 80.9159 113.943C81.2899 114.167 81.5734 114.471 81.7663 114.855C81.9658 115.234 82.0597 115.66 82.0481 116.134ZM81.1613 115.932C81.1694 115.603 81.1036 115.32 80.9639 115.082C80.8244 114.839 80.6297 114.654 80.3798 114.527C80.1364 114.395 79.863 114.325 79.5596 114.318C79.1235 114.307 78.7472 114.437 78.4306 114.707C78.1204 114.978 77.9372 115.359 77.8809 115.851L81.1613 115.932ZM84.0878 114.628C84.2468 114.334 84.4673 114.109 84.7494 113.951C85.0379 113.794 85.3844 113.72 85.7889 113.73L85.7671 114.621L85.5395 114.616C84.5725 114.592 84.0761 115.105 84.0504 116.154L83.9813 118.979L83.1185 118.958L83.2457 113.763L84.1084 113.784L84.0878 114.628ZM86.9289 119.109C86.7646 119.105 86.6269 119.044 86.5159 118.928C86.4049 118.811 86.3515 118.671 86.3555 118.506C86.3595 118.342 86.4198 118.204 86.5364 118.093C86.6529 117.982 86.7934 117.929 86.9577 117.933C87.1157 117.937 87.2471 117.997 87.3517 118.113C87.4627 118.23 87.5162 118.37 87.5122 118.535C87.5082 118.699 87.4479 118.837 87.3313 118.948C87.2211 119.059 87.0869 119.112 86.9289 119.109ZM88.9196 119.157C88.7552 119.153 88.6176 119.093 88.5066 118.976C88.3956 118.86 88.3421 118.719 88.3461 118.555C88.3502 118.391 88.4104 118.253 88.527 118.142C88.6436 118.031 88.784 117.978 88.9483 117.982C89.1064 117.986 89.2377 118.046 89.3424 118.162C89.4534 118.279 89.5068 118.419 89.5028 118.583C89.4988 118.748 89.4385 118.885 89.3219 118.996C89.2117 119.108 89.0776 119.161 88.9196 119.157ZM90.9102 119.206C90.7459 119.202 90.6082 119.142 90.4972 119.025C90.3862 118.909 90.3328 118.768 90.3368 118.604C90.3408 118.439 90.4011 118.302 90.5176 118.191C90.6342 118.08 90.7747 118.026 90.939 118.03C91.097 118.034 91.2283 118.094 91.333 118.211C91.444 118.327 91.4975 118.468 91.4935 118.632C91.4894 118.796 91.4292 118.934 91.3126 119.045C91.2024 119.156 91.0682 119.21 90.9102 119.206Z" fill="#8094AE"/>
</svg>
