<svg width="495" height="260" viewBox="0 0 495 260" fill="none" xmlns="http://www.w3.org/2000/svg">
<rect y="11.7402" width="489.246" height="247.646" rx="10.5214" transform="rotate(-1.31645 0 11.7402)" fill="white"/>
<path d="M27.4169 41.3208L27.3818 39.7943L30.2337 39.7288L30.432 48.3554L28.7279 48.3945L28.5648 41.2944L27.4169 41.3208ZM32.9935 48.3794C32.6937 48.3863 32.4431 48.3013 32.2417 48.1243C32.048 47.9394 31.948 47.7088 31.9417 47.4327C31.9353 47.1566 32.0247 46.9256 32.2099 46.7398C32.4028 46.546 32.6491 46.4456 32.9489 46.4387C33.2408 46.432 33.4836 46.5211 33.6773 46.7061C33.8708 46.8832 33.9707 47.1098 33.977 47.3859C33.9834 47.662 33.8941 47.8969 33.7091 48.0906C33.5239 48.2764 33.2854 48.3727 32.9935 48.3794ZM36.8294 41.2821L36.877 43.353L39.6579 43.2891L39.6881 44.6026L36.9072 44.6665L36.9575 46.8557L40.0934 46.7836L40.1244 48.1326L35.3318 48.2428L35.1418 39.9712L39.9343 39.861L39.9653 41.2101L36.8294 41.2821ZM45.11 41.3641C45.891 41.3462 46.5278 41.5802 47.0205 42.0661C47.5129 42.5442 47.7693 43.225 47.7896 44.1086L47.878 47.9544L46.2213 47.9925L46.1381 44.3715C46.1261 43.8508 45.9868 43.4554 45.7201 43.1853C45.4533 42.9073 45.095 42.7734 44.6453 42.7837C44.1878 42.7943 43.8281 42.9446 43.5664 43.2348C43.3124 43.5169 43.1914 43.9182 43.2034 44.4389L43.2866 48.06L41.6299 48.098L41.4793 41.5423L43.136 41.5042L43.1547 42.3207C43.3691 42.0317 43.6441 41.8043 43.9797 41.6387C44.323 41.4651 44.6997 41.3736 45.11 41.3641ZM51.2629 42.679L51.3358 45.8504C51.3408 46.0713 51.3958 46.2318 51.5007 46.332C51.6134 46.4242 51.7959 46.4673 52.0483 46.4615L52.8175 46.4438L52.8496 47.8402L51.8083 47.8641C50.4119 47.8962 49.6982 47.2338 49.667 45.8769L49.5944 42.7174L48.8134 42.7353L48.7821 41.3745L49.5631 41.3565L49.5258 39.7353L51.1944 39.697L51.2316 41.3182L52.699 41.2845L52.7302 42.6453L51.2629 42.679ZM60.0568 44.2529C60.0623 44.4896 60.0514 44.7029 60.0242 44.893L55.2316 45.0031C55.282 45.4756 55.4561 45.8425 55.7542 46.1041C56.0523 46.3656 56.4143 46.4914 56.8403 46.4816C57.4556 46.4675 57.8874 46.1932 58.1356 45.6586L59.9224 45.6176C59.7476 46.253 59.3967 46.782 58.8697 47.2046C58.3424 47.6193 57.6883 47.8356 56.9073 47.8535C56.2762 47.868 55.705 47.743 55.1938 47.4785C54.6903 47.2059 54.2906 46.8165 53.9948 46.3102C53.7069 45.8038 53.5553 45.2153 53.5399 44.5447C53.5243 43.8663 53.6486 43.2675 53.913 42.7484C54.1773 42.2292 54.5548 41.8259 55.0455 41.5384C55.5361 41.2508 56.1049 41.0996 56.7518 41.0848C57.375 41.0704 57.9343 41.1918 58.4295 41.4488C58.9327 41.7056 59.3241 42.0794 59.6038 42.5702C59.8911 43.053 60.0421 43.6139 60.0568 44.2529ZM58.3301 43.819C58.3124 43.3932 58.1508 43.0575 57.8452 42.8119C57.5394 42.5585 57.1696 42.4367 56.7357 42.4467C56.3255 42.4561 55.9813 42.5903 55.7031 42.8493C55.4326 43.1002 55.2709 43.4473 55.2179 43.8905L58.3301 43.819ZM62.8741 42.0688C63.0791 41.7168 63.349 41.4383 63.6836 41.2333C64.0262 41.0281 64.4184 40.9204 64.8602 40.9103L64.9002 42.6498L64.4623 42.6599C63.9417 42.6718 63.55 42.8032 63.2874 43.0539C63.0327 43.3044 62.9123 43.7334 62.9263 44.3409L63.0013 47.6069L61.3447 47.645L61.194 41.0892L62.8507 41.0512L62.8741 42.0688ZM75.1354 48.7843L73.8465 47.3103C73.5014 47.4051 73.1474 47.4566 72.7845 47.465C72.0114 47.4827 71.2972 47.3176 70.642 46.9696C69.9868 46.6215 69.4625 46.1324 69.0691 45.5021C68.6756 44.8639 68.4695 44.1385 68.4508 43.3259C68.4323 42.5213 68.605 41.7951 68.969 41.1474C69.3328 40.4918 69.834 39.9751 70.4726 39.5973C71.1111 39.2196 71.817 39.0218 72.5901 39.004C73.3711 38.9861 74.0853 39.1512 74.7326 39.4994C75.3879 39.8475 75.9083 40.3407 76.2939 40.979C76.6873 41.6093 76.8932 42.3268 76.9117 43.1315C76.9286 43.8652 76.7862 44.5394 76.4846 45.1541C76.1907 45.7607 75.7799 46.2595 75.2521 46.6505L77.1944 48.737L75.1354 48.7843ZM70.1548 43.2868C70.1675 43.839 70.2851 44.3217 70.5078 44.735C70.7304 45.1482 71.0336 45.4648 71.4176 45.6849C71.8092 45.8969 72.2535 45.9972 72.7505 45.9858C73.2475 45.9744 73.6828 45.8539 74.0564 45.6243C74.4298 45.3868 74.7182 45.0565 74.9216 44.6335C75.125 44.2105 75.2204 43.7229 75.2077 43.1707C75.195 42.6184 75.0774 42.1397 74.855 41.7343C74.6324 41.3211 74.3292 41.0084 73.9455 40.7962C73.5617 40.584 73.1214 40.4836 72.6243 40.4951C72.1273 40.5065 71.6881 40.6271 71.3066 40.8568C70.933 41.0864 70.6445 41.4127 70.4411 41.8358C70.2376 42.2509 70.1421 42.7346 70.1548 43.2868ZM84.301 40.5582L84.4517 47.114L82.7832 47.1523L82.7641 46.324C82.5577 46.6129 82.2828 46.8441 81.9395 47.0178C81.6039 47.1834 81.2349 47.2708 80.8326 47.28C80.3198 47.2918 79.8637 47.1957 79.4644 46.9918C79.0649 46.78 78.7459 46.4676 78.5075 46.0548C78.2768 45.6338 78.1548 45.1315 78.1414 44.5477L78.053 40.7018L79.7097 40.6637L79.7926 44.273C79.8046 44.7936 79.944 45.193 80.2108 45.471C80.4775 45.7411 80.8357 45.871 81.2854 45.8607C81.7429 45.8502 82.0987 45.7039 82.3527 45.4218C82.6065 45.1318 82.7274 44.7265 82.7155 44.2058L82.6325 40.5966L84.301 40.5582ZM92.1019 43.5165C92.1074 43.7532 92.0965 43.9665 92.0693 44.1566L87.2767 44.2667C87.3271 44.7392 87.5012 45.1061 87.7993 45.3676C88.0974 45.6292 88.4594 45.755 88.8854 45.7452C89.5007 45.7311 89.9325 45.4568 90.1807 44.9222L91.9675 44.8811C91.7927 45.5166 91.4418 46.0456 90.9148 46.4682C90.3876 46.8828 89.7334 47.0992 88.9524 47.1171C88.3213 47.1316 87.7501 47.0066 87.2389 46.7421C86.7354 46.4695 86.3357 46.0801 86.0399 45.5738C85.752 45.0674 85.6004 44.4789 85.585 43.8083C85.5694 43.1299 85.6937 42.5311 85.9581 42.012C86.2224 41.4928 86.5999 41.0895 87.0906 40.802C87.5812 40.5144 88.15 40.3632 88.7969 40.3484C89.4201 40.334 89.9794 40.4554 90.4747 40.7124C90.9778 40.9692 91.3692 41.343 91.6489 41.8338C91.9362 42.3166 92.0873 42.8775 92.1019 43.5165ZM90.3752 43.0826C90.3575 42.6568 90.1959 42.3211 89.8903 42.0755C89.5846 41.8221 89.2147 41.7003 88.7808 41.7103C88.3706 41.7197 88.0264 41.8539 87.7482 42.1129C87.4777 42.3638 87.316 42.7109 87.263 43.1541L90.3752 43.0826ZM95.9009 46.9574C95.3644 46.9697 94.881 46.8861 94.4507 46.7066C94.0202 46.5192 93.6749 46.2627 93.4148 45.9371C93.1626 45.6114 93.0201 45.2477 92.9872 44.8459L94.6557 44.8075C94.693 45.0593 94.8201 45.2655 95.0369 45.4263C95.2616 45.5869 95.5357 45.6634 95.8591 45.656C96.1747 45.6488 96.4178 45.58 96.5885 45.4498C96.767 45.3194 96.854 45.1556 96.8495 44.9584C96.8446 44.7454 96.7305 44.5901 96.5073 44.4927C96.2917 44.3871 95.9458 44.2767 95.4696 44.1613C94.9778 44.0542 94.5726 43.9412 94.2542 43.8222C93.9436 43.7031 93.6709 43.516 93.4362 43.2609C93.2093 43.0056 93.0908 42.6571 93.0806 42.2153C93.0723 41.8524 93.1672 41.5187 93.3655 41.2142C93.5716 40.9096 93.8659 40.666 94.2485 40.4836C94.6389 40.3009 95.0985 40.2035 95.627 40.1914C96.408 40.1735 97.0358 40.3564 97.5103 40.7401C97.9846 41.116 98.2531 41.6347 98.3156 42.2963L96.73 42.3327C96.7003 42.0729 96.5851 41.8704 96.3845 41.725C96.1915 41.5716 95.9333 41.4986 95.6099 41.506C95.3101 41.5129 95.0786 41.5735 94.9155 41.6877C94.7603 41.8018 94.6849 41.9574 94.6894 42.1547C94.6945 42.3756 94.8089 42.5426 95.0325 42.6559C95.2559 42.7613 95.6017 42.8678 96.0699 42.9754C96.5459 43.0829 96.9392 43.1962 97.2498 43.3153C97.5604 43.4345 97.8292 43.6256 98.0562 43.8888C98.291 44.1438 98.4173 44.4882 98.4352 44.922C98.4439 45.3006 98.3452 45.6423 98.1391 45.947C97.9408 46.2515 97.6465 46.495 97.256 46.6776C96.8733 46.8522 96.4216 46.9455 95.9009 46.9574ZM101.648 41.5212L101.72 44.6925C101.725 44.9134 101.78 45.074 101.885 45.1742C101.998 45.2663 102.181 45.3095 102.433 45.3037L103.202 45.286L103.234 46.6823L102.193 46.7063C100.797 46.7384 100.083 46.076 100.052 44.719L99.979 41.5595L99.198 41.5775L99.1667 40.2166L99.9477 40.1987L99.9105 38.5775L101.579 38.5391L101.616 40.1603L103.084 40.1266L103.115 41.4875L101.648 41.5212ZM105.097 39.2989C104.806 39.3056 104.559 39.2205 104.357 39.0436C104.164 38.8586 104.064 38.6281 104.057 38.3519C104.051 38.0758 104.141 37.8449 104.326 37.6591C104.519 37.4652 104.761 37.3649 105.053 37.3582C105.345 37.3515 105.588 37.4406 105.781 37.6256C105.983 37.8025 106.086 38.0291 106.093 38.3052C106.099 38.5813 106.006 38.8163 105.813 39.0101C105.628 39.1959 105.389 39.2922 105.097 39.2989ZM105.932 40.0611L106.083 46.6169L104.426 46.655L104.275 40.0992L105.932 40.0611ZM110.633 46.6189C110.002 46.6334 109.431 46.5084 108.919 46.2439C108.408 45.9715 108 45.5822 107.697 45.0762C107.401 44.5699 107.245 43.9815 107.23 43.3109C107.214 42.6404 107.347 42.0453 107.627 41.5258C107.915 41.0062 108.312 40.6024 108.819 40.3145C109.325 40.0187 109.893 39.8636 110.525 39.849C111.156 39.8345 111.731 39.9634 112.25 40.2356C112.769 40.5 113.181 40.8852 113.484 41.3912C113.796 41.8971 113.96 42.4854 113.975 43.1559C113.99 43.8265 113.85 44.4217 113.554 44.9415C113.266 45.4612 112.865 45.869 112.351 46.165C111.845 46.4529 111.272 46.6042 110.633 46.6189ZM110.6 45.1752C110.899 45.1683 111.178 45.0909 111.435 44.9429C111.7 44.7868 111.908 44.561 112.059 44.2655C112.21 43.97 112.281 43.6132 112.271 43.1951C112.257 42.5718 112.08 42.0984 111.741 41.7746C111.41 41.4429 111.007 41.2824 110.534 41.2933C110.061 41.3042 109.666 41.4829 109.351 41.8296C109.043 42.1682 108.896 42.6491 108.91 43.2723C108.925 43.8955 109.089 44.3732 109.405 44.7054C109.728 45.0295 110.126 45.1861 110.6 45.1752ZM118.746 39.672C119.527 39.654 120.163 39.888 120.656 40.374C121.148 40.852 121.405 41.5328 121.425 42.4164L121.514 46.2623L119.857 46.3003L119.774 42.6793C119.762 42.1586 119.622 41.7632 119.356 41.4931C119.089 41.2151 118.731 41.0812 118.281 41.0916C117.823 41.1021 117.464 41.2524 117.202 41.5426C116.948 41.8247 116.827 42.2261 116.839 42.7467L116.922 46.3678L115.265 46.4059L115.115 39.8501L116.772 39.8121L116.79 40.6286C117.005 40.3395 117.28 40.1122 117.615 39.9466C117.959 39.7729 118.335 39.6814 118.746 39.672ZM131.34 37.7723L131.37 39.1095L129.169 39.1601L129.329 46.0827L127.672 46.1208L127.513 39.1982L125.312 39.2488L125.281 37.9116L131.34 37.7723ZM133.41 38.6483C133.118 38.655 132.871 38.5699 132.67 38.393C132.476 38.208 132.376 37.9774 132.37 37.7013C132.364 37.4252 132.453 37.1942 132.638 37.0084C132.831 36.8146 133.073 36.7143 133.365 36.7076C133.657 36.7009 133.9 36.79 134.094 36.975C134.295 37.1519 134.399 37.3784 134.405 37.6545C134.412 37.9307 134.318 38.1656 134.125 38.3595C133.94 38.5453 133.702 38.6416 133.41 38.6483ZM134.244 39.4105L134.395 45.9663L132.738 46.0043L132.588 39.4486L134.244 39.4105ZM137.841 40.6894L137.914 43.8608C137.919 44.0817 137.974 44.2422 138.079 44.3424C138.192 44.4346 138.374 44.4777 138.627 44.4719L139.396 44.4542L139.428 45.8506L138.387 45.8745C136.99 45.9066 136.277 45.2442 136.245 43.8873L136.173 40.7278L135.392 40.7457L135.36 39.3849L136.142 39.3669L136.104 37.7457L137.773 37.7074L137.81 39.3286L139.277 39.2949L139.309 40.6557L137.841 40.6894ZM142.075 37.0284L142.276 45.7851L140.62 45.8232L140.418 37.0665L142.075 37.0284ZM149.929 42.1876C149.934 42.4243 149.923 42.6376 149.896 42.8277L145.104 42.9378C145.154 43.4103 145.328 43.7772 145.626 44.0388C145.924 44.3003 146.286 44.4261 146.712 44.4164C147.328 44.4022 147.759 44.1279 148.007 43.5933L149.794 43.5523C149.619 44.1877 149.269 44.7167 148.742 45.1393C148.214 45.554 147.56 45.7703 146.779 45.7882C146.148 45.8027 145.577 45.6777 145.066 45.4132C144.562 45.1406 144.163 44.7512 143.867 44.2449C143.579 43.7385 143.427 43.15 143.412 42.4794C143.396 41.801 143.521 41.2022 143.785 40.6831C144.049 40.1639 144.427 39.7606 144.917 39.4731C145.408 39.1855 145.977 39.0343 146.624 39.0195C147.247 39.0052 147.806 39.1265 148.301 39.3835C148.805 39.6403 149.196 40.0141 149.476 40.5049C149.763 40.9877 149.914 41.5486 149.929 42.1876ZM148.202 41.7537C148.184 41.3279 148.023 40.9922 147.717 40.7466C147.411 40.4932 147.042 40.3714 146.608 40.3814C146.197 40.3908 145.853 40.525 145.575 40.784C145.304 41.0349 145.143 41.382 145.09 41.8252L148.202 41.7537Z" fill="#8094AE"/>
<rect x="447.741" y="17.5672" width="25.6459" height="25.6459" rx="4.93191" transform="rotate(-1.31645 447.741 17.5672)" fill="white"/>
<rect x="447.741" y="17.5672" width="25.6459" height="25.6459" rx="4.93191" transform="rotate(-1.31645 447.741 17.5672)" stroke="#F2F4F7" stroke-width="0.657588"/>
<path d="M456.294 32.0059C455.295 32.0288 454.468 31.2388 454.445 30.2395C454.422 29.2403 455.212 28.4131 456.211 28.3901C457.21 28.3671 458.038 29.1572 458.061 30.1564C458.084 31.1557 457.294 31.9829 456.294 32.0059ZM456.234 29.3762C455.78 29.3866 455.421 29.7633 455.431 30.2169C455.441 30.6705 455.818 31.0302 456.272 31.0198C456.725 31.0093 457.085 30.6327 457.075 30.1791C457.064 29.7255 456.687 29.3658 456.234 29.3762Z" fill="#11002A"/>
<path d="M465.497 31.7949C464.498 31.8179 463.671 31.0279 463.648 30.0286C463.625 29.0293 464.415 28.2021 465.414 28.1792C466.414 28.1562 467.241 28.9462 467.264 29.9455C467.287 30.9448 466.497 31.772 465.497 31.7949ZM465.437 29.1653C464.983 29.1757 464.624 29.5523 464.634 30.0059C464.645 30.4595 465.021 30.8192 465.475 30.8088C465.928 30.7984 466.288 30.4218 466.278 29.9682C466.267 29.5145 465.891 29.1549 465.437 29.1653Z" fill="#11002A"/>
<path d="M460.896 31.9004C459.897 31.9234 459.069 31.1333 459.046 30.1341C459.023 29.1348 459.814 28.3076 460.813 28.2846C461.812 28.2617 462.639 29.0517 462.662 30.051C462.685 31.0502 461.895 31.8774 460.896 31.9004ZM460.835 29.2707C460.382 29.2812 460.022 29.6578 460.033 30.1114C460.043 30.565 460.42 30.9247 460.873 30.9143C461.327 30.9039 461.687 30.5272 461.676 30.0736C461.666 29.62 461.289 29.2603 460.835 29.2707Z" fill="#11002A"/>
<path d="M30.3732 70.7272C31.0727 70.7111 31.6801 70.8291 32.1954 71.0813C32.7168 71.3271 33.118 71.6893 33.3991 72.1678C33.6864 72.6462 33.8375 73.2137 33.8526 73.8702C33.8677 74.5268 33.7428 75.1006 33.4778 75.5917C33.2188 76.0765 32.8346 76.4536 32.3251 76.7232C31.8216 76.9865 31.2201 77.1261 30.5206 77.1422L28.5234 77.1881L28.376 70.7731L30.3732 70.7272ZM30.5048 76.4519C31.3331 76.4329 31.9601 76.2005 32.3857 75.7549C32.8112 75.3031 33.0149 74.6814 32.9967 73.8899C32.9784 73.0922 32.7431 72.4745 32.2911 72.0368C31.8451 71.5989 31.2111 71.3893 30.3889 71.4082L29.2292 71.4349L29.3451 76.4786L30.5048 76.4519ZM39.5703 74.2177C39.5739 74.3772 39.5686 74.5462 39.5543 74.7245L35.523 74.8172C35.5651 75.3135 35.7428 75.6992 36.0561 75.9744C36.3754 76.2433 36.7559 76.3727 37.1977 76.3626C37.5597 76.3543 37.8585 76.2645 38.094 76.0933C38.3354 75.9159 38.502 75.6849 38.5937 75.4004L39.4957 75.3797C39.3718 75.8675 39.111 76.2695 38.713 76.5856C38.315 76.8956 37.8153 77.0575 37.214 77.0713C36.7354 77.0823 36.3034 76.9848 35.918 76.7787C35.5388 76.5726 35.2373 76.2756 35.0135 75.8879C34.7896 75.494 34.6717 75.0363 34.6597 74.5147C34.6477 73.9932 34.7415 73.5336 34.9411 73.1362C35.1407 72.7387 35.4252 72.4313 35.7947 72.2141C36.1702 71.9906 36.6034 71.8732 37.0943 71.8619C37.5729 71.8509 37.9986 71.9455 38.3716 72.1457C38.7445 72.3458 39.0334 72.6277 39.2382 72.9914C39.449 73.3487 39.5597 73.7575 39.5703 74.2177ZM38.7011 74.0627C38.6938 73.7436 38.6169 73.4722 38.4706 73.2484C38.3241 73.0185 38.1268 72.8481 37.8787 72.7371C37.6366 72.6199 37.3683 72.5647 37.0737 72.5715C36.6504 72.5812 36.2914 72.7245 35.997 73.0014C35.7087 73.2781 35.5485 73.6563 35.5166 74.1359L38.7011 74.0627ZM42.5257 76.9492C42.1391 76.9581 41.7909 76.9016 41.4812 76.7798C41.1713 76.6519 40.9247 76.4734 40.7414 76.2443C40.5579 76.0091 40.4535 75.7383 40.428 75.4319L41.2932 75.4121C41.3235 75.6631 41.4448 75.8659 41.6571 76.0207C41.8755 76.1753 42.1566 76.2486 42.5002 76.2407C42.8192 76.2334 43.0692 76.157 43.25 76.0117C43.4308 75.8663 43.5188 75.6863 43.5139 75.4715C43.5088 75.2506 43.4069 75.0903 43.2081 74.9905C43.0092 74.8846 42.703 74.7842 42.2895 74.6893C41.913 74.5997 41.604 74.5086 41.3624 74.4159C41.1268 74.317 40.9209 74.1713 40.7446 73.9789C40.5743 73.7802 40.4854 73.5183 40.4779 73.1931C40.472 72.9354 40.5432 72.6974 40.6917 72.4791C40.8402 72.2608 41.0541 72.0871 41.3335 71.9579C41.6128 71.8225 41.9335 71.7507 42.2955 71.7424C42.8539 71.7296 43.3081 71.8603 43.6582 72.1347C44.0083 72.409 44.2012 72.7914 44.2371 73.2817L43.3995 73.3009C43.375 73.0375 43.2628 72.8283 43.0628 72.6733C42.8689 72.5181 42.6094 72.4442 42.2842 72.4517C41.9835 72.4586 41.7457 72.5286 41.5707 72.6615C41.3957 72.7944 41.3106 72.9652 41.3154 73.1738C41.3192 73.3395 41.3746 73.4764 41.4814 73.5844C41.5943 73.6862 41.7312 73.769 41.8923 73.8328C42.0594 73.8904 42.288 73.9557 42.5783 74.0289C42.9425 74.1187 43.2393 74.2101 43.4686 74.3031C43.6977 74.3899 43.8943 74.5266 44.0582 74.7131C44.2282 74.8995 44.3198 75.1461 44.333 75.4527C44.3393 75.7288 44.2684 75.9791 44.12 76.2035C43.9717 76.4279 43.7579 76.6078 43.4786 76.7431C43.2053 76.8722 42.8877 76.9409 42.5257 76.9492ZM45.1757 74.273C45.1638 73.7515 45.2576 73.295 45.4574 72.9037C45.657 72.5062 45.9384 72.1958 46.3016 71.9726C46.6709 71.7493 47.0949 71.6321 47.5735 71.6211C48.1932 71.6069 48.706 71.7455 49.1117 72.037C49.5236 72.3283 49.8001 72.7394 49.9412 73.2703L49.0392 73.291C48.9463 72.9862 48.772 72.7477 48.5163 72.5756C48.2668 72.4033 47.958 72.3213 47.5898 72.3298C47.1112 72.3408 46.7285 72.5153 46.4415 72.8534C46.1545 73.1854 46.0179 73.6521 46.0317 74.2534C46.0457 74.8608 46.2037 75.3268 46.5058 75.6514C46.808 75.976 47.1983 76.1328 47.6769 76.1218C48.0451 76.1133 48.3499 76.0203 48.5914 75.8429C48.8329 75.6655 48.996 75.4161 49.0807 75.095L49.9827 75.0742C49.8595 75.5928 49.5991 76.0131 49.2013 76.3354C48.8034 76.6515 48.3007 76.8165 47.6932 76.8305C47.2146 76.8415 46.7857 76.7439 46.4065 76.5377C46.0334 76.3314 45.738 76.0343 45.5204 75.6464C45.3028 75.2585 45.1879 74.8007 45.1757 74.273ZM51.8779 72.4246C52.0185 72.1329 52.222 71.9041 52.4883 71.7384C52.7608 71.5725 53.0933 71.485 53.486 71.476L53.5059 72.3412L53.285 72.3463C52.3462 72.3678 51.8885 72.8879 51.9119 73.9064L51.975 76.6492L51.1374 76.6684L51.0215 71.6247L51.8591 71.6055L51.8779 72.4246ZM54.8687 70.7168C54.7092 70.7204 54.5729 70.6683 54.46 70.5604C54.347 70.4525 54.2886 70.3188 54.285 70.1592C54.2813 69.9997 54.3334 69.8634 54.4413 69.7505C54.5492 69.6375 54.683 69.5792 54.8425 69.5755C54.9959 69.572 55.126 69.6242 55.2329 69.7323C55.3459 69.8402 55.4042 69.9739 55.4078 70.1334C55.4115 70.293 55.3594 70.4292 55.2515 70.5422C55.1497 70.6551 55.0221 70.7132 54.8687 70.7168ZM55.2925 71.5266L55.4084 76.5703L54.5709 76.5895L54.455 71.5458L55.2925 71.5266ZM57.5789 72.4041C57.7379 72.1119 57.9779 71.867 58.2987 71.6693C58.6255 71.4653 59.0067 71.3584 59.4424 71.3484C59.8903 71.3381 60.2977 71.4361 60.6647 71.6426C61.0378 71.8489 61.3332 72.146 61.5508 72.5339C61.7683 72.9156 61.883 73.3642 61.8948 73.8796C61.9065 74.3889 61.8126 74.8454 61.6132 75.249C61.4137 75.6526 61.1325 75.9691 60.7694 76.1984C60.4125 76.4277 60.01 76.5474 59.5621 76.5577C59.1326 76.5676 58.75 76.4812 58.4143 76.2986C58.0846 76.1097 57.8305 75.8731 57.6521 75.5886L57.7284 78.9112L56.8909 78.9305L56.72 71.4938L57.5575 71.4745L57.5789 72.4041ZM61.0389 73.8993C61.0301 73.5189 60.9458 73.1893 60.7859 72.9106C60.626 72.6318 60.4125 72.4219 60.1453 72.2807C59.8842 72.1394 59.5972 72.0723 59.2842 72.0795C58.9774 72.0865 58.6939 72.1698 58.4336 72.3292C58.1792 72.4824 57.9756 72.705 57.8227 72.9971C57.6758 73.2829 57.6067 73.6129 57.6153 73.9872C57.624 74.3676 57.7084 74.7002 57.8684 74.9851C58.0344 75.2637 58.2481 75.4767 58.5093 75.6242C58.7765 75.7654 59.0635 75.8325 59.3703 75.8254C59.6832 75.8182 59.9669 75.738 60.2212 75.5849C60.4815 75.4254 60.6851 75.2028 60.832 74.917C60.9788 74.6251 61.0477 74.2859 61.0389 73.8993ZM63.9772 72.0177L64.0455 74.9905C64.0512 75.2359 64.1073 75.4096 64.2141 75.5115C64.3206 75.6073 64.5028 75.6522 64.7605 75.6463L65.3771 75.6321L65.3934 76.3408L64.6387 76.3582C64.1724 76.3689 63.8202 76.2695 63.5821 76.0601C63.344 75.8507 63.2193 75.5006 63.208 75.0097L63.1397 72.0369L62.4862 72.0519L62.4703 71.3616L63.1238 71.3466L63.0946 70.0765L63.9322 70.0573L63.9614 71.3274L65.2775 71.2971L65.2934 71.9874L63.9772 72.0177ZM66.706 70.4447C66.5465 70.4484 66.4103 70.3963 66.2973 70.2884C66.1843 70.1805 66.126 70.0467 66.1223 69.8872C66.1186 69.7277 66.1707 69.5914 66.2787 69.4784C66.3866 69.3655 66.5203 69.3071 66.6798 69.3035C66.8332 69.2999 66.9633 69.3522 67.0702 69.4602C67.1832 69.5682 67.2415 69.7019 67.2452 69.8614C67.2488 70.0209 67.1967 70.1572 67.0888 70.2702C66.987 70.383 66.8594 70.4412 66.706 70.4447ZM67.1298 71.2546L67.2457 76.2983L66.4082 76.3175L66.2923 71.2738L67.1298 71.2546ZM70.8748 76.2977C70.4023 76.3086 69.9704 76.2111 69.5789 76.0052C69.1935 75.7992 68.8859 75.5024 68.656 75.1148C68.432 74.7209 68.3141 74.2631 68.3021 73.7416C68.2903 73.2262 68.3903 72.7696 68.6021 72.3718C68.82 71.9678 69.1198 71.657 69.5016 71.4395C69.8832 71.2159 70.3133 71.0985 70.7919 71.0875C71.2705 71.0765 71.7055 71.174 72.097 71.3798C72.4884 71.5796 72.799 71.8733 73.0289 72.2609C73.265 72.6484 73.389 73.1029 73.401 73.6244C73.413 74.146 73.307 74.6088 73.083 75.013C72.865 75.4109 72.5621 75.7218 72.1743 75.9456C71.7866 76.1693 71.3534 76.2867 70.8748 76.2977ZM70.8579 75.5614C71.1585 75.5545 71.4392 75.4775 71.6998 75.3303C71.9604 75.1831 72.1672 74.9665 72.3202 74.6806C72.4794 74.3946 72.5544 74.0491 72.545 73.6441C72.5357 73.2391 72.4481 72.8973 72.2821 72.6188C72.116 72.3402 71.9026 72.1364 71.6418 72.0073C71.3809 71.8721 71.1001 71.8079 70.7994 71.8148C70.4926 71.8219 70.212 71.8989 69.9575 72.046C69.7091 72.1868 69.5114 72.4 69.3645 72.6858C69.2175 72.9716 69.1487 73.317 69.1581 73.7219C69.1675 74.133 69.2491 74.478 69.4028 74.7569C69.5627 75.0356 69.7701 75.2426 70.0249 75.378C70.2796 75.5072 70.5572 75.5683 70.8579 75.5614ZM76.8998 70.938C77.5134 70.9239 78.0147 71.0996 78.4037 71.4651C78.7926 71.8245 78.9951 72.354 79.0111 73.0535L79.0795 76.0263L78.2511 76.0453L78.1855 73.1922C78.174 72.689 78.0394 72.3084 77.7818 72.0504C77.524 71.7862 77.1773 71.6591 76.7416 71.6691C76.2998 71.6792 75.9502 71.8254 75.6927 72.1076C75.4413 72.3896 75.3217 72.7945 75.3338 73.3222L75.3979 76.1109L74.5604 76.1302L74.4445 71.0865L75.282 71.0672L75.2985 71.7851C75.4583 71.5236 75.6776 71.319 75.9567 71.1714C76.2418 71.0237 76.5562 70.9459 76.8998 70.938ZM85.0944 77.6009C84.4921 77.0377 84.015 76.315 83.6632 75.4329C83.3176 74.5507 83.1329 73.5942 83.1092 72.5633C83.085 71.508 83.2342 70.5192 83.5568 69.5971C83.8854 68.6686 84.3649 67.8994 84.9955 67.2895L85.8699 67.2694L85.8718 67.3522C85.1994 68.0123 84.6987 68.8004 84.3699 69.7165C84.047 70.6264 83.8968 71.5691 83.9192 72.5447C83.941 73.4958 84.1245 74.4002 84.4696 75.2578C84.8208 76.1154 85.3199 76.8621 85.9668 77.498L85.9687 77.5808L85.0944 77.6009ZM89.2824 75.8747C88.8099 75.8856 88.378 75.7881 87.9865 75.5822C87.6011 75.3762 87.2935 75.0794 87.0636 74.6917C86.8396 74.2979 86.7217 73.8401 86.7097 73.3186C86.6979 72.8032 86.7979 72.3466 87.0097 71.9488C87.2276 71.5448 87.5274 71.234 87.9092 71.0165C88.2908 70.7928 88.7209 70.6755 89.1995 70.6645C89.6781 70.6535 90.1132 70.751 90.5047 70.9568C90.896 71.1566 91.2066 71.4502 91.4366 71.8379C91.6726 72.2253 91.7966 72.6799 91.8086 73.2014C91.8206 73.723 91.7146 74.1858 91.4906 74.59C91.2726 74.9879 90.9697 75.2988 90.5819 75.5226C90.1942 75.7463 89.761 75.8637 89.2824 75.8747ZM89.2655 75.1384C89.5661 75.1315 89.8468 75.0545 90.1074 74.9073C90.368 74.7601 90.5748 74.5435 90.7278 74.2576C90.887 73.9716 90.962 73.626 90.9527 73.2211C90.9434 72.8161 90.8557 72.4743 90.6897 72.1957C90.5237 71.9172 90.3102 71.7133 90.0494 71.5843C89.7885 71.4491 89.5077 71.3849 89.207 71.3918C88.9002 71.3989 88.6196 71.4759 88.3651 71.623C88.1167 71.7637 87.919 71.977 87.7721 72.2628C87.6252 72.5486 87.5564 72.8939 87.5657 73.2989C87.5751 73.71 87.6567 74.055 87.8105 74.3339C87.9703 74.6126 88.1777 74.8196 88.4325 74.955C88.6872 75.0842 88.9648 75.1453 89.2655 75.1384ZM93.711 71.5738C93.87 71.2816 94.11 71.0367 94.4308 70.839C94.7576 70.635 95.1389 70.528 95.5745 70.518C96.0224 70.5077 96.4299 70.6058 96.7968 70.8122C97.1699 71.0185 97.4653 71.3156 97.6829 71.7035C97.9004 72.0853 98.0151 72.5339 98.0269 73.0493C98.0386 73.5586 97.9448 74.015 97.7453 74.4187C97.5459 74.8223 97.2646 75.1388 96.9015 75.3681C96.5446 75.5973 96.1421 75.7171 95.6942 75.7274C95.2647 75.7372 94.8821 75.6509 94.5464 75.4683C94.2167 75.2794 93.9626 75.0428 93.7842 74.7583L93.8605 78.0809L93.023 78.1001L92.8521 70.6635L93.6896 70.6442L93.711 71.5738ZM97.171 73.069C97.1622 72.6885 97.0779 72.359 96.918 72.0802C96.7582 71.8015 96.5446 71.5916 96.2774 71.4504C96.0163 71.309 95.7293 71.2419 95.4163 71.2491C95.1096 71.2562 94.826 71.3394 94.5657 71.4989C94.3114 71.6521 94.1077 71.8747 93.9548 72.1668C93.8079 72.4525 93.7388 72.7826 93.7474 73.1569C93.7561 73.5373 93.8405 73.8699 94.0005 74.1548C94.1665 74.4334 94.3802 74.6464 94.6414 74.7939C94.9086 74.9351 95.1956 75.0021 95.5024 74.9951C95.8154 74.9879 96.099 74.9077 96.3533 74.7545C96.6136 74.5951 96.8172 74.3724 96.9641 74.0867C97.1109 73.7948 97.1799 73.4555 97.171 73.069ZM100.109 71.1873L100.178 74.1602C100.183 74.4056 100.239 74.5793 100.346 74.6812C100.453 74.777 100.635 74.8219 100.893 74.816L101.509 74.8018L101.526 75.5105L100.771 75.5278C100.304 75.5386 99.9523 75.4392 99.7142 75.2298C99.4761 75.0204 99.3514 74.6703 99.3401 74.1794L99.2718 71.2066L98.6183 71.2216L98.6025 70.5313L99.2559 70.5163L99.2267 69.2462L100.064 69.2269L100.093 70.4971L101.41 70.4668L101.425 71.1571L100.109 71.1873ZM102.838 69.6144C102.679 69.6181 102.542 69.566 102.429 69.458C102.316 69.3501 102.258 69.2164 102.254 69.0569C102.251 68.8974 102.303 68.7611 102.411 68.6481C102.519 68.5351 102.652 68.4768 102.812 68.4731C102.965 68.4696 103.095 68.5219 103.202 68.6299C103.315 68.7378 103.374 68.8715 103.377 69.0311C103.381 69.1906 103.329 69.3269 103.221 69.4399C103.119 69.5527 102.992 69.6109 102.838 69.6144ZM103.262 70.4242L103.378 75.4679L102.54 75.4872L102.424 70.4435L103.262 70.4242ZM107.007 75.4674C106.534 75.4783 106.102 75.3808 105.711 75.1749C105.326 74.9689 105.018 74.6721 104.788 74.2844C104.564 73.8905 104.446 73.4328 104.434 72.9113C104.422 72.3959 104.522 71.9393 104.734 71.5415C104.952 71.1374 105.252 70.8267 105.634 70.6092C106.015 70.3855 106.445 70.2682 106.924 70.2572C107.403 70.2462 107.838 70.3436 108.229 70.5495C108.621 70.7493 108.931 71.0429 109.161 71.4305C109.397 71.818 109.521 72.2725 109.533 72.7941C109.545 73.3156 109.439 73.7785 109.215 74.1827C108.997 74.5806 108.694 74.8915 108.306 75.1152C107.919 75.339 107.486 75.4564 107.007 75.4674ZM106.99 74.7311C107.291 74.7242 107.571 74.6471 107.832 74.5C108.092 74.3528 108.299 74.1362 108.452 73.8503C108.612 73.5642 108.686 73.2187 108.677 72.8138C108.668 72.4088 108.58 72.067 108.414 71.7884C108.248 71.5099 108.035 71.306 107.774 71.177C107.513 71.0418 107.232 70.9776 106.932 70.9845C106.625 70.9916 106.344 71.0686 106.09 71.2157C105.841 71.3564 105.643 71.5697 105.497 71.8555C105.35 72.1413 105.281 72.4866 105.29 72.8916C105.3 73.3027 105.381 73.6477 105.535 73.9265C105.695 74.2053 105.902 74.4123 106.157 74.5477C106.412 74.6769 106.689 74.738 106.99 74.7311ZM113.032 70.1076C113.645 70.0935 114.147 70.2693 114.536 70.6348C114.925 70.9942 115.127 71.5237 115.143 72.2232L115.212 75.196L114.383 75.215L114.318 72.3618C114.306 71.8587 114.172 71.4781 113.914 71.22C113.656 70.9558 113.309 70.8287 112.874 70.8388C112.432 70.8489 112.082 70.9951 111.825 71.2772C111.573 71.5593 111.454 71.9641 111.466 72.4918L111.53 75.2806L110.693 75.2998L110.577 70.2561L111.414 70.2369L111.431 70.9548C111.59 70.6933 111.81 70.4887 112.089 70.3411C112.374 70.1934 112.688 70.1155 113.032 70.1076ZM116.208 72.6315C116.197 72.1161 116.29 71.6627 116.49 71.2713C116.69 70.8738 116.968 70.5636 117.325 70.3405C117.688 70.1173 118.094 70.0005 118.542 69.9902C118.984 69.9801 119.369 70.0664 119.699 70.2491C120.029 70.4318 120.276 70.6656 120.443 70.9503L120.421 70.0299L121.268 70.0104L121.384 75.0541L120.537 75.0736L120.516 74.1348C120.357 74.4331 120.114 74.6843 119.787 74.8882C119.466 75.0859 119.088 75.1898 118.652 75.1998C118.205 75.2101 117.797 75.1089 117.43 74.8964C117.063 74.6838 116.77 74.3805 116.553 73.9865C116.335 73.5924 116.22 73.1408 116.208 72.6315ZM120.479 72.5425C120.47 72.1621 120.386 71.8325 120.226 71.5538C120.066 71.2751 119.853 71.0651 119.586 70.9239C119.324 70.7765 119.037 70.7063 118.724 70.7135C118.411 70.7207 118.128 70.8009 117.873 70.9541C117.619 71.1073 117.419 71.3267 117.272 71.6125C117.125 71.8983 117.056 72.2314 117.064 72.6118C117.073 72.9984 117.158 73.3341 117.318 73.6189C117.478 73.8977 117.688 74.1108 117.949 74.2582C118.21 74.3996 118.497 74.4667 118.81 74.4595C119.123 74.4523 119.407 74.3721 119.661 74.2189C119.922 74.0594 120.125 73.8368 120.272 73.551C120.419 73.2591 120.488 72.923 120.479 72.5425ZM123.48 68.1915L123.637 75.0024L122.799 75.0216L122.643 68.2108L123.48 68.1915ZM124.837 76.6876L124.835 76.6048C125.452 75.9398 125.913 75.1711 126.219 74.2984C126.53 73.4257 126.675 72.5137 126.653 71.5627C126.631 70.5871 126.434 69.6523 126.064 68.7584C125.699 67.8582 125.166 67.0938 124.464 66.4653L124.462 66.3825L125.336 66.3624C125.994 66.9428 126.506 67.6892 126.87 68.6017C127.241 69.5079 127.439 70.4887 127.463 71.5441C127.487 72.5749 127.343 73.539 127.032 74.4363C126.727 75.3335 126.287 76.0772 125.711 76.6675L124.837 76.6876Z" fill="#8094AE"/>
<path d="M19.8145 111.303L19.9614 117.7L18.9122 117.724L18.7652 111.327L19.8145 111.303ZM27.3595 112.373C27.7583 112.364 28.1161 112.438 28.4328 112.597C28.7557 112.755 29.0099 112.995 29.1953 113.316C29.3868 113.637 29.4879 114.027 29.4985 114.488L29.5672 117.479L28.5272 117.503L28.462 114.668C28.4516 114.214 28.3301 113.87 28.0976 113.636C27.8649 113.396 27.5522 113.28 27.1595 113.289C26.7668 113.298 26.4567 113.428 26.2292 113.679C26.0077 113.923 25.9021 114.272 25.9126 114.727L25.9777 117.561L24.9377 117.585L24.8725 114.75C24.8621 114.296 24.7406 113.952 24.5081 113.718C24.2754 113.478 23.9628 113.362 23.5701 113.371C23.1774 113.38 22.8673 113.51 22.6397 113.761C22.4182 114.006 22.3127 114.355 22.3231 114.809L22.3882 117.644L21.339 117.668L21.2225 112.597L22.2717 112.573L22.285 113.152C22.452 112.94 22.6661 112.772 22.9273 112.65C23.1884 112.527 23.4694 112.462 23.77 112.455C24.175 112.446 24.539 112.523 24.862 112.688C25.185 112.852 25.4361 113.095 25.6154 113.417C25.7618 113.106 25.9955 112.858 26.3166 112.673C26.6376 112.481 26.9852 112.381 27.3595 112.373ZM30.4938 114.898C30.4821 114.388 30.576 113.935 30.7756 113.537C30.9814 113.14 31.2628 112.829 31.6198 112.606C31.9829 112.377 32.3853 112.257 32.8271 112.247C33.226 112.238 33.5745 112.31 33.8727 112.462C34.1768 112.609 34.4206 112.797 34.6039 113.026L34.587 112.29L35.6454 112.265L35.7619 117.336L34.7035 117.361L34.6862 116.606C34.5137 116.849 34.2759 117.054 33.9728 117.221C33.6697 117.388 33.3218 117.475 32.9291 117.484C32.4934 117.494 32.0921 117.393 31.725 117.181C31.3577 116.962 31.0621 116.656 30.8382 116.262C30.6203 115.862 30.5055 115.407 30.4938 114.898ZM34.6451 114.821C34.6371 114.471 34.5565 114.169 34.4033 113.914C34.2562 113.66 34.0646 113.468 33.8283 113.338C33.5921 113.209 33.3389 113.147 33.069 113.153C32.799 113.159 32.549 113.233 32.3189 113.373C32.0887 113.507 31.9029 113.705 31.7616 113.966C31.6262 114.221 31.5626 114.523 31.5706 114.873C31.5787 115.223 31.6563 115.528 31.8035 115.788C31.9568 116.049 32.1517 116.247 32.3881 116.383C32.6305 116.512 32.8836 116.574 33.1474 116.568C33.4174 116.562 33.6674 116.488 33.8975 116.348C34.1275 116.208 34.3102 116.007 34.4454 115.746C34.5866 115.479 34.6532 115.17 34.6451 114.821ZM39.0649 112.104C39.4576 112.095 39.8061 112.166 40.1104 112.319C40.4207 112.465 40.6644 112.653 40.8416 112.882L40.8247 112.146L41.8831 112.122L42.0016 117.276C42.0123 117.742 41.9236 118.159 41.7356 118.525C41.5477 118.898 41.269 119.193 40.8995 119.41C40.5362 119.627 40.0968 119.742 39.5814 119.753C38.8942 119.769 38.3198 119.62 37.8583 119.305C37.3969 118.996 37.1292 118.567 37.0551 118.016L38.0951 117.992C38.181 118.254 38.3546 118.462 38.6159 118.615C38.8836 118.775 39.1984 118.851 39.5604 118.842C39.9838 118.833 40.3214 118.696 40.5732 118.432C40.8311 118.168 40.9544 117.791 40.9431 117.3L40.9237 116.454C40.7512 116.697 40.5135 116.905 40.2105 117.078C39.9135 117.244 39.5718 117.332 39.1852 117.341C38.7434 117.351 38.3359 117.25 37.9627 117.037C37.5955 116.819 37.2999 116.512 37.076 116.118C36.858 115.718 36.7432 115.263 36.7315 114.754C36.7198 114.245 36.8138 113.792 37.0134 113.394C37.2191 112.996 37.5005 112.686 37.8576 112.463C38.2206 112.234 38.6231 112.114 39.0649 112.104ZM40.8829 114.677C40.8748 114.327 40.7942 114.025 40.641 113.771C40.494 113.517 40.3023 113.325 40.0661 113.195C39.8298 113.065 39.5767 113.004 39.3067 113.01C39.0367 113.016 38.7867 113.089 38.5566 113.23C38.3264 113.364 38.1407 113.562 37.9993 113.823C37.864 114.077 37.8003 114.38 37.8084 114.729C37.8164 115.079 37.894 115.384 38.0412 115.645C38.1945 115.905 38.3894 116.104 38.6258 116.239C38.8682 116.369 39.1213 116.43 39.3852 116.424C39.6551 116.418 39.9052 116.345 40.1352 116.205C40.3653 116.064 40.5479 115.864 40.6831 115.603C40.8243 115.335 40.8909 115.027 40.8829 114.677ZM47.9646 114.395C47.969 114.585 47.9606 114.757 47.9396 114.911L44.0648 115C44.1048 115.404 44.2626 115.726 44.5382 115.965C44.8138 116.205 45.148 116.32 45.5407 116.311C46.1052 116.298 46.4986 116.052 46.7209 115.574L47.853 115.548C47.7103 116.018 47.4399 116.408 47.0419 116.718C46.6498 117.022 46.1562 117.18 45.561 117.194C45.0763 117.205 44.6382 117.108 44.2467 116.902C43.8612 116.69 43.5534 116.39 43.3235 116.002C43.0996 115.609 42.9817 115.151 42.9697 114.629C42.9577 114.108 43.0515 113.648 43.2511 113.251C43.4567 112.847 43.7472 112.533 44.1227 112.31C44.5043 112.086 44.9436 111.969 45.4407 111.957C45.9192 111.946 46.3481 112.041 46.7272 112.241C47.1063 112.441 47.4045 112.729 47.6218 113.104C47.8391 113.474 47.9533 113.904 47.9646 114.395ZM46.8617 114.089C46.8467 113.702 46.7015 113.395 46.4262 113.169C46.1509 112.942 45.8138 112.833 45.4149 112.842C45.0529 112.85 44.7457 112.974 44.4934 113.213C44.2409 113.446 44.0946 113.759 44.0546 114.153L46.8617 114.089ZM51.0408 111.23L51.0188 110.273L52.9332 110.229L53.0874 116.938L52.0289 116.963L51.8967 111.21L51.0408 111.23Z" fill="#363E49"/>
<rect width="220.95" height="68.3892" transform="translate(18.4346 126.998) rotate(-1.31645)" fill="white"/>
<rect x="18.7708" y="127.319" width="220.292" height="67.7316" rx="4.93191" transform="rotate(-1.31645 18.7708 127.319)" stroke="#D8DEE6" stroke-width="0.657588" stroke-dasharray="3.95 3.95"/>
<path d="M128.117 148.5C127.451 148.515 126.899 147.989 126.884 147.322C126.869 146.656 127.396 146.105 128.062 146.089C128.728 146.074 129.279 146.601 129.295 147.267C129.31 147.933 128.783 148.485 128.117 148.5ZM128.077 146.747C127.774 146.754 127.535 147.005 127.542 147.307C127.549 147.61 127.8 147.85 128.102 147.843C128.404 147.836 128.644 147.585 128.637 147.282C128.63 146.98 128.379 146.74 128.077 146.747Z" fill="#8094AE"/>
<path d="M130.868 153.699L128.238 153.759C125.858 153.814 124.818 152.82 124.763 150.44L124.703 147.811C124.648 145.431 125.642 144.391 128.022 144.336L129.775 144.296C129.954 144.292 130.107 144.437 130.111 144.617C130.115 144.797 129.97 144.949 129.79 144.953L128.037 144.993C126.016 145.04 125.314 145.775 125.36 147.796L125.421 150.425C125.467 152.446 126.203 153.148 128.223 153.102L130.853 153.041C132.873 152.995 133.575 152.259 133.529 150.239L133.479 148.048C133.475 147.868 133.62 147.715 133.8 147.711C133.98 147.707 134.132 147.853 134.136 148.032L134.186 150.224C134.241 152.604 133.248 153.644 130.868 153.699Z" fill="#8094AE"/>
<path d="M133.436 146.186L131.025 146.242C130.846 146.246 130.693 146.1 130.689 145.921C130.685 145.741 130.831 145.588 131.01 145.584L133.421 145.529C133.601 145.525 133.753 145.67 133.757 145.85C133.761 146.03 133.616 146.182 133.436 146.186Z" fill="#8094AE"/>
<path d="M132.259 147.418C132.079 147.422 131.926 147.276 131.922 147.097L131.867 144.686C131.863 144.506 132.008 144.354 132.188 144.35C132.368 144.346 132.52 144.491 132.524 144.671L132.58 147.082C132.584 147.261 132.438 147.414 132.259 147.418Z" fill="#8094AE"/>
<path d="M125.433 152.486C125.328 152.488 125.222 152.438 125.158 152.348C125.054 152.201 125.089 151.994 125.235 151.89L127.363 150.39C127.829 150.063 128.483 150.083 128.921 150.437L129.068 150.561C129.292 150.744 129.664 150.736 129.874 150.542L131.662 148.936C132.122 148.526 132.849 148.509 133.327 148.897L134.056 149.495C134.194 149.61 134.217 149.815 134.101 149.958C133.986 150.097 133.781 150.119 133.638 150.004L132.909 149.407C132.686 149.224 132.313 149.232 132.103 149.425L130.315 151.032C129.86 151.442 129.128 151.458 128.65 151.07L128.502 150.947C128.297 150.78 127.963 150.77 127.743 150.929L125.62 152.429C125.56 152.466 125.495 152.485 125.433 152.486Z" fill="#8094AE"/>
<path d="M98.6108 163.834L98.704 167.893C98.7171 168.464 98.8649 168.884 99.1474 169.153C99.436 169.423 99.8288 169.552 100.326 169.541C100.817 169.53 101.197 169.383 101.467 169.1C101.743 168.818 101.874 168.391 101.861 167.82L101.768 163.761L102.605 163.742L102.698 167.792C102.711 168.326 102.614 168.779 102.407 169.152C102.201 169.519 101.916 169.796 101.551 169.982C101.194 170.169 100.788 170.267 100.334 170.277C99.8795 170.288 99.4663 170.208 99.0941 170.039C98.728 169.869 98.4334 169.606 98.2103 169.249C97.9932 168.885 97.8785 168.437 97.8663 167.903L97.7732 163.853L98.6108 163.834ZM104.893 165.992C105.052 165.7 105.292 165.455 105.613 165.257C105.939 165.053 106.321 164.946 106.756 164.936C107.204 164.926 107.612 165.024 107.979 165.23C108.352 165.437 108.647 165.734 108.865 166.122C109.082 166.503 109.197 166.952 109.209 167.467C109.22 167.977 109.127 168.433 108.927 168.837C108.728 169.24 108.446 169.557 108.083 169.786C107.726 170.015 107.324 170.135 106.876 170.145C106.447 170.155 106.064 170.069 105.728 169.886C105.398 169.697 105.144 169.461 104.966 169.176L105.042 172.499L104.205 172.518L104.034 165.081L104.871 165.062L104.893 165.992ZM108.353 167.487C108.344 167.107 108.26 166.777 108.1 166.498C107.94 166.22 107.726 166.01 107.459 165.868C107.198 165.727 106.911 165.66 106.598 165.667C106.291 165.674 106.008 165.757 105.747 165.917C105.493 166.07 105.29 166.293 105.137 166.585C104.99 166.871 104.921 167.201 104.929 167.575C104.938 167.955 105.022 168.288 105.182 168.573C105.348 168.851 105.562 169.064 105.823 169.212C106.09 169.353 106.377 169.42 106.684 169.413C106.997 169.406 107.281 169.326 107.535 169.173C107.795 169.013 107.999 168.79 108.146 168.505C108.293 168.213 108.362 167.874 108.353 167.487ZM111.051 163.152L111.207 169.963L110.37 169.982L110.213 163.171L111.051 163.152ZM114.836 169.962C114.364 169.973 113.932 169.876 113.54 169.67C113.155 169.464 112.847 169.167 112.617 168.779C112.393 168.386 112.275 167.928 112.263 167.406C112.252 166.891 112.352 166.434 112.564 166.037C112.781 165.632 113.081 165.322 113.463 165.104C113.845 164.881 114.275 164.763 114.753 164.752C115.232 164.741 115.667 164.839 116.058 165.045C116.45 165.244 116.76 165.538 116.99 165.926C117.226 166.313 117.35 166.768 117.362 167.289C117.374 167.811 117.268 168.274 117.044 168.678C116.826 169.076 116.523 169.386 116.136 169.61C115.748 169.834 115.315 169.951 114.836 169.962ZM114.819 169.226C115.12 169.219 115.401 169.142 115.661 168.995C115.922 168.848 116.129 168.631 116.282 168.345C116.441 168.059 116.516 167.714 116.506 167.309C116.497 166.904 116.409 166.562 116.243 166.283C116.077 166.005 115.864 165.801 115.603 165.672C115.342 165.537 115.061 165.473 114.761 165.48C114.454 165.487 114.173 165.564 113.919 165.711C113.67 165.851 113.473 166.065 113.326 166.351C113.179 166.636 113.11 166.982 113.119 167.387C113.129 167.798 113.21 168.143 113.364 168.422C113.524 168.7 113.731 168.907 113.986 169.043C114.241 169.172 114.519 169.233 114.819 169.226ZM118.15 167.262C118.139 166.746 118.233 166.293 118.432 165.902C118.632 165.504 118.91 165.194 119.267 164.971C119.631 164.748 120.036 164.631 120.484 164.621C120.926 164.61 121.311 164.697 121.641 164.879C121.971 165.062 122.218 165.296 122.385 165.581L122.363 164.66L123.21 164.641L123.326 169.684L122.479 169.704L122.458 168.765C122.299 169.063 122.056 169.315 121.729 169.519C121.408 169.716 121.03 169.82 120.595 169.83C120.147 169.84 119.739 169.739 119.372 169.527C119.005 169.314 118.712 169.011 118.495 168.617C118.277 168.223 118.162 167.771 118.15 167.262ZM122.421 167.173C122.412 166.792 122.328 166.463 122.168 166.184C122.008 165.905 121.795 165.695 121.528 165.554C121.266 165.407 120.979 165.337 120.666 165.344C120.353 165.351 120.07 165.431 119.816 165.584C119.561 165.738 119.361 165.957 119.214 166.243C119.067 166.529 118.998 166.862 119.006 167.242C119.015 167.629 119.1 167.964 119.26 168.249C119.42 168.528 119.63 168.741 119.891 168.889C120.153 169.03 120.44 169.097 120.752 169.09C121.065 169.083 121.349 169.002 121.603 168.849C121.864 168.69 122.067 168.467 122.214 168.181C122.361 167.889 122.43 167.553 122.421 167.173ZM124.37 167.119C124.358 166.603 124.452 166.15 124.652 165.759C124.852 165.361 125.13 165.051 125.487 164.828C125.85 164.605 126.259 164.488 126.713 164.477C127.106 164.468 127.473 164.552 127.815 164.728C128.156 164.899 128.419 165.129 128.604 165.419L128.543 162.75L129.389 162.731L129.546 169.542L128.699 169.561L128.677 168.613C128.519 168.917 128.279 169.172 127.958 169.375C127.637 169.573 127.259 169.677 126.823 169.687C126.376 169.697 125.965 169.596 125.592 169.384C125.225 169.171 124.932 168.868 124.714 168.474C124.497 168.08 124.382 167.628 124.37 167.119ZM128.641 167.03C128.632 166.65 128.548 166.32 128.388 166.041C128.228 165.762 128.015 165.553 127.747 165.411C127.486 165.264 127.199 165.194 126.886 165.201C126.573 165.208 126.29 165.288 126.035 165.441C125.781 165.595 125.58 165.814 125.433 166.1C125.287 166.386 125.217 166.719 125.226 167.099C125.235 167.486 125.32 167.821 125.48 168.106C125.639 168.385 125.85 168.598 126.111 168.746C126.372 168.887 126.659 168.954 126.972 168.947C127.285 168.94 127.569 168.859 127.823 168.706C128.083 168.547 128.287 168.324 128.434 168.038C128.581 167.747 128.65 167.41 128.641 167.03ZM133.713 163.58C133.553 163.584 133.417 163.531 133.304 163.423C133.191 163.316 133.133 163.182 133.129 163.022C133.125 162.863 133.178 162.727 133.285 162.614C133.393 162.501 133.527 162.442 133.687 162.439C133.84 162.435 133.97 162.487 134.077 162.595C134.19 162.703 134.248 162.837 134.252 162.997C134.256 163.156 134.204 163.292 134.096 163.405C133.994 163.518 133.866 163.576 133.713 163.58ZM134.137 164.39L134.253 169.433L133.415 169.453L133.299 164.409L134.137 164.39ZM141.627 164.125C142.02 164.116 142.372 164.191 142.682 164.35C142.993 164.502 143.241 164.739 143.426 165.06C143.611 165.381 143.71 165.775 143.72 166.241L143.789 169.214L142.96 169.233L142.895 166.38C142.883 165.877 142.749 165.496 142.491 165.238C142.239 164.974 141.902 164.847 141.478 164.856C141.043 164.866 140.699 165.015 140.448 165.304C140.197 165.586 140.077 165.991 140.089 166.518L140.153 169.298L139.325 169.317L139.259 166.464C139.248 165.96 139.113 165.58 138.855 165.322C138.604 165.057 138.266 164.93 137.843 164.94C137.407 164.95 137.064 165.099 136.813 165.387C136.561 165.669 136.442 166.074 136.454 166.602L136.518 169.381L135.68 169.401L135.564 164.357L136.402 164.338L136.418 165.065C136.578 164.797 136.794 164.59 137.067 164.442C137.346 164.294 137.654 164.217 137.992 164.209C138.415 164.199 138.792 164.286 139.121 164.469C139.451 164.651 139.7 164.925 139.868 165.289C140.001 164.93 140.227 164.649 140.548 164.445C140.869 164.241 141.228 164.135 141.627 164.125ZM144.791 166.65C144.779 166.134 144.873 165.681 145.073 165.289C145.273 164.892 145.551 164.582 145.908 164.359C146.271 164.135 146.677 164.019 147.125 164.008C147.566 163.998 147.952 164.084 148.282 164.267C148.611 164.45 148.859 164.684 149.025 164.968L149.004 164.048L149.851 164.029L149.967 169.072L149.12 169.092L149.099 168.153C148.94 168.451 148.697 168.702 148.37 168.906C148.049 169.104 147.671 169.208 147.235 169.218C146.787 169.228 146.38 169.127 146.013 168.914C145.646 168.702 145.353 168.399 145.135 168.005C144.918 167.611 144.803 167.159 144.791 166.65ZM149.062 166.561C149.053 166.18 148.969 165.851 148.809 165.572C148.649 165.293 148.436 165.083 148.168 164.942C147.907 164.795 147.62 164.724 147.307 164.732C146.994 164.739 146.711 164.819 146.456 164.972C146.202 165.125 146.001 165.345 145.854 165.631C145.707 165.916 145.638 166.25 145.647 166.63C145.656 167.016 145.74 167.352 145.9 167.637C146.06 167.916 146.271 168.129 146.532 168.276C146.793 168.418 147.08 168.485 147.393 168.478C147.706 168.47 147.99 168.39 148.244 168.237C148.504 168.078 148.708 167.855 148.855 167.569C149.002 167.277 149.071 166.941 149.062 166.561ZM153.344 163.865C153.78 163.855 154.163 163.942 154.492 164.124C154.828 164.307 155.079 164.541 155.245 164.825L155.224 163.905L156.071 163.886L156.189 169.04C156.2 169.5 156.111 169.91 155.923 170.271C155.735 170.637 155.459 170.926 155.095 171.137C154.738 171.348 154.317 171.459 153.832 171.47C153.17 171.485 152.614 171.341 152.165 171.038C151.716 170.736 151.445 170.315 151.353 169.777L152.181 169.758C152.281 170.063 152.476 170.304 152.769 170.481C153.062 170.665 153.411 170.752 153.816 170.743C154.276 170.732 154.647 170.579 154.929 170.284C155.216 169.989 155.354 169.581 155.342 169.059L155.318 168.001C155.159 168.299 154.919 168.55 154.599 168.754C154.278 168.958 153.9 169.065 153.464 169.075C153.016 169.085 152.606 168.984 152.232 168.772C151.865 168.559 151.573 168.256 151.355 167.862C151.137 167.468 151.023 167.016 151.011 166.507C150.999 165.991 151.093 165.538 151.293 165.147C151.492 164.749 151.771 164.439 152.128 164.216C152.491 163.992 152.897 163.876 153.344 163.865ZM155.282 166.418C155.273 166.037 155.189 165.708 155.029 165.429C154.869 165.15 154.655 164.94 154.388 164.799C154.127 164.652 153.84 164.582 153.527 164.589C153.214 164.596 152.93 164.676 152.676 164.829C152.422 164.982 152.221 165.202 152.074 165.488C151.927 165.773 151.858 166.107 151.867 166.487C151.876 166.874 151.96 167.209 152.12 167.494C152.28 167.773 152.491 167.986 152.752 168.133C153.013 168.275 153.3 168.342 153.613 168.335C153.926 168.327 154.209 168.247 154.464 168.094C154.724 167.935 154.928 167.712 155.075 167.426C155.221 167.134 155.29 166.798 155.282 166.418ZM162.141 166.076C162.145 166.235 162.14 166.404 162.126 166.583L158.094 166.675C158.136 167.172 158.314 167.557 158.627 167.833C158.947 168.102 159.327 168.231 159.769 168.221C160.131 168.212 160.43 168.123 160.665 167.952C160.907 167.774 161.073 167.543 161.165 167.259L162.067 167.238C161.943 167.726 161.682 168.128 161.284 168.444C160.886 168.754 160.386 168.916 159.785 168.929C159.307 168.94 158.875 168.843 158.489 168.637C158.11 168.431 157.809 168.134 157.585 167.746C157.361 167.352 157.243 166.894 157.231 166.373C157.219 165.851 157.313 165.392 157.512 164.994C157.712 164.597 157.996 164.29 158.366 164.072C158.741 163.849 159.175 163.731 159.665 163.72C160.144 163.709 160.57 163.804 160.943 164.004C161.316 164.204 161.605 164.486 161.809 164.85C162.02 165.207 162.131 165.616 162.141 166.076ZM161.272 165.921C161.265 165.602 161.188 165.33 161.042 165.107C160.895 164.877 160.698 164.706 160.45 164.595C160.208 164.478 159.939 164.423 159.645 164.43C159.222 164.439 158.863 164.583 158.568 164.86C158.28 165.136 158.12 165.515 158.088 165.994L161.272 165.921Z" fill="#AAB7C9"/>
<path d="M256.483 105.863L256.63 112.26L255.581 112.284L255.434 105.888L256.483 105.863ZM264.028 106.933C264.427 106.924 264.785 106.999 265.102 107.157C265.425 107.316 265.679 107.555 265.864 107.876C266.056 108.197 266.157 108.588 266.167 109.048L266.236 112.039L265.196 112.063L265.131 109.229C265.121 108.774 264.999 108.43 264.767 108.196C264.534 107.956 264.221 107.84 263.828 107.85C263.436 107.859 263.126 107.988 262.898 108.239C262.677 108.484 262.571 108.833 262.582 109.287L262.647 112.122L261.607 112.146L261.541 109.311C261.531 108.857 261.41 108.513 261.177 108.279C260.944 108.039 260.632 107.923 260.239 107.932C259.846 107.941 259.536 108.071 259.309 108.322C259.087 108.566 258.982 108.916 258.992 109.37L259.057 112.204L258.008 112.228L257.891 107.157L258.941 107.133L258.954 107.713C259.121 107.5 259.335 107.333 259.596 107.21C259.857 107.087 260.138 107.023 260.439 107.016C260.844 107.006 261.208 107.084 261.531 107.248C261.854 107.413 262.105 107.656 262.284 107.977C262.431 107.667 262.664 107.419 262.986 107.233C263.307 107.042 263.654 106.942 264.028 106.933ZM267.163 109.458C267.151 108.949 267.245 108.495 267.445 108.098C267.65 107.7 267.932 107.39 268.289 107.167C268.652 106.938 269.054 106.818 269.496 106.808C269.895 106.798 270.243 106.87 270.542 107.023C270.846 107.169 271.09 107.357 271.273 107.586L271.256 106.85L272.314 106.826L272.431 111.897L271.372 111.921L271.355 111.167C271.183 111.41 270.945 111.615 270.642 111.782C270.339 111.948 269.991 112.036 269.598 112.045C269.162 112.055 268.761 111.954 268.394 111.741C268.027 111.522 267.731 111.216 267.507 110.822C267.289 110.422 267.174 109.967 267.163 109.458ZM271.314 109.381C271.306 109.031 271.225 108.729 271.072 108.475C270.925 108.221 270.734 108.028 270.497 107.899C270.261 107.769 270.008 107.708 269.738 107.714C269.468 107.72 269.218 107.793 268.988 107.934C268.758 108.068 268.572 108.265 268.431 108.526C268.295 108.781 268.232 109.084 268.24 109.433C268.248 109.783 268.325 110.088 268.472 110.349C268.626 110.609 268.821 110.807 269.057 110.943C269.299 111.073 269.553 111.134 269.816 111.128C270.086 111.122 270.336 111.049 270.566 110.908C270.796 110.768 270.979 110.567 271.114 110.307C271.256 110.039 271.322 109.731 271.314 109.381ZM275.734 106.664C276.127 106.655 276.475 106.727 276.779 106.88C277.09 107.026 277.333 107.214 277.511 107.443L277.494 106.707L278.552 106.682L278.671 111.837C278.681 112.303 278.593 112.719 278.405 113.086C278.217 113.458 277.938 113.753 277.568 113.971C277.205 114.188 276.766 114.302 276.25 114.314C275.563 114.33 274.989 114.18 274.527 113.866C274.066 113.557 273.798 113.127 273.724 112.576L274.764 112.552C274.85 112.814 275.024 113.022 275.285 113.176C275.553 113.336 275.867 113.411 276.229 113.403C276.653 113.393 276.99 113.256 277.242 112.993C277.5 112.729 277.623 112.352 277.612 111.861L277.593 111.014C277.42 111.257 277.182 111.466 276.879 111.638C276.582 111.805 276.241 111.892 275.854 111.901C275.412 111.911 275.005 111.81 274.632 111.598C274.264 111.379 273.969 111.073 273.745 110.679C273.527 110.279 273.412 109.824 273.4 109.315C273.389 108.805 273.483 108.352 273.682 107.955C273.888 107.557 274.169 107.247 274.527 107.024C274.89 106.794 275.292 106.674 275.734 106.664ZM277.552 109.238C277.544 108.888 277.463 108.586 277.31 108.332C277.163 108.077 276.971 107.885 276.735 107.756C276.499 107.626 276.246 107.564 275.976 107.57C275.706 107.577 275.456 107.65 275.226 107.79C274.995 107.924 274.81 108.122 274.668 108.383C274.533 108.638 274.469 108.94 274.477 109.29C274.485 109.64 274.563 109.945 274.71 110.205C274.863 110.466 275.058 110.664 275.295 110.8C275.537 110.929 275.79 110.991 276.054 110.985C276.324 110.979 276.574 110.905 276.804 110.765C277.034 110.625 277.217 110.424 277.352 110.163C277.493 109.896 277.56 109.587 277.552 109.238ZM284.634 108.955C284.638 109.146 284.63 109.318 284.609 109.472L280.734 109.561C280.774 109.965 280.932 110.287 281.207 110.526C281.483 110.765 281.817 110.88 282.21 110.871C282.774 110.858 283.168 110.613 283.39 110.135L284.522 110.109C284.379 110.579 284.109 110.969 283.711 111.279C283.319 111.582 282.825 111.741 282.23 111.755C281.745 111.766 281.307 111.668 280.916 111.463C280.53 111.25 280.222 110.951 279.992 110.563C279.769 110.169 279.651 109.711 279.639 109.19C279.627 108.668 279.72 108.209 279.92 107.811C280.126 107.407 280.416 107.094 280.792 106.87C281.173 106.647 281.613 106.529 282.11 106.518C282.588 106.507 283.017 106.601 283.396 106.801C283.775 107.001 284.073 107.289 284.291 107.665C284.508 108.034 284.622 108.464 284.634 108.955ZM283.531 108.649C283.516 108.263 283.37 107.956 283.095 107.729C282.82 107.502 282.483 107.393 282.084 107.402C281.722 107.411 281.415 107.534 281.162 107.773C280.91 108.006 280.764 108.32 280.724 108.714L283.531 108.649ZM288.527 110.1C289.104 109.577 289.558 109.149 289.888 108.816C290.224 108.477 290.501 108.127 290.72 107.766C290.939 107.405 291.045 107.046 291.036 106.69C291.028 106.322 290.932 106.036 290.75 105.831C290.573 105.626 290.297 105.528 289.923 105.537C289.561 105.545 289.282 105.668 289.084 105.906C288.893 106.138 288.796 106.447 288.793 106.834L287.78 106.857C287.783 106.157 287.979 105.619 288.369 105.241C288.766 104.858 289.274 104.659 289.893 104.644C290.562 104.629 291.088 104.801 291.471 105.161C291.86 105.52 292.061 106.007 292.075 106.62C292.085 107.062 291.982 107.491 291.764 107.907C291.553 108.317 291.294 108.689 290.989 109.021C290.689 109.347 290.305 109.727 289.836 110.162L289.43 110.539L292.348 110.472L292.368 111.347L287.895 111.45L287.877 110.686L288.527 110.1Z" fill="#363E49"/>
<rect x="255.44" y="121.88" width="220.292" height="67.7316" rx="4.93191" transform="rotate(-1.31645 255.44 121.88)" fill="white"/>
<rect x="255.44" y="121.88" width="220.292" height="67.7316" rx="4.93191" transform="rotate(-1.31645 255.44 121.88)" stroke="#D8DEE6" stroke-width="0.657588" stroke-dasharray="3.95 3.95"/>
<path d="M364.786 143.061C364.12 143.076 363.568 142.549 363.553 141.883C363.538 141.217 364.064 140.665 364.731 140.65C365.397 140.635 365.948 141.161 365.964 141.828C365.979 142.494 365.452 143.045 364.786 143.061ZM364.746 141.307C364.443 141.314 364.204 141.565 364.211 141.868C364.217 142.17 364.469 142.41 364.771 142.403C365.073 142.396 365.313 142.145 365.306 141.843C365.299 141.54 365.048 141.301 364.746 141.307Z" fill="#8094AE"/>
<path d="M367.537 148.259L364.907 148.319C362.527 148.374 361.487 147.381 361.432 145.001L361.372 142.371C361.317 139.991 362.311 138.951 364.691 138.897L366.444 138.856C366.623 138.852 366.776 138.998 366.78 139.177C366.784 139.357 366.638 139.51 366.459 139.514L364.706 139.554C362.685 139.6 361.983 140.336 362.029 142.356L362.09 144.986C362.136 147.006 362.872 147.709 364.892 147.662L367.522 147.602C369.542 147.555 370.244 146.82 370.198 144.799L370.148 142.608C370.143 142.428 370.289 142.276 370.469 142.272C370.648 142.268 370.801 142.413 370.805 142.593L370.855 144.784C370.91 147.164 369.917 148.204 367.537 148.259Z" fill="#8094AE"/>
<path d="M370.105 140.747L367.694 140.802C367.515 140.806 367.362 140.661 367.358 140.481C367.354 140.301 367.5 140.149 367.679 140.145L370.09 140.089C370.27 140.085 370.422 140.231 370.426 140.411C370.43 140.59 370.285 140.743 370.105 140.747Z" fill="#8094AE"/>
<path d="M368.928 141.978C368.748 141.982 368.595 141.837 368.591 141.657L368.536 139.247C368.532 139.067 368.677 138.915 368.857 138.91C369.037 138.906 369.189 139.052 369.193 139.232L369.249 141.642C369.253 141.822 369.107 141.974 368.928 141.978Z" fill="#8094AE"/>
<path d="M362.102 147.047C361.997 147.049 361.891 146.999 361.827 146.908C361.723 146.762 361.758 146.555 361.904 146.45L364.032 144.95C364.498 144.624 365.152 144.644 365.589 144.998L365.737 145.121C365.96 145.305 366.333 145.296 366.543 145.103L368.331 143.496C368.79 143.087 369.518 143.07 369.996 143.458L370.725 144.055C370.863 144.17 370.886 144.376 370.77 144.519C370.655 144.658 370.45 144.68 370.307 144.565L369.578 143.968C369.355 143.784 368.982 143.793 368.772 143.986L366.984 145.593C366.529 146.002 365.797 146.019 365.319 145.631L365.171 145.507C364.966 145.341 364.632 145.331 364.412 145.489L362.289 146.99C362.229 147.026 362.164 147.045 362.102 147.047Z" fill="#8094AE"/>
<path d="M335.28 158.395L335.373 162.453C335.386 163.024 335.534 163.444 335.816 163.714C336.105 163.984 336.498 164.113 336.995 164.101C337.486 164.09 337.866 163.943 338.136 163.661C338.412 163.378 338.543 162.952 338.53 162.381L338.437 158.322L339.274 158.303L339.367 162.352C339.379 162.886 339.282 163.34 339.076 163.713C338.87 164.08 338.584 164.356 338.22 164.543C337.863 164.729 337.457 164.827 337.002 164.838C336.548 164.848 336.135 164.769 335.763 164.599C335.397 164.43 335.102 164.166 334.879 163.809C334.662 163.446 334.547 162.997 334.535 162.463L334.442 158.414L335.28 158.395ZM341.562 160.552C341.721 160.26 341.961 160.015 342.282 159.818C342.608 159.614 342.99 159.507 343.425 159.497C343.873 159.486 344.281 159.584 344.648 159.791C345.021 159.997 345.316 160.294 345.534 160.682C345.751 161.064 345.866 161.512 345.878 162.028C345.889 162.537 345.796 162.994 345.596 163.397C345.397 163.801 345.115 164.117 344.752 164.347C344.395 164.576 343.993 164.696 343.545 164.706C343.115 164.716 342.733 164.629 342.397 164.447C342.067 164.258 341.813 164.021 341.635 163.737L341.711 167.059L340.874 167.079L340.703 159.642L341.54 159.623L341.562 160.552ZM345.022 162.048C345.013 161.667 344.929 161.338 344.769 161.059C344.609 160.78 344.395 160.57 344.128 160.429C343.867 160.288 343.58 160.22 343.267 160.228C342.96 160.235 342.677 160.318 342.416 160.477C342.162 160.631 341.959 160.853 341.806 161.145C341.659 161.431 341.59 161.761 341.598 162.135C341.607 162.516 341.691 162.848 341.851 163.133C342.017 163.412 342.231 163.625 342.492 163.772C342.759 163.914 343.046 163.981 343.353 163.974C343.666 163.966 343.95 163.886 344.204 163.733C344.464 163.574 344.668 163.351 344.815 163.065C344.962 162.773 345.031 162.434 345.022 162.048ZM347.72 157.713L347.876 164.524L347.039 164.543L346.882 157.732L347.72 157.713ZM351.505 164.523C351.033 164.534 350.601 164.436 350.209 164.23C349.824 164.024 349.516 163.728 349.286 163.34C349.062 162.946 348.944 162.488 348.932 161.967C348.921 161.451 349.021 160.995 349.232 160.597C349.45 160.193 349.75 159.882 350.132 159.665C350.514 159.441 350.944 159.324 351.422 159.313C351.901 159.302 352.336 159.399 352.727 159.605C353.119 159.805 353.429 160.099 353.659 160.486C353.895 160.874 354.019 161.328 354.031 161.85C354.043 162.371 353.937 162.834 353.713 163.238C353.495 163.636 353.192 163.947 352.805 164.171C352.417 164.395 351.984 164.512 351.505 164.523ZM351.488 163.787C351.789 163.78 352.069 163.703 352.33 163.556C352.591 163.408 352.798 163.192 352.951 162.906C353.11 162.62 353.185 162.274 353.175 161.869C353.166 161.464 353.078 161.123 352.912 160.844C352.746 160.565 352.533 160.362 352.272 160.233C352.011 160.097 351.73 160.033 351.43 160.04C351.123 160.047 350.842 160.124 350.588 160.271C350.339 160.412 350.142 160.625 349.995 160.911C349.848 161.197 349.779 161.542 349.788 161.947C349.798 162.358 349.879 162.703 350.033 162.982C350.193 163.261 350.4 163.468 350.655 163.603C350.91 163.732 351.188 163.794 351.488 163.787ZM354.819 161.822C354.808 161.307 354.902 160.854 355.101 160.462C355.301 160.065 355.579 159.754 355.936 159.531C356.299 159.308 356.705 159.191 357.153 159.181C357.595 159.171 357.98 159.257 358.31 159.44C358.64 159.623 358.887 159.856 359.054 160.141L359.032 159.221L359.879 159.201L359.995 164.245L359.148 164.264L359.127 163.326C358.968 163.624 358.725 163.875 358.398 164.079C358.077 164.277 357.699 164.381 357.263 164.391C356.816 164.401 356.408 164.3 356.041 164.087C355.674 163.875 355.381 163.571 355.164 163.177C354.946 162.783 354.831 162.332 354.819 161.822ZM359.09 161.733C359.081 161.353 358.997 161.023 358.837 160.745C358.677 160.466 358.464 160.256 358.197 160.115C357.935 159.967 357.648 159.897 357.335 159.904C357.022 159.912 356.739 159.992 356.484 160.145C356.23 160.298 356.03 160.518 355.883 160.803C355.736 161.089 355.667 161.422 355.675 161.803C355.684 162.189 355.769 162.525 355.929 162.81C356.089 163.089 356.299 163.302 356.56 163.449C356.821 163.59 357.108 163.658 357.421 163.65C357.734 163.643 358.018 163.563 358.272 163.41C358.533 163.25 358.736 163.028 358.883 162.742C359.03 162.45 359.099 162.114 359.09 161.733ZM361.039 161.679C361.027 161.164 361.121 160.711 361.321 160.319C361.521 159.922 361.799 159.612 362.156 159.388C362.519 159.165 362.928 159.048 363.382 159.038C363.775 159.029 364.142 159.113 364.484 159.289C364.825 159.459 365.088 159.689 365.273 159.98L365.212 157.311L366.058 157.291L366.215 164.102L365.368 164.122L365.346 163.174C365.188 163.478 364.948 163.732 364.627 163.936C364.306 164.134 363.928 164.238 363.492 164.248C363.045 164.258 362.634 164.157 362.261 163.944C361.894 163.732 361.601 163.428 361.383 163.034C361.166 162.64 361.051 162.189 361.039 161.679ZM365.31 161.59C365.301 161.21 365.217 160.88 365.057 160.602C364.897 160.323 364.684 160.113 364.416 159.972C364.155 159.824 363.868 159.754 363.555 159.761C363.242 159.769 362.959 159.849 362.704 160.002C362.45 160.155 362.249 160.375 362.102 160.66C361.955 160.946 361.886 161.279 361.895 161.66C361.904 162.046 361.988 162.382 362.148 162.667C362.308 162.946 362.519 163.159 362.78 163.306C363.041 163.448 363.328 163.515 363.641 163.507C363.954 163.5 364.238 163.42 364.492 163.267C364.752 163.107 364.956 162.885 365.103 162.599C365.25 162.307 365.319 161.971 365.31 161.59ZM370.382 158.14C370.222 158.144 370.086 158.092 369.973 157.984C369.86 157.876 369.802 157.742 369.798 157.583C369.794 157.423 369.847 157.287 369.954 157.174C370.062 157.061 370.196 157.003 370.356 156.999C370.509 156.996 370.639 157.048 370.746 157.156C370.859 157.264 370.917 157.398 370.921 157.557C370.925 157.717 370.872 157.853 370.765 157.966C370.663 158.079 370.535 158.137 370.382 158.14ZM370.806 158.95L370.922 163.994L370.084 164.013L369.968 158.969L370.806 158.95ZM378.296 158.686C378.689 158.677 379.041 158.752 379.351 158.91C379.662 159.063 379.91 159.3 380.095 159.621C380.28 159.942 380.378 160.336 380.389 160.802L380.458 163.775L379.629 163.794L379.564 160.941C379.552 160.437 379.417 160.057 379.16 159.799C378.908 159.534 378.571 159.407 378.147 159.417C377.712 159.427 377.368 159.576 377.117 159.864C376.866 160.146 376.746 160.551 376.758 161.079L376.822 163.858L375.994 163.877L375.928 161.024C375.917 160.521 375.782 160.14 375.524 159.882C375.273 159.618 374.935 159.491 374.512 159.5C374.076 159.51 373.733 159.66 373.481 159.948C373.23 160.23 373.111 160.635 373.123 161.162L373.187 163.942L372.349 163.961L372.233 158.917L373.071 158.898L373.087 159.625C373.247 159.358 373.463 159.15 373.736 159.003C374.015 158.855 374.323 158.777 374.661 158.77C375.084 158.76 375.461 158.846 375.79 159.029C376.12 159.212 376.369 159.485 376.537 159.85C376.669 159.491 376.896 159.209 377.217 159.005C377.538 158.802 377.897 158.695 378.296 158.686ZM381.46 161.21C381.448 160.695 381.542 160.241 381.742 159.85C381.942 159.453 382.22 159.142 382.577 158.919C382.94 158.696 383.346 158.579 383.794 158.569C384.235 158.559 384.621 158.645 384.951 158.828C385.28 159.01 385.528 159.244 385.694 159.529L385.673 158.609L386.52 158.589L386.636 163.633L385.789 163.652L385.767 162.713C385.609 163.012 385.366 163.263 385.039 163.467C384.718 163.665 384.34 163.768 383.904 163.778C383.456 163.789 383.049 163.688 382.682 163.475C382.315 163.262 382.022 162.959 381.804 162.565C381.587 162.171 381.472 161.719 381.46 161.21ZM385.731 161.121C385.722 160.741 385.638 160.411 385.478 160.132C385.318 159.854 385.105 159.644 384.837 159.503C384.576 159.355 384.289 159.285 383.976 159.292C383.663 159.299 383.379 159.38 383.125 159.533C382.871 159.686 382.67 159.905 382.523 160.191C382.376 160.477 382.307 160.81 382.316 161.19C382.325 161.577 382.409 161.913 382.569 162.198C382.729 162.476 382.94 162.689 383.201 162.837C383.462 162.978 383.749 163.045 384.062 163.038C384.375 163.031 384.659 162.951 384.913 162.798C385.173 162.638 385.377 162.415 385.524 162.13C385.671 161.838 385.74 161.502 385.731 161.121ZM390.013 158.426C390.449 158.416 390.832 158.502 391.161 158.685C391.497 158.868 391.748 159.101 391.914 159.386L391.893 158.466L392.74 158.446L392.858 163.6C392.869 164.06 392.78 164.471 392.592 164.831C392.404 165.198 392.128 165.486 391.764 165.697C391.407 165.908 390.986 166.019 390.501 166.03C389.839 166.046 389.283 165.902 388.834 165.599C388.385 165.296 388.114 164.876 388.022 164.338L388.85 164.319C388.949 164.623 389.145 164.864 389.438 165.042C389.731 165.225 390.08 165.313 390.485 165.303C390.945 165.293 391.316 165.14 391.597 164.845C391.885 164.55 392.023 164.141 392.011 163.62L391.987 162.561C391.828 162.86 391.588 163.111 391.268 163.315C390.947 163.518 390.569 163.625 390.133 163.635C389.685 163.646 389.275 163.545 388.901 163.332C388.534 163.12 388.242 162.816 388.024 162.422C387.806 162.028 387.692 161.576 387.68 161.067C387.668 160.552 387.762 160.098 387.962 159.707C388.161 159.31 388.44 158.999 388.797 158.776C389.16 158.553 389.565 158.436 390.013 158.426ZM391.951 160.978C391.942 160.598 391.858 160.268 391.698 159.99C391.538 159.711 391.324 159.501 391.057 159.36C390.796 159.212 390.509 159.142 390.196 159.149C389.883 159.156 389.599 159.237 389.345 159.39C389.091 159.543 388.89 159.762 388.743 160.048C388.596 160.334 388.527 160.667 388.536 161.048C388.545 161.434 388.629 161.77 388.789 162.055C388.949 162.333 389.16 162.546 389.421 162.694C389.682 162.835 389.969 162.902 390.282 162.895C390.595 162.888 390.878 162.808 391.133 162.655C391.393 162.495 391.597 162.273 391.744 161.987C391.89 161.695 391.959 161.359 391.951 160.978ZM398.81 160.636C398.814 160.796 398.809 160.965 398.794 161.143L394.763 161.236C394.805 161.732 394.983 162.118 395.296 162.393C395.616 162.662 395.996 162.792 396.438 162.781C396.8 162.773 397.099 162.683 397.334 162.512C397.576 162.335 397.742 162.104 397.834 161.819L398.736 161.798C398.612 162.286 398.351 162.688 397.953 163.004C397.555 163.314 397.055 163.476 396.454 163.49C395.976 163.501 395.544 163.404 395.158 163.198C394.779 162.991 394.477 162.694 394.254 162.307C394.03 161.913 393.912 161.455 393.9 160.933C393.888 160.412 393.982 159.952 394.181 159.555C394.381 159.157 394.665 158.85 395.035 158.633C395.41 158.409 395.844 158.292 396.334 158.281C396.813 158.27 397.239 158.364 397.612 158.564C397.985 158.765 398.274 159.046 398.478 159.41C398.689 159.767 398.8 160.176 398.81 160.636ZM397.941 160.481C397.934 160.162 397.857 159.891 397.711 159.667C397.564 159.437 397.367 159.267 397.119 159.156C396.877 159.039 396.608 158.983 396.314 158.99C395.891 159 395.532 159.143 395.237 159.42C394.949 159.697 394.789 160.075 394.757 160.555L397.941 160.481Z" fill="#AAB7C9"/>
<rect x="20.6574" y="216.567" width="111.866" height="26.4533" rx="5.09631" transform="rotate(-1.31645 20.6574 216.567)" stroke="#6200EE" stroke-width="0.328794"/>
<path d="M36.1276 229.001L36.0672 226.371L36.9437 226.351L37.0041 228.981L39.6338 228.92L39.6539 229.797L37.0243 229.857L37.0847 232.487L36.2082 232.507L36.1477 229.877L33.5181 229.938L33.4979 229.061L36.1276 229.001Z" fill="#6200EE"/>
<path d="M48.3931 230.538L46.0974 230.591L45.7287 231.72L44.7899 231.742L46.6281 226.206L47.6694 226.182L49.76 231.628L48.8133 231.649L48.3931 230.538ZM48.1238 229.81L47.1738 227.283L46.333 229.851L48.1238 229.81ZM50.2639 229.422C50.2539 228.985 50.3344 228.596 50.5055 228.256C50.6818 227.915 50.923 227.649 51.2291 227.458C51.5403 227.261 51.8879 227.158 52.2718 227.15C52.5558 227.143 52.836 227.2 53.1124 227.32C53.3939 227.434 53.6185 227.592 53.7863 227.794L53.7381 225.695L54.6453 225.674L54.7794 231.512L53.8722 231.533L53.8572 230.878C53.7147 231.092 53.5136 231.27 53.2538 231.413C52.9992 231.556 52.7036 231.631 52.3671 231.639C51.9884 231.647 51.6391 231.561 51.3192 231.379C51.0044 231.191 50.7511 230.929 50.5591 230.591C50.3723 230.248 50.2739 229.858 50.2639 229.422ZM53.8222 229.356C53.8153 229.056 53.7462 228.797 53.6149 228.579C53.4889 228.361 53.3246 228.196 53.1221 228.085C52.9196 227.974 52.7026 227.921 52.4712 227.926C52.2398 227.932 52.0255 227.995 51.8283 228.115C51.631 228.23 51.4717 228.399 51.3506 228.623C51.2346 228.842 51.18 229.101 51.1869 229.4C51.1938 229.7 51.2603 229.962 51.3865 230.185C51.5179 230.408 51.6849 230.578 51.8876 230.695C52.0953 230.806 52.3123 230.858 52.5384 230.853C52.7699 230.848 52.9842 230.785 53.1813 230.665C53.3785 230.545 53.5351 230.373 53.651 230.149C53.772 229.92 53.8291 229.655 53.8222 229.356ZM55.6105 229.299C55.6005 228.862 55.681 228.474 55.8521 228.133C56.0284 227.792 56.2696 227.526 56.5757 227.335C56.8869 227.138 57.2345 227.036 57.6184 227.027C57.9024 227.02 58.1826 227.077 58.459 227.197C58.7405 227.311 58.9652 227.469 59.1329 227.671L59.0847 225.572L59.9919 225.551L60.1261 231.389L59.2188 231.41L59.2038 230.755C59.0614 230.969 58.8602 231.147 58.6004 231.29C58.3459 231.433 58.0503 231.508 57.7137 231.516C57.335 231.524 56.9857 231.438 56.6658 231.256C56.351 231.068 56.0977 230.806 55.9058 230.468C55.719 230.125 55.6205 229.735 55.6105 229.299ZM59.1688 229.233C59.1619 228.933 59.0928 228.674 58.9615 228.456C58.8355 228.238 58.6712 228.073 58.4687 227.962C58.2662 227.851 58.0492 227.798 57.8178 227.804C57.5864 227.809 57.3721 227.872 57.1749 227.992C56.9776 228.107 56.8184 228.276 56.6972 228.5C56.5812 228.719 56.5266 228.978 56.5335 229.278C56.5404 229.577 56.6069 229.839 56.7331 230.062C56.8645 230.286 57.0316 230.455 57.2342 230.572C57.442 230.683 57.6589 230.736 57.8851 230.73C58.1165 230.725 58.3308 230.662 58.528 230.542C58.7252 230.422 58.8817 230.25 58.9976 230.026C59.1186 229.797 59.1757 229.533 59.1688 229.233ZM63.0064 229.129C62.9964 228.692 63.0769 228.304 63.248 227.963C63.4243 227.622 63.6656 227.356 63.9716 227.165C64.2828 226.968 64.6278 226.866 65.0064 226.857C65.3483 226.849 65.647 226.911 65.9026 227.042C66.1633 227.167 66.3723 227.328 66.5294 227.524L66.5149 226.893L67.4221 226.873L67.522 231.219L66.6148 231.24L66.5999 230.593C66.4521 230.802 66.2483 230.978 65.9884 231.12C65.7286 231.263 65.4304 231.338 65.0938 231.346C64.7204 231.355 64.3764 231.268 64.0617 231.086C63.747 230.898 63.4936 230.636 63.3017 230.298C63.1149 229.955 63.0165 229.565 63.0064 229.129ZM66.5647 229.063C66.5578 228.763 66.4887 228.504 66.3574 228.286C66.2314 228.068 66.0671 227.903 65.8646 227.792C65.6621 227.681 65.4451 227.628 65.2137 227.634C64.9823 227.639 64.768 227.702 64.5708 227.822C64.3735 227.937 64.2143 228.107 64.0931 228.33C63.9771 228.549 63.9226 228.808 63.9294 229.108C63.9363 229.407 64.0029 229.669 64.129 229.892C64.2604 230.116 64.4275 230.285 64.6301 230.402C64.8379 230.513 65.0548 230.566 65.281 230.56C65.5124 230.555 65.7267 230.492 65.9239 230.372C66.1211 230.252 66.2776 230.08 66.3935 229.856C66.5145 229.627 66.5716 229.363 66.5647 229.063ZM70.7949 226.724C71.1367 226.716 71.4434 226.78 71.7149 226.916C71.9916 227.052 72.2095 227.257 72.3684 227.532C72.5273 227.808 72.6113 228.142 72.6204 228.537L72.6793 231.101L71.7878 231.121L71.732 228.691C71.723 228.302 71.6189 228.007 71.4196 227.807C71.2202 227.601 70.9522 227.502 70.6156 227.51C70.279 227.517 70.0132 227.629 69.8182 227.844C69.6283 228.053 69.5378 228.353 69.5467 228.742L69.6026 231.172L68.7032 231.192L68.6033 226.845L69.5027 226.825L69.5141 227.322C69.6573 227.14 69.8408 226.996 70.0646 226.891C70.2937 226.785 70.5371 226.73 70.7949 226.724ZM75.7135 231.102C75.3033 231.112 74.9304 231.028 74.5949 230.852C74.2592 230.67 73.9928 230.413 73.7957 230.081C73.5985 229.743 73.4948 229.351 73.4845 228.904C73.4744 228.462 73.5627 228.068 73.7494 227.722C73.9361 227.375 74.1957 227.106 74.5281 226.914C74.8604 226.723 75.2344 226.622 75.6498 226.612C76.0653 226.603 76.4435 226.686 76.7843 226.863C77.1251 227.039 77.3968 227.296 77.5992 227.633C77.8017 227.971 77.908 228.36 77.9181 228.802C77.9283 229.244 77.8374 229.638 77.6454 229.984C77.4534 230.331 77.186 230.603 76.8432 230.8C76.5056 230.992 76.129 231.093 75.7135 231.102ZM75.6956 230.321C75.927 230.316 76.1414 230.256 76.3387 230.141C76.5413 230.025 76.7031 229.856 76.8243 229.632C76.9454 229.408 77.0024 229.139 76.9951 228.823C76.9879 228.508 76.9213 228.243 76.7954 228.031C76.6693 227.812 76.5051 227.65 76.3027 227.545C76.1003 227.439 75.8834 227.388 75.652 227.394C75.4206 227.399 75.2062 227.459 75.0089 227.574C74.8169 227.689 74.6655 227.858 74.5549 228.082C74.4441 228.3 74.3924 228.567 74.3996 228.883C74.4104 229.351 74.5371 229.711 74.7797 229.963C75.0274 230.21 75.3327 230.329 75.6956 230.321ZM79.8234 227.322L79.8787 229.728C79.8825 229.891 79.922 230.008 79.9973 230.08C80.0778 230.147 80.21 230.178 80.3941 230.174L80.9463 230.161L80.9636 230.91L80.2536 230.927C79.8486 230.936 79.5361 230.849 79.3161 230.664C79.0962 230.48 78.9813 230.175 78.9715 229.749L78.9162 227.342L78.4034 227.354L78.3865 226.621L78.8993 226.609L78.8745 225.528L79.7817 225.507L79.8066 226.588L80.8637 226.564L80.8805 227.297L79.8234 227.322ZM83.9393 226.422C84.2706 226.414 84.5668 226.479 84.8278 226.615C85.094 226.751 85.3039 226.956 85.4576 227.232C85.6165 227.507 85.7005 227.842 85.7096 228.236L85.7685 230.8L84.8771 230.821L84.8212 228.391C84.8123 228.002 84.7081 227.707 84.5088 227.506C84.3094 227.3 84.0414 227.201 83.7048 227.209C83.3682 227.216 83.1024 227.328 82.9074 227.543C82.7175 227.752 82.627 228.052 82.636 228.441L82.6918 230.871L81.7925 230.891L81.6583 225.054L82.5577 225.033L82.6035 227.029C82.7518 226.841 82.9405 226.695 83.1696 226.59C83.404 226.484 83.6606 226.428 83.9393 226.422ZM90.8472 228.402C90.851 228.565 90.8438 228.713 90.8258 228.845L87.5046 228.921C87.5388 229.268 87.6741 229.543 87.9103 229.748C88.1466 229.953 88.433 230.052 88.7696 230.044C89.2534 230.033 89.5907 229.823 89.7812 229.413L90.7515 229.391C90.6292 229.794 90.3975 230.128 90.0563 230.394C89.7203 230.654 89.2971 230.79 88.787 230.802C88.3715 230.811 87.996 230.728 87.6604 230.551C87.33 230.369 87.0662 230.112 86.8692 229.78C86.6772 229.443 86.5761 229.05 86.5659 228.603C86.5556 228.156 86.636 227.762 86.8071 227.422C86.9833 227.075 87.2323 226.807 87.5542 226.615C87.8813 226.423 88.2578 226.323 88.6838 226.313C89.0941 226.303 89.4616 226.384 89.7866 226.556C90.1115 226.727 90.3671 226.974 90.5534 227.296C90.7396 227.613 90.8375 227.981 90.8472 228.402ZM89.9019 228.14C89.889 227.809 89.7646 227.546 89.5286 227.351C89.2926 227.157 89.0037 227.063 88.6618 227.071C88.3515 227.078 88.0882 227.184 87.8719 227.389C87.6555 227.589 87.5301 227.857 87.4958 228.195L89.9019 228.14ZM92.5986 226.925C92.725 226.701 92.8946 226.527 93.1075 226.401C93.3255 226.269 93.5844 226.2 93.8842 226.193L93.9055 227.124L93.6768 227.13C93.3244 227.138 93.0582 227.233 92.8783 227.416C92.7035 227.599 92.6213 227.912 92.6314 228.353L92.684 230.641L91.7847 230.662L91.6848 226.315L92.5841 226.294L92.5986 226.925ZM97.635 225.042L97.761 230.524L96.8616 230.545L96.7356 225.062L97.635 225.042ZM104.102 225.959C104.444 225.951 104.751 226.015 105.022 226.151C105.299 226.286 105.517 226.492 105.676 226.767C105.84 227.042 105.927 227.377 105.936 227.771L105.994 230.335L105.103 230.356L105.047 227.926C105.038 227.537 104.934 227.242 104.735 227.041C104.535 226.835 104.267 226.736 103.931 226.744C103.594 226.752 103.328 226.863 103.133 227.078C102.943 227.288 102.853 227.587 102.862 227.976L102.918 230.406L102.026 230.426L101.97 227.997C101.962 227.607 101.857 227.313 101.658 227.112C101.459 226.906 101.191 226.807 100.854 226.815C100.517 226.822 100.252 226.934 100.057 227.149C99.8668 227.358 99.7763 227.658 99.7852 228.047L99.8411 230.477L98.9417 230.497L98.8418 226.15L99.7412 226.13L99.7526 226.627C99.8958 226.445 100.079 226.301 100.303 226.196C100.527 226.091 100.768 226.035 101.025 226.029C101.373 226.021 101.685 226.088 101.961 226.229C102.238 226.37 102.454 226.578 102.607 226.853C102.733 226.587 102.933 226.375 103.208 226.216C103.483 226.052 103.781 225.966 104.102 225.959ZM106.789 228.123C106.779 227.686 106.859 227.298 107.03 226.957C107.207 226.616 107.448 226.35 107.754 226.159C108.065 225.962 108.41 225.86 108.789 225.851C109.131 225.843 109.429 225.905 109.685 226.035C109.946 226.161 110.155 226.322 110.312 226.518L110.297 225.887L111.204 225.866L111.304 230.213L110.397 230.234L110.382 229.587C110.234 229.796 110.031 229.971 109.771 230.114C109.511 230.257 109.213 230.332 108.876 230.34C108.503 230.349 108.159 230.262 107.844 230.08C107.529 229.892 107.276 229.63 107.084 229.292C106.897 228.949 106.799 228.559 106.789 228.123ZM110.347 228.057C110.34 227.757 110.271 227.498 110.14 227.28C110.014 227.062 109.849 226.897 109.647 226.786C109.444 226.675 109.227 226.622 108.996 226.628C108.765 226.633 108.55 226.696 108.353 226.816C108.156 226.931 107.997 227.1 107.875 227.324C107.759 227.543 107.705 227.802 107.712 228.101C107.719 228.401 107.785 228.663 107.911 228.886C108.043 229.109 108.21 229.279 108.412 229.396C108.62 229.507 108.837 229.56 109.063 229.554C109.295 229.549 109.509 229.486 109.706 229.366C109.903 229.246 110.06 229.074 110.176 228.85C110.297 228.621 110.354 228.356 110.347 228.057ZM114.135 225.728C114.472 225.72 114.771 225.782 115.032 225.913C115.297 226.038 115.506 226.199 115.658 226.395L115.644 225.764L116.551 225.744L116.653 230.161C116.662 230.561 116.586 230.918 116.425 231.232C116.264 231.552 116.025 231.804 115.708 231.991C115.396 232.177 115.02 232.275 114.578 232.285C113.989 232.298 113.497 232.17 113.101 231.901C112.706 231.636 112.476 231.268 112.413 230.796L113.304 230.775C113.378 231 113.527 231.178 113.751 231.309C113.98 231.446 114.25 231.511 114.56 231.504C114.923 231.496 115.212 231.378 115.428 231.152C115.649 230.926 115.755 230.603 115.745 230.182L115.729 229.456C115.581 229.665 115.377 229.843 115.117 229.991C114.863 230.134 114.57 230.209 114.238 230.217C113.86 230.226 113.511 230.139 113.191 229.957C112.876 229.769 112.622 229.507 112.431 229.169C112.244 228.826 112.145 228.436 112.135 228C112.125 227.563 112.206 227.175 112.377 226.834C112.553 226.493 112.794 226.227 113.101 226.036C113.412 225.839 113.757 225.737 114.135 225.728ZM115.694 227.934C115.687 227.634 115.618 227.375 115.486 227.157C115.36 226.939 115.196 226.774 114.994 226.663C114.791 226.552 114.574 226.499 114.343 226.505C114.111 226.51 113.897 226.573 113.7 226.693C113.502 226.808 113.343 226.978 113.222 227.201C113.106 227.42 113.051 227.679 113.058 227.979C113.065 228.278 113.132 228.54 113.258 228.763C113.389 228.987 113.556 229.156 113.759 229.273C113.967 229.384 114.184 229.437 114.41 229.431C114.641 229.426 114.856 229.363 115.053 229.243C115.25 229.123 115.407 228.951 115.522 228.727C115.643 228.498 115.701 228.234 115.694 227.934ZM121.764 227.692C121.767 227.855 121.76 228.002 121.742 228.134L118.421 228.211C118.455 228.557 118.591 228.833 118.827 229.038C119.063 229.243 119.349 229.342 119.686 229.334C120.17 229.323 120.507 229.112 120.698 228.703L121.668 228.681C121.546 229.083 121.314 229.417 120.973 229.683C120.637 229.943 120.214 230.079 119.703 230.091C119.288 230.101 118.912 230.017 118.577 229.841C118.246 229.659 117.983 229.402 117.786 229.07C117.594 228.732 117.493 228.34 117.482 227.893C117.472 227.446 117.552 227.052 117.724 226.711C117.9 226.365 118.149 226.096 118.471 225.905C118.798 225.713 119.174 225.612 119.6 225.602C120.011 225.593 120.378 225.674 120.703 225.845C121.028 226.017 121.284 226.264 121.47 226.586C121.656 226.902 121.754 227.271 121.764 227.692ZM120.818 227.429C120.805 227.098 120.681 226.835 120.445 226.641C120.209 226.446 119.92 226.353 119.578 226.361C119.268 226.368 119.005 226.474 118.788 226.679C118.572 226.878 118.447 227.147 118.412 227.485L120.818 227.429Z" fill="#6200EE"/>
</svg>
