<svg width="1601" height="783" viewBox="0 0 1601 783" fill="none" xmlns="http://www.w3.org/2000/svg">
<path opacity="0.5" d="M1458.46 745.922C1471.37 543.757 1488.21 337.867 1506.03 135.841C1507.57 120.523 1505.61 128.113 1506.45 130.183C1508.13 138.325 1517.4 140.119 1523.85 135.427C1439.66 234.646 1279.42 422.183 1194.11 520.574C1140.65 582.81 1086.91 644.908 1032.75 706.455C1023.77 717.356 852.306 912.483 850.482 914.967C778.782 1012.25 627.663 970.441 619.245 851.074C617.982 837.827 615.316 811.47 614.053 797.808C592.024 573.702 582.763 344.767 574.344 119.557C576.449 133.633 594.549 160.404 622.472 158.886C636.784 159.852 657.27 147.156 661.339 137.359C656.849 144.258 511.764 347.251 503.205 359.532C312.799 626.417 118.744 890.955 -80.9228 1152.04C-84.2903 1156.46 -90.6044 1157.29 -94.9542 1153.98C-99.0233 1150.94 -100.146 1145.56 -97.7605 1141.42C100.784 777.661 313.219 412.799 525.515 56.493C563.259 -12.0911 666.811 -20.2328 715.921 43.1074C733.46 64.2208 739.634 89.4741 741.598 115.417C766.715 336.901 791.129 562.111 802.635 784.56C803.477 799.188 804.88 826.373 805.722 841.139C802.354 792.84 737.67 770.209 704.556 807.606C711.712 800.292 731.215 780.834 738.932 772.969C900.153 609.581 1098.28 411.419 1261.46 249.964L1437.42 77.1924C1448.92 65.6007 1461.83 52.4911 1478.11 46.2813C1534.93 20.89 1604.25 66.4287 1600.88 127.423C1602 136.807 1576.47 255.621 1574.78 268.593C1543.35 428.668 1511.64 588.744 1476.84 748.405C1474.18 759.307 1457.9 757.099 1458.46 745.922Z" fill="url(#paint0_linear_1_11421)"/>
<defs>
<linearGradient id="paint0_linear_1_11421" x1="-39.3394" y1="532.586" x2="1782.58" y2="84.369" gradientUnits="userSpaceOnUse">
<stop stop-color="#00DDD0"/>
<stop offset="1" stop-color="#6100DD"/>
</linearGradient>
</defs>
</svg>
