<svg width="763" height="356" viewBox="0 0 763 356" fill="none" xmlns="http://www.w3.org/2000/svg">
<rect width="763" height="356" rx="16" fill="#170037"/>
<path d="M64.582 71.9961H72.4043V73.4414H66.0762V77.7969H71.7207V79.2422H66.0762V84.5645H72.4043V86H64.582V71.9961ZM86.2715 76.0781C87.4694 76.0781 88.4264 76.4492 89.1426 77.1914C89.8652 77.9271 90.2266 78.9232 90.2266 80.1797V86H88.7715V80.4043C88.7715 79.4863 88.5273 78.7604 88.0391 78.2266C87.5508 77.6862 86.8867 77.416 86.0469 77.416C85.487 77.416 84.9401 77.582 84.4062 77.9141C83.8789 78.2461 83.472 78.6562 83.1855 79.1445C83.2441 79.4375 83.2832 79.7305 83.3027 80.0234V86H81.8477V80.4043C81.8477 79.4863 81.6003 78.7604 81.1055 78.2266C80.6172 77.6862 79.9629 77.416 79.1426 77.416C78.5501 77.416 78.0098 77.5723 77.5215 77.8848C77.0332 78.1908 76.6556 78.5944 76.3887 79.0957V86H74.9238V76.2832H76.3887V77.7383C76.6947 77.2956 77.1113 76.9082 77.6387 76.5762C78.166 76.2441 78.8073 76.0781 79.5625 76.0781C81.1055 76.0781 82.1862 76.6999 82.8047 77.9434C83.1953 77.4225 83.6901 76.9831 84.2891 76.625C84.888 76.2604 85.5488 76.0781 86.2715 76.0781ZM100.715 76.2832H102.17V86H100.715V84.4766C100.435 84.9648 99.9727 85.375 99.3281 85.707C98.6836 86.0326 98.013 86.1953 97.3164 86.1953C95.9362 86.1953 94.7806 85.7103 93.8496 84.7402C92.9186 83.7637 92.4531 82.556 92.4531 81.1172C92.4531 79.6849 92.9186 78.487 93.8496 77.5234C94.7806 76.5599 95.9362 76.0781 97.3164 76.0781C98.0195 76.0781 98.6934 76.2441 99.3379 76.5762C99.9889 76.9017 100.448 77.3086 100.715 77.7969V76.2832ZM97.5508 84.8184C98.1888 84.8184 98.804 84.6523 99.3965 84.3203C99.9889 83.9883 100.428 83.5684 100.715 83.0605V79.2422C100.435 78.7083 99.9987 78.2754 99.4062 77.9434C98.8203 77.6048 98.2018 77.4355 97.5508 77.4355C96.5091 77.4355 95.6367 77.7871 94.9336 78.4902C94.237 79.1868 93.8887 80.0625 93.8887 81.1172C93.8887 82.1719 94.237 83.054 94.9336 83.7637C95.6367 84.4668 96.5091 84.8184 97.5508 84.8184ZM105.705 72.0352C105.985 72.0352 106.232 72.1393 106.447 72.3477C106.662 72.556 106.77 72.8001 106.77 73.0801C106.77 73.3665 106.662 73.6172 106.447 73.832C106.232 74.0404 105.985 74.1445 105.705 74.1445C105.419 74.1445 105.174 74.0404 104.973 73.832C104.771 73.6237 104.67 73.373 104.67 73.0801C104.67 72.8001 104.771 72.556 104.973 72.3477C105.174 72.1393 105.419 72.0352 105.705 72.0352ZM104.963 76.2832H106.428V86H104.963V76.2832ZM110.744 71.9961V86H109.279V71.9961H110.744ZM128.166 86L126.809 82.582H120.188L118.82 86H117.229L122.824 71.9961H124.182L129.807 86H128.166ZM120.764 81.1367H126.242L123.508 74.2227L120.764 81.1367ZM139.152 71.9961H140.607V86H139.152V84.4766C138.872 84.9648 138.41 85.375 137.766 85.707C137.121 86.0326 136.451 86.1953 135.754 86.1953C134.374 86.1953 133.218 85.7103 132.287 84.7402C131.356 83.7637 130.891 82.556 130.891 81.1172C130.891 79.6849 131.356 78.487 132.287 77.5234C133.218 76.5599 134.374 76.0781 135.754 76.0781C136.457 76.0781 137.131 76.2441 137.775 76.5762C138.426 76.9017 138.885 77.3086 139.152 77.7969V71.9961ZM135.988 84.8184C136.626 84.8184 137.242 84.6523 137.834 84.3203C138.426 83.9883 138.866 83.5684 139.152 83.0605V79.2422C138.872 78.7083 138.436 78.2754 137.844 77.9434C137.258 77.6048 136.639 77.4355 135.988 77.4355C134.947 77.4355 134.074 77.7871 133.371 78.4902C132.674 79.1868 132.326 80.0625 132.326 81.1172C132.326 82.1719 132.674 83.054 133.371 83.7637C134.074 84.4668 134.947 84.8184 135.988 84.8184ZM150.793 71.9961H152.248V86H150.793V84.4766C150.513 84.9648 150.051 85.375 149.406 85.707C148.762 86.0326 148.091 86.1953 147.395 86.1953C146.014 86.1953 144.859 85.7103 143.928 84.7402C142.997 83.7637 142.531 82.556 142.531 81.1172C142.531 79.6849 142.997 78.487 143.928 77.5234C144.859 76.5599 146.014 76.0781 147.395 76.0781C148.098 76.0781 148.771 76.2441 149.416 76.5762C150.067 76.9017 150.526 77.3086 150.793 77.7969V71.9961ZM147.629 84.8184C148.267 84.8184 148.882 84.6523 149.475 84.3203C150.067 83.9883 150.507 83.5684 150.793 83.0605V79.2422C150.513 78.7083 150.077 78.2754 149.484 77.9434C148.898 77.6048 148.28 77.4355 147.629 77.4355C146.587 77.4355 145.715 77.7871 145.012 78.4902C144.315 79.1868 143.967 80.0625 143.967 81.1172C143.967 82.1719 144.315 83.054 145.012 83.7637C145.715 84.4668 146.587 84.8184 147.629 84.8184ZM159.162 76.0781C159.54 76.0781 159.868 76.127 160.148 76.2246V77.6016C159.79 77.4779 159.429 77.416 159.064 77.416C158.622 77.416 158.16 77.5885 157.678 77.9336C157.196 78.2721 156.805 78.7279 156.506 79.3008V86H155.041V76.2832H156.506V77.8164C156.766 77.2956 157.147 76.8757 157.648 76.5566C158.15 76.2376 158.654 76.0781 159.162 76.0781ZM170.275 80.8438C170.275 81.1367 170.269 81.3223 170.256 81.4004H162.111C162.183 82.4421 162.541 83.2819 163.186 83.9199C163.83 84.5579 164.66 84.877 165.676 84.877C166.457 84.877 167.128 84.7012 167.688 84.3496C168.254 83.9915 168.602 83.5163 168.732 82.9238H170.197C170.008 83.9069 169.494 84.6979 168.654 85.2969C167.814 85.8958 166.809 86.1953 165.637 86.1953C164.224 86.1953 163.042 85.707 162.092 84.7305C161.148 83.7539 160.676 82.5365 160.676 81.0781C160.676 79.6784 161.154 78.4967 162.111 77.5332C163.068 76.5632 164.237 76.0781 165.617 76.0781C166.483 76.0781 167.271 76.2832 167.98 76.6934C168.69 77.097 169.25 77.6634 169.66 78.3926C170.07 79.1217 170.275 79.9388 170.275 80.8438ZM162.18 80.1602H168.713C168.641 79.3529 168.312 78.6921 167.727 78.1777C167.147 77.6569 166.424 77.3965 165.559 77.3965C164.699 77.3965 163.964 77.6471 163.352 78.1484C162.74 78.6497 162.349 79.3203 162.18 80.1602ZM175.705 86.1953C174.611 86.1953 173.706 85.9186 172.99 85.3652C172.274 84.8118 171.867 84.0632 171.77 83.1191H173.166C173.231 83.6725 173.492 84.1152 173.947 84.4473C174.403 84.7728 174.969 84.9355 175.646 84.9355C176.324 84.9355 176.867 84.7826 177.277 84.4766C177.694 84.1641 177.902 83.7637 177.902 83.2754C177.902 82.9499 177.818 82.6764 177.648 82.4551C177.479 82.2272 177.255 82.0579 176.975 81.9473C176.701 81.8366 176.389 81.7357 176.037 81.6445C175.686 81.5534 175.324 81.4785 174.953 81.4199C174.582 81.3613 174.221 81.2702 173.869 81.1465C173.518 81.0228 173.202 80.8763 172.922 80.707C172.648 80.5312 172.427 80.2839 172.258 79.9648C172.089 79.6393 172.004 79.252 172.004 78.8027C172.004 78.002 172.32 77.3477 172.951 76.8398C173.583 76.332 174.419 76.0781 175.461 76.0781C176.418 76.0781 177.242 76.332 177.932 76.8398C178.628 77.3411 179.032 78.015 179.143 78.8613H177.668C177.596 78.4056 177.352 78.0312 176.936 77.7383C176.519 77.4453 176.014 77.2988 175.422 77.2988C174.829 77.2988 174.348 77.429 173.977 77.6895C173.612 77.9434 173.43 78.2786 173.43 78.6953C173.43 79.0469 173.537 79.3333 173.752 79.5547C173.973 79.776 174.257 79.9388 174.602 80.043C174.947 80.1471 175.327 80.2383 175.744 80.3164C176.167 80.388 176.587 80.4792 177.004 80.5898C177.427 80.7005 177.811 80.847 178.156 81.0293C178.501 81.2116 178.781 81.4883 178.996 81.8594C179.217 82.2305 179.328 82.6895 179.328 83.2363C179.328 84.0957 178.983 84.8053 178.293 85.3652C177.609 85.9186 176.747 86.1953 175.705 86.1953ZM184.748 86.1953C183.654 86.1953 182.749 85.9186 182.033 85.3652C181.317 84.8118 180.91 84.0632 180.812 83.1191H182.209C182.274 83.6725 182.535 84.1152 182.99 84.4473C183.446 84.7728 184.012 84.9355 184.689 84.9355C185.367 84.9355 185.91 84.7826 186.32 84.4766C186.737 84.1641 186.945 83.7637 186.945 83.2754C186.945 82.9499 186.861 82.6764 186.691 82.4551C186.522 82.2272 186.298 82.0579 186.018 81.9473C185.744 81.8366 185.432 81.7357 185.08 81.6445C184.729 81.5534 184.367 81.4785 183.996 81.4199C183.625 81.3613 183.264 81.2702 182.912 81.1465C182.561 81.0228 182.245 80.8763 181.965 80.707C181.691 80.5312 181.47 80.2839 181.301 79.9648C181.132 79.6393 181.047 79.252 181.047 78.8027C181.047 78.002 181.363 77.3477 181.994 76.8398C182.626 76.332 183.462 76.0781 184.504 76.0781C185.461 76.0781 186.285 76.332 186.975 76.8398C187.671 77.3411 188.075 78.015 188.186 78.8613H186.711C186.639 78.4056 186.395 78.0312 185.979 77.7383C185.562 77.4453 185.057 77.2988 184.465 77.2988C183.872 77.2988 183.391 77.429 183.02 77.6895C182.655 77.9434 182.473 78.2786 182.473 78.6953C182.473 79.0469 182.58 79.3333 182.795 79.5547C183.016 79.776 183.299 79.9388 183.645 80.043C183.99 80.1471 184.37 80.2383 184.787 80.3164C185.21 80.388 185.63 80.4792 186.047 80.5898C186.47 80.7005 186.854 80.847 187.199 81.0293C187.544 81.2116 187.824 81.4883 188.039 81.8594C188.26 82.2305 188.371 82.6895 188.371 83.2363C188.371 84.0957 188.026 84.8053 187.336 85.3652C186.652 85.9186 185.79 86.1953 184.748 86.1953Z" fill="white"/>
<rect x="63" y="114" width="637" height="68" rx="16" fill="white" fill-opacity="0.1"/>
<path d="M96.582 139.996H104.404V141.441H98.0762V145.797H103.721V147.242H98.0762V152.564H104.404V154H96.582V139.996ZM111.787 144.078C112.998 144.078 113.968 144.472 114.697 145.26C115.426 146.048 115.791 147.096 115.791 148.404V154H114.326V148.6C114.326 147.662 114.066 146.913 113.545 146.354C113.024 145.787 112.337 145.504 111.484 145.504C110.84 145.504 110.234 145.66 109.668 145.973C109.108 146.279 108.682 146.695 108.389 147.223V154H106.924V144.283H108.389V145.797C108.708 145.27 109.173 144.853 109.785 144.547C110.404 144.234 111.071 144.078 111.787 144.078ZM123.037 145.641H120.322V150.719C120.322 152.066 121.003 152.74 122.363 152.74C122.637 152.74 122.861 152.714 123.037 152.662V154C122.744 154.065 122.432 154.098 122.1 154.098C121.084 154.098 120.29 153.818 119.717 153.258C119.144 152.691 118.857 151.852 118.857 150.738V145.641H116.943V144.283H118.857V141.598H120.322V144.283H123.037V145.641ZM133.447 148.844C133.447 149.137 133.441 149.322 133.428 149.4H125.283C125.355 150.442 125.713 151.282 126.357 151.92C127.002 152.558 127.832 152.877 128.848 152.877C129.629 152.877 130.299 152.701 130.859 152.35C131.426 151.992 131.774 151.516 131.904 150.924H133.369C133.18 151.907 132.666 152.698 131.826 153.297C130.986 153.896 129.98 154.195 128.809 154.195C127.396 154.195 126.214 153.707 125.264 152.73C124.32 151.754 123.848 150.536 123.848 149.078C123.848 147.678 124.326 146.497 125.283 145.533C126.24 144.563 127.409 144.078 128.789 144.078C129.655 144.078 130.443 144.283 131.152 144.693C131.862 145.097 132.422 145.663 132.832 146.393C133.242 147.122 133.447 147.939 133.447 148.844ZM125.352 148.16H131.885C131.813 147.353 131.484 146.692 130.898 146.178C130.319 145.657 129.596 145.396 128.73 145.396C127.871 145.396 127.135 145.647 126.523 146.148C125.911 146.65 125.521 147.32 125.352 148.16ZM139.814 144.078C140.192 144.078 140.521 144.127 140.801 144.225V145.602C140.443 145.478 140.081 145.416 139.717 145.416C139.274 145.416 138.812 145.589 138.33 145.934C137.848 146.272 137.458 146.728 137.158 147.301V154H135.693V144.283H137.158V145.816C137.419 145.296 137.799 144.876 138.301 144.557C138.802 144.238 139.307 144.078 139.814 144.078ZM152.529 145.641H149.814V150.719C149.814 152.066 150.495 152.74 151.855 152.74C152.129 152.74 152.354 152.714 152.529 152.662V154C152.236 154.065 151.924 154.098 151.592 154.098C150.576 154.098 149.782 153.818 149.209 153.258C148.636 152.691 148.35 151.852 148.35 150.738V145.641H146.436V144.283H148.35V141.598H149.814V144.283H152.529V145.641ZM159.424 144.078C160.628 144.078 161.595 144.472 162.324 145.26C163.06 146.048 163.428 147.096 163.428 148.404V154H161.963V148.6C161.963 147.662 161.702 146.913 161.182 146.354C160.661 145.787 159.974 145.504 159.121 145.504C158.477 145.504 157.871 145.66 157.305 145.973C156.745 146.279 156.318 146.695 156.025 147.223V154H154.561V139.996H156.025V145.797C156.344 145.27 156.81 144.853 157.422 144.547C158.04 144.234 158.708 144.078 159.424 144.078ZM175.244 148.844C175.244 149.137 175.238 149.322 175.225 149.4H167.08C167.152 150.442 167.51 151.282 168.154 151.92C168.799 152.558 169.629 152.877 170.645 152.877C171.426 152.877 172.096 152.701 172.656 152.35C173.223 151.992 173.571 151.516 173.701 150.924H175.166C174.977 151.907 174.463 152.698 173.623 153.297C172.783 153.896 171.777 154.195 170.605 154.195C169.193 154.195 168.011 153.707 167.061 152.73C166.117 151.754 165.645 150.536 165.645 149.078C165.645 147.678 166.123 146.497 167.08 145.533C168.037 144.563 169.206 144.078 170.586 144.078C171.452 144.078 172.24 144.283 172.949 144.693C173.659 145.097 174.219 145.663 174.629 146.393C175.039 147.122 175.244 147.939 175.244 148.844ZM167.148 148.16H173.682C173.61 147.353 173.281 146.692 172.695 146.178C172.116 145.657 171.393 145.396 170.527 145.396C169.668 145.396 168.932 145.647 168.32 146.148C167.708 146.65 167.318 147.32 167.148 148.16ZM191.338 148.844C191.338 149.137 191.331 149.322 191.318 149.4H183.174C183.245 150.442 183.604 151.282 184.248 151.92C184.893 152.558 185.723 152.877 186.738 152.877C187.52 152.877 188.19 152.701 188.75 152.35C189.316 151.992 189.665 151.516 189.795 150.924H191.26C191.071 151.907 190.557 152.698 189.717 153.297C188.877 153.896 187.871 154.195 186.699 154.195C185.286 154.195 184.105 153.707 183.154 152.73C182.21 151.754 181.738 150.536 181.738 149.078C181.738 147.678 182.217 146.497 183.174 145.533C184.131 144.563 185.299 144.078 186.68 144.078C187.546 144.078 188.333 144.283 189.043 144.693C189.753 145.097 190.312 145.663 190.723 146.393C191.133 147.122 191.338 147.939 191.338 148.844ZM183.242 148.16H189.775C189.704 147.353 189.375 146.692 188.789 146.178C188.21 145.657 187.487 145.396 186.621 145.396C185.762 145.396 185.026 145.647 184.414 146.148C183.802 146.65 183.411 147.32 183.242 148.16ZM204.932 144.078C206.13 144.078 207.087 144.449 207.803 145.191C208.525 145.927 208.887 146.923 208.887 148.18V154H207.432V148.404C207.432 147.486 207.188 146.76 206.699 146.227C206.211 145.686 205.547 145.416 204.707 145.416C204.147 145.416 203.6 145.582 203.066 145.914C202.539 146.246 202.132 146.656 201.846 147.145C201.904 147.438 201.943 147.73 201.963 148.023V154H200.508V148.404C200.508 147.486 200.26 146.76 199.766 146.227C199.277 145.686 198.623 145.416 197.803 145.416C197.21 145.416 196.67 145.572 196.182 145.885C195.693 146.191 195.316 146.594 195.049 147.096V154H193.584V144.283H195.049V145.738C195.355 145.296 195.771 144.908 196.299 144.576C196.826 144.244 197.467 144.078 198.223 144.078C199.766 144.078 200.846 144.7 201.465 145.943C201.855 145.423 202.35 144.983 202.949 144.625C203.548 144.26 204.209 144.078 204.932 144.078ZM219.375 144.283H220.83V154H219.375V152.477C219.095 152.965 218.633 153.375 217.988 153.707C217.344 154.033 216.673 154.195 215.977 154.195C214.596 154.195 213.441 153.71 212.51 152.74C211.579 151.764 211.113 150.556 211.113 149.117C211.113 147.685 211.579 146.487 212.51 145.523C213.441 144.56 214.596 144.078 215.977 144.078C216.68 144.078 217.354 144.244 217.998 144.576C218.649 144.902 219.108 145.309 219.375 145.797V144.283ZM216.211 152.818C216.849 152.818 217.464 152.652 218.057 152.32C218.649 151.988 219.089 151.568 219.375 151.061V147.242C219.095 146.708 218.659 146.275 218.066 145.943C217.48 145.605 216.862 145.436 216.211 145.436C215.169 145.436 214.297 145.787 213.594 146.49C212.897 147.187 212.549 148.062 212.549 149.117C212.549 150.172 212.897 151.054 213.594 151.764C214.297 152.467 215.169 152.818 216.211 152.818ZM224.365 140.035C224.645 140.035 224.893 140.139 225.107 140.348C225.322 140.556 225.43 140.8 225.43 141.08C225.43 141.367 225.322 141.617 225.107 141.832C224.893 142.04 224.645 142.145 224.365 142.145C224.079 142.145 223.835 142.04 223.633 141.832C223.431 141.624 223.33 141.373 223.33 141.08C223.33 140.8 223.431 140.556 223.633 140.348C223.835 140.139 224.079 140.035 224.365 140.035ZM223.623 144.283H225.088V154H223.623V144.283ZM229.404 139.996V154H227.939V139.996H229.404ZM244.707 144.283H246.162V154H244.707V152.477C244.427 152.965 243.965 153.375 243.32 153.707C242.676 154.033 242.005 154.195 241.309 154.195C239.928 154.195 238.773 153.71 237.842 152.74C236.911 151.764 236.445 150.556 236.445 149.117C236.445 147.685 236.911 146.487 237.842 145.523C238.773 144.56 239.928 144.078 241.309 144.078C242.012 144.078 242.686 144.244 243.33 144.576C243.981 144.902 244.44 145.309 244.707 145.797V144.283ZM241.543 152.818C242.181 152.818 242.796 152.652 243.389 152.32C243.981 151.988 244.421 151.568 244.707 151.061V147.242C244.427 146.708 243.991 146.275 243.398 145.943C242.812 145.605 242.194 145.436 241.543 145.436C240.501 145.436 239.629 145.787 238.926 146.49C238.229 147.187 237.881 148.062 237.881 149.117C237.881 150.172 238.229 151.054 238.926 151.764C239.629 152.467 240.501 152.818 241.543 152.818ZM256.641 139.996H258.096V154H256.641V152.477C256.361 152.965 255.898 153.375 255.254 153.707C254.609 154.033 253.939 154.195 253.242 154.195C251.862 154.195 250.706 153.71 249.775 152.74C248.844 151.764 248.379 150.556 248.379 149.117C248.379 147.685 248.844 146.487 249.775 145.523C250.706 144.56 251.862 144.078 253.242 144.078C253.945 144.078 254.619 144.244 255.264 144.576C255.915 144.902 256.374 145.309 256.641 145.797V139.996ZM253.477 152.818C254.115 152.818 254.73 152.652 255.322 152.32C255.915 151.988 256.354 151.568 256.641 151.061V147.242C256.361 146.708 255.924 146.275 255.332 145.943C254.746 145.605 254.128 145.436 253.477 145.436C252.435 145.436 251.562 145.787 250.859 146.49C250.163 147.187 249.814 148.062 249.814 149.117C249.814 150.172 250.163 151.054 250.859 151.764C251.562 152.467 252.435 152.818 253.477 152.818ZM268.281 139.996H269.736V154H268.281V152.477C268.001 152.965 267.539 153.375 266.895 153.707C266.25 154.033 265.579 154.195 264.883 154.195C263.503 154.195 262.347 153.71 261.416 152.74C260.485 151.764 260.02 150.556 260.02 149.117C260.02 147.685 260.485 146.487 261.416 145.523C262.347 144.56 263.503 144.078 264.883 144.078C265.586 144.078 266.26 144.244 266.904 144.576C267.555 144.902 268.014 145.309 268.281 145.797V139.996ZM265.117 152.818C265.755 152.818 266.37 152.652 266.963 152.32C267.555 151.988 267.995 151.568 268.281 151.061V147.242C268.001 146.708 267.565 146.275 266.973 145.943C266.387 145.605 265.768 145.436 265.117 145.436C264.076 145.436 263.203 145.787 262.5 146.49C261.803 147.187 261.455 148.062 261.455 149.117C261.455 150.172 261.803 151.054 262.5 151.764C263.203 152.467 264.076 152.818 265.117 152.818ZM276.65 144.078C277.028 144.078 277.357 144.127 277.637 144.225V145.602C277.279 145.478 276.917 145.416 276.553 145.416C276.11 145.416 275.648 145.589 275.166 145.934C274.684 146.272 274.294 146.728 273.994 147.301V154H272.529V144.283H273.994V145.816C274.255 145.296 274.635 144.876 275.137 144.557C275.638 144.238 276.143 144.078 276.65 144.078ZM287.764 148.844C287.764 149.137 287.757 149.322 287.744 149.4H279.6C279.671 150.442 280.029 151.282 280.674 151.92C281.318 152.558 282.148 152.877 283.164 152.877C283.945 152.877 284.616 152.701 285.176 152.35C285.742 151.992 286.09 151.516 286.221 150.924H287.686C287.497 151.907 286.982 152.698 286.143 153.297C285.303 153.896 284.297 154.195 283.125 154.195C281.712 154.195 280.531 153.707 279.58 152.73C278.636 151.754 278.164 150.536 278.164 149.078C278.164 147.678 278.643 146.497 279.6 145.533C280.557 144.563 281.725 144.078 283.105 144.078C283.971 144.078 284.759 144.283 285.469 144.693C286.178 145.097 286.738 145.663 287.148 146.393C287.559 147.122 287.764 147.939 287.764 148.844ZM279.668 148.16H286.201C286.13 147.353 285.801 146.692 285.215 146.178C284.635 145.657 283.913 145.396 283.047 145.396C282.188 145.396 281.452 145.647 280.84 146.148C280.228 146.65 279.837 147.32 279.668 148.16ZM293.193 154.195C292.1 154.195 291.195 153.919 290.479 153.365C289.762 152.812 289.355 152.063 289.258 151.119H290.654C290.719 151.673 290.98 152.115 291.436 152.447C291.891 152.773 292.458 152.936 293.135 152.936C293.812 152.936 294.355 152.783 294.766 152.477C295.182 152.164 295.391 151.764 295.391 151.275C295.391 150.95 295.306 150.676 295.137 150.455C294.967 150.227 294.743 150.058 294.463 149.947C294.189 149.837 293.877 149.736 293.525 149.645C293.174 149.553 292.812 149.479 292.441 149.42C292.07 149.361 291.709 149.27 291.357 149.146C291.006 149.023 290.69 148.876 290.41 148.707C290.137 148.531 289.915 148.284 289.746 147.965C289.577 147.639 289.492 147.252 289.492 146.803C289.492 146.002 289.808 145.348 290.439 144.84C291.071 144.332 291.908 144.078 292.949 144.078C293.906 144.078 294.73 144.332 295.42 144.84C296.117 145.341 296.52 146.015 296.631 146.861H295.156C295.085 146.406 294.84 146.031 294.424 145.738C294.007 145.445 293.503 145.299 292.91 145.299C292.318 145.299 291.836 145.429 291.465 145.689C291.1 145.943 290.918 146.279 290.918 146.695C290.918 147.047 291.025 147.333 291.24 147.555C291.462 147.776 291.745 147.939 292.09 148.043C292.435 148.147 292.816 148.238 293.232 148.316C293.656 148.388 294.076 148.479 294.492 148.59C294.915 148.701 295.299 148.847 295.645 149.029C295.99 149.212 296.27 149.488 296.484 149.859C296.706 150.23 296.816 150.689 296.816 151.236C296.816 152.096 296.471 152.805 295.781 153.365C295.098 153.919 294.235 154.195 293.193 154.195ZM302.236 154.195C301.143 154.195 300.238 153.919 299.521 153.365C298.805 152.812 298.398 152.063 298.301 151.119H299.697C299.762 151.673 300.023 152.115 300.479 152.447C300.934 152.773 301.501 152.936 302.178 152.936C302.855 152.936 303.398 152.783 303.809 152.477C304.225 152.164 304.434 151.764 304.434 151.275C304.434 150.95 304.349 150.676 304.18 150.455C304.01 150.227 303.786 150.058 303.506 149.947C303.232 149.837 302.92 149.736 302.568 149.645C302.217 149.553 301.855 149.479 301.484 149.42C301.113 149.361 300.752 149.27 300.4 149.146C300.049 149.023 299.733 148.876 299.453 148.707C299.18 148.531 298.958 148.284 298.789 147.965C298.62 147.639 298.535 147.252 298.535 146.803C298.535 146.002 298.851 145.348 299.482 144.84C300.114 144.332 300.951 144.078 301.992 144.078C302.949 144.078 303.773 144.332 304.463 144.84C305.16 145.341 305.563 146.015 305.674 146.861H304.199C304.128 146.406 303.883 146.031 303.467 145.738C303.05 145.445 302.546 145.299 301.953 145.299C301.361 145.299 300.879 145.429 300.508 145.689C300.143 145.943 299.961 146.279 299.961 146.695C299.961 147.047 300.068 147.333 300.283 147.555C300.505 147.776 300.788 147.939 301.133 148.043C301.478 148.147 301.859 148.238 302.275 148.316C302.699 148.388 303.118 148.479 303.535 148.59C303.958 148.701 304.342 148.847 304.688 149.029C305.033 149.212 305.312 149.488 305.527 149.859C305.749 150.23 305.859 150.689 305.859 151.236C305.859 152.096 305.514 152.805 304.824 153.365C304.141 153.919 303.278 154.195 302.236 154.195ZM309.043 154.195C308.711 154.195 308.434 154.088 308.213 153.873C307.992 153.652 307.881 153.375 307.881 153.043C307.881 152.717 307.992 152.444 308.213 152.223C308.434 151.995 308.711 151.881 309.043 151.881C309.382 151.881 309.661 151.995 309.883 152.223C310.104 152.444 310.215 152.717 310.215 153.043C310.215 153.375 310.104 153.652 309.883 153.873C309.661 154.088 309.382 154.195 309.043 154.195ZM313.711 154.195C313.379 154.195 313.102 154.088 312.881 153.873C312.66 153.652 312.549 153.375 312.549 153.043C312.549 152.717 312.66 152.444 312.881 152.223C313.102 151.995 313.379 151.881 313.711 151.881C314.049 151.881 314.329 151.995 314.551 152.223C314.772 152.444 314.883 152.717 314.883 153.043C314.883 153.375 314.772 153.652 314.551 153.873C314.329 154.088 314.049 154.195 313.711 154.195ZM318.379 154.195C318.047 154.195 317.77 154.088 317.549 153.873C317.327 153.652 317.217 153.375 317.217 153.043C317.217 152.717 317.327 152.444 317.549 152.223C317.77 151.995 318.047 151.881 318.379 151.881C318.717 151.881 318.997 151.995 319.219 152.223C319.44 152.444 319.551 152.717 319.551 153.043C319.551 153.375 319.44 153.652 319.219 153.873C318.997 154.088 318.717 154.195 318.379 154.195Z" fill="white" fill-opacity="0.3"/>
<rect x="63" y="222" width="219" height="72" rx="16" fill="#6200EE"/>
<path d="M148.163 264.112C147.384 264.112 146.68 263.979 146.051 263.712C145.432 263.445 144.942 263.061 144.579 262.56C144.216 262.059 144.03 261.467 144.019 260.784H146.419C146.451 261.243 146.611 261.605 146.899 261.872C147.198 262.139 147.603 262.272 148.115 262.272C148.638 262.272 149.048 262.149 149.347 261.904C149.646 261.648 149.795 261.317 149.795 260.912C149.795 260.581 149.694 260.309 149.491 260.096C149.288 259.883 149.032 259.717 148.723 259.6C148.424 259.472 148.008 259.333 147.475 259.184C146.75 258.971 146.158 258.763 145.699 258.56C145.251 258.347 144.862 258.032 144.531 257.616C144.211 257.189 144.051 256.624 144.051 255.92C144.051 255.259 144.216 254.683 144.547 254.192C144.878 253.701 145.342 253.328 145.939 253.072C146.536 252.805 147.219 252.672 147.987 252.672C149.139 252.672 150.072 252.955 150.787 253.52C151.512 254.075 151.912 254.853 151.987 255.856H149.523C149.502 255.472 149.336 255.157 149.027 254.912C148.728 254.656 148.328 254.528 147.827 254.528C147.39 254.528 147.038 254.64 146.771 254.864C146.515 255.088 146.387 255.413 146.387 255.84C146.387 256.139 146.483 256.389 146.675 256.592C146.878 256.784 147.123 256.944 147.411 257.072C147.71 257.189 148.126 257.328 148.659 257.488C149.384 257.701 149.976 257.915 150.435 258.128C150.894 258.341 151.288 258.661 151.619 259.088C151.95 259.515 152.115 260.075 152.115 260.768C152.115 261.365 151.96 261.92 151.651 262.432C151.342 262.944 150.888 263.355 150.291 263.664C149.694 263.963 148.984 264.112 148.163 264.112ZM162.425 255.136V264H160.169V262.88C159.881 263.264 159.502 263.568 159.033 263.792C158.574 264.005 158.073 264.112 157.529 264.112C156.836 264.112 156.222 263.968 155.689 263.68C155.156 263.381 154.734 262.949 154.425 262.384C154.126 261.808 153.977 261.125 153.977 260.336V255.136H156.217V260.016C156.217 260.72 156.393 261.264 156.745 261.648C157.097 262.021 157.577 262.208 158.185 262.208C158.804 262.208 159.289 262.021 159.641 261.648C159.993 261.264 160.169 260.72 160.169 260.016V255.136H162.425ZM166.875 256.432C167.163 256.005 167.558 255.659 168.059 255.392C168.571 255.125 169.153 254.992 169.803 254.992C170.561 254.992 171.243 255.179 171.851 255.552C172.47 255.925 172.955 256.459 173.307 257.152C173.67 257.835 173.851 258.629 173.851 259.536C173.851 260.443 173.67 261.248 173.307 261.952C172.955 262.645 172.47 263.184 171.851 263.568C171.243 263.952 170.561 264.144 169.803 264.144C169.142 264.144 168.561 264.016 168.059 263.76C167.569 263.493 167.174 263.152 166.875 262.736V264H164.635V252.16H166.875V256.432ZM171.563 259.536C171.563 259.003 171.451 258.544 171.227 258.16C171.014 257.765 170.726 257.467 170.363 257.264C170.011 257.061 169.627 256.96 169.211 256.96C168.806 256.96 168.422 257.067 168.059 257.28C167.707 257.483 167.419 257.781 167.195 258.176C166.982 258.571 166.875 259.035 166.875 259.568C166.875 260.101 166.982 260.565 167.195 260.96C167.419 261.355 167.707 261.659 168.059 261.872C168.422 262.075 168.806 262.176 169.211 262.176C169.627 262.176 170.011 262.069 170.363 261.856C170.726 261.643 171.014 261.339 171.227 260.944C171.451 260.549 171.563 260.08 171.563 259.536ZM186.487 255.008C187.575 255.008 188.45 255.344 189.111 256.016C189.783 256.677 190.119 257.605 190.119 258.8V264H187.879V259.104C187.879 258.411 187.703 257.883 187.351 257.52C186.999 257.147 186.519 256.96 185.911 256.96C185.303 256.96 184.818 257.147 184.455 257.52C184.103 257.883 183.927 258.411 183.927 259.104V264H181.687V259.104C181.687 258.411 181.511 257.883 181.159 257.52C180.807 257.147 180.327 256.96 179.719 256.96C179.1 256.96 178.61 257.147 178.247 257.52C177.895 257.883 177.719 258.411 177.719 259.104V264H175.479V255.136H177.719V256.208C178.007 255.835 178.375 255.541 178.823 255.328C179.282 255.115 179.783 255.008 180.327 255.008C181.02 255.008 181.639 255.157 182.183 255.456C182.727 255.744 183.148 256.16 183.447 256.704C183.735 256.192 184.151 255.781 184.695 255.472C185.25 255.163 185.847 255.008 186.487 255.008ZM193.381 254.08C192.986 254.08 192.655 253.957 192.389 253.712C192.133 253.456 192.005 253.141 192.005 252.768C192.005 252.395 192.133 252.085 192.389 251.84C192.655 251.584 192.986 251.456 193.381 251.456C193.775 251.456 194.101 251.584 194.357 251.84C194.623 252.085 194.757 252.395 194.757 252.768C194.757 253.141 194.623 253.456 194.357 253.712C194.101 253.957 193.775 254.08 193.381 254.08ZM194.485 255.136V264H192.245V255.136H194.485ZM199.306 256.976V261.264C199.306 261.563 199.375 261.781 199.514 261.92C199.663 262.048 199.908 262.112 200.25 262.112H201.29V264H199.882C197.994 264 197.05 263.083 197.05 261.248V256.976H195.994V255.136H197.05V252.944H199.306V255.136H201.29V256.976H199.306Z" fill="white"/>
</svg>
