<svg width="403" height="264" viewBox="0 0 403 264" fill="none" xmlns="http://www.w3.org/2000/svg">
<rect x="7.11108" y="1.17522" width="395.69" height="252.004" rx="8.25463" transform="rotate(1.43756 7.11108 1.17522)" fill="white"/>
<rect x="7.11108" y="1.17522" width="395.69" height="252.004" rx="8.25463" transform="rotate(1.43756 7.11108 1.17522)" stroke="#F2F4F7" stroke-width="0.532557"/>
<path d="M27.8468 27.1776L27.8778 25.9414L30.1873 25.9993L30.012 32.9853L28.6321 32.9507L28.7764 27.2009L27.8468 27.1776ZM34.3666 33.1617C34.1239 33.1557 33.9245 33.0771 33.7684 32.9262C33.619 32.769 33.547 32.5786 33.5526 32.355C33.5582 32.1314 33.6396 31.9481 33.7966 31.805C33.9601 31.6557 34.1633 31.584 34.4061 31.5901C34.6425 31.5961 34.8354 31.6776 34.9849 31.8348C35.1345 31.9856 35.2065 32.1728 35.2009 32.3964C35.1953 32.62 35.1139 32.8065 34.9567 32.956C34.7997 33.0991 34.603 33.1677 34.3666 33.1617ZM47.6558 26.735L45.6192 33.377L44.038 33.3373L42.9022 28.5431L41.4698 33.2729L39.8979 33.243L38.2644 26.4993L39.7019 26.5354L40.7502 31.7589L42.2414 26.5991L43.7363 26.6366L44.8908 31.8341L46.2087 26.6987L47.6558 26.735ZM51.489 28.1353C51.8915 28.1454 52.247 28.2438 52.5555 28.4305C52.8642 28.6109 53.1005 28.8757 53.2644 29.225C53.4347 29.5681 53.5139 29.9792 53.5019 30.4584L53.4237 33.5729L52.0821 33.5392L52.1557 30.6068C52.1663 30.1852 52.069 29.8599 51.8638 29.631C51.6587 29.3957 51.3741 29.2735 51.0099 29.2644C50.6394 29.2551 50.3426 29.3627 50.1197 29.5872C49.9032 29.8055 49.7897 30.1255 49.7791 30.5472L49.7055 33.4796L48.3639 33.4459L48.5419 26.3545L49.8835 26.3881L49.8222 28.8318C50.0004 28.6061 50.2349 28.433 50.5256 28.3125C50.8165 28.1855 51.1376 28.1265 51.489 28.1353ZM54.4217 30.9226C54.4351 30.3859 54.5525 29.9126 54.7737 29.5026C55.0014 29.0928 55.3001 28.7807 55.6698 28.5662C56.046 28.3519 56.4609 28.2505 56.9145 28.2618C57.3106 28.2718 57.6535 28.3603 57.9434 28.5274C58.2397 28.6946 58.4742 28.9019 58.647 29.1492L58.666 28.3921L60.0172 28.426L59.884 33.735L58.5328 33.7011L58.5522 32.9249C58.3735 33.1697 58.1287 33.3713 57.8179 33.5297C57.5136 33.6819 57.1634 33.753 56.7673 33.7431C56.3201 33.7319 55.9141 33.6066 55.5494 33.3673C55.191 33.1282 54.9084 32.7983 54.7016 32.3775C54.5013 31.9506 54.408 31.4656 54.4217 30.9226ZM58.5994 31.0466C58.6075 30.7208 58.5506 30.4413 58.4286 30.2081C58.3068 29.9685 58.1388 29.7853 57.9246 29.6584C57.7106 29.5252 57.479 29.4555 57.2299 29.4492C56.9807 29.443 56.7492 29.4979 56.5353 29.614C56.3215 29.7301 56.1445 29.9046 56.0044 30.1376C55.8708 30.3644 55.8 30.6375 55.792 30.957C55.784 31.2764 55.8408 31.5591 55.9625 31.8051C56.0908 32.0448 56.2587 32.2312 56.4663 32.3643C56.6803 32.4975 56.9087 32.5672 57.1515 32.5733C57.4006 32.5795 57.6353 32.5247 57.8556 32.4087C58.076 32.2864 58.253 32.1119 58.3865 31.8851C58.5203 31.6519 58.5912 31.3724 58.5994 31.0466ZM62.8619 29.6001L62.7974 32.1684C62.7929 32.3473 62.8312 32.4793 62.9122 32.5644C62.9997 32.6433 63.1457 32.6853 63.3501 32.6905L63.973 32.7061L63.9446 33.8369L63.1013 33.8157C61.9705 33.7874 61.4189 33.2237 61.4465 32.1249L61.5107 29.5662L60.8782 29.5504L60.9059 28.4483L61.5383 28.4642L61.5713 27.1513L62.9225 27.1852L62.8895 28.4981L64.0778 28.5279L64.0502 29.63L62.8619 29.6001ZM68.0225 27.994C67.7861 27.9881 67.5899 27.9097 67.4339 27.7587C67.2844 27.6015 67.2125 27.4111 67.2181 27.1875C67.2237 26.9639 67.305 26.7806 67.462 26.6375C67.6256 26.4882 67.8256 26.4165 68.062 26.4224C68.2983 26.4283 68.4913 26.5099 68.6408 26.6671C68.7968 26.818 68.872 27.0053 68.8664 27.2289C68.8608 27.4525 68.7762 27.639 68.6126 27.7883C68.4556 27.9314 68.2589 28 68.0225 27.994ZM68.6679 28.6431L68.5346 33.9521L67.193 33.9184L67.3263 28.6094L68.6679 28.6431ZM71.8896 34.1226C71.4552 34.1117 71.0674 34.0252 70.7262 33.8632C70.3853 33.6949 70.1159 33.474 69.9182 33.2005C69.7269 32.9272 69.6258 32.6274 69.6148 32.3011L70.966 32.335C70.9864 32.5401 71.0812 32.7119 71.2503 32.8504C71.4258 32.989 71.6445 33.0616 71.9065 33.0682C72.162 33.0746 72.3613 33.0285 72.5045 32.9298C72.654 32.8313 72.7307 32.7021 72.7347 32.5424C72.7391 32.3699 72.6528 32.2399 72.476 32.1524C72.3058 32.0586 72.0303 31.9558 71.6495 31.844C71.2558 31.7382 70.9325 31.631 70.6795 31.5224C70.4329 31.4139 70.2196 31.2519 70.0396 31.0364C69.8661 30.8211 69.7838 30.5346 69.7927 30.1768C69.8001 29.8829 69.8899 29.6167 70.0621 29.3781C70.2407 29.1396 70.4883 28.9541 70.8048 28.8214C71.1278 28.6889 71.5033 28.628 71.9313 28.6387C72.5638 28.6546 73.0645 28.827 73.4334 29.1558C73.8025 29.4783 73.9995 29.9084 74.0243 30.446L72.7402 30.4138C72.7263 30.2025 72.6411 30.0341 72.4844 29.9087C72.3343 29.7771 72.1282 29.708 71.8663 29.7014C71.6235 29.6954 71.4339 29.7353 71.2975 29.8214C71.1675 29.9077 71.1005 30.0306 71.0965 30.1903C71.092 30.3692 71.178 30.5088 71.3545 30.6092C71.5311 30.7031 71.8067 30.8027 72.1812 30.908C72.5621 31.0134 72.8759 31.1204 73.1225 31.2289C73.3691 31.3373 73.5791 31.5024 73.7525 31.7241C73.9325 31.9396 74.0213 32.2231 74.0189 32.5746C74.0112 32.8813 73.918 33.1538 73.7394 33.3923C73.5672 33.6309 73.3197 33.8165 72.9967 33.949C72.6803 34.0753 72.3113 34.1332 71.8896 34.1226ZM82.5778 28.9922L79.0946 36.7294L77.6668 36.6936L78.8831 34.0775L76.8855 28.8493L78.3901 28.8871L79.6674 32.6301L81.15 28.9563L82.5778 28.9922ZM85.5231 34.4647C85.012 34.4519 84.5548 34.3285 84.1515 34.0947C83.7484 33.8544 83.4339 33.5237 83.2079 33.1025C82.9884 32.6815 82.8854 32.1994 82.899 31.6564C82.9127 31.1134 83.0429 30.6372 83.2897 30.2278C83.5429 29.8187 83.8799 29.5075 84.3008 29.2943C84.7218 29.0747 85.1879 28.9714 85.699 28.9842C86.2101 28.997 86.6703 29.1236 87.0798 29.3641C87.4895 29.5981 87.8073 29.9257 88.0333 30.3469C88.2656 30.7682 88.375 31.2504 88.3613 31.7935C88.3477 32.3365 88.2111 32.8125 87.9515 33.2216C87.6983 33.6307 87.358 33.945 86.9306 34.1644C86.5097 34.3776 86.0405 34.4777 85.5231 34.4647ZM85.5524 33.2956C85.7952 33.3017 86.0234 33.2499 86.2371 33.1402C86.4574 33.0242 86.6344 32.8497 86.7681 32.6165C86.9018 32.3833 86.9729 32.0974 86.9814 31.7588C86.994 31.2541 86.8696 30.8643 86.608 30.5892C86.353 30.3079 86.0338 30.1625 85.6505 30.1528C85.2671 30.1432 84.9411 30.2725 84.6722 30.5406C84.4099 30.8025 84.2725 31.1858 84.2598 31.6906C84.2471 32.1953 84.3619 32.5881 84.6042 32.8691C84.853 33.1438 85.1691 33.286 85.5524 33.2956ZM94.424 29.2895L94.2908 34.5984L92.9396 34.5645L92.9564 33.8937C92.7781 34.1194 92.5468 34.2958 92.2623 34.4229C91.9844 34.5438 91.6825 34.6001 91.3567 34.5919C90.9414 34.5815 90.5762 34.486 90.2611 34.3055C89.9462 34.1186 89.7003 33.8536 89.5235 33.5103C89.3533 33.1608 89.2741 32.7497 89.286 32.277L89.3642 29.1625L90.7058 29.1962L90.6324 32.119C90.6219 32.5406 90.7191 32.8691 90.9241 33.1044C91.1294 33.3333 91.414 33.4523 91.7782 33.4614C92.1487 33.4707 92.4422 33.3662 92.6587 33.1479C92.8753 32.9232 92.9889 32.6 92.9994 32.1784L93.0728 29.2556L94.424 29.2895ZM97.0687 30.1805C97.2482 29.9037 97.4773 29.6889 97.7561 29.5361C98.0412 29.3834 98.3626 29.3116 98.7204 29.3206L98.685 30.7293L98.3305 30.7204C97.9088 30.7098 97.5869 30.8008 97.3647 30.9934C97.1489 31.1862 97.0348 31.5285 97.0225 32.0204L96.9561 34.6653L95.6145 34.6317L95.7477 29.3227L97.0893 29.3563L97.0687 30.1805ZM103.987 29.4432C104.383 29.4531 104.73 29.5417 105.026 29.7089C105.322 29.8698 105.554 30.077 105.72 30.3305L105.739 29.5734L107.09 29.6073L106.956 34.9546C106.943 35.4466 106.833 35.8817 106.626 36.2601C106.418 36.6448 106.113 36.944 105.711 37.1577C105.31 37.3777 104.828 37.4807 104.265 37.4666C103.511 37.4477 102.896 37.2564 102.419 36.8928C101.949 36.5294 101.69 36.0435 101.641 35.435L102.973 35.4684C103.037 35.7129 103.183 35.9083 103.409 36.0547C103.642 36.2075 103.924 36.2881 104.256 36.2965C104.646 36.3063 104.965 36.196 105.214 35.9657C105.462 35.7418 105.593 35.3935 105.605 34.9207L105.625 34.0966C105.446 34.3414 105.202 34.543 104.891 34.7014C104.586 34.86 104.239 34.9344 103.85 34.9246C103.402 34.9134 102.996 34.7882 102.632 34.5489C102.267 34.3096 101.981 33.9796 101.774 33.5589C101.574 33.1319 101.481 32.6469 101.494 32.1039C101.508 31.5672 101.625 31.0939 101.846 30.684C102.074 30.2741 102.373 29.962 102.743 29.7475C103.119 29.5332 103.534 29.4318 103.987 29.4432ZM105.672 32.2279C105.68 31.9021 105.623 31.6226 105.501 31.3894C105.38 31.1498 105.212 30.9666 104.997 30.8397C104.783 30.7065 104.552 30.6368 104.303 30.6305C104.053 30.6243 103.822 30.6792 103.608 30.7953C103.394 30.9114 103.217 31.0859 103.077 31.3189C102.944 31.5457 102.873 31.8188 102.865 32.1383C102.857 32.4577 102.914 32.7404 103.035 32.9864C103.164 33.2261 103.331 33.4125 103.539 33.5456C103.753 33.6788 103.981 33.7485 104.224 33.7546C104.473 33.7608 104.708 33.706 104.928 33.5901C105.149 33.4677 105.326 33.2932 105.459 33.0664C105.593 32.8332 105.664 32.5537 105.672 32.2279ZM113.272 32.3036C113.267 32.4952 113.25 32.6674 113.22 32.8201L109.339 32.7227C109.362 33.1068 109.488 33.4104 109.719 33.6336C109.95 33.8567 110.238 33.9726 110.583 33.9813C111.081 33.9938 111.441 33.7887 111.663 33.3659L113.11 33.4022C112.944 33.9095 112.639 34.3238 112.197 34.6451C111.754 34.96 111.216 35.1095 110.584 35.0936C110.073 35.0808 109.616 34.9575 109.212 34.7236C108.816 34.4835 108.508 34.1529 108.288 33.7319C108.075 33.311 107.975 32.8291 107.989 32.286C108.002 31.7366 108.126 31.2571 108.36 30.8474C108.594 30.4378 108.915 30.1262 109.324 29.9127C109.732 29.6992 110.198 29.599 110.722 29.6122C111.226 29.6248 111.674 29.7447 112.065 29.9719C112.462 30.1992 112.764 30.5168 112.971 30.9248C113.184 31.3265 113.285 31.7861 113.272 32.3036ZM111.892 31.8854C111.894 31.5402 111.776 31.2624 111.539 31.0518C111.301 30.8349 111.007 30.7221 110.656 30.7132C110.323 30.7049 110.04 30.8001 109.805 30.9987C109.576 31.1912 109.432 31.4656 109.372 31.8221L111.892 31.8854ZM117.259 29.7858C117.891 29.8017 118.397 30.0157 118.777 30.428C119.157 30.8339 119.338 31.3946 119.32 32.1101L119.241 35.2246L117.9 35.1909L117.973 32.2585C117.984 31.8369 117.887 31.5116 117.681 31.2827C117.476 31.0474 117.192 30.9252 116.828 30.9161C116.457 30.9068 116.16 31.0144 115.937 31.2389C115.721 31.4572 115.607 31.7772 115.597 32.1989L115.523 35.1313L114.182 35.0976L114.315 29.7886L115.656 29.8223L115.64 30.4835C115.824 30.258 116.056 30.0848 116.334 29.964C116.618 29.8368 116.926 29.7775 117.259 29.7858ZM120.239 32.5743C120.253 32.0376 120.37 31.5643 120.591 31.1544C120.819 30.7445 121.121 30.4325 121.497 30.2182C121.873 30.0039 122.288 29.9024 122.742 29.9138C123.087 29.9225 123.414 30.0074 123.723 30.1686C124.032 30.3234 124.277 30.5277 124.456 30.7815L124.519 28.2611L125.88 28.2953L125.702 35.3867L124.341 35.3526L124.361 34.5668C124.188 34.8245 123.949 35.0295 123.645 35.1817C123.341 35.3339 122.991 35.405 122.595 35.395C122.147 35.3838 121.741 35.2586 121.377 35.0193C121.012 34.78 120.726 34.45 120.519 34.0293C120.319 33.6023 120.226 33.1173 120.239 32.5743ZM124.417 32.6983C124.425 32.3725 124.368 32.093 124.246 31.8598C124.124 31.6202 123.956 31.437 123.742 31.3101C123.528 31.1769 123.297 31.1072 123.048 31.1009C122.798 31.0947 122.567 31.1496 122.353 31.2657C122.139 31.3818 121.962 31.5563 121.822 31.7894C121.688 32.0161 121.618 32.2892 121.61 32.6087C121.602 32.9281 121.658 33.2108 121.78 33.4568C121.908 33.6965 122.076 33.883 122.284 34.016C122.498 34.1492 122.726 34.2189 122.969 34.225C123.218 34.2312 123.453 34.1764 123.673 34.0605C123.894 33.9381 124.071 33.7636 124.204 33.5368C124.338 33.3036 124.409 33.0241 124.417 32.6983ZM132.017 32.774C132.012 32.9656 131.995 33.1378 131.965 33.2905L128.084 33.1931C128.107 33.5772 128.233 33.8808 128.464 34.104C128.695 34.3271 128.983 34.443 129.328 34.4517C129.826 34.4642 130.186 34.2591 130.408 33.8363L131.855 33.8726C131.689 34.3799 131.384 34.7942 130.941 35.1155C130.499 35.4304 129.961 35.5799 129.329 35.564C128.818 35.5512 128.361 35.4279 127.957 35.194C127.561 34.9539 127.252 34.6234 127.033 34.2023C126.82 33.7814 126.72 33.2995 126.734 32.7564C126.747 32.207 126.871 31.7275 127.105 31.3178C127.339 30.9082 127.66 30.5966 128.068 30.3831C128.477 30.1696 128.943 30.0694 129.466 30.0826C129.971 30.0952 130.419 30.2151 130.809 30.4423C131.206 30.6696 131.509 30.9872 131.716 31.3952C131.929 31.7969 132.03 32.2565 132.017 32.774ZM130.637 32.3558C130.639 32.0106 130.521 31.7328 130.284 31.5223C130.046 31.3053 129.752 31.1925 129.4 31.1836C129.068 31.1753 128.785 31.2705 128.549 31.4691C128.321 31.6616 128.177 31.936 128.116 32.2925L130.637 32.3558ZM134.381 31.1168C134.56 30.8401 134.789 30.6253 135.068 30.4725C135.353 30.3198 135.675 30.2479 136.032 30.2569L135.997 31.6656L135.642 31.6567C135.221 31.6461 134.899 31.7372 134.677 31.9298C134.461 32.1225 134.347 32.4649 134.334 32.9568L134.268 35.6017L132.926 35.568L133.06 30.259L134.401 30.2927L134.381 31.1168ZM141.127 28.8505C141.791 28.8672 142.32 29.0627 142.713 29.4369C143.113 29.8049 143.305 30.3052 143.289 30.9377C143.274 31.5638 143.06 32.0379 142.649 32.36C142.239 32.6757 141.701 32.8252 141.037 32.8085L140.98 33.5455L139.801 33.5159L139.794 31.8856L140.225 31.8964C140.781 31.9104 141.211 31.8476 141.515 31.7082C141.819 31.5688 141.976 31.3043 141.986 30.9146C141.993 30.6334 141.915 30.4078 141.753 30.2375C141.598 30.0674 141.38 29.9788 141.098 29.9717C140.805 29.9644 140.573 30.0384 140.402 30.194C140.239 30.3497 140.153 30.5681 140.146 30.8492L138.881 30.8175C138.885 30.4276 138.977 30.0815 139.157 29.7792C139.337 29.4768 139.595 29.2436 139.932 29.0794C140.275 28.9154 140.673 28.8391 141.127 28.8505ZM140.328 35.8209C140.086 35.8148 139.886 35.7363 139.73 35.5853C139.581 35.4282 139.509 35.2378 139.514 35.0142C139.52 34.7906 139.601 34.6072 139.758 34.4641C139.922 34.3148 140.125 34.2432 140.368 34.2493C140.604 34.2552 140.797 34.3368 140.947 34.494C141.096 34.6447 141.168 34.8319 141.163 35.0555C141.157 35.2791 141.076 35.4657 140.918 35.6152C140.761 35.7583 140.565 35.8268 140.328 35.8209Z" fill="#11002A"/>
<path d="M28.9508 57.9882C28.6079 57.9796 28.3013 57.9122 28.031 57.7861C27.7658 57.6552 27.5589 57.4809 27.4102 57.2634C27.2616 57.0409 27.1884 56.788 27.1906 56.5046L27.9136 56.5228C27.9323 56.7669 28.0265 56.9756 28.1962 57.1489C28.3709 57.3173 28.6273 57.4058 28.9652 57.4143C29.2881 57.4224 29.5436 57.3493 29.7314 57.1949C29.9243 57.0356 30.024 56.8293 30.0303 56.5759C30.0353 56.3771 29.9847 56.2143 29.8785 56.0873C29.7723 55.9603 29.638 55.8625 29.4757 55.7938C29.3133 55.7251 29.094 55.6499 28.8176 55.5684C28.477 55.4704 28.2034 55.374 27.997 55.2793C27.7955 55.1848 27.6226 55.0412 27.4783 54.8487C27.339 54.6513 27.2735 54.3911 27.2816 54.0681C27.2887 53.7849 27.367 53.5357 27.5166 53.3207C27.6662 53.1057 27.8717 52.9418 28.133 52.829C28.3994 52.7164 28.7015 52.6643 29.0394 52.6728C29.5264 52.685 29.9208 52.8167 30.2228 53.0679C30.5297 53.3193 30.698 53.6467 30.7277 54.0502L29.9823 54.0314C29.9625 53.8321 29.8625 53.6555 29.6824 53.5019C29.5024 53.3432 29.2608 53.2601 28.9577 53.2525C28.6745 53.2454 28.4416 53.3141 28.2589 53.4587C28.0765 53.5983 27.9819 53.7998 27.9753 54.0631C27.9705 54.2519 28.0189 54.4073 28.1202 54.5292C28.2265 54.6512 28.3559 54.7464 28.5083 54.8149C28.6658 54.8785 28.8852 54.9536 29.1664 55.0402C29.5069 55.1432 29.7803 55.2445 29.9867 55.3442C30.1931 55.4389 30.3685 55.585 30.5127 55.7825C30.657 55.9751 30.725 56.2353 30.7168 56.5633C30.7104 56.8167 30.6374 57.0535 30.4976 57.2738C30.3578 57.494 30.1545 57.6704 29.8877 57.8029C29.6208 57.9354 29.3085 57.9972 28.9508 57.9882ZM35.4613 55.8992C35.458 56.0284 35.4472 56.1649 35.4286 56.3086L32.164 56.2267C32.1788 56.6298 32.3075 56.9488 32.5502 57.1836C32.798 57.4135 33.1008 57.533 33.4586 57.542C33.7517 57.5493 33.9969 57.4884 34.1941 57.3591C34.3963 57.2249 34.5401 57.0446 34.6253 56.818L35.3557 56.8363C35.2366 57.2261 35.0099 57.5411 34.6757 57.7813C34.3416 58.0166 33.9311 58.1281 33.4442 58.1159C33.0566 58.1062 32.7109 58.0105 32.4072 57.8288C32.1085 57.6473 31.8762 57.3954 31.7102 57.073C31.5444 56.7456 31.4668 56.3708 31.4774 55.9484C31.488 55.5261 31.5818 55.158 31.7587 54.8442C31.9356 54.5304 32.1778 54.2929 32.4851 54.1315C32.7975 53.9654 33.1525 53.8873 33.55 53.8972C33.9376 53.907 34.2784 54 34.5723 54.1765C34.8662 54.3529 35.0889 54.5922 35.2404 54.8943C35.397 55.1916 35.4706 55.5266 35.4613 55.8992ZM34.7642 55.74C34.7707 55.4817 34.7191 55.2591 34.6094 55.0724C34.4999 54.8807 34.3469 54.7351 34.1505 54.6357C33.9592 54.5315 33.7443 54.4764 33.5058 54.4704C33.163 54.4618 32.8671 54.5638 32.6181 54.7763C32.3741 54.9889 32.2298 55.2886 32.1853 55.6753L34.7642 55.74ZM37.1181 52.6219L36.9797 58.1375L36.3014 58.1205L36.4398 52.6049L37.1181 52.6219ZM41.9175 56.0613C41.9143 56.1905 41.9034 56.3269 41.8849 56.4706L38.6203 56.3887C38.635 56.7918 38.7638 57.1108 39.0065 57.3456C39.2543 57.5755 39.5571 57.695 39.9148 57.704C40.208 57.7114 40.4532 57.6504 40.6503 57.5211C40.8526 57.3869 40.9963 57.2066 41.0816 56.98L41.812 56.9983C41.6928 57.3881 41.4661 57.7032 41.132 57.9434C40.7979 58.1786 40.3874 58.2901 39.9004 58.2779C39.5129 58.2682 39.1672 58.1725 38.8635 57.9909C38.5648 57.8093 38.3324 57.5574 38.1665 57.235C38.0007 56.9077 37.9231 56.5328 37.9337 56.1104C37.9443 55.6881 38.038 55.32 38.215 55.0062C38.3919 54.6925 38.634 54.4549 38.9414 54.2936C39.2538 54.1274 39.6088 54.0493 40.0063 54.0593C40.3939 54.069 40.7346 54.1621 41.0285 54.3385C41.3224 54.5149 41.5451 54.7542 41.6967 55.0563C41.8533 55.3536 41.9269 55.6886 41.9175 56.0613ZM41.2205 55.9021C41.227 55.6437 41.1754 55.4211 41.0657 55.2344C40.9561 55.0427 40.8032 54.8972 40.6068 54.7978C40.4155 54.6935 40.2006 54.6384 39.9621 54.6324C39.6192 54.6238 39.3233 54.7258 39.0743 54.9383C38.8303 55.151 38.6861 55.4506 38.6416 55.8373L41.2205 55.9021ZM42.5557 56.2264C42.5663 55.8041 42.66 55.4385 42.8368 55.1297C43.0137 54.8159 43.2534 54.5758 43.5559 54.4094C43.8634 54.2431 44.2109 54.1648 44.5985 54.1745C45.1004 54.1871 45.5097 54.3192 45.8266 54.5708C46.1484 54.8225 46.3561 55.1658 46.4496 55.6007L45.7192 55.5824C45.6558 55.3322 45.5241 55.1325 45.324 54.9833C45.1289 54.8342 44.8822 54.7559 44.5841 54.7484C44.1965 54.7387 43.8801 54.865 43.6349 55.1273C43.3897 55.3847 43.2611 55.7569 43.2488 56.2438C43.2365 56.7358 43.3462 57.1189 43.578 57.3932C43.8098 57.6675 44.1195 57.8095 44.507 57.8192C44.8052 57.8267 45.0554 57.7634 45.2576 57.6292C45.4599 57.4951 45.6015 57.2998 45.6825 57.0433L46.413 57.0616C46.2932 57.4762 46.0661 57.8062 45.7318 58.0513C45.3976 58.2916 44.9846 58.4055 44.4926 58.3932C44.105 58.3834 43.7619 58.2878 43.4631 58.1063C43.1694 57.9249 42.942 57.6731 42.781 57.3508C42.6201 57.0286 42.545 56.6538 42.5557 56.2264ZM48.2009 54.8914L48.1404 57.2989C48.1354 57.4976 48.1741 57.6403 48.2565 57.7269C48.339 57.8085 48.4845 57.8519 48.6932 57.8572L49.1926 57.8697L49.1782 58.4436L48.567 58.4283C48.1894 58.4188 47.9083 58.3247 47.7239 58.1461C47.5394 57.9674 47.4522 57.6793 47.4622 57.2818L47.5226 54.8744L46.9934 54.8611L47.0074 54.3021L47.5366 54.3154L47.5624 53.2868L48.2407 53.3038L48.2149 54.3324L49.2807 54.3591L49.2667 54.9181L48.2009 54.8914ZM54.3411 58.6254C53.8591 58.6133 53.4222 58.4905 53.0303 58.2569C52.6385 58.0183 52.3309 57.6949 52.1074 57.2865C51.8891 56.8733 51.7863 56.4133 51.799 55.9065C51.8117 55.3997 51.9374 54.9479 52.1761 54.5511C52.4198 54.1495 52.7433 53.8419 53.1464 53.6283C53.5497 53.4097 53.9923 53.3064 54.4743 53.3185C54.9612 53.3308 55.4006 53.4561 55.7924 53.6947C56.1843 53.9283 56.4895 54.2492 56.708 54.6574C56.9264 55.0656 57.0292 55.5256 57.0164 56.0374C57.0036 56.5492 56.8778 57.0035 56.6391 57.4003C56.4004 57.797 56.0795 58.1047 55.6762 58.3233C55.2731 58.5369 54.8281 58.6376 54.3411 58.6254ZM54.3559 58.0366C54.7186 58.0457 55.0462 57.9694 55.3386 57.8077C55.636 57.6461 55.8707 57.4108 56.0425 57.1019C56.2193 56.7931 56.3129 56.4325 56.3232 56.02C56.3337 55.6026 56.2583 55.2378 56.0971 54.9255C55.941 54.6083 55.721 54.3616 55.437 54.1855C55.153 54.0093 54.8272 53.9166 54.4595 53.9074C54.0918 53.8981 53.7617 53.9744 53.4693 54.1361C53.1768 54.2978 52.9422 54.5331 52.7654 54.8419C52.5937 55.1458 52.5026 55.5065 52.4922 55.9239C52.4818 56.3363 52.5547 56.7011 52.7108 57.0183C52.8719 57.3356 53.0944 57.5823 53.3784 57.7585C53.6673 57.9348 53.9931 58.0275 54.3559 58.0366ZM59.941 54.5521C60.4379 54.5645 60.8365 54.7262 61.137 55.037C61.4376 55.3429 61.5808 55.7791 61.5666 56.3455L61.5062 58.753L60.8354 58.7362L60.8933 56.4256C60.9036 56.0181 60.8095 55.705 60.6111 55.4862C60.4129 55.2625 60.1374 55.1462 59.7846 55.1373C59.4268 55.1284 59.1383 55.233 58.919 55.4512C58.7047 55.6696 58.5922 55.9924 58.5815 56.4198L58.5248 58.6782L57.8465 58.6612L57.949 54.5767L58.6273 54.5937L58.6127 55.1751C58.7521 54.9697 58.9375 54.8128 59.169 54.7042C59.4054 54.5958 59.6627 54.5451 59.941 54.5521ZM66.396 56.6756C66.3928 56.8047 66.3819 56.9412 66.3634 57.0849L63.0988 57.003C63.1135 57.4061 63.2422 57.7251 63.4849 57.9599C63.7327 58.1898 64.0355 58.3093 64.3933 58.3183C64.6865 58.3257 64.9316 58.2647 65.1288 58.1354C65.331 58.0012 65.4748 57.8209 65.56 57.5943L66.2905 57.6126C66.1713 58.0024 65.9446 58.3174 65.6104 58.5577C65.2764 58.7929 64.8658 58.9044 64.3789 58.8922C63.9913 58.8825 63.6457 58.7868 63.342 58.6052C63.0432 58.4236 62.8109 58.1717 62.6449 57.8493C62.4791 57.522 62.4015 57.1471 62.4121 56.7247C62.4227 56.3024 62.5165 55.9343 62.6934 55.6205C62.8703 55.3068 63.1125 55.0692 63.4198 54.9079C63.7323 54.7417 64.0872 54.6636 64.4848 54.6736C64.8723 54.6833 65.2131 54.7764 65.507 54.9528C65.8009 55.1292 66.0236 55.3685 66.1751 55.6706C66.3317 55.9679 66.4054 56.3029 66.396 56.6756ZM65.6989 56.5164C65.7054 56.258 65.6538 56.0354 65.5442 55.8487C65.4346 55.657 65.2816 55.5115 65.0853 55.4121C64.894 55.3078 64.6791 55.2527 64.4405 55.2467C64.0977 55.2381 63.8018 55.3401 63.5528 55.5526C63.3088 55.7653 63.1646 56.0649 63.12 56.4516L65.6989 56.5164ZM71.0029 59.0584C70.6203 59.0488 70.2747 58.9532 69.966 58.7714C69.6623 58.5897 69.425 58.3377 69.2541 58.0152C69.0882 57.6878 69.0106 57.313 69.0212 56.8906C69.0317 56.4732 69.1304 56.1077 69.3172 55.7942C69.5092 55.4759 69.7638 55.2361 70.0811 55.075C70.3985 54.909 70.751 54.8308 71.1386 54.8405C71.5262 54.8503 71.8743 54.946 72.183 55.1278C72.4918 55.3046 72.7316 55.5542 72.9025 55.8767C73.0784 56.1994 73.1611 56.5719 73.1505 56.9942C73.1399 57.4166 73.0361 57.7869 72.8392 58.1051C72.6473 58.4185 72.3902 58.6582 72.0678 58.8241C71.7455 58.9901 71.3905 59.0682 71.0029 59.0584ZM71.0179 58.4622C71.2614 58.4683 71.4914 58.4169 71.7079 58.3079C71.9244 58.199 72.1002 58.0319 72.2351 57.8066C72.375 57.5814 72.4491 57.3048 72.4573 56.9768C72.4655 56.6489 72.4079 56.369 72.2844 56.1372C72.161 55.9054 71.9963 55.7322 71.7903 55.6176C71.5845 55.4981 71.3598 55.4353 71.1164 55.4292C70.8679 55.4229 70.6379 55.4743 70.4263 55.5834C70.2199 55.6876 70.0517 55.8524 69.9217 56.0779C69.7917 56.3033 69.7226 56.58 69.7144 56.908C69.7061 57.2409 69.7586 57.5232 69.8722 57.7547C69.9906 57.9864 70.1503 58.162 70.3512 58.2814C70.5522 58.3958 70.7744 58.4561 71.0179 58.4622ZM74.7527 55.7516C74.8927 55.5215 75.0963 55.3327 75.3635 55.1852C75.6359 55.033 75.9484 54.9612 76.3012 54.9701C76.6639 54.9792 76.9897 55.0744 77.2785 55.2557C77.5723 55.4371 77.7997 55.6889 77.9606 56.0111C78.1217 56.3284 78.197 56.6958 78.1865 57.1131C78.1762 57.5256 78.0825 57.8912 77.9054 58.2099C77.7284 58.5286 77.4886 58.7737 77.1859 58.9451C76.8883 59.1166 76.5581 59.1979 76.1953 59.1887C75.8475 59.18 75.5414 59.0953 75.2769 58.9345C75.0175 58.7689 74.8212 58.5676 74.688 58.3305L74.6204 61.0212L73.9422 61.0042L74.0933 54.9818L74.7716 54.9988L74.7527 55.7516ZM77.4934 57.0958C77.5011 56.7877 77.4457 56.5178 77.3272 56.2861C77.2088 56.0544 77.0442 55.8763 76.8335 55.7516C76.6278 55.6272 76.3982 55.5617 76.1448 55.5554C75.8964 55.5491 75.6638 55.6054 75.447 55.7243C75.2353 55.8383 75.0619 56.0105 74.9269 56.2408C74.7969 56.4662 74.7281 56.7305 74.7205 57.0336C74.7128 57.3417 74.7681 57.6141 74.8865 57.8507C75.0099 58.0825 75.1744 58.2632 75.38 58.3926C75.5907 58.5173 75.8202 58.5827 76.0687 58.5889C76.3221 58.5953 76.5547 58.5414 76.7663 58.4274C76.9831 58.3086 77.1565 58.1364 77.2865 57.911C77.4165 57.6805 77.4855 57.4088 77.4934 57.0958ZM79.9435 55.688L79.8831 58.0954C79.8781 58.2942 79.9168 58.4369 79.9991 58.5235C80.0816 58.6051 80.2272 58.6485 80.4359 58.6538L80.9353 58.6663L80.9209 59.2402L80.3097 59.2249C79.9321 59.2154 79.651 59.1213 79.4666 58.9427C79.2821 58.764 79.1949 58.4759 79.2048 58.0784L79.2652 55.671L78.7361 55.6577L78.7501 55.0987L79.2793 55.112L79.3051 54.0834L79.9834 54.1004L79.9575 55.129L81.0234 55.1557L81.0094 55.7147L79.9435 55.688ZM82.2121 54.5218C82.083 54.5185 81.9748 54.4711 81.8876 54.3794C81.8004 54.2877 81.7584 54.1773 81.7616 54.0481C81.7649 53.9189 81.8123 53.8107 81.904 53.7235C81.9957 53.6363 82.1061 53.5943 82.2353 53.5976C82.3596 53.6007 82.4628 53.648 82.545 53.7396C82.6322 53.8313 82.6742 53.9417 82.6709 54.0709C82.6677 54.2001 82.6202 54.3083 82.5286 54.3955C82.4418 54.4828 82.3364 54.5249 82.2121 54.5218ZM82.5234 55.1934L82.4209 59.2779L81.7427 59.2608L81.8452 55.1763L82.5234 55.1934ZM85.3566 59.4187C84.974 59.4091 84.6284 59.3134 84.3197 59.1316C84.016 58.95 83.7787 58.6979 83.6078 58.3754C83.442 58.048 83.3643 57.6732 83.3749 57.2508C83.3854 56.8334 83.4841 56.468 83.671 56.1544C83.8629 55.8361 84.1175 55.5963 84.4348 55.4352C84.7522 55.2692 85.1047 55.191 85.4923 55.2008C85.8799 55.2105 86.228 55.3062 86.5367 55.488C86.8455 55.6648 87.0853 55.9144 87.2563 56.237C87.4321 56.5596 87.5148 56.9321 87.5042 57.3544C87.4936 57.7768 87.3898 58.1471 87.1929 58.4653C87.001 58.7787 86.7439 59.0184 86.4216 59.1843C86.0992 59.3503 85.7442 59.4284 85.3566 59.4187ZM85.3716 58.8224C85.6151 58.8285 85.8451 58.7771 86.0616 58.6682C86.2781 58.5592 86.4539 58.3921 86.5888 58.1668C86.7287 57.9416 86.8028 57.665 86.811 57.337C86.8192 57.0091 86.7616 56.7292 86.6381 56.4974C86.5147 56.2656 86.35 56.0924 86.144 55.9778C85.9382 55.8583 85.7136 55.7955 85.4701 55.7894C85.2216 55.7832 84.9916 55.8346 84.7801 55.9436C84.5736 56.0478 84.4054 56.2126 84.2754 56.4381C84.1454 56.6636 84.0763 56.9403 84.0681 57.2682C84.0598 57.6011 84.1123 57.8834 84.2259 58.1149C84.3444 58.3466 84.504 58.5222 84.7049 58.6416C84.9059 58.756 85.1281 58.8163 85.3716 58.8224ZM90.439 55.3174C90.9359 55.3299 91.3345 55.4916 91.635 55.8024C91.9356 56.1083 92.0788 56.5444 92.0646 57.1109L92.0042 59.5184L91.3333 59.5015L91.3913 57.191C91.4016 56.7835 91.3075 56.4704 91.1091 56.2516C90.9109 56.0279 90.6354 55.9116 90.2826 55.9027C89.9248 55.8937 89.6363 55.9984 89.417 56.2166C89.2027 56.435 89.0902 56.7578 89.0795 57.1851L89.0228 59.4435L88.3445 59.4265L88.447 55.342L89.1253 55.359L89.1107 55.9404C89.2501 55.7351 89.4355 55.5781 89.667 55.4696C89.9034 55.3612 90.1607 55.3104 90.439 55.3174Z" fill="#363E49"/>
<path d="M26.5086 76.1722C26.5195 75.7378 26.6294 75.3506 26.8382 75.0106C27.0513 74.6708 27.3328 74.4093 27.6826 74.2263C28.0367 74.0392 28.4204 73.9508 28.8335 73.9611C29.3063 73.973 29.7229 74.1007 30.0833 74.3441C30.448 74.5834 30.7081 74.9181 30.8636 75.3482L29.9883 75.3262C29.8792 75.0891 29.7239 74.9104 29.5223 74.7903C29.3207 74.6702 29.0858 74.6067 28.8175 74.6C28.5236 74.5926 28.26 74.6521 28.0267 74.7783C27.7934 74.9046 27.6076 75.0896 27.4694 75.3333C27.3354 75.5771 27.2643 75.863 27.2561 76.191C27.2479 76.5189 27.3045 76.808 27.4261 77.0582C27.552 77.3086 27.7282 77.5048 27.9547 77.6469C28.1814 77.7847 28.4417 77.8572 28.7356 77.8646C29.0039 77.8714 29.2417 77.8198 29.449 77.7099C29.6564 77.6001 29.8205 77.4294 29.9413 77.1981L30.8166 77.22C30.6398 77.6418 30.3632 77.963 29.9869 78.1837C29.6149 78.4045 29.1925 78.509 28.7197 78.4971C28.3023 78.4866 27.9235 78.3812 27.5833 78.1809C27.2433 77.9763 26.9753 77.699 26.7796 77.3489C26.588 76.9989 26.4977 76.6066 26.5086 76.1722ZM33.5472 75C33.8156 75.0067 34.0526 75.0702 34.2584 75.1904C34.4685 75.3108 34.6303 75.4853 34.7439 75.714C34.8618 75.9429 34.9167 76.217 34.9087 76.5364L34.8566 78.6128L34.1346 78.5946L34.184 76.6269C34.1919 76.3117 34.1192 76.0691 33.9658 75.8991C33.8125 75.7248 33.5995 75.6342 33.3269 75.6273C33.0543 75.6205 32.835 75.7002 32.6689 75.8665C32.5071 76.0287 32.4223 76.2673 32.4144 76.5825L32.365 78.5502L31.6367 78.5319L31.7553 73.8043L32.4836 73.8226L32.4431 75.4389C32.5703 75.293 32.7287 75.1819 32.9181 75.1057C33.1118 75.0295 33.3215 74.9943 33.5472 75ZM37.311 78.7319C36.9788 78.7235 36.6804 78.6415 36.4158 78.4857C36.1514 78.3256 35.9459 78.1074 35.7994 77.8309C35.653 77.5502 35.5844 77.2289 35.5934 76.8669C35.6024 76.5091 35.6892 76.1938 35.8537 75.9209C36.0182 75.648 36.2387 75.4404 36.515 75.2982C36.7913 75.156 37.0977 75.0891 37.4342 75.0975C37.7707 75.106 38.0733 75.1881 38.3422 75.3441C38.611 75.5 38.8207 75.7183 38.9714 75.9991C39.122 76.2799 39.1929 76.5992 39.1839 76.957C39.1749 77.3147 39.086 77.63 38.9172 77.9028C38.7484 78.1756 38.5215 78.3851 38.2366 78.5314C37.956 78.6735 37.6475 78.7403 37.311 78.7319ZM37.3269 78.0994C37.5143 78.1041 37.69 78.0638 37.8541 77.9784C38.0225 77.8931 38.16 77.7623 38.2667 77.586C38.3734 77.4097 38.43 77.1938 38.4364 76.9382C38.4428 76.6827 38.3992 76.4663 38.3057 76.2893C38.2122 76.1079 38.0856 75.9705 37.926 75.877C37.7664 75.7835 37.5929 75.7344 37.4055 75.7297C37.2181 75.725 37.0424 75.7653 36.8783 75.8507C36.7185 75.9362 36.5895 76.0672 36.4913 76.2437C36.3932 76.416 36.3409 76.6299 36.3345 76.8855C36.325 77.2645 36.4135 77.5608 36.5999 77.7743C36.7907 77.9837 37.033 78.092 37.3269 78.0994ZM41.385 78.8341C41.0528 78.8258 40.7544 78.7437 40.4899 78.5879C40.2254 78.4278 40.0199 78.2096 39.8734 77.9332C39.727 77.6525 39.6584 77.3311 39.6675 76.9691C39.6764 76.6113 39.7632 76.296 39.9277 76.0231C40.0923 75.7502 40.3127 75.5427 40.589 75.4004C40.8653 75.2582 41.1717 75.1913 41.5082 75.1998C41.8447 75.2082 42.1473 75.2904 42.4162 75.4463C42.685 75.6022 42.8948 75.8206 43.0454 76.1014C43.196 76.3822 43.2669 76.7014 43.2579 77.0592C43.2489 77.417 43.16 77.7322 42.9912 78.005C42.8224 78.2778 42.5956 78.4873 42.3106 78.6336C42.03 78.7757 41.7215 78.8426 41.385 78.8341ZM41.4009 78.2016C41.5883 78.2063 41.7641 78.166 41.9282 78.0806C42.0965 77.9954 42.234 77.8646 42.3407 77.6882C42.4474 77.5119 42.504 77.296 42.5104 77.0404C42.5168 76.7849 42.4733 76.5686 42.3797 76.3915C42.2862 76.2102 42.1597 76.0727 42.0001 75.9792C41.8405 75.8857 41.667 75.8366 41.4796 75.8319C41.2922 75.8272 41.1164 75.8676 40.9523 75.9529C40.7925 76.0384 40.6635 76.1694 40.5653 76.346C40.4672 76.5182 40.415 76.7322 40.4085 76.9877C40.399 77.3668 40.4875 77.663 40.6739 77.8765C40.8647 78.0859 41.107 78.1943 41.4009 78.2016ZM45.2099 78.9301C44.9331 78.9232 44.6851 78.8679 44.4661 78.7644C44.2515 78.6567 44.0824 78.5161 43.9589 78.3425C43.8355 78.1647 43.7722 77.9692 43.7691 77.756L44.5229 77.775C44.532 77.9244 44.5991 78.0518 44.7243 78.1572C44.8539 78.2585 45.0166 78.3116 45.2125 78.3165C45.417 78.3216 45.5755 78.2872 45.6882 78.2133C45.8052 78.1353 45.8653 78.0345 45.8684 77.911C45.8717 77.779 45.8102 77.6794 45.6841 77.6123C45.5622 77.5453 45.3659 77.4701 45.0952 77.3866C44.833 77.3076 44.6197 77.2319 44.4553 77.1596C44.2909 77.0873 44.1487 76.9793 44.0287 76.8356C43.913 76.6921 43.858 76.5053 43.8637 76.2753C43.8685 76.0879 43.9281 75.9189 44.0427 75.7684C44.1574 75.6136 44.3181 75.494 44.5247 75.4097C44.7357 75.3255 44.9753 75.2868 45.2436 75.2935C45.644 75.3036 45.963 75.4138 46.2006 75.6244C46.4426 75.8308 46.5678 76.1088 46.576 76.4585L45.8477 76.4402C45.8389 76.2823 45.7782 76.155 45.6655 76.0584C45.5529 75.9618 45.3986 75.9111 45.2027 75.9062C45.011 75.9014 44.8632 75.9339 44.7591 76.0037C44.6551 76.0736 44.6016 76.1681 44.5986 76.2874C44.5963 76.3811 44.6284 76.4607 44.6949 76.5263C44.7614 76.5919 44.8432 76.6451 44.9402 76.6859C45.0373 76.7224 45.181 76.7708 45.3713 76.831C45.6251 76.9055 45.832 76.981 45.9921 77.0575C46.1565 77.1298 46.2966 77.2356 46.4124 77.3749C46.5282 77.5142 46.5855 77.6967 46.5841 77.9226C46.579 78.1228 46.5192 78.3003 46.4045 78.4551C46.2898 78.6099 46.1291 78.7294 45.9224 78.8137C45.72 78.8982 45.4825 78.9369 45.2099 78.9301ZM50.6189 77.1608C50.6156 77.2929 50.6041 77.4119 50.5844 77.518L47.8948 77.4505C47.909 77.7321 48.0077 77.9604 48.1908 78.1355C48.3739 78.3106 48.6018 78.4015 48.8744 78.4084C49.2662 78.4182 49.5472 78.2612 49.7173 77.9373L50.5031 77.957C50.3885 78.278 50.188 78.5394 49.9017 78.741C49.6197 78.9385 49.2721 79.032 48.859 79.0217C48.5225 79.0132 48.222 78.9311 47.9574 78.7753C47.6972 78.6154 47.4938 78.3972 47.3474 78.1207C47.2052 77.8401 47.1387 77.5188 47.1478 77.1568C47.1569 76.7948 47.2373 76.4793 47.3889 76.2104C47.5449 75.9373 47.7568 75.7295 48.0246 75.587C48.2967 75.4447 48.6052 75.3779 48.9502 75.3865C49.2824 75.3949 49.5766 75.4747 49.8328 75.626C50.089 75.7774 50.2861 75.9869 50.4243 76.2546C50.5626 76.518 50.6275 76.8201 50.6189 77.1608ZM49.8645 76.9118C49.8669 76.6433 49.7765 76.4258 49.5932 76.2593C49.4098 76.0927 49.1797 76.006 48.9029 75.999C48.6516 75.9927 48.4345 76.0683 48.2515 76.2256C48.0687 76.3787 47.9568 76.5911 47.9159 76.8629L49.8645 76.9118ZM52.8574 75.0691L52.8741 74.4046L54.2029 74.438L54.0861 79.0953L53.3514 79.0769L53.4516 75.084L52.8574 75.0691ZM59.5416 78.3245L57.6825 78.2778L57.3403 79.177L56.58 79.1579L58.2824 74.7513L59.1257 74.7725L60.6049 79.2589L59.8383 79.2397L59.5416 78.3245ZM59.3521 77.7252L58.6819 75.6435L57.9018 77.6888L59.3521 77.7252ZM63.1624 75.7432C63.4393 75.7501 63.6848 75.8138 63.8992 75.9343C64.1178 76.0548 64.286 76.2295 64.4038 76.4584C64.5217 76.6872 64.5766 76.9613 64.5686 77.2808L64.5165 79.3571L63.7945 79.339L63.8439 77.3713C63.8518 77.0561 63.7791 76.8135 63.6257 76.6434C63.4724 76.4691 63.2594 76.3785 62.9868 76.3717C62.7142 76.3648 62.4949 76.4446 62.3288 76.6109C62.167 76.773 62.0822 77.0117 62.0743 77.3268L62.0249 79.2946L61.2966 79.2763L61.3849 75.7561L62.1132 75.7744L62.1031 76.1769C62.226 76.0351 62.38 75.926 62.5652 75.8497C62.7546 75.7734 62.9537 75.738 63.1624 75.7432ZM66.7218 79.47C66.4449 79.463 66.197 79.4078 65.978 79.3043C65.7633 79.1966 65.5943 79.056 65.4708 78.8824C65.3474 78.7046 65.2841 78.5091 65.2809 78.2959L66.0348 78.3148C66.0438 78.4642 66.1109 78.5916 66.2361 78.697C66.3657 78.7983 66.5285 78.8514 66.7244 78.8563C66.9288 78.8615 67.0874 78.8271 67.2 78.7532C67.317 78.6752 67.3771 78.5744 67.3802 78.4509C67.3835 78.3188 67.3221 78.2193 67.1959 78.1522C67.074 78.0852 66.8777 78.0099 66.6071 77.9264C66.3448 77.8474 66.1315 77.7717 65.9671 77.6994C65.8027 77.6271 65.6605 77.5191 65.5405 77.3755C65.4248 77.2319 65.3698 77.0452 65.3756 76.8152C65.3803 76.6278 65.4399 76.4588 65.5545 76.3082C65.6692 76.1534 65.8299 76.0339 66.0366 75.9496C66.2475 75.8654 66.4872 75.8266 66.7555 75.8334C67.1558 75.8434 67.4748 75.9537 67.7125 76.1642C67.9545 76.3706 68.0796 76.6486 68.0879 76.9983L67.3596 76.98C67.3508 76.8221 67.29 76.6949 67.1774 76.5983C67.0647 76.5017 66.9105 76.4509 66.7145 76.446C66.5229 76.4412 66.375 76.4737 66.271 76.5436C66.167 76.6134 66.1134 76.708 66.1105 76.8272C66.1081 76.9209 66.1402 77.0006 66.2067 77.0662C66.2733 77.1318 66.3551 77.185 66.4521 77.2257C66.5492 77.2623 66.6928 77.3106 66.8831 77.3708C67.137 77.4454 67.3439 77.5209 67.5039 77.5973C67.6683 77.6697 67.8084 77.7755 67.9243 77.9147C68.0401 78.054 68.0973 78.2366 68.0959 78.4624C68.0909 78.6626 68.031 78.8401 67.9163 78.9949C67.8016 79.1497 67.641 79.2693 67.4343 79.3536C67.2318 79.438 66.9943 79.4768 66.7218 79.47ZM73.6741 76.0645L72.4933 79.5573L71.7267 79.538L71.0828 76.92L70.3084 79.5024L69.5418 79.4832L68.5312 75.9355L69.2723 75.9541L69.936 78.8027L70.7545 75.9913L71.5148 76.0103L72.1596 78.8457L72.9586 76.0466L73.6741 76.0645ZM77.4027 77.833C77.3994 77.965 77.3879 78.084 77.3681 78.1901L74.6785 78.1226C74.6928 78.4042 74.7914 78.6326 74.9746 78.8077C75.1577 78.9827 75.3855 79.0737 75.6581 79.0805C76.05 79.0904 76.3309 78.9333 76.501 78.6094L77.2868 78.6292C77.1722 78.9502 76.9717 79.2115 76.6854 79.4131C76.4034 79.6106 76.0559 79.7042 75.6427 79.6938C75.3063 79.6854 75.0057 79.6033 74.7412 79.4475C74.4809 79.2875 74.2776 79.0693 74.1311 78.7929C73.989 78.5123 73.9225 78.191 73.9315 77.829C73.9406 77.4669 74.021 77.1515 74.1727 76.8825C74.3287 76.6094 74.5406 76.4016 74.8084 76.2592C75.0805 76.1169 75.389 76.05 75.734 76.0587C76.0662 76.067 76.3604 76.1468 76.6165 76.2982C76.8727 76.4495 77.0699 76.659 77.2081 76.9267C77.3464 77.1902 77.4112 77.4922 77.4027 77.833ZM76.6482 77.5839C76.6507 77.3155 76.5602 77.098 76.3769 76.9314C76.1936 76.7649 75.9635 76.6781 75.6866 76.6712C75.4353 76.6649 75.2182 76.7404 75.0353 76.8978C74.8524 77.0509 74.7406 77.2633 74.6997 77.535L76.6482 77.5839ZM78.8769 76.7065C78.9879 76.5303 79.1319 76.3954 79.309 76.3018C79.4904 76.2041 79.7025 76.1583 79.9453 76.1644L79.9264 76.9182L79.7411 76.9136C79.4557 76.9064 79.2367 76.9734 79.084 77.1144C78.9356 77.2556 78.8569 77.5051 78.8479 77.8629L78.8014 79.7156L78.0731 79.6973L78.1614 76.1771L78.8897 76.1954L78.8769 76.7065ZM81.8013 79.8484C81.5244 79.8414 81.2765 79.7862 81.0575 79.6827C80.8428 79.575 80.6738 79.4344 80.5503 79.2608C80.4269 79.083 80.3636 78.8875 80.3604 78.6743L81.1143 78.6932C81.1233 78.8426 81.1904 78.97 81.3156 79.0755C81.4452 79.1767 81.608 79.2298 81.8039 79.2347C82.0083 79.2399 82.1669 79.2055 82.2795 79.1316C82.3966 79.0536 82.4566 78.9528 82.4597 78.8293C82.463 78.6973 82.4016 78.5977 82.2754 78.5306C82.1535 78.4636 81.9572 78.3884 81.6866 78.3049C81.4243 78.2258 81.211 78.1502 81.0466 78.0778C80.8822 78.0055 80.74 77.8975 80.62 77.7539C80.5043 77.6104 80.4493 77.4236 80.4551 77.1936C80.4598 77.0062 80.5194 76.8372 80.634 76.6867C80.7487 76.5319 80.9094 76.4123 81.1161 76.328C81.327 76.2438 81.5667 76.2051 81.835 76.2118C82.2353 76.2218 82.5543 76.3321 82.792 76.5427C83.034 76.749 83.1591 77.0271 83.1674 77.3767L82.4391 77.3585C82.4303 77.2005 82.3695 77.0733 82.2569 76.9767C82.1442 76.8801 81.99 76.8294 81.794 76.8245C81.6024 76.8196 81.4545 76.8522 81.3505 76.922C81.2465 76.9918 81.193 77.0864 81.19 77.2056C81.1876 77.2993 81.2197 77.379 81.2862 77.4446C81.3528 77.5102 81.4346 77.5634 81.5316 77.6042C81.6287 77.6407 81.7723 77.6891 81.9626 77.7492C82.2165 77.8238 82.4234 77.8993 82.5834 77.9758C82.7478 78.0481 82.8879 78.1539 83.0038 78.2932C83.1196 78.4325 83.1768 78.615 83.1754 78.8409C83.1704 79.041 83.1105 79.2185 82.9958 79.3733C82.8811 79.5281 82.7205 79.6477 82.5138 79.732C82.3114 79.8164 82.0738 79.8552 81.8013 79.8484ZM87.1464 76.9971L86.4948 76.9808L86.4214 79.9068L85.6867 79.8884L85.7601 76.9623L85.3448 76.9519L85.3597 76.3578L85.775 76.3682L85.7813 76.119C85.7914 75.7144 85.9053 75.4232 86.1228 75.2454C86.3447 75.0635 86.6857 74.9783 87.1457 74.9898L87.1304 75.5967C86.909 75.5912 86.7524 75.6299 86.6609 75.7128C86.5694 75.7915 86.5211 75.933 86.516 76.1375L86.5097 76.3866L87.1614 76.403L87.1464 76.9971ZM88.5223 76.9486C88.6333 76.7723 88.7773 76.6375 88.9544 76.5439C89.1358 76.4461 89.3479 76.4003 89.5907 76.4064L89.5718 77.1603L89.3865 77.1556C89.1011 77.1485 88.8821 77.2154 88.7294 77.3565C88.581 77.4977 88.5022 77.7471 88.4933 78.1049L88.4468 79.9576L87.7185 79.9393L87.8068 76.4192L88.5351 76.4375L88.5223 76.9486ZM91.6958 80.0967C91.3636 80.0884 91.0652 80.0063 90.8006 79.8505C90.5362 79.6904 90.3307 79.4722 90.1842 79.1957C90.0378 78.9151 89.9692 78.5937 89.9782 78.2317C89.9872 77.8739 90.074 77.5586 90.2385 77.2857C90.403 77.0128 90.6235 76.8052 90.8998 76.663C91.1761 76.5208 91.4825 76.4539 91.819 76.4623C92.1555 76.4708 92.4581 76.553 92.727 76.7089C92.9958 76.8648 93.2055 77.0831 93.3562 77.3639C93.5068 77.6447 93.5777 77.964 93.5687 78.3218C93.5597 78.6795 93.4708 78.9948 93.302 79.2676C93.1332 79.5404 92.9063 79.7499 92.6214 79.8962C92.3408 80.0383 92.0323 80.1051 91.6958 80.0967ZM91.7117 79.4642C91.8991 79.4689 92.0748 79.4286 92.2389 79.3432C92.4073 79.2579 92.5448 79.1271 92.6515 78.9508C92.7582 78.7745 92.8148 78.5586 92.8212 78.303C92.8276 78.0475 92.784 77.8312 92.6905 77.6541C92.597 77.4727 92.4704 77.3353 92.3108 77.2418C92.1512 77.1483 91.9777 77.0992 91.7903 77.0945C91.6029 77.0898 91.4272 77.1301 91.2631 77.2155C91.1033 77.301 90.9743 77.432 90.8761 77.6085C90.778 77.7808 90.7257 77.9947 90.7193 78.2503C90.7098 78.6293 90.7983 78.9256 90.9847 79.1391C91.1755 79.3485 91.4178 79.4568 91.7117 79.4642ZM98.5954 76.6324C98.8723 76.6393 99.1178 76.703 99.3322 76.8235C99.5508 76.944 99.719 77.1187 99.8368 77.3476C99.9589 77.5765 100.016 77.8507 100.008 78.1701L99.9559 80.2464L99.2339 80.2283L99.2833 78.2606C99.2912 77.9454 99.2185 77.7028 99.0651 77.5328C98.9117 77.3584 98.6988 77.2679 98.4262 77.261C98.1536 77.2542 97.9343 77.3339 97.7682 77.5002C97.6064 77.6624 97.5216 77.901 97.5137 78.2162L97.4643 80.1839L96.7424 80.1658L96.7917 78.1981C96.7997 77.8829 96.7269 77.6403 96.5735 77.4702C96.4202 77.2959 96.2072 77.2053 95.9346 77.1985C95.6621 77.1917 95.4427 77.2714 95.2766 77.4377C95.1148 77.5998 95.03 77.8385 95.0221 78.1537L94.9727 80.1214L94.2444 80.1031L94.3327 76.583L95.061 76.6012L95.0509 77.0037C95.1738 76.8619 95.3279 76.7528 95.513 76.6765C95.6982 76.6002 95.8951 76.5646 96.1038 76.5699C96.3849 76.5769 96.6347 76.6429 96.8532 76.7677C97.0717 76.8925 97.2377 77.0693 97.3513 77.298C97.4631 77.0877 97.6335 76.9236 97.8623 76.8058C98.0912 76.6837 98.3356 76.6259 98.5954 76.6324ZM102.874 79.3288C103.291 78.9856 103.62 78.704 103.86 78.4842C104.104 78.2601 104.308 78.0266 104.472 77.7835C104.636 77.5405 104.721 77.2954 104.727 77.0484C104.734 76.7928 104.677 76.5911 104.557 76.4432C104.441 76.2954 104.254 76.2182 103.994 76.2117C103.743 76.2054 103.545 76.2814 103.4 76.4397C103.26 76.5939 103.182 76.805 103.167 77.0731L102.464 77.0555C102.489 76.5703 102.643 76.2034 102.926 75.9548C103.214 75.702 103.573 75.5811 104.003 75.5918C104.467 75.6035 104.826 75.7404 105.08 76.0024C105.337 76.2646 105.461 76.6086 105.45 77.0346C105.442 77.3412 105.356 77.6352 105.191 77.9166C105.031 78.1939 104.839 78.4427 104.616 78.6629C104.398 78.8791 104.119 79.1299 103.779 79.4155L103.485 79.6638L105.511 79.7146L105.495 80.3215L102.39 80.2436L102.404 79.7134L102.874 79.3288Z" fill="#74879E"/>
<rect x="368.815" y="23.0365" width="20.7697" height="20.7697" rx="3.99418" transform="rotate(1.43756 368.815 23.0365)" fill="white"/>
<rect x="368.815" y="23.0365" width="20.7697" height="20.7697" rx="3.99418" transform="rotate(1.43756 368.815 23.0365)" stroke="#F2F4F7" stroke-width="0.532557"/>
<path d="M375.173 35.0489C374.364 35.0286 373.725 34.3573 373.745 33.5481C373.766 32.7388 374.437 32.1004 375.246 32.1207C376.056 32.141 376.694 32.8123 376.674 33.6215C376.653 34.4308 375.982 35.0692 375.173 35.0489ZM375.226 32.9193C374.859 32.9101 374.553 33.2007 374.544 33.5681C374.535 33.9354 374.826 34.2411 375.193 34.2503C375.56 34.2595 375.866 33.9688 375.875 33.6015C375.884 33.2341 375.594 32.9285 375.226 32.9193Z" fill="#11002A"/>
<path d="M382.626 35.2344C381.817 35.2141 381.178 34.5428 381.199 33.7336C381.219 32.9244 381.89 32.286 382.699 32.3063C383.509 32.3266 384.147 32.9979 384.127 33.8071C384.106 34.6163 383.435 35.2547 382.626 35.2344ZM382.679 33.1049C382.312 33.0956 382.006 33.3863 381.997 33.7536C381.988 34.121 382.279 34.4266 382.646 34.4358C383.013 34.445 383.319 34.1544 383.328 33.787C383.337 33.4197 383.047 33.1141 382.679 33.1049Z" fill="#11002A"/>
<path d="M378.899 35.1407C378.09 35.1204 377.452 34.4491 377.472 33.6399C377.492 32.8306 378.164 32.1922 378.973 32.2125C379.782 32.2328 380.42 32.9041 380.4 33.7133C380.38 34.5226 379.709 35.161 378.899 35.1407ZM378.953 33.0111C378.585 33.0019 378.28 33.2925 378.271 33.6599C378.261 34.0272 378.552 34.3329 378.919 34.3421C379.287 34.3513 379.592 34.0606 379.602 33.6933C379.611 33.3259 379.32 33.0203 378.953 33.0111Z" fill="#11002A"/>
<rect x="17.4294" y="99.4897" width="370.127" height="28.5093" rx="1.86395" transform="rotate(1.43756 17.4294 99.4897)" fill="white"/>
<rect x="17.4294" y="99.4897" width="370.127" height="28.5093" rx="1.86395" transform="rotate(1.43756 17.4294 99.4897)" stroke="#F2F4F7" stroke-width="0.532557"/>
<rect x="25.6765" y="110.494" width="6.92324" height="6.92324" rx="0.798835" transform="rotate(1.43756 25.6765 110.494)" stroke="#C5CEDA" stroke-width="0.532557"/>
<path d="M42.9588 111.229L42.8293 116.386L42.1511 116.369L42.2476 112.523L40.4368 116.326L39.9597 116.314L38.3347 112.418L38.238 116.271L37.5597 116.254L37.6892 111.096L38.4196 111.115L40.2207 115.426L42.2358 111.21L42.9588 111.229ZM43.7778 114.352C43.7883 113.934 43.8819 113.571 44.0587 113.262C44.2356 112.949 44.4729 112.708 44.7704 112.542C45.0729 112.375 45.4055 112.297 45.7683 112.306C46.126 112.315 46.4347 112.4 46.6941 112.56C46.9536 112.721 47.1451 112.92 47.2684 113.156L47.2871 112.411L47.9728 112.428L47.8703 116.513L47.1846 116.496L47.2037 115.735C47.0635 115.971 46.8573 116.164 46.585 116.316C46.3178 116.464 46.0077 116.533 45.6549 116.524C45.2922 116.515 44.9665 116.418 44.6778 116.231C44.3891 116.045 44.1644 115.788 44.0035 115.461C43.8427 115.134 43.7675 114.764 43.7778 114.352ZM47.236 114.446C47.2438 114.138 47.1884 113.868 47.0699 113.636C46.9514 113.405 46.7868 113.226 46.5761 113.102C46.3706 112.972 46.1411 112.904 45.8877 112.898C45.6342 112.892 45.4017 112.946 45.19 113.06C44.9783 113.174 44.8075 113.343 44.6775 113.569C44.5476 113.794 44.4787 114.061 44.471 114.369C44.4631 114.682 44.5184 114.957 44.6367 115.194C44.7552 115.425 44.9173 115.606 45.1228 115.735C45.3285 115.86 45.5581 115.925 45.8115 115.932C46.0649 115.938 46.2975 115.884 46.5092 115.77C46.726 115.651 46.8993 115.479 47.0293 115.254C47.1594 115.023 47.2283 114.754 47.236 114.446ZM49.8332 111.043L49.6948 116.559L49.0165 116.542L49.1549 111.026L49.8332 111.043ZM54.6327 114.482C54.6294 114.612 54.6185 114.748 54.6 114.892L51.3354 114.81C51.3501 115.213 51.4789 115.532 51.7216 115.767C51.9694 115.997 52.2722 116.116 52.6299 116.125C52.9231 116.132 53.1683 116.071 53.3654 115.942C53.5677 115.808 53.7114 115.628 53.7967 115.401L54.5271 115.419C54.4079 115.809 54.1813 116.124 53.8471 116.364C53.513 116.6 53.1025 116.711 52.6155 116.699C52.228 116.689 51.8823 116.594 51.5786 116.412C51.2799 116.23 51.0475 115.979 50.8816 115.656C50.7158 115.329 50.6382 114.954 50.6488 114.532C50.6594 114.109 50.7531 113.741 50.9301 113.427C51.107 113.114 51.3491 112.876 51.6565 112.715C51.9689 112.549 52.3239 112.47 52.7214 112.48C53.109 112.49 53.4497 112.583 53.7436 112.76C54.0375 112.936 54.2602 113.175 54.4118 113.477C54.5684 113.775 54.642 114.11 54.6327 114.482ZM53.9356 114.323C53.9421 114.065 53.8905 113.842 53.7808 113.656C53.6713 113.464 53.5183 113.318 53.3219 113.219C53.1306 113.115 52.9157 113.06 52.6772 113.054C52.3343 113.045 52.0384 113.147 51.7894 113.359C51.5455 113.572 51.4012 113.872 51.3567 114.258L53.9356 114.323Z" fill="#11002A"/>
<rect x="16.4871" y="137.04" width="370.127" height="28.5093" rx="1.86395" transform="rotate(1.43756 16.4871 137.04)" fill="white"/>
<rect x="16.4871" y="137.04" width="370.127" height="28.5093" rx="1.86395" transform="rotate(1.43756 16.4871 137.04)" stroke="#F2F4F7" stroke-width="0.532557"/>
<rect x="24.7341" y="148.044" width="6.92324" height="6.92324" rx="0.798835" transform="rotate(1.43756 24.7341 148.044)" stroke="#C5CEDA" stroke-width="0.532557"/>
<path d="M39.6844 148.683L39.6705 149.235L37.4122 149.178L37.3682 150.93L39.2017 150.976L39.1879 151.528L37.3544 151.481L37.2956 153.822L36.6174 153.805L36.7477 148.61L39.6844 148.683ZM44.1551 151.794C44.1519 151.923 44.141 152.06 44.1224 152.203L40.8578 152.121C40.8726 152.524 41.0013 152.843 41.244 153.078C41.4918 153.308 41.7946 153.428 42.1524 153.437C42.4456 153.444 42.6907 153.383 42.8879 153.254C43.0901 153.12 43.2339 152.939 43.3191 152.713L44.0495 152.731C43.9304 153.121 43.7037 153.436 43.3695 153.676C43.0354 153.911 42.6249 154.023 42.138 154.011C41.7504 154.001 41.4048 153.905 41.101 153.723C40.8023 153.542 40.57 153.29 40.404 152.968C40.2382 152.64 40.1606 152.265 40.1712 151.843C40.1818 151.421 40.2756 151.053 40.4525 150.739C40.6294 150.425 40.8716 150.188 41.1789 150.026C41.4914 149.86 41.8463 149.782 42.2438 149.792C42.6314 149.802 42.9722 149.895 43.2661 150.071C43.56 150.248 43.7827 150.487 43.9342 150.789C44.0908 151.086 44.1644 151.421 44.1551 151.794ZM43.458 151.635C43.4645 151.376 43.4129 151.154 43.3032 150.967C43.1937 150.775 43.0407 150.63 42.8443 150.53C42.653 150.426 42.4381 150.371 42.1996 150.365C41.8568 150.356 41.5609 150.458 41.3119 150.671C41.0679 150.884 40.9236 151.183 40.8791 151.57L43.458 151.635ZM50.0114 149.979C50.3294 149.987 50.611 150.062 50.856 150.202C51.1012 150.337 51.2926 150.539 51.4301 150.806C51.5676 151.072 51.6316 151.395 51.6221 151.772L51.5617 154.18L50.8909 154.163L50.9489 151.852C50.9591 151.445 50.865 151.132 50.6667 150.913C50.4734 150.69 50.2053 150.573 49.8625 150.565C49.5097 150.556 49.2261 150.663 49.0116 150.887C48.7973 151.105 48.6848 151.428 48.6741 151.855L48.6176 154.106L47.9468 154.089L48.0048 151.779C48.015 151.371 47.9209 151.058 47.7225 150.839C47.5293 150.616 47.2612 150.5 46.9183 150.491C46.5656 150.482 46.2819 150.589 46.0675 150.813C45.8532 151.031 45.7407 151.354 45.73 151.781L45.6735 154.032L44.9952 154.015L45.0977 149.931L45.776 149.948L45.7612 150.536C45.9007 150.326 46.0837 150.167 46.3102 150.058C46.5416 149.949 46.794 149.899 47.0673 149.905C47.4101 149.914 47.7113 149.999 47.9708 150.159C48.2303 150.32 48.4209 150.551 48.5426 150.852C48.6641 150.567 48.8586 150.348 49.1259 150.196C49.3933 150.043 49.6884 149.971 50.0114 149.979ZM52.4725 152.144C52.483 151.727 52.5766 151.364 52.7534 151.055C52.9303 150.741 53.1676 150.501 53.4651 150.335C53.7676 150.168 54.1002 150.089 54.463 150.099C54.8207 150.107 55.1294 150.192 55.3888 150.353C55.6483 150.514 55.8397 150.712 55.9631 150.949L55.9818 150.204L56.6675 150.221L56.565 154.305L55.8793 154.288L55.8984 153.528C55.7582 153.763 55.552 153.957 55.2797 154.109C55.0124 154.257 54.7024 154.326 54.3496 154.317C53.9869 154.308 53.6612 154.21 53.3725 154.024C53.0838 153.838 52.8591 153.581 52.6982 153.254C52.5374 152.927 52.4622 152.557 52.4725 152.144ZM55.9307 152.239C55.9384 151.93 55.8831 151.661 55.7646 151.429C55.6461 151.197 55.4815 151.019 55.2708 150.894C55.0653 150.765 54.8358 150.697 54.5823 150.691C54.3289 150.684 54.0964 150.738 53.8847 150.852C53.673 150.966 53.5022 151.136 53.3722 151.361C53.2422 151.587 53.1734 151.854 53.1657 152.162C53.1578 152.475 53.2131 152.75 53.3314 152.986C53.4499 153.218 53.612 153.399 53.8175 153.528C54.0232 153.652 54.2528 153.718 54.5062 153.724C54.7596 153.731 54.9922 153.677 55.2039 153.563C55.4207 153.444 55.594 153.272 55.724 153.046C55.8541 152.816 55.923 152.547 55.9307 152.239ZM58.5279 148.836L58.3895 154.351L57.7112 154.334L57.8496 148.819L58.5279 148.836ZM63.3273 152.275C63.3241 152.404 63.3132 152.541 63.2947 152.684L60.0301 152.602C60.0448 153.006 60.1736 153.325 60.4163 153.559C60.6641 153.789 60.9669 153.909 61.3246 153.918C61.6178 153.925 61.863 153.864 62.0601 153.735C62.2624 153.601 62.4061 153.42 62.4913 153.194L63.2218 153.212C63.1026 153.602 62.8759 153.917 62.5418 154.157C62.2077 154.392 61.7972 154.504 61.3102 154.492C60.9226 154.482 60.577 154.386 60.2733 154.205C59.9745 154.023 59.7422 153.771 59.5763 153.449C59.4105 153.121 59.3329 152.747 59.3435 152.324C59.3541 151.902 59.4478 151.534 59.6247 151.22C59.8017 150.906 60.0438 150.669 60.3512 150.507C60.6636 150.341 61.0186 150.263 61.4161 150.273C61.8037 150.283 62.1444 150.376 62.4383 150.552C62.7322 150.729 62.9549 150.968 63.1064 151.27C63.2631 151.567 63.3367 151.902 63.3273 152.275ZM62.6303 152.116C62.6368 151.857 62.5852 151.635 62.4755 151.448C62.3659 151.256 62.213 151.111 62.0166 151.012C61.8253 150.907 61.6104 150.852 61.3719 150.846C61.029 150.838 60.7331 150.94 60.4841 151.152C60.2401 151.365 60.0959 151.664 60.0514 152.051L62.6303 152.116Z" fill="#11002A"/>
<rect x="15.5447" y="174.591" width="370.127" height="28.5093" rx="1.86395" transform="rotate(1.43756 15.5447 174.591)" fill="white"/>
<rect x="15.5447" y="174.591" width="370.127" height="28.5093" rx="1.86395" transform="rotate(1.43756 15.5447 174.591)" stroke="#F2F4F7" stroke-width="0.532557"/>
<rect x="23.7917" y="185.595" width="6.92324" height="6.92324" rx="0.798835" transform="rotate(1.43756 23.7917 185.595)" stroke="#C5CEDA" stroke-width="0.532557"/>
<path d="M41.074 186.33L40.9446 191.488L40.2663 191.471L40.3628 187.625L38.552 191.428L38.075 191.416L36.4499 187.519L36.3532 191.373L35.675 191.356L35.8044 186.198L36.5348 186.216L38.3359 190.527L40.351 186.312L41.074 186.33ZM41.893 189.453C41.9035 189.036 41.9972 188.673 42.174 188.364C42.3509 188.05 42.5881 187.81 42.8856 187.643C43.1881 187.477 43.5208 187.398 43.8835 187.407C44.2413 187.416 44.5499 187.501 44.8094 187.662C45.0689 187.823 45.2603 188.021 45.3836 188.258L45.4023 187.513L46.088 187.53L45.9855 191.614L45.2998 191.597L45.3189 190.837C45.1788 191.072 44.9725 191.266 44.7002 191.418C44.433 191.565 44.123 191.635 43.7702 191.626C43.4074 191.617 43.0817 191.519 42.7931 191.333C42.5044 191.147 42.2796 190.89 42.1188 190.563C41.9579 190.235 41.8827 189.866 41.893 189.453ZM45.3513 189.547C45.359 189.239 45.3036 188.97 45.1851 188.738C45.0666 188.506 44.9021 188.328 44.6914 188.203C44.4858 188.074 44.2563 188.006 44.0029 188C43.7495 187.993 43.5169 188.047 43.3052 188.161C43.0935 188.275 42.9227 188.445 42.7928 188.67C42.6628 188.896 42.5939 189.163 42.5862 189.471C42.5784 189.784 42.6336 190.059 42.752 190.295C42.8705 190.527 43.0325 190.707 43.2381 190.837C43.4438 190.961 43.6733 191.027 43.9268 191.033C44.1802 191.04 44.4127 190.986 44.6244 190.872C44.8412 190.753 45.0146 190.581 45.1445 190.355C45.2746 190.125 45.3435 189.856 45.3513 189.547ZM47.9484 186.145L47.81 191.66L47.1317 191.643L47.2702 186.128L47.9484 186.145ZM52.7479 189.584C52.7446 189.713 52.7338 189.85 52.7152 189.993L49.4506 189.911C49.4654 190.314 49.5941 190.633 49.8368 190.868C50.0846 191.098 50.3874 191.218 50.7452 191.227C51.0383 191.234 51.2835 191.173 51.4807 191.044C51.6829 190.91 51.8267 190.729 51.9119 190.503L52.6423 190.521C52.5232 190.911 52.2965 191.226 51.9623 191.466C51.6282 191.701 51.2177 191.813 50.7308 191.801C50.3432 191.791 49.9975 191.695 49.6938 191.514C49.3951 191.332 49.1628 191.08 48.9968 190.758C48.831 190.43 48.7534 190.055 48.764 189.633C48.7746 189.211 48.8684 188.843 49.0453 188.529C49.2222 188.215 49.4644 187.978 49.7717 187.816C50.0841 187.65 50.4391 187.572 50.8366 187.582C51.2242 187.592 51.565 187.685 51.8589 187.861C52.1528 188.038 52.3755 188.277 52.527 188.579C52.6836 188.876 52.7572 189.211 52.7479 189.584ZM52.0508 189.425C52.0573 189.166 52.0057 188.944 51.896 188.757C51.7865 188.565 51.6335 188.42 51.4371 188.32C51.2458 188.216 51.0309 188.161 50.7924 188.155C50.4496 188.147 50.1536 188.248 49.9047 188.461C49.6607 188.674 49.5164 188.973 49.4719 189.36L52.0508 189.425Z" fill="#11002A"/>
<rect x="14.6023" y="212.142" width="370.127" height="28.5093" rx="1.86395" transform="rotate(1.43756 14.6023 212.142)" fill="white"/>
<rect x="14.6023" y="212.142" width="370.127" height="28.5093" rx="1.86395" transform="rotate(1.43756 14.6023 212.142)" stroke="#F2F4F7" stroke-width="0.532557"/>
<rect x="22.8494" y="223.146" width="6.92324" height="6.92324" rx="0.798835" transform="rotate(1.43756 22.8494 223.146)" stroke="#C5CEDA" stroke-width="0.532557"/>
<path d="M37.7996 223.785L37.7858 224.337L35.5274 224.28L35.4834 226.031L37.317 226.078L37.3031 226.629L35.4696 226.583L35.4109 228.923L34.7326 228.906L34.863 223.711L37.7996 223.785ZM42.2703 226.895C42.2671 227.025 42.2562 227.161 42.2377 227.305L38.9731 227.223C38.9878 227.626 39.1165 227.945 39.3593 228.18C39.6071 228.41 39.9098 228.529 40.2676 228.538C40.5608 228.546 40.8059 228.485 41.0031 228.355C41.2054 228.221 41.3491 228.041 41.4343 227.814L42.1648 227.833C42.0456 228.222 41.8189 228.537 41.4847 228.778C41.1507 229.013 40.7402 229.124 40.2532 229.112C39.8656 229.102 39.52 229.007 39.2163 228.825C38.9175 228.644 38.6852 228.392 38.5193 228.069C38.3535 227.742 38.2759 227.367 38.2864 226.945C38.297 226.522 38.3908 226.154 38.5677 225.84C38.7447 225.527 38.9868 225.289 39.2941 225.128C39.6066 224.962 39.9616 224.883 40.3591 224.893C40.7467 224.903 41.0874 224.996 41.3813 225.173C41.6752 225.349 41.8979 225.588 42.0494 225.89C42.2061 226.188 42.2797 226.523 42.2703 226.895ZM41.5733 226.736C41.5797 226.478 41.5282 226.255 41.4185 226.069C41.3089 225.877 41.156 225.731 40.9596 225.632C40.7683 225.528 40.5534 225.473 40.3149 225.467C39.972 225.458 39.6761 225.56 39.4271 225.772C39.1831 225.985 39.0389 226.285 38.9944 226.672L41.5733 226.736ZM48.1266 225.081C48.4446 225.089 48.7262 225.163 48.9713 225.303C49.2165 225.439 49.4078 225.64 49.5453 225.907C49.6828 226.174 49.7468 226.496 49.7373 226.874L49.6769 229.281L49.0061 229.265L49.0641 226.954C49.0743 226.547 48.9803 226.233 48.7819 226.015C48.5886 225.791 48.3206 225.675 47.9777 225.666C47.6249 225.658 47.3413 225.765 47.1269 225.988C46.9125 226.206 46.8 226.529 46.7893 226.957L46.7328 229.208L46.062 229.191L46.12 226.88C46.1302 226.473 46.0361 226.16 45.8378 225.941C45.6445 225.717 45.3764 225.601 45.0336 225.592C44.6808 225.584 44.3972 225.691 44.1827 225.914C43.9684 226.133 43.8559 226.455 43.8452 226.883L43.7887 229.134L43.1104 229.117L43.2129 225.032L43.8912 225.049L43.8764 225.638C44.016 225.428 44.199 225.268 44.4254 225.16C44.6569 225.051 44.9092 225 45.1825 225.007C45.5254 225.016 45.8266 225.1 46.086 225.261C46.3455 225.422 46.5361 225.653 46.6578 225.954C46.7794 225.669 46.9738 225.45 47.2411 225.297C47.5085 225.145 47.8037 225.073 48.1266 225.081ZM50.5877 227.246C50.5982 226.828 50.6918 226.465 50.8686 226.157C51.0456 225.843 51.2828 225.603 51.5803 225.436C51.8828 225.27 52.2155 225.191 52.5782 225.2C52.936 225.209 53.2446 225.294 53.5041 225.455C53.7636 225.615 53.955 225.814 54.0783 226.051L54.097 225.305L54.7827 225.323L54.6802 229.407L53.9945 229.39L54.0136 228.63C53.8734 228.865 53.6672 229.058 53.3949 229.211C53.1277 229.358 52.8177 229.427 52.4649 229.419C52.1021 229.409 51.7764 229.312 51.4877 229.126C51.1991 228.939 50.9743 228.683 50.8135 228.355C50.6526 228.028 50.5774 227.658 50.5877 227.246ZM54.0459 227.34C54.0537 227.032 53.9983 226.762 53.8798 226.53C53.7613 226.299 53.5967 226.121 53.3861 225.996C53.1805 225.867 52.951 225.799 52.6976 225.792C52.4442 225.786 52.2116 225.84 51.9999 225.954C51.7882 226.068 51.6174 226.238 51.4874 226.463C51.3575 226.688 51.2886 226.955 51.2809 227.263C51.2731 227.576 51.3283 227.851 51.4467 228.088C51.5652 228.32 51.7272 228.5 51.9328 228.63C52.1385 228.754 52.368 228.819 52.6214 228.826C52.8749 228.832 53.1074 228.778 53.3191 228.664C53.5359 228.545 53.7093 228.373 53.8392 228.148C53.9693 227.917 54.0382 227.648 54.0459 227.34ZM56.6431 223.937L56.5047 229.453L55.8264 229.436L55.9648 223.92L56.6431 223.937ZM61.4426 227.377C61.4393 227.506 61.4285 227.642 61.4099 227.786L58.1453 227.704C58.1601 228.107 58.2888 228.426 58.5315 228.661C58.7793 228.891 59.0821 229.01 59.4399 229.019C59.733 229.027 59.9782 228.966 60.1753 228.836C60.3776 228.702 60.5213 228.522 60.6066 228.295L61.337 228.314C61.2179 228.703 60.9912 229.018 60.657 229.259C60.3229 229.494 59.9124 229.605 59.4255 229.593C59.0379 229.583 58.6922 229.488 58.3885 229.306C58.0898 229.125 57.8574 228.873 57.6915 228.55C57.5257 228.223 57.4481 227.848 57.4587 227.426C57.4693 227.003 57.5631 226.635 57.74 226.322C57.9169 226.008 58.159 225.77 58.4664 225.609C58.7788 225.443 59.1338 225.365 59.5313 225.375C59.9189 225.384 60.2596 225.477 60.5535 225.654C60.8474 225.83 61.0702 226.069 61.2217 226.372C61.3783 226.669 61.4519 227.004 61.4426 227.377ZM60.7455 227.217C60.752 226.959 60.7004 226.736 60.5907 226.55C60.4812 226.358 60.3282 226.212 60.1318 226.113C59.9405 226.009 59.7256 225.954 59.4871 225.948C59.1443 225.939 58.8483 226.041 58.5994 226.254C58.3554 226.466 58.2111 226.766 58.1666 227.153L60.7455 227.217Z" fill="#11002A"/>
</svg>
