<svg width="220" height="196" viewBox="0 0 220 196" fill="none" xmlns="http://www.w3.org/2000/svg">
<rect x="0.5" y="0.5" width="219" height="195" rx="15.5" fill="white"/>
<rect x="0.5" y="0.5" width="219" height="195" rx="15.5" stroke="#F2F4F7"/>
<rect x="70.5" y="32.5" width="79" height="79" rx="7.5" fill="#F2F4F7" stroke="#F2F4F7"/>
<g clip-path="url(#clip0_1_18727)">
<path d="M126.407 61.5167V91.7638C126.407 93.3887 125.086 94.71 123.461 94.71H96.2494C94.6245 94.71 93.3032 93.3887 93.3032 91.7638V51.9462C93.3032 50.3213 94.6245 49 96.2494 49H113.891L126.407 61.5167Z" fill="#518FF5"/>
<path d="M101.392 71.9532H118.319V73.837H101.392V71.9532ZM101.392 76.1493H118.319V78.033H101.392V76.1493ZM101.392 80.3542H118.319V82.238H101.392V80.3542ZM101.392 84.5502H113.435V86.434H101.392V84.5502Z" fill="white"/>
<path d="M115.596 61.0435L126.407 69.8016V61.5702L120.283 58.017L115.596 61.0435Z" fill="black" fill-opacity="0.098"/>
<path d="M126.407 61.5167H116.837C115.212 61.5167 113.891 60.1954 113.891 58.5705V49L126.407 61.5167Z" fill="#A6C5FA"/>
</g>
<path d="M50.1758 147.379V144.496H58.3203V150.309C57.6094 151.512 56.5391 152.465 55.1094 153.168C53.6797 153.863 52.0859 154.211 50.3281 154.211C49.1484 154.211 48.0312 153.984 46.9766 153.531C45.9219 153.078 45.0195 152.465 44.2695 151.691C43.5195 150.91 42.9258 149.984 42.4883 148.914C42.0508 147.844 41.832 146.715 41.832 145.527C41.832 143.934 42.1992 142.484 42.9336 141.18C43.6758 139.867 44.6953 138.836 45.9922 138.086C47.2891 137.336 48.7266 136.961 50.3047 136.961C51.6562 136.961 52.9219 137.234 54.1016 137.781C55.2891 138.328 56.2539 139.059 56.9961 139.973C57.7383 140.879 58.1797 141.859 58.3203 142.914H54.3125C54.0625 142.148 53.5664 141.543 52.8242 141.098C52.0898 140.645 51.25 140.418 50.3047 140.418C48.8984 140.418 47.7422 140.898 46.8359 141.859C45.9297 142.82 45.4766 144.043 45.4766 145.527C45.4766 147.051 45.9609 148.309 46.9297 149.301C47.8984 150.293 49.1172 150.789 50.5859 150.789C52.4453 150.789 53.8398 150.18 54.7695 148.961V147.379H50.1758ZM66.1836 154.234C64.4414 154.234 62.9844 153.652 61.8125 152.488C60.6406 151.324 60.0547 149.867 60.0547 148.117C60.0547 146.367 60.6406 144.906 61.8125 143.734C62.9844 142.562 64.4414 141.977 66.1836 141.977C67.0352 141.977 67.8359 142.133 68.5859 142.445C69.3438 142.758 69.9922 143.188 70.5312 143.734C71.0781 144.273 71.5078 144.926 71.8203 145.691C72.1406 146.449 72.3008 147.258 72.3008 148.117C72.3008 149.266 72.0312 150.309 71.4922 151.246C70.9609 152.184 70.2266 152.918 69.2891 153.449C68.3594 153.973 67.3242 154.234 66.1836 154.234ZM66.1836 151C66.9727 151 67.6367 150.723 68.1758 150.168C68.7148 149.613 68.9844 148.93 68.9844 148.117C68.9844 147.281 68.7148 146.59 68.1758 146.043C67.6445 145.488 66.9805 145.211 66.1836 145.211C65.3789 145.211 64.707 145.488 64.168 146.043C63.6367 146.59 63.3711 147.281 63.3711 148.117C63.3711 148.93 63.6367 149.613 64.168 150.168C64.707 150.723 65.3789 151 66.1836 151ZM79.707 154.234C77.9648 154.234 76.5078 153.652 75.3359 152.488C74.1641 151.324 73.5781 149.867 73.5781 148.117C73.5781 146.367 74.1641 144.906 75.3359 143.734C76.5078 142.562 77.9648 141.977 79.707 141.977C80.5586 141.977 81.3594 142.133 82.1094 142.445C82.8672 142.758 83.5156 143.188 84.0547 143.734C84.6016 144.273 85.0312 144.926 85.3438 145.691C85.6641 146.449 85.8242 147.258 85.8242 148.117C85.8242 149.266 85.5547 150.309 85.0156 151.246C84.4844 152.184 83.75 152.918 82.8125 153.449C81.8828 153.973 80.8477 154.234 79.707 154.234ZM79.707 151C80.4961 151 81.1602 150.723 81.6992 150.168C82.2383 149.613 82.5078 148.93 82.5078 148.117C82.5078 147.281 82.2383 146.59 81.6992 146.043C81.168 145.488 80.5039 145.211 79.707 145.211C78.9023 145.211 78.2305 145.488 77.6914 146.043C77.1602 146.59 76.8945 147.281 76.8945 148.117C76.8945 148.93 77.1602 149.613 77.6914 150.168C78.2305 150.723 78.9023 151 79.707 151ZM96.0781 142.188H99.4648V153.496C99.4648 154.582 99.1953 155.535 98.6562 156.355C98.1172 157.176 97.3906 157.797 96.4766 158.219C95.5625 158.641 94.5352 158.852 93.3945 158.852C92.918 158.852 92.4336 158.812 91.9414 158.734C91.457 158.664 90.9375 158.52 90.3828 158.301C89.8281 158.09 89.3359 157.82 88.9062 157.492C88.4844 157.164 88.1211 156.719 87.8164 156.156C87.5117 155.594 87.3398 154.953 87.3008 154.234H90.6875C90.7344 154.734 91.0039 155.125 91.4961 155.406C91.9883 155.688 92.582 155.828 93.2773 155.828C94.043 155.828 94.6992 155.609 95.2461 155.172C95.8008 154.734 96.0781 154.16 96.0781 153.449V152.301C95.7891 152.762 95.3203 153.141 94.6719 153.438C94.0234 153.734 93.332 153.883 92.5977 153.883C91.5898 153.883 90.6641 153.617 89.8203 153.086C88.9766 152.555 88.3125 151.832 87.8281 150.918C87.3438 149.996 87.1016 148.992 87.1016 147.906C87.1016 146.828 87.3438 145.832 87.8281 144.918C88.3125 144.004 88.9766 143.281 89.8203 142.75C90.6641 142.219 91.5898 141.953 92.5977 141.953C93.332 141.953 94.0234 142.105 94.6719 142.41C95.3203 142.707 95.7891 143.09 96.0781 143.559V142.188ZM93.3477 150.766C93.918 150.766 94.4492 150.633 94.9414 150.367C95.4414 150.094 95.8203 149.746 96.0781 149.324V146.535C95.8203 146.105 95.4414 145.754 94.9414 145.48C94.4492 145.207 93.918 145.07 93.3477 145.07C92.5195 145.07 91.8242 145.344 91.2617 145.891C90.6992 146.43 90.418 147.102 90.418 147.906C90.418 148.719 90.6992 149.398 91.2617 149.945C91.8242 150.492 92.5195 150.766 93.3477 150.766ZM105.219 137.195V154H101.832V137.195H105.219ZM118.93 147.707C118.93 148.121 118.906 148.523 118.859 148.914H110.105C110.223 149.68 110.555 150.293 111.102 150.754C111.648 151.207 112.316 151.434 113.105 151.434C113.754 151.434 114.281 151.309 114.688 151.059C115.102 150.801 115.355 150.461 115.449 150.039H118.766C118.57 151.305 117.965 152.32 116.949 153.086C115.934 153.852 114.684 154.234 113.199 154.234C112.059 154.234 111.012 153.965 110.059 153.426C109.113 152.879 108.367 152.133 107.82 151.188C107.273 150.234 107 149.188 107 148.047C107 146.336 107.59 144.898 108.77 143.734C109.957 142.562 111.41 141.977 113.129 141.977C114.176 141.977 115.145 142.227 116.035 142.727C116.926 143.227 117.629 143.918 118.145 144.801C118.668 145.684 118.93 146.652 118.93 147.707ZM110.27 146.758H115.402C115.355 146.172 115.098 145.684 114.629 145.293C114.16 144.902 113.609 144.707 112.977 144.707C112.312 144.707 111.746 144.879 111.277 145.223C110.809 145.566 110.473 146.078 110.27 146.758ZM131.551 137.195C133.145 137.195 134.59 137.555 135.887 138.273C137.191 138.992 138.215 139.988 138.957 141.262C139.699 142.535 140.07 143.957 140.07 145.527C140.07 147.129 139.699 148.578 138.957 149.875C138.215 151.164 137.191 152.176 135.887 152.91C134.59 153.637 133.145 154 131.551 154H125.797V137.195H131.551ZM131.797 150.59C133.125 150.59 134.223 150.109 135.09 149.148C135.965 148.188 136.402 146.98 136.402 145.527C136.402 144.098 135.969 142.922 135.102 142C134.242 141.07 133.141 140.605 131.797 140.605H129.348V150.59H131.797ZM147.559 154.234C145.816 154.234 144.359 153.652 143.188 152.488C142.016 151.324 141.43 149.867 141.43 148.117C141.43 146.367 142.016 144.906 143.188 143.734C144.359 142.562 145.816 141.977 147.559 141.977C148.41 141.977 149.211 142.133 149.961 142.445C150.719 142.758 151.367 143.188 151.906 143.734C152.453 144.273 152.883 144.926 153.195 145.691C153.516 146.449 153.676 147.258 153.676 148.117C153.676 149.266 153.406 150.309 152.867 151.246C152.336 152.184 151.602 152.918 150.664 153.449C149.734 153.973 148.699 154.234 147.559 154.234ZM147.559 151C148.348 151 149.012 150.723 149.551 150.168C150.09 149.613 150.359 148.93 150.359 148.117C150.359 147.281 150.09 146.59 149.551 146.043C149.02 145.488 148.355 145.211 147.559 145.211C146.754 145.211 146.082 145.488 145.543 146.043C145.012 146.59 144.746 147.281 144.746 148.117C144.746 148.93 145.012 149.613 145.543 150.168C146.082 150.723 146.754 151 147.559 151ZM161.082 154.234C159.34 154.234 157.883 153.652 156.711 152.488C155.539 151.324 154.953 149.867 154.953 148.117C154.953 146.367 155.539 144.906 156.711 143.734C157.883 142.562 159.34 141.977 161.082 141.977C162.559 141.977 163.848 142.426 164.949 143.324C166.051 144.223 166.68 145.348 166.836 146.699H163.402C163.285 146.262 163.008 145.906 162.57 145.633C162.141 145.352 161.645 145.211 161.082 145.211C160.277 145.211 159.605 145.488 159.066 146.043C158.535 146.59 158.27 147.281 158.27 148.117C158.27 148.93 158.535 149.613 159.066 150.168C159.605 150.723 160.277 151 161.082 151C161.645 151 162.145 150.852 162.582 150.555C163.027 150.258 163.309 149.879 163.426 149.418H166.859C166.773 150.34 166.461 151.172 165.922 151.914C165.383 152.648 164.688 153.219 163.836 153.625C162.992 154.031 162.074 154.234 161.082 154.234ZM173.48 154.234C171.949 154.234 170.699 153.867 169.73 153.133C168.762 152.391 168.219 151.375 168.102 150.086H171.172C171.203 150.492 171.418 150.832 171.816 151.105C172.223 151.371 172.703 151.504 173.258 151.504C173.82 151.504 174.254 151.406 174.559 151.211C174.863 151.016 175.016 150.754 175.016 150.426C175.016 150.176 174.918 149.969 174.723 149.805C174.535 149.633 174.285 149.512 173.973 149.441C173.66 149.371 173.305 149.297 172.906 149.219C172.508 149.141 172.098 149.07 171.676 149.008C171.262 148.938 170.855 148.82 170.457 148.656C170.059 148.492 169.703 148.297 169.391 148.07C169.078 147.836 168.824 147.508 168.629 147.086C168.441 146.664 168.348 146.168 168.348 145.598C168.348 144.582 168.766 143.727 169.602 143.031C170.445 142.328 171.562 141.977 172.953 141.977C173.82 141.977 174.613 142.125 175.332 142.422C176.059 142.711 176.664 143.152 177.148 143.746C177.633 144.34 177.922 145.039 178.016 145.844H174.77C174.723 145.508 174.527 145.223 174.184 144.988C173.848 144.754 173.453 144.637 173 144.637C172.516 144.637 172.133 144.727 171.852 144.906C171.578 145.078 171.441 145.309 171.441 145.598C171.441 145.84 171.535 146.035 171.723 146.184C171.918 146.324 172.172 146.422 172.484 146.477C172.797 146.531 173.152 146.59 173.551 146.652C173.957 146.715 174.367 146.773 174.781 146.828C175.203 146.883 175.613 146.992 176.012 147.156C176.418 147.32 176.777 147.523 177.09 147.766C177.402 148.008 177.652 148.355 177.84 148.809C178.035 149.262 178.133 149.801 178.133 150.426C178.133 151.504 177.688 152.41 176.797 153.145C175.906 153.871 174.801 154.234 173.48 154.234Z" fill="#11002A"/>
<defs>
<clipPath id="clip0_1_18727">
<rect width="45.71" height="45.71" fill="white" transform="translate(87 49)"/>
</clipPath>
</defs>
</svg>
