<svg width="1238" height="846" viewBox="0 0 1238 846" fill="none" xmlns="http://www.w3.org/2000/svg">
<path d="M1112.48 667.845C1123.85 486.841 1138.68 302.502 1154.37 121.622C1155.73 107.908 1154 114.703 1154.74 116.556C1156.22 123.846 1164.38 125.452 1170.06 121.251C1095.93 210.085 954.823 377.992 879.699 466.085C832.623 521.807 785.3 577.405 737.606 632.509C729.698 642.27 578.709 816.972 577.103 819.196C513.964 906.3 380.891 868.864 373.478 761.991C372.366 750.13 370.018 726.532 368.906 714.3C349.507 513.652 341.352 308.68 333.939 107.043C335.792 119.645 351.731 143.614 376.32 142.255C388.923 143.12 406.962 131.753 410.545 122.981C406.592 129.159 278.832 310.904 271.294 321.9C103.625 560.849 -67.257 797.698 -243.081 1031.46C-246.047 1035.41 -251.607 1036.15 -255.437 1033.19C-259.021 1030.47 -260.009 1025.65 -257.908 1021.94C-83.0726 696.262 103.996 369.591 290.94 50.5798C324.178 -10.8255 415.364 -18.115 458.61 38.5953C474.055 57.4987 479.491 80.1087 481.221 103.336C503.338 301.637 524.837 503.274 534.969 702.439C535.711 715.536 536.946 739.876 537.688 753.096C534.722 709.852 477.761 689.59 448.602 723.073C454.903 716.524 472.078 699.103 478.874 692.061C620.843 545.776 795.308 368.355 939.007 223.799L1093.95 69.1126C1104.08 58.7342 1115.45 46.9968 1129.78 41.437C1179.82 18.7034 1240.86 59.4755 1237.9 114.085C1238.88 122.487 1216.4 228.865 1214.91 240.479C1187.24 383.799 1159.31 527.119 1128.67 670.069C1126.32 679.829 1111.99 677.853 1112.48 667.845Z" fill="white" fill-opacity="0.06"/>
</svg>
