<svg width="157" height="153" viewBox="0 0 157 153" fill="none" xmlns="http://www.w3.org/2000/svg">
<g filter="url(#filter0_d_1_10481)">
<rect x="28" y="24.875" width="101" height="95.251" rx="8" fill="white" shape-rendering="crispEdges"/>
<rect x="59.874" y="40.875" width="37.251" height="37.251" rx="8" fill="#FFC107"/>
<mask id="path-3-inside-1_1_10481" fill="white">
<path d="M74.6901 63.8115L70.6289 59.7503L71.6532 58.744L74.7081 61.7988L75.7144 62.8051L74.6901 63.8115ZM78.7513 63.8115L74.6901 59.7503L75.6964 58.726L78.7513 61.7809L85.3642 55.168L86.3705 56.1922L78.7513 63.8115ZM78.7513 59.7503L77.727 58.744L81.285 55.1859L82.3093 56.1922L78.7513 59.7503Z"/>
</mask>
<path d="M74.6901 63.8115L70.6289 59.7503L71.6532 58.744L74.7081 61.7988L75.7144 62.8051L74.6901 63.8115ZM78.7513 63.8115L74.6901 59.7503L75.6964 58.726L78.7513 61.7809L85.3642 55.168L86.3705 56.1922L78.7513 63.8115ZM78.7513 59.7503L77.727 58.744L81.285 55.1859L82.3093 56.1922L78.7513 59.7503Z" fill="#363E49"/>
<path d="M74.6901 63.8115L58.4257 80.0759L74.5468 96.197L90.8099 80.2192L74.6901 63.8115ZM70.6289 59.7503L54.509 43.3426L37.9555 59.6057L54.3645 76.0147L70.6289 59.7503ZM71.6532 58.744L87.9176 42.4795L71.7965 26.3584L55.5333 42.3362L71.6532 58.744ZM74.7081 61.7988L58.4436 78.0633H58.4436L74.7081 61.7988ZM75.7144 62.8051L91.8342 79.2129L108.388 62.9497L91.9788 46.5407L75.7144 62.8051ZM78.7513 63.8115L62.4868 80.0759L78.7513 96.3403L95.0157 80.0759L78.7513 63.8115ZM74.6901 59.7503L58.2824 43.6304L42.3045 59.8936L58.4257 76.0147L74.6901 59.7503ZM75.6964 58.726L91.9608 42.4616L75.5518 26.0526L59.2887 42.6061L75.6964 58.726ZM78.7513 61.7809L62.4868 78.0453L78.7513 94.3097L95.0157 78.0453L78.7513 61.7809ZM85.3642 55.168L101.772 39.0481L85.5087 22.4946L69.0997 38.9035L85.3642 55.168ZM86.3705 56.1922L102.635 72.4567L118.756 56.3355L102.778 40.0724L86.3705 56.1922ZM78.7513 59.7503L62.6314 76.158L78.8946 92.1358L95.0157 76.0147L78.7513 59.7503ZM77.727 58.744L61.4626 42.4795L45.0536 58.8885L61.6071 75.1517L77.727 58.744ZM81.285 55.1859L97.4049 38.7782L81.1417 22.8004L65.0206 38.9215L81.285 55.1859ZM82.3093 56.1922L98.5737 72.4567L114.983 56.0477L98.4291 39.7845L82.3093 56.1922ZM90.9545 47.547L86.8933 43.4858L54.3645 76.0147L58.4257 80.0759L90.9545 47.547ZM86.7488 76.158L87.7731 75.1517L55.5333 42.3362L54.509 43.3426L86.7488 76.158ZM55.3888 75.0084L58.4436 78.0633L90.9725 45.5344L87.9176 42.4795L55.3888 75.0084ZM58.4436 78.0633L59.4499 79.0696L91.9788 46.5407L90.9725 45.5344L58.4436 78.0633ZM59.5945 46.3974L58.5702 47.4037L90.8099 80.2192L91.8342 79.2129L59.5945 46.3974ZM95.0157 47.547L90.9545 43.4858L58.4257 76.0147L62.4868 80.0759L95.0157 47.547ZM91.0978 75.8701L92.1041 74.8459L59.2887 42.6061L58.2824 43.6304L91.0978 75.8701ZM59.432 74.9904L62.4868 78.0453L95.0157 45.5164L91.9608 42.4616L59.432 74.9904ZM95.0157 78.0453L101.629 71.4324L69.0997 38.9035L62.4868 45.5164L95.0157 78.0453ZM68.9565 71.2878L69.9628 72.3121L102.778 40.0724L101.772 39.0481L68.9565 71.2878ZM70.106 39.9278L62.4868 47.547L95.0157 80.0759L102.635 72.4567L70.106 39.9278ZM94.8711 43.3426L93.8468 42.3362L61.6071 75.1517L62.6314 76.158L94.8711 43.3426ZM93.9914 75.0084L97.5494 71.4504L65.0206 38.9215L61.4626 42.4795L93.9914 75.0084ZM65.1651 71.5937L66.1894 72.6L98.4291 39.7845L97.4049 38.7782L65.1651 71.5937ZM66.0449 39.9278L62.4868 43.4858L95.0157 76.0147L98.5737 72.4567L66.0449 39.9278Z" fill="#363E49" mask="url(#path-3-inside-1_1_10481)"/>
<path d="M53.408 90.823V99.127H52.316V92.935L49.556 99.127H48.788L46.016 92.923V99.127H44.924V90.823H46.1L49.172 97.687L52.244 90.823H53.408ZM61.0919 92.551V99.127H59.9999V98.155C59.7919 98.491 59.4999 98.755 59.1239 98.947C58.7559 99.131 58.3479 99.223 57.8999 99.223C57.3879 99.223 56.9279 99.119 56.5199 98.911C56.1119 98.695 55.7879 98.375 55.5479 97.951C55.3159 97.527 55.1999 97.011 55.1999 96.403V92.551H56.2799V96.259C56.2799 96.907 56.4439 97.407 56.7719 97.759C57.0999 98.103 57.5479 98.275 58.1159 98.275C58.6999 98.275 59.1599 98.095 59.4959 97.735C59.8319 97.375 59.9999 96.851 59.9999 96.163V92.551H61.0919ZM64.0277 90.247V99.127H62.9357V90.247H64.0277ZM67.2208 93.451V97.327C67.2208 97.647 67.2888 97.875 67.4248 98.011C67.5608 98.139 67.7968 98.203 68.1328 98.203H68.9368V99.127H67.9528C67.3448 99.127 66.8888 98.987 66.5848 98.707C66.2808 98.427 66.1288 97.967 66.1288 97.327V93.451H65.2768V92.551H66.1288V90.895H67.2208V92.551H68.9368V93.451H67.2208ZM70.8239 91.483C70.6159 91.483 70.4399 91.411 70.2959 91.267C70.1519 91.123 70.0799 90.947 70.0799 90.739C70.0799 90.531 70.1519 90.355 70.2959 90.211C70.4399 90.067 70.6159 89.995 70.8239 89.995C71.0239 89.995 71.1919 90.067 71.3279 90.211C71.4719 90.355 71.5439 90.531 71.5439 90.739C71.5439 90.947 71.4719 91.123 71.3279 91.267C71.1919 91.411 71.0239 91.483 70.8239 91.483ZM71.3519 92.551V99.127H70.2599V92.551H71.3519ZM79.0643 99.211C78.5123 99.211 78.0163 99.115 77.5763 98.923C77.1443 98.723 76.8043 98.451 76.5563 98.107C76.3083 97.755 76.1803 97.351 76.1723 96.895H77.3363C77.3763 97.287 77.5363 97.619 77.8163 97.891C78.1043 98.155 78.5203 98.287 79.0643 98.287C79.5843 98.287 79.9923 98.159 80.2883 97.903C80.5923 97.639 80.7443 97.303 80.7443 96.895C80.7443 96.575 80.6563 96.315 80.4803 96.115C80.3043 95.915 80.0843 95.763 79.8203 95.659C79.5563 95.555 79.2003 95.443 78.7523 95.323C78.2003 95.179 77.7563 95.035 77.4203 94.891C77.0923 94.747 76.8083 94.523 76.5683 94.219C76.3363 93.907 76.2203 93.491 76.2203 92.971C76.2203 92.515 76.3363 92.111 76.5683 91.759C76.8003 91.407 77.1243 91.135 77.5403 90.943C77.9643 90.751 78.4483 90.655 78.9923 90.655C79.7763 90.655 80.4163 90.851 80.9123 91.243C81.4163 91.635 81.7003 92.155 81.7643 92.803H80.5643C80.5243 92.483 80.3563 92.203 80.0603 91.963C79.7643 91.715 79.3723 91.591 78.8843 91.591C78.4283 91.591 78.0563 91.711 77.7683 91.951C77.4803 92.183 77.3363 92.511 77.3363 92.935C77.3363 93.239 77.4203 93.487 77.5883 93.679C77.7643 93.871 77.9763 94.019 78.2243 94.123C78.4803 94.219 78.8363 94.331 79.2923 94.459C79.8443 94.611 80.2883 94.763 80.6243 94.915C80.9603 95.059 81.2483 95.287 81.4883 95.599C81.7283 95.903 81.8483 96.319 81.8483 96.847C81.8483 97.255 81.7403 97.639 81.5243 97.999C81.3083 98.359 80.9883 98.651 80.5643 98.875C80.1403 99.099 79.6403 99.211 79.0643 99.211ZM89.4553 95.587C89.4553 95.795 89.4433 96.015 89.4193 96.247H84.1633C84.2033 96.895 84.4233 97.403 84.8233 97.771C85.2313 98.131 85.7233 98.311 86.2993 98.311C86.7713 98.311 87.1633 98.203 87.4753 97.987C87.7953 97.763 88.0193 97.467 88.1473 97.099H89.3233C89.1473 97.731 88.7953 98.247 88.2673 98.647C87.7393 99.039 87.0833 99.235 86.2993 99.235C85.6753 99.235 85.1153 99.095 84.6193 98.815C84.1313 98.535 83.7473 98.139 83.4673 97.627C83.1873 97.107 83.0473 96.507 83.0473 95.827C83.0473 95.147 83.1833 94.551 83.4553 94.039C83.7273 93.527 84.1073 93.135 84.5953 92.863C85.0913 92.583 85.6593 92.443 86.2993 92.443C86.9233 92.443 87.4753 92.579 87.9553 92.851C88.4353 93.123 88.8033 93.499 89.0593 93.979C89.3233 94.451 89.4553 94.987 89.4553 95.587ZM88.3273 95.359C88.3273 94.943 88.2353 94.587 88.0513 94.291C87.8673 93.987 87.6153 93.759 87.2953 93.607C86.9833 93.447 86.6353 93.367 86.2513 93.367C85.6993 93.367 85.2273 93.543 84.8353 93.895C84.4513 94.247 84.2313 94.735 84.1753 95.359H88.3273ZM91.9887 90.247V99.127H90.8967V90.247H91.9887ZM99.8498 95.587C99.8498 95.795 99.8378 96.015 99.8138 96.247H94.5578C94.5978 96.895 94.8178 97.403 95.2178 97.771C95.6258 98.131 96.1178 98.311 96.6938 98.311C97.1658 98.311 97.5578 98.203 97.8698 97.987C98.1898 97.763 98.4138 97.467 98.5418 97.099H99.7178C99.5418 97.731 99.1898 98.247 98.6618 98.647C98.1338 99.039 97.4778 99.235 96.6938 99.235C96.0698 99.235 95.5098 99.095 95.0138 98.815C94.5258 98.535 94.1418 98.139 93.8618 97.627C93.5818 97.107 93.4418 96.507 93.4418 95.827C93.4418 95.147 93.5778 94.551 93.8498 94.039C94.1218 93.527 94.5018 93.135 94.9898 92.863C95.4858 92.583 96.0538 92.443 96.6938 92.443C97.3178 92.443 97.8698 92.579 98.3498 92.851C98.8298 93.123 99.1978 93.499 99.4538 93.979C99.7178 94.451 99.8498 94.987 99.8498 95.587ZM98.7218 95.359C98.7218 94.943 98.6298 94.587 98.4458 94.291C98.2618 93.987 98.0098 93.759 97.6898 93.607C97.3778 93.447 97.0298 93.367 96.6458 93.367C96.0938 93.367 95.6218 93.543 95.2298 93.895C94.8458 94.247 94.6258 94.735 94.5698 95.359H98.7218ZM100.883 95.827C100.883 95.147 101.019 94.555 101.291 94.051C101.563 93.539 101.939 93.143 102.419 92.863C102.907 92.583 103.463 92.443 104.087 92.443C104.895 92.443 105.559 92.639 106.079 93.031C106.607 93.423 106.955 93.967 107.123 94.663H105.947C105.835 94.263 105.615 93.947 105.287 93.715C104.967 93.483 104.567 93.367 104.087 93.367C103.463 93.367 102.959 93.583 102.575 94.015C102.191 94.439 101.999 95.043 101.999 95.827C101.999 96.619 102.191 97.231 102.575 97.663C102.959 98.095 103.463 98.311 104.087 98.311C104.567 98.311 104.967 98.199 105.287 97.975C105.607 97.751 105.827 97.431 105.947 97.015H107.123C106.947 97.687 106.595 98.227 106.067 98.635C105.539 99.035 104.879 99.235 104.087 99.235C103.463 99.235 102.907 99.095 102.419 98.815C101.939 98.535 101.563 98.139 101.291 97.627C101.019 97.115 100.883 96.515 100.883 95.827ZM109.912 93.451V97.327C109.912 97.647 109.98 97.875 110.116 98.011C110.252 98.139 110.488 98.203 110.824 98.203H111.628V99.127H110.644C110.036 99.127 109.58 98.987 109.276 98.707C108.972 98.427 108.82 97.967 108.82 97.327V93.451H107.968V92.551H108.82V90.895H109.912V92.551H111.628V93.451H109.912Z" fill="#363E49"/>
</g>
<defs>
<filter id="filter0_d_1_10481" x="0" y="0.875" width="157" height="151.252" filterUnits="userSpaceOnUse" color-interpolation-filters="sRGB">
<feFlood flood-opacity="0" result="BackgroundImageFix"/>
<feColorMatrix in="SourceAlpha" type="matrix" values="0 0 0 0 0 0 0 0 0 0 0 0 0 0 0 0 0 0 127 0" result="hardAlpha"/>
<feOffset dy="4"/>
<feGaussianBlur stdDeviation="14"/>
<feComposite in2="hardAlpha" operator="out"/>
<feColorMatrix type="matrix" values="0 0 0 0 0.292692 0 0 0 0 0.292692 0 0 0 0 0.292692 0 0 0 0.05 0"/>
<feBlend mode="normal" in2="BackgroundImageFix" result="effect1_dropShadow_1_10481"/>
<feBlend mode="normal" in="SourceGraphic" in2="effect1_dropShadow_1_10481" result="shape"/>
</filter>
</defs>
</svg>
