<svg width="205" height="154" viewBox="0 0 205 154" fill="none" xmlns="http://www.w3.org/2000/svg">
<g filter="url(#filter0_d_1_10463)">
<rect x="28" y="24" width="149" height="98" rx="8" fill="white" shape-rendering="crispEdges"/>
<rect x="82.5" y="40" width="40" height="40" rx="8" fill="#6200EE"/>
<path d="M102.5 63.75C104.571 63.75 106.25 62.0711 106.25 60C106.25 57.9289 104.571 56.25 102.5 56.25C100.429 56.25 98.75 57.9289 98.75 60C98.75 62.0711 100.429 63.75 102.5 63.75Z" fill="white"/>
<path d="M100.834 60.625H94.167C93.8253 60.625 93.542 60.3417 93.542 60C93.542 59.6583 93.8253 59.375 94.167 59.375H100.834C101.175 59.375 101.459 59.6583 101.459 60C101.459 60.3417 101.175 60.625 100.834 60.625Z" fill="white"/>
<path d="M110.834 60.625H104.167C103.825 60.625 103.542 60.3417 103.542 60C103.542 59.6583 103.825 59.375 104.167 59.375H110.834C111.175 59.375 111.459 59.6583 111.459 60C111.459 60.3417 111.175 60.625 110.834 60.625Z" fill="white"/>
<path d="M51.5 101H50.408L46.016 94.34V101H44.924V92.624H46.016L50.408 99.272V92.624H51.5V101ZM59.3615 97.46C59.3615 97.668 59.3495 97.888 59.3255 98.12H54.0695C54.1095 98.768 54.3295 99.276 54.7295 99.644C55.1375 100.004 55.6295 100.184 56.2055 100.184C56.6775 100.184 57.0695 100.076 57.3815 99.86C57.7015 99.636 57.9255 99.34 58.0535 98.972H59.2295C59.0535 99.604 58.7015 100.12 58.1735 100.52C57.6455 100.912 56.9895 101.108 56.2055 101.108C55.5815 101.108 55.0215 100.968 54.5255 100.688C54.0375 100.408 53.6535 100.012 53.3735 99.5C53.0935 98.98 52.9535 98.38 52.9535 97.7C52.9535 97.02 53.0895 96.424 53.3615 95.912C53.6335 95.4 54.0135 95.008 54.5015 94.736C54.9975 94.456 55.5655 94.316 56.2055 94.316C56.8295 94.316 57.3815 94.452 57.8615 94.724C58.3415 94.996 58.7095 95.372 58.9655 95.852C59.2295 96.324 59.3615 96.86 59.3615 97.46ZM58.2335 97.232C58.2335 96.816 58.1415 96.46 57.9575 96.164C57.7735 95.86 57.5215 95.632 57.2015 95.48C56.8895 95.32 56.5415 95.24 56.1575 95.24C55.6055 95.24 55.1335 95.416 54.7415 95.768C54.3575 96.12 54.1375 96.608 54.0815 97.232H58.2335ZM62.1349 95.324V99.2C62.1349 99.52 62.2029 99.748 62.3389 99.884C62.4749 100.012 62.7109 100.076 63.0469 100.076H63.8509V101H62.8669C62.2589 101 61.8029 100.86 61.4989 100.58C61.1949 100.3 61.0429 99.84 61.0429 99.2V95.324H60.1909V94.424H61.0429V92.768H62.1349V94.424H63.8509V95.324H62.1349ZM73.9652 95.084C73.9652 95.78 73.7252 96.36 73.2452 96.824C72.7732 97.28 72.0492 97.508 71.0732 97.508H69.4652V101H68.3732V92.636H71.0732C72.0172 92.636 72.7332 92.864 73.2212 93.32C73.7172 93.776 73.9652 94.364 73.9652 95.084ZM71.0732 96.608C71.6812 96.608 72.1292 96.476 72.4172 96.212C72.7052 95.948 72.8492 95.572 72.8492 95.084C72.8492 94.052 72.2572 93.536 71.0732 93.536H69.4652V96.608H71.0732ZM76.4144 95.492C76.6064 95.116 76.8784 94.824 77.2304 94.616C77.5904 94.408 78.0264 94.304 78.5384 94.304V95.432H78.2504C77.0264 95.432 76.4144 96.096 76.4144 97.424V101H75.3224V94.424H76.4144V95.492ZM82.667 101.108C82.051 101.108 81.491 100.968 80.987 100.688C80.491 100.408 80.099 100.012 79.811 99.5C79.531 98.98 79.391 98.38 79.391 97.7C79.391 97.028 79.535 96.436 79.823 95.924C80.119 95.404 80.519 95.008 81.023 94.736C81.527 94.456 82.091 94.316 82.715 94.316C83.339 94.316 83.903 94.456 84.407 94.736C84.911 95.008 85.307 95.4 85.595 95.912C85.891 96.424 86.039 97.02 86.039 97.7C86.039 98.38 85.887 98.98 85.583 99.5C85.287 100.012 84.883 100.408 84.371 100.688C83.859 100.968 83.291 101.108 82.667 101.108ZM82.667 100.148C83.059 100.148 83.427 100.056 83.771 99.872C84.115 99.688 84.391 99.412 84.599 99.044C84.815 98.676 84.923 98.228 84.923 97.7C84.923 97.172 84.819 96.724 84.611 96.356C84.403 95.988 84.131 95.716 83.795 95.54C83.459 95.356 83.095 95.264 82.703 95.264C82.303 95.264 81.935 95.356 81.599 95.54C81.271 95.716 81.007 95.988 80.807 96.356C80.607 96.724 80.507 97.172 80.507 97.7C80.507 98.236 80.603 98.688 80.795 99.056C80.995 99.424 81.259 99.7 81.587 99.884C81.915 100.06 82.275 100.148 82.667 100.148ZM95.3828 94.304C95.8948 94.304 96.3508 94.412 96.7508 94.628C97.1508 94.836 97.4668 95.152 97.6988 95.576C97.9308 96 98.0468 96.516 98.0468 97.124V101H96.9668V97.28C96.9668 96.624 96.8028 96.124 96.4748 95.78C96.1548 95.428 95.7188 95.252 95.1668 95.252C94.5988 95.252 94.1468 95.436 93.8108 95.804C93.4748 96.164 93.3068 96.688 93.3068 97.376V101H92.2268V97.28C92.2268 96.624 92.0628 96.124 91.7348 95.78C91.4148 95.428 90.9788 95.252 90.4268 95.252C89.8588 95.252 89.4068 95.436 89.0708 95.804C88.7348 96.164 88.5668 96.688 88.5668 97.376V101H87.4748V94.424H88.5668V95.372C88.7828 95.028 89.0708 94.764 89.4308 94.58C89.7988 94.396 90.2028 94.304 90.6428 94.304C91.1948 94.304 91.6828 94.428 92.1068 94.676C92.5308 94.924 92.8468 95.288 93.0548 95.768C93.2388 95.304 93.5428 94.944 93.9668 94.688C94.3908 94.432 94.8628 94.304 95.3828 94.304ZM102.706 101.108C102.09 101.108 101.53 100.968 101.026 100.688C100.53 100.408 100.138 100.012 99.8501 99.5C99.5701 98.98 99.4301 98.38 99.4301 97.7C99.4301 97.028 99.5741 96.436 99.8621 95.924C100.158 95.404 100.558 95.008 101.062 94.736C101.566 94.456 102.13 94.316 102.754 94.316C103.378 94.316 103.942 94.456 104.446 94.736C104.95 95.008 105.346 95.4 105.634 95.912C105.93 96.424 106.078 97.02 106.078 97.7C106.078 98.38 105.926 98.98 105.622 99.5C105.326 100.012 104.922 100.408 104.41 100.688C103.898 100.968 103.33 101.108 102.706 101.108ZM102.706 100.148C103.098 100.148 103.466 100.056 103.81 99.872C104.154 99.688 104.43 99.412 104.638 99.044C104.854 98.676 104.962 98.228 104.962 97.7C104.962 97.172 104.858 96.724 104.65 96.356C104.442 95.988 104.17 95.716 103.834 95.54C103.498 95.356 103.134 95.264 102.742 95.264C102.342 95.264 101.974 95.356 101.638 95.54C101.31 95.716 101.046 95.988 100.846 96.356C100.646 96.724 100.546 97.172 100.546 97.7C100.546 98.236 100.642 98.688 100.834 99.056C101.034 99.424 101.298 99.7 101.626 99.884C101.954 100.06 102.314 100.148 102.706 100.148ZM108.846 95.324V99.2C108.846 99.52 108.914 99.748 109.05 99.884C109.186 100.012 109.422 100.076 109.758 100.076H110.562V101H109.578C108.97 101 108.514 100.86 108.21 100.58C107.906 100.3 107.754 99.84 107.754 99.2V95.324H106.902V94.424H107.754V92.768H108.846V94.424H110.562V95.324H108.846ZM117.885 97.46C117.885 97.668 117.873 97.888 117.849 98.12H112.593C112.633 98.768 112.853 99.276 113.253 99.644C113.661 100.004 114.153 100.184 114.729 100.184C115.201 100.184 115.593 100.076 115.905 99.86C116.225 99.636 116.449 99.34 116.577 98.972H117.753C117.577 99.604 117.225 100.12 116.697 100.52C116.169 100.912 115.513 101.108 114.729 101.108C114.105 101.108 113.545 100.968 113.049 100.688C112.561 100.408 112.177 100.012 111.897 99.5C111.617 98.98 111.477 98.38 111.477 97.7C111.477 97.02 111.613 96.424 111.885 95.912C112.157 95.4 112.537 95.008 113.025 94.736C113.521 94.456 114.089 94.316 114.729 94.316C115.353 94.316 115.905 94.452 116.385 94.724C116.865 94.996 117.233 95.372 117.489 95.852C117.753 96.324 117.885 96.86 117.885 97.46ZM116.757 97.232C116.757 96.816 116.665 96.46 116.481 96.164C116.297 95.86 116.045 95.632 115.725 95.48C115.413 95.32 115.065 95.24 114.681 95.24C114.129 95.24 113.657 95.416 113.265 95.768C112.881 96.12 112.661 96.608 112.605 97.232H116.757ZM120.418 95.492C120.61 95.116 120.882 94.824 121.234 94.616C121.594 94.408 122.03 94.304 122.542 94.304V95.432H122.254C121.03 95.432 120.418 96.096 120.418 97.424V101H119.326V94.424H120.418V95.492ZM129.654 101.084C129.102 101.084 128.606 100.988 128.166 100.796C127.734 100.596 127.394 100.324 127.146 99.98C126.898 99.628 126.77 99.224 126.762 98.768H127.926C127.966 99.16 128.126 99.492 128.406 99.764C128.694 100.028 129.11 100.16 129.654 100.16C130.174 100.16 130.582 100.032 130.878 99.776C131.182 99.512 131.334 99.176 131.334 98.768C131.334 98.448 131.246 98.188 131.07 97.988C130.894 97.788 130.674 97.636 130.41 97.532C130.146 97.428 129.79 97.316 129.342 97.196C128.79 97.052 128.346 96.908 128.01 96.764C127.682 96.62 127.398 96.396 127.158 96.092C126.926 95.78 126.81 95.364 126.81 94.844C126.81 94.388 126.926 93.984 127.158 93.632C127.39 93.28 127.714 93.008 128.13 92.816C128.554 92.624 129.038 92.528 129.582 92.528C130.366 92.528 131.006 92.724 131.502 93.116C132.006 93.508 132.29 94.028 132.354 94.676H131.154C131.114 94.356 130.946 94.076 130.65 93.836C130.354 93.588 129.962 93.464 129.474 93.464C129.018 93.464 128.646 93.584 128.358 93.824C128.07 94.056 127.926 94.384 127.926 94.808C127.926 95.112 128.01 95.36 128.178 95.552C128.354 95.744 128.566 95.892 128.814 95.996C129.07 96.092 129.426 96.204 129.882 96.332C130.434 96.484 130.878 96.636 131.214 96.788C131.55 96.932 131.838 97.16 132.078 97.472C132.318 97.776 132.438 98.192 132.438 98.72C132.438 99.128 132.33 99.512 132.114 99.872C131.898 100.232 131.578 100.524 131.154 100.748C130.73 100.972 130.23 101.084 129.654 101.084ZM133.637 97.7C133.637 97.02 133.773 96.428 134.045 95.924C134.317 95.412 134.693 95.016 135.173 94.736C135.661 94.456 136.217 94.316 136.841 94.316C137.649 94.316 138.313 94.512 138.833 94.904C139.361 95.296 139.709 95.84 139.877 96.536H138.701C138.589 96.136 138.369 95.82 138.041 95.588C137.721 95.356 137.321 95.24 136.841 95.24C136.217 95.24 135.713 95.456 135.329 95.888C134.945 96.312 134.753 96.916 134.753 97.7C134.753 98.492 134.945 99.104 135.329 99.536C135.713 99.968 136.217 100.184 136.841 100.184C137.321 100.184 137.721 100.072 138.041 99.848C138.361 99.624 138.581 99.304 138.701 98.888H139.877C139.701 99.56 139.349 100.1 138.821 100.508C138.293 100.908 137.633 101.108 136.841 101.108C136.217 101.108 135.661 100.968 135.173 100.688C134.693 100.408 134.317 100.012 134.045 99.5C133.773 98.988 133.637 98.388 133.637 97.7ZM144.202 101.108C143.586 101.108 143.026 100.968 142.522 100.688C142.026 100.408 141.634 100.012 141.346 99.5C141.066 98.98 140.926 98.38 140.926 97.7C140.926 97.028 141.07 96.436 141.358 95.924C141.654 95.404 142.054 95.008 142.558 94.736C143.062 94.456 143.626 94.316 144.25 94.316C144.874 94.316 145.438 94.456 145.942 94.736C146.446 95.008 146.842 95.4 147.13 95.912C147.426 96.424 147.574 97.02 147.574 97.7C147.574 98.38 147.422 98.98 147.118 99.5C146.822 100.012 146.418 100.408 145.906 100.688C145.394 100.968 144.826 101.108 144.202 101.108ZM144.202 100.148C144.594 100.148 144.962 100.056 145.306 99.872C145.65 99.688 145.926 99.412 146.134 99.044C146.35 98.676 146.458 98.228 146.458 97.7C146.458 97.172 146.354 96.724 146.146 96.356C145.938 95.988 145.666 95.716 145.33 95.54C144.994 95.356 144.63 95.264 144.238 95.264C143.838 95.264 143.47 95.356 143.134 95.54C142.806 95.716 142.542 95.988 142.342 96.356C142.142 96.724 142.042 97.172 142.042 97.7C142.042 98.236 142.138 98.688 142.33 99.056C142.53 99.424 142.794 99.7 143.122 99.884C143.45 100.06 143.81 100.148 144.202 100.148ZM150.102 95.492C150.294 95.116 150.566 94.824 150.918 94.616C151.278 94.408 151.714 94.304 152.226 94.304V95.432H151.938C150.714 95.432 150.102 96.096 150.102 97.424V101H149.01V94.424H150.102V95.492ZM159.487 97.46C159.487 97.668 159.475 97.888 159.451 98.12H154.195C154.235 98.768 154.455 99.276 154.855 99.644C155.263 100.004 155.755 100.184 156.331 100.184C156.803 100.184 157.195 100.076 157.507 99.86C157.827 99.636 158.051 99.34 158.179 98.972H159.355C159.179 99.604 158.827 100.12 158.299 100.52C157.771 100.912 157.115 101.108 156.331 101.108C155.707 101.108 155.147 100.968 154.651 100.688C154.163 100.408 153.779 100.012 153.499 99.5C153.219 98.98 153.079 98.38 153.079 97.7C153.079 97.02 153.215 96.424 153.487 95.912C153.759 95.4 154.139 95.008 154.627 94.736C155.123 94.456 155.691 94.316 156.331 94.316C156.955 94.316 157.507 94.452 157.987 94.724C158.467 94.996 158.835 95.372 159.091 95.852C159.355 96.324 159.487 96.86 159.487 97.46ZM158.359 97.232C158.359 96.816 158.267 96.46 158.083 96.164C157.899 95.86 157.647 95.632 157.327 95.48C157.015 95.32 156.667 95.24 156.283 95.24C155.731 95.24 155.259 95.416 154.867 95.768C154.483 96.12 154.263 96.608 154.207 97.232H158.359Z" fill="#363E49"/>
</g>
<defs>
<filter id="filter0_d_1_10463" x="0" y="0" width="205" height="154" filterUnits="userSpaceOnUse" color-interpolation-filters="sRGB">
<feFlood flood-opacity="0" result="BackgroundImageFix"/>
<feColorMatrix in="SourceAlpha" type="matrix" values="0 0 0 0 0 0 0 0 0 0 0 0 0 0 0 0 0 0 127 0" result="hardAlpha"/>
<feOffset dy="4"/>
<feGaussianBlur stdDeviation="14"/>
<feComposite in2="hardAlpha" operator="out"/>
<feColorMatrix type="matrix" values="0 0 0 0 0.292692 0 0 0 0 0.292692 0 0 0 0 0.292692 0 0 0 0.05 0"/>
<feBlend mode="normal" in2="BackgroundImageFix" result="effect1_dropShadow_1_10463"/>
<feBlend mode="normal" in="SourceGraphic" in2="effect1_dropShadow_1_10463" result="shape"/>
</filter>
</defs>
</svg>
