<svg width="48" height="48" viewBox="0 0 48 48" fill="none" xmlns="http://www.w3.org/2000/svg">
<rect width="48" height="48" rx="8" fill="#4600A9"/>
<path d="M32.2996 23.7166C31.3079 23.0916 30.1579 22.75 28.9746 22.75C25.5246 22.75 22.7246 25.55 22.7246 29C22.7246 30.1833 23.0579 31.325 23.6829 32.3166C23.2996 32.3083 22.9079 32.2666 22.5079 32.2083C19.0829 31.625 16.3246 28.85 15.7579 25.4166C14.8163 19.7083 19.6829 14.8416 25.3913 15.7833C28.8246 16.35 31.5996 19.1083 32.1829 22.5333C32.2496 22.9333 32.2913 23.3333 32.2996 23.7166Z" fill="white"/>
<path d="M25.1496 32.2167C24.4163 31.35 23.9746 30.225 23.9746 29C23.9746 26.2417 26.2163 24 28.9746 24C30.1996 24 31.3246 24.4417 32.1913 25.175" fill="white"/>
</svg>
