<svg width="48" height="48" viewBox="0 0 48 48" fill="none" xmlns="http://www.w3.org/2000/svg">
<rect width="48" height="48" rx="8" fill="#00C9BD"/>
<path d="M25.667 27.3339C25.667 28.8089 25.0253 30.1422 24.0003 31.0505C23.117 31.8505 21.9503 32.3339 20.667 32.3339C17.9087 32.3339 15.667 30.0922 15.667 27.3339C15.667 25.6809 16.478 24.2125 17.7187 23.3041C17.9636 23.1249 18.2994 23.2446 18.4376 23.5147C19.2332 25.0708 20.6596 26.2338 22.3503 26.6922C22.8753 26.8422 23.4253 26.9172 24.0003 26.9172C24.3744 26.9172 24.7339 26.8845 25.0837 26.8239C25.3728 26.7739 25.6601 26.9586 25.6661 27.2519C25.6667 27.2793 25.667 27.3067 25.667 27.3339Z" fill="white"/>
<path d="M29 20.666C29 21.316 28.875 21.941 28.65 22.5077C28.075 23.9577 26.8417 25.0743 25.3167 25.491C24.9 25.6077 24.4583 25.666 24 25.666C23.5417 25.666 23.1 25.6077 22.6833 25.491C21.1583 25.0743 19.925 23.9577 19.35 22.5077C19.125 21.941 19 21.316 19 20.666C19 17.9077 21.2417 15.666 24 15.666C26.7583 15.666 29 17.9077 29 20.666Z" fill="white"/>
<path d="M32.3337 27.3339C32.3337 30.0922 30.092 32.3339 27.3337 32.3339C26.7539 32.3339 26.1947 32.2351 25.6763 32.052C25.3548 31.9384 25.295 31.5304 25.512 31.2674C26.4168 30.1704 26.917 28.783 26.917 27.3339C26.917 27.0505 26.892 26.7672 26.8503 26.5005C26.8255 26.3468 26.904 26.1957 27.0402 26.1203C28.1159 25.5248 28.9993 24.6202 29.5633 23.5156C29.7014 23.2451 30.0375 23.1251 30.2825 23.3045C31.5229 24.2129 32.3337 25.6811 32.3337 27.3339Z" fill="white"/>
</svg>
