<svg width="212" height="201" viewBox="0 0 212 201" fill="none" xmlns="http://www.w3.org/2000/svg">
<g filter="url(#filter0_d_1_10435)">
<rect x="37" y="32" width="138.469" height="126.673" rx="10.3673" fill="white" shape-rendering="crispEdges"/>
<rect x="80.3164" y="52.7344" width="51.8367" height="51.8367" rx="10.3673" fill="#FFC107"/>
<path d="M100.105 83.1185L100.105 83.1185L100.106 83.1145C100.196 82.7168 100.153 82.2821 100.046 81.9063C99.9387 81.5312 99.7452 81.1393 99.4572 80.8513L96.8329 78.2271C96.0962 77.4904 95.9527 76.8583 96.0845 76.4321C96.227 76.0048 96.7069 75.5788 97.7351 75.404C97.7354 75.404 97.7357 75.4039 97.736 75.4039L101.103 74.8427L101.103 74.8427L101.11 74.8415C101.477 74.7762 101.838 74.5936 102.13 74.3792C102.423 74.165 102.708 73.8744 102.88 73.5378L102.88 73.5378L102.883 73.5315L104.739 69.8087C104.74 69.8082 104.74 69.8077 104.74 69.8072C105.233 68.8325 105.794 68.5015 106.235 68.5015C106.675 68.5015 107.236 68.8325 107.729 69.8072C107.729 69.8077 107.729 69.8082 107.73 69.8087L109.586 73.5315L109.586 73.5322C109.676 73.713 109.8 73.8801 109.941 74.0295L99.8809 84.0901L100.105 83.1185Z" fill="#11002A" stroke="#11002A" stroke-width="1.29592"/>
<path d="M113.108 86.3673L113.108 86.3689C113.406 87.6531 113.146 88.3033 112.809 88.5484C112.664 88.6524 112.478 88.7171 112.217 88.7171C111.821 88.7171 111.288 88.5666 110.636 88.1814C110.636 88.1812 110.635 88.1811 110.635 88.1809L107.472 86.3025L107.472 86.3025L107.469 86.3008C107.097 86.0823 106.647 85.993 106.234 85.993C105.821 85.993 105.371 86.0823 104.999 86.3008L104.999 86.3008L104.996 86.3025L101.835 88.1796C101.835 88.1799 101.834 88.1802 101.834 88.1806C100.691 88.8494 99.9924 88.7944 99.6639 88.5521C99.6164 88.5169 99.5721 88.4771 99.5312 88.4312L112.319 75.6438C112.67 75.2925 113.161 75.1375 113.628 75.2191L113.632 75.2198L114.722 75.4032C114.722 75.4033 114.722 75.4033 114.722 75.4033C115.751 75.5781 116.231 76.0041 116.373 76.4314C116.505 76.8576 116.362 77.4897 115.625 78.2264L115.624 78.2273L113.011 80.8506C113.011 80.8508 113.011 80.8509 113.011 80.851C112.721 81.1411 112.524 81.5301 112.415 81.909C112.307 82.2856 112.267 82.7203 112.364 83.1208L113.108 86.3673Z" fill="#11002A" stroke="#11002A" stroke-width="1.29592"/>
<path d="M64.639 131.938L62.0576 127.506H60.3469V131.938H58.9318V121.099H62.4308C63.2498 121.099 63.9392 121.239 64.4991 121.519C65.0693 121.799 65.4943 122.178 65.7743 122.655C66.0542 123.131 66.1941 123.676 66.1941 124.287C66.1941 125.034 65.9764 125.692 65.541 126.262C65.1159 126.833 64.4732 127.211 63.6127 127.398L66.3341 131.938H64.639ZM60.3469 126.371H62.4308C63.198 126.371 63.7734 126.185 64.1569 125.811C64.5405 125.428 64.7323 124.92 64.7323 124.287C64.7323 123.645 64.5405 123.147 64.1569 122.794C63.7837 122.442 63.2083 122.266 62.4308 122.266H60.3469V126.371ZM67.8643 127.646C67.8643 126.776 68.0405 126.014 68.393 125.36C68.7455 124.697 69.2276 124.184 69.8393 123.821C70.4613 123.458 71.1507 123.277 71.9075 123.277C72.654 123.277 73.302 123.437 73.8514 123.759C74.4009 124.08 74.8104 124.484 75.08 124.972V123.417H76.5107V131.938H75.08V130.352C74.8 130.85 74.3802 131.265 73.8203 131.596C73.2709 131.918 72.6281 132.078 71.892 132.078C71.1352 132.078 70.4509 131.892 69.8393 131.519C69.2276 131.145 68.7455 130.622 68.393 129.948C68.0405 129.274 67.8643 128.507 67.8643 127.646ZM75.08 127.662C75.08 127.019 74.9504 126.459 74.6912 125.982C74.432 125.506 74.0795 125.143 73.6337 124.894C73.1983 124.635 72.7162 124.505 72.1875 124.505C71.6587 124.505 71.1767 124.629 70.7412 124.878C70.3058 125.127 69.9585 125.49 69.6993 125.967C69.4401 126.444 69.3105 127.004 69.3105 127.646C69.3105 128.3 69.4401 128.87 69.6993 129.357C69.9585 129.834 70.3058 130.202 70.7412 130.461C71.1767 130.71 71.6587 130.834 72.1875 130.834C72.7162 130.834 73.1983 130.71 73.6337 130.461C74.0795 130.202 74.432 129.834 74.6912 129.357C74.9504 128.87 75.08 128.305 75.08 127.662ZM80.6283 124.583V129.606C80.6283 130.021 80.7164 130.316 80.8926 130.492C81.0689 130.658 81.3747 130.741 81.8101 130.741H82.8521V131.938H81.5769C80.789 131.938 80.198 131.757 79.8041 131.394C79.4101 131.031 79.2131 130.435 79.2131 129.606V124.583H78.109V123.417H79.2131V121.27H80.6283V123.417H82.8521V124.583H80.6283ZM85.2976 122.032C85.028 122.032 84.8 121.939 84.6133 121.753C84.4267 121.566 84.3334 121.338 84.3334 121.068C84.3334 120.799 84.4267 120.571 84.6133 120.384C84.8 120.197 85.028 120.104 85.2976 120.104C85.5568 120.104 85.7745 120.197 85.9507 120.384C86.1373 120.571 86.2306 120.799 86.2306 121.068C86.2306 121.338 86.1373 121.566 85.9507 121.753C85.7745 121.939 85.5568 122.032 85.2976 122.032ZM85.9818 123.417V131.938H84.5667V123.417H85.9818ZM92.5458 123.261C93.5826 123.261 94.4223 123.577 95.0651 124.21C95.7079 124.832 96.0292 125.734 96.0292 126.915V131.938H94.6297V127.118C94.6297 126.268 94.4171 125.62 93.9921 125.174C93.567 124.718 92.9864 124.49 92.2503 124.49C91.5039 124.49 90.9078 124.723 90.462 125.189C90.0266 125.656 89.8088 126.335 89.8088 127.227V131.938H88.3937V123.417H89.8088V124.629C90.0888 124.194 90.4672 123.857 90.9441 123.619C91.4313 123.38 91.9652 123.261 92.5458 123.261ZM101.855 123.277C102.591 123.277 103.234 123.437 103.784 123.759C104.344 124.08 104.758 124.484 105.028 124.972V123.417H106.459V132.125C106.459 132.903 106.293 133.592 105.961 134.193C105.629 134.805 105.152 135.282 104.53 135.624C103.919 135.966 103.203 136.137 102.384 136.137C101.264 136.137 100.331 135.873 99.585 135.344C98.8385 134.815 98.3979 134.095 98.2631 133.183H99.6627C99.8182 133.701 100.14 134.116 100.627 134.427C101.114 134.748 101.7 134.909 102.384 134.909C103.162 134.909 103.794 134.665 104.281 134.178C104.779 133.691 105.028 133.006 105.028 132.125V130.337C104.748 130.834 104.333 131.249 103.784 131.581C103.234 131.913 102.591 132.078 101.855 132.078C101.099 132.078 100.409 131.892 99.7871 131.519C99.1755 131.145 98.6934 130.622 98.3409 129.948C97.9884 129.274 97.8121 128.507 97.8121 127.646C97.8121 126.776 97.9884 126.014 98.3409 125.36C98.6934 124.697 99.1755 124.184 99.7871 123.821C100.409 123.458 101.099 123.277 101.855 123.277ZM105.028 127.662C105.028 127.019 104.898 126.459 104.639 125.982C104.38 125.506 104.027 125.143 103.582 124.894C103.146 124.635 102.664 124.505 102.135 124.505C101.607 124.505 101.125 124.629 100.689 124.878C100.254 125.127 99.9063 125.49 99.6472 125.967C99.388 126.444 99.2584 127.004 99.2584 127.646C99.2584 128.3 99.388 128.87 99.6472 129.357C99.9063 129.834 100.254 130.202 100.689 130.461C101.125 130.71 101.607 130.834 102.135 130.834C102.664 130.834 103.146 130.71 103.582 130.461C104.027 130.202 104.38 129.834 104.639 129.357C104.898 128.87 105.028 128.305 105.028 127.662ZM116.433 132.047C115.717 132.047 115.075 131.923 114.504 131.674C113.945 131.415 113.504 131.062 113.183 130.617C112.861 130.16 112.695 129.637 112.685 129.046H114.193C114.245 129.554 114.453 129.984 114.815 130.337C115.189 130.679 115.728 130.85 116.433 130.85C117.107 130.85 117.635 130.684 118.019 130.352C118.413 130.01 118.61 129.575 118.61 129.046C118.61 128.631 118.496 128.294 118.268 128.035C118.04 127.776 117.755 127.579 117.412 127.444C117.07 127.309 116.609 127.164 116.028 127.009C115.313 126.822 114.738 126.636 114.302 126.449C113.877 126.262 113.509 125.972 113.198 125.578C112.897 125.174 112.747 124.635 112.747 123.961C112.747 123.37 112.897 122.846 113.198 122.39C113.499 121.934 113.919 121.581 114.458 121.333C115.007 121.084 115.634 120.959 116.339 120.959C117.355 120.959 118.185 121.213 118.828 121.721C119.481 122.229 119.849 122.903 119.932 123.743H118.377C118.325 123.328 118.107 122.966 117.723 122.655C117.34 122.333 116.832 122.172 116.199 122.172C115.608 122.172 115.126 122.328 114.753 122.639C114.38 122.94 114.193 123.365 114.193 123.914C114.193 124.308 114.302 124.629 114.52 124.878C114.748 125.127 115.023 125.319 115.344 125.454C115.676 125.578 116.137 125.723 116.728 125.889C117.443 126.086 118.019 126.283 118.454 126.48C118.89 126.667 119.263 126.962 119.574 127.366C119.885 127.76 120.041 128.3 120.041 128.984C120.041 129.513 119.901 130.01 119.621 130.477C119.341 130.943 118.926 131.322 118.377 131.612C117.827 131.902 117.179 132.047 116.433 132.047ZM121.594 127.662C121.594 126.781 121.771 126.014 122.123 125.36C122.475 124.697 122.963 124.184 123.585 123.821C124.217 123.458 124.938 123.277 125.746 123.277C126.793 123.277 127.654 123.531 128.328 124.039C129.012 124.547 129.463 125.252 129.681 126.153H128.157C128.012 125.635 127.727 125.226 127.301 124.925C126.887 124.624 126.368 124.474 125.746 124.474C124.938 124.474 124.285 124.754 123.787 125.314C123.289 125.863 123.041 126.646 123.041 127.662C123.041 128.688 123.289 129.481 123.787 130.041C124.285 130.601 124.938 130.881 125.746 130.881C126.368 130.881 126.887 130.736 127.301 130.446C127.716 130.155 128.001 129.741 128.157 129.201H129.681C129.453 130.072 128.997 130.772 128.312 131.301C127.628 131.819 126.773 132.078 125.746 132.078C124.938 132.078 124.217 131.897 123.585 131.534C122.963 131.171 122.475 130.658 122.123 129.995C121.771 129.331 121.594 128.554 121.594 127.662ZM131.04 127.646C131.04 126.776 131.217 126.014 131.569 125.36C131.922 124.697 132.404 124.184 133.015 123.821C133.637 123.458 134.327 123.277 135.084 123.277C135.83 123.277 136.478 123.437 137.027 123.759C137.577 124.08 137.986 124.484 138.256 124.972V123.417H139.687V131.938H138.256V130.352C137.976 130.85 137.556 131.265 136.996 131.596C136.447 131.918 135.804 132.078 135.068 132.078C134.311 132.078 133.627 131.892 133.015 131.519C132.404 131.145 131.922 130.622 131.569 129.948C131.217 129.274 131.04 128.507 131.04 127.646ZM138.256 127.662C138.256 127.019 138.126 126.459 137.867 125.982C137.608 125.506 137.256 125.143 136.81 124.894C136.374 124.635 135.892 124.505 135.363 124.505C134.835 124.505 134.353 124.629 133.917 124.878C133.482 125.127 133.135 125.49 132.875 125.967C132.616 126.444 132.487 127.004 132.487 127.646C132.487 128.3 132.616 128.87 132.875 129.357C133.135 129.834 133.482 130.202 133.917 130.461C134.353 130.71 134.835 130.834 135.363 130.834C135.892 130.834 136.374 130.71 136.81 130.461C137.256 130.202 137.608 129.834 137.867 129.357C138.126 128.87 138.256 128.305 138.256 127.662ZM143.493 120.431V131.938H142.078V120.431H143.493ZM153.681 127.351C153.681 127.62 153.665 127.906 153.634 128.206H146.823C146.874 129.046 147.16 129.704 147.678 130.181C148.207 130.648 148.844 130.881 149.591 130.881C150.202 130.881 150.71 130.741 151.115 130.461C151.529 130.171 151.82 129.787 151.986 129.31H153.51C153.281 130.129 152.825 130.798 152.141 131.316C151.457 131.824 150.607 132.078 149.591 132.078C148.782 132.078 148.056 131.897 147.414 131.534C146.781 131.171 146.284 130.658 145.921 129.995C145.558 129.321 145.376 128.543 145.376 127.662C145.376 126.781 145.553 126.008 145.905 125.345C146.258 124.681 146.75 124.173 147.382 123.821C148.025 123.458 148.761 123.277 149.591 123.277C150.399 123.277 151.115 123.453 151.737 123.805C152.359 124.158 152.836 124.645 153.167 125.267C153.51 125.879 153.681 126.573 153.681 127.351ZM152.219 127.055C152.219 126.516 152.1 126.055 151.861 125.671C151.623 125.277 151.296 124.982 150.881 124.785C150.477 124.578 150.026 124.474 149.529 124.474C148.813 124.474 148.201 124.702 147.693 125.158C147.196 125.614 146.911 126.247 146.838 127.055H152.219Z" fill="#363E49"/>
</g>
<defs>
<filter id="filter0_d_1_10435" x="0.714287" y="0.89796" width="211.041" height="199.245" filterUnits="userSpaceOnUse" color-interpolation-filters="sRGB">
<feFlood flood-opacity="0" result="BackgroundImageFix"/>
<feColorMatrix in="SourceAlpha" type="matrix" values="0 0 0 0 0 0 0 0 0 0 0 0 0 0 0 0 0 0 127 0" result="hardAlpha"/>
<feOffset dy="5.18367"/>
<feGaussianBlur stdDeviation="18.1429"/>
<feComposite in2="hardAlpha" operator="out"/>
<feColorMatrix type="matrix" values="0 0 0 0 0.292692 0 0 0 0 0.292692 0 0 0 0 0.292692 0 0 0 0.05 0"/>
<feBlend mode="normal" in2="BackgroundImageFix" result="effect1_dropShadow_1_10435"/>
<feBlend mode="normal" in="SourceGraphic" in2="effect1_dropShadow_1_10435" result="shape"/>
</filter>
</defs>
</svg>
