<svg width="249" height="201" viewBox="0 0 249 201" fill="none" xmlns="http://www.w3.org/2000/svg">
<g filter="url(#filter0_d_1_10456)">
<rect x="37" y="32" width="175" height="126.673" rx="10.3673" fill="white" shape-rendering="crispEdges"/>
<rect x="98.582" y="52.7344" width="51.8367" height="51.8367" rx="10.3673" fill="#FFC107"/>
<path d="M124.454 69.4561L124.454 69.4561L124.456 69.452C124.598 69.2382 124.878 69.0163 125.239 68.8887C125.594 68.7631 125.969 68.7495 126.292 68.8699L126.302 68.8736L126.312 68.877C127.075 69.134 127.573 70.0109 127.419 70.7298L127.415 70.7467L127.412 70.7638L126.851 74.2952L126.849 74.3033L126.848 74.3113C126.782 74.8076 126.915 75.2785 127.214 75.647L127.224 75.6594L127.234 75.6714C127.535 76.0078 127.979 76.2221 128.462 76.2221H132.901C133.579 76.2221 134.101 76.4928 134.392 76.8992C134.661 77.2834 134.737 77.813 134.525 78.4151L134.525 78.415L134.521 78.4281L131.864 86.5168L131.857 86.5391L131.851 86.5618C131.594 87.5917 130.412 88.5009 129.24 88.5009H125.028C124.732 88.5009 124.36 88.4488 124.015 88.3457C123.657 88.2387 123.405 88.1 123.283 87.9779L123.254 87.9488L123.222 87.9235L121.839 86.8544L121.839 86.8544L121.833 86.8498C121.469 86.575 121.249 86.1308 121.249 85.6607V74.6885C121.249 74.3864 121.339 74.0904 121.506 73.8394C121.506 73.8391 121.507 73.8388 121.507 73.8384L124.454 69.4561Z" fill="#11002A" stroke="#11002A" stroke-width="1.29592"/>
<path d="M116.055 73.23H117.168C117.945 73.23 118.326 73.3848 118.525 73.5747C118.717 73.7573 118.874 74.1023 118.874 74.8283V85.6924C118.874 86.4184 118.717 86.7634 118.525 86.946C118.326 87.1359 117.945 87.2907 117.168 87.2907H116.055C115.278 87.2907 114.897 87.1359 114.698 86.946C114.506 86.7634 114.349 86.4184 114.349 85.6924V74.8283C114.349 74.1023 114.506 73.7573 114.698 73.5747C114.897 73.3848 115.278 73.23 116.055 73.23Z" fill="#11002A" stroke="#11002A" stroke-width="1.29592"/>
<path d="M82.9047 131.939L80.3232 127.507H78.6126V131.939H77.1974V121.1H80.6964C81.5154 121.1 82.2049 121.24 82.7647 121.52C83.3349 121.8 83.76 122.179 84.0399 122.655C84.3198 123.132 84.4598 123.677 84.4598 124.288C84.4598 125.035 84.242 125.693 83.8066 126.263C83.3816 126.834 82.7388 127.212 81.8783 127.399L84.5997 131.939H82.9047ZM78.6126 126.372H80.6964C81.4636 126.372 82.039 126.186 82.4226 125.812C82.8062 125.429 82.998 124.921 82.998 124.288C82.998 123.646 82.8062 123.148 82.4226 122.795C82.0493 122.443 81.474 122.267 80.6964 122.267H78.6126V126.372ZM86.1299 127.647C86.1299 126.777 86.3062 126.015 86.6586 125.361C87.0111 124.698 87.4932 124.185 88.1049 123.822C88.7269 123.459 89.4164 123.278 90.1732 123.278C90.9196 123.278 91.5676 123.438 92.1171 123.76C92.6665 124.081 93.076 124.485 93.3456 124.973V123.417H94.7763V131.939H93.3456V130.353C93.0657 130.851 92.6458 131.266 92.086 131.597C91.5365 131.919 90.8937 132.079 90.1576 132.079C89.4008 132.079 88.7166 131.893 88.1049 131.52C87.4932 131.146 87.0111 130.623 86.6586 129.949C86.3062 129.275 86.1299 128.508 86.1299 127.647ZM93.3456 127.663C93.3456 127.02 93.216 126.46 92.9568 125.983C92.6976 125.507 92.3451 125.144 91.8993 124.895C91.4639 124.636 90.9818 124.506 90.4531 124.506C89.9244 124.506 89.4423 124.63 89.0068 124.879C88.5714 125.128 88.2241 125.491 87.9649 125.968C87.7057 126.445 87.5762 127.005 87.5762 127.647C87.5762 128.301 87.7057 128.871 87.9649 129.358C88.2241 129.835 88.5714 130.203 89.0068 130.462C89.4423 130.711 89.9244 130.835 90.4531 130.835C90.9818 130.835 91.4639 130.711 91.8993 130.462C92.3451 130.203 92.6976 129.835 92.9568 129.358C93.216 128.871 93.3456 128.306 93.3456 127.663ZM98.8939 124.584V129.607C98.8939 130.021 98.982 130.317 99.1583 130.493C99.3345 130.659 99.6403 130.742 100.076 130.742H101.118V131.939H99.8425C99.0546 131.939 98.4636 131.758 98.0697 131.395C97.6757 131.032 97.4788 130.436 97.4788 129.607V124.584H96.3746V123.417H97.4788V121.271H98.8939V123.417H101.118V124.584H98.8939ZM103.563 122.033C103.294 122.033 103.066 121.94 102.879 121.754C102.692 121.567 102.599 121.339 102.599 121.069C102.599 120.8 102.692 120.572 102.879 120.385C103.066 120.198 103.294 120.105 103.563 120.105C103.822 120.105 104.04 120.198 104.216 120.385C104.403 120.572 104.496 120.8 104.496 121.069C104.496 121.339 104.403 121.567 104.216 121.754C104.04 121.94 103.822 122.033 103.563 122.033ZM104.247 123.417V131.939H102.832V123.417H104.247ZM110.811 123.262C111.848 123.262 112.688 123.578 113.331 124.211C113.973 124.833 114.295 125.735 114.295 126.916V131.939H112.895V127.119C112.895 126.269 112.683 125.621 112.258 125.175C111.833 124.719 111.252 124.491 110.516 124.491C109.77 124.491 109.173 124.724 108.728 125.19C108.292 125.657 108.074 126.336 108.074 127.227V131.939H106.659V123.417H108.074V124.63C108.354 124.195 108.733 123.858 109.21 123.62C109.697 123.381 110.231 123.262 110.811 123.262ZM120.121 123.278C120.857 123.278 121.5 123.438 122.049 123.76C122.609 124.081 123.024 124.485 123.293 124.973V123.417H124.724V132.126C124.724 132.904 124.558 133.593 124.227 134.194C123.895 134.806 123.418 135.283 122.796 135.625C122.184 135.967 121.469 136.138 120.65 136.138C119.53 136.138 118.597 135.874 117.851 135.345C117.104 134.816 116.664 134.096 116.529 133.184H117.928C118.084 133.702 118.405 134.117 118.893 134.428C119.38 134.749 119.966 134.91 120.65 134.91C121.427 134.91 122.06 134.666 122.547 134.179C123.045 133.692 123.293 133.007 123.293 132.126V130.338C123.014 130.835 122.599 131.25 122.049 131.582C121.5 131.914 120.857 132.079 120.121 132.079C119.364 132.079 118.675 131.893 118.053 131.52C117.441 131.146 116.959 130.623 116.607 129.949C116.254 129.275 116.078 128.508 116.078 127.647C116.078 126.777 116.254 126.015 116.607 125.361C116.959 124.698 117.441 124.185 118.053 123.822C118.675 123.459 119.364 123.278 120.121 123.278ZM123.293 127.663C123.293 127.02 123.164 126.46 122.905 125.983C122.645 125.507 122.293 125.144 121.847 124.895C121.412 124.636 120.93 124.506 120.401 124.506C119.872 124.506 119.39 124.63 118.955 124.879C118.519 125.128 118.172 125.491 117.913 125.968C117.654 126.445 117.524 127.005 117.524 127.647C117.524 128.301 117.654 128.871 117.913 129.358C118.172 129.835 118.519 130.203 118.955 130.462C119.39 130.711 119.872 130.835 120.401 130.835C120.93 130.835 121.412 130.711 121.847 130.462C122.293 130.203 122.645 129.835 122.905 129.358C123.164 128.871 123.293 128.306 123.293 127.663ZM134.698 132.048C133.983 132.048 133.34 131.924 132.77 131.675C132.21 131.416 131.77 131.063 131.448 130.618C131.127 130.161 130.961 129.638 130.95 129.047H132.459C132.511 129.555 132.718 129.985 133.081 130.338C133.454 130.68 133.993 130.851 134.698 130.851C135.372 130.851 135.901 130.685 136.284 130.353C136.678 130.011 136.875 129.576 136.875 129.047C136.875 128.632 136.761 128.295 136.533 128.036C136.305 127.777 136.02 127.58 135.678 127.445C135.336 127.31 134.875 127.165 134.294 127.01C133.579 126.823 133.003 126.637 132.568 126.45C132.143 126.263 131.775 125.973 131.464 125.579C131.163 125.175 131.013 124.636 131.013 123.962C131.013 123.371 131.163 122.847 131.464 122.391C131.764 121.935 132.184 121.582 132.723 121.334C133.273 121.085 133.9 120.96 134.605 120.96C135.621 120.96 136.45 121.214 137.093 121.722C137.746 122.23 138.114 122.904 138.197 123.744H136.642C136.59 123.329 136.373 122.967 135.989 122.655C135.605 122.334 135.097 122.173 134.465 122.173C133.874 122.173 133.392 122.329 133.019 122.64C132.646 122.941 132.459 123.366 132.459 123.915C132.459 124.309 132.568 124.63 132.786 124.879C133.014 125.128 133.288 125.32 133.61 125.455C133.941 125.579 134.403 125.724 134.994 125.89C135.709 126.087 136.284 126.284 136.72 126.481C137.155 126.668 137.529 126.963 137.84 127.367C138.151 127.761 138.306 128.301 138.306 128.985C138.306 129.513 138.166 130.011 137.886 130.478C137.606 130.944 137.192 131.323 136.642 131.613C136.093 131.903 135.445 132.048 134.698 132.048ZM139.86 127.663C139.86 126.782 140.036 126.015 140.389 125.361C140.741 124.698 141.228 124.185 141.85 123.822C142.483 123.459 143.203 123.278 144.012 123.278C145.059 123.278 145.92 123.532 146.593 124.04C147.278 124.548 147.729 125.253 147.946 126.154H146.422C146.277 125.636 145.992 125.227 145.567 124.926C145.152 124.625 144.634 124.475 144.012 124.475C143.203 124.475 142.55 124.755 142.053 125.315C141.555 125.864 141.306 126.647 141.306 127.663C141.306 128.689 141.555 129.482 142.053 130.042C142.55 130.602 143.203 130.882 144.012 130.882C144.634 130.882 145.152 130.737 145.567 130.447C145.982 130.156 146.267 129.742 146.422 129.202H147.946C147.718 130.073 147.262 130.773 146.578 131.302C145.894 131.82 145.038 132.079 144.012 132.079C143.203 132.079 142.483 131.898 141.85 131.535C141.228 131.172 140.741 130.659 140.389 129.996C140.036 129.332 139.86 128.555 139.86 127.663ZM149.306 127.647C149.306 126.777 149.482 126.015 149.835 125.361C150.187 124.698 150.669 124.185 151.281 123.822C151.903 123.459 152.592 123.278 153.349 123.278C154.096 123.278 154.744 123.438 155.293 123.76C155.843 124.081 156.252 124.485 156.522 124.973V123.417H157.952V131.939H156.522V130.353C156.242 130.851 155.822 131.266 155.262 131.597C154.713 131.919 154.07 132.079 153.334 132.079C152.577 132.079 151.893 131.893 151.281 131.52C150.669 131.146 150.187 130.623 149.835 129.949C149.482 129.275 149.306 128.508 149.306 127.647ZM156.522 127.663C156.522 127.02 156.392 126.46 156.133 125.983C155.874 125.507 155.521 125.144 155.075 124.895C154.64 124.636 154.158 124.506 153.629 124.506C153.1 124.506 152.618 124.63 152.183 124.879C151.747 125.128 151.4 125.491 151.141 125.968C150.882 126.445 150.752 127.005 150.752 127.647C150.752 128.301 150.882 128.871 151.141 129.358C151.4 129.835 151.747 130.203 152.183 130.462C152.618 130.711 153.1 130.835 153.629 130.835C154.158 130.835 154.64 130.711 155.075 130.462C155.521 130.203 155.874 129.835 156.133 129.358C156.392 128.871 156.522 128.306 156.522 127.663ZM161.759 120.432V131.939H160.344V120.432H161.759ZM171.946 127.352C171.946 127.621 171.931 127.907 171.9 128.207H165.088C165.14 129.047 165.425 129.705 165.944 130.182C166.472 130.649 167.11 130.882 167.856 130.882C168.468 130.882 168.976 130.742 169.38 130.462C169.795 130.172 170.085 129.788 170.251 129.311H171.775C171.547 130.13 171.091 130.799 170.407 131.317C169.722 131.825 168.872 132.079 167.856 132.079C167.048 132.079 166.322 131.898 165.679 131.535C165.047 131.172 164.549 130.659 164.186 129.996C163.823 129.322 163.642 128.544 163.642 127.663C163.642 126.782 163.818 126.009 164.171 125.346C164.523 124.682 165.016 124.174 165.648 123.822C166.291 123.459 167.027 123.278 167.856 123.278C168.665 123.278 169.38 123.454 170.002 123.806C170.624 124.159 171.101 124.646 171.433 125.268C171.775 125.88 171.946 126.574 171.946 127.352ZM170.484 127.056C170.484 126.517 170.365 126.056 170.127 125.672C169.888 125.278 169.562 124.983 169.147 124.786C168.743 124.579 168.292 124.475 167.794 124.475C167.079 124.475 166.467 124.703 165.959 125.159C165.461 125.615 165.176 126.248 165.104 127.056H170.484Z" fill="#363E49"/>
</g>
<defs>
<filter id="filter0_d_1_10456" x="0.714287" y="0.89796" width="247.571" height="199.245" filterUnits="userSpaceOnUse" color-interpolation-filters="sRGB">
<feFlood flood-opacity="0" result="BackgroundImageFix"/>
<feColorMatrix in="SourceAlpha" type="matrix" values="0 0 0 0 0 0 0 0 0 0 0 0 0 0 0 0 0 0 127 0" result="hardAlpha"/>
<feOffset dy="5.18367"/>
<feGaussianBlur stdDeviation="18.1429"/>
<feComposite in2="hardAlpha" operator="out"/>
<feColorMatrix type="matrix" values="0 0 0 0 0.292692 0 0 0 0 0.292692 0 0 0 0 0.292692 0 0 0 0.05 0"/>
<feBlend mode="normal" in2="BackgroundImageFix" result="effect1_dropShadow_1_10456"/>
<feBlend mode="normal" in="SourceGraphic" in2="effect1_dropShadow_1_10456" result="shape"/>
</filter>
</defs>
</svg>
