<svg width="163" height="155" viewBox="0 0 163 155" fill="none" xmlns="http://www.w3.org/2000/svg">
<g filter="url(#filter0_d_1_10473)">
<rect x="28" y="24.5" width="107" height="98" rx="8" fill="white" shape-rendering="crispEdges"/>
<rect x="61.5" y="40.5" width="40" height="40" rx="8" fill="#00C9BD"/>
<path d="M76.2831 63.8327C76.3748 63.4243 76.2081 62.841 75.9165 62.5493L73.8915 60.5243C73.2581 59.891 73.0081 59.216 73.1915 58.6327C73.3831 58.0493 73.9748 57.6493 74.8581 57.4993L77.4581 57.066C77.8331 56.9993 78.2915 56.666 78.4665 56.3243L79.8998 53.4493C80.3165 52.6243 80.8831 52.166 81.4998 52.166C82.1165 52.166 82.6831 52.6243 83.0998 53.4493L84.5331 56.3243C84.6415 56.541 84.8665 56.7493 85.1081 56.891L76.1331 65.866C76.0165 65.9827 75.8165 65.8743 75.8498 65.7077L76.2831 63.8327Z" fill="white"/>
<path d="M87.083 62.5496C86.783 62.8496 86.6163 63.4246 86.7163 63.8329L87.2913 66.3413C87.533 67.3829 87.383 68.1663 86.8663 68.5413C86.658 68.6913 86.408 68.7663 86.1163 68.7663C85.6913 68.7663 85.1913 68.6079 84.6413 68.2829L82.1997 66.8329C81.8163 66.6079 81.183 66.6079 80.7997 66.8329L78.358 68.2829C77.433 68.8246 76.6413 68.9163 76.133 68.5413C75.9413 68.3996 75.7997 68.2079 75.708 67.9579L85.8413 57.8246C86.2247 57.4413 86.7663 57.2663 87.2913 57.3579L88.133 57.4996C89.0163 57.6496 89.608 58.0496 89.7997 58.6329C89.983 59.2163 89.733 59.8913 89.0997 60.5246L87.083 62.5496Z" fill="white"/>
<path d="M49.328 101.5L47.336 98.08H46.016V101.5H44.924V93.136H47.624C48.256 93.136 48.788 93.244 49.22 93.46C49.66 93.676 49.988 93.968 50.204 94.336C50.42 94.704 50.528 95.124 50.528 95.596C50.528 96.172 50.36 96.68 50.024 97.12C49.696 97.56 49.2 97.852 48.536 97.996L50.636 101.5H49.328ZM46.016 97.204H47.624C48.216 97.204 48.66 97.06 48.956 96.772C49.252 96.476 49.4 96.084 49.4 95.596C49.4 95.1 49.252 94.716 48.956 94.444C48.668 94.172 48.224 94.036 47.624 94.036H46.016V97.204ZM51.8168 98.188C51.8168 97.516 51.9528 96.928 52.2248 96.424C52.4968 95.912 52.8688 95.516 53.3408 95.236C53.8208 94.956 54.3528 94.816 54.9368 94.816C55.5128 94.816 56.0128 94.94 56.4368 95.188C56.8608 95.436 57.1768 95.748 57.3848 96.124V94.924H58.4888V101.5H57.3848V100.276C57.1688 100.66 56.8448 100.98 56.4128 101.236C55.9888 101.484 55.4928 101.608 54.9248 101.608C54.3408 101.608 53.8128 101.464 53.3408 101.176C52.8688 100.888 52.4968 100.484 52.2248 99.964C51.9528 99.444 51.8168 98.852 51.8168 98.188ZM57.3848 98.2C57.3848 97.704 57.2848 97.272 57.0848 96.904C56.8848 96.536 56.6128 96.256 56.2688 96.064C55.9328 95.864 55.5608 95.764 55.1528 95.764C54.7448 95.764 54.3728 95.86 54.0368 96.052C53.7008 96.244 53.4328 96.524 53.2328 96.892C53.0328 97.26 52.9328 97.692 52.9328 98.188C52.9328 98.692 53.0328 99.132 53.2328 99.508C53.4328 99.876 53.7008 100.16 54.0368 100.36C54.3728 100.552 54.7448 100.648 55.1528 100.648C55.5608 100.648 55.9328 100.552 56.2688 100.36C56.6128 100.16 56.8848 99.876 57.0848 99.508C57.2848 99.132 57.3848 98.696 57.3848 98.2ZM61.6662 95.824V99.7C61.6662 100.02 61.7342 100.248 61.8702 100.384C62.0062 100.512 62.2422 100.576 62.5782 100.576H63.3822V101.5H62.3982C61.7902 101.5 61.3342 101.36 61.0302 101.08C60.7262 100.8 60.5742 100.34 60.5742 99.7V95.824H59.7222V94.924H60.5742V93.268H61.6662V94.924H63.3822V95.824H61.6662ZM65.2693 93.856C65.0613 93.856 64.8853 93.784 64.7413 93.64C64.5973 93.496 64.5253 93.32 64.5253 93.112C64.5253 92.904 64.5973 92.728 64.7413 92.584C64.8853 92.44 65.0613 92.368 65.2693 92.368C65.4693 92.368 65.6373 92.44 65.7733 92.584C65.9173 92.728 65.9893 92.904 65.9893 93.112C65.9893 93.32 65.9173 93.496 65.7733 93.64C65.6373 93.784 65.4693 93.856 65.2693 93.856ZM65.7973 94.924V101.5H64.7053V94.924H65.7973ZM70.8624 94.804C71.6624 94.804 72.3104 95.048 72.8064 95.536C73.3024 96.016 73.5504 96.712 73.5504 97.624V101.5H72.4704V97.78C72.4704 97.124 72.3064 96.624 71.9784 96.28C71.6504 95.928 71.2024 95.752 70.6344 95.752C70.0584 95.752 69.5984 95.932 69.2544 96.292C68.9184 96.652 68.7504 97.176 68.7504 97.864V101.5H67.6584V94.924H68.7504V95.86C68.9664 95.524 69.2584 95.264 69.6264 95.08C70.0024 94.896 70.4144 94.804 70.8624 94.804ZM78.0462 94.816C78.6142 94.816 79.1102 94.94 79.5342 95.188C79.9662 95.436 80.2862 95.748 80.4942 96.124V94.924H81.5982V101.644C81.5982 102.244 81.4702 102.776 81.2142 103.24C80.9582 103.712 80.5902 104.08 80.1102 104.344C79.6382 104.608 79.0862 104.74 78.4542 104.74C77.5902 104.74 76.8702 104.536 76.2942 104.128C75.7182 103.72 75.3782 103.164 75.2742 102.46H76.3542C76.4742 102.86 76.7222 103.18 77.0982 103.42C77.4742 103.668 77.9262 103.792 78.4542 103.792C79.0542 103.792 79.5422 103.604 79.9182 103.228C80.3022 102.852 80.4942 102.324 80.4942 101.644V100.264C80.2782 100.648 79.9582 100.968 79.5342 101.224C79.1102 101.48 78.6142 101.608 78.0462 101.608C77.4622 101.608 76.9302 101.464 76.4502 101.176C75.9782 100.888 75.6062 100.484 75.3342 99.964C75.0622 99.444 74.9262 98.852 74.9262 98.188C74.9262 97.516 75.0622 96.928 75.3342 96.424C75.6062 95.912 75.9782 95.516 76.4502 95.236C76.9302 94.956 77.4622 94.816 78.0462 94.816ZM80.4942 98.2C80.4942 97.704 80.3942 97.272 80.1942 96.904C79.9942 96.536 79.7222 96.256 79.3782 96.064C79.0422 95.864 78.6702 95.764 78.2622 95.764C77.8542 95.764 77.4822 95.86 77.1462 96.052C76.8102 96.244 76.5422 96.524 76.3422 96.892C76.1422 97.26 76.0422 97.692 76.0422 98.188C76.0422 98.692 76.1422 99.132 76.3422 99.508C76.5422 99.876 76.8102 100.16 77.1462 100.36C77.4822 100.552 77.8542 100.648 78.2622 100.648C78.6702 100.648 79.0422 100.552 79.3782 100.36C79.7222 100.16 79.9942 99.876 80.1942 99.508C80.3942 99.132 80.4942 98.696 80.4942 98.2ZM89.2948 101.584C88.7428 101.584 88.2468 101.488 87.8068 101.296C87.3748 101.096 87.0348 100.824 86.7868 100.48C86.5388 100.128 86.4108 99.724 86.4028 99.268H87.5668C87.6068 99.66 87.7668 99.992 88.0468 100.264C88.3348 100.528 88.7508 100.66 89.2948 100.66C89.8148 100.66 90.2228 100.532 90.5188 100.276C90.8228 100.012 90.9748 99.676 90.9748 99.268C90.9748 98.948 90.8868 98.688 90.7108 98.488C90.5348 98.288 90.3148 98.136 90.0508 98.032C89.7868 97.928 89.4308 97.816 88.9828 97.696C88.4308 97.552 87.9868 97.408 87.6508 97.264C87.3228 97.12 87.0388 96.896 86.7988 96.592C86.5668 96.28 86.4508 95.864 86.4508 95.344C86.4508 94.888 86.5668 94.484 86.7988 94.132C87.0308 93.78 87.3548 93.508 87.7708 93.316C88.1948 93.124 88.6788 93.028 89.2228 93.028C90.0068 93.028 90.6468 93.224 91.1428 93.616C91.6468 94.008 91.9308 94.528 91.9948 95.176H90.7948C90.7548 94.856 90.5868 94.576 90.2908 94.336C89.9948 94.088 89.6028 93.964 89.1148 93.964C88.6588 93.964 88.2868 94.084 87.9988 94.324C87.7108 94.556 87.5668 94.884 87.5668 95.308C87.5668 95.612 87.6508 95.86 87.8188 96.052C87.9948 96.244 88.2068 96.392 88.4548 96.496C88.7108 96.592 89.0668 96.704 89.5228 96.832C90.0748 96.984 90.5188 97.136 90.8548 97.288C91.1908 97.432 91.4788 97.66 91.7188 97.972C91.9588 98.276 92.0788 98.692 92.0788 99.22C92.0788 99.628 91.9708 100.012 91.7548 100.372C91.5388 100.732 91.2188 101.024 90.7948 101.248C90.3708 101.472 89.8708 101.584 89.2948 101.584ZM93.2777 98.2C93.2777 97.52 93.4137 96.928 93.6857 96.424C93.9577 95.912 94.3337 95.516 94.8137 95.236C95.3017 94.956 95.8577 94.816 96.4817 94.816C97.2897 94.816 97.9537 95.012 98.4737 95.404C99.0017 95.796 99.3497 96.34 99.5177 97.036H98.3417C98.2297 96.636 98.0097 96.32 97.6817 96.088C97.3617 95.856 96.9617 95.74 96.4817 95.74C95.8577 95.74 95.3537 95.956 94.9697 96.388C94.5857 96.812 94.3937 97.416 94.3937 98.2C94.3937 98.992 94.5857 99.604 94.9697 100.036C95.3537 100.468 95.8577 100.684 96.4817 100.684C96.9617 100.684 97.3617 100.572 97.6817 100.348C98.0017 100.124 98.2217 99.804 98.3417 99.388H99.5177C99.3417 100.06 98.9897 100.6 98.4617 101.008C97.9337 101.408 97.2737 101.608 96.4817 101.608C95.8577 101.608 95.3017 101.468 94.8137 101.188C94.3337 100.908 93.9577 100.512 93.6857 100C93.4137 99.488 93.2777 98.888 93.2777 98.2ZM100.567 98.188C100.567 97.516 100.703 96.928 100.975 96.424C101.247 95.912 101.619 95.516 102.091 95.236C102.571 94.956 103.103 94.816 103.687 94.816C104.263 94.816 104.763 94.94 105.187 95.188C105.611 95.436 105.927 95.748 106.135 96.124V94.924H107.239V101.5H106.135V100.276C105.919 100.66 105.595 100.98 105.163 101.236C104.739 101.484 104.243 101.608 103.675 101.608C103.091 101.608 102.563 101.464 102.091 101.176C101.619 100.888 101.247 100.484 100.975 99.964C100.703 99.444 100.567 98.852 100.567 98.188ZM106.135 98.2C106.135 97.704 106.035 97.272 105.835 96.904C105.635 96.536 105.363 96.256 105.019 96.064C104.683 95.864 104.311 95.764 103.903 95.764C103.495 95.764 103.123 95.86 102.787 96.052C102.451 96.244 102.183 96.524 101.983 96.892C101.783 97.26 101.683 97.692 101.683 98.188C101.683 98.692 101.783 99.132 101.983 99.508C102.183 99.876 102.451 100.16 102.787 100.36C103.123 100.552 103.495 100.648 103.903 100.648C104.311 100.648 104.683 100.552 105.019 100.36C105.363 100.16 105.635 99.876 105.835 99.508C106.035 99.132 106.135 98.696 106.135 98.2ZM110.176 92.62V101.5H109.084V92.62H110.176ZM118.037 97.96C118.037 98.168 118.025 98.388 118.001 98.62H112.745C112.785 99.268 113.005 99.776 113.405 100.144C113.813 100.504 114.305 100.684 114.881 100.684C115.353 100.684 115.745 100.576 116.057 100.36C116.377 100.136 116.601 99.84 116.729 99.472H117.905C117.729 100.104 117.377 100.62 116.849 101.02C116.321 101.412 115.665 101.608 114.881 101.608C114.257 101.608 113.697 101.468 113.201 101.188C112.713 100.908 112.329 100.512 112.049 100C111.769 99.48 111.629 98.88 111.629 98.2C111.629 97.52 111.765 96.924 112.037 96.412C112.309 95.9 112.689 95.508 113.177 95.236C113.673 94.956 114.241 94.816 114.881 94.816C115.505 94.816 116.057 94.952 116.537 95.224C117.017 95.496 117.385 95.872 117.641 96.352C117.905 96.824 118.037 97.36 118.037 97.96ZM116.909 97.732C116.909 97.316 116.817 96.96 116.633 96.664C116.449 96.36 116.197 96.132 115.877 95.98C115.565 95.82 115.217 95.74 114.833 95.74C114.281 95.74 113.809 95.916 113.417 96.268C113.033 96.62 112.813 97.108 112.757 97.732H116.909Z" fill="#363E49"/>
</g>
<defs>
<filter id="filter0_d_1_10473" x="0" y="0.5" width="163" height="154" filterUnits="userSpaceOnUse" color-interpolation-filters="sRGB">
<feFlood flood-opacity="0" result="BackgroundImageFix"/>
<feColorMatrix in="SourceAlpha" type="matrix" values="0 0 0 0 0 0 0 0 0 0 0 0 0 0 0 0 0 0 127 0" result="hardAlpha"/>
<feOffset dy="4"/>
<feGaussianBlur stdDeviation="14"/>
<feComposite in2="hardAlpha" operator="out"/>
<feColorMatrix type="matrix" values="0 0 0 0 0.292692 0 0 0 0 0.292692 0 0 0 0 0.292692 0 0 0 0.05 0"/>
<feBlend mode="normal" in2="BackgroundImageFix" result="effect1_dropShadow_1_10473"/>
<feBlend mode="normal" in="SourceGraphic" in2="effect1_dropShadow_1_10473" result="shape"/>
</filter>
</defs>
</svg>
