<svg width="474" height="180" viewBox="0 0 474 180" fill="none" xmlns="http://www.w3.org/2000/svg">
<rect x="0.112224" y="11.5183" width="469.63" height="168.075" rx="10.4012" transform="rotate(-1.31645 0.112224 11.5183)" fill="white"/>
<rect x="0.112224" y="11.5183" width="469.63" height="168.075" rx="10.4012" transform="rotate(-1.31645 0.112224 11.5183)" stroke="#F2F4F7" stroke-width="0.630376"/>
<path d="M26.555 33.148L26.5214 31.6846L29.2552 31.6218L29.4453 39.8914L27.8118 39.929L27.6553 33.1227L26.555 33.148ZM34.6038 39.8523C34.3164 39.8589 34.0762 39.7774 33.8832 39.6078C33.6975 39.4305 33.6016 39.2095 33.5955 38.9448C33.5894 38.6801 33.6752 38.4587 33.8527 38.2806C34.0375 38.0948 34.2737 37.9985 34.5611 37.9919C34.8409 37.9855 35.0736 38.071 35.2593 38.2483C35.4448 38.4181 35.5406 38.6353 35.5467 38.9C35.5527 39.1647 35.4671 39.3898 35.2898 39.5755C35.1123 39.7536 34.8836 39.8459 34.6038 39.8523ZM45.9345 31.5904L46.1165 39.5083L44.5283 39.5448L44.4509 36.1757L41.0591 36.2536L41.1365 39.6228L39.5484 39.6592L39.3664 31.7413L40.9546 31.7048L41.0294 34.9605L44.4212 34.8825L44.3464 31.6268L45.9345 31.5904ZM50.4725 39.5104C49.8675 39.5243 49.32 39.4044 48.8299 39.1509C48.3396 38.8897 47.9489 38.5166 47.6578 38.0315C47.3743 37.5462 47.2251 36.9821 47.2103 36.3393C47.1956 35.6965 47.3224 35.1261 47.591 34.6281C47.867 34.1299 48.2478 33.7428 48.7333 33.4668C49.2186 33.1833 49.7638 33.0346 50.3688 33.0207C50.9738 33.0068 51.5252 33.1303 52.023 33.3912C52.5206 33.6446 52.915 34.0139 53.2061 34.499C53.5048 34.984 53.6615 35.5479 53.6763 36.1907C53.6911 36.8335 53.5566 37.4041 53.273 37.9024C52.9969 38.4006 52.6124 38.7915 52.1196 39.0753C51.6341 39.3512 51.0851 39.4963 50.4725 39.5104ZM50.4407 38.1264C50.7281 38.1198 50.995 38.0456 51.2414 37.9037C51.4952 37.7541 51.6946 37.5377 51.8394 37.2544C51.9842 36.9711 52.052 36.629 52.0428 36.2282C52.0291 35.6308 51.8597 35.1769 51.5348 34.8666C51.2173 34.5485 50.8316 34.3947 50.3779 34.4051C49.9241 34.4156 49.546 34.5869 49.2434 34.9192C48.9482 35.2438 48.8074 35.7048 48.8212 36.3023C48.8349 36.8997 48.993 37.3576 49.2954 37.676C49.6052 37.9867 49.9869 38.1368 50.4407 38.1264ZM63.4811 32.8215L61.7878 39.1482L60.0749 39.1875L58.8283 34.8238L57.7834 39.2402L56.0592 39.2798L54.0657 33.0379L55.6765 33.0008L56.8982 37.7624L57.9907 32.9477L59.6696 32.9091L60.9591 37.6577L61.961 32.8564L63.4811 32.8215ZM68.583 30.5932L68.7759 38.9876L67.1878 39.0241L66.9949 30.6297L68.583 30.5932ZM70.9888 31.8999C70.709 31.9063 70.4725 31.8247 70.2795 31.6551C70.0938 31.4778 69.9979 31.2568 69.9918 30.9921C69.9857 30.7274 70.0715 30.506 70.249 30.3279C70.4339 30.1421 70.6662 30.0459 70.946 30.0395C71.2258 30.0331 71.4586 30.1185 71.6442 30.2958C71.8373 30.4654 71.9369 30.6826 71.943 30.9473C71.949 31.212 71.8596 31.4372 71.6747 31.6231C71.4972 31.8012 71.2686 31.8934 70.9888 31.8999ZM71.7887 32.6306L71.9331 38.915L70.345 38.9515L70.2006 32.6671L71.7887 32.6306ZM77.223 38.7935L75.0288 36.1653L75.0903 38.8425L73.5022 38.879L73.3093 30.4846L74.8974 30.4481L75.0072 35.2238L77.0558 32.5095L79.1204 32.4621L76.425 35.6793L79.2875 38.746L77.223 38.7935ZM85.8935 35.3141C85.8987 35.541 85.8883 35.7455 85.8622 35.9277L81.268 36.0333C81.3162 36.4862 81.4832 36.838 81.7689 37.0887C82.0546 37.3394 82.4017 37.46 82.8101 37.4507C83.3999 37.4371 83.8138 37.1741 84.0517 36.6617L85.7647 36.6223C85.5971 37.2315 85.2607 37.7386 84.7554 38.1437C84.25 38.5412 83.623 38.7485 82.8743 38.7657C82.2693 38.7797 81.7218 38.6598 81.2317 38.4063C80.749 38.145 80.3659 37.7716 80.0823 37.2863C79.8063 36.8009 79.661 36.2367 79.6462 35.5939C79.6312 34.9435 79.7505 34.3695 80.0039 33.8719C80.2573 33.3742 80.6191 32.9876 81.0895 32.7119C81.5598 32.4363 82.1051 32.2914 82.7252 32.2771C83.3226 32.2634 83.8588 32.3797 84.3335 32.626C84.8159 32.8722 85.1911 33.2306 85.4592 33.7011C85.7346 34.1639 85.8794 34.7016 85.8935 35.3141ZM84.2382 34.8982C84.2213 34.49 84.0663 34.1682 83.7734 33.9328C83.4803 33.6898 83.1258 33.5731 82.7098 33.5827C82.3166 33.5917 81.9866 33.7204 81.7199 33.9686C81.4606 34.2091 81.3056 34.5419 81.2548 34.9667L84.2382 34.8982ZM88.5232 30.135L88.7162 38.5294L87.128 38.5658L86.9351 30.1715L88.5232 30.135ZM96.153 32.0707L92.4748 41.4166L90.7846 41.4555L92.0739 38.2933L89.4148 32.2255L91.1958 32.1846L92.9188 36.5374L94.4628 32.1095L96.153 32.0707ZM100.5 31.2217C100.221 31.2281 99.9841 31.1465 99.791 30.9769C99.6053 30.7996 99.5095 30.5786 99.5034 30.3139C99.4973 30.0492 99.583 29.8278 99.7605 29.6497C99.9454 29.4639 100.178 29.3677 100.458 29.3613C100.737 29.3549 100.97 29.4403 101.156 29.6177C101.349 29.7873 101.448 30.0044 101.455 30.2691C101.461 30.5338 101.371 30.759 101.186 30.9449C101.009 31.123 100.78 31.2153 100.5 31.2217ZM101.3 31.9524L101.445 38.2368L99.8565 38.2733L99.7121 31.9889L101.3 31.9524ZM105.421 38.2476C104.907 38.2594 104.443 38.1793 104.031 38.0072C103.618 37.8275 103.287 37.5816 103.038 37.2696C102.796 36.9573 102.659 36.6086 102.628 36.2234L104.227 36.1867C104.263 36.428 104.385 36.6257 104.593 36.7798C104.808 36.9338 105.071 37.0072 105.381 37.0001C105.683 36.9931 105.916 36.9272 106.08 36.8024C106.251 36.6774 106.335 36.5204 106.33 36.3313C106.326 36.1271 106.216 35.9783 106.002 35.8849C105.796 35.7837 105.464 35.6778 105.008 35.5672C104.536 35.4646 104.148 35.3562 103.842 35.2422C103.545 35.1279 103.283 34.9486 103.058 34.704C102.841 34.4593 102.727 34.1252 102.717 33.7017C102.709 33.3539 102.8 33.034 102.99 32.7421C103.188 32.45 103.47 32.2165 103.837 32.0416C104.211 31.8666 104.652 31.7732 105.158 31.7616C105.907 31.7444 106.509 31.9197 106.964 32.2876C107.418 32.6479 107.676 33.1452 107.736 33.7794L106.216 33.8143C106.187 33.5653 106.077 33.3711 105.885 33.2317C105.7 33.0846 105.452 33.0147 105.142 33.0218C104.855 33.0284 104.633 33.0865 104.476 33.196C104.328 33.3053 104.255 33.4545 104.26 33.6436C104.265 33.8554 104.374 34.0155 104.588 34.1241C104.803 34.2251 105.134 34.3272 105.583 34.4304C106.039 34.5334 106.416 34.642 106.714 34.7562C107.012 34.8704 107.269 35.0537 107.487 35.3059C107.712 35.5505 107.833 35.8806 107.85 36.2964C107.859 36.6594 107.764 36.9869 107.567 37.279C107.376 37.5709 107.094 37.8044 106.72 37.9794C106.353 38.1467 105.92 38.2361 105.421 38.2476ZM112.542 30.945C112.262 30.9514 112.026 30.8698 111.833 30.7002C111.647 30.5229 111.551 30.3019 111.545 30.0372C111.539 29.7725 111.625 29.5511 111.802 29.373C111.987 29.1872 112.219 29.091 112.499 29.0846C112.779 29.0782 113.012 29.1636 113.197 29.3409C113.391 29.5105 113.49 29.7277 113.496 29.9924C113.502 30.257 113.413 30.4823 113.228 30.6682C113.05 30.8463 112.822 30.9385 112.542 30.945ZM113.342 31.6757L113.486 37.9601L111.898 37.9966L111.754 31.7122L113.342 31.6757ZM116.79 32.9017L116.86 35.9418C116.865 36.1535 116.917 36.3074 117.018 36.4035C117.126 36.4918 117.301 36.5332 117.543 36.5276L118.28 36.5107L118.311 37.8493L117.313 37.8722C115.974 37.903 115.29 37.268 115.26 35.9672L115.191 32.9384L114.442 32.9556L114.412 31.6511L115.161 31.6339L115.125 30.0798L116.724 30.043L116.76 31.5971L118.167 31.5648L118.197 32.8693L116.79 32.9017ZM123.891 32.7385L123.961 35.7786C123.966 35.9904 124.018 36.1443 124.119 36.2403C124.227 36.3286 124.402 36.37 124.644 36.3644L125.381 36.3475L125.412 37.6861L124.414 37.709C123.075 37.7398 122.391 37.1048 122.361 35.804L122.291 32.7752L121.543 32.7924L121.513 31.4879L122.262 31.4707L122.226 29.9166L123.825 29.8798L123.861 31.4339L125.268 31.4016L125.298 32.7062L123.891 32.7385ZM129.947 31.2033C130.423 31.1923 130.849 31.2885 131.225 31.4917C131.6 31.6874 131.895 31.9871 132.108 32.3907C132.329 32.7867 132.446 33.2683 132.459 33.8355L132.544 37.5222L130.956 37.5587L130.876 34.0875C130.864 33.5884 130.731 33.2093 130.475 32.9504C130.219 32.6838 129.876 32.5555 129.445 32.5654C129.006 32.5755 128.662 32.7196 128.411 32.9978C128.167 33.2682 128.051 33.653 128.063 34.1521L128.142 37.6233L126.554 37.6598L126.361 29.2654L127.95 29.2289L128.016 32.1216C128.214 31.8446 128.481 31.6266 128.818 31.4676C129.155 31.3009 129.531 31.2128 129.947 31.2033ZM133.573 34.3319C133.558 33.6967 133.67 33.1304 133.908 32.6331C134.154 32.1356 134.49 31.7496 134.915 31.475C135.347 31.2002 135.832 31.0567 136.369 31.0444C136.838 31.0336 137.248 31.1187 137.601 31.2998C137.96 31.4807 138.249 31.7124 138.468 31.9949L138.447 31.0987L140.047 31.062L140.191 37.3464L138.592 37.3832L138.57 36.4644C138.373 36.764 138.095 37.0163 137.737 37.2213C137.386 37.4185 136.976 37.5225 136.507 37.5333C135.977 37.5454 135.49 37.4204 135.045 37.1583C134.608 36.8959 134.255 36.5219 133.987 36.0363C133.726 35.5429 133.588 34.9748 133.573 34.3319ZM138.519 34.241C138.51 33.8553 138.427 33.5281 138.27 33.2593C138.112 32.9829 137.903 32.7759 137.643 32.6381C137.382 32.4928 137.104 32.4235 136.809 32.4303C136.514 32.437 136.244 32.5151 135.998 32.6646C135.751 32.814 135.552 33.0304 135.4 33.3139C135.255 33.5896 135.186 33.9165 135.195 34.2947C135.204 34.6728 135.287 35.0038 135.445 35.2877C135.61 35.5639 135.819 35.7747 136.072 35.9202C136.333 36.0656 136.607 36.1349 136.894 36.1283C137.189 36.1216 137.464 36.0434 137.717 35.8938C137.971 35.7366 138.17 35.5202 138.315 35.2444C138.46 34.9612 138.528 34.6267 138.519 34.241ZM143.477 32.2884L143.547 35.3285C143.551 35.5403 143.604 35.6942 143.705 35.7902C143.813 35.8785 143.988 35.9199 144.23 35.9144L144.967 35.8974L144.998 37.236L144 37.2589C142.661 37.2897 141.977 36.6547 141.947 35.3539L141.877 32.3251L141.129 32.3423L141.099 31.0378L141.847 31.0206L141.812 29.4665L143.411 29.4298L143.447 30.9839L144.853 30.9515L144.883 32.2561L143.477 32.2884ZM154.711 30.725L151.033 40.0709L149.342 40.1098L150.632 36.9476L147.973 30.8798L149.754 30.8389L151.477 35.1917L153.021 30.7638L154.711 30.725ZM158.504 37.0277C157.899 37.0416 157.352 36.9218 156.862 36.6683C156.371 36.4071 155.981 36.034 155.69 35.5489C155.406 35.0636 155.257 34.4995 155.242 33.8567C155.227 33.2139 155.354 32.6435 155.623 32.1455C155.899 31.6473 156.28 31.2602 156.765 30.9842C157.25 30.7007 157.796 30.552 158.401 30.5381C159.006 30.5242 159.557 30.6477 160.055 30.9086C160.552 31.162 160.947 31.5313 161.238 32.0164C161.537 32.5014 161.693 33.0653 161.708 33.7081C161.723 34.3509 161.588 34.9215 161.305 35.4198C161.029 35.918 160.644 36.3089 160.151 36.5927C159.666 36.8686 159.117 37.0137 158.504 37.0277ZM158.472 35.6438C158.76 35.6372 159.027 35.563 159.273 35.4211C159.527 35.2715 159.726 35.0551 159.871 34.7718C160.016 34.4885 160.084 34.1464 160.075 33.7456C160.061 33.1482 159.891 32.6943 159.567 32.384C159.249 32.0659 158.863 31.9121 158.41 31.9225C157.956 31.933 157.578 32.1043 157.275 32.4366C156.98 32.7612 156.839 33.2222 156.853 33.8197C156.867 34.4171 157.025 34.875 157.327 35.1934C157.637 35.5041 158.019 35.6542 158.472 35.6438ZM168.734 30.4028L168.878 36.6872L167.279 36.724L167.26 35.9299C167.062 36.2068 166.799 36.4285 166.47 36.595C166.148 36.7537 165.794 36.8375 165.409 36.8464C164.917 36.8577 164.48 36.7656 164.097 36.5701C163.714 36.367 163.408 36.0676 163.18 35.6718C162.959 35.2683 162.842 34.7867 162.829 34.2271L162.744 30.5404L164.332 30.5039L164.412 33.9638C164.423 34.4629 164.557 34.8457 164.813 35.1122C165.068 35.3712 165.412 35.4957 165.843 35.4858C166.281 35.4757 166.622 35.3355 166.866 35.065C167.109 34.787 167.225 34.3985 167.214 33.8994L167.134 30.4395L168.734 30.4028ZM181.716 30.1044L180.022 36.4311L178.309 36.4705L177.063 32.1068L176.018 36.5231L174.294 36.5628L172.3 30.3208L173.911 30.2838L175.133 35.0453L176.225 30.2306L177.904 30.192L179.194 34.9406L180.196 30.1394L181.716 30.1044ZM185.512 36.4071C184.907 36.421 184.36 36.3012 183.87 36.0476C183.379 35.7865 182.989 35.4133 182.698 34.9282C182.414 34.4429 182.265 33.8788 182.25 33.236C182.235 32.5932 182.362 32.0228 182.631 31.5248C182.907 31.0266 183.288 30.6396 183.773 30.3636C184.258 30.08 184.803 29.9313 185.408 29.9174C186.013 29.9035 186.565 30.027 187.063 30.288C187.56 30.5414 187.955 30.9106 188.246 31.3958C188.545 31.8807 188.701 32.4446 188.716 33.0874C188.731 33.7302 188.596 34.3008 188.313 34.7992C188.037 35.2973 187.652 35.6883 187.159 35.972C186.674 36.248 186.125 36.393 185.512 36.4071ZM185.48 35.0232C185.768 35.0165 186.035 34.9423 186.281 34.8005C186.535 34.6509 186.734 34.4344 186.879 34.1511C187.024 33.8678 187.092 33.5258 187.082 33.125C187.069 32.5275 186.899 32.0737 186.575 31.7633C186.257 31.4453 185.871 31.2914 185.418 31.3019C184.964 31.3123 184.586 31.4837 184.283 31.816C183.988 32.1406 183.847 32.6016 183.861 33.199C183.875 33.7964 184.033 34.2544 184.335 34.5728C184.645 34.8835 185.027 35.0336 185.48 35.0232ZM195.742 29.7821L195.886 36.0666L194.286 36.1033L194.268 35.3092C194.07 35.5862 193.807 35.8079 193.478 35.9743C193.156 36.1331 192.802 36.2169 192.417 36.2257C191.925 36.237 191.488 36.1449 191.105 35.9494C190.722 35.7464 190.416 35.4469 190.188 35.0512C189.967 34.6477 189.85 34.1661 189.837 33.6065L189.752 29.9197L191.34 29.8832L191.42 33.3431C191.431 33.8422 191.565 34.225 191.821 34.4916C192.076 34.7505 192.42 34.875 192.851 34.8651C193.289 34.8551 193.63 34.7148 193.874 34.4444C194.117 34.1664 194.233 33.7778 194.222 33.2787L194.142 29.8189L195.742 29.7821ZM198.848 27.5997L199.041 35.994L197.453 36.0305L197.26 27.6361L198.848 27.5997ZM200.129 32.8025C200.114 32.1672 200.226 31.6009 200.465 31.1036C200.71 30.6062 201.05 30.22 201.482 29.9453C201.915 29.6705 202.399 29.527 202.936 29.5146C203.345 29.5052 203.736 29.587 204.111 29.76C204.486 29.9254 204.786 30.1531 205.012 30.443L204.943 27.4596L206.554 27.4226L206.747 35.817L205.136 35.854L205.115 34.9238C204.925 35.2384 204.655 35.4943 204.304 35.6915C203.953 35.8887 203.543 35.9927 203.074 36.0035C202.545 36.0157 202.058 35.8907 201.613 35.6285C201.168 35.3663 200.811 34.9924 200.543 34.5068C200.282 34.0134 200.144 33.4453 200.129 32.8025ZM205.075 32.7115C205.067 32.3258 204.983 31.9986 204.826 31.7298C204.668 31.4535 204.459 31.2464 204.199 31.1086C203.938 30.9633 203.66 30.894 203.365 30.9008C203.07 30.9076 202.8 30.9857 202.554 31.1351C202.307 31.2845 202.108 31.5009 201.956 31.7844C201.811 32.0601 201.742 32.3871 201.751 32.7652C201.76 33.1433 201.843 33.4743 202.001 33.7582C202.166 34.0344 202.375 34.2452 202.628 34.3907C202.889 34.5361 203.163 34.6055 203.45 34.5988C203.745 34.5921 204.02 34.5139 204.274 34.3643C204.527 34.2071 204.726 33.9907 204.871 33.715C205.016 33.4317 205.084 33.0972 205.075 32.7115ZM212.467 30.3738C212.664 30.0364 212.923 29.7694 213.243 29.5728C213.572 29.3761 213.948 29.2729 214.371 29.2632L214.41 30.9307L213.99 30.9404C213.491 30.9518 213.115 31.0777 212.864 31.3181C212.619 31.5583 212.504 31.9695 212.517 32.5518L212.589 35.6827L211.001 35.7192L210.857 29.4347L212.445 29.3983L212.467 30.3738ZM221.354 32.2012C221.359 32.4281 221.349 32.6326 221.323 32.8148L216.729 32.9204C216.777 33.3733 216.944 33.7251 217.23 33.9758C217.515 34.2264 217.862 34.3471 218.271 34.3377C218.861 34.3242 219.274 34.0612 219.512 33.5487L221.225 33.5094C221.058 34.1186 220.721 34.6257 220.216 35.0307C219.711 35.4283 219.084 35.6356 218.335 35.6528C217.73 35.6667 217.182 35.5469 216.692 35.2933C216.21 35.032 215.827 34.6587 215.543 34.1734C215.267 33.6879 215.122 33.1238 215.107 32.481C215.092 31.8306 215.211 31.2566 215.465 30.7589C215.718 30.2613 216.08 29.8746 216.55 29.599C217.021 29.3234 217.566 29.1784 218.186 29.1642C218.783 29.1504 219.319 29.2668 219.794 29.5131C220.277 29.7593 220.652 30.1176 220.92 30.5882C221.195 31.051 221.34 31.5886 221.354 32.2012ZM219.699 31.7852C219.682 31.377 219.527 31.0552 219.234 30.8199C218.941 30.5769 218.586 30.4602 218.17 30.4698C217.777 30.4788 217.447 30.6074 217.181 30.8557C216.921 31.0962 216.766 31.4289 216.715 31.8538L219.699 31.7852ZM222.108 32.3201C222.093 31.6697 222.212 31.0995 222.466 30.6094C222.719 30.1117 223.078 29.7252 223.54 29.4497C224.003 29.1667 224.537 29.0182 225.142 29.0043C225.921 28.9864 226.568 29.1683 227.084 29.5499C227.607 29.9238 227.963 30.4603 228.154 31.1597L226.441 31.199C226.344 30.9289 226.184 30.7207 225.961 30.5745C225.746 30.4205 225.479 30.3472 225.161 30.3545C224.708 30.3649 224.352 30.5396 224.095 30.8784C223.838 31.2097 223.716 31.6778 223.73 32.2828C223.744 32.8802 223.887 33.3423 224.159 33.669C224.432 33.9881 224.794 34.1424 225.248 34.132C225.891 34.1172 226.304 33.8202 226.488 33.2409L228.2 33.2015C228.042 33.8862 227.711 34.4348 227.205 34.8474C226.7 35.2601 226.062 35.4752 225.291 35.493C224.686 35.5069 224.146 35.3869 223.671 35.133C223.196 34.8715 222.82 34.5018 222.545 34.0239C222.269 33.5384 222.123 32.9704 222.108 32.3201ZM232.206 35.3341C231.601 35.348 231.053 35.2281 230.563 34.9746C230.073 34.7134 229.682 34.3403 229.391 33.8552C229.107 33.3699 228.958 32.8058 228.943 32.163C228.929 31.5202 229.056 30.9498 229.324 30.4518C229.6 29.9536 229.981 29.5665 230.466 29.2906C230.952 29.007 231.497 28.8583 232.102 28.8444C232.707 28.8305 233.258 28.954 233.756 29.215C234.254 29.4683 234.648 29.8376 234.939 30.3227C235.238 30.8077 235.395 31.3716 235.409 32.0144C235.424 32.6572 235.29 33.2278 235.006 33.7261C234.73 34.2243 234.346 34.6153 233.853 34.899C233.367 35.175 232.818 35.32 232.206 35.3341ZM232.174 33.9501C232.461 33.9435 232.728 33.8693 232.975 33.7274C233.228 33.5778 233.428 33.3614 233.572 33.0781C233.717 32.7948 233.785 32.4528 233.776 32.0519C233.762 31.4545 233.593 31.0006 233.268 30.6903C232.95 30.3722 232.565 30.2184 232.111 30.2288C231.657 30.2393 231.279 30.4106 230.976 30.743C230.681 31.0675 230.541 31.5285 230.554 32.126C230.568 32.7234 230.726 33.1813 231.028 33.4998C231.338 33.8104 231.72 33.9605 232.174 33.9501ZM244.305 28.5753C245.076 28.5576 245.702 28.7815 246.181 29.2472C246.669 29.7051 246.922 30.3576 246.941 31.2046L247.026 34.8913L245.438 34.9278L245.358 31.4566C245.347 30.9651 245.214 30.5936 244.958 30.3422C244.702 30.0832 244.359 29.9587 243.928 29.9686C243.497 29.9785 243.156 30.1188 242.905 30.3894C242.661 30.6522 242.545 31.0295 242.556 31.521L242.636 34.9922L241.048 35.0287L240.968 31.5575C240.957 31.066 240.823 30.6945 240.568 30.4431C240.312 30.1841 239.969 30.0596 239.538 30.0695C239.099 30.0796 238.754 30.2199 238.503 30.4905C238.26 30.7534 238.144 31.1306 238.155 31.6222L238.235 35.0934L236.647 35.1299L236.502 28.8454L238.09 28.8089L238.108 29.5689C238.306 29.2996 238.562 29.0856 238.876 28.927C239.198 28.7683 239.552 28.6845 239.937 28.6757C240.429 28.6644 240.87 28.7602 241.26 28.9631C241.651 29.1584 241.956 29.4465 242.177 29.8273C242.373 29.4596 242.661 29.1616 243.042 28.9335C243.43 28.7051 243.851 28.5857 244.305 28.5753ZM256.191 28.3021C256.963 28.2844 257.588 28.5084 258.068 28.9741C258.555 29.432 258.809 30.0844 258.828 30.9314L258.913 34.6182L257.325 34.6547L257.245 31.1835C257.234 30.6919 257.1 30.3204 256.845 30.069C256.589 29.8101 256.246 29.6856 255.815 29.6955C255.384 29.7054 255.042 29.8456 254.791 30.1162C254.548 30.3791 254.432 30.7563 254.443 31.2479L254.523 34.7191L252.935 34.7556L252.855 31.2844C252.843 30.7928 252.71 30.4213 252.455 30.1699C252.199 29.911 251.856 29.7865 251.425 29.7964C250.986 29.8064 250.641 29.9468 250.39 30.2174C250.146 30.4802 250.03 30.8574 250.042 31.349L250.121 34.8202L248.533 34.8567L248.389 28.5722L249.977 28.5358L249.994 29.2958C250.192 29.0264 250.449 28.8124 250.763 28.6539C251.084 28.4952 251.438 28.4114 251.824 28.4025C252.315 28.3912 252.756 28.487 253.147 28.6899C253.537 28.8852 253.843 29.1733 254.063 29.5541C254.259 29.1864 254.548 28.8885 254.928 28.6603C255.316 28.432 255.737 28.3126 256.191 28.3021ZM266.186 31.1709C266.192 31.3978 266.181 31.6024 266.155 31.7845L261.561 31.8901C261.609 32.343 261.776 32.6948 262.062 32.9455C262.348 33.1962 262.695 33.3168 263.103 33.3075C263.693 33.2939 264.107 33.0309 264.345 32.5185L266.058 32.4791C265.89 33.0883 265.554 33.5954 265.048 34.0005C264.543 34.398 263.916 34.6053 263.167 34.6226C262.562 34.6365 262.015 34.5166 261.525 34.2631C261.042 34.0018 260.659 33.6285 260.375 33.1431C260.099 32.6577 259.954 32.0935 259.939 31.4507C259.924 30.8003 260.043 30.2263 260.297 29.7287C260.55 29.231 260.912 28.8444 261.382 28.5687C261.853 28.2931 262.398 28.1482 263.018 28.1339C263.616 28.1202 264.152 28.2365 264.627 28.4828C265.109 28.729 265.484 29.0874 265.752 29.5579C266.028 30.0207 266.172 30.5584 266.186 31.1709ZM264.531 30.755C264.514 30.3468 264.359 30.025 264.066 29.7896C263.773 29.5466 263.419 29.4299 263.003 29.4395C262.61 29.4485 262.28 29.5772 262.013 29.8254C261.754 30.066 261.599 30.3987 261.548 30.8235L264.531 30.755ZM270.757 27.9674C271.506 27.9502 272.116 28.1745 272.588 28.6404C273.061 29.0986 273.306 29.7513 273.326 30.5983L273.411 34.285L271.822 34.3215L271.743 30.8503C271.731 30.3512 271.598 29.9721 271.342 29.7132C271.086 29.4467 270.743 29.3184 270.312 29.3283C269.873 29.3384 269.528 29.4825 269.277 29.7606C269.034 30.0311 268.918 30.4158 268.929 30.915L269.009 34.3862L267.421 34.4227L267.277 28.1382L268.865 28.1017L268.883 28.8844C269.088 28.6073 269.352 28.3894 269.673 28.2307C270.003 28.0642 270.364 27.9765 270.757 27.9674ZM274.44 31.0948C274.425 30.4595 274.537 29.8932 274.775 29.396C275.021 28.8985 275.36 28.5124 275.793 28.2376C276.225 27.9628 276.71 27.8193 277.247 27.8069C277.655 27.7975 278.047 27.8793 278.422 28.0523C278.796 28.2178 279.096 28.4454 279.323 28.7353L279.254 25.7519L280.865 25.7149L281.058 34.1093L279.447 34.1463L279.426 33.2161C279.236 33.5307 278.966 33.7866 278.615 33.9838C278.264 34.1811 277.854 34.2851 277.385 34.2958C276.855 34.308 276.368 34.183 275.923 33.9208C275.478 33.6587 275.122 33.2847 274.853 32.7991C274.592 32.3057 274.454 31.7376 274.44 31.0948ZM279.386 31.0038C279.377 30.6181 279.294 30.2909 279.136 30.0221C278.979 29.7458 278.77 29.5387 278.509 29.4009C278.249 29.2556 277.971 29.1863 277.676 29.1931C277.381 29.1999 277.11 29.278 276.864 29.4274C276.618 29.5768 276.419 29.7933 276.266 30.0767C276.121 30.3524 276.053 30.6794 276.062 31.0575C276.07 31.4356 276.154 31.7666 276.312 32.0505C276.477 32.3267 276.686 32.5375 276.939 32.6831C277.2 32.8284 277.474 32.8978 277.761 32.8912C278.056 32.8844 278.33 32.8062 278.584 32.6566C278.838 32.4994 279.037 32.283 279.182 32.0073C279.327 31.724 279.395 31.3895 279.386 31.0038ZM287.046 28.9891L287.116 32.0292C287.121 32.241 287.174 32.3949 287.274 32.4909C287.382 32.5793 287.557 32.6206 287.799 32.6151L288.537 32.5981L288.567 33.9367L287.569 33.9596C286.231 33.9904 285.546 33.3554 285.517 32.0547L285.447 29.0259L284.698 29.0431L284.668 27.7385L285.417 27.7213L285.381 26.1672L286.981 26.1305L287.016 27.6846L288.423 27.6522L288.453 28.9568L287.046 28.9891ZM292.503 33.9484C291.898 33.9623 291.35 33.8425 290.86 33.5889C290.37 33.3278 289.979 32.9547 289.688 32.4695C289.404 31.9842 289.255 31.4202 289.24 30.7773C289.226 30.1345 289.353 29.5641 289.621 29.0661C289.897 28.568 290.278 28.1809 290.763 27.9049C291.249 27.6214 291.794 27.4726 292.399 27.4587C293.004 27.4448 293.555 27.5684 294.053 27.8293C294.551 28.0827 294.945 28.452 295.236 28.9371C295.535 29.4221 295.692 29.9859 295.706 30.6288C295.721 31.2716 295.587 31.8421 295.303 32.3405C295.027 32.8387 294.643 33.2296 294.15 33.5133C293.664 33.7893 293.115 33.9343 292.503 33.9484ZM292.471 32.5645C292.758 32.5579 293.025 32.4836 293.272 32.3418C293.525 32.1922 293.725 31.9757 293.87 31.6924C294.014 31.4092 294.082 31.0671 294.073 30.6663C294.059 30.0689 293.89 29.615 293.565 29.3046C293.247 28.9866 292.862 28.8328 292.408 28.8432C291.954 28.8536 291.576 29.025 291.274 29.3573C290.978 29.6819 290.838 30.1429 290.851 30.7403C290.865 31.3378 291.023 31.7957 291.326 32.1141C291.635 32.4248 292.017 32.5749 292.471 32.5645ZM299.166 30.5266C299.151 29.8913 299.263 29.325 299.501 28.8277C299.747 28.3303 300.082 27.9442 300.507 27.6696C300.94 27.3949 301.425 27.2513 301.961 27.239C302.43 27.2282 302.841 27.3134 303.193 27.4944C303.553 27.6753 303.842 27.907 304.06 28.1895L304.04 27.2934L305.639 27.2566L305.784 33.5411L304.184 33.5778L304.163 32.659C303.966 32.9586 303.688 33.2109 303.329 33.4159C302.978 33.6131 302.568 33.7171 302.099 33.7279C301.57 33.74 301.083 33.615 300.638 33.3529C300.201 33.0905 299.848 32.7165 299.579 32.2309C299.318 31.7375 299.18 31.1694 299.166 30.5266ZM304.112 30.4356C304.103 30.0499 304.02 29.7227 303.862 29.4539C303.705 29.1776 303.496 28.9705 303.235 28.8327C302.975 28.6874 302.697 28.6181 302.402 28.6249C302.107 28.6317 301.836 28.7098 301.59 28.8592C301.344 29.0086 301.145 29.225 300.992 29.5085C300.847 29.7842 300.779 30.1112 300.788 30.4893C300.796 30.8674 300.88 31.1984 301.037 31.4823C301.203 31.7585 301.412 31.9693 301.665 32.1148C301.926 32.2602 302.199 32.3296 302.487 32.323C302.782 32.3162 303.056 32.238 303.31 32.0884C303.564 31.9312 303.763 31.7148 303.908 31.4391C304.053 31.1558 304.121 30.8213 304.112 30.4356ZM312.805 28.3972L311.704 28.4225L311.819 33.4024L310.208 33.4394L310.093 28.4595L309.379 28.4759L309.349 27.1714L310.063 27.1549L310.056 26.8373C310.038 26.0659 310.245 25.4937 310.675 25.1206C311.105 24.7475 311.763 24.5622 312.648 24.5645L312.679 25.9031C312.293 25.9044 312.026 25.9749 311.878 26.1145C311.73 26.2541 311.66 26.5016 311.668 26.857L311.674 27.1179L312.775 27.0926L312.805 28.3972ZM315.414 28.0081C315.611 27.6706 315.87 27.4036 316.19 27.2071C316.519 27.0104 316.895 26.9072 317.318 26.8974L317.357 28.565L316.937 28.5746C316.438 28.5861 316.062 28.712 315.811 28.9523C315.566 29.1925 315.451 29.6037 315.464 30.1861L315.536 33.3169L313.948 33.3534L313.804 27.069L315.392 27.0325L315.414 28.0081ZM319.178 26.1964C318.898 26.2028 318.662 26.1212 318.469 25.9517C318.283 25.7743 318.187 25.5533 318.181 25.2886C318.175 25.0239 318.261 24.8025 318.438 24.6244C318.623 24.4386 318.856 24.3424 319.135 24.336C319.415 24.3296 319.648 24.415 319.834 24.5924C320.027 24.762 320.126 24.9791 320.132 25.2438C320.139 25.5085 320.049 25.7337 319.864 25.9196C319.687 26.0977 319.458 26.19 319.178 26.1964ZM319.978 26.9271L320.123 33.2116L318.534 33.248L318.39 26.9636L319.978 26.9271ZM327.458 29.7629C327.464 29.9898 327.453 30.1943 327.427 30.3765L322.833 30.4821C322.881 30.935 323.048 31.2867 323.334 31.5374C323.62 31.7881 323.967 31.9088 324.375 31.8994C324.965 31.8859 325.379 31.6229 325.617 31.1104L327.33 31.0711C327.162 31.6802 326.826 32.1874 326.32 32.5924C325.815 32.9899 325.188 33.1973 324.439 33.2145C323.834 33.2284 323.287 33.1086 322.797 32.855C322.314 32.5937 321.931 32.2204 321.647 31.7351C321.371 31.2496 321.226 30.6855 321.211 30.0427C321.196 29.3923 321.315 28.8183 321.569 28.3206C321.822 27.823 322.184 27.4363 322.654 27.1607C323.125 26.8851 323.67 26.7401 324.29 26.7259C324.888 26.7121 325.424 26.8284 325.898 27.0748C326.381 27.321 326.756 27.6793 327.024 28.1499C327.3 28.6126 327.444 29.1503 327.458 29.7629ZM325.803 29.3469C325.786 28.9387 325.631 28.6169 325.338 28.3815C325.045 28.1386 324.691 28.0219 324.275 28.0314C323.881 28.0405 323.551 28.1691 323.285 28.4174C323.025 28.6579 322.87 28.9906 322.82 29.4155L325.803 29.3469ZM332.029 26.5594C332.778 26.5422 333.388 26.7665 333.86 27.2323C334.332 27.6906 334.578 28.3432 334.598 29.1902L334.682 32.877L333.094 32.9135L333.015 29.4423C333.003 28.9431 332.869 28.5641 332.614 28.3051C332.358 28.0386 332.015 27.9103 331.584 27.9202C331.145 27.9303 330.8 28.0744 330.549 28.3526C330.306 28.623 330.19 29.0078 330.201 29.5069L330.281 32.9781L328.693 33.0146L328.548 26.7301L330.137 26.6937L330.155 27.4764C330.36 27.1993 330.624 26.9813 330.945 26.8226C331.275 26.6562 331.636 26.5684 332.029 26.5594ZM335.712 29.6867C335.697 29.0515 335.809 28.4852 336.047 27.9879C336.293 27.4904 336.632 27.1043 337.065 26.8295C337.497 26.5548 337.982 26.4112 338.519 26.3989C338.927 26.3895 339.319 26.4713 339.693 26.6443C340.068 26.8097 340.368 27.0374 340.594 27.3273L340.526 24.3438L342.137 24.3068L342.33 32.7012L340.719 32.7382L340.697 31.8081C340.508 32.1226 340.238 32.3785 339.887 32.5758C339.535 32.773 339.125 32.877 338.657 32.8878C338.127 32.8999 337.64 32.7749 337.195 32.5128C336.75 32.2506 336.394 31.8767 336.125 31.391C335.864 30.8976 335.726 30.3295 335.712 29.6867ZM340.658 29.5958C340.649 29.2101 340.566 28.8828 340.408 28.6141C340.251 28.3377 340.042 28.1307 339.781 27.9929C339.521 27.8475 339.243 27.7783 338.948 27.785C338.653 27.7918 338.382 27.8699 338.136 28.0193C337.89 28.1688 337.691 28.3852 337.538 28.6687C337.393 28.9444 337.325 29.2713 337.334 29.6494C337.342 30.0276 337.426 30.3586 337.583 30.6425C337.749 30.9187 337.958 31.1295 338.211 31.275C338.472 31.4203 338.746 31.4897 339.033 31.4831C339.328 31.4763 339.602 31.3981 339.856 31.2486C340.11 31.0914 340.309 30.8749 340.454 30.5992C340.599 30.3159 340.667 29.9814 340.658 29.5958ZM349.377 32.6414C348.772 32.6553 348.224 32.5355 347.734 32.2819C347.244 32.0208 346.853 31.6477 346.562 31.1625C346.278 30.6772 346.129 30.1132 346.114 29.4704C346.1 28.8275 346.227 28.2571 346.495 27.7592C346.771 27.261 347.152 26.8739 347.637 26.5979C348.123 26.3144 348.668 26.1656 349.273 26.1517C349.878 26.1378 350.429 26.2614 350.927 26.5223C351.425 26.7757 351.819 27.145 352.11 27.6301C352.409 28.1151 352.566 28.679 352.58 29.3218C352.595 29.9646 352.461 30.5352 352.177 31.0335C351.901 31.5317 351.517 31.9226 351.024 32.2063C350.538 32.4823 349.989 32.6274 349.377 32.6414ZM349.345 31.2575C349.632 31.2509 349.899 31.1767 350.146 31.0348C350.399 30.8852 350.599 30.6688 350.744 30.3855C350.888 30.1022 350.956 29.7601 350.947 29.3593C350.933 28.7619 350.764 28.308 350.439 27.9977C350.121 27.6796 349.736 27.5258 349.282 27.5362C348.828 27.5466 348.45 27.718 348.147 28.0503C347.852 28.3749 347.712 28.8359 347.725 29.4333C347.739 30.0308 347.897 30.4887 348.2 30.8071C348.509 31.1178 348.891 31.2679 349.345 31.2575ZM355.284 27.0918C355.48 26.7544 355.739 26.4874 356.06 26.2909C356.388 26.0942 356.764 25.9909 357.188 25.9812L357.226 27.6487L356.806 27.6584C356.307 27.6699 355.932 27.7958 355.68 28.0361C355.436 28.2763 355.32 28.6875 355.334 29.2698L355.406 32.4007L353.818 32.4372L353.673 26.1528L355.261 26.1163L355.284 27.0918ZM26.9957 53.8083C26.9808 53.1579 27.1001 52.5877 27.3537 52.0976C27.6071 51.6 27.9651 51.2134 28.4279 50.938C28.8906 50.6549 29.4244 50.5065 30.0294 50.4926C30.8083 50.4747 31.4556 50.6565 31.9714 51.0381C32.4945 51.412 32.8511 51.9486 33.0412 52.6479L31.3283 52.6873C31.2313 52.4171 31.0714 52.2089 30.8486 52.0627C30.6332 51.9088 30.3667 51.8354 30.0491 51.8427C29.5953 51.8532 29.2399 52.0278 28.9829 52.3666C28.7256 52.6979 28.604 53.166 28.6179 53.771C28.6316 54.3685 28.7747 54.8305 29.047 55.1572C29.3192 55.4763 29.6821 55.6306 30.1359 55.6202C30.7787 55.6054 31.1918 55.3084 31.3752 54.7292L33.0881 54.6898C32.9298 55.3744 32.5982 55.923 32.0931 56.3357C31.5881 56.7483 30.9499 56.9635 30.1785 56.9812C29.5735 56.9951 29.0335 56.8751 28.5585 56.6212C28.0834 56.3597 27.7079 55.99 27.4321 55.5121C27.1561 55.0266 27.0107 54.4587 26.9957 53.8083ZM37.0932 56.8223C36.4882 56.8362 35.9407 56.7164 35.4506 56.4628C34.9603 56.2017 34.5697 55.8286 34.2785 55.3434C33.995 54.8581 33.8458 54.294 33.8311 53.6512C33.8163 53.0084 33.9432 52.438 34.2117 51.94C34.4878 51.4419 34.8685 51.0548 35.354 50.7788C35.8393 50.4952 36.3845 50.3465 36.9895 50.3326C37.5945 50.3187 38.1459 50.4422 38.6437 50.7032C39.1414 50.9566 39.5357 51.3259 39.8269 51.811C40.1255 52.2959 40.2823 52.8598 40.297 53.5026C40.3118 54.1455 40.1774 54.716 39.8937 55.2144C39.6176 55.7125 39.2332 56.1035 38.7403 56.3872C38.2548 56.6632 37.7058 56.8082 37.0932 56.8223ZM37.0614 55.4384C37.3488 55.4318 37.6157 55.3575 37.8621 55.2157C38.116 55.0661 38.3153 54.8496 38.4601 54.5663C38.6049 54.283 38.6727 53.941 38.6635 53.5402C38.6498 52.9427 38.4805 52.4889 38.1555 52.1785C37.838 51.8605 37.4524 51.7067 36.9986 51.7171C36.5449 51.7275 36.1667 51.8989 35.8641 52.2312C35.5689 52.5558 35.4282 53.0168 35.4419 53.6142C35.4556 54.2117 35.6137 54.6696 35.9161 54.988C36.2259 55.2987 36.6077 55.4488 37.0614 55.4384ZM42.9294 48.1872L43.1223 56.5816L41.5342 56.6181L41.3413 48.2237L42.9294 48.1872ZM46.0866 48.1147L46.2795 56.5091L44.6914 56.5455L44.4985 48.1512L46.0866 48.1147ZM53.6153 53.0604C53.6205 53.2873 53.6101 53.4918 53.584 53.674L48.9898 53.7796C49.038 54.2325 49.205 54.5842 49.4907 54.8349C49.7764 55.0856 50.1235 55.2063 50.5319 55.1969C51.1217 55.1834 51.5356 54.9204 51.7736 54.4079L53.4865 54.3686C53.3189 54.9777 52.9825 55.4849 52.4772 55.8899C51.9719 56.2874 51.3448 56.4948 50.5961 56.512C49.9911 56.5259 49.4436 56.4061 48.9535 56.1525C48.4708 55.8912 48.0877 55.5179 47.8041 55.0326C47.5282 54.5471 47.3828 53.983 47.368 53.3402C47.3531 52.6898 47.4723 52.1158 47.7257 51.6181C47.9791 51.1205 48.3409 50.7338 48.8113 50.4582C49.2817 50.1826 49.8269 50.0376 50.447 50.0234C51.0445 50.0096 51.5806 50.1259 52.0554 50.3723C52.5377 50.6185 52.9129 50.9768 53.181 51.4474C53.4565 51.9101 53.6012 52.4478 53.6153 53.0604ZM51.96 52.6444C51.9431 52.2362 51.7881 51.9144 51.4952 51.679C51.2021 51.4361 50.8476 51.3194 50.4316 51.3289C50.0384 51.338 49.7084 51.4666 49.4417 51.7149C49.1824 51.9554 49.0274 52.2881 48.9766 52.713L51.96 52.6444ZM54.3687 53.1566C54.3541 52.5213 54.466 51.955 54.7042 51.4577C54.9501 50.9603 55.2855 50.5742 55.7104 50.2996C56.143 50.0249 56.6277 49.8813 57.1647 49.869C57.6335 49.8582 58.0441 49.9434 58.3963 50.1244C58.7561 50.3053 59.0452 50.537 59.2635 50.8195L59.2429 49.9234L60.8424 49.8866L60.9868 56.1711L59.3873 56.2078L59.3662 55.289C59.1688 55.5886 58.8909 55.8409 58.5324 56.0459C58.1813 56.2431 57.7713 56.3471 57.3024 56.3579C56.7731 56.3701 56.2859 56.2451 55.841 55.9829C55.4037 55.7205 55.0509 55.3465 54.7824 54.8609C54.5214 54.3675 54.3835 53.7994 54.3687 53.1566ZM59.3151 53.0656C59.3063 52.6799 59.2231 52.3527 59.0656 52.0839C58.9079 51.8076 58.6988 51.6005 58.4384 51.4627C58.1778 51.3174 57.9 51.2481 57.6051 51.2549C57.3102 51.2617 57.0396 51.3398 56.7933 51.4892C56.547 51.6386 56.3477 51.8551 56.1953 52.1385C56.0503 52.4142 55.9822 52.7412 55.9909 53.1193C55.9996 53.4974 56.0828 53.8284 56.2407 54.1123C56.4059 54.3885 56.6151 54.5993 56.8681 54.7449C57.1287 54.8902 57.4027 54.9596 57.6901 54.953C57.985 54.9462 58.2594 54.868 58.5132 54.7184C58.7669 54.5612 58.9662 54.3448 59.1112 54.0691C59.256 53.7858 59.324 53.4513 59.3151 53.0656ZM64.8527 49.6923C65.3216 49.6815 65.7359 49.7666 66.0957 49.9475C66.4553 50.1208 66.7406 50.3526 66.9516 50.6429L66.931 49.7467L68.5305 49.7099L68.6759 56.0398C68.6893 56.6221 68.584 57.1428 68.36 57.602C68.1361 58.0687 67.7928 58.4397 67.33 58.7152C66.8674 58.9982 66.3034 59.1474 65.6379 59.1627C64.7455 59.1832 64.0071 58.9921 63.4228 58.5893C62.8461 58.1864 62.5116 57.6266 62.4195 56.9099L63.9963 56.8737C64.0861 57.1592 64.269 57.382 64.5451 57.5421C64.8289 57.7096 65.1674 57.7888 65.5607 57.7798C66.022 57.7692 66.3931 57.6207 66.6741 57.3343C66.9552 57.0554 67.0893 56.6362 67.0765 56.0765L67.054 55.101C66.8566 55.4006 66.5787 55.6529 66.2202 55.8579C65.8693 56.0627 65.4632 56.1704 65.0018 56.181C64.4725 56.1931 63.9853 56.0681 63.5405 55.8059C63.0956 55.5438 62.7389 55.1699 62.4705 54.6842C62.2095 54.1908 62.0716 53.6227 62.0568 52.9799C62.0422 52.3446 62.154 51.7784 62.3923 51.2811C62.6381 50.7836 62.9735 50.3976 63.3985 50.123C63.8311 49.8482 64.3158 49.7047 64.8527 49.6923ZM67.0032 52.8889C66.9943 52.5032 66.9112 52.176 66.7536 51.9072C66.596 51.6309 66.3869 51.4238 66.1265 51.2861C65.8659 51.1407 65.5881 51.0714 65.2932 51.0782C64.9982 51.085 64.7276 51.1631 64.4814 51.3125C64.2351 51.4619 64.0358 51.6784 63.8834 51.9618C63.7384 52.2376 63.6703 52.5645 63.679 52.9426C63.6876 53.3207 63.7709 53.6518 63.9288 53.9357C64.094 54.2118 64.3032 54.4227 64.5562 54.5682C64.8168 54.7135 65.0908 54.7829 65.3782 54.7763C65.6731 54.7695 65.9475 54.6913 66.2013 54.5417C66.455 54.3846 66.6543 54.1681 66.7993 53.8924C66.9441 53.6091 67.0121 53.2746 67.0032 52.8889ZM76.0143 49.538L76.1588 55.8224L74.5593 55.8592L74.541 55.0651C74.3431 55.3421 74.0796 55.5638 73.7505 55.7302C73.4288 55.8889 73.0751 55.9727 72.6894 55.9816C72.1978 55.9929 71.7606 55.9008 71.3778 55.7053C70.9948 55.5022 70.6891 55.2028 70.4605 54.807C70.2394 54.4035 70.1224 53.922 70.1096 53.3623L70.0248 49.6756L71.613 49.6391L71.6925 53.099C71.7039 53.5981 71.8376 53.9809 72.0934 54.2474C72.349 54.5064 72.6924 54.6309 73.1235 54.621C73.5621 54.6109 73.9031 54.4707 74.1466 54.2002C74.3899 53.9223 74.5059 53.5337 74.4944 53.0346L74.4149 49.5747L76.0143 49.538ZM83.4924 52.3738C83.4976 52.6007 83.4872 52.8052 83.4611 52.9874L78.8669 53.093C78.9151 53.5459 79.0821 53.8977 79.3678 54.1484C79.6536 54.399 80.0006 54.5197 80.409 54.5103C80.9989 54.4968 81.4128 54.2338 81.6507 53.7213L83.3636 53.682C83.196 54.2912 82.8596 54.7983 82.3544 55.2033C81.849 55.6009 81.2219 55.8082 80.4733 55.8254C79.8683 55.8393 79.3207 55.7195 78.8306 55.4659C78.3479 55.2046 77.9648 54.8313 77.6813 54.346C77.4053 53.8605 77.2599 53.2964 77.2451 52.6536C77.2302 52.0032 77.3494 51.4292 77.6028 50.9315C77.8562 50.4339 78.2181 50.0472 78.6884 49.7716C79.1588 49.496 79.704 49.351 80.3241 49.3368C80.9216 49.323 81.4577 49.4394 81.9325 49.6857C82.4148 49.9319 82.79 50.2902 83.0581 50.7608C83.3336 51.2236 83.4783 51.7612 83.4924 52.3738ZM81.8371 51.9579C81.8202 51.5496 81.6653 51.2278 81.3723 50.9925C81.0792 50.7495 80.7247 50.6328 80.3087 50.6424C79.9155 50.6514 79.5855 50.78 79.3188 51.0283C79.0595 51.2688 78.9045 51.6015 78.8537 52.0264L81.8371 51.9579ZM86.7508 47.3845C87.5373 47.3664 88.1737 47.5674 88.66 47.9875C89.1538 48.3999 89.4092 48.9804 89.4265 49.7291C89.4435 50.4703 89.2183 51.0429 88.7509 51.4471C88.2833 51.8438 87.6563 52.0511 86.8698 52.0692L86.8445 52.9437L85.4492 52.9758L85.3482 51.0486L85.8586 51.0369C86.5166 51.0218 87.0213 50.9232 87.3727 50.7411C87.7241 50.559 87.8946 50.2372 87.884 49.7759C87.8763 49.4432 87.7719 49.1808 87.5708 48.9886C87.3772 48.7964 87.114 48.704 86.7813 48.7117C86.4334 48.7197 86.1633 48.8205 85.971 49.0141C85.7863 49.2075 85.6978 49.4705 85.7054 49.8033L84.2081 49.8377C84.1899 49.3766 84.2787 48.9622 84.4746 48.5945C84.6704 48.2268 84.9626 47.9363 85.3512 47.7231C85.7473 47.5097 86.2138 47.3968 86.7508 47.3845ZM86.2035 55.671C85.9161 55.6776 85.6759 55.5961 85.4828 55.4265C85.2971 55.2492 85.2013 55.0282 85.1952 54.7635C85.1891 54.4988 85.2748 54.2774 85.4523 54.0993C85.6372 53.9135 85.8733 53.8173 86.1607 53.8107C86.4405 53.8042 86.6733 53.8897 86.8589 54.067C87.0444 54.2368 87.1402 54.454 87.1463 54.7187C87.1524 54.9834 87.0668 55.2086 86.8894 55.3942C86.7119 55.5723 86.4833 55.6646 86.2035 55.671Z" fill="#11002A"/>
<path d="M29.8213 78.5944C29.4155 78.6037 29.0492 78.5415 28.7224 78.4078C28.4014 78.268 28.1468 78.0738 27.9587 77.8251C27.7704 77.5705 27.6695 77.2756 27.6559 76.9404L28.5117 76.9208C28.5477 77.2083 28.671 77.4497 28.8814 77.645C29.0977 77.8342 29.4058 77.9242 29.8057 77.915C30.1881 77.9063 30.4859 77.8052 30.6992 77.612C30.9182 77.4128 31.0243 77.1632 31.0174 76.8632C31.012 76.6279 30.9429 76.4382 30.8101 76.2942C30.6773 76.1501 30.513 76.042 30.3172 75.97C30.1213 75.898 29.8577 75.8217 29.5262 75.741C29.118 75.6445 28.7891 75.5461 28.5396 75.4459C28.296 75.3456 28.0834 75.1857 27.9018 74.9662C27.726 74.7408 27.6337 74.4369 27.6249 74.0545C27.6172 73.7193 27.6956 73.4203 27.8603 73.1575C28.0249 72.8948 28.2585 72.6893 28.5611 72.5411C28.8696 72.3928 29.2239 72.3141 29.6238 72.3049C30.2003 72.2916 30.6741 72.4249 31.0454 72.7047C31.4226 72.9844 31.6402 73.362 31.6982 73.8373L30.8159 73.8576C30.7811 73.623 30.6529 73.42 30.4312 73.2485C30.2094 73.0712 29.919 72.9866 29.5602 72.9949C29.225 73.0026 28.9535 73.0971 28.7458 73.2784C28.538 73.4539 28.4376 73.6975 28.4448 74.0092C28.4499 74.2327 28.5159 74.4136 28.6426 74.552C28.7753 74.6902 28.9337 74.7954 29.1178 74.8677C29.3076 74.9339 29.5712 75.0103 29.9087 75.0967C30.3171 75.1991 30.6461 75.3034 30.8957 75.4094C31.1452 75.5096 31.3608 75.6724 31.5425 75.8977C31.7241 76.1172 31.8194 76.421 31.8283 76.8092C31.8352 77.1092 31.7623 77.3934 31.6096 77.6617C31.4568 77.9301 31.2265 78.1502 30.9185 78.322C30.6106 78.4939 30.2448 78.5847 29.8213 78.5944ZM37.4 75.7543C37.4035 75.9072 37.3984 76.0692 37.3847 76.2402L33.5202 76.329C33.5606 76.8047 33.7309 77.1745 34.0313 77.4383C34.3373 77.6961 34.7021 77.8202 35.1256 77.8104C35.4726 77.8025 35.759 77.7164 35.9848 77.5524C36.2163 77.3822 36.376 77.1608 36.4639 76.8881L37.3285 76.8682C37.2098 77.3359 36.9597 77.7212 36.5782 78.0242C36.1967 78.3214 35.7176 78.4766 35.1412 78.4898C34.6824 78.5003 34.2683 78.4069 33.8989 78.2094C33.5354 78.0118 33.2464 77.7271 33.0318 77.3554C32.8172 76.9778 32.7041 76.539 32.6926 76.039C32.6811 75.5391 32.771 75.0986 32.9624 74.7175C33.1537 74.3365 33.4265 74.0418 33.7807 73.8336C34.1406 73.6194 34.5559 73.5068 35.0265 73.496C35.4852 73.4855 35.8934 73.5761 36.2509 73.768C36.6084 73.9599 36.8854 74.2301 37.0817 74.5787C37.2838 74.9213 37.3899 75.3132 37.4 75.7543ZM36.5668 75.6057C36.5598 75.2999 36.4861 75.0397 36.3458 74.8252C36.2054 74.6047 36.0163 74.4414 35.7784 74.335C35.5463 74.2227 35.2891 74.1697 35.0068 74.1762C34.6009 74.1855 34.2569 74.3229 33.9746 74.5883C33.6982 74.8536 33.5447 75.2161 33.5141 75.6759L36.5668 75.6057ZM39.1725 71.7853L39.3225 78.3143L38.5196 78.3327L38.3696 71.8037L39.1725 71.7853ZM45.0425 75.5787C45.0461 75.7316 45.0409 75.8936 45.0272 76.0646L41.1628 76.1534C41.2031 76.6291 41.3735 76.9989 41.6738 77.2627C41.9798 77.5205 42.3446 77.6445 42.7681 77.6348C43.1152 77.6268 43.4016 77.5408 43.6273 77.3767C43.8588 77.2066 44.0185 76.9852 44.1064 76.7125L44.971 76.6926C44.8523 77.1602 44.6022 77.5456 44.2208 77.8486C43.8392 78.1457 43.3602 78.3009 42.7837 78.3142C42.3249 78.3247 41.9108 78.2312 41.5414 78.0338C41.1779 77.8361 40.8889 77.5515 40.6744 77.1798C40.4597 76.8022 40.3466 76.3634 40.3351 75.8634C40.3237 75.3634 40.4136 74.9229 40.6049 74.5419C40.7962 74.1609 41.069 73.8662 41.4232 73.658C41.7832 73.4437 42.1984 73.3312 42.669 73.3204C43.1278 73.3099 43.5359 73.4005 43.8934 73.5924C44.251 73.7843 44.5279 74.0545 44.7242 74.4031C44.9263 74.7457 45.0324 75.1375 45.0425 75.5787ZM44.2093 75.4301C44.2023 75.1242 44.1286 74.864 43.9884 74.6495C43.8479 74.4291 43.6588 74.2657 43.421 74.1594C43.1889 74.047 42.9316 73.9941 42.6493 74.0006C42.2434 74.0099 41.8994 74.1473 41.6171 74.4127C41.3407 74.678 41.1872 75.0405 41.1566 75.5003L44.2093 75.4301ZM45.8064 75.7377C45.7949 75.2377 45.8849 74.8001 46.0764 74.425C46.2677 74.0439 46.5375 73.7464 46.8857 73.5325C47.2397 73.3183 47.6462 73.206 48.1049 73.1955C48.699 73.1818 49.1905 73.3147 49.5795 73.5941C49.9743 73.8734 50.2394 74.2675 50.3747 74.7764L49.51 74.7963C49.4209 74.5041 49.2538 74.2755 49.0087 74.1104C48.7695 73.9453 48.4735 73.8667 48.1206 73.8748C47.6618 73.8854 47.2949 74.0527 47.0198 74.3768C46.7446 74.6951 46.6137 75.1424 46.6269 75.7188C46.6403 76.3011 46.7918 76.7479 47.0815 77.059C47.3711 77.3701 47.7453 77.5204 48.2041 77.5099C48.557 77.5018 48.8492 77.4127 49.0807 77.2426C49.3122 77.0725 49.4685 76.8335 49.5498 76.5256L50.4144 76.5057C50.2963 77.0028 50.0467 77.4058 49.6654 77.7147C49.2839 78.0177 48.802 78.1759 48.2197 78.1893C47.7609 78.1998 47.3497 78.1063 46.9862 77.9086C46.6286 77.7109 46.3454 77.4261 46.1368 77.0542C45.9282 76.6824 45.818 76.2435 45.8064 75.7377ZM52.4048 73.8382L52.4703 76.688C52.4757 76.9233 52.5296 77.0898 52.6319 77.1874C52.734 77.2793 52.9086 77.3223 53.1557 77.3167L53.7468 77.3031L53.7624 77.9824L53.0389 77.9991C52.5919 78.0093 52.2543 77.9141 52.026 77.7134C51.7978 77.5126 51.6782 77.177 51.6674 76.7064L51.6019 73.8566L50.9755 73.871L50.9603 73.2093L51.5867 73.1949L51.5587 71.9773L52.3616 71.9589L52.3896 73.1765L53.6513 73.1475L53.6665 73.8092L52.4048 73.8382ZM59.8769 77.9037C59.3063 77.9168 58.7827 77.7964 58.3061 77.5426C57.8293 77.2828 57.4472 76.9179 57.1598 76.4478C56.8782 75.9717 56.7305 75.4337 56.7167 74.8337C56.7029 74.2338 56.8258 73.6924 57.0854 73.2098C57.3508 72.7211 57.7157 72.339 58.1802 72.0635C58.6445 71.7821 59.162 71.6349 59.7325 71.6218C60.309 71.6085 60.8356 71.7318 61.3123 71.9915C61.789 72.2454 62.168 72.6075 62.4496 73.0777C62.7311 73.5479 62.8788 74.0859 62.8927 74.6918C62.9067 75.2976 62.7838 75.8419 62.5242 76.3245C62.2646 76.8072 61.9026 77.1892 61.4382 77.4706C60.9738 77.7461 60.4533 77.8905 59.8769 77.9037ZM59.8609 77.2067C60.2902 77.1968 60.6732 77.088 61.0098 76.8802C61.3522 76.6722 61.6162 76.3807 61.8018 76.0057C61.9933 75.6305 62.0834 75.1988 62.0722 74.7106C62.0608 74.2166 61.951 73.7895 61.7426 73.4294C61.54 73.0633 61.2658 72.7842 60.9201 72.592C60.5743 72.3999 60.1838 72.3088 59.7485 72.3188C59.3133 72.3288 58.9274 72.4377 58.5908 72.6455C58.2542 72.8534 57.9902 73.1449 57.7988 73.52C57.613 73.8892 57.5259 74.3208 57.5372 74.8149C57.5484 75.3031 57.6553 75.7302 57.858 76.0963C58.0665 76.4623 58.3436 76.7413 58.6893 76.9335C59.041 77.1255 59.4315 77.2166 59.8609 77.2067ZM66.266 72.7693C66.8542 72.7558 67.3348 72.9242 67.7077 73.2747C68.0805 73.6192 68.2746 74.1267 68.29 74.7973L68.3555 77.6471L67.5614 77.6653L67.4986 74.9302C67.4875 74.4479 67.3584 74.083 67.1115 73.8357C66.8644 73.5824 66.532 73.4606 66.1144 73.4702C65.6909 73.4799 65.3557 73.62 65.1089 73.8905C64.8679 74.1609 64.7532 74.549 64.7649 75.0548L64.8263 77.7282L64.0234 77.7466L63.9123 72.9117L64.7152 72.8932L64.731 73.5814C64.8841 73.3307 65.0944 73.1346 65.3619 72.9931C65.6352 72.8515 65.9366 72.7769 66.266 72.7693ZM74.0187 74.9128C74.0222 75.0657 74.0171 75.2277 74.0033 75.3987L70.1389 75.4875C70.1792 75.9632 70.3496 76.333 70.6499 76.5968C70.956 76.8546 71.3207 76.9787 71.7442 76.9689C72.0913 76.961 72.3777 76.8749 72.6034 76.7108C72.8349 76.5407 72.9946 76.3193 73.0825 76.0466L73.9471 76.0267C73.8284 76.4944 73.5783 76.8797 73.1969 77.1827C72.8153 77.4799 72.3363 77.6351 71.7599 77.6483C71.3011 77.6588 70.887 77.5654 70.5175 77.3679C70.154 77.1703 69.865 76.8856 69.6505 76.5139C69.4358 76.1363 69.3227 75.6975 69.3113 75.1975C69.2998 74.6976 69.3897 74.2571 69.581 73.876C69.7724 73.495 70.0451 73.2003 70.3993 72.9921C70.7593 72.7779 71.1745 72.6653 71.6451 72.6545C72.1039 72.644 72.512 72.7346 72.8696 72.9265C73.2271 73.1184 73.504 73.3886 73.7003 73.7372C73.9024 74.0798 74.0085 74.4717 74.0187 74.9128ZM73.1854 74.7642C73.1784 74.4584 73.1048 74.1982 72.9645 73.9836C72.824 73.7632 72.6349 73.5999 72.3971 73.4935C72.165 73.3811 71.9078 73.3282 71.6254 73.3347C71.2196 73.344 70.8755 73.4814 70.5932 73.7468C70.3168 74.0121 70.1633 74.3746 70.1327 74.8344L73.1854 74.7642ZM79.601 77.4681C79.1481 77.4785 78.734 77.385 78.3587 77.1877C77.9892 76.9902 77.6943 76.7057 77.4739 76.3341C77.2593 75.9565 77.1462 75.5177 77.1347 75.0177C77.1234 74.5237 77.2192 74.086 77.4223 73.7046C77.6312 73.3173 77.9186 73.0194 78.2846 72.8109C78.6504 72.5965 79.0627 72.4841 79.5215 72.4735C79.9803 72.463 80.3973 72.5564 80.7726 72.7537C81.1478 72.9452 81.4456 73.2267 81.666 73.5983C81.8923 73.9697 82.0111 74.4055 82.0226 74.9054C82.0341 75.4054 81.9325 75.8491 81.7178 76.2366C81.5088 76.618 81.2184 76.916 80.8467 77.1305C80.475 77.345 80.0598 77.4576 79.601 77.4681ZM79.5847 76.7623C79.873 76.7556 80.142 76.6818 80.3918 76.5407C80.6416 76.3996 80.8399 76.192 80.9866 75.9179C81.1392 75.6437 81.211 75.3125 81.2021 74.9243C81.1932 74.5361 81.1091 74.2084 80.95 73.9414C80.7908 73.6743 80.5863 73.4789 80.3362 73.3552C80.0861 73.2256 79.8169 73.1641 79.5287 73.1707C79.2346 73.1775 78.9656 73.2513 78.7216 73.3923C78.4835 73.5273 78.2939 73.7317 78.1531 74.0056C78.0123 74.2796 77.9463 74.6107 77.9553 74.9989C77.9643 75.393 78.0425 75.7237 78.1899 75.991C78.3432 76.2582 78.542 76.4567 78.7862 76.5864C79.0304 76.7103 79.2965 76.7689 79.5847 76.7623ZM83.8463 73.3452C83.9988 73.0651 84.2288 72.8303 84.5363 72.6408C84.8496 72.4452 85.2151 72.3427 85.6327 72.3331C86.0621 72.3232 86.4527 72.4172 86.8044 72.6151C87.1621 72.8129 87.4452 73.0977 87.6538 73.4695C87.8623 73.8355 87.9723 74.2655 87.9836 74.7596C87.9948 75.2478 87.9049 75.6854 87.7137 76.0723C87.5225 76.4592 87.2528 76.7626 86.9048 76.9825C86.5626 77.2022 86.1768 77.317 85.7475 77.3269C85.3357 77.3363 84.9689 77.2535 84.6471 77.0785C84.3311 76.8974 84.0875 76.6706 83.9164 76.3979L83.9896 79.583L83.1868 79.6014L83.0229 72.4725L83.8258 72.454L83.8463 73.3452ZM87.1631 74.7785C87.1547 74.4138 87.0739 74.0978 86.9206 73.8307C86.7674 73.5635 86.5626 73.3622 86.3065 73.2268C86.0562 73.0913 85.7811 73.027 85.4811 73.0339C85.187 73.0407 84.9152 73.1205 84.6656 73.2734C84.4218 73.4202 84.2266 73.6336 84.08 73.9136C83.9392 74.1875 83.8729 74.5039 83.8812 74.8627C83.8895 75.2274 83.9704 75.5463 84.1238 75.8193C84.283 76.0864 84.4878 76.2906 84.7382 76.432C84.9944 76.5673 85.2695 76.6316 85.5636 76.6249C85.8636 76.618 86.1355 76.5411 86.3793 76.3943C86.6288 76.2414 86.824 76.028 86.9648 75.7541C87.1055 75.4742 87.1716 75.149 87.1631 74.7785ZM89.9799 72.9747L90.0453 75.8245C90.0508 76.0598 90.1046 76.2263 90.2069 76.324C90.309 76.4158 90.4836 76.4588 90.7307 76.4532L91.3218 76.4396L91.3374 77.1189L90.614 77.1356C90.1669 77.1458 89.8293 77.0506 89.601 76.8499C89.3728 76.6492 89.2533 76.3135 89.2425 75.843L89.177 72.9931L88.5505 73.0075L88.5353 72.3458L89.1618 72.3314L89.1338 71.1139L89.9367 71.0954L89.9647 72.313L91.2263 72.284L91.2415 72.9457L89.9799 72.9747ZM92.5958 71.4669C92.4428 71.4704 92.3122 71.4204 92.2039 71.317C92.0956 71.2135 92.0397 71.0853 92.0362 70.9324C92.0327 70.7795 92.0826 70.6488 92.1861 70.5405C92.2895 70.4322 92.4177 70.3763 92.5706 70.3728C92.7177 70.3694 92.8424 70.4195 92.9448 70.5231C93.0531 70.6265 93.1091 70.7547 93.1126 70.9077C93.1161 71.0606 93.0661 71.1912 92.9627 71.2995C92.8651 71.4077 92.7428 71.4635 92.5958 71.4669ZM93.002 72.2432L93.1131 77.0781L92.3102 77.0966L92.1991 72.2616L93.002 72.2432ZM96.592 77.0776C96.1391 77.0881 95.725 76.9946 95.3497 76.7972C94.9803 76.5997 94.6854 76.3152 94.465 75.9436C94.2503 75.566 94.1373 75.1272 94.1258 74.6273C94.1144 74.1332 94.2103 73.6955 94.4134 73.3142C94.6222 72.9269 94.9096 72.6289 95.2756 72.4204C95.6414 72.2061 96.0538 72.0936 96.5125 72.0831C96.9713 72.0725 97.3884 72.1659 97.7637 72.3633C98.1388 72.5547 98.4366 72.8363 98.657 73.2078C98.8833 73.5793 99.0022 74.015 99.0137 74.515C99.0252 75.0149 98.9235 75.4586 98.7088 75.8461C98.4998 76.2275 98.2095 76.5255 97.8378 76.7401C97.4661 76.9546 97.0508 77.0671 96.592 77.0776ZM96.5758 76.3718C96.864 76.3652 97.133 76.2913 97.3828 76.1502C97.6327 76.0091 97.8309 75.8015 97.9776 75.5275C98.1302 75.2532 98.2021 74.922 98.1931 74.5338C98.1842 74.1456 98.1002 73.818 97.941 73.5509C97.7819 73.2839 97.5773 73.0885 97.3273 72.9647C97.0771 72.8351 96.808 72.7736 96.5197 72.7803C96.2256 72.787 95.9566 72.8609 95.7127 73.0018C95.4745 73.1368 95.285 73.3412 95.1442 73.6152C95.0033 73.8891 94.9374 74.2202 94.9463 74.6084C94.9554 75.0025 95.0336 75.3332 95.181 75.6006C95.3342 75.8677 95.533 76.0662 95.7773 76.196C96.0214 76.3198 96.2876 76.3784 96.5758 76.3718ZM102.368 71.9397C102.956 71.9262 103.436 72.0946 103.809 72.445C104.182 72.7896 104.376 73.2971 104.392 73.9676L104.457 76.8175L103.663 76.8357L103.6 74.1006C103.589 73.6183 103.46 73.2534 103.213 73.006C102.966 72.7528 102.634 72.6309 102.216 72.6405C101.793 72.6503 101.457 72.7904 101.211 73.0609C100.97 73.3312 100.855 73.7194 100.867 74.2252L100.928 76.8986L100.125 76.917L100.014 72.082L100.817 72.0636L100.833 72.7518C100.986 72.5011 101.196 72.305 101.464 72.1635C101.737 72.0218 102.038 71.9472 102.368 71.9397Z" fill="#363E49"/>
<rect x="429.648" y="17.4114" width="24.5847" height="24.5847" rx="4.72782" transform="rotate(-1.31645 429.648 17.4114)" fill="white"/>
<rect x="429.648" y="17.4114" width="24.5847" height="24.5847" rx="4.72782" transform="rotate(-1.31645 429.648 17.4114)" stroke="#F2F4F7" stroke-width="0.630376"/>
<path d="M437.847 31.2525C436.889 31.2745 436.096 30.5172 436.074 29.5592C436.052 28.6013 436.809 27.8084 437.767 27.7863C438.725 27.7643 439.518 28.5217 439.54 29.4796C439.562 30.4375 438.805 31.2305 437.847 31.2525ZM437.789 28.7317C437.354 28.7417 437.009 29.1027 437.019 29.5375C437.029 29.9724 437.39 30.3172 437.825 30.3072C438.26 30.2972 438.605 29.9362 438.595 29.5013C438.585 29.0665 438.224 28.7217 437.789 28.7317Z" fill="#11002A"/>
<path d="M446.67 31.0494C445.712 31.0714 444.919 30.314 444.897 29.3561C444.875 28.3982 445.633 27.6052 446.59 27.5832C447.548 27.5612 448.341 28.3186 448.363 29.2765C448.385 30.2344 447.628 31.0274 446.67 31.0494ZM446.612 28.5285C446.177 28.5385 445.833 28.8996 445.843 29.3344C445.853 29.7692 446.214 30.1141 446.648 30.1041C447.083 30.0941 447.428 29.733 447.418 29.2982C447.408 28.8633 447.047 28.5185 446.612 28.5285Z" fill="#11002A"/>
<path d="M442.258 31.1509C441.3 31.173 440.507 30.4156 440.485 29.4577C440.463 28.4998 441.22 27.7068 442.178 27.6848C443.136 27.6628 443.929 28.4201 443.951 29.378C443.973 30.336 443.216 31.1289 442.258 31.1509ZM442.2 28.6301C441.765 28.6401 441.42 29.0011 441.43 29.436C441.44 29.8708 441.801 30.2156 442.236 30.2056C442.671 30.1956 443.016 29.8346 443.006 29.3998C442.996 28.9649 442.635 28.6201 442.2 28.6301Z" fill="#11002A"/>
<rect x="18.1583" y="110.861" width="34.6707" height="33.5417" rx="4.72782" transform="rotate(-1.31645 18.1583 110.861)" fill="white"/>
<rect x="18.1583" y="110.861" width="34.6707" height="33.5417" rx="4.72782" transform="rotate(-1.31645 18.1583 110.861)" stroke="#F2F4F7" stroke-width="0.630376"/>
<path d="M33.4158 127.028C33.3926 126.016 33.5391 125.224 33.8556 124.652C34.1718 124.074 34.7417 123.775 35.5652 123.756C36.3828 123.738 36.9628 124.01 37.3053 124.573C37.6477 125.13 37.8305 125.914 37.8538 126.926C37.8774 127.955 37.7311 128.759 37.4148 129.337C37.0985 129.915 36.5316 130.214 35.714 130.233C34.8905 130.251 34.3076 129.979 33.965 129.416C33.6225 128.853 33.4395 128.057 33.4158 127.028ZM37.0597 126.944C37.0479 126.432 37.0027 126.001 36.924 125.65C36.8511 125.292 36.7062 125.007 36.4895 124.795C36.2786 124.582 35.9761 124.48 35.582 124.489C35.182 124.498 34.8787 124.614 34.6719 124.836C34.4711 125.059 34.3395 125.35 34.2771 125.711C34.2205 126.065 34.1981 126.498 34.2099 127.01C34.222 127.539 34.2646 127.982 34.3375 128.34C34.4164 128.697 34.5612 128.982 34.7721 129.195C34.9888 129.408 35.2972 129.509 35.6972 129.5C36.0913 129.491 36.3888 129.375 36.5896 129.153C36.7964 128.931 36.928 128.639 36.9844 128.279C37.0468 127.918 37.0719 127.474 37.0597 126.944Z" fill="#11002A"/>
<rect x="58.4913" y="109.933" width="34.6707" height="33.5417" rx="4.72782" transform="rotate(-1.31645 58.4913 109.933)" fill="white"/>
<rect x="58.4913" y="109.933" width="34.6707" height="33.5417" rx="4.72782" transform="rotate(-1.31645 58.4913 109.933)" stroke="#F2F4F7" stroke-width="0.630376"/>
<path d="M74.9821 123.681L74.9653 122.949L76.624 122.91L76.7706 129.289L75.9589 129.308L75.8291 123.661L74.9821 123.681Z" fill="#11002A"/>
<rect x="98.8253" y="109.007" width="34.6707" height="33.5417" rx="4.72782" transform="rotate(-1.31645 98.8253 109.007)" fill="white"/>
<rect x="98.8253" y="109.007" width="34.6707" height="33.5417" rx="4.72782" transform="rotate(-1.31645 98.8253 109.007)" stroke="#F2F4F7" stroke-width="0.630376"/>
<path d="M114.046 127.788C114.779 127.171 115.353 126.667 115.768 126.274C116.182 125.877 116.529 125.465 116.807 125.041C117.092 124.611 117.229 124.193 117.22 123.787C117.211 123.405 117.11 123.107 116.917 122.894C116.73 122.674 116.43 122.569 116.018 122.579C115.618 122.588 115.309 122.722 115.092 122.98C114.88 123.232 114.77 123.567 114.762 123.985L113.985 124.003C113.994 123.343 114.182 122.83 114.55 122.462C114.918 122.095 115.399 121.904 115.994 121.891C116.599 121.877 117.083 122.033 117.443 122.361C117.81 122.688 118 123.145 118.013 123.733C118.025 124.222 117.888 124.702 117.605 125.173C117.327 125.638 117.007 126.052 116.645 126.413C116.282 126.769 115.818 127.186 115.252 127.663L118.287 127.594L118.303 128.264L114.059 128.362L114.046 127.788Z" fill="#11002A"/>
<rect x="139.158" y="108.079" width="34.6707" height="33.5417" rx="4.72782" transform="rotate(-1.31645 139.158 108.079)" fill="white"/>
<rect x="139.158" y="108.079" width="34.6707" height="33.5417" rx="4.72782" transform="rotate(-1.31645 139.158 108.079)" stroke="#F2F4F7" stroke-width="0.630376"/>
<path d="M154.363 122.73C154.392 122.187 154.591 121.759 154.961 121.445C155.33 121.13 155.815 120.966 156.415 120.952C156.815 120.943 157.16 121.009 157.452 121.149C157.749 121.283 157.974 121.473 158.127 121.716C158.286 121.96 158.369 122.237 158.376 122.549C158.384 122.914 158.285 123.231 158.08 123.5C157.88 123.77 157.613 123.947 157.28 124.031L157.281 124.075C157.665 124.16 157.973 124.339 158.202 124.61C158.432 124.881 158.552 125.24 158.563 125.687C158.57 126.023 158.501 126.327 158.354 126.601C158.207 126.87 157.983 127.084 157.68 127.244C157.378 127.404 157.012 127.489 156.583 127.498C155.959 127.513 155.444 127.363 155.036 127.048C154.629 126.728 154.395 126.269 154.334 125.67L155.11 125.652C155.159 126.004 155.31 126.289 155.562 126.507C155.815 126.725 156.147 126.829 156.558 126.819C156.97 126.81 157.279 126.697 157.486 126.48C157.699 126.258 157.801 125.976 157.793 125.634C157.783 125.193 157.629 124.879 157.33 124.692C157.032 124.504 156.585 124.418 155.991 124.431L155.788 124.436L155.773 123.765L155.985 123.76C156.526 123.742 156.933 123.644 157.205 123.468C157.477 123.285 157.609 123.011 157.601 122.646C157.594 122.335 157.485 122.087 157.275 121.903C157.071 121.72 156.78 121.632 156.404 121.641C156.039 121.649 155.747 121.75 155.528 121.944C155.309 122.137 155.182 122.393 155.149 122.712L154.363 122.73Z" fill="#11002A"/>
<rect x="179.492" y="107.154" width="34.6707" height="33.5417" rx="4.72782" transform="rotate(-1.31645 179.492 107.154)" fill="white"/>
<rect x="179.492" y="107.154" width="34.6707" height="33.5417" rx="4.72782" transform="rotate(-1.31645 179.492 107.154)" stroke="#F2F4F7" stroke-width="0.630376"/>
<path d="M194.598 125.161L194.584 124.552L197.582 120.193L198.544 120.171L198.64 124.37L199.523 124.35L199.539 125.047L198.656 125.067L198.689 126.488L197.895 126.506L197.862 125.086L194.598 125.161ZM197.804 121.026L195.508 124.442L197.882 124.388L197.804 121.026Z" fill="#11002A"/>
<rect x="219.825" y="106.226" width="34.6707" height="33.5417" rx="4.72782" transform="rotate(-1.31645 219.825 106.226)" fill="white"/>
<rect x="219.825" y="106.226" width="34.6707" height="33.5417" rx="4.72782" transform="rotate(-1.31645 219.825 106.226)" stroke="#F2F4F7" stroke-width="0.630376"/>
<path d="M239.094 119.873L235.998 119.945L236.044 121.956C236.175 121.765 236.371 121.607 236.633 121.484C236.895 121.354 237.179 121.286 237.485 121.279C237.973 121.267 238.372 121.361 238.683 121.56C238.993 121.753 239.217 122.01 239.354 122.33C239.497 122.645 239.572 122.982 239.58 123.34C239.59 123.764 239.519 124.145 239.368 124.484C239.217 124.823 238.979 125.093 238.654 125.295C238.335 125.496 237.934 125.603 237.452 125.614C236.834 125.628 236.331 125.481 235.941 125.172C235.552 124.863 235.309 124.445 235.215 123.917L236 123.899C236.084 124.233 236.252 124.491 236.503 124.673C236.755 124.856 237.069 124.943 237.445 124.934C237.91 124.924 238.257 124.777 238.486 124.495C238.714 124.208 238.824 123.834 238.813 123.376C238.802 122.917 238.677 122.567 238.436 122.325C238.195 122.077 237.845 121.959 237.386 121.97C237.074 121.977 236.802 122.059 236.571 122.218C236.345 122.37 236.182 122.577 236.082 122.838L235.323 122.856L235.24 119.256L239.078 119.168L239.094 119.873Z" fill="#11002A"/>
<rect x="260.159" y="105.3" width="34.6707" height="33.5417" rx="4.72782" transform="rotate(-1.31645 260.159 105.3)" fill="white"/>
<rect x="260.159" y="105.3" width="34.6707" height="33.5417" rx="4.72782" transform="rotate(-1.31645 260.159 105.3)" stroke="#F2F4F7" stroke-width="0.630376"/>
<path d="M278.936 119.78C278.791 119.13 278.381 118.813 277.704 118.828C277.181 118.84 276.794 119.052 276.545 119.464C276.295 119.87 276.184 120.535 276.211 121.458C276.339 121.149 276.557 120.906 276.865 120.728C277.179 120.544 277.53 120.448 277.918 120.439C278.524 120.425 279.01 120.602 279.378 120.97C279.751 121.338 279.945 121.855 279.961 122.519C279.97 122.919 279.899 123.28 279.747 123.601C279.602 123.922 279.372 124.181 279.059 124.376C278.751 124.572 278.374 124.674 277.927 124.685C277.321 124.699 276.845 124.574 276.497 124.312C276.15 124.049 275.903 123.681 275.757 123.207C275.611 122.734 275.53 122.147 275.513 121.448C275.464 119.289 276.192 118.192 277.698 118.158C278.274 118.144 278.731 118.29 279.067 118.594C279.404 118.898 279.607 119.288 279.677 119.763L278.936 119.78ZM277.766 121.122C277.513 121.128 277.276 121.186 277.055 121.297C276.834 121.402 276.655 121.563 276.519 121.778C276.388 121.987 276.326 122.241 276.333 122.541C276.343 122.988 276.481 123.35 276.746 123.626C277.012 123.897 277.385 124.026 277.868 124.015C278.279 124.006 278.603 123.872 278.838 123.613C279.079 123.349 279.195 122.999 279.185 122.564C279.174 122.105 279.048 121.749 278.807 121.495C278.566 121.236 278.219 121.112 277.766 121.122Z" fill="#11002A"/>
<rect x="300.492" y="104.372" width="34.6707" height="33.5417" rx="4.72782" transform="rotate(-1.31645 300.492 104.372)" fill="white"/>
<rect x="300.492" y="104.372" width="34.6707" height="33.5417" rx="4.72782" transform="rotate(-1.31645 300.492 104.372)" stroke="#F2F4F7" stroke-width="0.630376"/>
<path d="M320.119 117.941L317.798 123.75L316.986 123.768L319.344 118.038L315.938 118.116L315.923 117.428L320.105 117.332L320.119 117.941Z" fill="#11002A"/>
<rect x="340.826" y="103.447" width="34.6707" height="33.5417" rx="4.72782" transform="rotate(-1.31645 340.826 103.447)" fill="white"/>
<rect x="340.826" y="103.447" width="34.6707" height="33.5417" rx="4.72782" transform="rotate(-1.31645 340.826 103.447)" stroke="#F2F4F7" stroke-width="0.630376"/>
<path d="M357.247 119.525C356.915 119.404 356.657 119.221 356.475 118.978C356.293 118.735 356.198 118.437 356.19 118.084C356.183 117.767 356.255 117.48 356.408 117.223C356.561 116.961 356.792 116.752 357.1 116.598C357.414 116.438 357.795 116.352 358.242 116.342C358.689 116.332 359.07 116.4 359.385 116.545C359.706 116.685 359.949 116.883 360.114 117.138C360.285 117.387 360.373 117.67 360.381 117.988C360.389 118.329 360.304 118.631 360.128 118.894C359.951 119.151 359.706 119.345 359.391 119.476C359.758 119.579 360.051 119.77 360.269 120.047C360.493 120.319 360.61 120.652 360.619 121.046C360.628 121.428 360.541 121.765 360.36 122.058C360.178 122.345 359.915 122.571 359.572 122.738C359.234 122.899 358.842 122.984 358.395 122.995C357.948 123.005 357.552 122.938 357.207 122.792C356.868 122.641 356.602 122.427 356.407 122.149C356.212 121.865 356.11 121.532 356.101 121.149C356.092 120.755 356.19 120.415 356.396 120.128C356.601 119.84 356.885 119.64 357.247 119.525ZM359.607 118.103C359.598 117.744 359.474 117.47 359.235 117.282C358.995 117.093 358.669 117.003 358.257 117.013C357.852 117.022 357.533 117.127 357.302 117.326C357.072 117.526 356.96 117.808 356.969 118.172C356.976 118.502 357.103 118.764 357.349 118.958C357.6 119.152 357.92 119.245 358.308 119.236C358.703 119.227 359.018 119.12 359.254 118.914C359.497 118.703 359.614 118.432 359.607 118.103ZM358.323 119.854C357.887 119.864 357.534 119.975 357.262 120.187C356.99 120.393 356.859 120.7 356.868 121.105C356.877 121.482 357.016 121.782 357.286 122.005C357.562 122.228 357.927 122.335 358.379 122.324C358.832 122.314 359.189 122.191 359.448 121.955C359.707 121.72 359.833 121.414 359.824 121.037C359.815 120.643 359.673 120.346 359.398 120.147C359.122 119.941 358.764 119.844 358.323 119.854Z" fill="#11002A"/>
<rect x="381.159" y="102.519" width="34.6707" height="33.5417" rx="4.72782" transform="rotate(-1.31645 381.159 102.519)" fill="white"/>
<rect x="381.159" y="102.519" width="34.6707" height="33.5417" rx="4.72782" transform="rotate(-1.31645 381.159 102.519)" stroke="#F2F4F7" stroke-width="0.630376"/>
<path d="M397.485 120.206C397.551 120.54 397.692 120.796 397.908 120.974C398.13 121.151 398.423 121.235 398.788 121.227C399.276 121.216 399.631 121.016 399.851 120.629C400.078 120.241 400.175 119.594 400.142 118.689C400.025 118.956 399.824 119.17 399.539 119.329C399.254 119.483 398.935 119.564 398.582 119.572C398.188 119.581 397.833 119.51 397.518 119.358C397.208 119.201 396.962 118.968 396.778 118.66C396.595 118.353 396.498 117.978 396.487 117.537C396.473 116.908 396.644 116.398 397 116.007C397.355 115.61 397.869 115.404 398.539 115.389C399.363 115.37 399.945 115.624 400.287 116.152C400.634 116.68 400.82 117.473 400.845 118.531C400.862 119.273 400.808 119.886 400.684 120.371C400.566 120.857 400.351 121.229 400.039 121.49C399.733 121.75 399.306 121.886 398.759 121.899C398.159 121.912 397.688 121.761 397.345 121.446C397.003 121.13 396.802 120.722 396.743 120.223L397.485 120.206ZM398.699 118.89C399.093 118.881 399.414 118.753 399.661 118.506C399.908 118.253 400.027 117.918 400.018 117.5C400.008 117.059 399.876 116.706 399.623 116.441C399.369 116.176 399.019 116.049 398.572 116.059C398.16 116.068 397.834 116.205 397.593 116.47C397.358 116.734 397.245 117.078 397.255 117.502C397.265 117.931 397.393 118.272 397.64 118.526C397.887 118.779 398.24 118.9 398.699 118.89Z" fill="#11002A"/>
<rect x="421.492" y="101.591" width="34.6707" height="33.5417" rx="4.72782" transform="rotate(-1.31645 421.492 101.591)" fill="white"/>
<rect x="421.492" y="101.591" width="34.6707" height="33.5417" rx="4.72782" transform="rotate(-1.31645 421.492 101.591)" stroke="#F2F4F7" stroke-width="0.630376"/>
<path d="M434.984 115.407L434.967 114.675L436.626 114.637L436.773 121.016L435.961 121.035L435.831 115.388L434.984 115.407ZM438.077 117.729C438.054 116.717 438.2 115.925 438.517 115.353C438.833 114.775 439.403 114.476 440.226 114.457C441.044 114.438 441.624 114.71 441.966 115.273C442.309 115.831 442.492 116.615 442.515 117.627C442.538 118.656 442.392 119.46 442.076 120.038C441.76 120.616 441.193 120.914 440.375 120.933C439.552 120.952 438.969 120.68 438.626 120.117C438.284 119.554 438.101 118.758 438.077 117.729ZM441.721 117.645C441.709 117.133 441.664 116.702 441.585 116.35C441.512 115.993 441.367 115.708 441.151 115.495C440.94 115.282 440.637 115.18 440.243 115.189C439.843 115.199 439.54 115.315 439.333 115.537C439.132 115.759 439.001 116.051 438.938 116.411C438.882 116.766 438.859 117.199 438.871 117.71C438.883 118.24 438.926 118.683 438.999 119.04C439.077 119.398 439.222 119.683 439.433 119.896C439.65 120.108 439.958 120.21 440.358 120.201C440.752 120.192 441.05 120.076 441.251 119.854C441.457 119.631 441.589 119.34 441.645 118.98C441.708 118.619 441.733 118.174 441.721 117.645Z" fill="#11002A"/>
<path d="M24.3226 159.632L23.705 159.646L20.1713 154.537L20.2905 159.725L19.6729 159.739L19.5312 153.572L20.1488 153.558L23.6823 158.658L23.5632 153.479L24.1808 153.465L24.3226 159.632ZM27.8317 159.622C27.3788 159.632 26.9677 159.542 26.5984 159.35C26.2349 159.153 25.943 158.871 25.7227 158.505C25.5082 158.134 25.3952 157.698 25.3837 157.198C25.3722 156.698 25.4681 156.26 25.6714 155.885C25.8745 155.503 26.156 155.209 26.5161 155C26.8761 154.786 27.2825 154.674 27.7354 154.663C28.1883 154.653 28.5995 154.746 28.9689 154.944C29.3441 155.135 29.6389 155.417 29.8534 155.789C30.0737 156.154 30.1896 156.587 30.2011 157.087C30.2124 157.581 30.1165 158.019 29.9134 158.4C29.7103 158.781 29.4259 159.079 29.06 159.294C28.6941 159.502 28.2846 159.612 27.8317 159.622ZM27.8194 159.084C28.137 159.077 28.4295 158.999 28.6968 158.852C28.964 158.699 29.1766 158.476 29.3347 158.184C29.4985 157.886 29.5755 157.525 29.5658 157.102C29.5561 156.678 29.4656 156.324 29.2942 156.04C29.1228 155.749 28.9001 155.537 28.6263 155.402C28.3524 155.261 28.0566 155.194 27.739 155.202C27.4213 155.209 27.1289 155.289 26.8617 155.442C26.5944 155.59 26.3818 155.812 26.2239 156.11C26.0717 156.402 26.0004 156.76 26.0102 157.183C26.0199 157.607 26.1075 157.964 26.2731 158.254C26.4444 158.539 26.6641 158.751 26.9322 158.892C27.206 159.027 27.5017 159.091 27.8194 159.084ZM32.0864 155.155L32.1551 158.146C32.1619 158.44 32.2224 158.641 32.3367 158.751C32.4511 158.86 32.6494 158.911 32.9317 158.905L33.4964 158.892L33.5086 159.421L32.8468 159.436C32.4116 159.446 32.0858 159.354 31.8694 159.159C31.6529 158.958 31.5394 158.625 31.5287 158.16L31.46 155.169L30.7894 155.184L30.7774 154.664L31.448 154.648L31.4202 153.44L32.0466 153.425L32.0744 154.634L33.3979 154.604L33.4098 155.124L32.0864 155.155ZM37.4158 152.799L37.5659 159.328L36.9483 159.342L36.7982 152.813L37.4158 152.799ZM39.1417 153.562C39.0181 153.565 38.9113 153.524 38.821 153.437C38.7307 153.351 38.6841 153.243 38.6811 153.114C38.6782 152.985 38.7199 152.878 38.8062 152.793C38.8924 152.703 38.9973 152.657 39.1208 152.654C39.2443 152.651 39.3512 152.693 39.4414 152.779C39.5316 152.859 39.5781 152.964 39.5811 153.093C39.5841 153.223 39.5424 153.333 39.4562 153.423C39.37 153.513 39.2652 153.56 39.1417 153.562ZM39.4713 154.464L39.5821 159.281L38.9644 159.296L38.8537 154.478L39.4713 154.464ZM43.5834 159.189L41.5486 157.073L41.5982 159.235L40.9806 159.249L40.8306 152.72L41.4482 152.706L41.537 156.571L43.4286 154.373L44.2932 154.353L42.0632 156.806L44.4216 159.17L43.5834 159.189ZM49.5173 156.396C49.5221 156.608 49.52 156.77 49.5108 156.882L45.514 156.974C45.54 157.338 45.6354 157.648 45.8002 157.903C45.9649 158.158 46.1783 158.35 46.4402 158.479C46.702 158.603 46.9858 158.661 47.2916 158.654C47.6916 158.645 48.0247 158.54 48.2908 158.34C48.5628 158.139 48.7391 157.873 48.8197 157.542L49.4726 157.527C49.3658 158 49.1217 158.391 48.7404 158.7C48.3649 159.003 47.8859 159.161 47.3036 159.175C46.8507 159.185 46.4425 159.094 46.0791 158.903C45.7156 158.705 45.4267 158.423 45.2123 158.057C45.0036 157.686 44.8936 157.25 44.8821 156.75C44.8706 156.25 44.9605 155.809 45.1519 155.428C45.3432 155.047 45.616 154.753 45.9702 154.544C46.3244 154.336 46.7309 154.227 47.1897 154.216C47.6485 154.206 48.0507 154.296 48.3965 154.489C48.7481 154.681 49.019 154.945 49.2092 155.282C49.4051 155.613 49.5078 155.984 49.5173 156.396ZM48.8904 156.393C48.8881 156.034 48.8075 155.73 48.6488 155.48C48.4959 155.231 48.2886 155.044 48.0268 154.921C47.765 154.797 47.4812 154.739 47.1754 154.746C46.7166 154.757 46.3288 154.913 46.012 155.214C45.6953 155.516 45.5254 155.935 45.5024 156.471L48.8904 156.393ZM51.1758 152.483L51.3259 159.012L50.7083 159.026L50.5582 152.497L51.1758 152.483ZM56.5841 154.071L53.8882 161.221L53.2442 161.236L54.1267 158.921L52.0402 154.175L52.7196 154.16L54.4552 158.233L55.9488 154.085L56.5841 154.071ZM59.6155 156.402C59.6042 155.908 59.6913 155.474 59.8769 155.099C60.0682 154.718 60.3351 154.423 60.6775 154.215C61.0257 154.001 61.4204 153.889 61.8615 153.879C62.3203 153.868 62.7168 153.965 63.0511 154.169C63.3912 154.373 63.6386 154.638 63.7932 154.964L63.7689 153.906L64.3865 153.892L64.4972 158.709L63.8796 158.723L63.8551 157.655C63.7097 157.988 63.4719 158.268 63.1416 158.493C62.8171 158.712 62.4254 158.827 61.9666 158.838C61.5314 158.848 61.1349 158.754 60.7773 158.556C60.4255 158.358 60.1453 158.073 59.9367 157.701C59.7339 157.329 59.6269 156.896 59.6155 156.402ZM63.8243 156.314C63.8153 155.926 63.7281 155.587 63.5625 155.296C63.3969 155.006 63.1741 154.785 62.894 154.632C62.6198 154.479 62.318 154.407 61.9886 154.415C61.6474 154.422 61.3433 154.506 61.0763 154.665C60.8092 154.824 60.5997 155.053 60.4476 155.35C60.3013 155.642 60.2327 155.988 60.2419 156.388C60.251 156.782 60.3354 157.127 60.4953 157.424C60.6608 157.714 60.8807 157.936 61.1549 158.088C61.429 158.235 61.7366 158.304 62.0778 158.297C62.4072 158.289 62.7053 158.203 62.9723 158.038C63.2451 157.873 63.4575 157.641 63.6096 157.343C63.7616 157.046 63.8332 156.703 63.8243 156.314ZM66.6113 154.361L66.68 157.352C66.6868 157.646 66.7473 157.848 66.8617 157.957C66.976 158.066 67.1743 158.118 67.4566 158.111L68.0213 158.098L68.0335 158.628L67.3718 158.643C66.9365 158.653 66.6107 158.56 66.3943 158.365C66.1779 158.164 66.0643 157.831 66.0536 157.367L65.9849 154.376L65.3143 154.391L65.3024 153.871L65.9729 153.855L65.9451 152.646L66.5716 152.632L66.5993 153.841L67.9228 153.81L67.9347 154.331L66.6113 154.361ZM71.1353 156.138C71.1239 155.643 71.2111 155.209 71.3967 154.834C71.588 154.453 71.8549 154.158 72.1973 153.95C72.5455 153.736 72.9402 153.624 73.3813 153.614C73.8401 153.604 74.2366 153.7 74.5709 153.905C74.911 154.109 75.1584 154.374 75.313 154.7L75.2887 153.641L75.9063 153.627L76.017 158.444L75.3994 158.458L75.3749 157.391C75.2295 157.724 74.9917 158.003 74.6614 158.228C74.3369 158.447 73.9452 158.562 73.4864 158.573C73.0512 158.583 72.6547 158.489 72.2971 158.291C71.9453 158.093 71.6651 157.809 71.4565 157.437C71.2537 157.065 71.1467 156.632 71.1353 156.138ZM75.344 156.05C75.3351 155.661 75.2479 155.322 75.0823 155.032C74.9167 154.741 74.6939 154.52 74.4138 154.367C74.1396 154.215 73.8378 154.142 73.5084 154.15C73.1672 154.158 72.8631 154.241 72.5961 154.4C72.329 154.559 72.1195 154.788 71.9674 155.086C71.8211 155.377 71.7525 155.723 71.7617 156.123C71.7708 156.517 71.8552 156.863 72.015 157.159C72.1806 157.449 72.4005 157.671 72.6747 157.824C72.9488 157.97 73.2564 158.04 73.5976 158.032C73.927 158.024 74.2251 157.938 74.4921 157.773C74.7649 157.608 74.9773 157.376 75.1293 157.079C75.2814 156.781 75.353 156.438 75.344 156.05ZM77.8945 151.869L78.0446 158.398L77.4269 158.412L77.2769 151.883L77.8945 151.869ZM79.9107 151.822L80.0607 158.351L79.4431 158.365L79.2931 151.836L79.9107 151.822Z" fill="#8094AE"/>
<path d="M393.804 145.474L393.857 147.777L396.195 147.724L396.207 148.235L393.869 148.289L393.922 150.627L396.525 150.567L396.537 151.079L393.316 151.153L393.175 144.977L396.395 144.903L396.407 145.415L393.804 145.474ZM400.277 150.993L398.988 149.081L397.833 151.049L397.18 151.064L398.678 148.62L397.087 146.246L397.784 146.23L399.055 148.117L400.202 146.175L400.846 146.16L399.365 148.578L400.974 150.977L400.277 150.993ZM402.516 146.643L402.585 149.634C402.592 149.928 402.652 150.129 402.766 150.238C402.881 150.348 403.079 150.399 403.361 150.393L403.926 150.38L403.938 150.909L403.277 150.924C402.841 150.934 402.516 150.842 402.299 150.646C402.083 150.445 401.969 150.113 401.958 149.648L401.89 146.657L401.219 146.672L401.207 146.152L401.878 146.136L401.85 144.928L402.476 144.913L402.504 146.122L403.828 146.092L403.84 146.612L402.516 146.643ZM405.483 146.91C405.612 146.607 405.812 146.37 406.085 146.199C406.364 146.027 406.706 145.937 407.112 145.928L407.126 146.572L406.959 146.576C406.512 146.586 406.156 146.715 405.891 146.962C405.626 147.21 405.5 147.616 405.513 148.18L405.574 150.871L404.957 150.886L404.846 146.068L405.464 146.054L405.483 146.91ZM412.451 148.056C412.456 148.268 412.454 148.43 412.444 148.542L408.448 148.634C408.474 148.998 408.569 149.308 408.734 149.563C408.899 149.818 409.112 150.01 409.374 150.14C409.636 150.263 409.919 150.321 410.225 150.314C410.625 150.305 410.958 150.2 411.224 150C411.496 149.8 411.673 149.534 411.753 149.202L412.406 149.187C412.299 149.66 412.055 150.051 411.674 150.36C411.299 150.663 410.82 150.821 410.237 150.835C409.784 150.845 409.376 150.755 409.013 150.563C408.649 150.365 408.36 150.083 408.146 149.718C407.937 149.346 407.827 148.91 407.816 148.41C407.804 147.91 407.894 147.469 408.086 147.088C408.277 146.707 408.55 146.413 408.904 146.204C409.258 145.996 409.665 145.887 410.123 145.876C410.582 145.866 410.984 145.957 411.33 146.149C411.682 146.341 411.953 146.605 412.143 146.942C412.339 147.273 412.441 147.644 412.451 148.056ZM411.824 148.053C411.822 147.694 411.741 147.39 411.582 147.14C411.43 146.891 411.222 146.704 410.96 146.581C410.699 146.457 410.415 146.399 410.109 146.406C409.65 146.417 409.262 146.573 408.946 146.874C408.629 147.176 408.459 147.595 408.436 148.131L411.824 148.053ZM419.264 145.649C419.829 145.636 420.292 145.804 420.653 146.155C421.02 146.5 421.211 147.01 421.227 147.687L421.291 150.51L420.683 150.524L420.619 147.771C420.607 147.248 420.472 146.851 420.212 146.58C419.953 146.31 419.606 146.179 419.171 146.189C418.718 146.2 418.359 146.358 418.096 146.664C417.832 146.97 417.707 147.409 417.72 147.979L417.78 150.591L417.171 150.605L417.108 147.852C417.096 147.329 416.96 146.932 416.701 146.661C416.442 146.39 416.091 146.26 415.65 146.27C415.197 146.281 414.839 146.439 414.575 146.745C414.312 147.051 414.186 147.49 414.2 148.06L414.26 150.672L413.642 150.686L413.531 145.869L414.149 145.854L414.168 146.684C414.314 146.38 414.526 146.149 414.805 145.989C415.084 145.824 415.397 145.737 415.744 145.729C416.161 145.72 416.528 145.811 416.845 146.004C417.167 146.197 417.403 146.486 417.553 146.871C417.674 146.485 417.888 146.189 418.195 145.982C418.508 145.769 418.864 145.658 419.264 145.649ZM426.961 147.723C426.965 147.935 426.963 148.096 426.954 148.208L422.957 148.3C422.983 148.665 423.079 148.974 423.243 149.229C423.408 149.485 423.622 149.677 423.883 149.806C424.145 149.93 424.429 149.988 424.735 149.981C425.135 149.972 425.468 149.867 425.734 149.667C426.006 149.466 426.182 149.2 426.263 148.869L426.916 148.854C426.809 149.327 426.565 149.718 426.184 150.027C425.808 150.33 425.329 150.488 424.747 150.501C424.294 150.512 423.886 150.421 423.522 150.229C423.159 150.032 422.87 149.75 422.656 149.384C422.447 149.012 422.337 148.576 422.325 148.076C422.314 147.576 422.404 147.136 422.595 146.755C422.786 146.374 423.059 146.079 423.413 145.871C423.768 145.663 424.174 145.553 424.633 145.543C425.092 145.532 425.494 145.623 425.84 145.815C426.191 146.007 426.462 146.272 426.652 146.609C426.848 146.94 426.951 147.311 426.961 147.723ZM426.334 147.72C426.331 147.361 426.251 147.056 426.092 146.807C425.939 146.557 425.732 146.371 425.47 146.247C425.208 146.124 424.924 146.066 424.619 146.073C424.16 146.083 423.772 146.239 423.455 146.541C423.139 146.842 422.969 147.261 422.946 147.797L426.334 147.72ZM428.619 143.809L428.769 150.338L428.152 150.352L428.002 143.824L428.619 143.809ZM434.027 145.398L431.332 152.548L430.687 152.563L431.57 150.247L429.484 145.502L430.163 145.486L431.898 149.56L433.392 145.412L434.027 145.398ZM437.864 143.597L438.014 150.126L437.397 150.14L437.247 143.611L437.864 143.597ZM439.59 144.361C439.467 144.363 439.36 144.322 439.269 144.235C439.179 144.149 439.133 144.041 439.13 143.912C439.127 143.783 439.168 143.676 439.255 143.591C439.341 143.501 439.446 143.455 439.569 143.452C439.693 143.449 439.8 143.491 439.89 143.577C439.98 143.657 440.027 143.762 440.029 143.891C440.032 144.021 439.991 144.131 439.905 144.221C439.818 144.311 439.714 144.358 439.59 144.361ZM439.92 145.262L440.03 150.08L439.413 150.094L439.302 145.276L439.92 145.262ZM444.032 149.988L441.997 147.872L442.047 150.033L441.429 150.047L441.279 143.518L441.897 143.504L441.985 147.369L443.877 145.171L444.742 145.151L442.512 147.604L444.87 149.968L444.032 149.988ZM449.966 147.194C449.971 147.406 449.968 147.568 449.959 147.68L445.962 147.772C445.988 148.136 446.084 148.446 446.249 148.701C446.413 148.956 446.627 149.148 446.889 149.277C447.15 149.401 447.434 149.459 447.74 149.452C448.14 149.443 448.473 149.338 448.739 149.138C449.011 148.937 449.187 148.671 449.268 148.34L449.921 148.325C449.814 148.798 449.57 149.189 449.189 149.498C448.813 149.801 448.334 149.959 447.752 149.973C447.299 149.983 446.891 149.892 446.528 149.701C446.164 149.503 445.875 149.221 445.661 148.856C445.452 148.484 445.342 148.048 445.33 147.548C445.319 147.048 445.409 146.607 445.6 146.226C445.792 145.845 446.064 145.551 446.419 145.342C446.773 145.134 447.179 145.025 447.638 145.014C448.097 145.004 448.499 145.094 448.845 145.287C449.197 145.479 449.467 145.743 449.658 146.08C449.854 146.411 449.956 146.782 449.966 147.194ZM449.339 147.191C449.336 146.832 449.256 146.528 449.097 146.278C448.944 146.029 448.737 145.842 448.475 145.719C448.213 145.595 447.93 145.537 447.624 145.544C447.165 145.555 446.777 145.711 446.46 146.012C446.144 146.314 445.974 146.733 445.951 147.269L449.339 147.191ZM451.624 143.281L451.774 149.81L451.157 149.824L451.007 143.295L451.624 143.281ZM457.032 144.869L454.337 152.019L453.693 152.034L454.575 149.719L452.489 144.973L453.168 144.958L454.904 149.032L456.397 144.884L457.032 144.869Z" fill="#8094AE"/>
</svg>
