<svg width="30" height="23" viewBox="0 0 30 23" fill="none" xmlns="http://www.w3.org/2000/svg">
<g clip-path="url(#clip0_1_14042)">
<rect y="0.519531" width="30" height="21.8182" rx="2.72727" fill="#249F58"/>
<path fill-rule="evenodd" clip-rule="evenodd" d="M22.8573 15.0652V13.6106H7.14306L10.0002 15.0652H18.5716C18.5716 15.8681 19.5316 16.5197 20.7145 16.5197C21.8973 16.5197 22.8573 15.8681 22.8573 15.0652ZM12.4716 6.20117C12.4545 6.20117 12.4288 6.2099 12.3959 6.23026C12.3188 6.28263 12.1673 6.44408 12.1616 6.63026C12.1573 6.73645 12.1373 6.73644 12.2045 6.80481C12.2531 6.87463 12.3045 6.86881 12.4016 6.81499C12.4588 6.77135 12.4773 6.74663 12.4973 6.67535C12.5202 6.55899 12.3731 6.73354 12.3545 6.59972C12.3216 6.47754 12.4159 6.42517 12.5045 6.30881C12.5073 6.25063 12.5073 6.20699 12.4716 6.20408V6.20117ZM13.9045 6.20844C13.8759 6.21426 13.8431 6.25208 13.7959 6.33644C13.7631 6.42663 13.6188 6.56335 13.7245 6.84554C13.8073 7.02444 13.8431 7.3139 13.8045 7.63826C13.7445 7.7299 13.7331 7.7619 13.6545 7.85354C13.5459 7.97426 13.4259 7.94372 13.3373 7.89717C13.2516 7.83899 13.1859 7.8099 13.1473 7.62663C13.1545 7.33572 13.1716 6.85281 13.1188 6.75099C13.0416 6.5939 12.9131 6.64917 12.8588 6.69717C12.5973 6.94445 12.4673 7.35608 12.3873 7.68626C12.3159 7.92481 12.2373 7.85499 12.1831 7.75899C12.0502 7.63099 12.0402 6.63899 11.8802 6.80335C11.6231 7.55099 12.0273 8.3699 12.3088 8.2899C12.5088 8.37717 12.6373 7.98444 12.7202 7.55535C12.7773 7.43463 12.8202 7.42008 12.8488 7.48263C12.8416 8.05281 12.8916 8.18081 13.0345 8.35244C13.3545 8.60554 13.6202 8.38444 13.6416 8.36408L13.8916 8.11099C13.9488 8.05281 14.0202 8.04699 14.0988 8.09935C14.1759 8.17208 14.1659 8.29281 14.3273 8.37572C14.4673 8.4339 14.7602 8.39026 14.8273 8.26954C14.9202 8.10954 14.9416 8.05426 14.9845 7.99317C15.0502 7.9059 15.1631 7.94517 15.1631 7.97281C15.1531 8.02372 15.0873 8.07463 15.1316 8.1619C15.2102 8.22008 15.2288 8.18226 15.2745 8.16917C15.4373 8.09063 15.5602 7.7299 15.5602 7.7299C15.5673 7.59608 15.4931 7.60626 15.4459 7.6339C15.3816 7.67317 15.3788 7.68626 15.3173 7.72554C15.2359 7.73717 15.0816 7.79099 15.0059 7.67026C14.9273 7.52481 14.9273 7.32408 14.8673 7.17572C14.8673 7.16699 14.7631 6.94735 14.8588 6.93426C14.9059 6.94299 15.0116 6.97063 15.0273 6.8819C15.0788 6.79463 14.9173 6.54735 14.8073 6.42517C14.7131 6.31899 14.5816 6.3059 14.4545 6.41354C14.3645 6.4979 14.3788 6.59099 14.3602 6.67972C14.3388 6.78154 14.3431 6.90808 14.4459 7.04335C14.5345 7.22081 14.6959 7.45063 14.6416 7.77354C14.6416 7.77354 14.5488 7.92772 14.3845 7.90735C14.3131 7.89281 14.2016 7.86372 14.1416 7.41281C14.0988 7.0739 14.1531 6.59826 14.0131 6.37572C13.9802 6.29281 13.9531 6.21135 13.9073 6.21572L13.9045 6.20844ZM13.4502 6.24626C13.4073 6.25063 13.3602 6.30154 13.3216 6.39899C13.2888 6.47463 13.2473 6.86444 13.2545 6.86444C13.2259 6.98081 13.3731 7.03026 13.4402 6.8819C13.5402 6.60554 13.5402 6.48917 13.5459 6.37572C13.5316 6.28844 13.4931 6.24481 13.4502 6.24772V6.24626ZM15.1259 6.27535C15.0831 6.28117 15.0473 6.30735 15.0345 6.37426C15.0159 6.52844 15.0259 6.61426 15.0516 6.74372C15.0702 6.83099 15.1945 6.97354 15.2545 7.0579C15.5445 7.45499 15.8259 7.85354 16.0945 8.26517C16.1373 8.57354 16.1659 8.87317 16.1873 9.17281C16.2331 9.82735 16.2445 10.6419 16.2059 11.3328C16.3259 11.3372 16.5202 11.1335 16.5873 10.8383C16.6302 10.4252 16.5731 9.58735 16.5673 9.34299L16.5531 8.99681C16.8673 9.52044 17.1702 10.0732 17.4673 10.6783C17.5773 10.6259 17.5531 10.0019 17.4902 9.91463C17.2502 9.39099 16.9188 8.87317 16.8145 8.6739C16.7759 8.60117 16.6459 8.4019 16.4931 8.17063C16.4645 7.83899 16.4331 7.55972 16.4131 7.47535C16.3631 7.12626 16.5531 7.51463 16.5273 7.31244C16.4645 6.96335 16.2759 6.72772 16.0531 6.40772C15.9816 6.3059 15.9816 6.28263 15.8716 6.4339C15.8073 6.58663 15.8073 6.71463 15.8288 6.8339C15.7973 6.79026 15.7616 6.74081 15.7102 6.67681L15.3459 6.36263C15.2959 6.32626 15.1988 6.27099 15.1259 6.27535ZM20.0916 6.32917C20.0702 6.32626 20.0488 6.33644 20.0202 6.37572C19.9702 6.41935 19.9173 6.50226 19.9202 6.60844C19.9302 6.79026 19.9631 6.9779 19.9745 7.16117L19.9888 7.2339C19.9688 7.21063 19.9516 7.19026 19.9416 7.18154C19.5888 6.80335 20.1031 7.11754 19.8731 6.82808C19.6802 6.6099 19.6231 6.54299 19.4588 6.41208C19.3731 6.35972 19.3245 6.25499 19.2973 6.43244C19.2859 6.58808 19.2745 6.7699 19.2831 6.90081C19.2831 6.97354 19.3588 7.11172 19.4231 7.19172C19.6573 7.48699 19.8973 7.79972 20.1373 8.12554C20.1888 8.79026 20.2016 9.39972 20.2516 10.0659C20.2459 10.351 20.1602 10.7292 20.0802 10.7641C20.0802 10.7641 19.9545 10.8368 19.8716 10.7568C19.8102 10.7321 19.5688 10.3452 19.5688 10.3452C19.4445 10.2288 19.3616 10.2623 19.2745 10.3452C19.0316 10.5837 18.9202 11.0317 18.7559 11.3401C18.7131 11.4084 18.5945 11.4681 18.4616 11.3343C18.1231 10.863 18.3188 10.1924 18.2788 10.3655C17.9788 10.7117 18.1102 11.2848 18.1788 11.4084C18.2788 11.6121 18.3588 11.743 18.5502 11.8404C18.7288 11.9714 18.8645 11.8914 18.9416 11.7968C19.1188 11.6106 19.1216 11.1321 19.2045 11.0375C19.2616 10.863 19.4088 10.8921 19.4802 10.9706C19.5516 11.0724 19.6316 11.1379 19.7331 11.1932C19.8988 11.3415 20.0959 11.3677 20.2902 11.2324C20.4231 11.1568 20.5102 11.0579 20.5873 10.863C20.6731 10.6361 20.6302 9.44335 20.6116 8.78008L20.9831 9.32699C21.0345 9.90881 21.0588 10.4834 21.0402 11.0332C21.0288 11.1423 21.4159 10.7074 21.4116 10.5008C21.4116 10.3219 21.4145 10.1575 21.4116 10.0063C21.6016 10.3117 21.7831 10.6215 21.9545 10.9372C22.0616 10.879 22.0259 10.2637 21.9588 10.1808C21.7788 9.87244 21.5473 9.54081 21.3688 9.2819C21.3331 8.95754 21.2859 8.57499 21.2631 8.45717C21.2302 8.2739 21.1959 7.99899 21.1445 7.78226C21.1302 7.69935 21.0873 7.42881 21.1016 7.40408C21.1216 7.34154 21.2016 7.40408 21.2402 7.33426C21.2973 7.26881 21.0373 6.5779 20.9045 6.38299C20.8573 6.29572 20.7702 6.32481 20.6645 6.47026C20.5645 6.56335 20.6016 6.77863 20.6388 6.98372C20.7359 7.50735 20.8245 8.03681 20.8931 8.56917C20.7645 8.37281 20.6073 8.13717 20.4531 7.91172L20.4331 7.8099C20.4331 7.79826 20.4131 7.38081 20.3945 7.2819C20.3902 7.24117 20.3802 7.22954 20.4231 7.23535C20.4659 7.27317 20.4716 7.27463 20.4988 7.28772C20.5445 7.29354 20.5845 7.2179 20.5559 7.14663L20.1416 6.3699C20.1273 6.35099 20.1073 6.33354 20.0845 6.33063L20.0916 6.32917ZM7.27734 6.34372C7.19877 6.34081 7.11592 6.38735 7.14877 6.4819C7.12877 6.53281 7.29735 6.70444 7.32735 6.79899C7.35163 6.86735 7.29877 7.08263 7.35592 7.10444C7.40592 7.12626 7.47592 6.95317 7.50163 6.79463C7.51592 6.70735 7.50592 6.40772 7.30592 6.34663C7.29592 6.34372 7.28592 6.34372 7.27449 6.34226L7.27734 6.34372ZM21.8773 6.34372C21.8588 6.34663 21.8373 6.37281 21.8059 6.44554C21.7273 6.57644 21.7002 6.80917 21.7316 7.01281C21.9173 8.30735 22.0602 9.56117 22.0888 10.7074C22.0716 10.8179 22.0659 10.8761 22.0173 11.0128C21.9059 11.1583 21.7831 11.3386 21.6673 11.4259C21.5531 11.5132 21.3073 11.5975 21.2273 11.6615C20.9702 11.8099 20.9702 11.9815 21.1759 11.9888C21.5302 11.9452 21.9502 11.9161 22.2388 11.4724C22.3159 11.3488 22.4073 11.0114 22.4102 10.8034C22.4388 9.59608 22.3959 8.41063 22.2173 7.53644C22.2059 7.44917 22.1688 7.25572 22.1831 7.23099C22.2045 7.1699 22.3202 7.23535 22.3616 7.16699C22.4231 7.10299 22.0616 6.63317 21.9359 6.43244C21.9102 6.38299 21.8931 6.34081 21.8731 6.34517L21.8773 6.34372ZM18.1588 6.36408C18.1445 6.36699 18.1245 6.39026 18.0845 6.44408C17.9845 6.77281 17.9502 7.04044 17.9888 7.24699C18.2459 8.59972 18.5031 9.82881 18.4631 11.1161C18.5831 11.1161 18.7231 10.8354 18.7831 10.5561C18.8159 10.1706 18.7602 9.93644 18.7516 9.71244C18.7416 9.48554 18.5002 7.65281 18.4516 7.48263C18.3916 7.15972 18.6859 7.43899 18.6545 7.25281C18.5516 7.01426 18.2973 6.67099 18.2202 6.46299C18.1916 6.40772 18.1859 6.35681 18.1631 6.36117L18.1588 6.36408ZM9.1102 6.39026C9.08163 6.39608 9.04877 6.42226 9.03877 6.46299C9.03163 6.49208 9.0502 6.54008 9.02449 6.55463C9.0102 6.56917 8.95592 6.55899 8.95877 6.4819C8.95877 6.45572 8.9402 6.42954 8.9302 6.41354C8.91877 6.40772 8.91163 6.40626 8.89163 6.40626C8.86735 6.40626 8.86735 6.41354 8.85449 6.43535C8.84877 6.45572 8.8402 6.47608 8.8402 6.49935C8.83735 6.52844 8.82592 6.53572 8.80734 6.54008C8.78449 6.54008 8.78877 6.54299 8.77163 6.5299C8.75734 6.51972 8.74592 6.51535 8.74592 6.49499C8.74592 6.47317 8.7402 6.43681 8.73449 6.42517C8.72449 6.41063 8.70877 6.40481 8.69163 6.40045C8.59735 6.40045 8.59163 6.5139 8.59592 6.55463C8.58877 6.56335 8.58592 6.75826 8.71449 6.81354C8.88592 6.8979 9.21163 6.86154 9.2002 6.5779C9.2002 6.55317 9.19306 6.46881 9.1902 6.44699C9.17306 6.40335 9.1402 6.38881 9.10877 6.39317L9.1102 6.39026ZM11.4331 6.39317C11.3731 6.39608 11.3188 6.41354 11.2759 6.43681C11.1616 6.54881 11.1331 6.72772 11.2245 6.83972C11.3102 6.88335 11.4002 6.97063 11.3416 7.02154C11.0931 7.29063 10.4459 7.74299 10.4131 7.8259V7.83463H10.4188V7.83754C10.4516 7.85935 10.8573 7.85935 10.9016 7.83754H10.9045C11.0445 7.78372 11.7045 7.01572 11.7045 7.01572C11.6702 6.98663 11.6388 6.96335 11.6045 6.93281C11.5673 6.90081 11.5716 6.86881 11.6045 6.83681C11.7673 6.74081 11.7159 6.52699 11.6302 6.42954C11.5588 6.39754 11.4931 6.3859 11.4331 6.39026V6.39317ZM17.5045 6.39317C17.4873 6.39754 17.4659 6.42226 17.4331 6.49499C17.3545 6.6259 17.3016 6.85135 17.3088 7.06226C17.4773 8.25499 17.5288 9.2979 17.6402 10.4906C17.6488 10.607 17.6316 10.7728 17.5573 10.8397C17.2773 11.1364 16.8759 11.5001 16.4388 11.6688C16.3916 11.7226 16.5559 11.951 16.7673 11.951C17.1216 11.9074 17.4331 11.7066 17.7245 11.1728C17.8002 11.0492 17.9359 10.783 17.9388 10.5764C17.9673 9.36626 17.8816 8.42372 17.7016 7.55099C17.6916 7.46372 17.6988 7.3619 17.7131 7.33863C17.7359 7.30954 17.8131 7.33863 17.8559 7.27026C17.9159 7.20626 17.6931 6.68408 17.5673 6.48481C17.5416 6.4339 17.5273 6.39317 17.5045 6.39463V6.39317ZM8.09877 6.43244C8.0502 6.43826 8.00449 6.47608 7.98163 6.53426C7.97449 6.72335 7.97306 6.91245 7.99592 7.0899C8.08163 7.39972 8.10592 7.67172 8.14735 7.98735C8.16163 8.41208 7.90735 8.17063 7.91877 7.96117C7.97592 7.68772 7.96163 7.25863 7.9102 7.14954C7.86735 7.04044 7.82163 7.01426 7.72163 7.03317C7.64306 7.02735 7.43877 7.25135 7.38163 7.62954C7.38163 7.62954 7.33306 7.82154 7.31306 7.99317C7.28449 8.18663 7.15877 8.32481 7.0702 7.96699C6.99449 7.70517 6.94877 7.06517 6.82163 7.21354C6.78449 7.7139 6.74163 8.59535 7.15877 8.68554C7.66449 8.73499 7.38449 7.81572 7.56734 7.64844C7.60306 7.56844 7.66734 7.56699 7.67163 7.67026V8.45135C7.66592 8.70444 7.82877 8.78008 7.95735 8.83244C8.0902 8.82226 8.17735 8.82663 8.22877 8.95754L8.29306 10.3103C8.29306 10.3103 8.59877 10.3975 8.61306 9.54954C8.62734 9.05063 8.51306 8.63317 8.5802 8.53572C8.58306 8.43972 8.70306 8.4339 8.78592 8.4819C8.91877 8.57644 8.97734 8.69281 9.18306 8.64626C9.49734 8.55899 9.68306 8.40481 9.68735 8.16044C9.67306 7.92772 9.64449 7.69499 9.54449 7.46226C9.55877 7.42154 9.48735 7.31244 9.50163 7.27026C9.55592 7.35754 9.64163 7.35172 9.65877 7.27026C9.60735 7.09135 9.52449 6.92117 9.3902 6.84844C9.2802 6.74663 9.11877 6.76845 9.05877 6.97499C9.0302 7.21354 9.14449 7.49572 9.31592 7.72699C9.3502 7.81717 9.40163 7.96699 9.37877 8.10226C9.28877 8.15463 9.19877 8.13135 9.12163 8.05135C9.12163 8.05135 8.87449 7.86226 8.87449 7.81863C8.94163 7.38954 8.88877 7.33863 8.85306 7.22226C8.82735 7.05644 8.7502 7.00408 8.68877 6.89063C8.62592 6.82226 8.54163 6.82226 8.50306 6.89063C8.39163 7.08408 8.44306 7.50154 8.52306 7.68626C8.5802 7.8579 8.66877 7.96554 8.62735 7.96554C8.59306 8.06008 8.52163 8.03826 8.4702 7.92626C8.39877 7.69354 8.38163 7.35026 8.38163 7.19463C8.3602 7.00263 8.33592 6.59099 8.2102 6.48626C8.17735 6.43972 8.13877 6.42372 8.1002 6.42808L8.09877 6.43244ZM9.87306 6.43244C9.84877 6.43826 9.8202 6.45281 9.78734 6.46154C9.6802 6.49499 9.5802 6.58954 9.61163 6.77281C9.7402 7.55826 9.82163 8.15899 9.94877 8.94444C9.96735 9.03754 9.89163 9.15826 9.79449 9.14808C9.62877 9.03172 9.58735 8.79899 9.30449 8.81063C9.09877 8.81063 8.86449 9.04044 8.83592 9.25863C8.80163 9.43317 8.7902 9.62226 8.83592 9.77354C8.97877 9.94808 9.15306 9.93063 9.30449 9.8899C9.42877 9.83899 9.53306 9.71535 9.57592 9.74444C9.60449 9.79244 9.57306 10.2012 8.9902 10.5154C8.6302 10.6812 8.34449 10.719 8.1902 10.4223C8.09592 10.2361 8.19877 9.52626 7.96449 9.68917C7.2702 11.5103 9.58877 11.7634 9.84735 9.76481C9.86449 9.70663 9.91449 9.65135 9.95163 9.6659C9.96592 9.67317 9.9802 9.69499 9.98592 9.73572C9.93163 11.5452 8.19163 11.6703 7.89734 11.1001C7.82306 10.9663 7.80163 10.6666 7.79449 10.4892C7.7802 10.3801 7.75449 10.3175 7.72306 10.2928C7.65163 10.239 7.55735 10.3801 7.53734 10.623C7.50877 10.8194 7.51592 10.8732 7.51592 11.0623C7.6102 12.4921 9.84877 11.8768 10.2131 10.6986C10.3931 10.0877 10.2088 9.62663 10.2702 9.5699L10.2745 9.56699H10.2788L10.2859 9.56408C10.5088 9.80844 10.8202 9.59317 10.8888 9.51026C10.9173 9.46663 10.9916 9.43754 11.0431 9.49572C11.2145 9.62081 11.5202 9.56117 11.5831 9.33572C11.6202 9.11754 11.6516 8.89354 11.6588 8.65935C11.5445 8.69572 11.4531 8.7219 11.4159 8.76117C11.4073 8.77135 11.4016 8.78299 11.3988 8.79463L11.3702 8.98808C11.3702 8.99535 11.3673 8.99972 11.3645 9.00263C11.3602 9.01281 11.3502 9.02008 11.3445 9.02444C11.3045 9.04626 11.2345 9.03463 11.2302 8.97499C11.1773 8.72772 10.9559 8.69572 10.8216 9.08117C10.7316 9.1539 10.5645 9.16844 10.5502 9.0579C10.5716 8.79899 10.4688 8.76408 10.2645 8.88626L10.0673 7.37354C10.1531 7.36917 10.2302 7.43172 10.3102 7.33281C10.2245 7.06517 10.0459 6.52117 9.94449 6.46881H9.94163L9.92735 6.45426C9.92735 6.45135 9.92306 6.4499 9.9202 6.44845L9.91449 6.43972C9.90877 6.43972 9.90306 6.43681 9.9002 6.43535C9.8902 6.43244 9.88163 6.43244 9.87163 6.43244H9.87306ZM16.7902 6.43826C16.7016 6.43535 16.6045 6.49208 16.6416 6.60554C16.6188 6.66808 16.8316 6.87754 16.8659 6.99099C16.9273 7.16554 16.8188 7.33572 16.8831 7.36044C16.9431 7.38663 17.0259 7.17863 17.0545 6.98517C17.0916 6.82808 16.9831 6.50808 16.8259 6.44263L16.7902 6.43972V6.43826ZM11.4002 6.62881C11.4402 6.6259 11.4888 6.66372 11.5145 6.71608C11.5388 6.77426 11.5259 6.82808 11.4859 6.83826C11.4431 6.84844 11.3888 6.81208 11.3631 6.7539C11.3373 6.69572 11.3488 6.6419 11.3916 6.63172H11.4002V6.62881ZM21.3959 6.89354C21.3145 6.89063 21.2245 6.95172 21.2616 7.07535C21.2416 7.14226 21.4331 7.36917 21.4659 7.49426C21.4945 7.58154 21.4231 7.86663 21.4802 7.89281C21.5345 7.9219 21.6088 7.69499 21.6373 7.48554C21.6545 7.36917 21.5716 6.96917 21.4302 6.8979C21.4202 6.89499 21.4088 6.89208 21.3973 6.89208L21.3959 6.89354ZM15.8673 7.03317C15.8773 7.06663 15.8845 7.10008 15.8888 7.13499C15.9059 7.20772 15.9202 7.28044 15.9345 7.35608C15.8716 7.2659 15.8202 7.19317 15.7959 7.16699C15.6531 6.99244 15.7988 7.05354 15.8673 7.03317ZM17.1431 7.67026C17.1116 7.67608 17.0816 7.70372 17.0716 7.74735C17.0631 7.77354 17.0831 7.82008 17.0573 7.83463C17.0431 7.84917 16.9859 7.84044 16.9902 7.7619C16.9902 7.73572 16.9716 7.70808 16.9616 7.69354C16.9502 7.68626 16.9431 7.68335 16.9231 7.68335C16.8988 7.68335 16.8988 7.69063 16.8859 7.71244C16.8802 7.73281 16.8716 7.75317 16.8716 7.7779C16.8716 7.80699 16.8602 7.81572 16.8402 7.82154C16.8173 7.82154 16.8216 7.82154 16.8031 7.81135C16.7916 7.79681 16.7788 7.7939 16.7788 7.77354C16.7788 7.75172 16.7745 7.71826 16.7673 7.70372C16.7573 7.68917 16.7431 7.68481 16.7245 7.67899C16.6316 7.67899 16.6245 7.78954 16.6302 7.83026C16.6245 7.83899 16.6202 8.03681 16.7488 8.09208C16.9231 8.17499 17.2488 8.13572 17.2345 7.85354C17.2345 7.82881 17.2273 7.74444 17.2259 7.72263C17.2073 7.67899 17.1745 7.66444 17.1445 7.66881L17.1431 7.67026ZM11.3288 7.72844C11.3088 7.72844 11.2802 7.73426 11.2473 7.75463C11.0945 7.83899 11.0359 8.08917 11.1331 8.23463C11.2188 8.36554 11.3616 8.31754 11.3802 8.31754C11.5302 8.3379 11.6188 8.03244 11.6188 8.03244C11.6188 8.03244 11.6231 7.94517 11.4473 8.10808C11.3702 8.12263 11.3616 8.09354 11.3416 8.0499C11.3245 7.97281 11.3273 7.8899 11.3631 7.81281C11.3802 7.76481 11.3631 7.73426 11.3288 7.73135V7.72844ZM19.5473 7.76772C19.4616 7.76335 19.3716 7.82008 19.3473 7.9379C19.3473 8.00772 19.3788 8.04554 19.3731 8.10954C19.3659 8.1459 19.3302 8.16772 19.2416 8.12699C19.2559 8.11244 19.1845 8.01354 19.1845 8.01354C19.1173 7.9699 19.0273 8.01354 18.9673 8.05426C18.9345 8.11535 18.9102 8.21863 18.9473 8.32335C19.0445 8.50808 19.3802 8.82226 19.5402 8.82517C19.5431 8.65935 19.5588 8.43826 19.5688 8.30154C19.5716 8.24917 19.5831 8.19244 19.6331 8.17935C19.6816 8.16481 19.7659 8.22881 19.7659 8.17499C19.7573 8.07026 19.7373 7.91317 19.6802 7.84044C19.6488 7.79681 19.5988 7.77063 19.5488 7.76772H19.5473ZM12.7431 8.34517L12.7388 8.34954C12.7388 8.34954 12.7359 8.34954 12.7345 8.35244C12.7173 8.36699 12.6973 8.39608 12.6531 8.42517C12.5773 8.51244 12.5645 8.57499 12.5673 8.74954C12.5731 8.76844 12.7102 9.16117 12.8288 9.43608C12.9088 9.72263 12.9816 10.0514 12.9288 10.3612C12.7431 10.7714 12.3716 11.1394 12.0102 11.3401C11.8245 11.3983 11.6673 11.3779 11.6245 11.3372C11.5188 11.2644 11.5173 11.1335 11.5245 11.1132V11.1088C11.8273 10.8935 12.1745 10.719 12.4459 10.1386C12.5259 9.91608 12.5516 9.78226 12.4716 9.44044C12.4402 9.30954 12.4002 9.20772 12.3145 9.11463H12.3173C12.3688 9.0899 12.5031 9.19026 12.5245 9.12917C12.4916 8.96335 12.3816 8.74372 12.2602 8.63026C12.1516 8.52845 12.0316 8.51826 11.9345 8.6099C11.8231 8.6739 11.8002 8.90081 11.8531 9.09863C11.9131 9.24699 12.0745 9.27317 12.1888 9.57426C12.1916 9.59463 12.2273 9.79972 12.1702 9.88408C12.1216 10.0324 11.5202 10.5154 11.4773 10.5444L11.4731 10.5474L11.4702 10.5503H11.4673H11.4645V10.5459C11.4616 10.5343 11.4645 10.5023 11.4645 10.4543C11.4602 10.3641 11.4973 10.159 11.4931 10.1226V10.1197C11.2931 10.2506 11.2259 10.6506 11.1902 10.7699C10.6859 11.1234 10.1145 11.3866 9.78449 11.7444C9.61306 12.0208 10.9673 11.4332 11.1245 11.3619L11.1288 11.3663C11.1602 11.3997 11.1616 11.5161 11.2516 11.6223C11.3945 11.8157 11.6916 11.935 11.9831 11.8608C12.4716 11.6819 12.7545 11.343 13.0402 10.9663C13.0802 10.9081 13.1445 10.8586 13.2045 10.9052C13.4002 11.3532 13.9688 11.6732 14.7016 11.7052C14.8731 11.4957 14.7916 11.3924 14.7231 11.3488C14.7016 11.3343 14.3588 11.1975 14.3045 11.0623C14.2716 10.9372 14.3531 10.8252 14.5159 10.7423C14.9873 10.6841 15.4502 10.6186 15.8988 10.4717C15.9031 10.3175 15.9916 10.0892 16.0516 9.98881C16.0945 9.92044 16.1188 9.91317 16.1288 9.90444V9.90154H16.1316V9.89717V9.88263L16.0545 9.83608L14.5502 9.83026C14.5316 9.82299 14.5188 9.81572 14.5102 9.80844L14.5073 9.80408C14.5073 9.80408 14.5045 9.80408 14.5045 9.80117C14.5045 9.79826 14.5016 9.79826 14.5016 9.79826V9.79972V9.79681V9.7939V9.79099L14.5045 9.78663C14.5116 9.7779 14.5302 9.76772 14.5516 9.75754C14.9116 9.70954 15.5488 9.60335 15.5916 8.97935C15.5845 8.65354 15.4545 8.44117 15.0631 8.38299C14.7745 8.40481 14.5688 8.68844 14.6016 8.99972C14.5873 9.08263 14.6302 9.24699 14.5445 9.2659C13.9931 9.31826 13.3902 9.67026 13.3702 9.92335H13.3673H13.3645H13.3616C13.3616 9.92626 13.3588 9.92626 13.3573 9.92626H13.3516H13.3488H13.3431C13.3073 9.91463 13.2616 9.85354 13.2688 9.77063C13.2473 9.33426 13.1073 8.83972 12.8902 8.46154C12.8116 8.38154 12.7759 8.34954 12.7559 8.34517H12.7516H12.7473H12.7445H12.7431ZM14.1831 8.57499C14.1545 8.58081 14.1216 8.60699 14.1116 8.65063C14.1045 8.67972 14.1259 8.72626 14.1002 8.74081C14.0859 8.75535 14.0288 8.74663 14.0316 8.66808C14.0316 8.64335 14.0131 8.61572 14.0031 8.59972C13.9916 8.59244 13.9845 8.59099 13.9659 8.59099C13.9416 8.59099 13.9402 8.59681 13.9273 8.61717C13.9202 8.63754 13.9131 8.66081 13.9131 8.68263C13.9102 8.71172 13.8988 8.72044 13.8802 8.72335C13.8573 8.72335 13.8631 8.72772 13.8445 8.71608C13.8331 8.70444 13.8188 8.69863 13.8188 8.67826C13.8188 8.65645 13.8145 8.62008 13.8088 8.60554C13.7988 8.59535 13.7831 8.59099 13.7659 8.58517C13.6702 8.58517 13.6659 8.69426 13.6702 8.73644C13.6631 8.74372 13.6588 8.94008 13.7873 8.99535C13.9588 9.07972 14.3731 9.03026 14.2731 8.75826C14.2731 8.73354 14.2659 8.64917 14.2645 8.62735C14.2459 8.58372 14.2131 8.56917 14.1816 8.57354L14.1831 8.57499ZM19.9902 8.8179H19.9759C19.9759 8.8179 19.1731 9.39972 19.1545 9.42008C19.0745 9.49281 19.1145 9.74444 19.1545 9.71535C19.2116 9.73717 20.0188 9.18008 20.0031 9.11463C20.0388 9.11754 20.0559 8.82808 19.9888 8.81644L19.9902 8.8179ZM14.9416 8.90517C14.9731 8.90081 15.0159 8.91244 15.0559 8.93426C15.1173 8.97208 15.1559 9.02444 15.1488 9.06517V9.07099C15.1459 9.07099 15.1459 9.07099 15.1459 9.0739V9.07681C15.1459 9.07681 15.1431 9.07681 15.1431 9.07972C15.1431 9.08263 15.1388 9.08554 15.1359 9.08844C15.1073 9.11754 15.0416 9.11172 14.9788 9.0739C14.9188 9.04044 14.8831 8.98663 14.8859 8.94881V8.94444L14.8931 8.9299C14.8931 8.9299 14.8931 8.92699 14.8959 8.92554L14.9031 8.91681C14.9131 8.90954 14.9259 8.90226 14.9416 8.90226V8.90517ZM7.91592 9.05063C7.50163 9.05935 6.89163 9.60626 6.87592 9.90881L8.1902 9.26881C8.11877 9.15826 8.18592 9.05935 7.91592 9.05063ZM9.26306 9.23972C9.30306 9.24263 9.34592 9.26299 9.36877 9.32117C9.38877 9.37499 9.36877 9.43026 9.34449 9.4579V9.46226C9.32449 9.48554 9.26449 9.47681 9.2202 9.47681C9.16735 9.4739 9.14163 9.46517 9.1102 9.42154C9.09306 9.37063 9.13877 9.32263 9.1602 9.28772L9.1702 9.27317C9.18449 9.25863 9.21306 9.24699 9.24163 9.24408L9.2602 9.24117L9.26306 9.23972ZM19.8345 9.4099C19.7588 9.41863 19.6888 9.4899 19.7202 9.60335C19.7002 9.67026 19.8202 9.90444 19.8531 10.0281C19.8816 10.1154 19.8159 10.367 19.8745 10.3917C19.9288 10.4208 20.0702 10.2463 20.0659 10.0223C20.0802 9.9059 20.0259 9.48408 19.8845 9.41426C19.8673 9.4099 19.8502 9.40844 19.8331 9.4099H19.8345ZM10.8573 9.82299C10.7916 9.82735 10.7331 9.86226 10.7602 9.95681C10.7559 10.0237 10.9459 10.1066 10.9559 10.2623C10.9816 10.3292 10.9131 10.5386 10.9702 10.5561C11.0216 10.5779 11.0931 10.4106 11.1202 10.2594C11.1345 10.175 11.0545 9.88117 10.9202 9.82735C10.8988 9.82154 10.8773 9.82008 10.8559 9.82154L10.8573 9.82299ZM13.5431 10.1954H13.5602C13.7288 10.2419 13.9745 10.2477 14.1888 10.2681C14.3645 10.2826 14.4502 10.4194 14.2888 10.479C14.1259 10.5343 13.9702 10.5808 13.9702 10.8164C13.9902 10.9328 13.9845 10.9939 13.9673 11.0201C13.9673 11.0244 13.9631 11.0274 13.9616 11.0288C13.9616 11.0288 13.9616 11.0317 13.9588 11.0317V11.0346H13.9545L13.9445 11.039H13.9373C13.8988 11.0463 13.8431 11.0099 13.8016 10.9866C13.7016 10.9139 13.4231 10.7394 13.3831 10.3612C13.3773 10.2739 13.4402 10.2012 13.5402 10.1939L13.5431 10.1954ZM6.9802 10.4863C6.9702 10.4863 6.95163 10.5183 6.92306 10.5546C6.67449 10.9546 6.65163 11.5524 6.78877 11.7328C6.8602 11.8157 6.9802 11.8535 7.06877 11.8274C7.22592 11.759 7.29306 11.4375 7.25449 11.3212C7.20449 11.2383 7.16306 11.2252 7.11163 11.295C7.00163 11.5204 6.95449 11.3648 6.94734 11.2368C6.9302 10.9997 6.95306 10.7786 6.97877 10.6041C6.99306 10.5168 6.99306 10.4834 6.97877 10.4834L6.9802 10.4863ZM15.4045 11.0128C15.3859 11.0128 15.3673 11.0157 15.3473 11.0274C15.3431 11.0274 15.1702 11.1437 15.1145 11.2281C15.0802 11.2543 15.0859 11.2761 15.0945 11.3226C15.1202 11.3852 15.1659 11.3663 15.2202 11.3372C15.2916 11.3255 15.3245 11.3735 15.3202 11.4594C15.2873 11.5684 15.3345 11.6077 15.3345 11.615C15.3345 11.6208 15.4016 11.6804 15.4816 11.6339C15.6488 11.5684 15.7531 11.503 15.9888 11.4521C16.0502 11.4521 16.0459 11.2834 15.9488 11.2775C15.8202 11.2834 15.7059 11.2921 15.5773 11.3939C15.4988 11.4114 15.4859 11.3619 15.4673 11.3183C15.4473 11.2106 15.5131 11.135 15.4988 11.0535C15.5016 11.0579 15.4588 11.0186 15.4031 11.0157L15.4045 11.0128ZM20.7988 11.2164L20.6845 11.2281C20.6331 11.2383 20.6159 11.2615 20.6059 11.3255C20.6102 11.4201 20.6673 11.4157 20.7273 11.4535C20.7616 11.4972 20.7845 11.5379 20.7245 11.6135C20.6673 11.6644 20.6288 11.6935 20.5716 11.7444C20.5473 11.791 20.5288 11.8608 20.6116 11.8841C20.7616 11.9277 21.1088 11.6979 21.1088 11.695C21.1659 11.6514 21.1459 11.5684 21.1416 11.5684C21.1073 11.5306 21.0331 11.5539 20.9845 11.5466C20.9602 11.5466 20.8845 11.535 20.9188 11.4652C20.9502 11.4215 20.9616 11.3968 20.9831 11.343C21.0045 11.2906 20.9831 11.2557 20.9002 11.2266C20.8573 11.2179 20.8288 11.215 20.7959 11.2164H20.7988ZM18.7231 16.831C19.1088 16.8499 19.4688 16.8354 19.8516 16.8543C19.9145 16.9066 19.8845 17.0288 19.8445 17.0492L19.8373 17.0521H19.8331H19.8273L19.5045 17.0434V17.0244C19.4731 16.9343 19.2588 16.9401 19.2073 17.0099V17.0143C19.2045 17.0143 19.2031 17.0186 19.2031 17.0201L19.2002 17.0274V17.0448C19.0288 17.0666 18.8788 17.039 18.7102 17.0332C18.6602 16.9706 18.6673 16.8586 18.7245 16.8295L18.7231 16.831Z" fill="white"/>
</g>
<defs>
<clipPath id="clip0_1_14042">
<rect width="30" height="21.8182" fill="white" transform="translate(0 0.519531)"/>
</clipPath>
</defs>
</svg>
