<svg width="48" height="48" viewBox="0 0 48 48" fill="none" xmlns="http://www.w3.org/2000/svg">
<rect width="48" height="48" rx="8" fill="#4600A9"/>
<path d="M28.9 19.1L17.2667 30.7333C16.9083 31.0917 16.3083 31.0583 16.0167 30.65C15.6 30.075 15.5167 29.275 15.95 28.5833L18.25 24.8917C18.5583 24.4 18.5583 23.6 18.25 23.1083L15.95 19.4167C15.175 18.1833 16.0667 16.5833 17.5167 16.5833H27.0583C27.625 16.5833 28.325 16.975 28.625 17.45L29.0167 18.0667C29.2167 18.4 29.175 18.825 28.9 19.1Z" fill="white"/>
<path d="M32.025 24.925L27.7083 30.675C27.4083 31.0833 26.7416 31.4167 26.225 31.4167H20.2583C19.5166 31.4167 19.1416 30.5167 19.6666 29.9917L29.2666 20.4C29.6416 20.025 30.2833 20.0917 30.5666 20.55L32.1083 23.025C32.4416 23.5583 32.4083 24.4167 32.025 24.925Z" fill="white"/>
</svg>
