<svg width="826" height="318" viewBox="0 0 826 318" fill="none" xmlns="http://www.w3.org/2000/svg">
<path d="M756.744 361.991C763.016 263.882 771.197 163.965 779.856 65.9227C780.606 58.4892 779.651 62.1725 780.06 63.177C780.878 67.1282 785.378 67.9987 788.514 65.7218C747.608 113.872 669.751 204.883 628.3 252.631C602.325 282.834 576.213 312.97 549.897 342.838C545.534 348.129 462.223 442.823 461.337 444.028C426.499 491.241 353.073 470.949 348.982 413.021C348.369 406.592 347.073 393.801 346.46 387.172C335.756 278.414 331.257 167.313 327.166 58.0204C328.189 64.8512 336.983 77.8431 350.55 77.1065C357.504 77.5753 367.458 71.4141 369.435 66.6594C367.254 70.0078 296.759 168.519 292.601 174.479C200.086 303.996 105.798 432.375 8.78341 559.08C7.14718 561.223 4.07925 561.625 1.96579 560.018C-0.011317 558.544 -0.556726 555.933 0.602268 553.924C97.0715 377.394 200.29 200.329 303.441 27.4157C321.78 -5.86772 372.094 -9.81888 395.956 20.9198C404.478 31.166 407.477 43.4212 408.432 56.0113C420.635 163.496 432.498 272.789 438.089 380.743C438.498 387.841 439.179 401.034 439.588 408.2C437.952 384.761 406.523 373.778 390.433 391.926C393.91 388.377 403.387 378.934 407.137 375.117C485.471 295.826 581.736 199.659 661.025 121.306L746.517 37.461C752.108 31.8357 758.38 25.4736 766.289 22.46C793.9 10.1378 827.579 32.2375 825.943 61.8376C826.488 66.3915 814.08 124.052 813.262 130.347C797.99 208.03 782.583 285.714 765.675 363.197C764.38 368.487 756.471 367.416 756.744 361.991Z" fill="url(#paint0_linear_1_14313)"/>
<defs>
<linearGradient id="paint0_linear_1_14313" x1="28.988" y1="258.461" x2="914.104" y2="40.4463" gradientUnits="userSpaceOnUse">
<stop stop-color="#00DDD0"/>
<stop offset="1" stop-color="#6100DD"/>
</linearGradient>
</defs>
</svg>
