<svg width="164" height="153" viewBox="0 0 164 153" fill="none" xmlns="http://www.w3.org/2000/svg">
<g filter="url(#filter0_d_1_10506)">
<rect x="28" y="24.875" width="108" height="95.251" rx="8" fill="white" shape-rendering="crispEdges"/>
<rect x="63.374" y="40.875" width="37.251" height="37.251" rx="8" fill="#6200EE"/>
<mask id="path-3-inside-1_1_10506" fill="white">
<path d="M78.1901 63.8115L74.1289 59.7503L75.1532 58.744L78.2081 61.7988L79.2144 62.8051L78.1901 63.8115ZM82.2513 63.8115L78.1901 59.7503L79.1964 58.726L82.2513 61.7809L88.8642 55.168L89.8705 56.1922L82.2513 63.8115ZM82.2513 59.7503L81.227 58.744L84.785 55.1859L85.8093 56.1922L82.2513 59.7503Z"/>
</mask>
<path d="M78.1901 63.8115L74.1289 59.7503L75.1532 58.744L78.2081 61.7988L79.2144 62.8051L78.1901 63.8115ZM82.2513 63.8115L78.1901 59.7503L79.1964 58.726L82.2513 61.7809L88.8642 55.168L89.8705 56.1922L82.2513 63.8115ZM82.2513 59.7503L81.227 58.744L84.785 55.1859L85.8093 56.1922L82.2513 59.7503Z" fill="white"/>
<path d="M78.1901 63.8115L61.9257 80.0759L78.0468 96.197L94.3099 80.2192L78.1901 63.8115ZM74.1289 59.7503L58.009 43.3426L41.4555 59.6057L57.8645 76.0147L74.1289 59.7503ZM75.1532 58.744L91.4176 42.4795L75.2965 26.3584L59.0333 42.3362L75.1532 58.744ZM78.2081 61.7988L61.9436 78.0633H61.9436L78.2081 61.7988ZM79.2144 62.8051L95.3342 79.2129L111.888 62.9497L95.4788 46.5407L79.2144 62.8051ZM82.2513 63.8115L65.9868 80.0759L82.2513 96.3403L98.5157 80.0759L82.2513 63.8115ZM78.1901 59.7503L61.7824 43.6304L45.8045 59.8936L61.9257 76.0147L78.1901 59.7503ZM79.1964 58.726L95.4608 42.4616L79.0518 26.0526L62.7887 42.6061L79.1964 58.726ZM82.2513 61.7809L65.9868 78.0453L82.2513 94.3097L98.5157 78.0453L82.2513 61.7809ZM88.8642 55.168L105.272 39.0481L89.0087 22.4946L72.5997 38.9035L88.8642 55.168ZM89.8705 56.1922L106.135 72.4567L122.256 56.3355L106.278 40.0724L89.8705 56.1922ZM82.2513 59.7503L66.1314 76.158L82.3946 92.1358L98.5157 76.0147L82.2513 59.7503ZM81.227 58.744L64.9626 42.4795L48.5536 58.8885L65.1071 75.1517L81.227 58.744ZM84.785 55.1859L100.905 38.7782L84.6417 22.8004L68.5206 38.9215L84.785 55.1859ZM85.8093 56.1922L102.074 72.4567L118.483 56.0477L101.929 39.7845L85.8093 56.1922ZM94.4545 47.547L90.3933 43.4858L57.8645 76.0147L61.9257 80.0759L94.4545 47.547ZM90.2488 76.158L91.2731 75.1517L59.0333 42.3362L58.009 43.3426L90.2488 76.158ZM58.8888 75.0084L61.9436 78.0633L94.4725 45.5344L91.4176 42.4795L58.8888 75.0084ZM61.9436 78.0633L62.9499 79.0696L95.4788 46.5407L94.4725 45.5344L61.9436 78.0633ZM63.0945 46.3974L62.0702 47.4037L94.3099 80.2192L95.3342 79.2129L63.0945 46.3974ZM98.5157 47.547L94.4545 43.4858L61.9257 76.0147L65.9868 80.0759L98.5157 47.547ZM94.5978 75.8701L95.6041 74.8459L62.7887 42.6061L61.7824 43.6304L94.5978 75.8701ZM62.932 74.9904L65.9868 78.0453L98.5157 45.5164L95.4608 42.4616L62.932 74.9904ZM98.5157 78.0453L105.129 71.4324L72.5997 38.9035L65.9868 45.5164L98.5157 78.0453ZM72.4565 71.2878L73.4628 72.3121L106.278 40.0724L105.272 39.0481L72.4565 71.2878ZM73.606 39.9278L65.9868 47.547L98.5157 80.0759L106.135 72.4567L73.606 39.9278ZM98.3711 43.3426L97.3468 42.3362L65.1071 75.1517L66.1314 76.158L98.3711 43.3426ZM97.4914 75.0084L101.049 71.4504L68.5206 38.9215L64.9626 42.4795L97.4914 75.0084ZM68.6651 71.5937L69.6894 72.6L101.929 39.7845L100.905 38.7782L68.6651 71.5937ZM69.5449 39.9278L65.9868 43.4858L98.5157 76.0147L102.074 72.4567L69.5449 39.9278Z" fill="white" mask="url(#path-3-inside-1_1_10506)"/>
<path d="M47.576 99.211C47.024 99.211 46.528 99.115 46.088 98.923C45.656 98.723 45.316 98.451 45.068 98.107C44.82 97.755 44.692 97.351 44.684 96.895H45.848C45.888 97.287 46.048 97.619 46.328 97.891C46.616 98.155 47.032 98.287 47.576 98.287C48.096 98.287 48.504 98.159 48.8 97.903C49.104 97.639 49.256 97.303 49.256 96.895C49.256 96.575 49.168 96.315 48.992 96.115C48.816 95.915 48.596 95.763 48.332 95.659C48.068 95.555 47.712 95.443 47.264 95.323C46.712 95.179 46.268 95.035 45.932 94.891C45.604 94.747 45.32 94.523 45.08 94.219C44.848 93.907 44.732 93.491 44.732 92.971C44.732 92.515 44.848 92.111 45.08 91.759C45.312 91.407 45.636 91.135 46.052 90.943C46.476 90.751 46.96 90.655 47.504 90.655C48.288 90.655 48.928 90.851 49.424 91.243C49.928 91.635 50.212 92.155 50.276 92.803H49.076C49.036 92.483 48.868 92.203 48.572 91.963C48.276 91.715 47.884 91.591 47.396 91.591C46.94 91.591 46.568 91.711 46.28 91.951C45.992 92.183 45.848 92.511 45.848 92.935C45.848 93.239 45.932 93.487 46.1 93.679C46.276 93.871 46.488 94.019 46.736 94.123C46.992 94.219 47.348 94.331 47.804 94.459C48.356 94.611 48.8 94.763 49.136 94.915C49.472 95.059 49.76 95.287 50 95.599C50.24 95.903 50.36 96.319 50.36 96.847C50.36 97.255 50.252 97.639 50.036 97.999C49.82 98.359 49.5 98.651 49.076 98.875C48.652 99.099 48.152 99.211 47.576 99.211ZM52.531 91.483C52.323 91.483 52.147 91.411 52.003 91.267C51.859 91.123 51.787 90.947 51.787 90.739C51.787 90.531 51.859 90.355 52.003 90.211C52.147 90.067 52.323 89.995 52.531 89.995C52.731 89.995 52.899 90.067 53.035 90.211C53.179 90.355 53.251 90.531 53.251 90.739C53.251 90.947 53.179 91.123 53.035 91.267C52.899 91.411 52.731 91.483 52.531 91.483ZM53.059 92.551V99.127H51.967V92.551H53.059ZM58.1241 92.431C58.9241 92.431 59.5721 92.675 60.0681 93.163C60.5641 93.643 60.8121 94.339 60.8121 95.251V99.127H59.7321V95.407C59.7321 94.751 59.5681 94.251 59.2401 93.907C58.9121 93.555 58.4641 93.379 57.8961 93.379C57.3201 93.379 56.8601 93.559 56.5161 93.919C56.1801 94.279 56.0121 94.803 56.0121 95.491V99.127H54.9201V92.551H56.0121V93.487C56.2281 93.151 56.5201 92.891 56.8881 92.707C57.2641 92.523 57.6761 92.431 58.1241 92.431ZM65.3079 92.443C65.8759 92.443 66.3719 92.567 66.7959 92.815C67.2279 93.063 67.5479 93.375 67.7559 93.751V92.551H68.8599V99.271C68.8599 99.871 68.7319 100.403 68.4759 100.867C68.2199 101.339 67.8519 101.707 67.3719 101.971C66.8999 102.235 66.3479 102.367 65.7159 102.367C64.8519 102.367 64.1319 102.163 63.5559 101.755C62.9799 101.347 62.6399 100.791 62.5359 100.087H63.6159C63.7359 100.487 63.9839 100.807 64.3599 101.047C64.7359 101.295 65.1879 101.419 65.7159 101.419C66.3159 101.419 66.8039 101.231 67.1799 100.855C67.5639 100.479 67.7559 99.951 67.7559 99.271V97.891C67.5399 98.275 67.2199 98.595 66.7959 98.851C66.3719 99.107 65.8759 99.235 65.3079 99.235C64.7239 99.235 64.1919 99.091 63.7119 98.803C63.2399 98.515 62.8679 98.111 62.5959 97.591C62.3239 97.071 62.1879 96.479 62.1879 95.815C62.1879 95.143 62.3239 94.555 62.5959 94.051C62.8679 93.539 63.2399 93.143 63.7119 92.863C64.1919 92.583 64.7239 92.443 65.3079 92.443ZM67.7559 95.827C67.7559 95.331 67.6559 94.899 67.4559 94.531C67.2559 94.163 66.9839 93.883 66.6399 93.691C66.3039 93.491 65.9319 93.391 65.5239 93.391C65.1159 93.391 64.7439 93.487 64.4079 93.679C64.0719 93.871 63.8039 94.151 63.6039 94.519C63.4039 94.887 63.3039 95.319 63.3039 95.815C63.3039 96.319 63.4039 96.759 63.6039 97.135C63.8039 97.503 64.0719 97.787 64.4079 97.987C64.7439 98.179 65.1159 98.275 65.5239 98.275C65.9319 98.275 66.3039 98.179 66.6399 97.987C66.9839 97.787 67.2559 97.503 67.4559 97.135C67.6559 96.759 67.7559 96.323 67.7559 95.827ZM71.7973 90.247V99.127H70.7053V90.247H71.7973ZM79.6584 95.587C79.6584 95.795 79.6464 96.015 79.6224 96.247H74.3664C74.4064 96.895 74.6264 97.403 75.0264 97.771C75.4344 98.131 75.9264 98.311 76.5024 98.311C76.9744 98.311 77.3664 98.203 77.6784 97.987C77.9984 97.763 78.2224 97.467 78.3504 97.099H79.5264C79.3504 97.731 78.9984 98.247 78.4704 98.647C77.9424 99.039 77.2864 99.235 76.5024 99.235C75.8784 99.235 75.3184 99.095 74.8224 98.815C74.3344 98.535 73.9504 98.139 73.6704 97.627C73.3904 97.107 73.2504 96.507 73.2504 95.827C73.2504 95.147 73.3864 94.551 73.6584 94.039C73.9304 93.527 74.3104 93.135 74.7984 92.863C75.2944 92.583 75.8624 92.443 76.5024 92.443C77.1264 92.443 77.6784 92.579 78.1584 92.851C78.6384 93.123 79.0064 93.499 79.2624 93.979C79.5264 94.451 79.6584 94.987 79.6584 95.587ZM78.5304 95.359C78.5304 94.943 78.4384 94.587 78.2544 94.291C78.0704 93.987 77.8184 93.759 77.4984 93.607C77.1864 93.447 76.8384 93.367 76.4544 93.367C75.9024 93.367 75.4304 93.543 75.0384 93.895C74.6544 94.247 74.4344 94.735 74.3784 95.359H78.5304ZM86.951 99.211C86.399 99.211 85.903 99.115 85.463 98.923C85.031 98.723 84.691 98.451 84.443 98.107C84.195 97.755 84.067 97.351 84.059 96.895H85.223C85.263 97.287 85.423 97.619 85.703 97.891C85.991 98.155 86.407 98.287 86.951 98.287C87.471 98.287 87.879 98.159 88.175 97.903C88.479 97.639 88.631 97.303 88.631 96.895C88.631 96.575 88.543 96.315 88.367 96.115C88.191 95.915 87.971 95.763 87.707 95.659C87.443 95.555 87.087 95.443 86.639 95.323C86.087 95.179 85.643 95.035 85.307 94.891C84.979 94.747 84.695 94.523 84.455 94.219C84.223 93.907 84.107 93.491 84.107 92.971C84.107 92.515 84.223 92.111 84.455 91.759C84.687 91.407 85.011 91.135 85.427 90.943C85.851 90.751 86.335 90.655 86.879 90.655C87.663 90.655 88.303 90.851 88.799 91.243C89.303 91.635 89.587 92.155 89.651 92.803H88.451C88.411 92.483 88.243 92.203 87.947 91.963C87.651 91.715 87.259 91.591 86.771 91.591C86.315 91.591 85.943 91.711 85.655 91.951C85.367 92.183 85.223 92.511 85.223 92.935C85.223 93.239 85.307 93.487 85.475 93.679C85.651 93.871 85.863 94.019 86.111 94.123C86.367 94.219 86.723 94.331 87.179 94.459C87.731 94.611 88.175 94.763 88.511 94.915C88.847 95.059 89.135 95.287 89.375 95.599C89.615 95.903 89.735 96.319 89.735 96.847C89.735 97.255 89.627 97.639 89.411 97.999C89.195 98.359 88.875 98.651 88.451 98.875C88.027 99.099 87.527 99.211 86.951 99.211ZM97.342 95.587C97.342 95.795 97.33 96.015 97.306 96.247H92.05C92.09 96.895 92.31 97.403 92.71 97.771C93.118 98.131 93.61 98.311 94.186 98.311C94.658 98.311 95.05 98.203 95.362 97.987C95.682 97.763 95.906 97.467 96.034 97.099H97.21C97.034 97.731 96.682 98.247 96.154 98.647C95.626 99.039 94.97 99.235 94.186 99.235C93.562 99.235 93.002 99.095 92.506 98.815C92.018 98.535 91.634 98.139 91.354 97.627C91.074 97.107 90.934 96.507 90.934 95.827C90.934 95.147 91.07 94.551 91.342 94.039C91.614 93.527 91.994 93.135 92.482 92.863C92.978 92.583 93.546 92.443 94.186 92.443C94.81 92.443 95.362 92.579 95.842 92.851C96.322 93.123 96.69 93.499 96.946 93.979C97.21 94.451 97.342 94.987 97.342 95.587ZM96.214 95.359C96.214 94.943 96.122 94.587 95.938 94.291C95.754 93.987 95.502 93.759 95.182 93.607C94.87 93.447 94.522 93.367 94.138 93.367C93.586 93.367 93.114 93.543 92.722 93.895C92.338 94.247 92.118 94.735 92.062 95.359H96.214ZM99.8754 90.247V99.127H98.7834V90.247H99.8754ZM107.737 95.587C107.737 95.795 107.725 96.015 107.701 96.247H102.445C102.485 96.895 102.705 97.403 103.105 97.771C103.513 98.131 104.005 98.311 104.581 98.311C105.053 98.311 105.445 98.203 105.757 97.987C106.077 97.763 106.301 97.467 106.429 97.099H107.605C107.429 97.731 107.077 98.247 106.549 98.647C106.021 99.039 105.365 99.235 104.581 99.235C103.957 99.235 103.397 99.095 102.901 98.815C102.413 98.535 102.029 98.139 101.749 97.627C101.469 97.107 101.329 96.507 101.329 95.827C101.329 95.147 101.465 94.551 101.737 94.039C102.009 93.527 102.389 93.135 102.877 92.863C103.373 92.583 103.941 92.443 104.581 92.443C105.205 92.443 105.757 92.579 106.237 92.851C106.717 93.123 107.085 93.499 107.341 93.979C107.605 94.451 107.737 94.987 107.737 95.587ZM106.609 95.359C106.609 94.943 106.517 94.587 106.333 94.291C106.149 93.987 105.897 93.759 105.577 93.607C105.265 93.447 104.917 93.367 104.533 93.367C103.981 93.367 103.509 93.543 103.117 93.895C102.733 94.247 102.513 94.735 102.457 95.359H106.609ZM108.77 95.827C108.77 95.147 108.906 94.555 109.178 94.051C109.45 93.539 109.826 93.143 110.306 92.863C110.794 92.583 111.35 92.443 111.974 92.443C112.782 92.443 113.446 92.639 113.966 93.031C114.494 93.423 114.842 93.967 115.01 94.663H113.834C113.722 94.263 113.502 93.947 113.174 93.715C112.854 93.483 112.454 93.367 111.974 93.367C111.35 93.367 110.846 93.583 110.462 94.015C110.078 94.439 109.886 95.043 109.886 95.827C109.886 96.619 110.078 97.231 110.462 97.663C110.846 98.095 111.35 98.311 111.974 98.311C112.454 98.311 112.854 98.199 113.174 97.975C113.494 97.751 113.714 97.431 113.834 97.015H115.01C114.834 97.687 114.482 98.227 113.954 98.635C113.426 99.035 112.766 99.235 111.974 99.235C111.35 99.235 110.794 99.095 110.306 98.815C109.826 98.535 109.45 98.139 109.178 97.627C108.906 97.115 108.77 96.515 108.77 95.827ZM117.799 93.451V97.327C117.799 97.647 117.867 97.875 118.003 98.011C118.139 98.139 118.375 98.203 118.711 98.203H119.515V99.127H118.531C117.923 99.127 117.467 98.987 117.163 98.707C116.859 98.427 116.707 97.967 116.707 97.327V93.451H115.855V92.551H116.707V90.895H117.799V92.551H119.515V93.451H117.799Z" fill="#363E49"/>
</g>
<defs>
<filter id="filter0_d_1_10506" x="0" y="0.875" width="164" height="151.252" filterUnits="userSpaceOnUse" color-interpolation-filters="sRGB">
<feFlood flood-opacity="0" result="BackgroundImageFix"/>
<feColorMatrix in="SourceAlpha" type="matrix" values="0 0 0 0 0 0 0 0 0 0 0 0 0 0 0 0 0 0 127 0" result="hardAlpha"/>
<feOffset dy="4"/>
<feGaussianBlur stdDeviation="14"/>
<feComposite in2="hardAlpha" operator="out"/>
<feColorMatrix type="matrix" values="0 0 0 0 0.292692 0 0 0 0 0.292692 0 0 0 0 0.292692 0 0 0 0.05 0"/>
<feBlend mode="normal" in2="BackgroundImageFix" result="effect1_dropShadow_1_10506"/>
<feBlend mode="normal" in="SourceGraphic" in2="effect1_dropShadow_1_10506" result="shape"/>
</filter>
</defs>
</svg>
