<svg width="716" height="563" viewBox="0 0 716 563" fill="none" xmlns="http://www.w3.org/2000/svg">
<g filter="url(#filter0_f_1_15619)">
<circle cx="602.539" cy="325.666" r="200.004" fill="#180435" fill-opacity="0.2"/>
</g>
<circle cx="602" cy="282" r="262" fill="white"/>
<rect x="583.132" y="417.852" width="38.8148" height="38.8148" rx="8.62551" fill="#6200EE"/>
<path d="M609.188 435.104V439.416C609.188 440.312 608.467 441.034 607.571 441.034H597.508C596.612 441.034 595.891 440.312 595.891 439.416V435.104C595.891 434.208 596.612 433.486 597.508 433.486H607.571C608.467 433.486 609.188 434.208 609.188 435.104Z" fill="white" stroke="white" stroke-width="1.07819"/>
<path d="M598.401 443.189H606.677C606.595 443.474 606.472 443.607 606.319 443.694C606.081 443.829 605.673 443.908 604.933 443.908H600.145C599.401 443.908 598.993 443.828 598.757 443.695C598.605 443.608 598.483 443.476 598.401 443.189Z" fill="white" stroke="white" stroke-width="1.07819"/>
<path d="M606.321 430.825C606.473 430.912 606.595 431.044 606.677 431.33H598.401C598.483 431.044 598.605 430.912 598.757 430.825C598.993 430.691 599.401 430.611 600.145 430.611H604.933C605.677 430.611 606.085 430.691 606.321 430.825Z" fill="white" stroke="white" stroke-width="1.07819"/>
<path d="M582.395 479.382C581.8 479.382 581.265 479.278 580.79 479.071C580.325 478.855 579.958 478.562 579.691 478.191C579.423 477.812 579.285 477.376 579.277 476.884H580.532C580.575 477.307 580.747 477.665 581.049 477.958C581.36 478.243 581.808 478.385 582.395 478.385C582.955 478.385 583.395 478.247 583.714 477.971C584.042 477.687 584.206 477.324 584.206 476.884C584.206 476.539 584.111 476.259 583.921 476.044C583.732 475.828 583.494 475.664 583.21 475.552C582.925 475.44 582.541 475.319 582.058 475.19C581.463 475.034 580.984 474.879 580.622 474.724C580.268 474.569 579.962 474.327 579.704 473.999C579.453 473.663 579.328 473.214 579.328 472.654C579.328 472.162 579.453 471.726 579.704 471.347C579.954 470.967 580.303 470.674 580.752 470.467C581.209 470.26 581.731 470.157 582.317 470.157C583.162 470.157 583.852 470.368 584.387 470.791C584.931 471.213 585.237 471.774 585.306 472.473H584.012C583.969 472.128 583.788 471.826 583.469 471.567C583.149 471.299 582.727 471.166 582.201 471.166C581.709 471.166 581.308 471.295 580.997 471.554C580.687 471.804 580.532 472.158 580.532 472.615C580.532 472.943 580.622 473.21 580.803 473.417C580.993 473.624 581.222 473.784 581.489 473.896C581.765 473.999 582.149 474.12 582.64 474.258C583.236 474.422 583.714 474.586 584.077 474.75C584.439 474.905 584.749 475.151 585.008 475.487C585.267 475.815 585.396 476.263 585.396 476.833C585.396 477.273 585.28 477.687 585.047 478.075C584.814 478.463 584.469 478.778 584.012 479.019C583.555 479.261 583.016 479.382 582.395 479.382ZM593.598 475.474C593.598 475.698 593.585 475.936 593.559 476.186H587.892C587.935 476.884 588.173 477.432 588.604 477.829C589.044 478.217 589.574 478.411 590.195 478.411C590.704 478.411 591.127 478.295 591.463 478.062C591.808 477.82 592.05 477.501 592.188 477.104H593.456C593.266 477.786 592.886 478.342 592.317 478.773C591.748 479.196 591.041 479.407 590.195 479.407C589.523 479.407 588.919 479.257 588.384 478.955C587.858 478.653 587.444 478.226 587.142 477.674C586.84 477.113 586.689 476.466 586.689 475.733C586.689 475 586.836 474.357 587.129 473.805C587.422 473.253 587.832 472.831 588.358 472.537C588.893 472.235 589.505 472.084 590.195 472.084C590.868 472.084 591.463 472.231 591.981 472.524C592.498 472.818 592.895 473.223 593.171 473.74C593.456 474.249 593.598 474.827 593.598 475.474ZM592.382 475.228C592.382 474.78 592.283 474.396 592.084 474.077C591.886 473.749 591.614 473.503 591.269 473.339C590.933 473.167 590.558 473.081 590.144 473.081C589.548 473.081 589.04 473.27 588.617 473.65C588.203 474.029 587.966 474.556 587.905 475.228H592.382ZM594.712 475.733C594.712 475 594.859 474.362 595.152 473.818C595.445 473.266 595.851 472.839 596.368 472.537C596.895 472.235 597.494 472.084 598.167 472.084C599.038 472.084 599.754 472.296 600.315 472.718C600.884 473.141 601.259 473.728 601.44 474.478H600.172C600.051 474.047 599.814 473.706 599.461 473.456C599.116 473.206 598.684 473.081 598.167 473.081C597.494 473.081 596.951 473.314 596.537 473.779C596.123 474.236 595.916 474.888 595.916 475.733C595.916 476.587 596.123 477.247 596.537 477.713C596.951 478.178 597.494 478.411 598.167 478.411C598.684 478.411 599.116 478.29 599.461 478.049C599.806 477.807 600.043 477.462 600.172 477.014H601.44C601.25 477.738 600.871 478.321 600.302 478.761C599.732 479.192 599.021 479.407 598.167 479.407C597.494 479.407 596.895 479.257 596.368 478.955C595.851 478.653 595.445 478.226 595.152 477.674C594.859 477.122 594.712 476.475 594.712 475.733ZM604.447 473.171V477.35C604.447 477.695 604.521 477.941 604.667 478.088C604.814 478.226 605.068 478.295 605.431 478.295H606.298V479.291H605.237C604.581 479.291 604.089 479.14 603.762 478.838C603.434 478.536 603.27 478.04 603.27 477.35V473.171H602.351V472.201H603.27V470.415H604.447V472.201H606.298V473.171H604.447ZM608.332 471.049C608.108 471.049 607.918 470.972 607.763 470.816C607.608 470.661 607.53 470.471 607.53 470.247C607.53 470.023 607.608 469.833 607.763 469.678C607.918 469.523 608.108 469.445 608.332 469.445C608.548 469.445 608.729 469.523 608.876 469.678C609.031 469.833 609.108 470.023 609.108 470.247C609.108 470.471 609.031 470.661 608.876 470.816C608.729 470.972 608.548 471.049 608.332 471.049ZM608.901 472.201V479.291H607.724V472.201H608.901ZM614 479.407C613.336 479.407 612.732 479.257 612.189 478.955C611.654 478.653 611.232 478.226 610.921 477.674C610.619 477.113 610.468 476.466 610.468 475.733C610.468 475.008 610.623 474.37 610.934 473.818C611.253 473.257 611.684 472.831 612.228 472.537C612.771 472.235 613.379 472.084 614.052 472.084C614.725 472.084 615.333 472.235 615.876 472.537C616.42 472.831 616.847 473.253 617.157 473.805C617.476 474.357 617.636 475 617.636 475.733C617.636 476.466 617.472 477.113 617.144 477.674C616.825 478.226 616.39 478.653 615.838 478.955C615.286 479.257 614.673 479.407 614 479.407ZM614 478.372C614.423 478.372 614.82 478.273 615.191 478.075C615.562 477.876 615.859 477.579 616.083 477.182C616.316 476.785 616.433 476.302 616.433 475.733C616.433 475.164 616.321 474.681 616.096 474.284C615.872 473.887 615.579 473.594 615.217 473.404C614.854 473.206 614.462 473.107 614.039 473.107C613.608 473.107 613.211 473.206 612.849 473.404C612.495 473.594 612.211 473.887 611.995 474.284C611.779 474.681 611.671 475.164 611.671 475.733C611.671 476.311 611.775 476.798 611.982 477.195C612.198 477.592 612.482 477.889 612.836 478.088C613.19 478.278 613.578 478.372 614 478.372ZM622.639 472.071C623.501 472.071 624.2 472.335 624.735 472.861C625.269 473.378 625.537 474.129 625.537 475.112V479.291H624.372V475.28C624.372 474.573 624.195 474.034 623.842 473.663C623.488 473.283 623.005 473.094 622.393 473.094C621.772 473.094 621.276 473.288 620.905 473.676C620.543 474.064 620.361 474.629 620.361 475.371V479.291H619.184V472.201H620.361V473.21C620.594 472.848 620.909 472.567 621.306 472.369C621.711 472.171 622.156 472.071 622.639 472.071Z" fill="#363E49"/>
<rect x="576.124" y="256.123" width="51.7531" height="51.7531" rx="25.8765" fill="#F3EBFE"/>
<path d="M595.532 281.996H608.47" stroke="#11002A" stroke-width="1.61728" stroke-linecap="round" stroke-linejoin="round"/>
<line x1="462.293" y1="60.6861" x2="586.285" y2="260.151" stroke="#F2F4F7" stroke-width="1.07819"/>
<line y1="-0.539095" x2="234.862" y2="-0.539095" transform="matrix(0.527934 -0.849285 -0.849285 -0.527934 461.835 503.029)" stroke="#F2F4F7" stroke-width="1.07819"/>
<line x1="755.541" y1="75.3028" x2="620.767" y2="262.908" stroke="#F2F4F7" stroke-width="1.07819"/>
<line y1="-0.539095" x2="230.997" y2="-0.539095" transform="matrix(-0.583444 -0.812154 -0.812154 0.583444 755.103 489.012)" stroke="#F2F4F7" stroke-width="1.07819"/>
<line x1="340" y1="281.461" x2="576.123" y2="281.461" stroke="#F2F4F7" stroke-width="1.07819"/>
<line x1="627.876" y1="281.461" x2="864" y2="281.461" stroke="#F2F4F7" stroke-width="1.07819"/>
<rect x="582.218" y="79.3008" width="39.5638" height="40.5638" rx="8.62551" fill="#F2F4F7"/>
<path d="M599.327 102.077H595.394L594.669 104.082H593.427L596.687 95.1158H598.046L601.293 104.082H600.051L599.327 102.077ZM598.99 101.119L597.36 96.5649L595.73 101.119H598.99ZM602.275 100.511C602.275 99.7865 602.421 99.1526 602.714 98.6091C603.008 98.0571 603.409 97.6301 603.918 97.3283C604.435 97.0264 605.009 96.8754 605.638 96.8754C606.26 96.8754 606.799 97.0091 607.256 97.2765C607.713 97.5439 608.054 97.8803 608.278 98.2857V96.9919H609.468V104.082H608.278V102.762C608.045 103.176 607.696 103.521 607.23 103.797C606.773 104.065 606.238 104.198 605.626 104.198C604.996 104.198 604.427 104.043 603.918 103.733C603.409 103.422 603.008 102.987 602.714 102.426C602.421 101.865 602.275 101.227 602.275 100.511ZM608.278 100.524C608.278 99.9892 608.17 99.5234 607.954 99.1267C607.739 98.7299 607.446 98.428 607.075 98.221C606.712 98.0054 606.311 97.8975 605.871 97.8975C605.431 97.8975 605.03 98.001 604.668 98.2081C604.306 98.4151 604.017 98.717 603.801 99.1137C603.586 99.5105 603.478 99.9763 603.478 100.511C603.478 101.054 603.586 101.529 603.801 101.934C604.017 102.331 604.306 102.637 604.668 102.853C605.03 103.06 605.431 103.163 605.871 103.163C606.311 103.163 606.712 103.06 607.075 102.853C607.446 102.637 607.739 102.331 607.954 101.934C608.17 101.529 608.278 101.059 608.278 100.524Z" fill="#8094AE"/>
<path d="M570.047 133.472V134.43H567.588V142.49H566.411V134.43H563.94V133.472H570.047ZM577.965 138.673C577.965 138.898 577.952 139.135 577.926 139.385H572.259C572.303 140.084 572.54 140.631 572.971 141.028C573.411 141.416 573.941 141.61 574.562 141.61C575.071 141.61 575.494 141.494 575.83 141.261C576.175 141.02 576.417 140.7 576.555 140.304H577.823C577.633 140.985 577.254 141.541 576.684 141.973C576.115 142.395 575.408 142.607 574.562 142.607C573.89 142.607 573.286 142.456 572.751 142.154C572.225 141.852 571.811 141.425 571.509 140.873C571.207 140.312 571.056 139.665 571.056 138.932C571.056 138.199 571.203 137.556 571.496 137.004C571.789 136.452 572.199 136.03 572.725 135.736C573.26 135.435 573.872 135.284 574.562 135.284C575.235 135.284 575.83 135.43 576.348 135.724C576.865 136.017 577.262 136.422 577.538 136.94C577.823 137.449 577.965 138.027 577.965 138.673ZM576.749 138.428C576.749 137.979 576.65 137.595 576.451 137.276C576.253 136.948 575.981 136.703 575.636 136.539C575.3 136.366 574.925 136.28 574.511 136.28C573.916 136.28 573.407 136.47 572.984 136.849C572.57 137.229 572.333 137.755 572.272 138.428H576.749ZM583.22 142.49L581.538 139.851L579.92 142.49H578.691L580.981 138.971L578.691 135.4H580.024L581.706 138.027L583.31 135.4H584.539L582.262 138.906L584.552 142.49H583.22ZM587.147 136.37V140.549C587.147 140.895 587.22 141.14 587.367 141.287C587.513 141.425 587.768 141.494 588.13 141.494H588.997V142.49H587.936C587.28 142.49 586.789 142.339 586.461 142.037C586.133 141.736 585.969 141.24 585.969 140.549V136.37H585.051V135.4H585.969V133.615H587.147V135.4H588.997V136.37H587.147ZM599.203 140.485H595.27L594.545 142.49H593.303L596.564 133.524H597.922L601.17 142.49H599.928L599.203 140.485ZM598.867 139.527L597.237 134.973L595.606 139.527H598.867ZM606.045 135.271C606.908 135.271 607.607 135.534 608.141 136.06C608.676 136.577 608.944 137.328 608.944 138.311V142.49H607.779V138.479C607.779 137.772 607.602 137.233 607.249 136.862C606.895 136.483 606.412 136.293 605.8 136.293C605.179 136.293 604.683 136.487 604.312 136.875C603.949 137.263 603.768 137.828 603.768 138.57V142.49H602.591V135.4H603.768V136.409C604.001 136.047 604.316 135.767 604.713 135.568C605.118 135.37 605.562 135.271 606.045 135.271ZM613.377 142.607C612.833 142.607 612.346 142.516 611.915 142.335C611.484 142.145 611.143 141.886 610.893 141.559C610.643 141.222 610.505 140.838 610.479 140.407H611.695C611.729 140.761 611.893 141.05 612.187 141.274C612.488 141.498 612.881 141.61 613.364 141.61C613.812 141.61 614.166 141.511 614.425 141.313C614.684 141.114 614.813 140.864 614.813 140.562C614.813 140.252 614.675 140.023 614.399 139.877C614.123 139.721 613.696 139.57 613.118 139.424C612.592 139.286 612.161 139.148 611.824 139.01C611.496 138.863 611.212 138.652 610.97 138.376C610.737 138.091 610.621 137.72 610.621 137.263C610.621 136.901 610.729 136.569 610.944 136.267C611.16 135.965 611.466 135.728 611.863 135.555C612.26 135.374 612.713 135.284 613.222 135.284C614.006 135.284 614.64 135.482 615.123 135.879C615.607 136.276 615.865 136.819 615.9 137.509H614.722C614.697 137.138 614.546 136.841 614.27 136.616C614.002 136.392 613.64 136.28 613.183 136.28C612.76 136.28 612.424 136.37 612.174 136.552C611.923 136.733 611.798 136.97 611.798 137.263C611.798 137.496 611.872 137.69 612.018 137.845C612.174 137.992 612.363 138.113 612.588 138.208C612.82 138.294 613.14 138.393 613.545 138.505C614.054 138.643 614.468 138.781 614.787 138.919C615.106 139.049 615.378 139.247 615.602 139.514C615.835 139.782 615.956 140.131 615.964 140.562C615.964 140.951 615.857 141.3 615.641 141.61C615.425 141.921 615.119 142.167 614.722 142.348C614.334 142.52 613.886 142.607 613.377 142.607ZM627.071 135.4L624.859 142.49H623.643L621.935 136.862L620.227 142.49H619.011L616.786 135.4H617.989L619.619 141.352L621.379 135.4H622.582L624.303 141.365L625.907 135.4H627.071ZM634.709 138.673C634.709 138.898 634.696 139.135 634.67 139.385H629.003C629.046 140.084 629.284 140.631 629.715 141.028C630.155 141.416 630.685 141.61 631.306 141.61C631.815 141.61 632.238 141.494 632.574 141.261C632.919 141.02 633.161 140.7 633.299 140.304H634.567C634.377 140.985 633.998 141.541 633.428 141.973C632.859 142.395 632.152 142.607 631.306 142.607C630.634 142.607 630.03 142.456 629.495 142.154C628.969 141.852 628.555 141.425 628.253 140.873C627.951 140.312 627.8 139.665 627.8 138.932C627.8 138.199 627.947 137.556 628.24 137.004C628.533 136.452 628.943 136.03 629.469 135.736C630.004 135.435 630.616 135.284 631.306 135.284C631.979 135.284 632.574 135.43 633.092 135.724C633.609 136.017 634.006 136.422 634.282 136.94C634.567 137.449 634.709 138.027 634.709 138.673ZM633.493 138.428C633.493 137.979 633.394 137.595 633.195 137.276C632.997 136.948 632.725 136.703 632.38 136.539C632.044 136.366 631.669 136.28 631.255 136.28C630.659 136.28 630.151 136.47 629.728 136.849C629.314 137.229 629.077 137.755 629.016 138.428H633.493ZM637.441 136.552C637.648 136.146 637.941 135.831 638.32 135.607C638.709 135.383 639.179 135.271 639.731 135.271V136.487H639.42C638.1 136.487 637.441 137.203 637.441 138.635V142.49H636.263V135.4H637.441V136.552Z" fill="#363E49"/>
<path d="M712.596 234.635C712.001 234.635 711.466 234.532 710.992 234.325C710.526 234.109 710.16 233.816 709.892 233.445C709.625 233.066 709.487 232.63 709.478 232.138H710.733C710.776 232.561 710.949 232.919 711.251 233.212C711.561 233.497 712.01 233.639 712.596 233.639C713.157 233.639 713.597 233.501 713.916 233.225C714.244 232.941 714.408 232.578 714.408 232.138C714.408 231.793 714.313 231.513 714.123 231.297C713.933 231.082 713.696 230.918 713.411 230.806C713.127 230.694 712.743 230.573 712.26 230.443C711.665 230.288 711.186 230.133 710.824 229.978C710.47 229.822 710.164 229.581 709.905 229.253C709.655 228.917 709.53 228.468 709.53 227.908C709.53 227.416 709.655 226.98 709.905 226.601C710.155 226.221 710.505 225.928 710.953 225.721C711.41 225.514 711.932 225.411 712.519 225.411C713.364 225.411 714.054 225.622 714.589 226.044C715.132 226.467 715.438 227.028 715.507 227.726H714.214C714.17 227.381 713.989 227.08 713.67 226.821C713.351 226.553 712.928 226.42 712.402 226.42C711.911 226.42 711.51 226.549 711.199 226.808C710.888 227.058 710.733 227.412 710.733 227.869C710.733 228.197 710.824 228.464 711.005 228.671C711.195 228.878 711.423 229.038 711.691 229.15C711.967 229.253 712.351 229.374 712.842 229.512C713.437 229.676 713.916 229.84 714.278 230.004C714.641 230.159 714.951 230.405 715.21 230.741C715.469 231.069 715.598 231.517 715.598 232.087C715.598 232.527 715.482 232.941 715.249 233.329C715.016 233.717 714.671 234.032 714.214 234.273C713.756 234.515 713.217 234.635 712.596 234.635ZM717.939 226.303C717.714 226.303 717.525 226.226 717.369 226.07C717.214 225.915 717.137 225.725 717.137 225.501C717.137 225.277 717.214 225.087 717.369 224.932C717.525 224.777 717.714 224.699 717.939 224.699C718.154 224.699 718.335 224.777 718.482 224.932C718.637 225.087 718.715 225.277 718.715 225.501C718.715 225.725 718.637 225.915 718.482 226.07C718.335 226.226 718.154 226.303 717.939 226.303ZM718.508 227.455V234.545H717.331V227.455H718.508ZM723.969 227.325C724.832 227.325 725.53 227.588 726.065 228.115C726.6 228.632 726.867 229.383 726.867 230.366V234.545H725.703V230.534C725.703 229.827 725.526 229.288 725.172 228.917C724.819 228.537 724.336 228.347 723.723 228.347C723.102 228.347 722.606 228.542 722.235 228.93C721.873 229.318 721.692 229.883 721.692 230.625V234.545H720.515V227.455H721.692V228.464C721.925 228.102 722.24 227.821 722.637 227.623C723.042 227.425 723.486 227.325 723.969 227.325ZM731.715 227.338C732.327 227.338 732.862 227.472 733.319 227.739C733.785 228.007 734.13 228.343 734.354 228.749V227.455H735.544V234.7C735.544 235.347 735.406 235.921 735.13 236.421C734.854 236.93 734.458 237.327 733.94 237.611C733.431 237.896 732.836 238.038 732.155 238.038C731.223 238.038 730.447 237.818 729.826 237.378C729.205 236.939 728.838 236.339 728.726 235.58H729.89C730.02 236.011 730.287 236.356 730.693 236.615C731.098 236.882 731.585 237.016 732.155 237.016C732.801 237.016 733.328 236.813 733.733 236.408C734.147 236.003 734.354 235.433 734.354 234.7V233.212C734.121 233.626 733.776 233.971 733.319 234.247C732.862 234.523 732.327 234.661 731.715 234.661C731.085 234.661 730.511 234.506 729.994 234.196C729.485 233.885 729.084 233.449 728.791 232.889C728.497 232.328 728.351 231.69 728.351 230.974C728.351 230.249 728.497 229.615 728.791 229.072C729.084 228.52 729.485 228.093 729.994 227.791C730.511 227.489 731.085 227.338 731.715 227.338ZM734.354 230.987C734.354 230.452 734.246 229.986 734.031 229.59C733.815 229.193 733.522 228.891 733.151 228.684C732.789 228.468 732.387 228.36 731.948 228.36C731.508 228.36 731.107 228.464 730.744 228.671C730.382 228.878 730.093 229.18 729.877 229.577C729.662 229.973 729.554 230.439 729.554 230.974C729.554 231.517 729.662 231.992 729.877 232.397C730.093 232.794 730.382 233.1 730.744 233.316C731.107 233.523 731.508 233.626 731.948 233.626C732.387 233.626 732.789 233.523 733.151 233.316C733.522 233.1 733.815 232.794 734.031 232.397C734.246 231.992 734.354 231.522 734.354 230.987ZM738.711 224.971V234.545H737.534V224.971H738.711ZM747.187 230.728C747.187 230.952 747.174 231.19 747.148 231.44H741.481C741.525 232.138 741.762 232.686 742.193 233.083C742.633 233.471 743.163 233.665 743.784 233.665C744.293 233.665 744.716 233.549 745.052 233.316C745.397 233.074 745.639 232.755 745.777 232.358H747.045C746.855 233.04 746.476 233.596 745.906 234.027C745.337 234.45 744.63 234.661 743.784 234.661C743.112 234.661 742.508 234.51 741.973 234.209C741.447 233.907 741.033 233.48 740.731 232.928C740.429 232.367 740.278 231.72 740.278 230.987C740.278 230.254 740.425 229.611 740.718 229.059C741.011 228.507 741.421 228.084 741.947 227.791C742.482 227.489 743.094 227.338 743.784 227.338C744.457 227.338 745.052 227.485 745.57 227.778C746.087 228.071 746.484 228.477 746.76 228.994C747.045 229.503 747.187 230.081 747.187 230.728ZM745.971 230.482C745.971 230.034 745.872 229.65 745.673 229.331C745.475 229.003 745.203 228.757 744.858 228.593C744.522 228.421 744.147 228.335 743.733 228.335C743.138 228.335 742.629 228.524 742.206 228.904C741.792 229.283 741.555 229.81 741.494 230.482H745.971ZM751.751 230.029C751.751 229.15 751.949 228.36 752.346 227.662C752.743 226.954 753.282 226.402 753.963 226.006C754.653 225.609 755.417 225.411 756.253 225.411C757.237 225.411 758.095 225.648 758.828 226.122C759.561 226.597 760.096 227.269 760.432 228.14H759.022C758.772 227.597 758.41 227.179 757.935 226.885C757.469 226.592 756.909 226.446 756.253 226.446C755.624 226.446 755.059 226.592 754.558 226.885C754.058 227.179 753.666 227.597 753.381 228.14C753.096 228.675 752.954 229.305 752.954 230.029C752.954 230.745 753.096 231.375 753.381 231.918C753.666 232.453 754.058 232.867 754.558 233.161C755.059 233.454 755.624 233.6 756.253 233.6C756.909 233.6 757.469 233.458 757.935 233.173C758.41 232.88 758.772 232.462 759.022 231.918H760.432C760.096 232.781 759.561 233.449 758.828 233.924C758.095 234.39 757.237 234.623 756.253 234.623C755.417 234.623 754.653 234.428 753.963 234.04C753.282 233.644 752.743 233.096 752.346 232.397C751.949 231.699 751.751 230.909 751.751 230.029ZM765.704 227.325C766.239 227.325 766.722 227.442 767.153 227.675C767.585 227.899 767.921 228.24 768.162 228.697C768.413 229.154 768.538 229.71 768.538 230.366V234.545H767.373V230.534C767.373 229.827 767.196 229.288 766.843 228.917C766.489 228.537 766.006 228.347 765.394 228.347C764.773 228.347 764.277 228.542 763.906 228.93C763.543 229.318 763.362 229.883 763.362 230.625V234.545H762.185V224.971H763.362V228.464C763.595 228.102 763.914 227.821 764.32 227.623C764.734 227.425 765.195 227.325 765.704 227.325ZM773.553 234.661C772.889 234.661 772.285 234.51 771.742 234.209C771.207 233.907 770.784 233.48 770.474 232.928C770.172 232.367 770.021 231.72 770.021 230.987C770.021 230.262 770.176 229.624 770.487 229.072C770.806 228.511 771.237 228.084 771.781 227.791C772.324 227.489 772.932 227.338 773.605 227.338C774.278 227.338 774.886 227.489 775.429 227.791C775.973 228.084 776.4 228.507 776.71 229.059C777.029 229.611 777.189 230.254 777.189 230.987C777.189 231.72 777.025 232.367 776.697 232.928C776.378 233.48 775.942 233.907 775.39 234.209C774.838 234.51 774.226 234.661 773.553 234.661ZM773.553 233.626C773.976 233.626 774.373 233.527 774.743 233.329C775.114 233.13 775.412 232.833 775.636 232.436C775.869 232.039 775.986 231.556 775.986 230.987C775.986 230.418 775.873 229.935 775.649 229.538C775.425 229.141 775.132 228.848 774.769 228.658C774.407 228.46 774.015 228.36 773.592 228.36C773.161 228.36 772.764 228.46 772.402 228.658C772.048 228.848 771.763 229.141 771.548 229.538C771.332 229.935 771.224 230.418 771.224 230.987C771.224 231.565 771.328 232.052 771.535 232.449C771.75 232.846 772.035 233.143 772.389 233.342C772.742 233.531 773.131 233.626 773.553 233.626ZM779.345 226.303C779.121 226.303 778.931 226.226 778.776 226.07C778.62 225.915 778.543 225.725 778.543 225.501C778.543 225.277 778.62 225.087 778.776 224.932C778.931 224.777 779.121 224.699 779.345 224.699C779.561 224.699 779.742 224.777 779.888 224.932C780.044 225.087 780.121 225.277 780.121 225.501C780.121 225.725 780.044 225.915 779.888 226.07C779.742 226.226 779.561 226.303 779.345 226.303ZM779.914 227.455V234.545H778.737V227.455H779.914ZM781.481 230.987C781.481 230.254 781.628 229.615 781.921 229.072C782.214 228.52 782.62 228.093 783.137 227.791C783.663 227.489 784.263 227.338 784.936 227.338C785.807 227.338 786.523 227.55 787.083 227.972C787.653 228.395 788.028 228.981 788.209 229.732H786.941C786.82 229.301 786.583 228.96 786.229 228.71C785.884 228.46 785.453 228.335 784.936 228.335C784.263 228.335 783.719 228.567 783.305 229.033C782.891 229.49 782.684 230.142 782.684 230.987C782.684 231.841 782.891 232.501 783.305 232.966C783.719 233.432 784.263 233.665 784.936 233.665C785.453 233.665 785.884 233.544 786.229 233.303C786.574 233.061 786.812 232.716 786.941 232.268H788.209C788.019 232.992 787.64 233.575 787.07 234.014C786.501 234.446 785.789 234.661 784.936 234.661C784.263 234.661 783.663 234.51 783.137 234.209C782.62 233.907 782.214 233.48 781.921 232.928C781.628 232.376 781.481 231.729 781.481 230.987ZM796.249 230.728C796.249 230.952 796.236 231.19 796.21 231.44H790.543C790.586 232.138 790.824 232.686 791.255 233.083C791.695 233.471 792.225 233.665 792.846 233.665C793.355 233.665 793.778 233.549 794.114 233.316C794.459 233.074 794.701 232.755 794.839 232.358H796.107C795.917 233.04 795.537 233.596 794.968 234.027C794.399 234.45 793.692 234.661 792.846 234.661C792.173 234.661 791.57 234.51 791.035 234.209C790.509 233.907 790.095 233.48 789.793 232.928C789.491 232.367 789.34 231.72 789.34 230.987C789.34 230.254 789.487 229.611 789.78 229.059C790.073 228.507 790.483 228.084 791.009 227.791C791.544 227.489 792.156 227.338 792.846 227.338C793.519 227.338 794.114 227.485 794.632 227.778C795.149 228.071 795.546 228.477 795.822 228.994C796.107 229.503 796.249 230.081 796.249 230.728ZM795.033 230.482C795.033 230.034 794.934 229.65 794.735 229.331C794.537 229.003 794.265 228.757 793.92 228.593C793.584 228.421 793.209 228.335 792.795 228.335C792.199 228.335 791.69 228.524 791.268 228.904C790.854 229.283 790.617 229.81 790.556 230.482H795.033Z" fill="#363E49"/>
<path d="M713.493 372.222V381.176H712.316V374.5L709.34 381.176H708.512L705.523 374.487V381.176H704.346V372.222H705.614L708.926 379.623L712.238 372.222H713.493ZM721.778 374.086V381.176H720.601V380.128C720.376 380.49 720.061 380.775 719.656 380.982C719.259 381.18 718.819 381.279 718.336 381.279C717.784 381.279 717.288 381.167 716.848 380.943C716.409 380.71 716.059 380.365 715.8 379.908C715.55 379.451 715.425 378.894 715.425 378.239V374.086H716.59V378.084C716.59 378.782 716.767 379.321 717.12 379.701C717.474 380.072 717.957 380.257 718.569 380.257C719.199 380.257 719.695 380.063 720.057 379.675C720.419 379.287 720.601 378.722 720.601 377.98V374.086H721.778ZM724.943 371.601V381.176H723.766V371.601H724.943ZM728.386 375.056V379.235C728.386 379.58 728.459 379.826 728.606 379.973C728.753 380.111 729.007 380.18 729.369 380.18H730.236V381.176H729.175C728.52 381.176 728.028 381.025 727.7 380.723C727.373 380.421 727.209 379.925 727.209 379.235V375.056H726.29V374.086H727.209V372.3H728.386V374.086H730.236V375.056H728.386ZM732.271 372.934C732.047 372.934 731.857 372.856 731.702 372.701C731.546 372.546 731.469 372.356 731.469 372.132C731.469 371.908 731.546 371.718 731.702 371.563C731.857 371.407 732.047 371.33 732.271 371.33C732.487 371.33 732.668 371.407 732.814 371.563C732.97 371.718 733.047 371.908 733.047 372.132C733.047 372.356 732.97 372.546 732.814 372.701C732.668 372.856 732.487 372.934 732.271 372.934ZM732.84 374.086V381.176H731.663V374.086H732.84ZM736.024 375.392C736.257 374.987 736.602 374.651 737.059 374.383C737.525 374.107 738.064 373.969 738.677 373.969C739.306 373.969 739.875 374.12 740.384 374.422C740.902 374.724 741.307 375.151 741.601 375.703C741.894 376.246 742.04 376.88 742.04 377.605C742.04 378.321 741.894 378.959 741.601 379.52C741.307 380.08 740.902 380.516 740.384 380.826C739.875 381.137 739.306 381.292 738.677 381.292C738.073 381.292 737.538 381.159 737.072 380.891C736.615 380.615 736.266 380.274 736.024 379.869V384.54H734.847V374.086H736.024V375.392ZM740.837 377.605C740.837 377.07 740.729 376.604 740.514 376.207C740.298 375.811 740.005 375.509 739.634 375.302C739.272 375.095 738.871 374.991 738.431 374.991C737.999 374.991 737.598 375.099 737.227 375.315C736.865 375.522 736.572 375.828 736.348 376.233C736.132 376.63 736.024 377.092 736.024 377.618C736.024 378.153 736.132 378.623 736.348 379.028C736.572 379.425 736.865 379.731 737.227 379.947C737.598 380.154 737.999 380.257 738.431 380.257C738.871 380.257 739.272 380.154 739.634 379.947C740.005 379.731 740.298 379.425 740.514 379.028C740.729 378.623 740.837 378.148 740.837 377.605ZM744.768 371.601V381.176H743.59V371.601H744.768ZM753.243 377.359C753.243 377.583 753.23 377.82 753.205 378.071H747.538C747.581 378.769 747.818 379.317 748.249 379.714C748.689 380.102 749.22 380.296 749.841 380.296C750.35 380.296 750.772 380.18 751.109 379.947C751.454 379.705 751.695 379.386 751.833 378.989H753.101C752.911 379.671 752.532 380.227 751.963 380.658C751.393 381.081 750.686 381.292 749.841 381.292C749.168 381.292 748.564 381.141 748.029 380.839C747.503 380.537 747.089 380.111 746.787 379.558C746.485 378.998 746.334 378.351 746.334 377.618C746.334 376.885 746.481 376.242 746.774 375.69C747.068 375.138 747.477 374.715 748.003 374.422C748.538 374.12 749.151 373.969 749.841 373.969C750.513 373.969 751.109 374.116 751.626 374.409C752.144 374.702 752.54 375.108 752.816 375.625C753.101 376.134 753.243 376.712 753.243 377.359ZM752.027 377.113C752.027 376.665 751.928 376.281 751.73 375.962C751.531 375.634 751.26 375.388 750.915 375.224C750.578 375.052 750.203 374.965 749.789 374.965C749.194 374.965 748.685 375.155 748.262 375.535C747.848 375.914 747.611 376.44 747.551 377.113H752.027ZM757.807 376.66C757.807 375.781 758.005 374.991 758.402 374.293C758.799 373.585 759.338 373.033 760.019 372.637C760.709 372.24 761.473 372.041 762.31 372.041C763.293 372.041 764.151 372.279 764.884 372.753C765.617 373.227 766.152 373.9 766.489 374.771H765.078C764.828 374.228 764.466 373.81 763.991 373.516C763.526 373.223 762.965 373.076 762.31 373.076C761.68 373.076 761.115 373.223 760.615 373.516C760.114 373.81 759.722 374.228 759.437 374.771C759.153 375.306 759.01 375.936 759.01 376.66C759.01 377.376 759.153 378.006 759.437 378.549C759.722 379.084 760.114 379.498 760.615 379.791C761.115 380.085 761.68 380.231 762.31 380.231C762.965 380.231 763.526 380.089 763.991 379.804C764.466 379.511 764.828 379.093 765.078 378.549H766.489C766.152 379.412 765.617 380.08 764.884 380.555C764.151 381.021 763.293 381.253 762.31 381.253C761.473 381.253 760.709 381.059 760.019 380.671C759.338 380.274 758.799 379.727 758.402 379.028C758.005 378.329 757.807 377.54 757.807 376.66ZM771.76 373.956C772.295 373.956 772.778 374.073 773.21 374.306C773.641 374.53 773.977 374.871 774.219 375.328C774.469 375.785 774.594 376.341 774.594 376.997V381.176H773.429V377.165C773.429 376.458 773.253 375.919 772.899 375.548C772.545 375.168 772.062 374.978 771.45 374.978C770.829 374.978 770.333 375.172 769.962 375.561C769.6 375.949 769.419 376.514 769.419 377.255V381.176H768.241V371.601H769.419V375.095C769.651 374.733 769.971 374.452 770.376 374.254C770.79 374.055 771.252 373.956 771.76 373.956ZM779.609 381.292C778.945 381.292 778.341 381.141 777.798 380.839C777.263 380.537 776.841 380.111 776.53 379.558C776.228 378.998 776.077 378.351 776.077 377.618C776.077 376.893 776.233 376.255 776.543 375.703C776.862 375.142 777.293 374.715 777.837 374.422C778.38 374.12 778.988 373.969 779.661 373.969C780.334 373.969 780.942 374.12 781.485 374.422C782.029 374.715 782.456 375.138 782.766 375.69C783.085 376.242 783.245 376.885 783.245 377.618C783.245 378.351 783.081 378.998 782.753 379.558C782.434 380.111 781.999 380.537 781.447 380.839C780.895 381.141 780.282 381.292 779.609 381.292ZM779.609 380.257C780.032 380.257 780.429 380.158 780.8 379.96C781.171 379.761 781.468 379.464 781.692 379.067C781.925 378.67 782.042 378.187 782.042 377.618C782.042 377.048 781.93 376.565 781.705 376.169C781.481 375.772 781.188 375.479 780.826 375.289C780.463 375.09 780.071 374.991 779.648 374.991C779.217 374.991 778.82 375.09 778.458 375.289C778.104 375.479 777.82 375.772 777.604 376.169C777.388 376.565 777.281 377.048 777.281 377.618C777.281 378.196 777.384 378.683 777.591 379.08C777.807 379.477 778.091 379.774 778.445 379.973C778.799 380.162 779.187 380.257 779.609 380.257ZM785.401 372.934C785.177 372.934 784.987 372.856 784.832 372.701C784.677 372.546 784.599 372.356 784.599 372.132C784.599 371.908 784.677 371.718 784.832 371.563C784.987 371.407 785.177 371.33 785.401 371.33C785.617 371.33 785.798 371.407 785.945 371.563C786.1 371.718 786.177 371.908 786.177 372.132C786.177 372.356 786.1 372.546 785.945 372.701C785.798 372.856 785.617 372.934 785.401 372.934ZM785.97 374.086V381.176H784.793V374.086H785.97ZM787.537 377.618C787.537 376.885 787.684 376.246 787.977 375.703C788.27 375.151 788.676 374.724 789.193 374.422C789.719 374.12 790.319 373.969 790.992 373.969C791.863 373.969 792.579 374.18 793.139 374.603C793.709 375.026 794.084 375.612 794.265 376.363H792.997C792.876 375.931 792.639 375.591 792.286 375.341C791.941 375.09 791.509 374.965 790.992 374.965C790.319 374.965 789.776 375.198 789.362 375.664C788.947 376.121 788.74 376.772 788.74 377.618C788.74 378.472 788.947 379.132 789.362 379.597C789.776 380.063 790.319 380.296 790.992 380.296C791.509 380.296 791.941 380.175 792.286 379.934C792.631 379.692 792.868 379.347 792.997 378.899H794.265C794.075 379.623 793.696 380.205 793.127 380.645C792.557 381.077 791.846 381.292 790.992 381.292C790.319 381.292 789.719 381.141 789.193 380.839C788.676 380.537 788.27 380.111 787.977 379.558C787.684 379.006 787.537 378.36 787.537 377.618ZM802.305 377.359C802.305 377.583 802.292 377.82 802.266 378.071H796.599C796.643 378.769 796.88 379.317 797.311 379.714C797.751 380.102 798.281 380.296 798.902 380.296C799.411 380.296 799.834 380.18 800.17 379.947C800.515 379.705 800.757 379.386 800.895 378.989H802.163C801.973 379.671 801.594 380.227 801.024 380.658C800.455 381.081 799.748 381.292 798.902 381.292C798.23 381.292 797.626 381.141 797.091 380.839C796.565 380.537 796.151 380.111 795.849 379.558C795.547 378.998 795.396 378.351 795.396 377.618C795.396 376.885 795.543 376.242 795.836 375.69C796.129 375.138 796.539 374.715 797.065 374.422C797.6 374.12 798.212 373.969 798.902 373.969C799.575 373.969 800.17 374.116 800.688 374.409C801.205 374.702 801.602 375.108 801.878 375.625C802.163 376.134 802.305 376.712 802.305 377.359ZM801.089 377.113C801.089 376.665 800.99 376.281 800.791 375.962C800.593 375.634 800.321 375.388 799.976 375.224C799.64 375.052 799.265 374.965 798.851 374.965C798.256 374.965 797.747 375.155 797.324 375.535C796.91 375.914 796.673 376.44 796.612 377.113H801.089Z" fill="#363E49"/>
<rect x="438.722" y="172.025" width="38.8148" height="38.8148" rx="8.62551" fill="#F2F4F7"/>
<path d="M462.198 198.563C462.123 198.563 462.036 198.556 461.937 198.538C462.198 198.583 462.506 198.571 462.749 198.398L462.436 197.959L462.749 198.398C462.798 198.363 462.842 198.323 462.88 198.28C462.836 198.33 462.794 198.366 462.757 198.393C462.649 198.471 462.47 198.563 462.198 198.563ZM463.136 197.657C463.167 197.426 463.156 197.152 463.101 196.84C463.166 197.203 463.164 197.482 463.131 197.694C463.133 197.682 463.135 197.669 463.136 197.657ZM464.976 189.419C465.108 189.537 465.186 189.658 465.231 189.757C465.12 189.526 464.926 189.364 464.737 189.256C464.513 189.128 464.242 189.043 463.953 188.996C463.953 188.996 463.952 188.996 463.952 188.996L461.663 188.615C461.662 188.615 461.662 188.615 461.662 188.615C461.486 188.585 461.274 188.492 461.076 188.346C461.009 188.297 460.948 188.244 460.893 188.19C460.952 188.247 461.012 188.297 461.069 188.339C461.22 188.45 461.431 188.57 461.657 188.608L461.657 188.608L463.949 188.988C463.949 188.988 463.95 188.988 463.95 188.989C464.486 189.078 464.796 189.258 464.976 189.419ZM458.13 196.709C458.281 196.709 458.428 196.73 458.56 196.767C458.412 196.727 458.262 196.712 458.131 196.712C457.979 196.712 457.799 196.732 457.627 196.791C457.774 196.739 457.947 196.709 458.13 196.709ZM454.33 198.535C454.427 198.518 454.528 198.492 454.635 198.456C454.383 198.542 454.182 198.565 454.029 198.561C453.77 198.553 453.601 198.465 453.503 198.394C453.409 198.324 453.274 198.19 453.188 197.944C453.1 197.695 453.048 197.287 453.199 196.645L453.2 196.643L453.709 194.44C453.768 194.198 453.73 193.939 453.674 193.745C453.616 193.547 453.51 193.31 453.336 193.136L451.553 191.353C451.169 190.969 451.022 190.644 450.969 190.409C450.916 190.172 450.95 189.988 450.987 189.875C451.025 189.76 451.107 189.589 451.289 189.426C451.47 189.264 451.779 189.085 452.311 188.996C452.311 188.996 452.311 188.996 452.311 188.996L453.653 188.773L452.315 188.996C452.315 188.996 452.314 188.996 452.314 188.996C452.024 189.043 451.754 189.128 451.53 189.256C451.312 189.381 451.088 189.577 450.991 189.868C450.891 190.169 450.966 190.468 451.072 190.694C451.182 190.928 451.355 191.152 451.562 191.356L453.343 193.136C453.481 193.275 453.605 193.491 453.677 193.744C453.75 193.997 453.76 194.246 453.716 194.439C453.716 194.439 453.716 194.439 453.716 194.439L453.206 196.644C453.206 196.644 453.206 196.644 453.206 196.644C453.113 197.043 453.09 197.383 453.129 197.663C453.164 197.922 453.268 198.219 453.518 198.398C453.764 198.574 454.073 198.58 454.33 198.535ZM456.885 185.336L456.135 186.827L456.887 185.327L456.887 185.327L456.888 185.326C457.137 184.824 457.404 184.575 457.614 184.448C457.825 184.32 458.012 184.295 458.13 184.295C458.248 184.295 458.435 184.32 458.646 184.448C458.775 184.526 458.926 184.651 459.082 184.853C459.023 184.777 458.96 184.708 458.894 184.645C458.712 184.471 458.451 184.302 458.13 184.302C457.809 184.302 457.547 184.471 457.365 184.646C457.176 184.827 457.015 185.067 456.885 185.336Z" fill="#8094AE" stroke="#8094AE" stroke-width="1.07819"/>
<path d="M423.374 233.465L421.226 229.777H419.803V233.465H418.626V224.447H421.537C422.218 224.447 422.792 224.563 423.258 224.796C423.732 225.029 424.086 225.344 424.318 225.741C424.551 226.137 424.668 226.59 424.668 227.099C424.668 227.72 424.487 228.268 424.124 228.742C423.771 229.217 423.236 229.532 422.52 229.687L424.784 233.465H423.374ZM419.803 228.833H421.537C422.175 228.833 422.654 228.678 422.973 228.367C423.292 228.048 423.452 227.625 423.452 227.099C423.452 226.564 423.292 226.15 422.973 225.857C422.662 225.564 422.184 225.417 421.537 225.417H419.803V228.833ZM426.057 229.894C426.057 229.169 426.204 228.535 426.497 227.992C426.791 227.44 427.192 227.013 427.701 226.711C428.218 226.409 428.792 226.258 429.421 226.258C430.042 226.258 430.581 226.392 431.039 226.659C431.496 226.927 431.836 227.263 432.061 227.668V226.375H433.251V233.465H432.061V232.145C431.828 232.559 431.478 232.904 431.013 233.18C430.556 233.448 430.021 233.581 429.408 233.581C428.779 233.581 428.209 233.426 427.701 233.116C427.192 232.805 426.791 232.369 426.497 231.809C426.204 231.248 426.057 230.61 426.057 229.894ZM432.061 229.907C432.061 229.372 431.953 228.906 431.737 228.509C431.522 228.113 431.228 227.811 430.857 227.604C430.495 227.388 430.094 227.28 429.654 227.28C429.214 227.28 428.813 227.384 428.451 227.591C428.089 227.798 427.8 228.1 427.584 228.497C427.368 228.893 427.261 229.359 427.261 229.894C427.261 230.437 427.368 230.912 427.584 231.317C427.8 231.714 428.089 232.02 428.451 232.236C428.813 232.443 429.214 232.546 429.654 232.546C430.094 232.546 430.495 232.443 430.857 232.236C431.228 232.02 431.522 231.714 431.737 231.317C431.953 230.912 432.061 230.442 432.061 229.907ZM436.677 227.345V231.524C436.677 231.869 436.75 232.115 436.897 232.262C437.043 232.4 437.298 232.469 437.66 232.469H438.527V233.465H437.466C436.811 233.465 436.319 233.314 435.991 233.012C435.663 232.71 435.499 232.214 435.499 231.524V227.345H434.581V226.375H435.499V224.589H436.677V226.375H438.527V227.345H436.677ZM440.562 225.223C440.337 225.223 440.148 225.146 439.992 224.99C439.837 224.835 439.759 224.645 439.759 224.421C439.759 224.197 439.837 224.007 439.992 223.852C440.148 223.696 440.337 223.619 440.562 223.619C440.777 223.619 440.958 223.696 441.105 223.852C441.26 224.007 441.338 224.197 441.338 224.421C441.338 224.645 441.26 224.835 441.105 224.99C440.958 225.146 440.777 225.223 440.562 225.223ZM441.131 226.375V233.465H439.954V226.375H441.131ZM446.592 226.245C447.455 226.245 448.153 226.508 448.688 227.035C449.223 227.552 449.49 228.302 449.49 229.286V233.465H448.326V229.454C448.326 228.747 448.149 228.208 447.795 227.837C447.442 227.457 446.959 227.267 446.346 227.267C445.725 227.267 445.229 227.461 444.858 227.85C444.496 228.238 444.315 228.803 444.315 229.545V233.465H443.138V226.375H444.315V227.384C444.548 227.022 444.863 226.741 445.259 226.543C445.665 226.344 446.109 226.245 446.592 226.245ZM454.338 226.258C454.95 226.258 455.485 226.392 455.942 226.659C456.408 226.927 456.753 227.263 456.977 227.668V226.375H458.167V233.62C458.167 234.267 458.029 234.841 457.753 235.341C457.477 235.85 457.081 236.247 456.563 236.531C456.054 236.816 455.459 236.958 454.777 236.958C453.846 236.958 453.07 236.738 452.449 236.298C451.828 235.858 451.461 235.259 451.349 234.5H452.513C452.643 234.931 452.91 235.276 453.315 235.535C453.721 235.802 454.208 235.936 454.777 235.936C455.424 235.936 455.951 235.733 456.356 235.328C456.77 234.923 456.977 234.353 456.977 233.62V232.132C456.744 232.546 456.399 232.891 455.942 233.167C455.485 233.443 454.95 233.581 454.338 233.581C453.708 233.581 453.134 233.426 452.617 233.116C452.108 232.805 451.707 232.369 451.414 231.809C451.12 231.248 450.974 230.61 450.974 229.894C450.974 229.169 451.12 228.535 451.414 227.992C451.707 227.44 452.108 227.013 452.617 226.711C453.134 226.409 453.708 226.258 454.338 226.258ZM456.977 229.907C456.977 229.372 456.869 228.906 456.654 228.509C456.438 228.113 456.145 227.811 455.774 227.604C455.411 227.388 455.01 227.28 454.57 227.28C454.131 227.28 453.729 227.384 453.367 227.591C453.005 227.798 452.716 228.1 452.5 228.497C452.285 228.893 452.177 229.359 452.177 229.894C452.177 230.437 452.285 230.912 452.5 231.317C452.716 231.714 453.005 232.02 453.367 232.236C453.729 232.443 454.131 232.546 454.57 232.546C455.01 232.546 455.411 232.443 455.774 232.236C456.145 232.02 456.438 231.714 456.654 231.317C456.869 230.912 456.977 230.442 456.977 229.907ZM466.466 233.555C465.871 233.555 465.336 233.452 464.861 233.245C464.396 233.029 464.029 232.736 463.762 232.365C463.494 231.986 463.356 231.55 463.348 231.058H464.603C464.646 231.481 464.818 231.839 465.12 232.132C465.431 232.417 465.879 232.559 466.466 232.559C467.026 232.559 467.466 232.421 467.785 232.145C468.113 231.86 468.277 231.498 468.277 231.058C468.277 230.713 468.182 230.433 467.992 230.217C467.803 230.002 467.565 229.838 467.281 229.726C466.996 229.614 466.612 229.493 466.129 229.363C465.534 229.208 465.055 229.053 464.693 228.898C464.34 228.742 464.033 228.501 463.775 228.173C463.524 227.837 463.399 227.388 463.399 226.828C463.399 226.336 463.524 225.9 463.775 225.521C464.025 225.141 464.374 224.848 464.823 224.641C465.28 224.434 465.802 224.33 466.388 224.33C467.233 224.33 467.923 224.542 468.458 224.964C469.002 225.387 469.308 225.948 469.377 226.646H468.083C468.04 226.301 467.859 225.999 467.54 225.741C467.22 225.473 466.798 225.34 466.272 225.34C465.78 225.34 465.379 225.469 465.068 225.728C464.758 225.978 464.603 226.332 464.603 226.789C464.603 227.116 464.693 227.384 464.874 227.591C465.064 227.798 465.293 227.957 465.56 228.07C465.836 228.173 466.22 228.294 466.712 228.432C467.307 228.596 467.785 228.76 468.148 228.924C468.51 229.079 468.82 229.325 469.079 229.661C469.338 229.989 469.467 230.437 469.467 231.007C469.467 231.446 469.351 231.86 469.118 232.249C468.885 232.637 468.54 232.952 468.083 233.193C467.626 233.435 467.087 233.555 466.466 233.555ZM470.76 229.907C470.76 229.174 470.907 228.535 471.2 227.992C471.493 227.44 471.899 227.013 472.416 226.711C472.942 226.409 473.542 226.258 474.215 226.258C475.086 226.258 475.802 226.47 476.362 226.892C476.932 227.315 477.307 227.901 477.488 228.652H476.22C476.099 228.221 475.862 227.88 475.508 227.63C475.163 227.38 474.732 227.254 474.215 227.254C473.542 227.254 472.998 227.487 472.584 227.953C472.17 228.41 471.963 229.062 471.963 229.907C471.963 230.761 472.17 231.421 472.584 231.886C472.998 232.352 473.542 232.585 474.215 232.585C474.732 232.585 475.163 232.464 475.508 232.223C475.853 231.981 476.091 231.636 476.22 231.188H477.488C477.298 231.912 476.919 232.494 476.349 232.934C475.78 233.366 475.069 233.581 474.215 233.581C473.542 233.581 472.942 233.43 472.416 233.128C471.899 232.827 471.493 232.4 471.2 231.848C470.907 231.296 470.76 230.649 470.76 229.907ZM478.619 229.894C478.619 229.169 478.766 228.535 479.059 227.992C479.352 227.44 479.753 227.013 480.262 226.711C480.78 226.409 481.353 226.258 481.983 226.258C482.604 226.258 483.143 226.392 483.6 226.659C484.057 226.927 484.398 227.263 484.622 227.668V226.375H485.813V233.465H484.622V232.145C484.39 232.559 484.04 232.904 483.574 233.18C483.117 233.448 482.583 233.581 481.97 233.581C481.34 233.581 480.771 233.426 480.262 233.116C479.753 232.805 479.352 232.369 479.059 231.809C478.766 231.248 478.619 230.61 478.619 229.894ZM484.622 229.907C484.622 229.372 484.515 228.906 484.299 228.509C484.083 228.113 483.79 227.811 483.419 227.604C483.057 227.388 482.656 227.28 482.216 227.28C481.776 227.28 481.375 227.384 481.013 227.591C480.65 227.798 480.361 228.1 480.146 228.497C479.93 228.893 479.822 229.359 479.822 229.894C479.822 230.437 479.93 230.912 480.146 231.317C480.361 231.714 480.65 232.02 481.013 232.236C481.375 232.443 481.776 232.546 482.216 232.546C482.656 232.546 483.057 232.443 483.419 232.236C483.79 232.02 484.083 231.714 484.299 231.317C484.515 230.912 484.622 230.442 484.622 229.907ZM488.98 223.891V233.465H487.802V223.891H488.98ZM497.456 229.648C497.456 229.872 497.443 230.11 497.417 230.36H491.75C491.793 231.058 492.03 231.606 492.461 232.003C492.901 232.391 493.432 232.585 494.053 232.585C494.562 232.585 494.984 232.469 495.321 232.236C495.666 231.994 495.907 231.675 496.045 231.278H497.313C497.124 231.96 496.744 232.516 496.175 232.947C495.605 233.37 494.898 233.581 494.053 233.581C493.38 233.581 492.776 233.43 492.241 233.128C491.715 232.827 491.301 232.4 490.999 231.848C490.698 231.287 490.547 230.64 490.547 229.907C490.547 229.174 490.693 228.531 490.986 227.979C491.28 227.427 491.689 227.004 492.216 226.711C492.75 226.409 493.363 226.258 494.053 226.258C494.726 226.258 495.321 226.405 495.838 226.698C496.356 226.991 496.753 227.397 497.029 227.914C497.313 228.423 497.456 229.001 497.456 229.648ZM496.239 229.402C496.239 228.954 496.14 228.57 495.942 228.251C495.743 227.923 495.472 227.677 495.127 227.513C494.79 227.341 494.415 227.254 494.001 227.254C493.406 227.254 492.897 227.444 492.474 227.824C492.06 228.203 491.823 228.729 491.763 229.402H496.239Z" fill="#363E49"/>
<rect x="433.189" y="319.736" width="38.8148" height="38.8148" rx="8.62551" fill="#F2F4F7"/>
<path d="M452.596 342.379C454.383 342.379 455.831 340.931 455.831 339.145C455.831 337.358 454.383 335.91 452.596 335.91C450.81 335.91 449.362 337.358 449.362 339.145C449.362 340.931 450.81 342.379 452.596 342.379Z" stroke="#8094AE" stroke-width="1.07819" stroke-linecap="round" stroke-linejoin="round"/>
<path d="M445.409 339.145H449.003" stroke="#8094AE" stroke-width="1.07819" stroke-linecap="round" stroke-linejoin="round"/>
<path d="M456.19 339.145H459.784" stroke="#8094AE" stroke-width="1.07819" stroke-linecap="round" stroke-linejoin="round"/>
<path d="M397.683 381.176H396.506L391.77 373.995V381.176H390.593V372.145H391.77L396.506 379.313V372.145H397.683V381.176ZM406.159 377.359C406.159 377.583 406.146 377.82 406.12 378.071H400.454C400.497 378.769 400.734 379.317 401.165 379.714C401.605 380.102 402.135 380.296 402.757 380.296C403.265 380.296 403.688 380.18 404.024 379.947C404.369 379.705 404.611 379.386 404.749 378.989H406.017C405.827 379.671 405.448 380.227 404.878 380.658C404.309 381.081 403.602 381.292 402.757 381.292C402.084 381.292 401.48 381.141 400.945 380.839C400.419 380.537 400.005 380.111 399.703 379.558C399.401 378.998 399.25 378.351 399.25 377.618C399.25 376.885 399.397 376.242 399.69 375.69C399.983 375.138 400.393 374.715 400.919 374.422C401.454 374.12 402.066 373.969 402.757 373.969C403.429 373.969 404.024 374.116 404.542 374.409C405.06 374.702 405.456 375.108 405.732 375.625C406.017 376.134 406.159 376.712 406.159 377.359ZM404.943 377.113C404.943 376.665 404.844 376.281 404.646 375.962C404.447 375.634 404.175 375.388 403.83 375.224C403.494 375.052 403.119 374.965 402.705 374.965C402.11 374.965 401.601 375.155 401.178 375.535C400.764 375.914 400.527 376.44 400.466 377.113H404.943ZM409.15 375.056V379.235C409.15 379.58 409.223 379.826 409.369 379.973C409.516 380.111 409.771 380.18 410.133 380.18H411V381.176H409.939C409.283 381.176 408.792 381.025 408.464 380.723C408.136 380.421 407.972 379.925 407.972 379.235V375.056H407.054V374.086H407.972V372.3H409.15V374.086H411V375.056H409.15ZM421.905 374.797C421.905 375.548 421.646 376.173 421.129 376.673C420.62 377.165 419.839 377.411 418.787 377.411H417.053V381.176H415.876V372.158H418.787C419.805 372.158 420.577 372.404 421.103 372.895C421.637 373.387 421.905 374.021 421.905 374.797ZM418.787 376.44C419.442 376.44 419.925 376.298 420.236 376.013C420.546 375.729 420.702 375.323 420.702 374.797C420.702 373.685 420.063 373.128 418.787 373.128H417.053V376.44H418.787ZM424.546 375.237C424.753 374.832 425.046 374.517 425.425 374.293C425.814 374.068 426.284 373.956 426.836 373.956V375.172H426.525C425.205 375.172 424.546 375.888 424.546 377.32V381.176H423.368V374.086H424.546V375.237ZM431.287 381.292C430.623 381.292 430.019 381.141 429.476 380.839C428.941 380.537 428.518 380.111 428.208 379.558C427.906 378.998 427.755 378.351 427.755 377.618C427.755 376.893 427.91 376.255 428.221 375.703C428.54 375.142 428.971 374.715 429.514 374.422C430.058 374.12 430.666 373.969 431.339 373.969C432.012 373.969 432.62 374.12 433.163 374.422C433.706 374.715 434.133 375.138 434.444 375.69C434.763 376.242 434.923 376.885 434.923 377.618C434.923 378.351 434.759 378.998 434.431 379.558C434.112 380.111 433.676 380.537 433.124 380.839C432.572 381.141 431.96 381.292 431.287 381.292ZM431.287 380.257C431.71 380.257 432.106 380.158 432.477 379.96C432.848 379.761 433.146 379.464 433.37 379.067C433.603 378.67 433.719 378.187 433.719 377.618C433.719 377.048 433.607 376.565 433.383 376.169C433.159 375.772 432.865 375.479 432.503 375.289C432.141 375.09 431.748 374.991 431.326 374.991C430.895 374.991 430.498 375.09 430.136 375.289C429.782 375.479 429.497 375.772 429.282 376.169C429.066 376.565 428.958 377.048 428.958 377.618C428.958 378.196 429.062 378.683 429.269 379.08C429.484 379.477 429.769 379.774 430.123 379.973C430.476 380.162 430.864 380.257 431.287 380.257ZM444.997 373.956C445.549 373.956 446.041 374.073 446.472 374.306C446.903 374.53 447.244 374.871 447.494 375.328C447.744 375.785 447.869 376.341 447.869 376.997V381.176H446.705V377.165C446.705 376.458 446.528 375.919 446.174 375.548C445.829 375.168 445.359 374.978 444.764 374.978C444.152 374.978 443.664 375.177 443.302 375.574C442.94 375.962 442.759 376.527 442.759 377.268V381.176H441.594V377.165C441.594 376.458 441.417 375.919 441.064 375.548C440.719 375.168 440.249 374.978 439.654 374.978C439.041 374.978 438.554 375.177 438.192 375.574C437.829 375.962 437.648 376.527 437.648 377.268V381.176H436.471V374.086H437.648V375.108C437.881 374.737 438.192 374.452 438.58 374.254C438.976 374.055 439.412 373.956 439.886 373.956C440.482 373.956 441.008 374.09 441.465 374.357C441.922 374.625 442.263 375.017 442.487 375.535C442.685 375.034 443.013 374.646 443.47 374.37C443.927 374.094 444.436 373.956 444.997 373.956ZM452.893 381.292C452.229 381.292 451.625 381.141 451.082 380.839C450.547 380.537 450.124 380.111 449.814 379.558C449.512 378.998 449.361 378.351 449.361 377.618C449.361 376.893 449.516 376.255 449.827 375.703C450.146 375.142 450.577 374.715 451.12 374.422C451.664 374.12 452.272 373.969 452.945 373.969C453.617 373.969 454.226 374.12 454.769 374.422C455.312 374.715 455.739 375.138 456.05 375.69C456.369 376.242 456.529 376.885 456.529 377.618C456.529 378.351 456.365 378.998 456.037 379.558C455.718 380.111 455.282 380.537 454.73 380.839C454.178 381.141 453.566 381.292 452.893 381.292ZM452.893 380.257C453.316 380.257 453.712 380.158 454.083 379.96C454.454 379.761 454.752 379.464 454.976 379.067C455.209 378.67 455.325 378.187 455.325 377.618C455.325 377.048 455.213 376.565 454.989 376.169C454.765 375.772 454.471 375.479 454.109 375.289C453.747 375.09 453.354 374.991 452.932 374.991C452.5 374.991 452.104 375.09 451.741 375.289C451.388 375.479 451.103 375.772 450.887 376.169C450.672 376.565 450.564 377.048 450.564 377.618C450.564 378.196 450.668 378.683 450.875 379.08C451.09 379.477 451.375 379.774 451.728 379.973C452.082 380.162 452.47 380.257 452.893 380.257ZM459.513 375.056V379.235C459.513 379.58 459.586 379.826 459.733 379.973C459.879 380.111 460.134 380.18 460.496 380.18H461.363V381.176H460.302C459.646 381.176 459.155 381.025 458.827 380.723C458.499 380.421 458.335 379.925 458.335 379.235V375.056H457.417V374.086H458.335V372.3H459.513V374.086H461.363V375.056H459.513ZM469.259 377.359C469.259 377.583 469.246 377.82 469.22 378.071H463.553C463.596 378.769 463.833 379.317 464.264 379.714C464.704 380.102 465.235 380.296 465.856 380.296C466.365 380.296 466.787 380.18 467.124 379.947C467.469 379.705 467.71 379.386 467.848 378.989H469.116C468.927 379.671 468.547 380.227 467.978 380.658C467.408 381.081 466.701 381.292 465.856 381.292C465.183 381.292 464.579 381.141 464.045 380.839C463.518 380.537 463.104 380.111 462.802 379.558C462.501 378.998 462.35 378.351 462.35 377.618C462.35 376.885 462.496 376.242 462.789 375.69C463.083 375.138 463.492 374.715 464.019 374.422C464.553 374.12 465.166 373.969 465.856 373.969C466.529 373.969 467.124 374.116 467.641 374.409C468.159 374.702 468.556 375.108 468.832 375.625C469.116 376.134 469.259 376.712 469.259 377.359ZM468.042 377.113C468.042 376.665 467.943 376.281 467.745 375.962C467.546 375.634 467.275 375.388 466.93 375.224C466.593 375.052 466.218 374.965 465.804 374.965C465.209 374.965 464.7 375.155 464.277 375.535C463.863 375.914 463.626 376.44 463.566 377.113H468.042ZM471.99 375.237C472.197 374.832 472.49 374.517 472.87 374.293C473.258 374.068 473.728 373.956 474.28 373.956V375.172H473.97C472.65 375.172 471.99 375.888 471.99 377.32V381.176H470.813V374.086H471.99V375.237ZM481.948 381.266C481.353 381.266 480.818 381.163 480.344 380.956C479.878 380.74 479.511 380.447 479.244 380.076C478.977 379.697 478.839 379.261 478.83 378.769H480.085C480.128 379.192 480.301 379.55 480.602 379.843C480.913 380.128 481.361 380.27 481.948 380.27C482.509 380.27 482.949 380.132 483.268 379.856C483.596 379.571 483.759 379.209 483.759 378.769C483.759 378.424 483.665 378.144 483.475 377.928C483.285 377.713 483.048 377.549 482.763 377.437C482.479 377.324 482.095 377.204 481.612 377.074C481.016 376.919 480.538 376.764 480.175 376.609C479.822 376.453 479.516 376.212 479.257 375.884C479.007 375.548 478.882 375.099 478.882 374.538C478.882 374.047 479.007 373.611 479.257 373.232C479.507 372.852 479.856 372.559 480.305 372.352C480.762 372.145 481.284 372.041 481.87 372.041C482.716 372.041 483.406 372.253 483.941 372.675C484.484 373.098 484.79 373.659 484.859 374.357H483.565C483.522 374.012 483.341 373.71 483.022 373.452C482.703 373.184 482.28 373.051 481.754 373.051C481.262 373.051 480.861 373.18 480.551 373.439C480.24 373.689 480.085 374.042 480.085 374.5C480.085 374.827 480.175 375.095 480.357 375.302C480.546 375.509 480.775 375.668 481.042 375.781C481.318 375.884 481.702 376.005 482.194 376.143C482.789 376.307 483.268 376.471 483.63 376.634C483.992 376.79 484.303 377.036 484.562 377.372C484.82 377.7 484.95 378.148 484.95 378.718C484.95 379.157 484.833 379.571 484.6 379.96C484.367 380.348 484.022 380.663 483.565 380.904C483.108 381.146 482.569 381.266 481.948 381.266ZM486.242 377.618C486.242 376.885 486.389 376.246 486.682 375.703C486.976 375.151 487.381 374.724 487.899 374.422C488.425 374.12 489.024 373.969 489.697 373.969C490.568 373.969 491.284 374.18 491.845 374.603C492.414 375.026 492.789 375.612 492.97 376.363H491.702C491.582 375.931 491.344 375.591 490.991 375.341C490.646 375.09 490.214 374.965 489.697 374.965C489.024 374.965 488.481 375.198 488.067 375.664C487.653 376.121 487.446 376.772 487.446 377.618C487.446 378.472 487.653 379.132 488.067 379.597C488.481 380.063 489.024 380.296 489.697 380.296C490.214 380.296 490.646 380.175 490.991 379.934C491.336 379.692 491.573 379.347 491.702 378.899H492.97C492.781 379.623 492.401 380.205 491.832 380.645C491.262 381.077 490.551 381.292 489.697 381.292C489.024 381.292 488.425 381.141 487.899 380.839C487.381 380.537 486.976 380.111 486.682 379.558C486.389 379.006 486.242 378.36 486.242 377.618ZM497.634 381.292C496.969 381.292 496.366 381.141 495.822 380.839C495.287 380.537 494.865 380.111 494.554 379.558C494.252 378.998 494.101 378.351 494.101 377.618C494.101 376.893 494.257 376.255 494.567 375.703C494.886 375.142 495.318 374.715 495.861 374.422C496.404 374.12 497.013 373.969 497.685 373.969C498.358 373.969 498.966 374.12 499.51 374.422C500.053 374.715 500.48 375.138 500.791 375.69C501.11 376.242 501.269 376.885 501.269 377.618C501.269 378.351 501.105 378.998 500.778 379.558C500.458 380.111 500.023 380.537 499.471 380.839C498.919 381.141 498.306 381.292 497.634 381.292ZM497.634 380.257C498.056 380.257 498.453 380.158 498.824 379.96C499.195 379.761 499.492 379.464 499.717 379.067C499.95 378.67 500.066 378.187 500.066 377.618C500.066 377.048 499.954 376.565 499.73 376.169C499.505 375.772 499.212 375.479 498.85 375.289C498.487 375.09 498.095 374.991 497.672 374.991C497.241 374.991 496.844 375.09 496.482 375.289C496.128 375.479 495.844 375.772 495.628 376.169C495.412 376.565 495.305 377.048 495.305 377.618C495.305 378.196 495.408 378.683 495.615 379.08C495.831 379.477 496.115 379.774 496.469 379.973C496.823 380.162 497.211 380.257 497.634 380.257ZM503.995 375.237C504.202 374.832 504.495 374.517 504.874 374.293C505.263 374.068 505.733 373.956 506.285 373.956V375.172H505.974C504.654 375.172 503.995 375.888 503.995 377.32V381.176H502.817V374.086H503.995V375.237ZM514.113 377.359C514.113 377.583 514.1 377.82 514.074 378.071H508.407C508.45 378.769 508.688 379.317 509.119 379.714C509.559 380.102 510.089 380.296 510.71 380.296C511.219 380.296 511.642 380.18 511.978 379.947C512.323 379.705 512.565 379.386 512.703 378.989H513.971C513.781 379.671 513.401 380.227 512.832 380.658C512.263 381.081 511.556 381.292 510.71 381.292C510.037 381.292 509.434 381.141 508.899 380.839C508.373 380.537 507.959 380.111 507.657 379.558C507.355 378.998 507.204 378.351 507.204 377.618C507.204 376.885 507.351 376.242 507.644 375.69C507.937 375.138 508.347 374.715 508.873 374.422C509.408 374.12 510.02 373.969 510.71 373.969C511.383 373.969 511.978 374.116 512.496 374.409C513.013 374.702 513.41 375.108 513.686 375.625C513.971 376.134 514.113 376.712 514.113 377.359ZM512.897 377.113C512.897 376.665 512.798 376.281 512.599 375.962C512.401 375.634 512.129 375.388 511.784 375.224C511.448 375.052 511.072 374.965 510.658 374.965C510.063 374.965 509.554 375.155 509.132 375.535C508.718 375.914 508.481 376.44 508.42 377.113H512.897Z" fill="#363E49"/>
<defs>
<filter id="filter0_f_1_15619" x="-136.559" y="-413.432" width="1478.2" height="1478.2" filterUnits="userSpaceOnUse" color-interpolation-filters="sRGB">
<feFlood flood-opacity="0" result="BackgroundImageFix"/>
<feBlend mode="normal" in="SourceGraphic" in2="BackgroundImageFix" result="shape"/>
<feGaussianBlur stdDeviation="269.547" result="effect1_foregroundBlur_1_15619"/>
</filter>
</defs>
</svg>
