<svg width="203" height="173" viewBox="0 0 203 173" fill="none" xmlns="http://www.w3.org/2000/svg">
<g filter="url(#filter0_d_1_15627)">
<rect x="32" y="27" width="139" height="109.72" rx="8.896" fill="white" shape-rendering="crispEdges"/>
<rect x="78.8799" y="44.793" width="45.24" height="45.24" rx="8.896" fill="#00DDD0"/>
<path d="M97.8463 71.2463H94.1722L93.6273 72.9121H90L94.0321 61.89H98.0175L102.034 72.9121H98.3912L97.8463 71.2463ZM97.0056 68.6465L96.0092 65.5796L95.0129 68.6465H97.0056ZM102.352 68.5219C102.352 67.5982 102.508 66.7991 102.819 66.1245C103.141 65.4395 103.577 64.9205 104.127 64.5677C104.677 64.2044 105.295 64.0228 105.98 64.0228C106.55 64.0228 107.043 64.1421 107.459 64.3808C107.874 64.6092 108.19 64.9257 108.408 65.3305V64.1318H111.849V72.9121H108.408V71.7134C108.19 72.1181 107.874 72.4399 107.459 72.6786C107.043 72.9069 106.55 73.0211 105.98 73.0211C105.295 73.0211 104.677 72.8446 104.127 72.4918C103.577 72.1285 103.141 71.6096 102.819 70.935C102.508 70.25 102.352 69.4456 102.352 68.5219ZM108.408 68.5219C108.408 68.0549 108.289 67.6916 108.05 67.4322C107.811 67.1727 107.505 67.043 107.132 67.043C106.758 67.043 106.452 67.1727 106.213 67.4322C105.974 67.6916 105.855 68.0549 105.855 68.5219C105.855 68.989 105.974 69.3522 106.213 69.6117C106.452 69.8712 106.758 70.0009 107.132 70.0009C107.505 70.0009 107.811 69.8712 108.05 69.6117C108.289 69.3522 108.408 68.989 108.408 68.5219Z" fill="#11002A"/>
<path d="M68.7521 104.629V105.616H66.2167V113.93H65.0024V105.616H62.4537V104.629H68.7521ZM76.9188 109.993C76.9188 110.225 76.9055 110.469 76.8788 110.727H71.0341C71.0786 111.448 71.3232 112.013 71.768 112.422C72.2217 112.822 72.7688 113.022 73.4093 113.022C73.9342 113.022 74.3701 112.902 74.717 112.662C75.0729 112.413 75.322 112.084 75.4643 111.675H76.772C76.5763 112.377 76.1849 112.951 75.5977 113.396C75.0106 113.832 74.2811 114.05 73.4093 114.05C72.7154 114.05 72.0927 113.894 71.5412 113.583C70.9985 113.271 70.5715 112.831 70.2601 112.262C69.9488 111.683 69.7931 111.016 69.7931 110.26C69.7931 109.504 69.9443 108.841 70.2468 108.272C70.5493 107.702 70.9718 107.267 71.5145 106.964C72.066 106.653 72.6976 106.497 73.4093 106.497C74.1032 106.497 74.717 106.648 75.2508 106.951C75.7846 107.253 76.1938 107.671 76.4784 108.205C76.772 108.73 76.9188 109.326 76.9188 109.993ZM75.6645 109.74C75.6645 109.277 75.5622 108.881 75.3576 108.552C75.1529 108.214 74.8727 107.96 74.5169 107.791C74.1699 107.614 73.783 107.525 73.356 107.525C72.7421 107.525 72.2173 107.72 71.7814 108.112C71.3544 108.503 71.1097 109.046 71.0474 109.74H75.6645ZM82.338 113.93L80.6033 111.208L78.9353 113.93H77.6676L80.0295 110.3L77.6676 106.617H79.0421L80.7768 109.326L82.4314 106.617H83.6991L81.3506 110.233L83.7125 113.93H82.338ZM86.3881 107.618V111.928C86.3881 112.284 86.4638 112.537 86.615 112.689C86.7662 112.831 87.0287 112.902 87.4023 112.902H88.2963V113.93H87.2021C86.526 113.93 86.019 113.774 85.6809 113.463C85.3429 113.151 85.1738 112.64 85.1738 111.928V107.618H84.2264V106.617H85.1738V104.776H86.3881V106.617H88.2963V107.618H86.3881ZM98.8229 111.861H94.7663L94.019 113.93H92.738L96.1007 104.682H97.5018L100.851 113.93H99.5701L98.8229 111.861ZM98.4759 110.874L96.7946 106.177L95.1132 110.874H98.4759ZM105.88 106.484C106.769 106.484 107.49 106.755 108.041 107.298C108.593 107.831 108.869 108.605 108.869 109.62V113.93H107.668V109.793C107.668 109.064 107.485 108.508 107.121 108.125C106.756 107.734 106.258 107.538 105.626 107.538C104.986 107.538 104.474 107.738 104.091 108.138C103.718 108.539 103.531 109.121 103.531 109.886V113.93H102.317V106.617H103.531V107.658C103.771 107.284 104.096 106.995 104.505 106.791C104.923 106.586 105.381 106.484 105.88 106.484ZM113.441 114.05C112.88 114.05 112.378 113.956 111.933 113.77C111.488 113.574 111.137 113.307 110.879 112.969C110.621 112.622 110.479 112.226 110.452 111.781H111.706C111.742 112.146 111.911 112.444 112.213 112.675C112.525 112.907 112.929 113.022 113.428 113.022C113.89 113.022 114.255 112.92 114.522 112.715C114.789 112.511 114.922 112.253 114.922 111.941C114.922 111.621 114.78 111.385 114.495 111.234C114.21 111.074 113.77 110.918 113.174 110.767C112.631 110.625 112.187 110.482 111.84 110.34C111.502 110.189 111.208 109.971 110.959 109.686C110.719 109.393 110.599 109.01 110.599 108.539C110.599 108.165 110.71 107.823 110.932 107.511C111.155 107.2 111.47 106.955 111.88 106.777C112.289 106.59 112.756 106.497 113.281 106.497C114.09 106.497 114.744 106.702 115.242 107.111C115.741 107.52 116.007 108.081 116.043 108.792H114.829C114.802 108.41 114.646 108.103 114.362 107.872C114.086 107.64 113.712 107.525 113.241 107.525C112.805 107.525 112.458 107.618 112.2 107.805C111.942 107.992 111.813 108.236 111.813 108.539C111.813 108.779 111.889 108.979 112.04 109.139C112.2 109.29 112.396 109.415 112.627 109.513C112.867 109.602 113.196 109.704 113.614 109.82C114.139 109.962 114.566 110.104 114.895 110.247C115.225 110.38 115.505 110.585 115.736 110.861C115.976 111.136 116.101 111.497 116.11 111.941C116.11 112.342 115.999 112.702 115.776 113.022C115.554 113.343 115.238 113.596 114.829 113.783C114.428 113.961 113.966 114.05 113.441 114.05ZM127.565 106.617L125.283 113.93H124.029L122.267 108.125L120.506 113.93H119.252L116.957 106.617H118.198L119.879 112.755L121.694 106.617H122.935L124.709 112.769L126.364 106.617H127.565ZM135.442 109.993C135.442 110.225 135.429 110.469 135.402 110.727H129.557C129.602 111.448 129.847 112.013 130.291 112.422C130.745 112.822 131.292 113.022 131.933 113.022C132.458 113.022 132.893 112.902 133.24 112.662C133.596 112.413 133.845 112.084 133.988 111.675H135.295C135.1 112.377 134.708 112.951 134.121 113.396C133.534 113.832 132.804 114.05 131.933 114.05C131.239 114.05 130.616 113.894 130.065 113.583C129.522 113.271 129.095 112.831 128.783 112.262C128.472 111.683 128.316 111.016 128.316 110.26C128.316 109.504 128.468 108.841 128.77 108.272C129.073 107.702 129.495 107.267 130.038 106.964C130.589 106.653 131.221 106.497 131.933 106.497C132.627 106.497 133.24 106.648 133.774 106.951C134.308 107.253 134.717 107.671 135.002 108.205C135.295 108.73 135.442 109.326 135.442 109.993ZM134.188 109.74C134.188 109.277 134.086 108.881 133.881 108.552C133.676 108.214 133.396 107.96 133.04 107.791C132.693 107.614 132.306 107.525 131.879 107.525C131.265 107.525 130.741 107.72 130.305 108.112C129.878 108.503 129.633 109.046 129.571 109.74H134.188ZM138.259 107.805C138.473 107.387 138.775 107.062 139.167 106.831C139.567 106.599 140.052 106.484 140.621 106.484V107.738H140.301C138.94 107.738 138.259 108.476 138.259 109.953V113.93H137.045V106.617H138.259V107.805Z" fill="#363E49"/>
</g>
<defs>
<filter id="filter0_d_1_15627" x="0.864" y="0.312" width="201.272" height="171.993" filterUnits="userSpaceOnUse" color-interpolation-filters="sRGB">
<feFlood flood-opacity="0" result="BackgroundImageFix"/>
<feColorMatrix in="SourceAlpha" type="matrix" values="0 0 0 0 0 0 0 0 0 0 0 0 0 0 0 0 0 0 127 0" result="hardAlpha"/>
<feOffset dy="4.448"/>
<feGaussianBlur stdDeviation="15.568"/>
<feComposite in2="hardAlpha" operator="out"/>
<feColorMatrix type="matrix" values="0 0 0 0 0.292692 0 0 0 0 0.292692 0 0 0 0 0.292692 0 0 0 0.05 0"/>
<feBlend mode="normal" in2="BackgroundImageFix" result="effect1_dropShadow_1_15627"/>
<feBlend mode="normal" in="SourceGraphic" in2="effect1_dropShadow_1_15627" result="shape"/>
</filter>
</defs>
</svg>
