<svg width="25" height="19" viewBox="0 0 25 19" fill="none" xmlns="http://www.w3.org/2000/svg">
<g clip-path="url(#clip0_1_14050)">
<g clip-path="url(#clip1_1_14050)">
<rect y="0.285156" width="24.75" height="18" rx="2.25" fill="white"/>
<path fill-rule="evenodd" clip-rule="evenodd" d="M0 0.285156H10.6071V8.68516H0V0.285156Z" fill="#1A47B8"/>
<path fill-rule="evenodd" clip-rule="evenodd" d="M10.6071 0.285156V1.48516H24.75V0.285156H10.6071ZM10.6071 2.68516V3.88516H24.75V2.68516H10.6071ZM10.6071 5.08516V6.28516H24.75V5.08516H10.6071ZM10.6071 7.48516V8.68516H24.75V7.48516H10.6071ZM0 9.88516V11.0852H24.75V9.88516H0ZM0 12.2852V13.4852H24.75V12.2852H0ZM0 14.6852V15.8852H24.75V14.6852H0ZM0 17.0852V18.2852H24.75V17.0852H0Z" fill="#F93939"/>
<path fill-rule="evenodd" clip-rule="evenodd" d="M1.17859 1.48438V2.68438H2.35716V1.48438H1.17859ZM3.53573 1.48438V2.68438H4.7143V1.48438H3.53573ZM5.89287 1.48438V2.68438H7.07145V1.48438H5.89287ZM8.25002 1.48438V2.68438H9.42859V1.48438H8.25002ZM7.07145 2.68438V3.88438H8.25002V2.68438H7.07145ZM4.7143 2.68438V3.88438H5.89287V2.68438H4.7143ZM2.35716 2.68438V3.88438H3.53573V2.68438H2.35716ZM1.17859 3.88438V5.08438H2.35716V3.88438H1.17859ZM3.53573 3.88438V5.08438H4.7143V3.88438H3.53573ZM5.89287 3.88438V5.08438H7.07145V3.88438H5.89287ZM8.25002 3.88438V5.08438H9.42859V3.88438H8.25002ZM1.17859 6.28438V7.48438H2.35716V6.28438H1.17859ZM3.53573 6.28438V7.48438H4.7143V6.28438H3.53573ZM5.89287 6.28438V7.48438H7.07145V6.28438H5.89287ZM8.25002 6.28438V7.48438H9.42859V6.28438H8.25002ZM7.07145 5.08438V6.28438H8.25002V5.08438H7.07145ZM4.7143 5.08438V6.28438H5.89287V5.08438H4.7143ZM2.35716 5.08438V6.28438H3.53573V5.08438H2.35716Z" fill="white"/>
</g>
</g>
<defs>
<clipPath id="clip0_1_14050">
<rect width="24.75" height="18" fill="white" transform="translate(0 0.285156)"/>
</clipPath>
<clipPath id="clip1_1_14050">
<rect y="0.285156" width="24.75" height="18" rx="2.25" fill="white"/>
</clipPath>
</defs>
</svg>
