<svg width="240" height="247" viewBox="0 0 240 247" fill="none" xmlns="http://www.w3.org/2000/svg">
<rect x="0.596531" y="11.4092" width="590.946" height="234.792" rx="13.0881" transform="rotate(-1 0.596531 11.4092)" fill="white"/>
<rect x="0.596531" y="11.4092" width="590.946" height="234.792" rx="13.0881" transform="rotate(-1 0.596531 11.4092)" stroke="#F2F4F7" stroke-width="0.793216"/>
<path d="M20.9924 36.9233L20.9603 35.0818L24.4007 35.0217L24.5824 45.4287L22.5267 45.4646L22.3772 36.8991L20.9924 36.9233ZM31.0736 45.4153C30.712 45.4217 30.4103 45.3174 30.1685 45.1027C29.9362 44.8783 29.817 44.5995 29.8112 44.2664C29.8054 43.9333 29.9148 43.6553 30.1394 43.4324C30.3733 43.1999 30.6711 43.0804 31.0328 43.0741C31.3849 43.068 31.6772 43.1771 31.9096 43.4015C32.1418 43.6165 32.2608 43.8905 32.2667 44.2236C32.2725 44.5567 32.1632 44.8394 31.9387 45.0718C31.7141 45.2947 31.4258 45.4092 31.0736 45.4153ZM39.0929 35.2079L39.2005 41.375C39.2123 42.0508 39.3975 42.5664 39.7559 42.9219C40.1142 43.2679 40.6122 43.4353 41.2498 43.4242C41.897 43.4129 42.3935 43.2281 42.7395 42.8698C43.0854 42.502 43.2524 41.9802 43.2406 41.3045L43.1329 35.1374L45.1458 35.1023L45.2532 41.2551C45.268 42.1021 45.0949 42.8239 44.7341 43.4205C44.3826 44.0073 43.9001 44.4537 43.2866 44.7595C42.6827 45.0652 42.0048 45.2245 41.2529 45.2377C40.5106 45.2506 39.8323 45.1149 39.218 44.8305C38.6133 44.5459 38.1298 44.1165 37.7675 43.5421C37.4051 42.9581 37.2165 42.2427 37.2017 41.3956L37.0943 35.2428L39.0929 35.2079ZM49.1312 38.2314C49.3819 37.8653 49.7288 37.5594 50.1719 37.3136C50.6244 37.0582 51.141 36.9254 51.7215 36.9153C52.3972 36.9035 53.0092 37.0594 53.5575 37.3831C54.1153 37.7065 54.5567 38.1748 54.8815 38.788C55.2157 39.3914 55.3899 40.0976 55.404 40.9066C55.4182 41.7155 55.2689 42.4369 54.9563 43.0707C54.653 43.6948 54.2284 44.1829 53.6824 44.5352C53.1459 44.8873 52.5398 45.0692 51.864 45.081C51.2835 45.0911 50.7675 44.9811 50.316 44.751C49.8741 44.5207 49.512 44.2272 49.2297 43.8703L49.3151 48.7669L47.3165 48.8018L47.1127 37.1243L49.1113 37.0894L49.1312 38.2314ZM53.3626 40.9422C53.3543 40.4663 53.2472 40.0588 53.0414 39.7197C52.8449 39.3709 52.5833 39.1089 52.2565 38.9337C51.9393 38.7584 51.5951 38.674 51.224 38.6804C50.8623 38.6867 50.5213 38.7879 50.2011 38.9839C49.8902 39.1702 49.6379 39.4412 49.4442 39.7968C49.26 40.1522 49.172 40.5679 49.1803 41.0438C49.1886 41.5196 49.291 41.9319 49.4875 42.2808C49.6935 42.6294 49.9552 42.8962 50.2726 43.081C50.5993 43.2562 50.9435 43.3406 51.3052 43.3343C51.6764 43.3278 52.0173 43.2267 52.3281 43.0309C52.6483 42.8349 52.9005 42.5591 53.0847 42.2037C53.2785 41.8481 53.3711 41.4276 53.3626 40.9422ZM58.7401 34.2652L58.9245 44.8292L56.9259 44.8641L56.7415 34.3001L58.7401 34.2652ZM64.4132 44.862C63.6518 44.8753 62.9637 44.7207 62.3487 44.3982C61.7337 44.0662 61.2447 43.594 60.8817 42.9815C60.5283 42.3689 60.3446 41.6581 60.3304 40.8491C60.3163 40.0402 60.4799 39.3233 60.8213 38.6986C61.1721 38.0736 61.6539 37.5892 62.2667 37.2453C62.8794 36.8919 63.5664 36.7086 64.3277 36.6953C65.0891 36.682 65.7821 36.8412 66.4067 37.1731C67.0311 37.4954 67.5248 37.9627 67.8877 38.5752C68.2602 39.1875 68.4535 39.8981 68.4676 40.7071C68.4817 41.5161 68.3086 42.2331 67.9482 42.8582C67.5974 43.4831 67.1109 43.9724 66.4887 44.3259C65.8759 44.6698 65.1841 44.8485 64.4132 44.862ZM64.3828 43.1203C64.7444 43.114 65.0808 43.0225 65.3919 42.8457C65.7123 42.6592 65.9646 42.3882 66.1488 42.0328C66.333 41.6773 66.4207 41.2474 66.4119 40.743C66.3988 39.9911 66.1889 39.4188 65.7822 39.0261C65.3848 38.6237 64.9006 38.4274 64.3296 38.4374C63.7586 38.4474 63.2815 38.6604 62.8985 39.0764C62.5248 39.4828 62.3445 40.0619 62.3576 40.8137C62.3707 41.5656 62.5664 42.1429 62.9447 42.5457C63.3324 42.9387 63.8117 43.1303 64.3828 43.1203ZM69.4192 40.6619C69.4053 39.8625 69.5499 39.1507 69.8532 38.5266C70.166 37.9024 70.5907 37.4189 71.1274 37.0764C71.6735 36.7336 72.2845 36.5564 72.9602 36.5446C73.5503 36.5343 74.0663 36.6443 74.5082 36.8746C74.9597 37.1047 75.3218 37.3982 75.5946 37.7552L75.5749 36.6275L77.5878 36.5923L77.7258 44.5011L75.7129 44.5362L75.6928 43.3799C75.4423 43.7555 75.0908 44.0711 74.6383 44.3265C74.1951 44.5722 73.6785 44.7002 73.0885 44.7105C72.4223 44.7222 71.8102 44.5615 71.2522 44.2285C70.7037 43.8954 70.2623 43.4223 69.9279 42.8093C69.6029 42.1867 69.4333 41.4709 69.4192 40.6619ZM75.6439 40.5818C75.6354 40.0965 75.533 39.6841 75.3367 39.3448C75.1402 38.996 74.8786 38.734 74.5519 38.5588C74.225 38.3742 73.8759 38.285 73.5048 38.2915C73.1336 38.298 72.7926 38.3944 72.4817 38.5807C72.1707 38.767 71.9184 39.038 71.7247 39.3936C71.5404 39.7395 71.4523 40.1504 71.4606 40.6263C71.4689 41.1021 71.5714 41.5192 71.7681 41.8776C71.9741 42.2262 72.2358 42.493 72.5532 42.6778C72.8801 42.8625 73.2244 42.9517 73.586 42.9454C73.9572 42.9389 74.303 42.8424 74.6234 42.656C74.9437 42.46 75.196 42.189 75.3803 41.8431C75.5645 41.4876 75.6524 41.0672 75.6439 40.5818ZM79.0943 40.493C79.0804 39.6936 79.2251 38.9818 79.5283 38.3577C79.8411 37.7335 80.2706 37.25 80.8168 36.9072C81.3629 36.5645 81.9739 36.3872 82.6496 36.3755C83.1635 36.3665 83.6557 36.4721 84.126 36.6924C84.5962 36.9032 84.9725 37.1917 85.2549 37.5581L85.1894 33.8035L87.2166 33.7682L87.401 44.3322L85.3738 44.3676L85.3534 43.197C85.1127 43.5915 84.7708 43.9116 84.3277 44.1574C83.8845 44.4031 83.3679 44.5311 82.7779 44.5414C82.1117 44.553 81.4996 44.3924 80.9416 44.0594C80.3836 43.7264 79.9375 43.2534 79.6031 42.6405C79.278 42.0178 79.1085 41.302 79.0943 40.493ZM85.3191 40.413C85.3106 39.9276 85.2082 39.5152 85.0119 39.1759C84.8154 38.8271 84.5538 38.5651 84.227 38.39C83.9001 38.2053 83.5511 38.1162 83.1799 38.1226C82.8087 38.1291 82.4677 38.2255 82.1568 38.4118C81.8459 38.5981 81.5936 38.8691 81.3999 39.2247C81.2155 39.5707 81.1275 39.9816 81.1358 40.4574C81.1441 40.9333 81.2466 41.3504 81.4432 41.7087C81.6492 42.0573 81.9109 42.3241 82.2283 42.509C82.5552 42.6936 82.8995 42.7828 83.2611 42.7765C83.6323 42.77 83.9781 42.6736 84.2985 42.4871C84.6188 42.2911 84.8711 42.0201 85.0555 41.6742C85.2397 41.3187 85.3275 40.8983 85.3191 40.413ZM100.183 36.1979L95.4894 47.9324L93.3623 47.9695L95.0066 43.9995L91.7029 36.3459L93.9442 36.3068L96.082 41.7959L98.0556 36.2351L100.183 36.1979ZM104.912 44.1551C104.151 44.1683 103.463 44.0138 102.848 43.6913C102.233 43.3593 101.744 42.8871 101.381 42.2746C101.027 41.662 100.844 40.9512 100.829 40.1422C100.815 39.3333 100.979 38.6164 101.32 37.9916C101.671 37.3667 102.153 36.8823 102.766 36.5384C103.378 36.185 104.065 36.0016 104.827 35.9883C105.588 35.9751 106.281 36.1343 106.906 36.4661C107.53 36.7884 108.024 37.2558 108.387 37.8683C108.759 38.4806 108.952 39.1912 108.967 40.0002C108.981 40.8091 108.808 41.5262 108.447 42.1513C108.096 42.7762 107.61 43.2654 106.988 43.619C106.375 43.9629 105.683 44.1416 104.912 44.1551ZM104.882 42.4134C105.243 42.4071 105.58 42.3156 105.891 42.1388C106.211 41.9523 106.464 41.6813 106.648 41.3259C106.832 40.9704 106.92 40.5405 106.911 40.0361C106.898 39.2842 106.688 38.7119 106.281 38.3192C105.884 37.9167 105.4 37.7205 104.829 37.7305C104.258 37.7405 103.78 37.9535 103.397 38.3695C103.024 38.7759 102.843 39.355 102.857 40.1068C102.87 40.8587 103.065 41.436 103.444 41.8388C103.831 42.2318 104.311 42.4234 104.882 42.4134ZM117.83 35.8899L117.968 43.7986L115.955 43.8338L115.937 42.8345C115.687 43.1816 115.353 43.4587 114.938 43.6659C114.532 43.8634 114.087 43.9664 113.601 43.9748C112.983 43.9856 112.433 43.8667 111.953 43.618C111.472 43.3599 111.09 42.981 110.805 42.4814C110.529 41.9721 110.385 41.3653 110.373 40.6611L110.292 36.0215L112.291 35.9866L112.367 40.3407C112.378 40.9688 112.543 41.4514 112.863 41.7886C113.183 42.1162 113.614 42.2753 114.157 42.2658C114.709 42.2562 115.139 42.0821 115.447 41.7435C115.755 41.3954 115.904 40.9073 115.893 40.2791L115.817 35.925L117.83 35.8899ZM121.822 37.0483C122.071 36.6251 122.399 36.2909 122.804 36.0458C123.218 35.8006 123.692 35.6733 124.225 35.664L124.262 37.7626L123.734 37.7718C123.105 37.7827 122.632 37.9386 122.314 38.2392C122.005 38.5398 121.857 39.0564 121.87 39.7892L121.938 43.7293L119.94 43.7642L119.802 35.8555L121.8 35.8206L121.822 37.0483ZM130.993 36.8025C131.244 36.4364 131.591 36.1305 132.034 35.8847C132.487 35.6293 133.003 35.4965 133.584 35.4864C134.259 35.4746 134.871 35.6305 135.42 35.9541C135.978 36.2776 136.419 36.7459 136.744 37.359C137.078 37.9625 137.252 38.6687 137.266 39.4777C137.28 40.2866 137.131 41.008 136.819 41.6418C136.515 42.2659 136.091 42.754 135.545 43.1063C135.008 43.4584 134.402 43.6403 133.726 43.6521C133.146 43.6622 132.63 43.5522 132.178 43.3221C131.736 43.0918 131.374 42.7983 131.092 42.4414L131.177 47.338L129.179 47.3729L128.975 35.6954L130.974 35.6605L130.993 36.8025ZM135.225 39.5133C135.217 39.0374 135.109 38.6299 134.904 38.2908C134.707 37.942 134.446 37.68 134.119 37.5048C133.802 37.3295 133.457 37.245 133.086 37.2515C132.725 37.2578 132.384 37.359 132.063 37.555C131.752 37.7413 131.5 38.0123 131.306 38.3679C131.122 38.7233 131.034 39.139 131.043 39.6148C131.051 40.0907 131.153 40.503 131.35 40.8518C131.556 41.2005 131.817 41.4672 132.135 41.6521C132.462 41.8273 132.806 41.9117 133.167 41.9054C133.539 41.8989 133.88 41.7978 134.19 41.602C134.511 41.406 134.763 41.1302 134.947 40.7748C135.141 40.4192 135.233 39.9987 135.225 39.5133ZM143.102 35.3345C143.702 35.3241 144.237 35.448 144.708 35.7063C145.179 35.9552 145.547 36.3343 145.813 36.8437C146.088 37.3435 146.232 37.9503 146.245 38.664L146.326 43.3037L144.327 43.3385L144.251 38.9702C144.24 38.342 144.074 37.8642 143.755 37.5365C143.435 37.1994 143.003 37.0356 142.461 37.045C141.909 37.0547 141.474 37.2336 141.156 37.5819C140.848 37.9205 140.7 38.4038 140.711 39.032L140.787 43.4003L138.788 43.4352L138.604 32.8712L140.602 32.8363L140.666 36.4766C140.917 36.1295 141.255 35.8571 141.68 35.6592C142.105 35.4519 142.579 35.3437 143.102 35.3345ZM151.74 43.3377C150.979 43.351 150.291 43.1964 149.676 42.8739C149.061 42.5419 148.572 42.0697 148.209 41.4572C147.856 40.8446 147.672 40.1338 147.658 39.3248C147.644 38.5159 147.807 37.799 148.148 37.1743C148.499 36.5493 148.981 36.0649 149.594 35.721C150.207 35.3676 150.894 35.1842 151.655 35.171C152.416 35.1577 153.109 35.3169 153.734 35.6488C154.358 35.9711 154.852 36.4384 155.215 37.0509C155.587 37.6632 155.781 38.3738 155.795 39.1828C155.809 39.9918 155.636 40.7088 155.275 41.3339C154.925 41.9588 154.438 42.448 153.816 42.8016C153.203 43.1455 152.511 43.3242 151.74 43.3377ZM151.71 41.596C152.072 41.5897 152.408 41.4982 152.719 41.3214C153.039 41.1349 153.292 40.8639 153.476 40.5085C153.66 40.153 153.748 39.7231 153.739 39.2187C153.726 38.4668 153.516 37.8945 153.109 37.5018C152.712 37.0994 152.228 36.9031 151.657 36.9131C151.086 36.9231 150.609 37.1361 150.226 37.5521C149.852 37.9585 149.672 38.5376 149.685 39.2894C149.698 40.0413 149.894 40.6186 150.272 41.0214C150.66 41.4144 151.139 41.606 151.71 41.596ZM159.547 36.8039L159.614 40.6298C159.619 40.8963 159.684 41.0903 159.81 41.2119C159.945 41.3238 160.165 41.377 160.47 41.3717L161.398 41.3555L161.427 43.0401L160.171 43.062C158.486 43.0914 157.63 42.2876 157.601 40.6507L157.535 36.8391L156.592 36.8555L156.564 35.2138L157.506 35.1974L157.472 33.2416L159.485 33.2064L159.519 35.1622L161.289 35.1313L161.318 36.773L159.547 36.8039ZM166.379 43.0822C165.617 43.0954 164.929 42.9409 164.314 42.6184C163.699 42.2864 163.21 41.8142 162.847 41.2017C162.494 40.5891 162.31 39.8783 162.296 39.0693C162.282 38.2604 162.445 37.5435 162.787 36.9187C163.137 36.2938 163.619 35.8094 164.232 35.4655C164.845 35.1121 165.532 34.9287 166.293 34.9154C167.054 34.9022 167.747 35.0614 168.372 35.3932C168.996 35.7155 169.49 36.1829 169.853 36.7954C170.226 37.4077 170.419 38.1183 170.433 38.9273C170.447 39.7362 170.274 40.4533 169.914 41.0784C169.563 41.7033 169.076 42.1925 168.454 42.5461C167.841 42.89 167.149 43.0687 166.379 43.0822ZM166.348 41.3405C166.71 41.3342 167.046 41.2427 167.357 41.0659C167.678 40.8794 167.93 40.6084 168.114 40.253C168.298 39.8975 168.386 39.4676 168.377 38.9632C168.364 38.2113 168.154 37.639 167.748 37.2463C167.35 36.8438 166.866 36.6476 166.295 36.6576C165.724 36.6676 165.247 36.8806 164.864 37.2966C164.49 37.703 164.31 38.2821 164.323 39.0339C164.336 39.7858 164.532 40.3631 164.91 40.7659C165.298 41.1589 165.777 41.3505 166.348 41.3405Z" fill="#11002A"/>
<rect x="21.8224" y="91.165" width="286.17" height="134.847" rx="5.94912" transform="rotate(-1 21.8224 91.165)" fill="#F2F4F7" stroke="#D8DEE6" stroke-width="0.793216" stroke-dasharray="4.76 4.76"/>
<path d="M163.405 128.451C164.281 128.436 164.979 127.713 164.964 126.837C164.948 125.961 164.226 125.264 163.35 125.279C162.474 125.294 161.776 126.017 161.791 126.893C161.807 127.769 162.529 128.467 163.405 128.451Z" stroke="#8094AE" stroke-width="1.18982" stroke-linecap="round" stroke-linejoin="round"/>
<path d="M166.467 122.051L163.295 122.106C159.329 122.175 157.771 123.789 157.84 127.755L157.923 132.513C157.992 136.479 159.606 138.037 163.572 137.968L168.33 137.885C172.296 137.816 173.854 136.202 173.785 132.236L173.716 128.271" stroke="#8094AE" stroke-width="1.18982" stroke-linecap="round" stroke-linejoin="round"/>
<path d="M168.689 124.393L173.051 124.316" stroke="#8094AE" stroke-width="1.18982" stroke-linecap="round"/>
<path d="M170.908 126.536L170.832 122.174" stroke="#8094AE" stroke-width="1.18982" stroke-linecap="round"/>
<path d="M158.508 135.637L162.372 132.944C162.992 132.512 163.897 132.544 164.468 133.018L164.734 133.244C165.362 133.764 166.361 133.747 166.97 133.205L170.22 130.316C170.83 129.773 171.829 129.756 172.457 130.277L173.769 131.364" stroke="#8094AE" stroke-width="1.18982" stroke-linecap="round" stroke-linejoin="round"/>
<path d="M94.842 160.297C94.8279 159.488 94.9976 158.759 95.3512 158.11C95.7047 157.453 96.1915 156.937 96.8117 156.561C97.4398 156.185 98.1385 155.991 98.9078 155.977C99.8119 155.961 100.605 156.166 101.287 156.59C101.968 157.015 102.471 157.625 102.794 158.42L101.497 158.443C101.259 157.947 100.919 157.568 100.478 157.306C100.045 157.044 99.5272 156.918 98.9244 156.929C98.3455 156.939 97.8283 157.083 97.3731 157.361C96.9178 157.638 96.5636 158.029 96.3106 158.533C96.0575 159.03 95.9367 159.611 95.9484 160.277C95.9598 160.935 96.1008 161.512 96.3713 162.007C96.6416 162.494 97.0091 162.869 97.4738 163.13C97.9385 163.392 98.4603 163.518 99.0393 163.508C99.642 163.497 100.155 163.357 100.579 163.088C101.01 162.811 101.337 162.42 101.558 161.917L102.855 161.894C102.559 162.693 102.078 163.316 101.412 163.764C100.745 164.204 99.9598 164.432 99.0557 164.447C98.2864 164.461 97.5814 164.295 96.9407 163.949C96.3077 163.595 95.8033 163.1 95.4272 162.464C95.0512 161.828 94.8561 161.105 94.842 160.297ZM107.628 157.586C108.12 157.578 108.566 157.677 108.966 157.884C109.367 158.083 109.681 158.391 109.911 158.808C110.148 159.224 110.272 159.734 110.283 160.336L110.35 164.179L109.279 164.198L109.215 160.51C109.203 159.859 109.032 159.367 108.701 159.031C108.37 158.688 107.922 158.521 107.359 158.531C106.788 158.541 106.335 158.727 106.001 159.09C105.674 159.453 105.516 159.975 105.528 160.657L105.591 164.262L104.508 164.281L104.355 155.478L105.437 155.459L105.493 158.671C105.702 158.334 105.991 158.071 106.36 157.882C106.738 157.693 107.16 157.594 107.628 157.586ZM114.963 164.206C114.352 164.216 113.795 164.087 113.29 163.818C112.794 163.549 112.398 163.163 112.104 162.661C111.817 162.15 111.668 161.558 111.656 160.884C111.645 160.217 111.777 159.628 112.054 159.115C112.338 158.595 112.728 158.195 113.223 157.917C113.718 157.631 114.275 157.482 114.893 157.471C115.512 157.461 116.073 157.59 116.578 157.858C117.082 158.119 117.482 158.501 117.776 159.004C118.078 159.506 118.235 160.094 118.247 160.769C118.259 161.443 118.118 162.04 117.826 162.561C117.542 163.074 117.148 163.473 116.645 163.76C116.142 164.046 115.582 164.195 114.963 164.206ZM114.946 163.254C115.335 163.247 115.698 163.149 116.036 162.961C116.374 162.773 116.643 162.494 116.843 162.126C117.05 161.757 117.15 161.311 117.141 160.788C117.132 160.264 117.021 159.822 116.808 159.461C116.596 159.1 116.321 158.835 115.985 158.666C115.649 158.489 115.286 158.405 114.898 158.411C114.501 158.418 114.138 158.516 113.808 158.704C113.486 158.884 113.229 159.158 113.037 159.527C112.845 159.895 112.754 160.341 112.763 160.864C112.772 161.396 112.875 161.842 113.072 162.204C113.276 162.565 113.543 162.834 113.871 163.011C114.199 163.18 114.558 163.261 114.946 163.254ZM122.573 164.073C121.962 164.083 121.404 163.954 120.9 163.685C120.403 163.416 120.008 163.031 119.713 162.528C119.427 162.017 119.278 161.425 119.266 160.751C119.254 160.085 119.387 159.495 119.663 158.983C119.948 158.462 120.338 158.063 120.833 157.784C121.327 157.498 121.884 157.349 122.503 157.338C123.121 157.328 123.683 157.457 124.187 157.726C124.692 157.987 125.091 158.368 125.385 158.871C125.688 159.373 125.845 159.962 125.857 160.636C125.868 161.31 125.728 161.907 125.436 162.428C125.151 162.941 124.757 163.34 124.255 163.627C123.752 163.913 123.191 164.062 122.573 164.073ZM122.556 163.121C122.945 163.114 123.308 163.017 123.646 162.828C123.984 162.64 124.252 162.362 124.452 161.993C124.66 161.625 124.759 161.179 124.75 160.655C124.741 160.132 124.63 159.689 124.418 159.328C124.205 158.967 123.931 158.702 123.595 158.533C123.258 158.357 122.896 158.272 122.507 158.279C122.111 158.285 121.747 158.383 121.417 158.571C121.095 158.751 120.838 159.026 120.646 159.394C120.455 159.762 120.363 160.208 120.372 160.731C120.382 161.263 120.485 161.709 120.681 162.071C120.886 162.432 121.152 162.701 121.481 162.878C121.809 163.047 122.167 163.128 122.556 163.121ZM129.647 163.949C129.147 163.958 128.698 163.882 128.298 163.723C127.899 163.555 127.581 163.323 127.346 163.025C127.11 162.72 126.977 162.369 126.947 161.973L128.065 161.954C128.102 162.278 128.258 162.541 128.531 162.743C128.812 162.944 129.175 163.041 129.619 163.033C130.031 163.026 130.355 162.929 130.59 162.743C130.824 162.556 130.939 162.324 130.935 162.047C130.93 161.761 130.799 161.553 130.543 161.423C130.287 161.284 129.892 161.152 129.358 161.027C128.872 160.908 128.473 160.788 128.162 160.667C127.858 160.537 127.593 160.348 127.366 160.098C127.147 159.84 127.034 159.501 127.027 159.08C127.021 158.747 127.115 158.44 127.309 158.159C127.502 157.878 127.78 157.655 128.142 157.49C128.504 157.317 128.919 157.227 129.387 157.218C130.108 157.206 130.694 157.378 131.145 157.735C131.595 158.092 131.842 158.588 131.885 159.222L130.802 159.24C130.772 158.9 130.629 158.629 130.372 158.427C130.122 158.225 129.787 158.128 129.367 158.135C128.978 158.142 128.67 158.23 128.443 158.401C128.216 158.572 128.105 158.792 128.11 159.061C128.113 159.275 128.184 159.453 128.321 159.593C128.466 159.725 128.643 159.833 128.851 159.917C129.066 159.993 129.361 160.079 129.736 160.175C130.206 160.294 130.589 160.414 130.884 160.536C131.18 160.65 131.433 160.828 131.643 161.07C131.862 161.312 131.978 161.632 131.993 162.028C132 162.385 131.906 162.708 131.713 162.997C131.519 163.286 131.242 163.517 130.88 163.69C130.526 163.855 130.115 163.941 129.647 163.949ZM139.439 160.161C139.443 160.367 139.435 160.585 139.415 160.816L134.205 160.907C134.255 161.548 134.482 162.048 134.885 162.406C135.296 162.756 135.787 162.926 136.358 162.916C136.826 162.908 137.212 162.794 137.518 162.574C137.831 162.347 138.048 162.049 138.169 161.682L139.335 161.662C139.171 162.292 138.831 162.809 138.315 163.215C137.798 163.613 137.151 163.818 136.374 163.832C135.755 163.843 135.198 163.714 134.701 163.445C134.212 163.175 133.825 162.789 133.538 162.287C133.252 161.776 133.103 161.184 133.091 160.509C133.079 159.835 133.204 159.242 133.464 158.73C133.725 158.218 134.095 157.822 134.574 157.544C135.061 157.258 135.622 157.11 136.256 157.098C136.875 157.088 137.424 157.213 137.905 157.474C138.386 157.736 138.757 158.102 139.019 158.573C139.289 159.037 139.429 159.566 139.439 160.161ZM138.317 159.954C138.31 159.542 138.213 159.19 138.025 158.9C137.837 158.602 137.584 158.38 137.264 158.235C136.952 158.082 136.605 158.009 136.225 158.015C135.677 158.025 135.213 158.207 134.83 158.563C134.455 158.919 134.246 159.406 134.201 160.026L138.317 159.954ZM146.656 157.917L145.288 157.94L145.386 163.567L144.303 163.586L144.205 157.959L143.361 157.974L143.345 157.082L144.19 157.067L144.182 156.603C144.169 155.873 144.346 155.339 144.713 154.999C145.088 154.652 145.691 154.47 146.524 154.456L146.54 155.36C146.064 155.368 145.729 155.469 145.534 155.663C145.347 155.849 145.257 156.156 145.264 156.584L145.272 157.048L146.64 157.024L146.656 157.917ZM148.443 155.934C148.237 155.937 148.061 155.869 147.916 155.729C147.771 155.588 147.696 155.415 147.693 155.209C147.689 155.003 147.758 154.827 147.898 154.682C148.038 154.537 148.211 154.462 148.417 154.459C148.616 154.455 148.784 154.524 148.921 154.664C149.066 154.804 149.141 154.977 149.144 155.184C149.148 155.39 149.079 155.566 148.939 155.711C148.807 155.856 148.642 155.93 148.443 155.934ZM148.985 156.983L149.099 163.503L148.016 163.521L147.903 157.002L148.985 156.983ZM151.873 154.648L152.027 163.451L150.944 163.47L150.79 154.667L151.873 154.648ZM159.759 159.806C159.762 160.012 159.754 160.231 159.734 160.461L154.524 160.552C154.575 161.194 154.801 161.693 155.204 162.051C155.615 162.401 156.106 162.571 156.677 162.561C157.145 162.553 157.532 162.439 157.837 162.22C158.151 161.992 158.368 161.695 158.488 161.328L159.654 161.307C159.49 161.937 159.15 162.454 158.634 162.86C158.117 163.258 157.47 163.464 156.693 163.477C156.074 163.488 155.517 163.359 155.02 163.09C154.532 162.821 154.144 162.435 153.858 161.932C153.571 161.421 153.422 160.829 153.41 160.155C153.398 159.481 153.523 158.887 153.784 158.375C154.044 157.863 154.414 157.468 154.893 157.19C155.38 156.903 155.941 156.755 156.575 156.744C157.194 156.733 157.744 156.858 158.224 157.12C158.705 157.381 159.076 157.747 159.338 158.219C159.608 158.682 159.748 159.211 159.759 159.806ZM158.636 159.599C158.629 159.187 158.532 158.836 158.344 158.545C158.157 158.247 157.903 158.026 157.583 157.88C157.271 157.727 156.925 157.654 156.544 157.661C155.997 157.67 155.532 157.853 155.149 158.209C154.775 158.564 154.565 159.052 154.52 159.671L158.636 159.599Z" fill="#6200EE"/>
<path d="M167.266 163.293C166.655 163.303 166.097 163.174 165.593 162.905C165.096 162.636 164.701 162.25 164.406 161.748C164.12 161.237 163.971 160.645 163.959 159.971C163.947 159.304 164.08 158.715 164.356 158.203C164.641 157.682 165.031 157.282 165.525 157.004C166.02 156.718 166.577 156.569 167.196 156.558C167.814 156.548 168.376 156.677 168.88 156.945C169.385 157.206 169.784 157.588 170.078 158.091C170.381 158.593 170.538 159.182 170.549 159.856C170.561 160.53 170.421 161.127 170.129 161.648C169.844 162.161 169.45 162.56 168.948 162.847C168.445 163.133 167.884 163.282 167.266 163.293ZM167.249 162.341C167.638 162.334 168.001 162.237 168.339 162.048C168.676 161.86 168.945 161.581 169.145 161.213C169.353 160.844 169.452 160.398 169.443 159.875C169.434 159.352 169.323 158.909 169.111 158.548C168.898 158.187 168.624 157.922 168.287 157.753C167.951 157.577 167.589 157.492 167.2 157.498C166.804 157.505 166.44 157.603 166.11 157.791C165.788 157.971 165.531 158.246 165.339 158.614C165.147 158.982 165.056 159.428 165.065 159.951C165.074 160.483 165.177 160.929 165.374 161.291C165.579 161.652 165.845 161.921 166.174 162.098C166.502 162.267 166.86 162.348 167.249 162.341ZM173.017 157.623C173.201 157.247 173.466 156.953 173.811 156.74C174.164 156.528 174.595 156.417 175.102 156.408L175.122 157.527L174.836 157.532C173.623 157.553 173.028 158.222 173.051 159.538L173.113 163.083L172.03 163.102L171.916 156.583L172.999 156.564L173.017 157.623ZM182.076 154.633C182.98 154.617 183.765 154.774 184.429 155.103C185.101 155.425 185.617 155.896 185.977 156.516C186.344 157.136 186.536 157.871 186.551 158.72C186.565 159.568 186.4 160.309 186.054 160.942C185.716 161.566 185.216 162.051 184.556 162.396C183.903 162.732 183.125 162.909 182.221 162.924L179.639 162.969L179.495 154.678L182.076 154.633ZM182.205 162.032C183.276 162.014 184.088 161.718 184.641 161.145C185.194 160.564 185.462 159.762 185.444 158.739C185.426 157.708 185.127 156.908 184.546 156.339C183.972 155.77 183.154 155.494 182.092 155.513L180.593 155.539L180.706 162.058L182.205 162.032ZM189.038 157.343C189.222 156.967 189.486 156.673 189.832 156.461C190.185 156.248 190.615 156.138 191.123 156.129L191.143 157.247L190.857 157.252C189.644 157.273 189.048 157.942 189.071 159.259L189.133 162.804L188.051 162.823L187.937 156.303L189.019 156.285L189.038 157.343ZM192.027 159.469C192.015 158.803 192.14 158.217 192.401 157.713C192.662 157.201 193.023 156.802 193.487 156.516C193.958 156.23 194.483 156.082 195.061 156.072C195.633 156.062 196.13 156.176 196.555 156.415C196.98 156.653 197.298 156.957 197.511 157.326L197.49 156.137L198.585 156.118L198.698 162.637L197.604 162.656L197.583 161.442C197.375 161.827 197.06 162.15 196.636 162.411C196.22 162.664 195.73 162.796 195.167 162.806C194.588 162.816 194.062 162.682 193.589 162.405C193.116 162.127 192.741 161.733 192.462 161.222C192.183 160.712 192.038 160.127 192.027 159.469ZM197.547 159.384C197.538 158.893 197.432 158.466 197.227 158.105C197.022 157.743 196.748 157.471 196.404 157.286C196.067 157.094 195.697 157.001 195.292 157.008C194.888 157.015 194.52 157.117 194.191 157.313C193.861 157.509 193.6 157.791 193.408 158.16C193.216 158.528 193.125 158.958 193.133 159.45C193.142 159.949 193.249 160.384 193.453 160.753C193.658 161.114 193.929 161.391 194.265 161.584C194.602 161.768 194.972 161.857 195.377 161.85C195.781 161.843 196.148 161.741 196.478 161.545C196.815 161.341 197.08 161.055 197.272 160.686C197.464 160.31 197.555 159.876 197.547 159.384ZM203.101 155.932C203.664 155.922 204.158 156.036 204.582 156.275C205.015 156.513 205.338 156.817 205.55 157.186L205.53 155.996L206.624 155.977L206.74 162.639C206.751 163.234 206.633 163.764 206.387 164.228C206.142 164.7 205.783 165.072 205.312 165.342C204.849 165.612 204.304 165.752 203.677 165.763C202.821 165.778 202.103 165.588 201.525 165.194C200.947 164.799 200.6 164.254 200.485 163.558L201.556 163.539C201.682 163.933 201.933 164.246 202.31 164.478C202.687 164.717 203.137 164.832 203.661 164.823C204.255 164.813 204.736 164.618 205.102 164.239C205.476 163.859 205.658 163.332 205.646 162.658L205.622 161.29C205.415 161.675 205.103 161.997 204.687 162.259C204.271 162.52 203.781 162.655 203.218 162.665C202.639 162.675 202.11 162.542 201.629 162.264C201.156 161.987 200.78 161.593 200.501 161.082C200.223 160.571 200.078 159.987 200.066 159.329C200.055 158.662 200.179 158.077 200.44 157.573C200.701 157.06 201.063 156.661 201.526 156.376C201.997 156.09 202.522 155.942 203.101 155.932ZM205.586 159.244C205.578 158.752 205.471 158.326 205.266 157.964C205.062 157.603 204.787 157.33 204.443 157.146C204.106 156.953 203.736 156.861 203.331 156.868C202.927 156.875 202.56 156.976 202.23 157.173C201.9 157.369 201.639 157.651 201.447 158.019C201.256 158.388 201.164 158.818 201.173 159.309C201.181 159.809 201.288 160.243 201.493 160.613C201.697 160.974 201.968 161.251 202.305 161.443C202.641 161.628 203.011 161.717 203.416 161.71C203.82 161.703 204.188 161.601 204.517 161.405C204.855 161.201 205.12 160.914 205.312 160.546C205.503 160.17 205.595 159.736 205.586 159.244ZM214.859 155.715C215.351 155.706 215.797 155.805 216.197 156.012C216.597 156.212 216.912 156.52 217.141 156.936C217.379 157.352 217.502 157.862 217.513 158.465L217.58 162.307L216.509 162.326L216.445 158.638C216.434 157.988 216.262 157.495 215.931 157.16C215.6 156.816 215.153 156.649 214.59 156.659C214.019 156.669 213.566 156.856 213.231 157.219C212.904 157.581 212.747 158.104 212.759 158.786L212.821 162.39L211.739 162.409L211.585 153.606L212.668 153.587L212.724 156.799C212.932 156.462 213.221 156.199 213.591 156.01C213.968 155.821 214.391 155.723 214.859 155.715ZM225.235 158.663C225.239 158.869 225.231 159.088 225.211 159.318L220.001 159.409C220.051 160.051 220.278 160.551 220.681 160.908C221.092 161.258 221.583 161.428 222.154 161.418C222.622 161.41 223.008 161.296 223.314 161.077C223.627 160.849 223.844 160.552 223.965 160.185L225.131 160.164C224.967 160.794 224.627 161.312 224.111 161.717C223.594 162.115 222.947 162.321 222.17 162.334C221.551 162.345 220.994 162.216 220.497 161.947C220.008 161.678 219.621 161.292 219.334 160.789C219.048 160.278 218.899 159.686 218.887 159.012C218.875 158.338 219 157.745 219.26 157.232C219.521 156.72 219.891 156.325 220.37 156.047C220.857 155.761 221.418 155.612 222.052 155.601C222.671 155.59 223.22 155.715 223.701 155.977C224.182 156.238 224.553 156.604 224.815 157.076C225.085 157.539 225.225 158.068 225.235 158.663ZM224.113 158.457C224.106 158.044 224.009 157.693 223.821 157.403C223.633 157.104 223.38 156.883 223.06 156.738C222.748 156.584 222.401 156.511 222.021 156.518C221.473 156.527 221.009 156.71 220.626 157.066C220.251 157.421 220.042 157.909 219.997 158.528L224.113 158.457ZM227.713 156.668C227.897 156.292 228.161 155.998 228.507 155.786C228.86 155.573 229.29 155.463 229.798 155.454L229.818 156.572L229.532 156.577C228.319 156.598 227.723 157.267 227.746 158.584L227.808 162.129L226.726 162.148L226.612 155.628L227.694 155.609L227.713 156.668ZM237.05 158.457C237.054 158.663 237.046 158.881 237.026 159.112L231.816 159.203C231.866 159.844 232.093 160.344 232.496 160.702C232.907 161.052 233.398 161.222 233.969 161.212C234.437 161.204 234.824 161.09 235.129 160.87C235.442 160.643 235.659 160.345 235.78 159.978L236.946 159.958C236.782 160.588 236.442 161.105 235.926 161.511C235.409 161.909 234.762 162.114 233.985 162.128C233.366 162.139 232.809 162.01 232.312 161.741C231.823 161.472 231.436 161.086 231.149 160.583C230.863 160.072 230.714 159.48 230.702 158.806C230.69 158.132 230.815 157.538 231.075 157.026C231.336 156.514 231.706 156.119 232.185 155.84C232.672 155.554 233.233 155.406 233.867 155.395C234.486 155.384 235.036 155.509 235.516 155.77C235.997 156.032 236.368 156.398 236.63 156.87C236.9 157.333 237.04 157.862 237.05 158.457ZM235.928 158.25C235.921 157.838 235.824 157.487 235.636 157.196C235.449 156.898 235.195 156.676 234.875 156.531C234.563 156.378 234.216 156.305 233.836 156.311C233.289 156.321 232.824 156.504 232.441 156.859C232.067 157.215 231.857 157.703 231.812 158.322L235.928 158.25Z" fill="#8094AE"/>
<path d="M129.639 188.614C129.128 188.623 128.668 188.542 128.258 188.372C127.855 188.194 127.536 187.947 127.301 187.633C127.065 187.311 126.94 186.94 126.926 186.518L128.003 186.499C128.046 186.861 128.199 187.166 128.463 187.413C128.734 187.653 129.121 187.768 129.624 187.759C130.105 187.751 130.481 187.626 130.75 187.384C131.027 187.135 131.163 186.822 131.156 186.444C131.151 186.148 131.065 185.909 130.899 185.727C130.733 185.544 130.527 185.407 130.281 185.315C130.035 185.223 129.704 185.126 129.287 185.022C128.774 184.897 128.361 184.771 128.048 184.644C127.742 184.516 127.476 184.313 127.249 184.035C127.029 183.751 126.915 183.367 126.907 182.886C126.899 182.464 127 182.089 127.209 181.759C127.418 181.43 127.713 181.173 128.095 180.989C128.485 180.804 128.931 180.707 129.434 180.699C130.16 180.686 130.755 180.857 131.22 181.212C131.693 181.566 131.964 182.043 132.034 182.641L130.923 182.661C130.881 182.365 130.721 182.109 130.443 181.892C130.166 181.667 129.801 181.559 129.349 181.566C128.927 181.574 128.585 181.691 128.323 181.918C128.06 182.137 127.932 182.443 127.939 182.835C127.944 183.116 128.025 183.344 128.184 183.519C128.35 183.694 128.548 183.828 128.78 183.92C129.018 184.005 129.349 184.102 129.773 184.214C130.286 184.345 130.7 184.479 131.013 184.614C131.326 184.742 131.596 184.948 131.824 185.233C132.05 185.51 132.168 185.893 132.177 186.382C132.183 186.759 132.09 187.116 131.896 187.453C131.702 187.79 131.41 188.065 131.021 188.279C130.633 188.493 130.172 188.605 129.639 188.614ZM134.099 181.384C133.906 181.387 133.742 181.323 133.607 181.192C133.471 181.061 133.402 180.9 133.398 180.707C133.395 180.515 133.459 180.351 133.59 180.215C133.721 180.08 133.882 180.01 134.075 180.007C134.26 180.004 134.417 180.067 134.545 180.198C134.68 180.329 134.75 180.491 134.753 180.684C134.756 180.876 134.693 181.04 134.562 181.176C134.438 181.311 134.284 181.38 134.099 181.384ZM134.605 182.363L134.711 188.448L133.7 188.466L133.594 182.381L134.605 182.363ZM137.173 187.572L140.16 187.52L140.175 188.352L136.033 188.425L136.019 187.592L138.895 183.11L135.964 183.161L135.949 182.34L140.046 182.268L140.061 183.09L137.173 187.572ZM146.98 184.957C146.984 185.15 146.976 185.353 146.958 185.568L142.094 185.653C142.142 186.252 142.354 186.719 142.73 187.053C143.113 187.379 143.571 187.538 144.104 187.529C144.541 187.521 144.902 187.415 145.187 187.21C145.479 186.997 145.682 186.72 145.794 186.377L146.883 186.358C146.73 186.946 146.413 187.429 145.931 187.808C145.448 188.179 144.844 188.371 144.119 188.384C143.542 188.394 143.021 188.273 142.558 188.022C142.102 187.771 141.74 187.411 141.473 186.942C141.205 186.465 141.066 185.912 141.055 185.283C141.044 184.654 141.16 184.1 141.404 183.622C141.647 183.144 141.992 182.775 142.439 182.515C142.894 182.248 143.417 182.109 144.009 182.099C144.587 182.089 145.1 182.206 145.548 182.45C145.997 182.694 146.343 183.036 146.588 183.476C146.84 183.908 146.971 184.402 146.98 184.957ZM145.933 184.764C145.926 184.38 145.835 184.052 145.66 183.781C145.485 183.502 145.248 183.296 144.95 183.16C144.658 183.017 144.335 182.949 143.98 182.955C143.469 182.964 143.035 183.134 142.678 183.466C142.329 183.798 142.133 184.253 142.091 184.832L145.933 184.764ZM152.198 179.924L152.342 188.14L151.331 188.158L151.188 179.941L152.198 179.924ZM154.462 181.028C154.27 181.031 154.106 180.968 153.97 180.837C153.835 180.706 153.765 180.544 153.762 180.352C153.758 180.159 153.822 179.995 153.953 179.86C154.084 179.724 154.246 179.655 154.438 179.651C154.623 179.648 154.78 179.712 154.908 179.843C155.044 179.974 155.113 180.136 155.116 180.328C155.12 180.521 155.056 180.685 154.925 180.82C154.802 180.956 154.647 181.025 154.462 181.028ZM154.968 182.008L155.074 188.092L154.064 188.11L153.958 182.025L154.968 182.008ZM164.005 181.739C164.479 181.731 164.903 181.823 165.276 182.017C165.65 182.203 165.947 182.49 166.169 182.879C166.39 183.267 166.506 183.743 166.516 184.305L166.578 187.892L165.579 187.909L165.519 184.467C165.508 183.86 165.349 183.4 165.039 183.087C164.738 182.767 164.331 182.611 163.821 182.62C163.295 182.629 162.88 182.806 162.575 183.152C162.27 183.491 162.123 183.978 162.134 184.615L162.192 187.968L161.193 187.986L161.133 184.544C161.123 183.937 160.963 183.477 160.654 183.164C160.352 182.843 159.946 182.687 159.435 182.696C158.909 182.705 158.494 182.883 158.189 183.229C157.884 183.567 157.737 184.055 157.748 184.692L157.807 188.045L156.796 188.062L156.69 181.978L157.7 181.96L157.716 182.837C157.91 182.515 158.172 182.267 158.502 182.09C158.84 181.914 159.212 181.823 159.619 181.816C160.13 181.807 160.584 181.913 160.98 182.136C161.376 182.359 161.675 182.69 161.875 183.131C162.038 182.699 162.313 182.361 162.701 182.117C163.089 181.873 163.524 181.747 164.005 181.739ZM168.634 180.781C168.442 180.784 168.278 180.72 168.142 180.589C168.007 180.459 167.937 180.297 167.934 180.104C167.93 179.912 167.994 179.748 168.125 179.612C168.256 179.477 168.418 179.407 168.61 179.404C168.795 179.401 168.952 179.465 169.08 179.596C169.215 179.727 169.285 179.888 169.288 180.081C169.292 180.273 169.228 180.437 169.097 180.573C168.973 180.708 168.819 180.778 168.634 180.781ZM169.14 181.76L169.246 187.845L168.236 187.863L168.13 181.778L169.14 181.76ZM172.109 182.542L172.172 186.128C172.177 186.424 172.243 186.634 172.371 186.758C172.499 186.874 172.719 186.929 173.03 186.924L173.774 186.911L173.788 187.766L172.878 187.782C172.315 187.791 171.891 187.669 171.605 187.415C171.32 187.161 171.172 186.738 171.161 186.146L171.099 182.559L170.31 182.573L170.296 181.74L171.084 181.726L171.057 180.194L172.068 180.177L172.094 181.709L173.682 181.681L173.697 182.514L172.109 182.542ZM177.67 186.887C178.597 186.116 179.323 185.485 179.847 184.994C180.372 184.497 180.811 183.982 181.164 183.45C181.525 182.91 181.701 182.385 181.692 181.875C181.684 181.393 181.559 181.018 181.317 180.748C181.083 180.471 180.706 180.337 180.188 180.346C179.685 180.355 179.295 180.521 179.019 180.844C178.751 181.16 178.61 181.58 178.597 182.106L177.62 182.123C177.635 181.294 177.876 180.649 178.342 180.189C178.808 179.729 179.414 179.493 180.162 179.48C180.924 179.467 181.531 179.667 181.983 180.081C182.442 180.495 182.678 181.072 182.691 181.813C182.701 182.427 182.527 183.03 182.167 183.621C181.814 184.205 181.408 184.723 180.95 185.175C180.491 185.62 179.904 186.141 179.189 186.739L183.009 186.672L183.023 187.516L177.683 187.609L177.67 186.887ZM184.121 183.487C184.099 182.214 184.289 181.218 184.691 180.5C185.093 179.775 185.812 179.404 186.849 179.385C187.878 179.368 188.606 179.714 189.033 180.425C189.46 181.128 189.684 182.116 189.706 183.39C189.729 184.685 189.539 185.695 189.137 186.421C188.735 187.146 188.02 187.517 186.991 187.535C185.955 187.553 185.223 187.207 184.796 186.496C184.369 185.786 184.144 184.782 184.121 183.487ZM188.707 183.407C188.696 182.763 188.642 182.22 188.545 181.777C188.456 181.327 188.276 180.967 188.004 180.698C187.741 180.429 187.361 180.298 186.865 180.307C186.361 180.316 185.979 180.459 185.717 180.738C185.463 181.016 185.295 181.382 185.214 181.835C185.141 182.281 185.109 182.826 185.121 183.47C185.132 184.136 185.183 184.694 185.272 185.144C185.369 185.594 185.549 185.954 185.813 186.223C186.084 186.492 186.471 186.623 186.975 186.614C187.471 186.605 187.846 186.462 188.1 186.183C188.362 185.905 188.53 185.539 188.603 185.086C188.684 184.633 188.719 184.073 188.707 183.407ZM199.047 179.639L199.182 187.323L198.171 187.34L198.071 181.611L195.617 187.385L194.907 187.397L192.242 181.701L192.342 187.442L191.332 187.46L191.197 179.776L192.286 179.757L195.239 186.059L197.97 179.658L199.047 179.639ZM204.701 183.239C204.983 183.278 205.24 183.389 205.473 183.57C205.713 183.751 205.902 183.977 206.04 184.248C206.185 184.52 206.261 184.811 206.266 185.122C206.273 185.514 206.179 185.871 205.985 186.193C205.791 186.507 205.503 186.761 205.121 186.952C204.746 187.137 204.3 187.233 203.782 187.242L200.895 187.293L200.76 179.554L203.536 179.505C204.061 179.496 204.511 179.577 204.884 179.748C205.257 179.912 205.539 180.14 205.729 180.433C205.919 180.726 206.018 181.057 206.024 181.428C206.032 181.887 205.913 182.27 205.666 182.578C205.427 182.878 205.105 183.099 204.701 183.239ZM201.829 182.878L203.528 182.848C204.001 182.84 204.366 182.723 204.621 182.496C204.876 182.27 205 181.96 204.994 181.568C204.987 181.175 204.852 180.871 204.589 180.653C204.326 180.435 203.95 180.331 203.462 180.339L201.785 180.369L201.829 182.878ZM203.679 186.411C204.182 186.402 204.572 186.277 204.849 186.035C205.127 185.793 205.261 185.462 205.254 185.04C205.247 184.61 205.093 184.276 204.792 184.037C204.492 183.79 204.094 183.672 203.598 183.68L201.843 183.711L201.891 186.442L203.679 186.411Z" fill="#8094AE"/>
</svg>
